<?xml version="1.0" encoding="utf-8"?>
<!-- Generator: Adobe Illustrator 14.0.0, SVG Export Plug-In  -->
<!DOCTYPE svg PUBLIC "-//W3C//DTD SVG 1.1 Basic//EN" "http://www.w3.org/Graphics/SVG/1.1/DTD/svg11-basic.dtd" [
	<!ENTITY ns_flows "http://ns.adobe.com/Flows/1.0/">
]>
<svg version="1.1" baseProfile="basic"
	 xmlns="http://www.w3.org/2000/svg" xmlns:xlink="http://www.w3.org/1999/xlink" xmlns:a="http://ns.adobe.com/AdobeSVGViewerExtensions/3.0/"
	 x="0px" y="0px" width="500px" height="500px" viewBox="-0.333 0 500 500" enable-background="new -0.333 0 500 500"
	 xml:space="preserve">
<defs>
</defs>
<rect fill="#FFFFFF" width="500" height="500"/>
<rect fill="#FFFFFF" width="500" height="500"/>
<text transform="matrix(1 0 0 1 31.4707 40.4453)"><tspan x="0" y="0" fill="#444444" font-family="'MyriadPro-Bold'" font-size="12">SVG Parser:</tspan><tspan x="61.812" y="0" fill="#444444" font-family="'MyriadPro-Regular'" font-size="12"> Gradients</tspan></text>
<linearGradient id="SVGID_1_" gradientUnits="userSpaceOnUse" x1="130.4951" y1="457.7842" x2="130.4951" y2="396.3105">
	<stop  offset="0" style="stop-color:#E5802A"/>
	<stop  offset="1" style="stop-color:#EBD300"/>
</linearGradient>
<path fill="url(#SVGID_1_)" d="M143.719,409.555c2.068,10.111-20.84,14.448-27.116,16.561
	c-12.671,4.265-21.783,10.453-29.314,21.376c2.333-0.435,4.481-2.257,6.977-1.974c-1.224,3.709-2.229,9.189-0.264,12.974
	c1.201-1.795,3.192-3.666,5.321-4.56c0.095,2.231,0.914,4.813,2.258,6.531c11.981-5.304,25.044-4.47,36.681-10.331
	c-0.031,0.829,0.651,2.213,0.455,3.27c4.425,0.204,8.005-4.376,10.185-7.84c2.694-4.281,1.705-8.201,3.356-12.69
	c1.666-4.527,5.768-6.831,10.029-8.22c3.609-1.176,11.633-2.435,11.41-7.496"/>
<linearGradient id="SVGID_2_" gradientUnits="userSpaceOnUse" x1="102.3818" y1="438.6396" x2="102.3818" y2="377.1648" gradientTransform="matrix(-0.8697 0.4935 0.4935 0.8697 264.0785 -9.4253)">
	<stop  offset="0" style="stop-color:#E5802A"/>
	<stop  offset="1" style="stop-color:#EBD300"/>
</linearGradient>
<path fill="url(#SVGID_2_)" d="M356.203,387.164c3.19,9.814,25.255,2.281,31.757,1.021c13.124-2.544,24.104-1.66,36.044,4.124
	c-2.243,0.773-5.012,0.248-7.042,1.727c2.896,2.623,6.475,6.892,6.633,11.153c-1.93-0.969-4.586-1.612-6.878-1.34
	c1.019,1.988,1.581,4.638,1.26,6.795c-13.039,1.3-23.988,8.474-37.001,9.117c0.437,0.706,0.524,2.248,1.217,3.068
	c-3.747,2.361-9.122,0.145-12.727-1.792c-4.455-2.395-5.53-6.292-9.183-9.381c-3.683-3.116-8.388-3.095-12.778-2.2
	c-3.72,0.76-11.319,3.623-13.625-0.888"/>
<linearGradient id="SVGID_3_" gradientUnits="userSpaceOnUse" x1="361.4648" y1="280.7852" x2="355.4992" y2="192.8913" gradientTransform="matrix(0.997 0.0772 -0.0772 0.997 18.995 -18.2489)">
	<stop  offset="0" style="stop-color:#E5802A"/>
	<stop  offset="1" style="stop-color:#EBD300"/>
</linearGradient>
<path fill="url(#SVGID_3_)" d="M305.46,186.146c0,0,3.559,17.285,44.113,15.526c40.555-1.76,66.031,11.917,71.953,33.877
	c7.465,12.555,4.701,21.865,4.701,21.865l-2.055,12.498c-6.564,14.461-11.395,18.85-11.395,18.85l-7.649,0.36l-21.803,3.892
	l-8.432-14.127l2.363-2.402l13.007,2.505c10.184-12.003,10.373-17.977,10.373-17.977c1.172-11.614-8.733-15.51-8.733-15.51
	c-3.926,5.004-3.926,5.004-3.926,5.004l2.244,6.16c0,0-5.604,10.863-9.225,11.942c-3.746,0.935-5.069,0.424-5.069,0.424l2.063-3.787
	l-7.195-12.531c3.974-6.475,14.527-20.32,0.944-22.479c-4.43-0.703-9.888,1.012-13.816,2.832
	c-9.089,4.213-11.981,14.583-11.51,23.93c0.112,2.238,1.895,7.086-0.241,8.762c-2.419,1.897-4.703-2.091-6.007-3.566
	c-6.007-6.784-12.016-13.567-18.023-20.351c-10.773-12.165-21.548-24.331-32.321-36.496L305.46,186.146z"/>
<linearGradient id="SVGID_4_" gradientUnits="userSpaceOnUse" x1="391.0205" y1="266.4326" x2="388.3315" y2="226.8148" gradientTransform="matrix(0.997 0.0772 -0.0772 0.997 18.995 -18.2489)">
	<stop  offset="0" style="stop-color:#E5802A"/>
	<stop  offset="1" style="stop-color:#EBD300"/>
</linearGradient>
<path fill="url(#SVGID_4_)" d="M403.709,232.325c-15.84-4.405-25.536,5.99-25.536,5.99s-0.68,3.486-7.377,14.399l7.195,12.531
	l-2.063,3.787c0,0,1.323,0.511,5.069-0.424c3.621-1.079,9.225-11.942,9.225-11.942l-2.244-6.16c0,0,0,0,3.926-5.004
	c0,0,9.905,3.896,8.733,15.51c0,0-0.15,4.127-6.015,12.387c1.072,1.222,2.66,3.026,5,5.708c14.31-16.864,0.571-35.729,0.571-35.729
	S395.382,237.632,403.709,232.325z"/>
<path opacity="0.5" fill="#A6790E" d="M349.573,201.672c-17.422,0.755-28.004-2.006-34.422-5.399
	c1.932,2.592,12.656,15.624,35.31,18.99c-7.929-4.201-8.531-5.685-8.531-5.685l35.959,6.015l-12.688-7.622
	c0,0,33.533,0.264,42.978,19.656c-1.368-7.821-1.244-9.427-1.244-9.427l14.359,16.577
	C414.986,213.273,389.646,199.936,349.573,201.672z"/>
<linearGradient id="SVGID_5_" gradientUnits="userSpaceOnUse" x1="374.9453" y1="280.082" x2="368.9796" y2="192.1873" gradientTransform="matrix(-0.9673 -0.2536 -0.2536 0.9673 550.6561 71.3257)">
	<stop  offset="0" style="stop-color:#E5802A"/>
	<stop  offset="1" style="stop-color:#EBD300"/>
</linearGradient>
<path fill="url(#SVGID_5_)" d="M200.185,166.524c0,0-9.025,15.166-46.765,0.223c-37.741-14.944-66.294-10.364-79.08,8.444
	c-11.165,9.415-11.604,19.117-11.604,19.117l-2.151,12.482c1.465,15.814,4.592,21.541,4.592,21.541l7.109,2.847l19.325,10.817
	l12.594-10.584l-1.445-3.045l-13.111-1.894c-5.689-14.677-3.912-20.383-3.912-20.383c2.696-11.356,13.331-11.793,13.331-11.793
	c2.07,6.014,2.07,6.014,2.07,6.014l-4.14,5.084c0,0,1.738,12.099,4.806,14.306c3.234,2.11,4.651,2.061,4.651,2.061l-0.709-4.253
	l10.902-9.484c-1.016-4.614-2.41-9.744-2.278-14.524c0.104-3.737,3.916-2.988,6.557-2.647c2.907,0.376,4.541,1.469,6.805,3.214
	c5.855,4.514,8.44,10.369,11.482,16.933c1.672,3.605,3.078,9.197,6.728,11.367c3.206,1.907,6.905-1.181,9.651-2.726
	c6.829-3.841,13.658-7.681,20.486-11.521c10.864-6.109,21.729-12.22,32.593-18.329L200.185,166.524z"/>
<linearGradient id="SVGID_6_" gradientUnits="userSpaceOnUse" x1="404.5" y1="265.7305" x2="401.8109" y2="226.1119" gradientTransform="matrix(-0.9673 -0.2536 -0.2536 0.9673 550.6561 71.3257)">
	<stop  offset="0" style="stop-color:#E5802A"/>
	<stop  offset="1" style="stop-color:#EBD300"/>
</linearGradient>
<path fill="url(#SVGID_6_)" d="M92.229,177.979c16.41,1.024,22.165,14.024,22.165,14.024s-0.498,3.517,2.254,16.021l-10.902,9.484
	l0.709,4.253c0,0-1.417,0.05-4.651-2.061c-3.067-2.207-4.806-14.306-4.806-14.306l4.14-5.084c0,0,0,0-2.07-6.014
	c0,0-10.635,0.437-13.331,11.793c0,0-1.211,3.948,1.625,13.674c-1.412,0.802-3.505,1.987-6.593,3.756
	c-7.997-20.622,11.162-33.945,11.162-33.945S98.361,185.721,92.229,177.979z"/>
<path opacity="0.5" fill="#A6790E" d="M153.42,166.747c16.213,6.42,27.115,7.278,34.29,6.173
	c-2.673,1.817-17.073,10.618-39.581,6.378c8.869-1.373,9.922-2.577,9.922-2.577l-35.944-6.095l14.484-3.045
	c0,0-31.771-10.733-47.045,4.496c3.854-6.942,4.263-8.499,4.263-8.499l-18.996,10.96C87.816,156.285,116.125,151.982,153.42,166.747
	z"/>
<linearGradient id="SVGID_7_" gradientUnits="userSpaceOnUse" x1="232.999" y1="422.9004" x2="232.999" y2="127.0979">
	<stop  offset="0" style="stop-color:#E5802A"/>
	<stop  offset="1" style="stop-color:#EBD300"/>
</linearGradient>
<path fill="url(#SVGID_7_)" d="M271.774,198.524c-29.892-8.665-62.731-11.322-91.738-1.082c-8.842,3.121-16.825,8.408-24.188,14.125
	c-3.825,2.97-7.511,6.114-11.113,9.349c-3.348,3.006-5.984,6.209-8.992,9.477c-1.758,1.91-3.768,3.583-5.559,5.46
	c-4.484,4.7-8.811,9.599-13.083,14.474c-7.109,8.111-14.716,15.784-22.002,23.762c2.615-0.274,5.456-1.478,7.79-2.739
	c-0.25,2.699-3.197,6.053-4.485,8.514c-1.784,3.41-3.685,6.889-5.014,10.506c-2.326,6.328-5.229,13.16-6.01,19.872
	c0.404-3.474,3.396-7.667,6.303-9.489c-3.587,21.619-1.635,42.346,3.671,63.349c1.898,7.516,4.492,15.663,8.183,22.497
	c0.451-2.623,0.781-6.596,0.68-9.359c5.025,8.908,10.395,16.94,17.895,23.938c6.266,5.846,14.495,10.634,22.013,14.466
	c-0.775-0.417-0.558-3.05-0.445-3.667c2.732,0.621,4.944,2.957,7.316,4.382c2.755,1.655,5.536,2.981,8.504,4.213
	c2.873,1.193,5.714,2.516,8.62,3.63c5.102,1.957,10.469,2.646,15.677,4.179c4.257,1.252,7.424,3.591,11.934,4.413
	c11.761,2.143,23.75,2.998,35.695,2.998c17.051,0,34.138-1.514,50.81-5.162c13.373-2.928,26.446-7.238,38.853-13.039
	c8.918-4.17,23.569-11.186,24.552-22.656c0.406,2.705,1.158,5.024,1.111,7.906c4.091-4.629,8.224-9.253,11.751-14.335
	c2.183-3.145,8.373-11.27,6.62-15.252c1.907,1.463,2.787,3.81,3.864,5.875c0.067-4.396,1.177-8.952,1.63-13.376
	c0.535-5.221,0.975-10.4,0.975-15.673c0-6.942-0.401-13.044-2.96-19.397c3.376,3.083,6.21,6.954,7.226,11.587
	c0.666-1.266,0.933-1.199,0.647-5.645c-0.195-3.045-1.839-5.079-2.537-8.03c-3.18-13.454-7.6-26.659-13.008-39.389
	c-2.316-5.453-5.229-10.465-8.598-15.355c-1.608-2.335-3.003-4.722-4.709-6.997c-3.101-4.135-6.304-7.968-9.253-12.229
	c-5.101-7.368-10.594-14.467-16.177-21.476C310.322,215.697,291.968,204.378,271.774,198.524z"/>
<path opacity="0.3" fill="#916E0B" d="M183.862,176.625c0,0-0.767,36.182,52.871,68.267c48.307-20.768,59.578-41.962,59.578-41.962
	L183.862,176.625z"/>
<path fill="#A6790E" d="M300.424,157.161c0,0,22.394-9.346,35.627-21.25c2.802-9.14,2.802-9.14,2.802-9.14l-30.799,5.001
	c-0.333,5.885-0.813,5.725-0.813,5.725l-11.668,9.191L300.424,157.161z"/>
<path fill="#A6790E" d="M217.738,127.21c0,0-18.723-15.437-27.937-30.666c-0.032-9.56-0.032-9.56-0.032-9.56l28.026,13.715
	c-1.388,5.729-0.881,5.715-0.881,5.715l8.502,12.18L217.738,127.21z"/>
<path fill="#B58018" d="M217.738,103.301l-30.966-12.38c0,0,3.993-21.346,11.905-29.889c0,0,14.827,13.196,29.691,19.782
	c-5.115,11.405-6.417,17.857-6.417,17.857l-2.707-0.597L217.738,103.301z"/>
<path fill="#BC831E" d="M199.483,62.745l23.519-27.332c3.417,7.021,5.063,8.683,5.063,8.683l-5.355,9.814l6.455,23.294l-2.159,3.899
	C227.005,81.104,207.632,74.589,199.483,62.745z"/>
<linearGradient id="SVGID_8_" gradientUnits="userSpaceOnUse" x1="240.2197" y1="276.252" x2="240.2197" y2="127.5594" gradientTransform="matrix(0.997 0.0772 -0.0772 0.997 18.995 -18.2489)">
	<stop  offset="0" style="stop-color:#E5802A"/>
	<stop  offset="1" style="stop-color:#EBD300"/>
</linearGradient>
<path fill="url(#SVGID_8_)" d="M203.765,124.027c-0.305,0.107-0.467,0.158-0.467,0.158l2.231,7.655l-15.732,4.429
	c5.071,7.452,2.573,14.178,2.573,14.178s-12.18,2.302-18.445-11.596c0,0,1.252,62.22,64.926,91.436
	c77.164-24.661,80.05-56.488,80.05-56.488s-12.654,2.972-20.358-5.106c6.655-5.696,6.655-5.696,6.655-5.696l-7.508-16.112
	c0,0,7.174-17.167,2.694-34.004c-19.672-15.436-44.875-20.617-62.393-17.442c-18.848,12.295-23.3,33.514-23.3,33.514
	L203.765,124.027z"/>
<linearGradient id="SVGID_9_" gradientUnits="userSpaceOnUse" x1="236.626" y1="230.0264" x2="242.2308" y2="166.0127" gradientTransform="matrix(0.997 0.0772 -0.0772 0.997 18.995 -18.2489)">
	<stop  offset="0" style="stop-color:#E5802A"/>
	<stop  offset="1" style="stop-color:#EBD300"/>
</linearGradient>
<path fill="url(#SVGID_9_)" d="M288.966,155.044c-18.772,7.175-43.634,6.352-71.022-13.166c0,0-29.208,27.6-12.852,65.196
	c8.639,8.667,19.668,16.748,33.759,23.213c17.928-5.73,31.842-11.847,42.646-17.862l2.135-1.208
	c0.064-0.037,0.131-0.074,0.192-0.111C283.832,211.091,293.871,185.409,288.966,155.044z"/>
<path fill="#897512" d="M218.36,142.167l-5.349,20.126l71.87,14.96l4.084-22.209c-1.451,1.044-7.586,8.717-34.283,5.005
	C230.159,156.64,218.36,142.167,218.36,142.167z"/>
<path fill="#FFFFFF" d="M218.36,142.167l5.067,14.317c-8.454,4.735-10.416,5.809-10.416,5.809s25.198,23.763,71.87,14.96
	c-4.969-7.574-4.992-9.373-4.992-9.373l9.076-12.836C270.29,162.182,245.584,161.396,218.36,142.167z"/>
<linearGradient id="SVGID_10_" gradientUnits="userSpaceOnUse" x1="243.0225" y1="175.7754" x2="245.8082" y2="150.0024" gradientTransform="matrix(0.997 0.0772 -0.0772 0.997 18.995 -18.2489)">
	<stop  offset="0" style="stop-color:#FFFFFF"/>
	<stop  offset="1" style="stop-color:#C3C3C3"/>
</linearGradient>
<path fill="url(#SVGID_10_)" d="M286.397,158.677l0.155-2.773c-18.33,6.16-42.026,4.68-68.03-13.626l-0.057,0.185l4.962,14.022
	c0,0,18.514,17.111,56.462,11.396L286.397,158.677z"/>
<ellipse transform="matrix(0.997 0.0771 -0.0771 0.997 15.288 -16.0031)" opacity="0.5" fill="#A6790E" cx="214.805" cy="189.902" rx="5.539" ry="10.214"/>
<radialGradient id="SVGID_11_" cx="270.3145" cy="149.873" r="15.2679" gradientTransform="matrix(1.2151 0.1452 -0.1452 1.2151 -21.514 -87.9268)" gradientUnits="userSpaceOnUse">
	<stop  offset="0.0121" style="stop-color:#FFFFFF"/>
	<stop  offset="1" style="stop-color:#C3C3C3"/>
</radialGradient>
<circle fill="url(#SVGID_11_)" cx="284.457" cy="132.23" r="9.962"/>
<circle fill="#E5B75C" cx="284.491" cy="131.944" r="4.949"/>
<circle fill="#494949" cx="284.49" cy="131.945" r="1.628"/>
<circle fill="#FFFFFF" cx="288.753" cy="129.392" r="1.92"/>
<linearGradient id="SVGID_12_" gradientUnits="userSpaceOnUse" x1="245.5479" y1="162.3564" x2="248.2691" y2="134.6457" gradientTransform="matrix(0.997 0.0772 -0.0772 0.997 18.995 -18.2489)">
	<stop  offset="0" style="stop-color:#E5802A"/>
	<stop  offset="1" style="stop-color:#EBD300"/>
</linearGradient>
<path fill="url(#SVGID_12_)" d="M228.118,130.794c0,0-15.237,2.774-7.989,15.646c7.249,12.872,54.25,20.015,69.117,11.791
	c0.229-7.325-5.114-11.24-8.085-13.728C266.844,136.842,252.234,130.063,228.118,130.794z"/>
<path opacity="0.3" fill="#916E0B" d="M245.263,139.024c0,0-7.516,11.674,6.364,17.895c13.571,6.084,21.869-6.596,20.481-11.531
	C263.456,148.364,245.263,139.024,245.263,139.024z"/>
<linearGradient id="SVGID_13_" gradientUnits="userSpaceOnUse" x1="247.0732" y1="160.957" x2="252.0761" y2="139.6413" gradientTransform="matrix(0.9989 0.0469 -0.0469 0.9989 14.3336 -11.4626)">
	<stop  offset="0" style="stop-color:#2E2B22"/>
	<stop  offset="1" style="stop-color:#5C636A"/>
</linearGradient>
<path fill="url(#SVGID_13_)" d="M245.263,139.024c0,0,3.125-6.088,16.94-2.165s10.756,12.022,6.429,15.093
	c-4.322,3.07-8.241,4.188-13.674,3.104C249.528,153.973,242.653,146.59,245.263,139.024z"/>
<ellipse transform="matrix(0.9517 0.3069 -0.3069 0.9517 56.3795 -74.0064)" fill="#FFFFFF" cx="263.506" cy="142.266" rx="3.92" ry="1.752"/>
<ellipse transform="matrix(0.997 0.0773 -0.0773 0.997 9.9175 -18.3151)" opacity="0.5" fill="#A6790E" cx="241.669" cy="119.019" rx="13.038" ry="13.623"/>
<radialGradient id="SVGID_14_" cx="234.8975" cy="141.2471" r="14.0725" gradientTransform="matrix(1.2201 0.0945 -0.0945 1.2201 -31.2469 -75.6338)" gradientUnits="userSpaceOnUse">
	<stop  offset="0.0121" style="stop-color:#FFFFFF"/>
	<stop  offset="1" style="stop-color:#C3C3C3"/>
</radialGradient>
<path fill="url(#SVGID_14_)" d="M249.88,118.415c-0.417,5.396-4.576,9.475-9.288,9.11c-4.713-0.366-8.194-5.035-7.776-10.431
	c0.419-5.396,4.576-9.475,9.29-9.11C246.817,108.35,250.298,113.02,249.88,118.415z"/>
<path fill="#E5B75C" d="M246.491,118.161c0.322-2.714-1.615-5.178-4.328-5.502c-2.712-0.323-5.178,1.614-5.5,4.325
	c-0.325,2.715,1.614,5.179,4.326,5.503C243.7,122.811,246.166,120.873,246.491,118.161z"/>
<circle fill="#494949" cx="241.575" cy="117.574" r="1.628"/>
<circle fill="#FFFFFF" cx="245.839" cy="115.021" r="1.919"/>
<path fill="#A6790E" d="M235.461,103.715c0,0,9.429-2.894,16.797-0.729c1.617-4.949,1.423-5.254,1.423-5.254
	S241.858,96.89,235.461,103.715z"/>
<path fill="#A6790E" d="M285.498,108.8l-2.177,5.538c0,0,9.705,2.496,13.201,9.987C293.828,112.473,285.498,108.8,285.498,108.8z"/>
<path fill="#B58018" d="M307.354,134.278l33.226-2.87c0,0,2.366-21.587-2.729-32.057c0,0-18.016,8.331-34.151,10.324
	c1.589,12.398,0.965,18.951,0.965,18.951l2.764,0.214L307.354,134.278z"/>
<path fill="#BC831E" d="M336.583,100.757L321.998,67.78c-5.306,5.729-7.362,6.842-7.362,6.842l2.28,10.946l-12.931,20.422
	l0.936,4.358C304.921,110.349,325.351,109.729,336.583,100.757z"/>
<ellipse transform="matrix(0.997 0.0771 -0.0771 0.997 16.2602 -16.7507)" opacity="0.5" fill="#A6790E" cx="225.102" cy="202.242" rx="2.673" ry="4.373"/>
<circle opacity="0.5" fill="#A6790E" cx="190.978" cy="163.794" r="2.489"/>
<linearGradient id="SVGID_15_" gradientUnits="userSpaceOnUse" x1="209.4111" y1="493.6885" x2="245.3712" y2="206.0153">
	<stop  offset="0" style="stop-color:#E5802A"/>
	<stop  offset="1" style="stop-color:#EBD300"/>
</linearGradient>
<ellipse fill="url(#SVGID_15_)" cx="229.542" cy="332.647" rx="87.403" ry="87.158"/>
<path opacity="0.5" fill="#A6790E" d="M148.333,259.074c5.039-1.889,9.484-7.854,6.334-13.422
	c-3.762-6.648-18.164-2.536-21.094,3.126C128.604,258.383,141.527,261.623,148.333,259.074z"/>
<path opacity="0.5" fill="#A6790E" d="M118,336.333c-15.044,5.593-9.191,25.614,5.667,24.667c15.275-0.974,9.047-19.38-0.982-23.667
	c-4.586-1.96-7.285-0.903-10.685,2.667"/>
<path opacity="0.5" fill="#A6790E" d="M107.083,304.583c3.334,1.778,8.612-0.178,9.926-3.573c1.837-4.753-2.034-9.31-7.003-8.931
	C104.328,292.512,101.857,301.796,107.083,304.583z"/>
<path opacity="0.5" fill="#A6790E" d="M345.335,331.259c8.291-1.489,13.271-9.581,9.636-17.484c-2.066-4.493-4.704-5.472-9.33-4.992
	c-6.431,0.668-15.752,3.336-14.942,11.295C331.461,327.582,337.876,332.599,345.335,331.259z"/>
<path opacity="0.5" fill="#A6790E" d="M301.14,264.93c3.849,4.792,14.062,4.952,15.545-1.853c1.243-5.702-2.944-9.376-8.29-9.944
	c-2.63-0.279-4.927-0.162-6.592,1.896C299.749,257.567,299.021,262.292,301.14,264.93z"/>
<linearGradient id="SVGID_16_" gradientUnits="userSpaceOnUse" x1="234.2803" y1="358.459" x2="239.1073" y2="491.6616">
	<stop  offset="0" style="stop-color:#ECEFCB"/>
	<stop  offset="1" style="stop-color:#B7BA91"/>
</linearGradient>
<path fill="url(#SVGID_16_)" d="M94.225,348.855c0,0,125.365,51.043,279.365-2.457c0.533,20.326-1.333,22.192-1.333,22.192
	s-91.351,20.245-97.851,64.745c-41.865,16.501-78.841,0-78.841,0S173.667,379,98.667,369
	C93.752,355.01,94.225,348.855,94.225,348.855z"/>
</svg>
