<?xml version="1.0" encoding="utf-8"?>
<!-- Generator: Adobe Illustrator 14.0.0, SVG Export Plug-In  -->
<!DOCTYPE svg PUBLIC "-//W3C//DTD SVG 1.1 Basic//EN" "http://www.w3.org/Graphics/SVG/1.1/DTD/svg11-basic.dtd" [
	<!ENTITY ns_flows "http://ns.adobe.com/Flows/1.0/">
]>
<svg version="1.1" baseProfile="basic"
	 xmlns="http://www.w3.org/2000/svg" xmlns:xlink="http://www.w3.org/1999/xlink" xmlns:a="http://ns.adobe.com/AdobeSVGViewerExtensions/3.0/"
	 x="0px" y="0px" width="500px" height="500px" viewBox="0 0 500 500" enable-background="new 0 0 500 500" xml:space="preserve">
<defs>
<style>.my-style{fill:#FF3535;}</style>
</defs>
<rect fill="#FFFFFF" width="500" height="500"/>
<text transform="matrix(1 0 0 1 31.4707 40.4448)"><tspan x="0" y="0" fill="#444444" font-family="'MyriadPro-Bold'" font-size="12">SVG Parser:</tspan><tspan x="61.811" y="0" fill="#444444" font-family="'MyriadPro-Regular'" font-size="12"> Shapes / Opacity / Blend</tspan></text>
<rect x="31.382" y="72.5" fill="#232323" width="77" height="77"/>
<circle fill="#232323" cx="70" cy="213.518" r="38.5"/>
<polygon fill="#232323" points="31.712,349.143 69.941,282.928 108.17,349.143 "/>
<polygon fill="#232323" points="45.526,455.942 30.509,409.726 69.823,381.163 109.137,409.726 94.121,455.942 "/>
<path fill="#444444" d="M208.052,75.948c0-1.657-1.343-3-3-3h-70.104c-1.657,0-3,1.343-3,3v70.104c0,1.657,1.343,3,3,3h70.104
	c1.657,0,3-1.343,3-3V75.948z"/>
<path fill="#444444" d="M208.052,187.465c0-6.627-5.373-12-12-12h-52.104c-6.627,0-12,5.373-12,12v52.104c0,6.627,5.373,12,12,12
	h52.104c6.627,0,12-5.373,12-12V187.465z"/>
<path fill="#444444" d="M208.052,278.948c0-6.627-5.373-12-12-12h-52.104c-6.627,0-12,5.373-12,12v92.104c0,6.627,5.373,12,12,12
	h52.104c6.627,0,12-5.373,12-12V278.948z"/>
<path fill="#444444" d="M225.385,441.386c6.627,0,12-5.373,12-12v-12.104c0-6.627-5.373-12-12-12h-92.104c-6.627,0-12,5.373-12,12
	v12.104c0,6.627,5.373,12,12,12H225.385z"/>
<path fill="#444444" d="M308.667,72.948h-70.104c-1.657,0-3,1.343-3,3v70.104c0,1.657,1.343,3,3,3h70.104c1.657,0,3-1.343,3-3
	V75.948C311.667,74.291,310.324,72.948,308.667,72.948z M290.931,134.834l-17.316-12.581l-17.316,12.581l6.614-20.356
	l-17.316-12.582H267l6.614-20.356l6.614,20.356h21.404l-17.316,12.582L290.931,134.834z"/>
<path fill="#444444" d="M260,219.5c-20.71,0-37.5,16.789-37.5,37.5s16.79,37.5,37.5,37.5c20.711,0,37.5-16.789,37.5-37.5
	S280.711,219.5,260,219.5z M277.478,281.056L260,271.868l-17.478,9.188l3.338-19.462l-14.14-13.783l19.541-2.84L260,227.265
	l8.739,17.707l19.541,2.84l-14.14,13.783L277.478,281.056z"/>
<path fill="#444444" d="M357.606,140.89c-20.056,0-36.314,16.258-36.314,36.314s16.258,36.314,36.314,36.314
	s36.314-16.258,36.314-36.314S377.662,140.89,357.606,140.89z M357.606,204.939c-10.581,0-19.158-12.418-19.158-27.736
	s8.577-27.736,19.158-27.736s19.158,12.418,19.158,27.736S368.187,204.939,357.606,204.939z"/>
<path opacity="0.5" fill="#444444" d="M357.606,213.518c-20.056,0-36.314,16.258-36.314,36.314s16.258,36.314,36.314,36.314
	s36.314-16.258,36.314-36.314S377.662,213.518,357.606,213.518z M357.606,277.567c-10.581,0-19.158-12.418-19.158-27.736
	s8.577-27.736,19.158-27.736s19.158,12.418,19.158,27.736S368.187,277.567,357.606,277.567z"/>
<path opacity="0.5" fill="#A5A5A5" d="M376.745,176.098c5.372-0.141,11.34,0.164,17.168,1.396c0.001-0.097,0.007-0.193,0.007-0.29
	c0-20.056-16.258-36.314-36.314-36.314v8.578C367.931,149.468,376.343,161.293,376.745,176.098z"/>
<path opacity="0.5" fill="#A5A5A5" d="M338.463,178.3c-5.372,0.141-11.34-0.164-17.168-1.396c-0.001,0.097-0.007,0.193-0.007,0.29
	c0,20.056,16.258,36.314,36.314,36.314v-8.578C347.278,204.93,338.865,193.104,338.463,178.3z"/>
<ellipse opacity="0.5" fill="#353535" cx="417.403" cy="77.811" rx="31.998" ry="50.75"/>
<ellipse transform="matrix(-0.7071 0.7071 -0.7071 -0.7071 767.5715 -162.318)" opacity="0.5" fill="#353535" cx="417.403" cy="77.811" rx="50.75" ry="31.998"/>
<ellipse opacity="0.5" fill="#353535" cx="417.403" cy="77.811" rx="50.75" ry="31.998"/>
<ellipse transform="matrix(-0.7071 -0.7071 0.7071 -0.7071 657.532 427.9809)" opacity="0.5" fill="#353535" cx="417.403" cy="77.812" rx="50.75" ry="31.998"/>
<circle fill="#444444" cx="453.694" cy="205.259" r="21.741"/>
<circle opacity="0.9273" fill="#4D4D4D" cx="453.694" cy="223.998" r="21.741"/>
<circle opacity="0.8545" fill="#565656" cx="453.694" cy="242.736" r="21.741"/>
<circle opacity="0.7818" fill="#5E5E5E" cx="453.694" cy="261.475" r="21.741"/>
<circle opacity="0.7091" fill="#676767" cx="453.694" cy="280.214" r="21.741"/>
<circle opacity="0.6364" fill="#707070" cx="453.694" cy="298.953" r="21.741"/>
<circle opacity="0.5636" fill="#797979" cx="453.694" cy="317.692" r="21.741"/>
<circle opacity="0.4909" fill="#828282" cx="453.694" cy="336.431" r="21.741"/>
<circle opacity="0.4182" fill="#8B8B8B" cx="453.694" cy="355.169" r="21.741"/>
<circle opacity="0.3455" fill="#939393" cx="453.694" cy="373.908" r="21.741"/>
<circle opacity="0.2727" fill="#9C9C9C" cx="453.694" cy="392.647" r="21.741"/>
<circle opacity="0.2" fill="#A5A5A5" cx="453.694" cy="411.386" r="21.741"/>
<path fill="#A5A5A5" d="M391.379,376.045c4.629-1.646,4.629-4.339,0-5.986l-19.107-6.794c-4.629-1.646-6.691-6.624-4.582-11.061
	l8.706-18.315c2.109-4.438,0.205-6.342-4.233-4.233l-18.315,8.706c-4.438,2.109-9.415,0.047-11.061-4.582l-6.794-19.107
	c-1.646-4.629-4.34-4.629-5.986,0l-6.794,19.107c-1.646,4.629-6.624,6.691-11.061,4.582l-18.315-8.707
	c-4.438-2.109-6.342-0.205-4.233,4.233l8.706,18.315c2.109,4.438,0.047,9.415-4.582,11.061l-19.106,6.794
	c-4.629,1.646-4.629,4.34,0,5.986l19.106,6.794c4.629,1.646,6.691,6.624,4.582,11.061l-8.706,18.315
	c-2.109,4.438-0.205,6.342,4.233,4.233l18.315-8.706c4.438-2.109,9.415-0.047,11.061,4.582l6.794,19.106
	c1.646,4.629,4.34,4.629,5.986,0l6.794-19.107c1.646-4.629,6.624-6.691,11.061-4.582l18.315,8.706
	c4.438,2.109,6.342,0.205,4.233-4.233L367.69,393.9c-2.109-4.438-0.047-9.415,4.582-11.061L391.379,376.045z M333,391.316
	c-10.086,0-18.264-8.177-18.264-18.264c0-10.086,8.177-18.264,18.264-18.264c10.087,0,18.264,8.177,18.264,18.264
	C351.264,383.139,343.087,391.316,333,391.316z"/>
<circle fill="#A5A5A5" cx="333" cy="373.052" r="7.116"/>
<path class="my-style" d="M370.438,459.5c0,12.969,10.513,23.482,23.482,23.482s23.482-10.514,23.482-23.482"/>
<path class="my-style" d="M370.438,451.297c0-12.969,10.513-23.482,23.482-23.482s23.482,10.514,23.482,23.482"/>
</svg>
