<?xml version="1.0" encoding="utf-8"?>
<!-- Generator: Adobe Illustrator 14.0.0, SVG Export Plug-In  -->
<!DOCTYPE svg PUBLIC "-//W3C//DTD SVG 1.1 Basic//EN" "http://www.w3.org/Graphics/SVG/1.1/DTD/svg11-basic.dtd" [
	<!ENTITY ns_flows "http://ns.adobe.com/Flows/1.0/">
]>
<svg version="1.1" baseProfile="basic"
	 xmlns="http://www.w3.org/2000/svg" xmlns:xlink="http://www.w3.org/1999/xlink" xmlns:a="http://ns.adobe.com/AdobeSVGViewerExtensions/3.0/"
	 x="0px" y="0px" width="500px" height="500px" viewBox="0 0 500 500" enable-background="new 0 0 500 500" xml:space="preserve">
<defs>
</defs>
<rect fill="#FFFFFF" width="500" height="500"/>
<text transform="matrix(1 0 0 1 31.4707 40.4448)"><tspan x="0" y="0" fill="#444444" font-family="'MyriadPro-Bold'" font-size="12">SVG Parser:</tspan><tspan x="61.811" y="0" fill="#444444" font-family="'MyriadPro-Regular'" font-size="12"> Transformations / Patterns</tspan></text>
<rect x="51.52" y="138.546" transform="matrix(0.7071 0.7071 -0.7071 0.7071 128.1165 -2.0939)" fill="#444444" width="30.131" height="30.13"/>
<rect x="72.825" y="117.24" transform="matrix(-0.7071 0.7071 -0.7071 -0.7071 243.5924 163.7132)" fill="#F5F5F5" width="30.13" height="30.131"/>
<rect x="94.131" y="138.544" transform="matrix(-0.7071 -0.7071 0.7071 -0.7071 77.789 339.4415)" fill="#444444" width="30.131" height="30.131"/>
<rect x="72.826" y="159.85" transform="matrix(0.7071 -0.7071 0.7071 0.7071 -97.942 113.3825)" fill="#F5F5F5" width="30.131" height="30.131"/>
<rect x="136.742" y="138.546" transform="matrix(0.7071 0.7071 -0.7071 0.7071 153.0777 -62.3526)" fill="#444444" width="30.131" height="30.13"/>
<rect x="158.047" y="117.24" transform="matrix(-0.7071 0.7071 -0.7071 -0.7071 389.0749 103.4481)" fill="#F5F5F5" width="30.131" height="30.13"/>
<rect x="179.352" y="138.544" transform="matrix(-0.7071 -0.7071 0.7071 -0.7071 223.2708 399.703)" fill="#444444" width="30.131" height="30.131"/>
<rect x="158.048" y="159.85" transform="matrix(0.7071 -0.7071 0.7071 0.7071 -72.9804 173.644)" fill="#F5F5F5" width="30.131" height="30.131"/>
<rect x="136.743" y="95.934" transform="matrix(-0.7071 -0.7071 0.7071 -0.7071 180.6632 296.8324)" fill="#444444" width="30.131" height="30.13"/>
<rect x="115.438" y="117.239" transform="matrix(0.7071 -0.7071 0.7071 0.7071 -55.33 131.0314)" fill="#F5F5F5" width="30.132" height="30.131"/>
<rect x="94.132" y="95.935" transform="matrix(0.7071 0.7071 -0.7071 0.7071 110.471 -44.703)" fill="#444444" width="30.132" height="30.131"/>
<rect x="115.436" y="74.63" transform="matrix(-0.7071 0.7071 -0.7071 -0.7071 286.2044 60.8385)" fill="#F5F5F5" width="30.131" height="30.131"/>
<rect x="136.743" y="181.156" transform="matrix(-0.7071 -0.7071 0.7071 -0.7071 120.4045 442.3146)" fill="#444444" width="30.131" height="30.129"/>
<rect x="115.438" y="202.461" transform="matrix(0.7071 -0.7071 0.7071 0.7071 -115.5892 155.9866)" fill="#F5F5F5" width="30.131" height="30.131"/>
<rect x="94.132" y="181.157" transform="matrix(0.7071 0.7071 -0.7071 0.7071 170.7336 -19.7422)" fill="#444444" width="30.132" height="30.131"/>
<rect x="115.436" y="159.852" transform="matrix(-0.7071 0.7071 -0.7071 -0.7071 346.4663 206.3178)" fill="#F5F5F5" width="30.131" height="30.13"/>
<path opacity="0.5" fill="#353535" d="M386.12,135.253c-8.519,5.962-15.384,14.112-19.787,23.64
	c6.187,2.202,12.844,3.411,19.786,3.411c23.757,0,44.22-14.048,53.571-34.283c-6.187-2.202-12.844-3.411-19.786-3.411
	C407.334,124.611,395.691,128.554,386.12,135.253z"/>
<path opacity="0.5" fill="#353535" d="M363.608,128.186c-1.808,10.24-0.899,20.856,2.725,30.708
	c5.932-2.817,11.494-6.67,16.403-11.579c16.798-16.799,21.334-41.201,13.639-62.122c-5.932,2.817-11.494,6.67-16.403,11.579
	C371.084,105.66,365.64,116.681,363.608,128.186z"/>
<ellipse fill="#F5F5F5" cx="129.5" cy="358.322" rx="87.514" ry="33.881"/>
<ellipse fill="#444444" cx="129.5" cy="358.322" rx="68.492" ry="26.517"/>
<ellipse fill="#F5F5F5" cx="129.5" cy="358.322" rx="48.432" ry="18.751"/>
<ellipse fill="#444444" cx="129.5" cy="358.322" rx="33.619" ry="13.016"/>
<ellipse fill="#F5F5F5" cx="129.5" cy="358.322" rx="17.542" ry="6.792"/>
<path opacity="0.5" fill="#353535" d="M342.693,139.107c5.962,8.519,14.111,15.384,23.64,19.787
	c2.202-6.187,3.411-12.844,3.411-19.787c0-23.756-14.048-44.219-34.282-53.571c-2.202,6.187-3.411,12.844-3.412,19.786
	C332.051,117.893,335.994,129.536,342.693,139.107z"/>
<path opacity="0.5" fill="#353535" d="M335.626,161.618c10.239,1.808,20.856,0.9,30.707-2.724
	c-2.817-5.932-6.67-11.494-11.579-16.403c-16.798-16.798-41.2-21.334-62.121-13.639c2.817,5.932,6.67,11.494,11.578,16.404
	C313.1,154.143,324.121,159.587,335.626,161.618z"/>
<path opacity="0.5" fill="#353535" d="M346.547,182.534c8.519-5.962,15.384-14.111,19.786-23.64
	c-6.187-2.202-12.843-3.411-19.786-3.411c-23.756,0-44.219,14.047-53.57,34.282c6.187,2.203,12.844,3.412,19.786,3.413
	C325.332,193.176,336.976,189.233,346.547,182.534z"/>
<path opacity="0.5" fill="#353535" d="M369.059,189.601c1.808-10.239,0.899-20.856-2.726-30.707
	c-5.932,2.817-11.492,6.669-16.402,11.579c-16.799,16.797-21.335,41.2-13.64,62.121c5.933-2.817,11.494-6.669,16.404-11.578
	C361.582,212.127,367.027,201.106,369.059,189.601z"/>
<path opacity="0.5" fill="#353535" d="M389.974,178.68c-5.962-8.518-14.111-15.383-23.641-19.786
	c-2.202,6.187-3.41,12.842-3.41,19.786c-0.001,23.756,14.047,44.219,34.281,53.57c2.203-6.187,3.411-12.843,3.413-19.786
	C400.615,199.896,396.673,188.251,389.974,178.68z"/>
<path opacity="0.5" fill="#353535" d="M397.04,156.168c-10.238-1.808-20.855-0.899-30.707,2.726
	c2.817,5.932,6.67,11.492,11.58,16.402c16.797,16.799,41.2,21.335,62.12,13.64c-2.816-5.933-6.669-11.494-11.577-16.404
	C419.567,163.646,408.546,158.2,397.04,156.168z"/>
<circle fill="#353535" cx="366.333" cy="158.894" r="8.507"/>
<path fill="#444444" d="M413.73,401.578c3.643,5.467,0.084,9.9-7.948,9.907l-83.659,0.057c-8.033,0.006-17.495-4.421-21.14-9.888
	l-37.946-56.932c-3.641-5.466-0.083-9.901,7.948-9.907l83.658-0.056c8.035-0.006,17.499,4.421,21.143,9.886L413.73,401.578z"/>
<path fill="#F5F5F5" d="M419.051,406.325c-2.705,5.952-10.818,10.638-18.122,10.469l-76.072-1.761
	c-7.305-0.169-11.032-5.13-8.327-11.082l28.174-61.986c2.705-5.951,10.818-10.639,18.122-10.469l76.072,1.761
	c7.305,0.169,11.032,5.13,8.327,11.082L419.051,406.325z"/>
<circle fill="#444444" cx="350.973" cy="392.917" r="10.086"/>
<circle fill="#444444" cx="416.435" cy="352.489" r="10.086"/>
</svg>
