<?xml version="1.0" encoding="UTF-8" standalone="no"?>
<!DOCTYPE svg PUBLIC "-//W3C//DTD SVG 20010904//EN"
"http://www.w3.org/TR/2001/REC-SVG-20010904/DTD/svg10.dtd">
<!-- Created with Sodipodi ("http://www.sodipodi.com/") -->
<svg
   width="315"
   height="217"
   xmlns="http://www.w3.org/2000/svg"
   xmlns:sodipodi="http://sodipodi.sourceforge.net/DTD/sodipodi-0.dtd"
   xmlns:xlink="http://www.w3.org/1999/xlink"
   id="svg548"
   sodipodi:version="0.33pre"
   sodipodi:docname="al.svg">
  <defs
     id="defs1065">
    <linearGradient
       id="linearGradient1070">
      <stop
         style="stop-color:#000;stop-opacity:1;"
         offset="0"
         id="stop1071" />
      <stop
         style="stop-color:#fff;stop-opacity:1;"
         offset="1"
         id="stop1072" />
    </linearGradient>
    <linearGradient
       xlink:href="#linearGradient1070"
       id="linearGradient1073" />
    <radialGradient
       xlink:href="#linearGradient1070"
       id="radialGradient1074"
       cx="0.500000"
       cy="0.500000"
       r="0.500000"
       fx="0.500000"
       fy="0.500000" />
  </defs>
  <sodipodi:namedview
     id="base" />
  <rect
     style="font-size:12;fill:#de2110;fill-rule:evenodd;stroke-width:1pt;fill-opacity:1;"
     id="rect1066"
     height="217.000015"
     x="0.000000"
     y="-0.000010"
     width="315.000000" />
  <path
     style="fill:#000000; stroke:none;"
     d="M 114.945 42 C 118.475 41.6554 119.192 41.7015 121.784 42.3725 C 118.455 43.8956 114.519 43.1345 112.078 40.9707 C 108.389 37.6214 99.6034 31.8297 102.745 36.7647 C 119.045 54.8274 133.083 42.6149 141.62 53.0154 C 144.528 56.5577 147.096 61.3132 145.566 65.9838 C 145.043 67.5824 143.153 71.3433 140.868 70.3873 C 137.876 69.1357 141.435 59.3038 139.257 56.1049 C 134.312 48.8421 125.352 50.7847 118 50 C 115.867 55.784 110.729 54.9125 106.005 51.9946 C 99.9743 48.2705 100.156 39.1113 94.7662 36.0864 C 89.1498 32.9342 90.0652 43.4916 90.9699 46 C 94.8904 56.8697 106.434 60.9324 117 59 C 109.18 71.1083 96.7857 51.1619 90.6466 56.0471 C 86.751 59.1469 93.6317 64.7863 96.0154 66.0802 C 102.61 69.6601 110.534 67.862 117 65 C 113.308 69.0099 106.515 71.4705 101 70.6566 C 98.1518 70.2363 92.4457 66.6571 89.8511 69.0424 C 85.8453 72.7251 95.6249 77.0929 98 77.6096 C 106.006 79.3513 111.676 75.1268 118 71 C 114.029 74.9688 109.79 80.403 104 81.591 C 100.389 82.3319 92.4197 78.6467 90.0864 82.4722 C 87.2963 87.0467 94.6942 89.9409 98 89.6551 C 105.832 88.978 113.104 82.6761 119 78 C 114.948 83.7481 108.694 89.8303 102 92.4275 C 98.4865 93.7906 92.4461 91.6813 89.8009 94.7423 C 85.7259 99.4579 94.6978 102.241 98 101.438 C 107.639 99.0933 112.781 88.546 122 85 C 115.747 90.7595 109.123 99.682 101.91 103.951 C 98.3262 106.073 92.4816 103.473 89.6474 106.603 C 83.2408 113.678 99.2915 115.19 103.826 111.442 C 111.421 105.165 115.062 96.1667 124 91 C 118.039 99.107 110.489 111.213 102.907 117.757 C 99.2974 120.872 91.3722 118.139 89.0864 121.603 C 84.4943 128.56 99.3042 129.755 102.996 127.296 C 115.116 119.226 115.778 100.521 131 96 C 126.687 105.238 122.383 117.743 112 121 C 113.558 125.693 119.066 126.103 122.606 122.682 C 128.681 116.813 127.427 103.452 138 103 L 130.375 113.688 C 130.78 118.054 138.605 112.198 141 108 L 142 108 C 137.834 117.938 130.48 123.487 121 128 C 121.186 133.925 117.222 136.977 112 139 C 109.19 133.834 101.702 129.991 98 136 C 100.938 136.396 103.563 136.948 104 140 C 99.3412 138.318 95.6644 137.521 94 143 C 99.4584 142.104 101.323 142.303 102.25 144.688 C 98.5192 148.985 99.1275 155.521 106 156.156 C 104.083 154.771 102.791 153.854 103.844 152 C 105.368 149.976 107.172 152.024 108.056 150.818 C 109.706 148.41 108.22 149.251 110.324 150.22 C 112.048 151.454 114.852 146.29 118.844 155 C 123.645 151.546 119.026 146.087 117 142 L 132 139 L 149 123 L 150 124 C 144.505 132.646 136.597 140.069 126 141 C 129.547 147.433 136.506 144.116 142 142 C 139.611 146.661 133.409 146.687 131.327 150.544 C 127.058 158.455 144.894 150.3 146 150 C 144.575 155.02 138.957 156.026 137.497 160.281 C 136.363 163.585 140.992 163.912 142.958 162.953 C 146.752 161.101 149.232 156.074 152 153 C 150.704 159 153.159 163.75 146.551 170.688 L 156.688 183.156 L 168.26 170.673 C 161.872 165.146 165.795 158.682 164.563 152.688 C 167.269 155.861 168.19 161.069 172.035 162.953 C 173.828 163.831 177.529 163.859 177.079 160.906 C 176.442 156.725 170.299 154.577 169 150 C 170.28 150.423 187.57 158.532 183.593 150.544 C 181.708 146.759 175.329 146.544 173 142 C 178.557 144.14 184.262 146.838 189 142 C 180.193 138.94 167.093 133.728 166 123 L 183.285 137.883 L 198 143 L 198 144 C 194.414 147.736 192.338 150.342 195.312 154.906 L 198.969 156.001 C 196.625 153.417 197.407 152.083 198.969 151.062 C 201.615 149.801 203.207 152.249 204.231 149.723 C 204.696 148.497 204.859 147.92 205.095 149.417 C 205.356 152.068 209.029 150.029 210.313 150.375 C 212.322 152.354 209.333 154.333 209 156 C 214.682 154.009 215.756 150.523 214 145 C 214.375 142.906 215.688 141.906 217 142 C 218.49 142.177 219.667 142.667 221 143 C 219.049 137.904 215.606 138.097 211 140 C 211.417 136.948 212.927 135.458 216 136 C 213.691 129.071 205.341 134.633 203 139 C 197.562 137.196 192.356 134.25 194 128 C 184.811 123.626 176.258 118.208 173 108 L 174 108 C 176.395 112.198 184.064 115.085 183.531 111.188 L 177 103 C 191.064 103.604 185.462 129.17 203 124 L 203 122 C 192.908 116.379 188.762 106.199 184 96 C 198.969 100.447 199.464 119.013 211.093 127.121 C 214.812 129.714 230.465 129.019 225.863 121.603 C 223.793 118.267 215.538 120.675 212.04 117.757 C 204.444 111.421 196.804 99.1007 191 91 C 200.186 96.8378 204.583 108.596 214.001 113.312 C 217.978 115.304 227.405 115.007 226.052 108.144 C 225.09 103.26 217.257 105.983 214.015 104.593 C 206.74 101.474 198.831 90.5808 193 85 C 201.731 88.8347 206.908 98.6029 216 101.347 C 219.346 102.357 227.987 100.852 225.593 95.4329 C 223.892 91.5829 216.277 93.6585 213 92.4784 C 205.795 89.8839 200.258 83.2575 195 78 C 202.057 82.0591 208.44 88.9255 217 89.6551 C 220.305 89.9368 228.88 86.0147 224.377 81.8318 C 221.448 79.1111 215.526 82.1473 212 81.7469 C 206.32 81.1019 201.544 76.0932 198 72 C 206.26 77.0744 231.898 79.236 227.406 68.625 C 224.288 66.0307 220.881 70.5492 214.748 70.7195 C 208.322 70.7343 201.949 69.21 196.688 65.1562 C 203.388 67.4183 211.077 69.8188 217.985 66.5826 C 220.441 65.4323 229.233 58.1479 223.551 55.6474 C 219.121 53.698 214.555 59.9752 211 61.5633 C 206.594 63.5316 201.453 62.097 197 61 L 197 60 C 206.133 59.5152 215.202 58.996 221.211 50.9599 C 223.184 48.3207 228.327 37.5123 222.582 35.7516 C 220.289 35.0489 218.512 37.338 217.557 39.0586 C 214.751 44.1166 202.238 64.2041 197 50 C 189.633 50.7863 180.709 48.8479 175.742 56.1049 C 173.538 59.3254 176.942 69.2076 173.968 70.3873 C 165.564 73.7205 171.177 55.356 173.214 53.0154 C 182.27 42.6053 206.757 51.5677 211 37 C 211.461 33.1369 205.955 40.0499 203.363 41.7256 C 200.555 43.4558 196.99 43.5687 194 43 C 197.172 41.3385 199.719 41.8645 201.719 41.5312 C 199.842 38.2331 195.537 38.6516 194.437 36.8248 C 193.001 34.2318 187.274 33.476 184.02 33.9898 C 177.831 35.3574 175.45 37.2034 164 34 L 169 40 L 161.834 42.9944 L 165 45 L 159 49 C 160 49.3333 162.381 49.3352 162.221 50.2762 L 157.387 58.4972 C 156.384 56.7739 153.085 52.2616 152.62 50.5303 C 152.387 49.7577 153.782 49.397 155.669 49.0553 L 150 45 L 153.664 42.8594 L 146 40 L 150 34 C 143.623 38.254 138.149 32.3081 130.766 34.047 C 127.618 34.7626 125.076 38.2678 122.112 37.6829 C 119.612 37.2553 116.698 38.7416 114.945 42 z "
     id="path552"
     transform=""
     sodipodi:nodetypes="ccscccccccccccccccccccccccccccccccccccccccccccccccsscccccccccccccccccccccccccccccsscccccccccccccccccccccccccccccccccsccccccccccccccsccsscccccccscccccssc" />
  <path
     style="fill:#de2110;fill-rule:evenodd;stroke:#de2110;stroke-opacity:1;stroke-width:0;stroke-linejoin:miter;stroke-linecap:butt;fill-opacity:1;stroke-dasharray:none;"
     d="M 132.344 36.2967 C 132.995 36.6092 134.192 36.4529 134.374 37.156 C 133.15 37.5988 131.692 37.6509 130.468 37.5468 C 131.041 36.2447 131.693 36.7394 132.344 36.2967 z "
     id="path1069"
     sodipodi:nodetypes="cccc" />
  <path
     style="fill:#de2110;fill-rule:evenodd;stroke:#de2110;stroke-opacity:1;stroke-width:0;stroke-linejoin:miter;stroke-linecap:butt;fill-opacity:1;stroke-dasharray:none;"
     d="M 188.202 36.5309 C 187.552 36.8434 186.355 36.6871 186.173 37.3902 C 187.397 37.833 188.855 37.8851 190.078 37.781 C 189.506 36.4789 188.853 36.9736 188.202 36.5309 z "
     id="path1075"
     sodipodi:nodetypes="cccc" />
</svg>
