<?xml version="1.0" encoding="UTF-8" standalone="no"?>
<!DOCTYPE svg PUBLIC "-//W3C//DTD SVG 20010904//EN"
"http://www.w3.org/TR/2001/REC-SVG-20010904/DTD/svg10.dtd">
<!-- Created with Sodipodi ("http://www.sodipodi.com/") -->
<svg
   version="1"
   x="0"
   y="0"
   width="1062.99"
   height="708.661"
   id="svg378"
   xmlns="http://www.w3.org/2000/svg"
   xmlns:sodipodi="http://sodipodi.sourceforge.net/DTD/sodipodi-0.dtd"
   xmlns:xlink="http://www.w3.org/1999/xlink"
   sodipodi:version="0.33pre"
   sodipodi:docname="/home/yemu/clipart/newnewnew/algeria.svg"
   sodipodi:docbase="/home/yemu/clipart/newnewnew/">
  <sodipodi:namedview
     id="base" />
  <defs
     id="defs380" />
  <rect
     width="1062.99"
     height="708.661"
     x="0"
     y="0"
     style="font-size:12;fill:#ffffff;fill-rule:evenodd;stroke-width:1pt;"
     id="rect171" />
  <rect
     width="531.496"
     height="708.661"
     x="0"
     y="0"
     style="font-size:12;fill:#00bf13;fill-rule:evenodd;stroke-width:1pt;fill-opacity:1;"
     id="rect186"
     sodipodi:fill-cmyk="(1 0 0.896552 0.25)" />
  <path
     d="M 692.446 439.713 C 642.304 529.914 531.687 561.955 443.8 513.547 C 355.912 465.138 323.872 354.521 372.28 266.634 C 420.689 178.747 531.305 146.706 619.193 195.115 C 651.684 213.011 674.818 236.538 693.012 270.051 C 686.372 260.919 678.959 253.381 669.228 245.731 C 609.28 198.599 522.377 209.001 475.245 268.949 C 428.115 328.896 438.516 415.8 498.463 462.931 C 558.411 510.062 645.315 499.66 692.446 439.713 z "
     style="font-size:12;fill:#f21930;fill-rule:evenodd;stroke-width:1pt;fill-opacity:1;"
     id="path184"
     sodipodi:fill-cmyk="(0 0.896552 0.801724 0.0517241)" />
  <polygon
     points="647.317,458.71 603.55,396.67 531.366,420.209 576.844,359.412 532.151,298.035 604.026,322.501 648.588,261.029 647.531,336.946 719.765,360.331 647.236,382.785 647.317,458.71 "
     transform="translate(2.18124,-2.90514)"
     style="font-size:12;fill:#f21930;fill-rule:evenodd;stroke-width:1pt;fill-opacity:1;"
     id="polygon185"
     sodipodi:fill-cmyk="(0 0.896552 0.801724 0.0517241)" />
</svg>
