<?xml version="1.0" encoding="UTF-8" standalone="no"?>
<!DOCTYPE svg PUBLIC "-//W3C//DTD SVG 1.0//EN"
"http://www.w3.org/TR/2001/REC-SVG-20010904/DTD/svg10.dtd">
<!-- Created with Sodipodi ("http://www.sodipodi.com/") -->
<svg
   id="svg548"
   sodipodi:version="0.33pre"
   xmlns="http://www.w3.org/2000/svg"
   xmlns:sodipodi="http://sodipodi.sourceforge.net/DTD/sodipodi-0.dtd"
   xmlns:xlink="http://www.w3.org/1999/xlink"
   width="280mm"
   height="140mm"
   sodipodi:docbase="/home/tobias/Desktop/Flags"
   sodipodi:docname="/home/tobias/Desktop/Flags/American_Samoa.svg">
  <defs
     id="defs550" />
  <sodipodi:namedview
     id="base" />
  <rect
     style="font-size:12;fill:#000066;stroke-width:1pt;"
     id="rect877"
     x="0.000000"
     y="0.000024"
     width="992.125977"
     height="496.062958" />
  <path
     style="font-size:12;fill:#bd1021;fill-rule:evenodd;stroke-width:1pt;fill-opacity:1;"
     d="M -2.34375e-05 248.031 L 992.126 496.063 L 992.126 -0.000373841 L -2.34375e-05 248.031 z "
     id="path1241"
     sodipodi:nodetypes="cccc" />
  <path
     style="font-size:12;fill:#ffffff;fill-rule:evenodd;stroke-width:1pt;fill-opacity:1;"
     d="M 992.126 26.5747 L 992.126 469.488 L 106.299 248.031 L 992.126 26.5747 z "
     id="path1244"
     sodipodi:nodetypes="cccc" />
  <g
     id="g1279"
     transform="matrix(1.364870,0.000000,0.000000,1.364870,645.5845,66.06387)">
    <path
       style="fill:#9c3900;fill-rule:evenodd;stroke:black;stroke-opacity:1;stroke-width:1.25;stroke-linejoin:round;stroke-linecap:butt;fill-opacity:1;stroke-dasharray:none;"
       d="M 131.809 174.069 C 131.809 174.069 127.271 170.356 132.634 164.374 C 129.746 161.899 132.428 157.155 132.428 157.155 C 132.428 157.155 127.477 155.298 132.634 147.666 C 128.921 145.191 130.571 139.621 130.571 139.621 C 130.571 139.621 118.401 135.083 129.953 130.752 C 120.464 134.877 111.594 125.182 111.594 125.182 L 97.7739 125.595 C 95.4361 114.112 77.2152 124.082 90.7606 91.147 C 87.2539 90.5281 83.3347 89.4969 79.4155 92.3847 C 75.4963 95.2725 64.3575 101.461 57.7567 95.2725 C 51.156 89.0843 62.0885 80.2144 62.2948 80.0082 C 62.501 79.8019 76.9402 72.376 79.003 67.4255 C 78.7967 63.7125 74.2586 60.8248 78.3841 52.78 C 83.1284 45.1479 112.213 37.9283 125.415 35.453 C 131.809 32.5652 134.697 26.9958 134.697 26.9958 L 136.141 32.3589 C 136.141 32.3589 165.432 23.6954 166.876 19.5699 C 168.32 15.4444 167.495 23.2828 167.495 23.2828 C 179.046 22.2514 193.691 12.3503 195.754 16.8883 C 205.449 15.0319 224.014 6.78089 224.014 6.78089 C 224.014 6.78089 230.408 6.57471 225.87 13.588 C 228.758 18.126 225.045 22.0452 224.839 22.0452 C 224.632 22.0452 226.076 26.5832 222.363 29.0585 C 223.602 32.9777 220.094 36.0718 220.094 36.0718 C 220.094 36.0718 221.745 40.8161 215.144 43.2914 C 215.763 47.4169 211.431 48.242 211.431 48.242 C 211.431 48.242 212.05 52.5738 209.162 54.4302 C 209.162 57.7306 205.862 59.3808 205.862 59.3808 C 205.862 59.3808 207.924 60.6184 205.036 62.6812 C 202.149 64.7439 172.239 83.1023 172.239 82.896 C 172.239 82.6898 194.104 86.8152 195.548 87.6403 C 196.992 88.4654 213.494 99.3979 213.494 99.3979 L 196.785 120.025 C 196.785 120.025 178.221 117.963 177.396 118.994 C 176.571 120.025 181.315 120.438 182.346 122.088 C 183.378 123.738 185.028 127.658 188.328 127.245 C 191.629 126.832 182.14 133.227 175.952 133.846 C 175.952 136.115 183.79 136.321 185.853 134.465 C 187.916 132.608 180.902 139.828 180.077 140.859 C 179.252 141.89 189.36 139.415 189.36 139.415 C 189.36 139.415 187.709 146.222 178.84 148.285 C 182.346 154.061 180.902 157.774 180.696 157.774 C 180.49 157.774 174.92 151.998 169.557 153.029 C 171.001 158.599 175.333 163.755 176.571 164.581 C 177.808 165.406 166.876 165.199 165.432 162.105 C 163.988 159.011 162.75 169.531 166.669 172.832 C 162.132 173.038 158.212 170.356 158.212 170.356 C 158.212 170.356 155.531 176.544 157.387 179.639 C 159.244 182.733 150.993 173.45 150.993 173.45 L 135.316 180.051 L 131.809 174.069 z "
       id="path1211"
       sodipodi:nodetypes="cccccccccccccccccccccccccccccccccccccccccccccccccccc" />
    <path
       style="fill:#ffc221;fill-rule:evenodd;stroke:black;stroke-opacity:1;stroke-width:1pt;stroke-linejoin:miter;stroke-linecap:butt;fill-opacity:1;"
       d="M 10.6525 161.794 C 11.0199 161.794 33.427 161.426 43.7122 155.549 C 48.8548 163.63 55.834 169.14 55.834 169.14 L 59.14 157.386 C 59.14 157.386 67.2212 157.753 67.9559 159.59 C 66.8539 161.793 66.4866 164.732 66.4866 164.732 C 66.4866 164.732 71.9965 165.1 72.3638 165.834 C 72.7311 166.569 70.8945 172.813 70.8945 172.813 L 94.4036 178.323 C 94.4036 178.323 96.2402 169.14 98.0768 170.242 C 99.9135 171.344 107.995 182.731 119.382 183.466 C 130.769 184.201 131.504 173.915 131.504 173.915 L 134.075 175.385 C 134.075 175.385 138.85 165.1 139.585 165.1 C 140.32 165.1 141.422 166.569 147.666 166.569 C 149.503 168.773 150.238 173.915 150.238 173.915 C 150.238 173.915 143.258 180.895 145.462 186.405 C 147.666 191.915 148.034 190.445 148.034 190.445 L 198.725 202.567 C 198.725 202.567 201.297 206.608 196.889 208.812 C 196.889 209.179 145.83 197.057 145.83 197.057 C 145.83 197.057 141.054 202.567 137.381 201.465 C 133.708 200.363 136.279 203.669 136.279 203.669 L 191.378 208.077 C 191.378 208.077 195.419 213.22 192.48 214.689 C 188.807 215.056 132.973 211.016 132.973 211.016 C 132.973 211.016 129.667 217.995 125.994 212.118 C 123.423 216.158 120.484 211.016 120.484 211.016 C 120.484 211.016 115.709 214.689 114.974 210.648 C 110.933 213.587 108.362 208.812 108.362 208.812 L 84.853 207.342 L 83.3837 209.546 C 83.3837 209.546 87.4243 210.648 81.1797 213.22 C 74.9351 215.791 118.647 214.689 119.749 215.056 C 120.851 215.424 116.811 218.73 116.811 218.73 C 116.811 218.73 139.218 220.199 143.258 215.424 C 147.299 210.648 141.789 221.668 141.789 221.668 C 141.789 221.668 159.421 220.934 159.421 220.199 C 159.421 219.464 159.053 225.709 146.932 224.974 C 154.278 229.75 163.461 232.688 163.461 232.688 C 163.461 232.688 154.278 234.892 143.626 232.321 C 145.462 237.096 153.544 241.504 153.544 241.504 C 153.544 241.504 147.666 246.647 134.442 234.157 C 138.116 240.769 135.177 243.341 134.81 242.606 C 134.442 241.871 128.198 232.688 113.505 229.382 C 122.688 235.259 118.647 237.831 118.647 237.831 C 118.647 237.831 113.872 229.382 106.158 237.831 C 103.219 230.117 91.8323 225.709 77.8738 224.974 C 73.4659 219.832 70.8945 221.301 60.6093 218.362 C 54.7321 211.751 46.2835 204.404 46.2835 204.404 C 46.2835 204.404 46.6508 194.486 56.5687 195.588 C 57.6707 198.894 57.6707 197.792 57.6707 197.792 C 57.6707 197.792 68.6905 193.751 71.9965 199.261 C 76.7717 190.812 83.3837 197.998 84.4857 200.936 C 87.6504 201.4 103.587 201.832 103.587 201.832 C 103.587 201.832 101.75 198.526 102.852 198.894 C 103.954 199.261 112.77 195.588 112.403 194.486 C 112.035 193.384 111.668 189.711 113.137 190.078 C 114.607 190.445 100.648 188.241 92.9342 194.119 C 90.3629 191.547 92.1996 184.568 92.1996 184.568 L 69.4252 179.793 L 68.3232 185.67 C 68.3232 185.67 61.7113 186.772 62.0786 185.303 C 62.4459 183.833 60.6093 190.445 60.6093 190.445 C 60.6093 190.445 51.7934 188.241 51.7934 187.874 C 51.7934 187.507 54.3647 174.65 54.3647 175.017 C 54.3647 175.385 47.0181 175.752 36.7329 183.466 C 33.7943 174.283 10.6525 162.161 10.6525 161.794 z "
       id="path1173"
       sodipodi:nodetypes="cccccccccccccccccccccccccccccccccccccccccccccccccccccccccccccccccccc" />
    <path
       style="fill:none;fill-rule:evenodd;stroke:black;stroke-opacity:1;stroke-width:1pt;stroke-linejoin:miter;stroke-linecap:butt;fill-opacity:1;"
       d="M 66.4866 165.1 L 61.7113 186.405 "
       id="path1174" />
    <path
       style="fill:none;fill-rule:evenodd;stroke:black;stroke-opacity:1;stroke-width:1pt;stroke-linejoin:miter;stroke-linecap:butt;fill-opacity:1;"
       d="M 70.8945 173.181 L 69.4252 180.16 "
       id="path1175" />
    <path
       style="fill:none;fill-rule:evenodd;stroke:black;stroke-opacity:1;stroke-width:1pt;stroke-linejoin:miter;stroke-linecap:butt;fill-opacity:1;"
       d="M 94.4036 178.691 L 92.1996 185.303 "
       id="path1176" />
    <path
       style="fill:none;fill-rule:evenodd;stroke:black;stroke-opacity:1;stroke-width:1pt;stroke-linejoin:miter;stroke-linecap:butt;fill-opacity:1;"
       d="M 135.177 223.505 C 134.81 223.505 123.423 224.974 121.953 224.607 C 120.484 224.24 139.952 230.484 139.952 233.055 "
       id="path1177" />
    <path
       style="fill:none;fill-rule:evenodd;stroke:black;stroke-opacity:1;stroke-width:1pt;stroke-linejoin:miter;stroke-linecap:butt;fill-opacity:1;"
       d="M 114.607 226.076 C 114.607 226.076 103.219 218.73 101.383 219.464 C 99.5462 220.199 112.77 219.097 113.872 217.995 "
       id="path1179" />
    <path
       style="fill:none;fill-rule:evenodd;stroke:black;stroke-opacity:1;stroke-width:1pt;stroke-linejoin:miter;stroke-linecap:butt;fill-opacity:1;"
       d="M 91.0976 217.628 C 91.0976 217.628 79.3431 217.995 78.2411 216.893 C 77.1391 215.791 89.6283 224.974 91.8323 224.24 "
       id="path1180" />
    <path
       style="fill:none;fill-rule:evenodd;stroke:black;stroke-opacity:1;stroke-width:1pt;stroke-linejoin:miter;stroke-linecap:butt;fill-opacity:1;"
       d="M 68.3232 212.485 C 67.9559 212.485 60.2419 209.547 56.936 208.811 C 59.8746 211.75 62.0786 215.791 69.4252 217.26 "
       id="path1181"
       sodipodi:nodetypes="ccc" />
    <path
       style="fill:none;fill-rule:evenodd;stroke:black;stroke-opacity:1;stroke-width:1pt;stroke-linejoin:miter;stroke-linecap:butt;fill-opacity:1;"
       d="M 71.2618 207.71 C 70.8945 206.975 56.5687 202.567 56.5687 200.363 C 59.8747 201.465 64.6499 202.934 69.0579 201.832 "
       id="path1182"
       sodipodi:nodetypes="ccc" />
    <path
       style="fill:none;fill-rule:evenodd;stroke:black;stroke-opacity:1;stroke-width:1pt;stroke-linejoin:miter;stroke-linecap:butt;fill-opacity:1;"
       d="M 147.299 190.813 L 145.83 197.424 "
       id="path1183" />
    <path
       style="fill:#ffc221;fill-rule:evenodd;stroke:black;stroke-opacity:1;stroke-width:1pt;stroke-linejoin:miter;stroke-linecap:butt;fill-opacity:1;"
       d="M 39.3042 131.673 C 39.3042 131.673 23.8764 144.896 39.3042 152.61 C 40.0388 147.467 41.1409 146.733 41.1409 146.733 C 41.1409 146.733 53.9974 151.508 61.7113 140.121 C 58.4053 135.346 52.5281 137.183 52.5281 137.183 C 52.5281 137.183 40.4062 137.182 39.3042 131.673 z "
       id="path1184"
       sodipodi:nodetypes="cccccc" />
    <path
       style="fill:none;fill-rule:evenodd;stroke:black;stroke-opacity:1;stroke-width:1pt;stroke-linejoin:miter;stroke-linecap:butt;fill-opacity:1;"
       d="M 52.1607 137.55 L 41.5082 146.733 "
       id="path1185" />
    <path
       style="fill:none;fill-rule:evenodd;stroke:black;stroke-opacity:1;stroke-width:1pt;stroke-linejoin:miter;stroke-linecap:butt;fill-opacity:1;"
       d="M 84.9689 201.329 C 84.9689 201.329 87.4243 204.036 85.2203 207.342 "
       id="path1186"
       sodipodi:nodetypes="cc" />
    <path
       style="fill:none;fill-rule:evenodd;stroke:black;stroke-opacity:1;stroke-width:1pt;stroke-linejoin:miter;stroke-linecap:butt;fill-opacity:1;"
       d="M 136.646 204.036 L 132.606 204.404 "
       id="path1187" />
    <path
       style="fill:none;fill-rule:evenodd;stroke:black;stroke-opacity:1;stroke-width:1pt;stroke-linejoin:miter;stroke-linecap:butt;fill-opacity:1;"
       d="M 103.587 201.832 L 110.933 202.934 "
       id="path1188" />
    <path
       style="fill:none;fill-rule:evenodd;stroke:black;stroke-opacity:1;stroke-width:1pt;stroke-linejoin:miter;stroke-linecap:butt;fill-opacity:1;"
       d="M 123.352 182.939 C 123.352 182.939 123.558 190.365 117.37 190.159 C 111.182 189.952 113.244 190.365 113.244 190.365 "
       id="path1189" />
    <path
       style="fill:none;fill-rule:evenodd;stroke:black;stroke-opacity:1;stroke-width:1pt;stroke-linejoin:miter;stroke-linecap:butt;fill-opacity:1;"
       d="M 128.096 181.701 C 128.096 181.701 130.571 182.526 129.953 184.383 C 129.334 186.239 130.571 191.602 123.352 196.759 C 115.719 198.409 116.545 190.365 116.545 190.365 "
       id="path1190"
       sodipodi:nodetypes="cccc" />
    <path
       style="fill:none;fill-rule:evenodd;stroke:black;stroke-opacity:1;stroke-width:1pt;stroke-linejoin:miter;stroke-linecap:butt;fill-opacity:1;"
       d="M 130.778 183.97 C 130.778 183.97 135.316 181.289 135.935 185.621 C 136.553 189.952 132.222 197.997 129.128 199.235 C 126.033 200.472 122.527 199.028 122.939 196.966 "
       id="path1191" />
    <path
       style="fill:none;fill-rule:evenodd;stroke:black;stroke-opacity:1;stroke-width:1pt;stroke-linejoin:miter;stroke-linecap:butt;fill-opacity:1;"
       d="M 136.347 185.827 C 136.347 185.827 140.473 182.526 141.71 186.858 C 142.948 191.19 138.41 200.885 136.553 201.091 "
       id="path1192" />
    <path
       style="fill:none;fill-rule:evenodd;stroke:black;stroke-opacity:1;stroke-width:1pt;stroke-linejoin:miter;stroke-linecap:butt;fill-opacity:1;"
       d="M 142.123 186.858 C 142.123 186.858 144.186 185.827 145.629 187.064 "
       id="path1193" />
    <path
       style="fill:none;fill-rule:evenodd;stroke:black;stroke-opacity:1;stroke-width:1pt;stroke-linejoin:miter;stroke-linecap:butt;fill-opacity:1;"
       d="M 135.522 201.71 C 134.697 201.916 131.19 202.122 129.953 199.441 "
       id="path1194" />
    <path
       style="fill:none;fill-rule:evenodd;stroke:black;stroke-opacity:1;stroke-width:1pt;stroke-linejoin:miter;stroke-linecap:butt;fill-opacity:1;"
       d="M 116.957 194.49 C 116.751 194.49 112.626 194.697 112.626 194.697 "
       id="path1195" />
    <path
       style="fill:none;fill-rule:evenodd;stroke:black;stroke-opacity:1;stroke-width:1pt;stroke-linejoin:miter;stroke-linecap:butt;fill-opacity:1;"
       d="M 132.84 210.786 L 132.428 203.979 L 130.778 201.71 L 127.89 204.598 C 127.89 204.598 127.477 211.405 126.24 212.024 "
       id="path1196" />
    <path
       style="fill:none;fill-rule:evenodd;stroke:black;stroke-opacity:1;stroke-width:1pt;stroke-linejoin:miter;stroke-linecap:butt;fill-opacity:1;"
       d="M 127.89 204.391 C 127.684 203.979 125.621 200.06 125.621 200.06 L 122.114 204.391 C 122.114 204.391 121.702 210.58 120.464 211.199 "
       id="path1197" />
    <path
       style="fill:none;fill-rule:evenodd;stroke:black;stroke-opacity:1;stroke-width:1pt;stroke-linejoin:miter;stroke-linecap:butt;fill-opacity:1;"
       d="M 122.114 204.185 C 122.114 203.979 120.67 200.06 120.67 200.06 C 120.67 200.06 116.545 202.329 116.132 203.979 C 115.72 205.629 115.513 210.167 114.482 210.58 "
       id="path1198" />
    <path
       style="fill:none;fill-rule:evenodd;stroke:black;stroke-opacity:1;stroke-width:1pt;stroke-linejoin:miter;stroke-linecap:butt;fill-opacity:1;"
       d="M 116.132 203.154 C 116.132 203.154 116.545 199.441 115.307 199.441 C 114.07 199.441 108.5 204.598 108.294 209.136 "
       id="path1199" />
    <path
       style="fill:#ffffff;fill-rule:evenodd;stroke:black;stroke-opacity:1;stroke-width:1pt;stroke-linejoin:round;stroke-linecap:butt;fill-opacity:1;"
       d="M 39.8109 131.783 L 39.8109 131.783 C 39.8109 131.783 41.8736 129.72 42.4925 127.245 C 43.1113 124.77 41.6674 122.088 44.1427 119.819 C 46.6179 117.55 79.2092 103.73 81.8908 101.048 C 84.5724 98.3666 89.5229 92.5909 90.1418 91.3533 C 90.7606 90.1156 92.6171 97.5415 87.0477 100.842 C 93.0296 99.1914 96.9488 97.3352 99.4241 98.1603 C 96.9484 101.667 90.3481 107.443 87.2539 107.443 C 94.4735 104.761 101.074 102.492 102.931 103.936 C 104.787 105.38 94.061 112.6 89.7292 113.012 C 96.9488 111.156 106.644 108.268 107.881 111.362 C 103.962 112.6 105.199 113.63 97.1551 118.169 C 96.1238 118.995 90.9669 119.2 90.9669 119.2 C 97.1551 118.581 105.612 116.106 106.437 120.644 C 101.487 122.5 99.6304 124.976 95.5049 126.007 C 91.3794 127.039 81.8908 128.895 76.1151 131.164 C 70.3395 133.433 61.8822 140.034 61.8822 140.034 C 61.8822 140.034 43.5238 140.653 43.5238 140.446 C 43.5238 140.24 40.0172 131.989 39.8109 131.783 z "
       id="path1200"
       sodipodi:nodetypes="cccccccccccccccccccc" />
    <path
       style="fill:none;fill-rule:evenodd;stroke:black;stroke-opacity:1;stroke-width:1pt;stroke-linejoin:miter;stroke-linecap:butt;fill-opacity:1;"
       d="M 48.4744 130.339 C 48.4744 130.339 48.6807 126.214 50.5371 124.77 C 52.3936 123.326 61.6759 119.819 63.7387 116.725 C 65.8014 113.631 60.6446 122.088 61.4697 124.357 "
       id="path1201" />
    <path
       style="fill:none;fill-rule:evenodd;stroke:black;stroke-opacity:1;stroke-width:1pt;stroke-linejoin:miter;stroke-linecap:butt;fill-opacity:1;"
       d="M 52.1873 124.151 C 52.1873 124.151 56.7254 125.802 55.694 129.308 "
       id="path1202"
       sodipodi:nodetypes="cc" />
    <path
       sodipodi:type="arc"
       style="fill-rule:evenodd;stroke:#000000;fill:none;fill-opacity:1;stroke-opacity:1;stroke-width:1pt;stroke-linejoin:miter;stroke-linecap:butt;"
       id="path1203"
       d="M 57.344166 126.007332 A 3.919182 3.919182 0 1 0 49.505802,126.007332 A 3.91918 3.91918 0 1 0 57.3442 126.007 L 53.424984 126.007332 z"
       sodipodi:cx="53.424984"
       sodipodi:cy="126.007332"
       sodipodi:rx="3.919182"
       sodipodi:ry="3.919182"
       transform="matrix(0.868424,0.000000,0.000000,0.868424,7.751426,17.09525)" />
    <path
       style="fill:#ffffff;fill-rule:evenodd;stroke:black;stroke-opacity:1;stroke-width:1pt;stroke-linejoin:miter;stroke-linecap:butt;fill-opacity:1;"
       d="M 197.198 119.2 L 232.883 126.007 C 232.883 126.007 236.803 121.469 234.74 118.994 C 240.103 117.757 238.659 110.743 238.659 110.743 C 238.659 110.743 244.847 108.062 239.69 101.873 C 243.198 98.3665 238.865 95.685 238.865 95.685 C 238.865 95.685 240.309 89.4968 235.771 88.878 C 237.009 83.9275 227.933 82.2772 227.933 82.2772 C 227.933 82.2772 209.162 87.4341 195.96 87.8466 C 200.292 92.1784 194.31 94.8599 194.31 94.8599 C 194.31 94.8599 197.817 97.3352 196.785 99.3979 C 195.754 101.461 197.404 103.73 192.866 105.174 C 198.848 107.856 192.247 112.393 192.247 112.393 C 192.247 112.393 198.848 116.931 197.198 119.2 z "
       id="path1205"
       sodipodi:nodetypes="cccccccccccccc" />
    <path
       style="fill:none;fill-rule:evenodd;stroke:black;stroke-opacity:1;stroke-width:1pt;stroke-linejoin:miter;stroke-linecap:butt;fill-opacity:1;"
       d="M 193.691 111.568 L 193.691 111.568 C 193.691 111.568 225.251 115.281 226.695 115.281 C 228.139 115.281 233.708 117.138 234.74 118.994 "
       id="path1206" />
    <path
       style="fill:none;fill-rule:evenodd;stroke:black;stroke-opacity:1;stroke-width:1pt;stroke-linejoin:miter;stroke-linecap:butt;fill-opacity:1;"
       d="M 195.342 109.712 L 239.278 110.743 "
       id="path1207" />
    <path
       style="fill:none;fill-rule:evenodd;stroke:black;stroke-opacity:1;stroke-width:1pt;stroke-linejoin:miter;stroke-linecap:butt;fill-opacity:1;"
       d="M 195.548 108.68 C 195.548 108.68 237.215 106.205 240.103 101.873 "
       id="path1208" />
    <path
       style="fill:none;fill-rule:evenodd;stroke:black;stroke-opacity:1;stroke-width:1pt;stroke-linejoin:miter;stroke-linecap:butt;fill-opacity:1;"
       d="M 196.785 99.6042 C 196.785 99.6042 238.659 95.0662 239.072 95.685 "
       id="path1209" />
    <path
       style="fill:none;fill-rule:evenodd;stroke:black;stroke-opacity:1;stroke-width:1pt;stroke-linejoin:miter;stroke-linecap:butt;fill-opacity:1;"
       d="M 195.342 94.4474 C 195.342 94.4474 235.978 88.0529 236.39 89.0843 "
       id="path1210" />
    <path
       style="fill:none;fill-rule:evenodd;stroke:black;stroke-opacity:1;stroke-width:1pt;stroke-linejoin:miter;stroke-linecap:butt;fill-opacity:1;"
       d="M 79.4155 68.2506 C 79.4155 68.2506 92.2045 82.2772 90.9669 91.7658 "
       id="path1212" />
    <path
       style="fill:none;fill-rule:evenodd;stroke:black;stroke-opacity:1;stroke-width:1pt;stroke-linejoin:miter;stroke-linecap:butt;fill-opacity:1;"
       d="M 90.1418 84.34 C 90.1418 84.34 94.2672 90.3219 95.9174 90.9407 C 97.5676 91.5595 112.007 92.3846 112.832 98.5728 C 113.657 102.492 109.738 101.254 110.357 104.142 C 111.388 107.855 121.083 112.599 131.603 107.03 "
       id="path1213"
       sodipodi:nodetypes="ccccc" />
    <path
       style="fill:none;fill-rule:evenodd;stroke:black;stroke-opacity:1;stroke-width:1pt;stroke-linejoin:miter;stroke-linecap:butt;fill-opacity:1;"
       d="M 121.908 109.918 C 121.908 109.918 130.571 122.707 143.36 108.887 "
       id="path1214" />
    <path
       style="fill:none;fill-rule:evenodd;stroke:black;stroke-opacity:1;stroke-width:1pt;stroke-linejoin:miter;stroke-linecap:butt;fill-opacity:1;"
       d="M 136.76 114.456 C 136.76 114.456 147.28 120.025 155.943 105.586 "
       id="path1215"
       sodipodi:nodetypes="cc" />
    <path
       style="fill:none;fill-rule:evenodd;stroke:black;stroke-opacity:1;stroke-width:1pt;stroke-linejoin:miter;stroke-linecap:butt;fill-opacity:1;"
       d="M 144.804 115.693 C 144.804 115.693 149.961 120.025 160.688 114.25 "
       id="path1216"
       sodipodi:nodetypes="cc" />
    <path
       style="fill:none;fill-rule:evenodd;stroke:black;stroke-opacity:1;stroke-width:1pt;stroke-linejoin:miter;stroke-linecap:butt;fill-opacity:1;"
       d="M 175.539 108.474 C 175.539 108.474 191.422 111.774 192.454 112.806 "
       id="path1217" />
    <path
       style="fill:none;fill-rule:evenodd;stroke:black;stroke-opacity:1;stroke-width:1pt;stroke-linejoin:miter;stroke-linecap:butt;fill-opacity:1;"
       d="M 181.521 104.967 C 181.727 104.967 192.66 105.38 192.66 105.38 "
       id="path1218" />
    <path
       style="fill:none;fill-rule:evenodd;stroke:black;stroke-opacity:1;stroke-width:1pt;stroke-linejoin:miter;stroke-linecap:butt;fill-opacity:1;"
       d="M 174.714 98.7791 C 174.714 98.7791 193.691 97.5415 196.167 101.461 "
       id="path1219" />
    <path
       style="fill:none;fill-rule:evenodd;stroke:black;stroke-opacity:1;stroke-width:1pt;stroke-linejoin:miter;stroke-linecap:butt;fill-opacity:1;"
       d="M 166.463 92.7972 C 166.463 92.7972 193.073 93.8285 194.31 95.2725 "
       id="path1220" />
    <path
       style="fill:none;fill-rule:evenodd;stroke:black;stroke-opacity:1;stroke-width:1pt;stroke-linejoin:miter;stroke-linecap:butt;fill-opacity:1;"
       d="M 172.445 120.025 C 172.445 120.025 176.983 118.788 177.602 119.407 "
       id="path1221" />
    <path
       style="fill:none;fill-rule:evenodd;stroke:black;stroke-opacity:1;stroke-width:1pt;stroke-linejoin:miter;stroke-linecap:butt;fill-opacity:1;"
       d="M 162.131 131.164 C 162.131 131.164 168.113 136.321 175.746 134.052 "
       id="path1222" />
    <path
       style="fill:none;fill-rule:evenodd;stroke:black;stroke-opacity:1;stroke-width:1pt;stroke-linejoin:miter;stroke-linecap:butt;fill-opacity:1;"
       d="M 165.432 139.828 C 165.432 139.828 172.239 142.922 180.284 141.065 "
       id="path1223" />
    <path
       style="fill:none;fill-rule:evenodd;stroke:black;stroke-opacity:1;stroke-width:1pt;stroke-linejoin:miter;stroke-linecap:butt;fill-opacity:1;"
       d="M 167.701 144.985 C 167.701 144.985 174.508 149.523 179.046 148.697 "
       id="path1224" />
    <path
       style="fill:none;fill-rule:evenodd;stroke:black;stroke-opacity:1;stroke-width:1pt;stroke-linejoin:miter;stroke-linecap:butt;fill-opacity:1;"
       d="M 164.607 147.666 C 164.607 147.666 169.351 151.173 169.557 153.029 "
       id="path1225" />
    <path
       style="fill:none;fill-rule:evenodd;stroke:black;stroke-opacity:1;stroke-width:1pt;stroke-linejoin:miter;stroke-linecap:butt;fill-opacity:1;"
       d="M 158.006 151.792 C 158.006 151.792 159.45 159.217 164.607 161.899 "
       id="path1226" />
    <path
       style="fill:none;fill-rule:evenodd;stroke:black;stroke-opacity:1;stroke-width:1pt;stroke-linejoin:miter;stroke-linecap:butt;fill-opacity:1;"
       d="M 154.499 155.092 C 154.499 155.092 152.23 164.787 158.006 170.769 "
       id="path1227" />
    <path
       style="fill:none;fill-rule:evenodd;stroke:black;stroke-opacity:1;stroke-width:1pt;stroke-linejoin:miter;stroke-linecap:butt;fill-opacity:1;"
       d="M 148.517 162.724 C 148.517 162.93 148.105 167.262 148.311 167.675 "
       id="path1228" />
    <path
       style="fill:none;fill-rule:evenodd;stroke:black;stroke-opacity:1;stroke-width:1pt;stroke-linejoin:miter;stroke-linecap:butt;fill-opacity:1;"
       d="M 111.388 125.182 L 122.527 124.563 C 122.527 124.563 126.652 122.913 123.764 120.232 "
       id="path1229" />
    <path
       style="fill:none;fill-rule:evenodd;stroke:black;stroke-opacity:1;stroke-width:1pt;stroke-linejoin:miter;stroke-linecap:butt;fill-opacity:1;"
       d="M 125.208 122.707 C 125.415 122.707 135.728 123.532 138.41 126.626 C 141.091 129.72 144.392 135.908 146.248 136.94 C 148.105 137.971 148.517 136.527 148.517 136.527 "
       id="path1230" />
    <path
       style="fill:none;fill-rule:evenodd;stroke:black;stroke-opacity:1;stroke-width:1pt;stroke-linejoin:miter;stroke-linecap:butt;fill-opacity:1;"
       d="M 143.979 134.877 C 143.979 134.877 138.41 144.366 142.742 147.254 "
       id="path1231" />
    <path
       style="fill:none;fill-rule:evenodd;stroke:black;stroke-opacity:1;stroke-width:1pt;stroke-linejoin:miter;stroke-linecap:butt;fill-opacity:1;"
       d="M 140.885 145.397 C 140.885 145.397 135.935 151.998 139.854 155.298 "
       id="path1232" />
    <path
       style="fill:none;fill-rule:evenodd;stroke:black;stroke-opacity:1;stroke-width:1pt;stroke-linejoin:miter;stroke-linecap:butt;fill-opacity:1;"
       d="M 138.822 154.473 C 138.822 154.473 134.903 160.868 139.648 165.199 "
       id="path1233" />
    <path
       style="fill:none;fill-rule:evenodd;stroke:black;stroke-opacity:1;stroke-width:1pt;stroke-linejoin:miter;stroke-linecap:butt;fill-opacity:1;"
       d="M 137.086 137.51 C 136.82 137.776 132.295 140.97 130.698 140.172 "
       id="path1235" />
    <path
       style="fill:none;fill-rule:evenodd;stroke:black;stroke-opacity:1;stroke-width:1pt;stroke-linejoin:miter;stroke-linecap:butt;fill-opacity:1;"
       d="M 132.295 147.625 C 132.295 147.625 134.158 149.488 135.755 149.222 "
       id="path1236" />
    <path
       style="fill:none;fill-rule:evenodd;stroke:black;stroke-opacity:1;stroke-width:1pt;stroke-linejoin:miter;stroke-linecap:butt;fill-opacity:1;"
       d="M 132.516 157.298 L 135.489 159.337 "
       id="path1237"
       sodipodi:nodetypes="cc" />
    <path
       style="fill:none;fill-rule:evenodd;stroke:black;stroke-opacity:1;stroke-width:1pt;stroke-linejoin:miter;stroke-linecap:butt;fill-opacity:1;"
       d="M 132.917 164.706 L 135.489 166.258 "
       id="path1238"
       sodipodi:nodetypes="cc" />
    <path
       style="fill:none;fill-rule:evenodd;stroke:black;stroke-opacity:1;stroke-width:1pt;stroke-linejoin:miter;stroke-linecap:butt;fill-opacity:1;"
       d="M 86.3303 63.5436 C 86.3303 63.5436 91.7531 66.3635 96.0913 63.5436 C 100.43 60.7238 121.253 50.0952 126.676 48.3599 C 132.098 46.6246 135.135 36.6468 136.22 32.3086 "
       id="path1246" />
    <path
       style="fill:none;fill-rule:evenodd;stroke:black;stroke-opacity:1;stroke-width:1pt;stroke-linejoin:miter;stroke-linecap:butt;fill-opacity:1;"
       d="M 132.098 44.0217 L 162.466 35.1284 C 162.466 35.1284 167.455 31.0071 167.672 23.4152 "
       id="path1247" />
    <path
       style="fill:none;fill-rule:evenodd;stroke:black;stroke-opacity:1;stroke-width:1pt;stroke-linejoin:miter;stroke-linecap:butt;fill-opacity:1;"
       d="M 165.503 31.6578 C 165.503 31.6578 195.87 28.6211 195.87 17.3418 "
       id="path1248" />
    <path
       style="fill:none;fill-rule:evenodd;stroke:black;stroke-opacity:1;stroke-width:1pt;stroke-linejoin:miter;stroke-linecap:butt;fill-opacity:1;"
       d="M 191.098 25.1505 C 191.098 25.1505 222.984 16.4741 226.021 13.2204 "
       id="path1249" />
    <path
       style="fill:none;fill-rule:evenodd;stroke:black;stroke-opacity:1;stroke-width:1pt;stroke-linejoin:miter;stroke-linecap:butt;fill-opacity:1;"
       d="M 102.165 70.4848 C 102.165 70.4848 121.47 60.5069 124.507 59.4224 C 127.543 58.3378 134.484 49.6614 124.073 49.6614 "
       id="path1250" />
    <path
       style="fill:none;fill-rule:evenodd;stroke:black;stroke-opacity:1;stroke-width:1pt;stroke-linejoin:miter;stroke-linecap:butt;fill-opacity:1;"
       d="M 111.492 74.3892 C 111.709 74.3892 127.326 64.1944 132.532 62.8929 C 135.352 58.9886 133.834 54.8673 129.062 55.7349 "
       id="path1251"
       sodipodi:nodetypes="ccc" />
    <path
       style="fill:none;fill-rule:evenodd;stroke:black;stroke-opacity:1;stroke-width:1pt;stroke-linejoin:miter;stroke-linecap:butt;fill-opacity:1;"
       d="M 133.833 60.29 C 134.267 60.0731 142.293 59.8562 139.473 66.1466 C 135.353 69.1833 117.565 78.0767 117.565 78.0767 "
       id="path1252"
       sodipodi:nodetypes="ccc" />
    <path
       style="fill:none;fill-rule:evenodd;stroke:black;stroke-opacity:1;stroke-width:1pt;stroke-linejoin:miter;stroke-linecap:butt;fill-opacity:1;"
       d="M 129.712 53.5658 L 163.55 42.2864 C 163.55 42.2864 166.37 36.4298 162.249 35.5622 "
       id="path1253" />
    <path
       style="fill:none;fill-rule:evenodd;stroke:black;stroke-opacity:1;stroke-width:1pt;stroke-linejoin:miter;stroke-linecap:butt;fill-opacity:1;"
       d="M 190.447 25.3674 C 190.447 25.5843 194.786 27.9703 192.183 31.8747 C 187.411 34.6946 164.852 40.1173 164.852 40.1173 "
       id="path1254"
       sodipodi:nodetypes="ccc" />
    <path
       style="fill:none;fill-rule:evenodd;stroke:black;stroke-opacity:1;stroke-width:1pt;stroke-linejoin:miter;stroke-linecap:butt;fill-opacity:1;"
       d="M 224.719 21.8968 L 192.833 30.7902 "
       id="path1255" />
    <path
       style="fill:none;fill-rule:evenodd;stroke:black;stroke-opacity:1;stroke-width:1pt;stroke-linejoin:miter;stroke-linecap:butt;fill-opacity:1;"
       d="M 222.333 29.0549 L 194.569 37.5144 "
       id="path1256" />
    <path
       style="fill:none;fill-rule:evenodd;stroke:black;stroke-opacity:1;stroke-width:1pt;stroke-linejoin:miter;stroke-linecap:butt;fill-opacity:1;"
       d="M 219.947 35.996 L 195.436 43.371 "
       id="path1257" />
    <path
       style="fill:none;fill-rule:evenodd;stroke:black;stroke-opacity:1;stroke-width:1pt;stroke-linejoin:miter;stroke-linecap:butt;fill-opacity:1;"
       d="M 215.392 42.9371 C 214.741 42.9371 197.172 48.3599 197.172 48.3599 "
       id="path1258" />
    <path
       style="fill:none;fill-rule:evenodd;stroke:black;stroke-opacity:1;stroke-width:1pt;stroke-linejoin:miter;stroke-linecap:butt;fill-opacity:1;"
       d="M 211.488 48.3599 L 200.208 52.915 "
       id="path1259" />
    <path
       style="fill:none;fill-rule:evenodd;stroke:black;stroke-opacity:1;stroke-width:1pt;stroke-linejoin:miter;stroke-linecap:butt;fill-opacity:1;"
       d="M 208.668 54.4334 C 208.234 54.4334 198.907 58.5547 198.907 58.5547 "
       id="path1260" />
    <path
       style="fill:none;fill-rule:evenodd;stroke:black;stroke-opacity:1;stroke-width:1pt;stroke-linejoin:miter;stroke-linecap:butt;fill-opacity:1;"
       d="M 205.848 59.4224 L 197.172 63.5436 "
       id="path1261" />
    <path
       style="fill:none;fill-rule:evenodd;stroke:black;stroke-opacity:1;stroke-width:1pt;stroke-linejoin:miter;stroke-linecap:butt;fill-opacity:1;"
       d="M 190.881 68.7495 C 190.881 68.7495 191.966 69.1833 191.749 70.4848 "
       id="path1262" />
    <path
       style="fill:none;fill-rule:evenodd;stroke:black;stroke-opacity:1;stroke-width:1pt;stroke-linejoin:miter;stroke-linecap:butt;fill-opacity:1;"
       d="M 168.973 80.6796 C 168.973 80.6796 172.661 81.981 169.19 85.4516 C 167.455 87.8376 162.466 87.187 159.429 91.5251 "
       id="path1263"
       sodipodi:nodetypes="ccc" />
    <path
       style="fill:none;fill-rule:evenodd;stroke:black;stroke-opacity:1;stroke-width:1pt;stroke-linejoin:miter;stroke-linecap:butt;fill-opacity:1;"
       d="M 192.616 32.0917 C 192.616 32.0917 197.172 33.1762 193.701 39.0328 C 184.59 42.5034 166.153 48.143 166.153 48.143 C 166.153 48.143 165.286 49.6614 162.9 50.9629 C 160.514 52.2643 134.268 59.6393 134.268 59.6393 "
       id="path1264"
       sodipodi:nodetypes="ccccc" />
    <path
       style="fill:none;fill-rule:evenodd;stroke:black;stroke-opacity:1;stroke-width:1pt;stroke-linejoin:miter;stroke-linecap:butt;fill-opacity:1;"
       d="M 194.135 38.8159 C 194.135 38.8159 199.124 40.985 194.135 44.6725 C 188.495 47.9261 168.756 53.9996 168.756 53.9996 C 168.756 53.9996 168.539 55.7348 167.672 56.3856 C 166.804 57.0363 140.775 65.7128 140.775 65.7128 "
       id="path1265"
       sodipodi:nodetypes="ccccc" />
    <path
       style="fill:none;fill-rule:evenodd;stroke:black;stroke-opacity:1;stroke-width:1pt;stroke-linejoin:miter;stroke-linecap:butt;fill-opacity:1;"
       d="M 195.436 44.6725 C 195.436 44.6725 200.642 46.1909 196.087 50.529 C 190.664 53.7827 173.311 59.6393 173.311 59.6393 C 173.311 59.6393 171.576 61.8083 168.756 62.676 C 165.936 63.5436 147.933 70.9186 147.933 70.9186 "
       id="path1266"
       sodipodi:nodetypes="ccccc" />
    <path
       style="fill:none;fill-rule:evenodd;stroke:black;stroke-opacity:1;stroke-width:1pt;stroke-linejoin:miter;stroke-linecap:butt;fill-opacity:1;"
       d="M 196.737 50.529 C 198.256 51.1797 202.377 51.8305 197.388 55.7349 C 191.532 58.3378 177.216 63.9775 177.216 63.9775 L 175.914 66.3635 L 153.139 76.1244 "
       id="path1267"
       sodipodi:nodetypes="ccccc" />
    <path
       style="fill:none;fill-rule:evenodd;stroke:black;stroke-opacity:1;stroke-width:1pt;stroke-linejoin:miter;stroke-linecap:butt;fill-opacity:1;"
       d="M 198.039 56.3856 C 198.039 56.3856 200.208 58.9886 195.436 62.0253 C 190.23 64.8451 178.951 69.1833 178.951 69.1833 "
       id="path1268"
       sodipodi:nodetypes="ccc" />
    <path
       style="fill:none;fill-rule:evenodd;stroke:black;stroke-opacity:1;stroke-width:1pt;stroke-linejoin:miter;stroke-linecap:butt;fill-opacity:1;"
       d="M 195.436 62.4591 C 195.436 62.4591 197.822 63.9775 194.786 66.1466 C 191.315 67.8819 177.65 75.0399 177.65 75.0399 L 168.756 80.8965 "
       id="path1269"
       sodipodi:nodetypes="cccc" />
    <path
       style="fill:none;fill-rule:evenodd;stroke:black;stroke-opacity:1;stroke-width:1pt;stroke-linejoin:miter;stroke-linecap:butt;fill-opacity:1;"
       d="M 164.201 42.5033 C 164.201 42.7202 167.889 45.757 166.587 49.2275 C 169.841 51.6135 169.19 54.2165 169.19 54.2165 C 169.19 54.2165 173.745 56.8194 173.095 60.5069 C 177.65 61.5915 177.433 64.1944 177.433 64.1944 L 175.914 66.5804 C 175.914 66.5804 180.469 66.3635 176.565 72.2201 C 178.951 73.5216 177.867 75.0399 177.867 75.0399 "
       id="path1270"
       sodipodi:nodetypes="cccccccc" />
    <path
       style="fill:none;fill-rule:evenodd;stroke:black;stroke-opacity:1;stroke-width:1pt;stroke-linejoin:miter;stroke-linecap:butt;fill-opacity:1;"
       d="M 176.565 72.437 C 175.914 72.437 160.731 78.0767 156.826 81.5472 "
       id="path1271" />
    <path
       style="fill:none;fill-rule:evenodd;stroke:black;stroke-opacity:1;stroke-width:1pt;stroke-linejoin:miter;stroke-linecap:butt;fill-opacity:1;"
       d="M 139.907 65.7128 C 139.907 65.7128 144.462 65.4959 143.812 70.4848 C 149.018 68.7495 147.933 73.7384 147.933 73.7384 C 147.933 73.7384 154.006 71.3524 152.922 78.9443 C 156.826 78.0767 156.175 81.981 156.175 81.981 C 156.175 81.981 159.646 81.7641 159.646 83.7163 C 162.032 81.5472 164.635 82.6318 164.635 82.6318 C 164.635 82.6318 166.37 80.2457 168.756 80.8965 "
       id="path1272"
       sodipodi:nodetypes="cccccccc" />
    <path
       style="fill:none;fill-rule:evenodd;stroke:black;stroke-opacity:1;stroke-width:1pt;stroke-linejoin:miter;stroke-linecap:butt;fill-opacity:1;"
       d="M 144.029 70.2678 C 144.029 70.7018 123.639 81.981 123.639 81.981 "
       id="path1273"
       sodipodi:nodetypes="cc" />
    <path
       style="fill:none;fill-rule:evenodd;stroke:black;stroke-opacity:1;stroke-width:1pt;stroke-linejoin:miter;stroke-linecap:butt;fill-opacity:1;"
       d="M 147.933 73.9554 L 132.532 83.4994 "
       id="path1274" />
    <path
       style="fill:none;fill-rule:evenodd;stroke:black;stroke-opacity:1;stroke-width:1pt;stroke-linejoin:miter;stroke-linecap:butt;fill-opacity:1;"
       d="M 153.139 78.7274 C 153.139 78.9443 139.69 86.7531 139.69 86.7531 "
       id="path1275" />
    <path
       style="fill:none;fill-rule:evenodd;stroke:black;stroke-opacity:1;stroke-width:1pt;stroke-linejoin:miter;stroke-linecap:butt;fill-opacity:1;"
       d="M 156.175 81.7641 C 156.175 81.7641 146.631 89.5729 144.462 89.1391 "
       id="path1276" />
    <path
       style="fill:none;fill-rule:evenodd;stroke:black;stroke-opacity:1;stroke-width:1pt;stroke-linejoin:miter;stroke-linecap:butt;fill-opacity:1;"
       d="M 159.429 84.1501 C 159.429 84.1501 154.006 88.2715 149.451 90.2236 "
       id="path1277" />
    <path
       style="fill:none;fill-rule:evenodd;stroke:black;stroke-opacity:1;stroke-width:1pt;stroke-linejoin:miter;stroke-linecap:butt;fill-opacity:1;"
       d="M 165.069 82.4149 C 165.069 82.4149 166.804 84.584 155.959 90.2236 "
       id="path1278"
       sodipodi:nodetypes="cc" />
  </g>
</svg>
