<?xml version="1.0" encoding="UTF-8" standalone="no"?>
<!DOCTYPE svg PUBLIC "-//W3C//DTD SVG 20010904//EN"
"http://www.w3.org/TR/2001/REC-SVG-20010904/DTD/svg10.dtd">
<!-- Created with Sodipodi ("http://www.sodipodi.com/") -->
<svg
   id="svg820"
   sodipodi:version="0.33pre"
   width="210mm"
   height="140mm"
   sodipodi:docbase="/home/yemu/clipart/new new/"
   sodipodi:docname="/home/yemu/clipart/new new/angola.avg"
   xmlns="http://www.w3.org/2000/svg"
   xmlns:sodipodi="http://sodipodi.sourceforge.net/DTD/sodipodi-0.dtd"
   xmlns:xlink="http://www.w3.org/1999/xlink">
  <defs
     id="defs822" />
  <sodipodi:namedview
     id="base"
     showgrid="true"
     snaptogrid="false" />
  <rect
     style="font-size:12;fill:#ff0000;fill-rule:evenodd;stroke-width:1pt;fill-opacity:1;"
     id="rect918"
     width="744.094482"
     height="255.531540"
     x="0.000000"
     y="0.000000" />
  <rect
     style="font-size:12;fill:#000000;fill-rule:evenodd;stroke-width:1pt;fill-opacity:1;"
     id="rect919"
     width="744.094482"
     height="255.531540"
     x="0"
     y="248.031479" />
  <path
     style="font-size:12;fill:#ffec00;fill-rule:evenodd;stroke-width:1pt;"
     d="M 341.828 -135.754 C 507.044 -92.4496 400.817 119.886 270.612 31.509 C 267.673 36.0238 264.735 40.5387 261.795 45.0536 C 338.423 99.7119 414.367 55.7132 435.694 -1.30432 C 457.991 -60.0928 428.173 -142.781 343.183 -151.33 C 342.732 -146.138 342.279 -140.946 341.828 -135.754 z "
     id="path824"
     sodipodi:nodetypes="cccscc"
     transform="translate(0.000000,279.0630)" />
  <rect
     style="font-size:12;fill:#ffec00;fill-rule:evenodd;stroke-width:1pt;"
     id="rect825"
     width="23.972401"
     height="23.948845"
     x="276.340170"
     y="-77.070216"
     transform="matrix(0.906416,0.422387,-0.423454,0.905918,0.000000,279.0630)" />
  <rect
     style="font-size:12;fill:#ffec00;fill-rule:evenodd;stroke-width:1pt;"
     id="rect826"
     width="23.978977"
     height="23.942251"
     x="432.101837"
     y="-52.575720"
     transform="translate(0.000000,279.0630)" />
  <rect
     style="font-size:12;fill:#ffec00;fill-rule:evenodd;stroke-width:1pt;"
     id="rect827"
     width="23.974122"
     height="23.947087"
     x="424.895857"
     y="67.213850"
     transform="matrix(0.931934,-0.362628,0.363597,0.931556,0.000000,279.0630)" />
  <rect
     style="font-size:12;fill:#ffec00;fill-rule:evenodd;stroke-width:1pt;"
     id="rect828"
     width="23.960726"
     height="23.960503"
     x="365.037141"
     y="191.673428"
     transform="matrix(0.710943,-0.703249,0.704342,0.709861,0.000000,279.0630)" />
  <rect
     style="font-size:12;fill:#ffec00;fill-rule:evenodd;stroke-width:1pt;"
     id="rect829"
     width="23.974401"
     height="23.946857"
     x="287.710304"
     y="-280.001408"
     transform="matrix(0.935747,0.352671,-0.353620,0.935389,0.000000,279.0630)" />
  <rect
     style="font-size:12;fill:#ffec00;fill-rule:evenodd;stroke-width:1pt;"
     id="rect830"
     width="23.973907"
     height="23.947322"
     x="393.326781"
     y="-172.062239"
     transform="matrix(0.928739,0.370734,-0.371718,0.928346,0.000000,279.0630)" />
  <rect
     style="font-size:12;fill:#ffec00;fill-rule:evenodd;stroke-width:1pt;"
     id="rect831"
     width="23.973291"
     height="23.947890"
     x="308.483099"
     y="192.403388"
     transform="matrix(0.920124,-0.391628,0.392648,0.919689,0.000000,279.0630)" />
  <rect
     style="font-size:12;fill:#ffec00;fill-rule:evenodd;stroke-width:1pt;"
     id="rect832"
     width="23.978977"
     height="23.942251"
     x="319.880066"
     y="58.906098"
     transform="translate(0.000000,279.0630)" />
  <path
     style="font-size:12;fill:#ffec00;fill-rule:evenodd;stroke-width:1pt;"
     d="M 361.167 -57.0298 L 340.816 -72.0358 L 320.572 -57.5672 L 328.606 -80.4851 L 308.259 -95.4422 L 332.706 -95.6132 L 341.274 -118.164 L 349.056 -95.461 L 373.758 -95.7026 L 354.171 -80.471 L 361.167 -57.0298 z "
     id="path739"
     sodipodi:nodetypes="ccccccccccc"
     transform="translate(0.000000,279.0630)" />
  <path
     style="font-size:12;fill:#ffee00;fill-rule:evenodd;stroke-width:1pt;"
     d="M 449.188 62.4528 C 447.977 62.8712 442.959 74.8421 439.513 80.7011 C 441.31 81.2103 442.072 81.2976 443.138 81.7265 C 456.793 86.5272 463.522 90.9072 469.324 99.2319 C 472.212 102.023 476.356 102.163 479.522 99.9291 C 479.522 99.9291 482.317 98.8135 485.951 94.9068 C 488.92 90.3873 488.146 86.7973 484.568 83.7465 C 473.624 75.7958 461.668 69.8458 449.188 62.4528 z "
     id="path878"
     sodipodi:nodetypes="cccccccc"
     transform="translate(0.000000,279.0630)" />
  <path
     sodipodi:type="arc"
     style="font-size:12;fill-rule:evenodd;stroke-width:1pt;"
     id="path879"
     d="M 199.617264 154.986633 A 1.891823 1.891823 0 1 0 195.833603,154.986633 A 1.89182 1.89182 0 1 0 199.617 154.987 L 197.725433 154.986633 z"
     sodipodi:cx="197.725433"
     sodipodi:cy="154.986633"
     sodipodi:rx="1.891823"
     sodipodi:ry="1.891823"
     transform="matrix(2.289521,0.000000,0.000000,2.286005,21.37732,13.67169)" />
  <path
     sodipodi:type="arc"
     style="font-size:12;fill-rule:evenodd;stroke-width:1pt;"
     id="path880"
     d="M 199.617264 154.986633 A 1.891823 1.891823 0 1 0 195.833603,154.986633 A 1.89182 1.89182 0 1 0 199.617 154.987 L 197.725433 154.986633 z"
     sodipodi:cx="197.725433"
     sodipodi:cy="154.986633"
     sodipodi:rx="1.891823"
     sodipodi:ry="1.891823"
     transform="scale(2.289521,2.286005)" />
  <path
     sodipodi:type="arc"
     style="font-size:12;fill-rule:evenodd;stroke-width:1pt;"
     id="path881"
     d="M 199.617264 154.986633 A 1.891823 1.891823 0 1 0 195.833603,154.986633 A 1.89182 1.89182 0 1 0 199.617 154.987 L 197.725433 154.986633 z"
     sodipodi:cx="197.725433"
     sodipodi:cy="154.986633"
     sodipodi:rx="1.891823"
     sodipodi:ry="1.891823"
     transform="matrix(2.289521,0.000000,0.000000,2.286005,10.89825,6.975403)" />
  <path
     style="font-size:12;fill:#ffee00;fill-rule:evenodd;stroke-width:1pt;"
     d="M 437.626 79.7437 C 395.057 55.4709 350.315 29.223 307.748 4.9479 C 288.997 -6.68787 288.065 -28.4369 300.578 -44.9282 C 301.88 -47.2645 303.414 -46.6861 304.092 -45.4516 C 305.555 -37.4232 310.061 -29.1273 315.462 -23.9563 C 360.155 4.42669 403.194 31.8473 447.176 61.6568 C 443.728 67.4244 441.072 73.9784 437.626 79.7437 z "
     id="path882"
     sodipodi:nodetypes="ccccccc"
     transform="translate(0.000000,279.0630)" />
  <rect
     style="font-size:12;fill:#ffec00;fill-rule:evenodd;stroke-width:1pt;"
     id="rect892"
     width="23.962569"
     height="23.958676"
     x="319.649520"
     y="-257.701773"
     transform="matrix(0.744952,0.667118,-0.668256,0.743931,0.000000,279.0630)" />
  <path
     style="font-size:12;fill:none;fill-rule:evenodd;stroke:#000000;stroke-width:2.28777pt;"
     d="M 444.701 64.8984 L 319.739 -10.6244 "
     id="path893"
     sodipodi:nodetypes="cc"
     transform="translate(0.000000,279.0630)" />
  <path
     style="font-size:12;fill:none;fill-rule:evenodd;stroke:#000000;stroke-width:2.28777pt;"
     d="M 429.272 47.4699 L 387.028 20.191 "
     id="path894"
     transform="translate(0.000000,279.0630)" />
  <path
     style="font-size:12;fill:none;fill-rule:evenodd;stroke:#000000;stroke-width:2.28777pt;"
     d="M 405.238 62.8775 L 362.488 38.1224 "
     id="path895"
     sodipodi:nodetypes="cc"
     transform="translate(0.000000,279.0630)" />
</svg>
