<?xml version="1.0" encoding="UTF-8" standalone="no"?>
<!DOCTYPE svg PUBLIC "-//W3C//DTD SVG 20010904//EN"
"http://www.w3.org/TR/2001/REC-SVG-20010904/DTD/svg10.dtd">
<!-- Created with Sodipodi ("http://www.sodipodi.com/") -->
<svg
   id="svg548"
   sodipodi:version="0.32"
   width="7.69843in"
   height="5.16in"
   sodipodi:docbase="/home/scarlet/sodipodi-flags/nations/"
   sodipodi:docname="/home/scarlet/sodipodi-flags/nations/antigua.svg"
   xmlns="http://www.w3.org/2000/svg"
   xmlns:sodipodi="http://sodipodi.sourceforge.net/DTD/sodipodi-0.dtd"
   xmlns:xlink="http://www.w3.org/1999/xlink">
  <defs
     id="defs550" />
  <sodipodi:namedview
     id="base" />
  <rect
     style="font-size:12;fill:#ffffff;fill-rule:evenodd;stroke-width:1pt;fill-opacity:1;"
     id="rect556"
     width="693.000061"
     height="464.399995"
     x="0.000000"
     y="-0.000034" />
  <rect
     style="font-size:12;fill:#000000;fill-rule:evenodd;stroke-width:1pt;fill-opacity:1;"
     id="rect1050"
     width="690.831726"
     height="196.199555"
     x="1.530195"
     y="0.560571" />
  <rect
     style="font-size:12;fill:#0061ff;fill-rule:evenodd;stroke-width:1pt;fill-opacity:1;"
     id="rect1049"
     width="458.519531"
     height="103.345062"
     x="128.290436"
     y="184.524147" />
  <path
     style="fill:#e20000;fill-rule:evenodd;stroke:none;stroke-opacity:1;stroke-width:1pt;stroke-linejoin:miter;stroke-linecap:butt;fill-opacity:1;"
     d="M 691.343 0.403595 L 691.343 463.675 L 346.86 463.675 L 691.343 0.403595 z "
     id="path1047"
     sodipodi:nodetypes="cccc"
     transform="matrix(1.003448,0.000000,0.000000,1.000000,-1.196017,1.187859)" />
  <path
     style="fill:#e20000;fill-rule:evenodd;stroke:none;stroke-opacity:1;stroke-width:1pt;stroke-linejoin:miter;stroke-linecap:butt;fill-opacity:1;"
     d="M 691.343 0.403595 L 691.343 463.675 L 346.86 463.675 L 691.343 0.403595 z "
     id="path1048"
     sodipodi:nodetypes="cccc"
     transform="matrix(-1.003448,0.000000,0.000000,1.000000,694.9154,1.187897)" />
  <path
     style="fill:#ffd600;fill-rule:evenodd;stroke:none;stroke-opacity:1;stroke-width:1pt;stroke-linejoin:miter;stroke-linecap:butt;fill-opacity:1;"
     d="M 508.78 184.62 L 439.495 167.04 L 498.439 122.573 L 426.052 132.914 L 463.28 69.834 L 399.165 107.062 L 410.54 33.6403 L 367.108 91.5502 L 349.528 24.3333 L 329.88 93.6184 L 286.447 34.6744 L 298.856 110.165 L 234.742 70.8681 L 271.97 133.948 L 201.651 122.573 L 259.561 166.006 L 187.173 184.62 L 508.78 184.62 z "
     id="path1051"
     sodipodi:nodetypes="cccccccccccccccccc" />
</svg>
