<?xml version="1.0" encoding="UTF-8" standalone="no"?>
<!DOCTYPE svg PUBLIC "-//W3C//DTD SVG 20010904//EN"
"http://www.w3.org/TR/2001/REC-SVG-20010904/DTD/svg10.dtd">
<!-- Created with Sodipodi ("http://www.sodipodi.com/") -->
<svg
   id="svg548"
   sodipodi:version="0.32"
   width="280mm"
   height="140mm"
   sodipodi:docbase="/home/cschalle/sodipodi-flags/nations/"
   sodipodi:docname="/home/cschalle/sodipodi-flags/nations/argentina.svg"
   xmlns="http://www.w3.org/2000/svg"
   xmlns:sodipodi="http://sodipodi.sourceforge.net/DTD/sodipodi-0.dtd"
   xmlns:xlink="http://www.w3.org/1999/xlink">
  <defs
     id="defs550" />
  <sodipodi:namedview
     id="base"
     showgrid="true"
     gridspacingx="20mm"
     gridspacingy="20mm" />
  <g
     id="g561"
     transform="matrix(1.460702,0.000000,0.000000,1.093819,-53.21603,-250.0599)">
    <rect
       style="font-size:12;fill:#00c4ff;fill-rule:evenodd;stroke-width:1pt;fill-opacity:1;"
       id="rect552"
       width="677.877089"
       height="151.049730"
       x="37.969228"
       y="229.797326" />
    <rect
       style="font-size:12;fill:#ffffff;fill-rule:evenodd;stroke-width:1pt;fill-opacity:1;"
       id="rect554"
       width="677.877024"
       height="151.049697"
       x="37.969134"
       y="380.231914" />
    <rect
       style="font-size:12;fill:#00c4ff;fill-rule:evenodd;stroke-width:1pt;fill-opacity:1;"
       id="rect555"
       width="677.876958"
       height="151.049697"
       x="37.969053"
       y="530.665882" />
  </g>
  <g
     id="g904"
     transform="translate(160.2863,4.136299)">
    <path
       sodipodi:type="arc"
       style="fill-rule:evenodd;stroke:#000000;fill:#ffd600;fill-opacity:1;stroke-opacity:0.386617;stroke-width:0.625;stroke-linejoin:miter;stroke-linecap:butt;stroke-dasharray:none;"
       id="path598"
       d="M 382.492432 221.328979 A 26.499130 26.369865 0 1 0 329.494141,221.328979 A 26.4991 26.3699 0 1 0 382.492 221.329 L 355.993286 221.328979 z"
       sodipodi:cx="355.993286"
       sodipodi:cy="221.328979"
       sodipodi:rx="26.499130"
       sodipodi:ry="26.369865"
       transform="matrix(1.019329,0.000000,0.000000,1.003844,-26.19757,18.07461)" />
    <path
       style="fill:none;fill-rule:evenodd;stroke:#000000;stroke-opacity:0.386617;stroke-width:0.5;stroke-linejoin:miter;stroke-linecap:butt;fill-opacity:1;stroke-dasharray:none;"
       d="M 364.434 195.277 C 360.094 194.228 355.649 195.699 354.249 195.595 C 352.324 195.595 347.459 193.915 344.064 195.595 "
       id="path561"
       sodipodi:nodetypes="ccc"
       transform="matrix(0.787052,0.000000,0.000000,0.762697,57.45783,72.38400)" />
    <path
       style="fill:none;fill-rule:evenodd;stroke:#000000;stroke-opacity:0.386617;stroke-width:0.5;stroke-linejoin:miter;stroke-linecap:butt;fill-opacity:1;stroke-dasharray:none;"
       d="M 338.712 200.487 C 343.017 197.477 347.827 201.573 349.106 200.802 C 352.598 198.508 355.842 198.934 359.186 201.012 C 361.341 202.284 365.1 197.302 369.475 201.327 "
       id="path562"
       sodipodi:nodetypes="cssc"
       transform="matrix(0.787052,0.000000,0.000000,0.762697,57.45783,72.38400)" />
    <path
       style="fill:#efc000;fill-rule:evenodd;stroke:#000000;stroke-opacity:0.386617;stroke-width:0.5;stroke-linejoin:miter;stroke-linecap:butt;fill-opacity:1;stroke-dasharray:none;"
       d="M 333.882 205.632 C 336.157 203.777 343.576 203.707 351.206 208.046 C 352.361 207.766 353.096 206.962 352.151 205.842 C 346.411 203.847 339.727 201.327 333.567 203.217 C 331.887 204.407 332.307 205.177 333.882 205.632 z "
       id="path564"
       sodipodi:nodetypes="ccccc"
       transform="matrix(0.787052,0.000000,0.000000,0.762697,57.45783,72.38400)" />
    <path
       style="fill:#efc000;fill-rule:evenodd;stroke:#000000;stroke-opacity:0.386617;stroke-width:0.5;stroke-linejoin:miter;stroke-linecap:butt;fill-opacity:1;stroke-dasharray:none;"
       d="M 333.882 205.632 C 336.157 203.777 343.576 203.707 351.206 208.046 C 352.361 207.766 353.096 206.962 352.151 205.842 C 346.411 203.847 339.727 201.327 333.567 203.217 C 331.887 204.407 332.307 205.177 333.882 205.632 z "
       id="path565"
       sodipodi:nodetypes="ccccc"
       transform="matrix(-0.787052,0.000000,0.000000,0.762697,614.9905,72.38400)" />
    <path
       style="fill:#f0bf00;fill-rule:evenodd;stroke:#000000;stroke-opacity:0.386617;stroke-width:0.625;stroke-linejoin:round;stroke-linecap:butt;fill-opacity:1;stroke-dasharray:none;"
       d="M 330.837 211.826 C 338.362 206.996 348.301 209.516 352.466 212.141 C 346.376 210.986 346.271 210.461 341.861 210.356 C 338.746 210.462 334.162 210.146 330.837 211.826 z "
       id="path569"
       sodipodi:nodetypes="cccc"
       transform="matrix(0.787052,0.000000,0.000000,0.762697,57.45783,72.38400)" />
    <path
       style="fill:none;fill-rule:evenodd;stroke:#000000;stroke-opacity:0.386617;stroke-width:0.625;stroke-linejoin:miter;stroke-linecap:butt;fill-opacity:1;stroke-dasharray:none;"
       d="M 348.056 211.301 C 344.381 218.966 337.977 219.071 333.462 210.881 "
       id="path570"
       sodipodi:nodetypes="cc"
       transform="matrix(0.787052,0.000000,0.000000,0.762697,57.45783,72.38400)" />
    <path
       sodipodi:type="arc"
       style="fill-rule:evenodd;stroke:none;fill:#000000;fill-opacity:0.36803;stroke-opacity:0.37;stroke-width:1pt;stroke-linejoin:miter;stroke-linecap:butt;"
       id="path571"
       d="M 345.536316 212.876129 A 3.674805 1.679909 0 1 0 338.186707,212.876129 A 3.6748 1.67991 0 1 0 345.536 212.876 L 341.861511 212.876129 z"
       sodipodi:cx="341.861511"
       sodipodi:cy="212.876129"
       sodipodi:rx="3.674805"
       sodipodi:ry="1.679909"
       transform="matrix(0.852947,0.123381,-0.924232,1.010978,231.8767,-22.52022)" />
    <path
       sodipodi:type="arc"
       style="fill-rule:evenodd;stroke:none;fill:#ffd700;fill-opacity:1;stroke-opacity:0.386617;stroke-width:1pt;stroke-linejoin:miter;stroke-linecap:butt;"
       id="path572"
       d="M 344.066376 212.561157 A 0.734970 0.419975 0 1 0 342.596466,212.561157 A 0.73497 0.419975 0 1 0 344.066 212.561 L 343.331421 212.561157 z"
       sodipodi:cx="343.331421"
       sodipodi:cy="212.561157"
       sodipodi:rx="0.734970"
       sodipodi:ry="0.419975"
       transform="matrix(1.047637,-0.342831,0.381378,0.941748,-115.9167,151.9138)" />
    <path
       style="fill:none;fill-rule:evenodd;stroke:#000000;stroke-opacity:0.386617;stroke-width:0.625;stroke-linejoin:miter;stroke-linecap:butt;fill-opacity:1;stroke-dasharray:none;"
       d="M 349.183 224.497 C 344.944 231.624 350.72 226.597 351.658 228.661 C 353.308 230.574 354.959 230.123 355.934 228.661 C 356.91 227.01 363.061 231.774 358.86 224.723 "
       id="path573"
       sodipodi:nodetypes="cccc"
       transform="matrix(0.787052,0.000000,0.000000,0.762697,57.45783,72.38400)" />
    <path
       style="fill:none;fill-rule:evenodd;stroke:#000000;stroke-opacity:0.386617;stroke-width:0.625;stroke-linejoin:round;stroke-linecap:round;fill-opacity:1;stroke-dasharray:none;"
       d="M 341.643 236.313 C 345.281 235.9 351.396 233.125 353.572 235.413 C 355.447 233.35 362.049 236.013 366.287 236.313 C 363.211 238.188 356.985 236.913 354.022 238.901 C 351.133 237.138 344.756 238.751 341.643 236.313 z "
       id="path574"
       sodipodi:nodetypes="ccccc"
       transform="matrix(0.787052,0.000000,0.000000,0.762697,57.45783,72.38400)" />
    <path
       style="fill:none;fill-rule:evenodd;stroke:#000000;stroke-opacity:0.386617;stroke-width:0.625;stroke-linejoin:round;stroke-linecap:butt;fill-opacity:1;stroke-dasharray:none;"
       d="M 347.495 239.576 C 353.009 241.827 354.247 241.489 360.211 239.801 C 358.973 243.065 355.813 243.752 354.021 243.627 C 352.164 243.506 349.633 243.74 347.495 239.576 z "
       id="path575"
       sodipodi:nodetypes="ccsc"
       transform="matrix(0.787052,0.000000,0.000000,0.762697,57.45783,72.38400)" />
    <path
       style="fill:#ffd700;fill-rule:evenodd;stroke:#000000;stroke-opacity:0.386617;stroke-width:0.625;stroke-linejoin:round;stroke-linecap:butt;fill-opacity:1;stroke-dasharray:none;"
       d="M 343.168 258.061 C 339.191 268.471 343.547 273.419 341.601 279.025 C 339.727 284.423 331.576 297.801 337.78 303.614 C 342.711 303.842 336.928 296.238 346.792 282.159 C 351.367 275.564 345.596 271.39 350.417 258.452 C 350.866 257.345 343.795 256.421 343.168 258.061 z "
       id="path599"
       sodipodi:nodetypes="cscsss"
       transform="matrix(0.787052,0.000000,0.000000,0.762697,57.45783,72.38400)" />
    <path
       style="fill:#ffd700;fill-rule:evenodd;stroke:#000000;stroke-opacity:0.386617;stroke-width:0.625;stroke-linejoin:round;stroke-linecap:butt;fill-opacity:1;stroke-dasharray:none;"
       d="M 342.972 258.159 C 341.444 269.842 342.352 305.736 346.009 304.3 C 350.058 305.605 350.592 269.137 350.221 258.354 C 350.169 257.16 343.185 256.416 342.972 258.159 z "
       id="path600"
       sodipodi:nodetypes="ccss"
       transform="matrix(0.787052,0.000000,0.000000,0.762697,64.24288,72.90699)" />
    <path
       style="fill:none;fill-rule:evenodd;stroke:#000000;stroke-opacity:0.386617;stroke-width:0.625;stroke-linejoin:round;stroke-linecap:butt;fill-opacity:1;stroke-dasharray:none;"
       d="M 343.168 258.061 C 339.191 268.471 343.547 273.419 341.601 279.025 C 339.727 284.423 331.576 297.801 337.78 303.614 C 342.711 303.842 336.928 296.238 346.792 282.159 C 351.367 275.564 345.596 271.39 350.417 258.452 C 350.866 257.345 343.795 256.421 343.168 258.061 z "
       id="path605"
       sodipodi:nodetypes="cscsss"
       transform="matrix(-0.562557,-0.533404,-0.550437,0.545148,657.1436,309.1192)" />
    <path
       style="fill:none;fill-rule:evenodd;stroke:#000000;stroke-opacity:0.386617;stroke-width:0.625;stroke-linejoin:round;stroke-linecap:butt;fill-opacity:1;stroke-dasharray:none;"
       d="M 343.168 258.061 C 339.191 268.471 343.547 273.419 341.601 279.025 C 339.727 284.423 331.576 297.801 337.78 303.614 C 342.711 303.842 336.928 296.238 346.792 282.159 C 351.367 275.564 345.596 271.39 350.417 258.452 C 350.866 257.345 343.795 256.421 343.168 258.061 z "
       id="path607"
       sodipodi:nodetypes="cscsss"
       transform="matrix(0.550737,0.544863,-0.562262,0.533694,265.3191,-69.99310)" />
    <path
       style="fill:none;fill-rule:evenodd;stroke:#000000;stroke-opacity:0.386617;stroke-width:0.625;stroke-linejoin:round;stroke-linecap:butt;fill-opacity:1;stroke-dasharray:none;"
       d="M 343.168 258.061 C 339.191 268.471 343.547 273.419 341.601 279.025 C 339.727 284.423 331.576 297.801 337.78 303.614 C 342.711 303.842 336.928 296.238 346.792 282.159 C 351.367 275.564 345.596 271.39 350.417 258.452 C 350.866 257.345 343.795 256.421 343.168 258.061 z "
       id="path609"
       sodipodi:nodetypes="cscsss"
       transform="matrix(-4.530566e-3,-0.762684,-0.787039,4.390367e-3,511.3669,509.6946)" />
    <path
       style="fill:none;fill-rule:evenodd;stroke:#000000;stroke-opacity:0.386617;stroke-width:0.625;stroke-linejoin:round;stroke-linecap:butt;fill-opacity:1;stroke-dasharray:none;"
       d="M 342.972 258.159 C 341.444 269.842 342.352 305.736 346.009 304.3 C 350.058 305.605 350.592 269.137 350.221 258.354 C 350.169 257.16 343.185 256.416 342.972 258.159 z "
       id="path612"
       sodipodi:nodetypes="ccss"
       transform="matrix(-0.721993,-0.303638,-0.313334,0.699651,656.3777,192.0507)" />
    <path
       style="fill:none;fill-rule:evenodd;stroke:#000000;stroke-opacity:0.386617;stroke-width:0.625;stroke-linejoin:round;stroke-linecap:butt;fill-opacity:1;stroke-dasharray:none;"
       d="M 342.972 258.159 C 341.444 269.842 342.352 305.736 346.009 304.3 C 350.058 305.605 350.592 269.137 350.221 258.354 C 350.169 257.16 343.185 256.416 342.972 258.159 z "
       id="path613"
       sodipodi:nodetypes="ccss"
       transform="matrix(-0.560648,-0.535288,-0.552382,0.543299,651.5038,306.3963)" />
    <path
       style="fill:none;fill-rule:evenodd;stroke:#000000;stroke-opacity:0.386617;stroke-width:0.625;stroke-linejoin:round;stroke-linecap:butt;fill-opacity:1;stroke-dasharray:none;"
       d="M 342.972 258.159 C 341.444 269.842 342.352 305.736 346.009 304.3 C 350.058 305.605 350.592 269.137 350.221 258.354 C 350.169 257.16 343.185 256.416 342.972 258.159 z "
       id="path616"
       sodipodi:nodetypes="ccss"
       transform="matrix(-0.307533,-0.702063,-0.724482,0.298016,602.0634,417.7447)" />
    <path
       style="fill:none;fill-rule:evenodd;stroke:#000000;stroke-opacity:0.0817844;stroke-width:0.625;stroke-linejoin:miter;stroke-linecap:butt;fill-opacity:1;stroke-dasharray:none;"
       d="M 349.183 224.497 C 344.944 231.624 350.72 226.597 351.658 228.661 C 353.308 230.574 354.959 230.123 355.934 228.661 C 356.91 227.01 363.061 231.774 358.86 224.723 "
       id="path617"
       sodipodi:nodetypes="cccc"
       transform="matrix(0.787052,0.000000,0.000000,0.762697,57.45783,72.38400)" />
    <path
       style="fill:#f0bf00;fill-rule:evenodd;stroke:#000000;stroke-opacity:0.0817844;stroke-width:0.625;stroke-linejoin:round;stroke-linecap:round;fill-opacity:1;stroke-dasharray:none;"
       d="M 341.643 236.313 C 345.281 235.9 351.396 233.125 353.572 235.413 C 355.447 233.35 362.049 236.013 366.287 236.313 C 363.211 238.188 356.985 236.913 354.022 238.901 C 351.133 237.138 344.756 238.751 341.643 236.313 z "
       id="path618"
       sodipodi:nodetypes="ccccc"
       transform="matrix(0.787052,0.000000,0.000000,0.762697,57.45783,72.38400)" />
    <path
       style="fill:#f0bf00;fill-rule:evenodd;stroke:#000000;stroke-opacity:0.0817844;stroke-width:0.625;stroke-linejoin:round;stroke-linecap:butt;fill-opacity:1;stroke-dasharray:none;"
       d="M 347.495 239.576 C 353.009 241.827 354.247 241.489 360.211 239.801 C 358.973 243.065 355.813 243.752 354.021 243.627 C 352.164 243.506 349.633 243.74 347.495 239.576 z "
       id="path619"
       sodipodi:nodetypes="ccsc"
       transform="matrix(0.787052,0.000000,0.000000,0.762697,57.45783,72.38400)" />
    <path
       style="fill:#ffd700;fill-rule:evenodd;stroke:#000000;stroke-opacity:0.148699;stroke-width:0.625;stroke-linejoin:round;stroke-linecap:butt;fill-opacity:1;stroke-dasharray:none;"
       d="M 343.168 258.061 C 339.191 268.471 343.547 273.419 341.601 279.025 C 339.727 284.423 331.576 297.801 337.78 303.614 C 342.711 303.842 336.928 296.238 346.792 282.159 C 351.367 275.564 345.596 271.39 350.417 258.452 C 350.866 257.345 343.795 256.421 343.168 258.061 z "
       id="path630"
       sodipodi:nodetypes="cscsss"
       transform="matrix(-0.562557,-0.533404,-0.550437,0.545148,657.1436,309.1192)" />
    <path
       style="fill:#ffd700;fill-rule:evenodd;stroke:#000000;stroke-opacity:0.148699;stroke-width:0.625;stroke-linejoin:round;stroke-linecap:butt;fill-opacity:1;stroke-dasharray:none;"
       d="M 343.168 258.061 C 339.191 268.471 343.547 273.419 341.601 279.025 C 339.727 284.423 331.576 297.801 337.78 303.614 C 342.711 303.842 336.928 296.238 346.792 282.159 C 351.367 275.564 345.596 271.39 350.417 258.452 C 350.866 257.345 343.795 256.421 343.168 258.061 z "
       id="path632"
       sodipodi:nodetypes="cscsss"
       transform="matrix(0.550737,0.544863,-0.562262,0.533694,265.3191,-69.99310)" />
    <path
       style="fill:#ffd700;fill-rule:evenodd;stroke:#000000;stroke-opacity:0.148699;stroke-width:0.625;stroke-linejoin:round;stroke-linecap:butt;fill-opacity:1;stroke-dasharray:none;"
       d="M 343.168 258.061 C 339.191 268.471 343.547 273.419 341.601 279.025 C 339.727 284.423 331.576 297.801 337.78 303.614 C 342.711 303.842 336.928 296.238 346.792 282.159 C 351.367 275.564 345.596 271.39 350.417 258.452 C 350.866 257.345 343.795 256.421 343.168 258.061 z "
       id="path634"
       sodipodi:nodetypes="cscsss"
       transform="matrix(-4.530566e-3,-0.762684,-0.787039,4.390367e-3,511.3669,509.6946)" />
    <path
       style="fill:#ffd700;fill-rule:evenodd;stroke:#000000;stroke-opacity:0.148699;stroke-width:0.625;stroke-linejoin:round;stroke-linecap:butt;fill-opacity:1;stroke-dasharray:none;"
       d="M 342.972 258.159 C 341.444 269.842 342.352 305.736 346.009 304.3 C 350.058 305.605 350.592 269.137 350.221 258.354 C 350.169 257.16 343.185 256.416 342.972 258.159 z "
       id="path637"
       sodipodi:nodetypes="ccss"
       transform="matrix(-0.721993,-0.303638,-0.313334,0.699651,656.3777,192.0507)" />
    <path
       style="fill:#ffd700;fill-rule:evenodd;stroke:#000000;stroke-opacity:0.148699;stroke-width:0.625;stroke-linejoin:round;stroke-linecap:butt;fill-opacity:1;stroke-dasharray:none;"
       d="M 342.972 258.159 C 341.444 269.842 342.352 305.736 346.009 304.3 C 350.058 305.605 350.592 269.137 350.221 258.354 C 350.169 257.16 343.185 256.416 342.972 258.159 z "
       id="path638"
       sodipodi:nodetypes="ccss"
       transform="matrix(-0.560648,-0.535288,-0.552382,0.543299,651.5038,306.3963)" />
    <path
       style="fill:#ffd700;fill-rule:evenodd;stroke:#000000;stroke-opacity:0.148699;stroke-width:0.625;stroke-linejoin:round;stroke-linecap:butt;fill-opacity:1;stroke-dasharray:none;"
       d="M 342.972 258.159 C 341.444 269.842 342.352 305.736 346.009 304.3 C 350.058 305.605 350.592 269.137 350.221 258.354 C 350.169 257.16 343.185 256.416 342.972 258.159 z "
       id="path641"
       sodipodi:nodetypes="ccss"
       transform="matrix(-0.307533,-0.702063,-0.724482,0.298016,602.0634,417.7447)" />
    <path
       style="font-size:12;fill:#ffd700;fill-rule:evenodd;stroke:#000000;stroke-width:0.625;stroke-linejoin:round;stroke-opacity:0.386617;"
       d="M 342.972 258.159 C 341.444 269.842 342.352 305.736 346.009 304.3 C 350.058 305.605 350.592 269.137 350.221 258.354 C 350.169 257.16 343.185 256.416 342.972 258.159 z "
       id="path602"
       sodipodi:nodetypes="ccss"
       transform="matrix(-1.445744e-16,-0.762697,0.787052,-1.401005e-16,164.0627,504.4059)" />
    <path
       style="font-size:12;fill:#ffd700;fill-rule:evenodd;stroke:#000000;stroke-width:0.625;stroke-linejoin:round;stroke-opacity:0.386617;"
       d="M 343.168 258.061 C 339.191 268.471 343.547 273.419 341.601 279.025 C 339.727 284.423 331.576 297.801 337.78 303.614 C 342.711 303.842 336.928 296.238 346.792 282.159 C 351.367 275.564 345.596 271.39 350.417 258.452 C 350.866 257.345 343.795 256.421 343.168 258.061 z "
       id="path604"
       sodipodi:nodetypes="cscsss"
       transform="matrix(-0.787052,0.000000,0.000000,0.762697,616.0369,72.77836)" />
    <path
       style="font-size:12;fill:#ffd700;fill-rule:evenodd;stroke:#000000;stroke-width:0.625;stroke-linejoin:round;stroke-opacity:0.386617;"
       d="M 343.168 258.061 C 339.191 268.471 343.547 273.419 341.601 279.025 C 339.727 284.423 331.576 297.801 337.78 303.614 C 342.711 303.842 336.928 296.238 346.792 282.159 C 351.367 275.564 345.596 271.39 350.417 258.452 C 350.866 257.345 343.795 256.421 343.168 258.061 z "
       id="path606"
       sodipodi:nodetypes="cscsss"
       transform="matrix(0.562557,-0.533404,0.550437,0.545148,16.58356,309.5135)" />
    <path
       style="font-size:12;fill:#ffd700;fill-rule:evenodd;stroke:#000000;stroke-width:0.625;stroke-linejoin:round;stroke-opacity:0.386617;"
       d="M 343.168 258.061 C 339.191 268.471 343.547 273.419 341.601 279.025 C 339.727 284.423 331.576 297.801 337.78 303.614 C 342.711 303.842 336.928 296.238 346.792 282.159 C 351.367 275.564 345.596 271.39 350.417 258.452 C 350.866 257.345 343.795 256.421 343.168 258.061 z "
       id="path608"
       sodipodi:nodetypes="cscsss"
       transform="matrix(-0.550737,0.544863,0.562262,0.533694,408.4120,-69.79595)" />
    <path
       style="font-size:12;fill:#ffd700;fill-rule:evenodd;stroke:#000000;stroke-width:0.625;stroke-linejoin:round;stroke-opacity:0.386617;"
       d="M 343.168 258.061 C 339.191 268.471 343.547 273.419 341.601 279.025 C 339.727 284.423 331.576 297.801 337.78 303.614 C 342.711 303.842 336.928 296.238 346.792 282.159 C 351.367 275.564 345.596 271.39 350.417 258.452 C 350.866 257.345 343.795 256.421 343.168 258.061 z "
       id="path610"
       sodipodi:nodetypes="cscsss"
       transform="matrix(4.530566e-3,-0.762684,0.787039,4.390367e-3,162.1313,509.6946)" />
    <path
       style="font-size:12;fill:#ffd700;fill-rule:evenodd;stroke:#000000;stroke-width:0.625;stroke-linejoin:round;stroke-opacity:0.386617;"
       d="M 342.972 258.159 C 341.444 269.842 342.352 305.736 346.009 304.3 C 350.058 305.605 350.592 269.137 350.221 258.354 C 350.169 257.16 343.185 256.416 342.972 258.159 z "
       id="path611"
       sodipodi:nodetypes="ccss"
       transform="matrix(0.721993,-0.303638,0.313334,0.699651,17.30402,192.4451)" />
    <path
       style="font-size:12;fill:#ffd700;fill-rule:evenodd;stroke:#000000;stroke-width:0.625;stroke-linejoin:round;stroke-opacity:0.386617;"
       d="M 342.972 258.159 C 341.444 269.842 342.352 305.736 346.009 304.3 C 350.058 305.605 350.592 269.137 350.221 258.354 C 350.169 257.16 343.185 256.416 342.972 258.159 z "
       id="path614"
       sodipodi:nodetypes="ccss"
       transform="matrix(0.560648,-0.535288,0.552382,0.543299,21.69000,306.3963)" />
    <path
       style="font-size:12;fill:#ffd700;fill-rule:evenodd;stroke:#000000;stroke-width:0.625;stroke-linejoin:round;stroke-opacity:0.386617;"
       d="M 342.972 258.159 C 341.444 269.842 342.352 305.736 346.009 304.3 C 350.058 305.605 350.592 269.137 350.221 258.354 C 350.169 257.16 343.185 256.416 342.972 258.159 z "
       id="path615"
       sodipodi:nodetypes="ccss"
       transform="matrix(0.307533,-0.702063,0.724482,0.298016,71.77930,417.7447)" />
    <path
       style="font-size:12;fill:#ffd700;fill-rule:evenodd;stroke:#000000;stroke-width:0.625;stroke-linejoin:round;stroke-opacity:0.148699;fill-opacity:1;"
       d="M 343.168 258.061 C 339.191 268.471 343.547 273.419 341.601 279.025 C 339.727 284.423 331.576 297.801 337.78 303.614 C 342.711 303.842 336.928 296.238 346.792 282.159 C 351.367 275.564 345.596 271.39 350.417 258.452 C 350.866 257.345 343.795 256.421 343.168 258.061 z "
       id="path631"
       sodipodi:nodetypes="cscsss"
       transform="matrix(0.562557,-0.533404,0.550437,0.545148,16.58356,309.5135)" />
    <path
       style="font-size:12;fill:#ffd700;fill-rule:evenodd;stroke:#000000;stroke-width:0.625;stroke-linejoin:round;stroke-opacity:0.148699;fill-opacity:1;"
       d="M 343.168 258.061 C 339.191 268.471 343.547 273.419 341.601 279.025 C 339.727 284.423 331.576 297.801 337.78 303.614 C 342.711 303.842 336.928 296.238 346.792 282.159 C 351.367 275.564 345.596 271.39 350.417 258.452 C 350.866 257.345 343.795 256.421 343.168 258.061 z "
       id="path633"
       sodipodi:nodetypes="cscsss"
       transform="matrix(-0.550737,0.544863,0.562262,0.533694,408.4120,-69.79595)" />
    <path
       style="font-size:12;fill:#ffd700;fill-rule:evenodd;stroke:#000000;stroke-width:0.625;stroke-linejoin:round;stroke-opacity:0.148699;fill-opacity:1;"
       d="M 343.168 258.061 C 339.191 268.471 343.547 273.419 341.601 279.025 C 339.727 284.423 331.576 297.801 337.78 303.614 C 342.711 303.842 336.928 296.238 346.792 282.159 C 351.367 275.564 345.596 271.39 350.417 258.452 C 350.866 257.345 343.795 256.421 343.168 258.061 z "
       id="path635"
       sodipodi:nodetypes="cscsss"
       transform="matrix(4.530566e-3,-0.762684,0.787039,4.390367e-3,162.1313,509.6946)" />
    <path
       style="font-size:12;fill:#ffd700;fill-rule:evenodd;stroke:#000000;stroke-width:0.625;stroke-linejoin:round;stroke-opacity:0.148699;fill-opacity:1;"
       d="M 342.972 258.159 C 341.444 269.842 342.352 305.736 346.009 304.3 C 350.058 305.605 350.592 269.137 350.221 258.354 C 350.169 257.16 343.185 256.416 342.972 258.159 z "
       id="path636"
       sodipodi:nodetypes="ccss"
       transform="matrix(0.721993,-0.303638,0.313334,0.699651,17.30402,192.4451)" />
    <path
       style="font-size:12;fill:#ffd700;fill-rule:evenodd;stroke:#000000;stroke-width:0.625;stroke-linejoin:round;stroke-opacity:0.148699;fill-opacity:1;"
       d="M 342.972 258.159 C 341.444 269.842 342.352 305.736 346.009 304.3 C 350.058 305.605 350.592 269.137 350.221 258.354 C 350.169 257.16 343.185 256.416 342.972 258.159 z "
       id="path639"
       sodipodi:nodetypes="ccss"
       transform="matrix(0.560648,-0.535288,0.552382,0.543299,21.69000,306.3963)" />
    <path
       style="font-size:12;fill:#ffd700;fill-rule:evenodd;stroke:#000000;stroke-width:0.625;stroke-linejoin:round;stroke-opacity:0.148699;fill-opacity:1;"
       d="M 342.972 258.159 C 341.444 269.842 342.352 305.736 346.009 304.3 C 350.058 305.605 350.592 269.137 350.221 258.354 C 350.169 257.16 343.185 256.416 342.972 258.159 z "
       id="path640"
       sodipodi:nodetypes="ccss"
       transform="matrix(0.307533,-0.702063,0.724482,0.298016,71.77930,417.7447)" />
    <path
       style="font-size:12;fill:#ffd700;fill-rule:evenodd;stroke:#000000;stroke-width:0.625;stroke-linejoin:round;stroke-opacity:0.386617;"
       d="M 342.972 258.159 C 341.444 269.842 342.352 305.736 346.009 304.3 C 350.058 305.605 350.592 269.137 350.221 258.354 C 350.169 257.16 343.185 256.416 342.972 258.159 z "
       id="path686"
       sodipodi:nodetypes="ccss"
       transform="matrix(2.409573e-16,0.762697,-0.787052,2.335008e-16,509.3544,-23.96523)" />
    <path
       style="font-size:12;fill:#ffd700;fill-rule:evenodd;stroke:#000000;stroke-width:0.625;stroke-linejoin:round;stroke-opacity:0.386617;"
       d="M 343.168 258.061 C 339.191 268.471 343.547 273.419 341.601 279.025 C 339.727 284.423 331.576 297.801 337.78 303.614 C 342.711 303.842 336.928 296.238 346.792 282.159 C 351.367 275.564 345.596 271.39 350.417 258.452 C 350.866 257.345 343.795 256.421 343.168 258.061 z "
       id="path687"
       sodipodi:nodetypes="cscsss"
       transform="matrix(0.787052,-9.340032e-17,-9.638290e-17,-0.762697,57.38025,407.6624)" />
    <path
       style="font-size:12;fill:#ffd700;fill-rule:evenodd;stroke:#000000;stroke-width:0.625;stroke-linejoin:round;stroke-opacity:0.386617;"
       d="M 343.168 258.061 C 339.191 268.471 343.547 273.419 341.601 279.025 C 339.727 284.423 331.576 297.801 337.78 303.614 C 342.711 303.842 336.928 296.238 346.792 282.159 C 351.367 275.564 345.596 271.39 350.417 258.452 C 350.866 257.345 343.795 256.421 343.168 258.061 z "
       id="path688"
       sodipodi:nodetypes="cscsss"
       transform="matrix(-0.562557,0.533404,-0.550437,-0.545148,656.8336,170.9273)" />
    <path
       style="font-size:12;fill:#ffd700;fill-rule:evenodd;stroke:#000000;stroke-width:0.625;stroke-linejoin:round;stroke-opacity:0.386617;"
       d="M 343.168 258.061 C 339.191 268.471 343.547 273.419 341.601 279.025 C 339.727 284.423 331.576 297.801 337.78 303.614 C 342.711 303.842 336.928 296.238 346.792 282.159 C 351.367 275.564 345.596 271.39 350.417 258.452 C 350.866 257.345 343.795 256.421 343.168 258.061 z "
       id="path689"
       sodipodi:nodetypes="cscsss"
       transform="matrix(0.550737,-0.544863,-0.562262,-0.533694,265.0051,550.2367)" />
    <path
       style="font-size:12;fill:#ffd700;fill-rule:evenodd;stroke:#000000;stroke-width:0.625;stroke-linejoin:round;stroke-opacity:0.386617;"
       d="M 343.168 258.061 C 339.191 268.471 343.547 273.419 341.601 279.025 C 339.727 284.423 331.576 297.801 337.78 303.614 C 342.711 303.842 336.928 296.238 346.792 282.159 C 351.367 275.564 345.596 271.39 350.417 258.452 C 350.866 257.345 343.795 256.421 343.168 258.061 z "
       id="path690"
       sodipodi:nodetypes="cscsss"
       transform="matrix(-4.530566e-3,0.762684,-0.787039,-4.390367e-3,511.2858,-29.25388)" />
    <path
       style="font-size:12;fill:#ffd700;fill-rule:evenodd;stroke:#000000;stroke-width:0.625;stroke-linejoin:round;stroke-opacity:0.386617;"
       d="M 342.972 258.159 C 341.444 269.842 342.352 305.736 346.009 304.3 C 350.058 305.605 350.592 269.137 350.221 258.354 C 350.169 257.16 343.185 256.416 342.972 258.159 z "
       id="path691"
       sodipodi:nodetypes="ccss"
       transform="matrix(-0.721993,0.303638,-0.313334,-0.699651,656.1130,287.9957)" />
    <path
       style="font-size:12;fill:#ffd700;fill-rule:evenodd;stroke:#000000;stroke-width:0.625;stroke-linejoin:round;stroke-opacity:0.386617;"
       d="M 342.972 258.159 C 341.444 269.842 342.352 305.736 346.009 304.3 C 350.058 305.605 350.592 269.137 350.221 258.354 C 350.169 257.16 343.185 256.416 342.972 258.159 z "
       id="path692"
       sodipodi:nodetypes="ccss"
       transform="matrix(-0.560648,0.535288,-0.552382,-0.543299,651.7272,174.0444)" />
    <path
       style="font-size:12;fill:#ffd700;fill-rule:evenodd;stroke:#000000;stroke-width:0.625;stroke-linejoin:round;stroke-opacity:0.386617;"
       d="M 342.972 258.159 C 341.444 269.842 342.352 305.736 346.009 304.3 C 350.058 305.605 350.592 269.137 350.221 258.354 C 350.169 257.16 343.185 256.416 342.972 258.159 z "
       id="path693"
       sodipodi:nodetypes="ccss"
       transform="matrix(-0.307533,0.702063,-0.724482,-0.298016,601.6378,62.69608)" />
    <path
       style="font-size:12;fill:#ffd700;fill-rule:evenodd;stroke:#000000;stroke-width:0.625;stroke-linejoin:round;stroke-opacity:0.148699;fill-opacity:1;"
       d="M 343.168 258.061 C 339.191 268.471 343.547 273.419 341.601 279.025 C 339.727 284.423 331.576 297.801 337.78 303.614 C 342.711 303.842 336.928 296.238 346.792 282.159 C 351.367 275.564 345.596 271.39 350.417 258.452 C 350.866 257.345 343.795 256.421 343.168 258.061 z "
       id="path694"
       sodipodi:nodetypes="cscsss"
       transform="matrix(-0.562557,0.533404,-0.550437,-0.545148,656.8336,170.9273)" />
    <path
       style="font-size:12;fill:#ffd700;fill-rule:evenodd;stroke:#000000;stroke-width:0.625;stroke-linejoin:round;stroke-opacity:0.148699;fill-opacity:1;"
       d="M 343.168 258.061 C 339.191 268.471 343.547 273.419 341.601 279.025 C 339.727 284.423 331.576 297.801 337.78 303.614 C 342.711 303.842 336.928 296.238 346.792 282.159 C 351.367 275.564 345.596 271.39 350.417 258.452 C 350.866 257.345 343.795 256.421 343.168 258.061 z "
       id="path695"
       sodipodi:nodetypes="cscsss"
       transform="matrix(0.550737,-0.544863,-0.562262,-0.533694,265.0051,550.2367)" />
    <path
       style="font-size:12;fill:#ffd700;fill-rule:evenodd;stroke:#000000;stroke-width:0.625;stroke-linejoin:round;stroke-opacity:0.148699;fill-opacity:1;"
       d="M 343.168 258.061 C 339.191 268.471 343.547 273.419 341.601 279.025 C 339.727 284.423 331.576 297.801 337.78 303.614 C 342.711 303.842 336.928 296.238 346.792 282.159 C 351.367 275.564 345.596 271.39 350.417 258.452 C 350.866 257.345 343.795 256.421 343.168 258.061 z "
       id="path696"
       sodipodi:nodetypes="cscsss"
       transform="matrix(-4.530566e-3,0.762684,-0.787039,-4.390367e-3,511.2858,-29.25388)" />
    <path
       style="font-size:12;fill:#ffd700;fill-rule:evenodd;stroke:#000000;stroke-width:0.625;stroke-linejoin:round;stroke-opacity:0.148699;fill-opacity:1;"
       d="M 342.972 258.159 C 341.444 269.842 342.352 305.736 346.009 304.3 C 350.058 305.605 350.592 269.137 350.221 258.354 C 350.169 257.16 343.185 256.416 342.972 258.159 z "
       id="path697"
       sodipodi:nodetypes="ccss"
       transform="matrix(-0.721993,0.303638,-0.313334,-0.699651,656.1130,287.9957)" />
    <path
       style="font-size:12;fill:#ffd700;fill-rule:evenodd;stroke:#000000;stroke-width:0.625;stroke-linejoin:round;stroke-opacity:0.148699;fill-opacity:1;"
       d="M 342.972 258.159 C 341.444 269.842 342.352 305.736 346.009 304.3 C 350.058 305.605 350.592 269.137 350.221 258.354 C 350.169 257.16 343.185 256.416 342.972 258.159 z "
       id="path698"
       sodipodi:nodetypes="ccss"
       transform="matrix(-0.560648,0.535288,-0.552382,-0.543299,651.7272,174.0444)" />
    <path
       style="font-size:12;fill:#ffd700;fill-rule:evenodd;stroke:#000000;stroke-width:0.625;stroke-linejoin:round;stroke-opacity:0.148699;fill-opacity:1;"
       d="M 342.972 258.159 C 341.444 269.842 342.352 305.736 346.009 304.3 C 350.058 305.605 350.592 269.137 350.221 258.354 C 350.169 257.16 343.185 256.416 342.972 258.159 z "
       id="path699"
       sodipodi:nodetypes="ccss"
       transform="matrix(-0.307533,0.702063,-0.724482,-0.298016,601.6378,62.69608)" />
    <path
       style="font-size:12;fill:#ffd700;fill-rule:evenodd;stroke:#000000;stroke-width:0.625;stroke-linejoin:round;stroke-opacity:0.386617;"
       d="M 342.972 258.159 C 341.444 269.842 342.352 305.736 346.009 304.3 C 350.058 305.605 350.592 269.137 350.221 258.354 C 350.169 257.16 343.185 256.416 342.972 258.159 z "
       id="path701"
       sodipodi:nodetypes="ccss"
       transform="matrix(-0.787052,2.802010e-16,-2.891487e-16,-0.762697,609.1270,407.5237)" />
    <path
       style="font-size:12;fill:#ffd700;fill-rule:evenodd;stroke:#000000;stroke-width:0.625;stroke-linejoin:round;stroke-opacity:0.386617;"
       d="M 343.168 258.061 C 339.191 268.471 343.547 273.419 341.601 279.025 C 339.727 284.423 331.576 297.801 337.78 303.614 C 342.711 303.842 336.928 296.238 346.792 282.159 C 351.367 275.564 345.596 271.39 350.417 258.452 C 350.866 257.345 343.795 256.421 343.168 258.061 z "
       id="path702"
       sodipodi:nodetypes="cscsss"
       transform="matrix(1.445744e-16,0.762697,0.787052,-1.401005e-16,163.7160,-30.46410)" />
    <path
       style="font-size:12;fill:#ffd700;fill-rule:evenodd;stroke:#000000;stroke-width:0.625;stroke-linejoin:round;stroke-opacity:0.386617;"
       d="M 343.168 258.061 C 339.191 268.471 343.547 273.419 341.601 279.025 C 339.727 284.423 331.576 297.801 337.78 303.614 C 342.711 303.842 336.928 296.238 346.792 282.159 C 351.367 275.564 345.596 271.39 350.417 258.452 C 350.866 257.345 343.795 256.421 343.168 258.061 z "
       id="path703"
       sodipodi:nodetypes="cscsss"
       transform="matrix(-0.550437,-0.545148,0.562557,-0.533404,408.0109,550.4390)" />
    <path
       style="font-size:12;fill:#ffd700;fill-rule:evenodd;stroke:#000000;stroke-width:0.625;stroke-linejoin:round;stroke-opacity:0.386617;"
       d="M 343.168 258.061 C 339.191 268.471 343.547 273.419 341.601 279.025 C 339.727 284.423 331.576 297.801 337.78 303.614 C 342.711 303.842 336.928 296.238 346.792 282.159 C 351.367 275.564 345.596 271.39 350.417 258.452 C 350.866 257.345 343.795 256.421 343.168 258.061 z "
       id="path704"
       sodipodi:nodetypes="cscsss"
       transform="matrix(0.562262,0.533694,0.550737,-0.544863,16.58880,170.7358)" />
    <path
       style="font-size:12;fill:#ffd700;fill-rule:evenodd;stroke:#000000;stroke-width:0.625;stroke-linejoin:round;stroke-opacity:0.386617;"
       d="M 343.168 258.061 C 339.191 268.471 343.547 273.419 341.601 279.025 C 339.727 284.423 331.576 297.801 337.78 303.614 C 342.711 303.842 336.928 296.238 346.792 282.159 C 351.367 275.564 345.596 271.39 350.417 258.452 C 350.866 257.345 343.795 256.421 343.168 258.061 z "
       id="path705"
       sodipodi:nodetypes="cscsss"
       transform="matrix(-0.787039,-4.390367e-3,4.530566e-3,-0.762684,614.5845,409.3953)" />
    <path
       style="font-size:12;fill:#ffd700;fill-rule:evenodd;stroke:#000000;stroke-width:0.625;stroke-linejoin:round;stroke-opacity:0.386617;"
       d="M 342.972 258.159 C 341.444 269.842 342.352 305.736 346.009 304.3 C 350.058 305.605 350.592 269.137 350.221 258.354 C 350.169 257.16 343.185 256.416 342.972 258.159 z "
       id="path706"
       sodipodi:nodetypes="ccss"
       transform="matrix(-0.313334,-0.699651,0.721993,-0.303638,287.2041,549.7408)" />
    <path
       style="font-size:12;fill:#ffd700;fill-rule:evenodd;stroke:#000000;stroke-width:0.625;stroke-linejoin:round;stroke-opacity:0.386617;"
       d="M 342.972 258.159 C 341.444 269.842 342.352 305.736 346.009 304.3 C 350.058 305.605 350.592 269.137 350.221 258.354 C 350.169 257.16 343.185 256.416 342.972 258.159 z "
       id="path707"
       sodipodi:nodetypes="ccss"
       transform="matrix(-0.552382,-0.543299,0.560648,-0.535288,404.7942,545.4906)" />
    <path
       style="font-size:12;fill:#ffd700;fill-rule:evenodd;stroke:#000000;stroke-width:0.625;stroke-linejoin:round;stroke-opacity:0.386617;"
       d="M 342.972 258.159 C 341.444 269.842 342.352 305.736 346.009 304.3 C 350.058 305.605 350.592 269.137 350.221 258.354 C 350.169 257.16 343.185 256.416 342.972 258.159 z "
       id="path708"
       sodipodi:nodetypes="ccss"
       transform="matrix(-0.724482,-0.298016,0.307533,-0.702063,519.6982,496.9513)" />
    <path
       style="font-size:12;fill:#ffd700;fill-rule:evenodd;stroke:#000000;stroke-width:0.625;stroke-linejoin:round;stroke-opacity:0.148699;fill-opacity:1;"
       d="M 343.168 258.061 C 339.191 268.471 343.547 273.419 341.601 279.025 C 339.727 284.423 331.576 297.801 337.78 303.614 C 342.711 303.842 336.928 296.238 346.792 282.159 C 351.367 275.564 345.596 271.39 350.417 258.452 C 350.866 257.345 343.795 256.421 343.168 258.061 z "
       id="path709"
       sodipodi:nodetypes="cscsss"
       transform="matrix(-0.550437,-0.545148,0.562557,-0.533404,408.0109,550.4390)" />
    <path
       style="font-size:12;fill:#ffd700;fill-rule:evenodd;stroke:#000000;stroke-width:0.625;stroke-linejoin:round;stroke-opacity:0.148699;fill-opacity:1;"
       d="M 343.168 258.061 C 339.191 268.471 343.547 273.419 341.601 279.025 C 339.727 284.423 331.576 297.801 337.78 303.614 C 342.711 303.842 336.928 296.238 346.792 282.159 C 351.367 275.564 345.596 271.39 350.417 258.452 C 350.866 257.345 343.795 256.421 343.168 258.061 z "
       id="path710"
       sodipodi:nodetypes="cscsss"
       transform="matrix(0.562262,0.533694,0.550737,-0.544863,16.58880,170.7358)" />
    <path
       style="font-size:12;fill:#ffd700;fill-rule:evenodd;stroke:#000000;stroke-width:0.625;stroke-linejoin:round;stroke-opacity:0.148699;fill-opacity:1;"
       d="M 343.168 258.061 C 339.191 268.471 343.547 273.419 341.601 279.025 C 339.727 284.423 331.576 297.801 337.78 303.614 C 342.711 303.842 336.928 296.238 346.792 282.159 C 351.367 275.564 345.596 271.39 350.417 258.452 C 350.866 257.345 343.795 256.421 343.168 258.061 z "
       id="path711"
       sodipodi:nodetypes="cscsss"
       transform="matrix(-0.787039,-4.390367e-3,4.530566e-3,-0.762684,614.5845,409.3953)" />
    <path
       style="font-size:12;fill:#ffd700;fill-rule:evenodd;stroke:#000000;stroke-width:0.625;stroke-linejoin:round;stroke-opacity:0.148699;fill-opacity:1;"
       d="M 342.972 258.159 C 341.444 269.842 342.352 305.736 346.009 304.3 C 350.058 305.605 350.592 269.137 350.221 258.354 C 350.169 257.16 343.185 256.416 342.972 258.159 z "
       id="path712"
       sodipodi:nodetypes="ccss"
       transform="matrix(-0.313334,-0.699651,0.721993,-0.303638,287.2041,549.7408)" />
    <path
       style="font-size:12;fill:#ffd700;fill-rule:evenodd;stroke:#000000;stroke-width:0.625;stroke-linejoin:round;stroke-opacity:0.148699;fill-opacity:1;"
       d="M 342.972 258.159 C 341.444 269.842 342.352 305.736 346.009 304.3 C 350.058 305.605 350.592 269.137 350.221 258.354 C 350.169 257.16 343.185 256.416 342.972 258.159 z "
       id="path713"
       sodipodi:nodetypes="ccss"
       transform="matrix(-0.552382,-0.543299,0.560648,-0.535288,404.7942,545.4906)" />
    <path
       style="font-size:12;fill:#ffd700;fill-rule:evenodd;stroke:#000000;stroke-width:0.625;stroke-linejoin:round;stroke-opacity:0.148699;fill-opacity:1;"
       d="M 342.972 258.159 C 341.444 269.842 342.352 305.736 346.009 304.3 C 350.058 305.605 350.592 269.137 350.221 258.354 C 350.169 257.16 343.185 256.416 342.972 258.159 z "
       id="path714"
       sodipodi:nodetypes="ccss"
       transform="matrix(-0.724482,-0.298016,0.307533,-0.702063,519.6982,496.9513)" />
    <path
       style="font-size:12;fill:none;fill-rule:evenodd;stroke:#000000;stroke-width:1pt;stroke-opacity:0.0780669;"
       d="M 105.479 235.291 C nan nan nan nan 105.479 235.291 "
       id="path555"
       transform="matrix(0.787052,0.000000,0.000000,0.762697,57.86480,72.97554)" />
    <path
       style="font-size:12;fill:none;fill-rule:evenodd;stroke:#000000;stroke-width:1pt;stroke-opacity:0.171004;"
       d="M 328.139 202.554 L 324.988 202.554 "
       id="path577"
       transform="matrix(0.787052,0.000000,0.000000,0.762697,57.86480,72.97554)" />
    <path
       style="font-size:12;fill:none;fill-rule:evenodd;stroke:#000000;stroke-width:1pt;stroke-opacity:0.171004;"
       d="M 328.139 202.554 L 324.988 202.554 "
       id="path578"
       transform="matrix(0.787052,0.000000,0.000000,0.762697,57.24482,74.52042)" />
    <path
       style="font-size:12;fill:none;fill-rule:evenodd;stroke:#000000;stroke-width:1pt;stroke-opacity:0.171004;"
       d="M 328.139 202.554 L 324.988 202.554 "
       id="path579"
       transform="matrix(0.871379,0.000000,0.000000,0.762697,29.30848,75.97946)" />
    <path
       style="font-size:12;fill:none;fill-rule:evenodd;stroke:#000000;stroke-width:1pt;stroke-opacity:0.171004;"
       d="M 328.139 202.554 L 324.988 202.554 "
       id="path580"
       transform="matrix(0.871369,0.000000,0.000000,0.762697,28.51446,77.35264)" />
    <path
       style="font-size:12;fill:none;fill-rule:evenodd;stroke:#000000;stroke-width:1pt;stroke-opacity:0.171004;"
       d="M 328.139 202.554 L 324.988 202.554 "
       id="path581"
       transform="matrix(1.040021,0.000000,0.000000,0.762697,-27.00382,78.81168)" />
    <path
       style="font-size:12;fill:none;fill-rule:evenodd;stroke:#000000;stroke-width:1pt;stroke-opacity:0.171004;"
       d="M 328.139 202.554 L 324.988 202.554 "
       id="path582"
       transform="matrix(1.152445,0.000000,0.000000,0.762697,-63.80577,80.27073)" />
    <path
       style="font-size:12;fill:none;fill-rule:evenodd;stroke:#000000;stroke-width:1pt;stroke-opacity:0.171004;"
       d="M 328.139 202.554 L 324.988 202.554 "
       id="path583"
       transform="matrix(1.096228,0.000000,0.000000,0.762697,-45.89025,81.90144)" />
    <path
       style="font-size:12;fill:none;fill-rule:evenodd;stroke:#000000;stroke-width:1pt;stroke-opacity:0.171004;"
       d="M 328.139 202.554 L 324.988 202.554 "
       id="path584"
       transform="matrix(1.068118,0.000000,0.000000,0.762697,-36.48930,83.53210)" />
    <path
       style="font-size:12;fill:none;fill-rule:evenodd;stroke:#000000;stroke-width:1pt;stroke-opacity:0.171004;"
       d="M 328.139 202.554 L 324.988 202.554 "
       id="path585"
       transform="matrix(1.096228,0.000000,0.000000,0.762697,-45.71309,85.07698)" />
    <path
       style="font-size:12;fill:none;fill-rule:evenodd;stroke:#000000;stroke-width:1pt;stroke-opacity:0.171004;"
       d="M 328.139 202.554 L 324.988 202.554 "
       id="path586"
       transform="matrix(1.377301,0.000000,0.000000,0.762697,-137.0587,86.87931)" />
    <path
       style="font-size:12;fill:none;fill-rule:evenodd;stroke:#000000;stroke-width:1pt;stroke-opacity:0.171004;"
       d="M 328.139 202.554 L 324.988 202.554 "
       id="path587"
       transform="matrix(1.180543,0.000000,0.000000,0.762697,-72.84875,88.93921)" />
    <path
       style="font-size:12;fill:none;fill-rule:evenodd;stroke:#000000;stroke-width:1pt;stroke-opacity:0.0780669;"
       d="M 328.139 202.554 L 324.988 202.554 "
       id="path588"
       transform="matrix(1.180543,0.000000,0.000000,0.762697,-72.76022,90.39825)" />
    <path
       style="font-size:12;fill:none;fill-rule:evenodd;stroke:#000000;stroke-width:1pt;stroke-opacity:0.0780669;"
       d="M 328.139 202.554 L 324.988 202.554 "
       id="path589"
       transform="matrix(1.180543,0.000000,0.000000,0.762697,-72.14024,92.37228)" />
    <path
       style="font-size:12;fill:none;fill-rule:evenodd;stroke:#000000;stroke-width:1pt;stroke-opacity:0.0780669;"
       d="M 328.139 202.554 L 324.988 202.554 "
       id="path590"
       transform="matrix(1.180543,0.000000,0.000000,0.762697,-72.05170,94.08886)" />
    <path
       style="font-size:12;fill:none;fill-rule:evenodd;stroke:#000000;stroke-width:1pt;stroke-opacity:0.0780669;"
       d="M 328.139 202.554 L 324.988 202.554 "
       id="path591"
       transform="matrix(1.180543,0.000000,0.000000,0.762697,-70.98888,95.97702)" />
    <path
       style="font-size:12;fill:none;fill-rule:evenodd;stroke:#000000;stroke-width:1pt;stroke-opacity:0.0780669;"
       d="M 328.139 202.554 L 324.988 202.554 "
       id="path592"
       transform="matrix(1.180543,0.000000,0.000000,0.762697,-69.92605,97.52190)" />
    <path
       style="font-size:12;fill:none;fill-rule:evenodd;stroke:#000000;stroke-width:1pt;stroke-opacity:0.0780669;"
       d="M 328.139 202.554 L 324.988 202.554 "
       id="path593"
       transform="matrix(1.180543,0.000000,0.000000,0.762697,-68.95182,99.32423)" />
    <path
       style="font-size:12;fill:none;fill-rule:evenodd;stroke:#000000;stroke-width:1pt;stroke-opacity:0.0780669;"
       d="M 328.139 202.554 L 324.988 202.554 "
       id="path594"
       transform="matrix(1.180543,0.000000,0.000000,0.762697,-67.80045,101.0408)" />
    <path
       style="font-size:12;fill:none;fill-rule:evenodd;stroke:#000000;stroke-width:1pt;stroke-opacity:0.0780669;"
       d="M 328.139 202.554 L 324.988 202.554 "
       id="path595"
       transform="matrix(1.180543,0.000000,0.000000,0.762697,-67.00333,102.6715)" />
    <path
       style="font-size:12;fill:none;fill-rule:evenodd;stroke:#000000;stroke-width:1pt;stroke-opacity:0.0780669;"
       d="M 328.139 202.554 L 324.988 202.554 "
       id="path596"
       transform="matrix(1.180543,0.000000,0.000000,0.762697,-65.32052,104.6455)" />
    <path
       style="font-size:12;fill:none;fill-rule:evenodd;stroke:#000000;stroke-width:1pt;stroke-opacity:0.0780669;"
       d="M 328.139 202.554 L 324.988 202.554 "
       id="path597"
       transform="matrix(0.758923,0.000000,0.000000,0.762697,73.73789,106.4478)" />
    <path
       style="font-size:12;fill:none;fill-rule:evenodd;stroke:#000000;stroke-width:1pt;stroke-opacity:0.0780669;"
       d="M 328.139 202.554 L 324.988 202.554 "
       id="path620"
       transform="matrix(1.180543,0.000000,0.000000,0.762697,-72.76022,90.39825)" />
    <path
       style="font-size:12;fill:none;fill-rule:evenodd;stroke:#000000;stroke-width:1pt;stroke-opacity:0.0780669;"
       d="M 328.139 202.554 L 324.988 202.554 "
       id="path621"
       transform="matrix(1.180543,0.000000,0.000000,0.762697,-72.14024,92.37228)" />
    <path
       style="font-size:12;fill:none;fill-rule:evenodd;stroke:#000000;stroke-width:1pt;stroke-opacity:0.0780669;"
       d="M 328.139 202.554 L 324.988 202.554 "
       id="path622"
       transform="matrix(1.180543,0.000000,0.000000,0.762697,-72.05170,94.08886)" />
    <path
       style="font-size:12;fill:none;fill-rule:evenodd;stroke:#000000;stroke-width:1pt;stroke-opacity:0.0780669;"
       d="M 328.139 202.554 L 324.988 202.554 "
       id="path623"
       transform="matrix(1.180543,0.000000,0.000000,0.762697,-70.98888,95.97702)" />
    <path
       style="font-size:12;fill:none;fill-rule:evenodd;stroke:#000000;stroke-width:1pt;stroke-opacity:0.0780669;"
       d="M 328.139 202.554 L 324.988 202.554 "
       id="path624"
       transform="matrix(1.180543,0.000000,0.000000,0.762697,-69.92605,97.52190)" />
    <path
       style="font-size:12;fill:none;fill-rule:evenodd;stroke:#000000;stroke-width:1pt;stroke-opacity:0.0780669;"
       d="M 328.139 202.554 L 324.988 202.554 "
       id="path625"
       transform="matrix(1.180543,0.000000,0.000000,0.762697,-68.95182,99.32423)" />
    <path
       style="font-size:12;fill:none;fill-rule:evenodd;stroke:#000000;stroke-width:1pt;stroke-opacity:0.0780669;"
       d="M 328.139 202.554 L 324.988 202.554 "
       id="path626"
       transform="matrix(1.180543,0.000000,0.000000,0.762697,-67.80045,101.0408)" />
    <path
       style="font-size:12;fill:none;fill-rule:evenodd;stroke:#000000;stroke-width:1pt;stroke-opacity:0.0780669;"
       d="M 328.139 202.554 L 324.988 202.554 "
       id="path627"
       transform="matrix(1.180543,0.000000,0.000000,0.762697,-67.00333,102.6715)" />
    <path
       style="font-size:12;fill:none;fill-rule:evenodd;stroke:#000000;stroke-width:1pt;stroke-opacity:0.0780669;"
       d="M 328.139 202.554 L 324.988 202.554 "
       id="path628"
       transform="matrix(1.180543,0.000000,0.000000,0.762697,-65.32052,104.6455)" />
    <path
       style="font-size:12;fill:none;fill-rule:evenodd;stroke:#000000;stroke-width:1pt;stroke-opacity:0.0780669;"
       d="M 328.139 202.554 L 324.988 202.554 "
       id="path629"
       transform="matrix(0.758923,0.000000,0.000000,0.762697,74.12340,106.2984)" />
    <path
       style="font-size:12;fill:#00699d;fill-opacity:0.866667;fill-rule:evenodd;stroke:#000000;stroke-width:1pt;stroke-opacity:0.0780669;"
       d="M 105.479 235.291 C nan nan nan nan 105.479 235.291 "
       id="path749"
       transform="matrix(-0.787052,0.000000,0.000000,0.762697,615.4379,72.58121)" />
    <path
       style="font-size:12;fill:#00699d;fill-opacity:0.866667;fill-rule:evenodd;stroke:#000000;stroke-width:1pt;stroke-opacity:0.133829;"
       d="M 328.139 202.554 L 324.988 202.554 "
       id="path750"
       transform="matrix(-0.787052,0.000000,0.000000,0.762697,615.4379,72.58121)" />
    <path
       style="font-size:12;fill:#00699d;fill-opacity:0.866667;fill-rule:evenodd;stroke:#000000;stroke-width:1pt;stroke-opacity:0.133829;"
       d="M 328.139 202.554 L 324.988 202.554 "
       id="path751"
       transform="matrix(-0.787052,0.000000,0.000000,0.762697,616.0579,74.12605)" />
    <path
       style="font-size:12;fill:#00699d;fill-opacity:0.866667;fill-rule:evenodd;stroke:#000000;stroke-width:1pt;stroke-opacity:0.133829;"
       d="M 328.139 202.554 L 324.988 202.554 "
       id="path752"
       transform="matrix(-0.871379,0.000000,0.000000,0.762697,643.9943,75.58510)" />
    <path
       style="font-size:12;fill:#00699d;fill-opacity:0.866667;fill-rule:evenodd;stroke:#000000;stroke-width:1pt;stroke-opacity:0.133829;"
       d="M 328.139 202.554 L 324.988 202.554 "
       id="path753"
       transform="matrix(-0.871369,0.000000,0.000000,0.762697,644.7883,76.95831)" />
    <path
       style="font-size:12;fill:#00699d;fill-opacity:0.866667;fill-rule:evenodd;stroke:#000000;stroke-width:1pt;stroke-opacity:0.133829;"
       d="M 328.139 202.554 L 324.988 202.554 "
       id="path754"
       transform="matrix(-1.040021,0.000000,0.000000,0.762697,700.3065,78.41736)" />
    <path
       style="font-size:12;fill:#00699d;fill-opacity:0.866667;fill-rule:evenodd;stroke:#000000;stroke-width:1pt;stroke-opacity:0.133829;"
       d="M 328.139 202.554 L 324.988 202.554 "
       id="path755"
       transform="matrix(-1.152445,0.000000,0.000000,0.762697,737.1085,79.87637)" />
    <path
       style="font-size:12;fill:#00699d;fill-opacity:0.866667;fill-rule:evenodd;stroke:#000000;stroke-width:1pt;stroke-opacity:0.133829;"
       d="M 328.139 202.554 L 324.988 202.554 "
       id="path756"
       transform="matrix(-1.096228,0.000000,0.000000,0.762697,719.1930,81.50707)" />
    <path
       style="font-size:12;fill:#00699d;fill-opacity:0.866667;fill-rule:evenodd;stroke:#000000;stroke-width:1pt;stroke-opacity:0.133829;"
       d="M 328.139 202.554 L 324.988 202.554 "
       id="path757"
       transform="matrix(-1.068118,0.000000,0.000000,0.762697,709.7919,83.13778)" />
    <path
       style="font-size:12;fill:#00699d;fill-opacity:0.866667;fill-rule:evenodd;stroke:#000000;stroke-width:1pt;stroke-opacity:0.133829;"
       d="M 328.139 202.554 L 324.988 202.554 "
       id="path758"
       transform="matrix(-1.096228,0.000000,0.000000,0.762697,719.0158,84.68262)" />
    <path
       style="font-size:12;fill:#00699d;fill-opacity:0.866667;fill-rule:evenodd;stroke:#000000;stroke-width:1pt;stroke-opacity:0.133829;"
       d="M 328.139 202.554 L 324.988 202.554 "
       id="path759"
       transform="matrix(-1.377301,0.000000,0.000000,0.762697,810.3614,86.48499)" />
    <path
       style="font-size:12;fill:#00699d;fill-opacity:0.866667;fill-rule:evenodd;stroke:#000000;stroke-width:1pt;stroke-opacity:0.133829;"
       d="M 328.139 202.554 L 324.988 202.554 "
       id="path760"
       transform="matrix(-1.180543,0.000000,0.000000,0.762697,746.1515,88.54488)" />
    <path
       style="font-size:12;fill:#00699d;fill-opacity:0.866667;fill-rule:evenodd;stroke:#000000;stroke-width:1pt;stroke-opacity:0.063197;"
       d="M 328.139 202.554 L 324.988 202.554 "
       id="path761"
       transform="matrix(-1.180543,0.000000,0.000000,0.762697,746.0630,90.00393)" />
    <path
       style="font-size:12;fill:#00699d;fill-opacity:0.866667;fill-rule:evenodd;stroke:#000000;stroke-width:1pt;stroke-opacity:0.063197;"
       d="M 328.139 202.554 L 324.988 202.554 "
       id="path762"
       transform="matrix(-1.180543,0.000000,0.000000,0.762697,745.4430,91.97792)" />
    <path
       style="font-size:12;fill:#00699d;fill-opacity:0.866667;fill-rule:evenodd;stroke:#000000;stroke-width:1pt;stroke-opacity:0.063197;"
       d="M 328.139 202.554 L 324.988 202.554 "
       id="path763"
       transform="matrix(-1.180543,0.000000,0.000000,0.762697,745.3544,93.69450)" />
    <path
       style="font-size:12;fill:#00699d;fill-opacity:0.866667;fill-rule:evenodd;stroke:#000000;stroke-width:1pt;stroke-opacity:0.063197;"
       d="M 328.139 202.554 L 324.988 202.554 "
       id="path764"
       transform="matrix(-1.180543,0.000000,0.000000,0.762697,744.2915,95.58270)" />
    <path
       style="font-size:12;fill:#00699d;fill-opacity:0.866667;fill-rule:evenodd;stroke:#000000;stroke-width:1pt;stroke-opacity:0.063197;"
       d="M 328.139 202.554 L 324.988 202.554 "
       id="path765"
       transform="matrix(-1.180543,0.000000,0.000000,0.762697,743.2288,97.12753)" />
    <path
       style="font-size:12;fill:#00699d;fill-opacity:0.866667;fill-rule:evenodd;stroke:#000000;stroke-width:1pt;stroke-opacity:0.063197;"
       d="M 328.139 202.554 L 324.988 202.554 "
       id="path766"
       transform="matrix(-1.180543,0.000000,0.000000,0.762697,742.2546,98.92990)" />
    <path
       style="font-size:12;fill:#00699d;fill-opacity:0.866667;fill-rule:evenodd;stroke:#000000;stroke-width:1pt;stroke-opacity:0.063197;"
       d="M 328.139 202.554 L 324.988 202.554 "
       id="path767"
       transform="matrix(-1.180543,0.000000,0.000000,0.762697,741.1032,100.6464)" />
    <path
       style="font-size:12;fill:#00699d;fill-opacity:0.866667;fill-rule:evenodd;stroke:#000000;stroke-width:1pt;stroke-opacity:0.063197;"
       d="M 328.139 202.554 L 324.988 202.554 "
       id="path768"
       transform="matrix(-1.180543,0.000000,0.000000,0.762697,740.3060,102.2771)" />
    <path
       style="font-size:12;fill:#00699d;fill-opacity:0.866667;fill-rule:evenodd;stroke:#000000;stroke-width:1pt;stroke-opacity:0.063197;"
       d="M 328.139 202.554 L 324.988 202.554 "
       id="path769"
       transform="matrix(-1.180543,0.000000,0.000000,0.762697,738.6233,104.2511)" />
    <path
       style="font-size:12;fill:#00699d;fill-opacity:0.866667;fill-rule:evenodd;stroke:#000000;stroke-width:1pt;stroke-opacity:0.063197;"
       d="M 328.139 202.554 L 324.988 202.554 "
       id="path770"
       transform="matrix(-0.758923,0.000000,0.000000,0.762697,599.5648,106.0535)" />
    <path
       style="font-size:12;fill:none;fill-opacity:0.866667;fill-rule:evenodd;stroke:#000000;stroke-width:1pt;stroke-opacity:0.063197;"
       d="M 328.139 202.554 L 324.988 202.554 "
       id="path771"
       transform="matrix(-1.180543,0.000000,0.000000,0.762697,746.0630,90.00393)" />
    <path
       style="font-size:12;fill:none;fill-opacity:0.866667;fill-rule:evenodd;stroke:#000000;stroke-width:1pt;stroke-opacity:0.063197;"
       d="M 328.139 202.554 L 324.988 202.554 "
       id="path772"
       transform="matrix(-1.180543,0.000000,0.000000,0.762697,745.4430,91.97792)" />
    <path
       style="font-size:12;fill:none;fill-opacity:0.866667;fill-rule:evenodd;stroke:#000000;stroke-width:1pt;stroke-opacity:0.063197;"
       d="M 328.139 202.554 L 324.988 202.554 "
       id="path773"
       transform="matrix(-1.180543,0.000000,0.000000,0.762697,745.3544,93.69450)" />
    <path
       style="font-size:12;fill:none;fill-opacity:0.866667;fill-rule:evenodd;stroke:#000000;stroke-width:1pt;stroke-opacity:0.063197;"
       d="M 328.139 202.554 L 324.988 202.554 "
       id="path774"
       transform="matrix(-1.180543,0.000000,0.000000,0.762697,744.2915,95.58270)" />
    <path
       style="font-size:12;fill:none;fill-opacity:0.866667;fill-rule:evenodd;stroke:#000000;stroke-width:1pt;stroke-opacity:0.063197;"
       d="M 328.139 202.554 L 324.988 202.554 "
       id="path775"
       transform="matrix(-1.180543,0.000000,0.000000,0.762697,743.2288,97.12753)" />
    <path
       style="font-size:12;fill:none;fill-opacity:0.866667;fill-rule:evenodd;stroke:#000000;stroke-width:1pt;stroke-opacity:0.063197;"
       d="M 328.139 202.554 L 324.988 202.554 "
       id="path776"
       transform="matrix(-1.180543,0.000000,0.000000,0.762697,742.2546,98.92990)" />
    <path
       style="font-size:12;fill:none;fill-opacity:0.866667;fill-rule:evenodd;stroke:#000000;stroke-width:1pt;stroke-opacity:0.063197;"
       d="M 328.139 202.554 L 324.988 202.554 "
       id="path777"
       transform="matrix(-1.180543,0.000000,0.000000,0.762697,741.1032,100.6464)" />
    <path
       style="font-size:12;fill:none;fill-opacity:0.866667;fill-rule:evenodd;stroke:#000000;stroke-width:1pt;stroke-opacity:0.063197;"
       d="M 328.139 202.554 L 324.988 202.554 "
       id="path778"
       transform="matrix(-1.180543,0.000000,0.000000,0.762697,740.3060,102.2771)" />
    <path
       style="font-size:12;fill:none;fill-opacity:0.866667;fill-rule:evenodd;stroke:#000000;stroke-width:1pt;stroke-opacity:0.063197;"
       d="M 328.139 202.554 L 324.988 202.554 "
       id="path779"
       transform="matrix(-1.180543,0.000000,0.000000,0.762697,738.6233,104.2511)" />
    <path
       style="font-size:12;fill:none;fill-opacity:0.866667;fill-rule:evenodd;stroke:#000000;stroke-width:1pt;stroke-opacity:0.063197;"
       d="M 328.139 202.554 L 324.988 202.554 "
       id="path780"
       transform="matrix(-0.758923,0.000000,0.000000,0.762697,599.5648,106.0535)" />
    <path
       style="fill:#f0bf00;fill-rule:evenodd;stroke:#000000;stroke-opacity:0.386617;stroke-width:0.625;stroke-linejoin:round;stroke-linecap:butt;fill-opacity:1;stroke-dasharray:none;"
       d="M 330.837 211.826 C 338.362 206.996 348.301 209.516 352.466 212.141 C 346.376 210.986 346.271 210.461 341.861 210.356 C 338.746 210.462 334.162 210.146 330.837 211.826 z "
       id="path781"
       sodipodi:nodetypes="cccc"
       transform="matrix(-0.787052,0.000000,0.000000,0.762697,615.8043,72.18681)" />
    <path
       style="fill:none;fill-rule:evenodd;stroke:#000000;stroke-opacity:0.386617;stroke-width:0.625;stroke-linejoin:miter;stroke-linecap:butt;fill-opacity:1;stroke-dasharray:none;"
       d="M 348.056 211.301 C 344.381 218.966 337.977 219.071 333.462 210.881 "
       id="path782"
       sodipodi:nodetypes="cc"
       transform="matrix(0.787052,0.000000,0.000000,0.762697,78.00887,71.98959)" />
    <path
       sodipodi:type="arc"
       style="fill-rule:evenodd;stroke:none;fill:#000000;fill-opacity:0.36803;stroke-opacity:0.37;stroke-width:1pt;stroke-linejoin:miter;stroke-linecap:butt;"
       id="path783"
       d="M 345.536316 212.876129 A 3.674805 1.679909 0 1 0 338.186707,212.876129 A 3.6748 1.67991 0 1 0 345.536 212.876 L 341.861511 212.876129 z"
       sodipodi:cx="341.861511"
       sodipodi:cy="212.876129"
       sodipodi:rx="3.674805"
       sodipodi:ry="1.679909"
       transform="matrix(0.881145,0.118138,-0.954787,0.968016,249.1766,-11.90186)" />
    <path
       sodipodi:type="arc"
       style="fill-rule:evenodd;stroke:none;fill:#ffd700;fill-opacity:1;stroke-opacity:0.386617;stroke-width:1pt;stroke-linejoin:miter;stroke-linecap:butt;"
       id="path784"
       d="M 344.066376 212.561157 A 0.734970 0.419975 0 1 0 342.596466,212.561157 A 0.73497 0.419975 0 1 0 344.066 212.561 L 343.331421 212.561157 z"
       sodipodi:cx="343.331421"
       sodipodi:cy="212.561157"
       sodipodi:rx="0.734970"
       sodipodi:ry="0.419975"
       transform="matrix(1.047637,-0.342831,0.381378,0.941748,-95.36562,151.5193)" />
  </g>
</svg>
