<?xml version="1.0" encoding="UTF-8" standalone="no"?>
<!DOCTYPE svg PUBLIC "-//W3C//DTD SVG 20010904//EN"
"http://www.w3.org/TR/2001/REC-SVG-20010904/DTD/svg10.dtd"
[
 <!ATTLIST svg
  xmlns:xlink CDATA #FIXED "http://www.w3.org/1999/xlink">
]>
<!-- Created with Sodipodi ("http://www.sodipodi.com/") -->
<svg
   xmlns="http://www.w3.org/2000/svg"
   xmlns:xlink="http://www.w3.org/1999/xlink"
   version="1"
   x="0.00000000"
   y="0.00000000"
   width="1000.00000"
   height="500.000000"
   id="svg1">
  <defs
     id="defs3" />
  <g
     transform="scale(8.333333,8.333333)"
     style="font-size:12;"
     id="g602">
    <rect
       width="120.000000"
       height="60.0000000"
       x="0.00000000"
       y="0.00000000"
       style="fill:#000066;stroke-width:1pt;"
       id="rect124" />
    <g
       id="g584">
      <path
         d="M 0 0 L 0 3.3541 L 53.2918 30 L 60 30 L 60 26.6459 L 6.7082 0 L 0 0 z M 60 0 L 60 3.35405 L 6.7082 30 L 0 30 L 0 26.6458 L 53.2918 0 L 60 0 z "
         style="fill:#ffffff;stroke-width:1pt;"
         id="path146" />
      <path
         d="M 25 0 L 25 30 L 35 30 L 35 0 L 25 0 z M 0 10 L 0 20 L 60 20 L 60 10 L 0 10 z "
         style="fill:#ffffff;stroke-width:1pt;"
         id="path136" />
      <path
         d="M 0 12 L 0 18 L 60 18 L 60 12 L 0 12 z M 27 0 L 27 30 L 33 30 L 33 0 L 27 0 z "
         style="fill:#cc0000;stroke-width:1pt;"
         id="path141" />
      <path
         d="M 0 30 L 20 20 L 24.4721 20 L 4.47214 30 L 0 30 z M 0 0 L 20 10 L 15.5279 10 L 0 2.23607 L 0 0 z M 35.5279 10 L 55.5279 0 L 60 0 L 40 10 L 35.5279 10 z M 60 30 L 40 20 L 44.4721 20 L 60 27.7639 L 60 30 z "
         style="fill:#cc0000;stroke-width:1pt;"
         id="path150" />
    </g>
    <polygon
       points="30,36 31.7355,41.3961 37.0365,39.3886 33.8997,44.1099 38.7744,47.0027 33.1273,47.494 33.905,53.1087 30,49 26.095,53.1087 26.8727,47.494 21.2256,47.0027 26.1003,44.1099 22.9635,39.3886 28.2645,41.3961 30,36 "
       style="fill:#ffffff;fill-rule:evenodd;stroke-width:1pt;"
       id="polygon589" />
    <g
       id="g596">
      <polygon
         points="90,45.7143 90.8264,48.2839 93.3507,47.3279 91.857,49.5761 94.1783,50.9537 91.4892,51.1876 91.8595,53.8613 90,51.9048 88.1405,53.8613 88.5108,51.1876 85.8217,50.9537 88.143,49.5761 86.6493,47.3279 89.1736,48.2839 90,45.7143 "
         style="fill:#ffffff;fill-rule:evenodd;stroke-width:1pt;"
         id="polygon590" />
      <polygon
         points="90,5.71429 90.8264,8.28387 93.3507,7.3279 91.857,9.57615 94.1783,10.9537 91.4892,11.1876 91.8595,13.8613 90,11.9048 88.1405,13.8613 88.5108,11.1876 85.8217,10.9537 88.143,9.57615 86.6493,7.3279 89.1736,8.28387 90,5.71429 "
         style="fill:#ffffff;fill-rule:evenodd;stroke-width:1pt;"
         id="polygon592" />
      <polygon
         points="75,21.9643 75.8264,24.5339 78.3507,23.5779 76.857,25.8262 79.1783,27.2037 76.4892,27.4376 76.8595,30.1113 75,28.1548 73.1405,30.1113 73.5108,27.4376 70.8217,27.2037 73.143,25.8262 71.6493,23.5779 74.1736,24.5339 75,21.9643 "
         style="fill:#ffffff;fill-rule:evenodd;stroke-width:1pt;"
         id="polygon593" />
      <polygon
         points="103.333,17.9643 104.16,20.5339 106.684,19.5779 105.19,21.8262 107.512,23.2037 104.823,23.4376 105.193,26.1113 103.333,24.1548 101.474,26.1113 101.844,23.4376 99.1551,23.2037 101.476,21.8262 99.9826,19.5779 102.507,20.5339 103.333,17.9643 "
         style="fill:#ffffff;fill-rule:evenodd;stroke-width:1pt;"
         id="polygon594" />
      <polygon
         points="96,30 96.6531,31.6011 98.3776,31.7275 97.0567,32.8434 97.4695,34.5225 96,33.6111 94.5305,34.5225 94.9433,32.8434 93.6224,31.7275 95.3469,31.6011 96,30 "
         style="fill:#ffffff;fill-rule:evenodd;stroke-width:1pt;"
         id="polygon595" />
    </g>
  </g>
</svg>
