<?xml version="1.0" encoding="UTF-8" standalone="no"?>
<!DOCTYPE svg PUBLIC "-//W3C//DTD SVG 20010904//EN"
"http://www.w3.org/TR/2001/REC-SVG-20010904/DTD/svg10.dtd">
<!-- Created with Sodipodi ("http://www.sodipodi.com/") -->
<svg
   version="1"
   x="0"
   y="0"
   width="299.999mm"
   height="210mm"
   id="svg378"
   sodipodi:version="0.33pre"
   sodipodi:docname="/home/yemu/clipart/flags/brazil.svg"
   sodipodi:docbase="/home/yemu/clipart/flags/"
   xmlns="http://www.w3.org/2000/svg"
   xmlns:sodipodi="http://sodipodi.sourceforge.net/DTD/sodipodi-0.dtd"
   xmlns:xlink="http://www.w3.org/1999/xlink">
  <sodipodi:namedview
     id="base" />
  <defs
     id="defs380" />
  <g
     id="g918">
    <rect
       style="font-size:12;fill:#229e45;fill-rule:evenodd;stroke-width:1pt;"
       id="rect552"
       width="428.988800"
       height="299.119110"
       x="0.837879"
       y="311.686127"
       sodipodi:fill-cmyk="(0.78 0 0.56 0.38)"
       transform="matrix(2.477902,0.000000,0.000000,2.487619,-2.076182,-775.3562)" />
    <path
       style="font-size:12;fill:#f8e509;fill-rule:evenodd;stroke-width:1pt;"
       d="M 215.334 577.919 L 395.565 461.402 L 214.247 344.572 L 33.4235 461.682 L 215.334 577.919 z "
       id="path554"
       sodipodi:nodetypes="ccccc"
       sodipodi:fill-cmyk="(0 0.0775862 0.96 0.03)"
       transform="matrix(2.477902,0.000000,0.000000,2.487619,-2.076182,-775.3562)" />
    <path
       sodipodi:type="arc"
       style="font-size:12;fill:#2b49a3;fill-rule:evenodd;stroke-width:1pt;"
       id="path557"
       d="M 293.254211 149.977112 A 76.874496 75.827141 0 1 0 139.505219,149.977112 A 76.8745 75.8271 0 1 0 293.254 149.977 L 216.379715 149.977112 z"
       sodipodi:cx="216.379715"
       sodipodi:cy="149.977112"
       sodipodi:rx="76.874496"
       sodipodi:ry="75.827141"
       transform="matrix(2.457648,0.000000,0.000000,2.487619,5.377944,-1.039262)"
       sodipodi:fill-cmyk="(0.732759 0.551724 0 0.36)" />
    <polygon
       sodipodi:type="star"
       style="font-size:12;fill:#ffffef;fill-rule:evenodd;stroke-width:1pt;"
       id="polygon559"
       sodipodi:sides="5"
       sodipodi:cx="226.024658"
       sodipodi:cy="103.976868"
       sodipodi:r1="4.47793055"
       sodipodi:r2="2.23896527"
       sodipodi:arg1="0.97362250"
       sodipodi:arg2="1.60194099"
       points="228.543,107.68 225.955,106.215 223.281,107.516 223.875,104.602 221.811,102.461 224.766,102.125 226.164,99.5011 227.396,102.207 230.324,102.726 228.131,104.735 228.543,107.68 "
       transform="matrix(2.262349,0.000000,0.000000,2.307406,-41.99098,236.5721)" />
    <polygon
       sodipodi:type="star"
       style="font-size:12;fill:#ffffef;fill-rule:evenodd;stroke-width:1pt;"
       id="polygon560"
       sodipodi:sides="5"
       sodipodi:cx="226.024658"
       sodipodi:cy="103.976868"
       sodipodi:r1="4.47793055"
       sodipodi:r2="2.23896527"
       sodipodi:arg1="0.97362250"
       sodipodi:arg2="1.60194099"
       points="228.543,107.68 225.955,106.215 223.281,107.516 223.875,104.602 221.811,102.461 224.766,102.125 226.164,99.5011 227.396,102.207 230.324,102.726 228.131,104.735 228.543,107.68 "
       transform="matrix(2.262349,0.000000,0.000000,2.307406,84.62537,268.6251)" />
    <polygon
       sodipodi:type="star"
       style="font-size:12;fill:#ffffef;fill-rule:evenodd;stroke-width:1pt;"
       id="polygon561"
       sodipodi:sides="5"
       sodipodi:cx="226.024658"
       sodipodi:cy="103.976868"
       sodipodi:r1="4.47793055"
       sodipodi:r2="2.23896527"
       sodipodi:arg1="0.97362250"
       sodipodi:arg2="1.60194099"
       points="228.543,107.68 225.955,106.215 223.281,107.516 223.875,104.602 221.811,102.461 224.766,102.125 226.164,99.5011 227.396,102.207 230.324,102.726 228.131,104.735 228.543,107.68 "
       transform="matrix(1.954463,0.000000,0.000000,1.993391,100.4329,251.2351)" />
    <polygon
       sodipodi:type="star"
       style="font-size:12;fill:#ffffef;fill-rule:evenodd;stroke-width:1pt;"
       id="polygon562"
       sodipodi:sides="5"
       sodipodi:cx="226.024658"
       sodipodi:cy="103.976868"
       sodipodi:r1="4.47793055"
       sodipodi:r2="2.23896527"
       sodipodi:arg1="0.97362250"
       sodipodi:arg2="1.60194099"
       points="228.543,107.68 225.955,106.215 223.281,107.516 223.875,104.602 221.811,102.461 224.766,102.125 226.164,99.5011 227.396,102.207 230.324,102.726 228.131,104.735 228.543,107.68 "
       transform="matrix(1.918934,0.000000,0.000000,1.957144,236.4090,236.7154)" />
    <polygon
       sodipodi:type="star"
       style="font-size:12;fill:#ffffef;fill-rule:evenodd;stroke-width:1pt;"
       id="polygon563"
       sodipodi:sides="5"
       sodipodi:cx="226.024658"
       sodipodi:cy="103.976868"
       sodipodi:r1="4.47793055"
       sodipodi:r2="2.23896527"
       sodipodi:arg1="0.97362250"
       sodipodi:arg2="1.60194099"
       points="228.543,107.68 225.955,106.215 223.281,107.516 223.875,104.602 221.811,102.461 224.766,102.125 226.164,99.5011 227.396,102.207 230.324,102.726 228.131,104.735 228.543,107.68 "
       transform="matrix(2.262349,0.000000,0.000000,2.307406,27.74066,160.6687)" />
    <polygon
       sodipodi:type="star"
       style="font-size:12;fill:#ffffef;fill-rule:evenodd;stroke-width:1pt;"
       id="polygon564"
       sodipodi:sides="5"
       sodipodi:cx="226.024658"
       sodipodi:cy="103.976868"
       sodipodi:r1="4.47793055"
       sodipodi:r2="2.23896527"
       sodipodi:arg1="0.97362250"
       sodipodi:arg2="1.60194099"
       points="228.543,107.68 225.955,106.215 223.281,107.516 223.875,104.602 221.811,102.461 224.766,102.125 226.164,99.5011 227.396,102.207 230.324,102.726 228.131,104.735 228.543,107.68 "
       transform="matrix(2.262349,0.000000,0.000000,2.307406,-128.1514,102.1352)" />
    <polygon
       sodipodi:type="star"
       style="font-size:12;fill:#ffffef;fill-rule:evenodd;stroke-width:1pt;"
       id="polygon565"
       sodipodi:sides="5"
       sodipodi:cx="226.024658"
       sodipodi:cy="103.976868"
       sodipodi:r1="4.47793055"
       sodipodi:r2="2.23896527"
       sodipodi:arg1="0.97362250"
       sodipodi:arg2="1.60194099"
       points="228.543,107.68 225.955,106.215 223.281,107.516 223.875,104.602 221.811,102.461 224.766,102.125 226.164,99.5011 227.396,102.207 230.324,102.726 228.131,104.735 228.543,107.68 "
       transform="matrix(2.262349,0.000000,0.000000,2.307406,-109.4078,179.9878)" />
    <polygon
       sodipodi:type="star"
       style="font-size:12;fill:#ffffef;fill-rule:evenodd;stroke-width:1pt;"
       id="polygon566"
       sodipodi:sides="5"
       sodipodi:cx="226.024658"
       sodipodi:cy="103.976868"
       sodipodi:r1="4.47793055"
       sodipodi:r2="2.23896527"
       sodipodi:arg1="0.97362250"
       sodipodi:arg2="1.60194099"
       points="228.543,107.68 225.955,106.215 223.281,107.516 223.875,104.602 221.811,102.461 224.766,102.125 226.164,99.5011 227.396,102.207 230.324,102.726 228.131,104.735 228.543,107.68 "
       transform="matrix(1.998443,0.000000,0.000000,2.038245,145.4489,102.4571)" />
    <polygon
       sodipodi:type="star"
       style="font-size:12;fill:#ffffef;fill-rule:evenodd;stroke-width:1pt;"
       id="polygon567"
       sodipodi:sides="5"
       sodipodi:cx="226.024658"
       sodipodi:cy="103.976868"
       sodipodi:r1="4.47793055"
       sodipodi:r2="2.23896527"
       sodipodi:arg1="0.97362250"
       sodipodi:arg2="1.60194099"
       points="228.543,107.68 225.955,106.215 223.281,107.516 223.875,104.602 221.811,102.461 224.766,102.125 226.164,99.5011 227.396,102.207 230.324,102.726 228.131,104.735 228.543,107.68 "
       transform="matrix(1.573939,0.000000,0.000000,1.605280,231.7748,199.7295)" />
    <polygon
       sodipodi:type="star"
       style="font-size:12;fill:#ffffef;fill-rule:evenodd;stroke-width:1pt;"
       id="polygon568"
       sodipodi:sides="5"
       sodipodi:cx="226.024658"
       sodipodi:cy="103.976868"
       sodipodi:r1="4.47793055"
       sodipodi:r2="2.23896527"
       sodipodi:arg1="0.97362250"
       sodipodi:arg2="1.60194099"
       points="228.543,107.68 225.955,106.215 223.281,107.516 223.875,104.602 221.811,102.461 224.766,102.125 226.164,99.5011 227.396,102.207 230.324,102.726 228.131,104.735 228.543,107.68 "
       transform="matrix(1.510380,0.000000,0.000000,1.540468,35.00562,276.6743)" />
    <polygon
       sodipodi:type="star"
       style="font-size:12;fill:#ffffef;fill-rule:evenodd;stroke-width:1pt;"
       id="polygon569"
       sodipodi:sides="5"
       sodipodi:cx="226.024658"
       sodipodi:cy="103.976868"
       sodipodi:r1="4.47793055"
       sodipodi:r2="2.23896527"
       sodipodi:arg1="0.97362250"
       sodipodi:arg2="1.60194099"
       points="228.543,107.68 225.955,106.215 223.281,107.516 223.875,104.602 221.811,102.461 224.766,102.125 226.164,99.5011 227.396,102.207 230.324,102.726 228.131,104.735 228.543,107.68 "
       transform="matrix(1.230850,0.000000,0.000000,1.152496,394.7542,336.3928)" />
    <polygon
       sodipodi:type="star"
       style="font-size:12;fill:#ffffef;fill-rule:evenodd;stroke-width:1pt;"
       id="polygon570"
       sodipodi:sides="5"
       sodipodi:cx="226.024658"
       sodipodi:cy="103.976868"
       sodipodi:r1="4.47793055"
       sodipodi:r2="2.23896527"
       sodipodi:arg1="0.97362250"
       sodipodi:arg2="1.60194099"
       points="228.543,107.68 225.955,106.215 223.281,107.516 223.875,104.602 221.811,102.461 224.766,102.125 226.164,99.5011 227.396,102.207 230.324,102.726 228.131,104.735 228.543,107.68 "
       transform="matrix(1.510380,0.000000,0.000000,1.540468,35.00562,276.6743)" />
    <polygon
       sodipodi:type="star"
       style="font-size:12;fill:#ffffef;fill-rule:evenodd;stroke-width:1pt;"
       id="polygon571"
       sodipodi:sides="5"
       sodipodi:cx="226.024658"
       sodipodi:cy="103.976868"
       sodipodi:r1="4.47793055"
       sodipodi:r2="2.23896527"
       sodipodi:arg1="0.97362250"
       sodipodi:arg2="1.60194099"
       points="228.543,107.68 225.955,106.215 223.281,107.516 223.875,104.602 221.811,102.461 224.766,102.125 226.164,99.5011 227.396,102.207 230.324,102.726 228.131,104.735 228.543,107.68 "
       transform="matrix(1.510380,0.000000,0.000000,1.540468,35.00562,276.6743)" />
    <polygon
       sodipodi:type="star"
       style="font-size:12;fill:#ffffef;fill-rule:evenodd;stroke-width:1pt;"
       id="polygon572"
       sodipodi:sides="5"
       sodipodi:cx="226.024658"
       sodipodi:cy="103.976868"
       sodipodi:r1="4.47793055"
       sodipodi:r2="2.23896527"
       sodipodi:arg1="0.97362250"
       sodipodi:arg2="1.60194099"
       points="228.543,107.68 225.955,106.215 223.281,107.516 223.875,104.602 221.811,102.461 224.766,102.125 226.164,99.5011 227.396,102.207 230.324,102.726 228.131,104.735 228.543,107.68 "
       transform="matrix(1.510380,0.000000,0.000000,1.540468,97.04384,276.6725)" />
    <polygon
       sodipodi:type="star"
       style="font-size:12;fill:#ffffef;fill-rule:evenodd;stroke-width:1pt;"
       id="polygon573"
       sodipodi:sides="5"
       sodipodi:cx="226.024658"
       sodipodi:cy="103.976868"
       sodipodi:r1="4.47793055"
       sodipodi:r2="2.23896527"
       sodipodi:arg1="0.97362250"
       sodipodi:arg2="1.60194099"
       points="228.543,107.68 225.955,106.215 223.281,107.516 223.875,104.602 221.811,102.461 224.766,102.125 226.164,99.5011 227.396,102.207 230.324,102.726 228.131,104.735 228.543,107.68 "
       transform="matrix(1.510380,0.000000,0.000000,1.540468,89.33510,297.3093)" />
    <polygon
       sodipodi:type="star"
       style="font-size:12;fill:#ffffef;fill-rule:evenodd;stroke-width:1pt;"
       id="polygon574"
       sodipodi:sides="5"
       sodipodi:cx="226.024658"
       sodipodi:cy="103.976868"
       sodipodi:r1="4.47793055"
       sodipodi:r2="2.23896527"
       sodipodi:arg1="0.97362250"
       sodipodi:arg2="1.60194099"
       points="228.543,107.68 225.955,106.215 223.281,107.516 223.875,104.602 221.811,102.461 224.766,102.125 226.164,99.5011 227.396,102.207 230.324,102.726 228.131,104.735 228.543,107.68 "
       transform="matrix(1.510380,0.000000,0.000000,1.540468,218.1533,259.7316)" />
    <polygon
       sodipodi:type="star"
       style="font-size:12;fill:#ffffef;fill-rule:evenodd;stroke-width:1pt;"
       id="polygon575"
       sodipodi:sides="5"
       sodipodi:cx="226.024658"
       sodipodi:cy="103.976868"
       sodipodi:r1="4.47793055"
       sodipodi:r2="2.23896527"
       sodipodi:arg1="0.97362250"
       sodipodi:arg2="1.60194099"
       points="228.543,107.68 225.955,106.215 223.281,107.516 223.875,104.602 221.811,102.461 224.766,102.125 226.164,99.5011 227.396,102.207 230.324,102.726 228.131,104.735 228.543,107.68 "
       transform="matrix(1.510380,0.000000,0.000000,1.540468,180.3522,259.7219)" />
    <polygon
       sodipodi:type="star"
       style="font-size:12;fill:#ffffef;fill-rule:evenodd;stroke-width:1pt;"
       id="polygon576"
       sodipodi:sides="5"
       sodipodi:cx="226.024658"
       sodipodi:cy="103.976868"
       sodipodi:r1="4.47793055"
       sodipodi:r2="2.23896527"
       sodipodi:arg1="0.97362250"
       sodipodi:arg2="1.60194099"
       points="228.543,107.68 225.955,106.215 223.281,107.516 223.875,104.602 221.811,102.461 224.766,102.125 226.164,99.5011 227.396,102.207 230.324,102.726 228.131,104.735 228.543,107.68 "
       transform="matrix(0.946467,0.000000,0.000000,0.965321,206.7079,308.4822)" />
    <polygon
       sodipodi:type="star"
       style="font-size:12;fill:#ffffef;fill-rule:evenodd;stroke-width:1pt;"
       id="polygon577"
       sodipodi:sides="5"
       sodipodi:cx="226.024658"
       sodipodi:cy="103.976868"
       sodipodi:r1="4.47793055"
       sodipodi:r2="2.23896527"
       sodipodi:arg1="0.97362250"
       sodipodi:arg2="1.60194099"
       points="228.543,107.68 225.955,106.215 223.281,107.516 223.875,104.602 221.811,102.461 224.766,102.125 226.164,99.5011 227.396,102.207 230.324,102.726 228.131,104.735 228.543,107.68 "
       transform="matrix(1.510380,0.000000,0.000000,1.540468,326.0498,310.9410)" />
    <polygon
       sodipodi:type="star"
       style="font-size:12;fill:#ffffef;fill-rule:evenodd;stroke-width:1pt;"
       id="polygon578"
       sodipodi:sides="5"
       sodipodi:cx="226.024658"
       sodipodi:cy="103.976868"
       sodipodi:r1="4.47793055"
       sodipodi:r2="2.23896527"
       sodipodi:arg1="0.97362250"
       sodipodi:arg2="1.60194099"
       points="228.543,107.68 225.955,106.215 223.281,107.516 223.875,104.602 221.811,102.461 224.766,102.125 226.164,99.5011 227.396,102.207 230.324,102.726 228.131,104.735 228.543,107.68 "
       transform="matrix(1.251169,0.000000,0.000000,1.279313,353.8234,343.1900)" />
    <polygon
       sodipodi:type="star"
       style="font-size:12;fill:#ffffef;fill-rule:evenodd;stroke-width:1pt;"
       id="polygon579"
       sodipodi:sides="5"
       sodipodi:cx="226.024658"
       sodipodi:cy="103.976868"
       sodipodi:r1="4.47793055"
       sodipodi:r2="2.23896527"
       sodipodi:arg1="0.97362250"
       sodipodi:arg2="1.60194099"
       points="228.543,107.68 225.955,106.215 223.281,107.516 223.875,104.602 221.811,102.461 224.766,102.125 226.164,99.5011 227.396,102.207 230.324,102.726 228.131,104.735 228.543,107.68 "
       transform="matrix(1.165310,0.000000,0.000000,1.189602,388.2890,352.4909)" />
    <polygon
       sodipodi:type="star"
       style="font-size:12;fill:#ffffef;fill-rule:evenodd;stroke-width:1pt;"
       id="polygon580"
       sodipodi:sides="5"
       sodipodi:cx="226.024658"
       sodipodi:cy="103.976868"
       sodipodi:r1="4.47793055"
       sodipodi:r2="2.23896527"
       sodipodi:arg1="0.97362250"
       sodipodi:arg2="1.60194099"
       points="228.543,107.68 225.955,106.215 223.281,107.516 223.875,104.602 221.811,102.461 224.766,102.125 226.164,99.5011 227.396,102.207 230.324,102.726 228.131,104.735 228.543,107.68 "
       transform="matrix(1.122386,0.000000,0.000000,1.144745,440.7432,320.1027)" />
    <polygon
       sodipodi:type="star"
       style="font-size:12;fill:#ffffef;fill-rule:evenodd;stroke-width:1pt;"
       id="polygon581"
       sodipodi:sides="5"
       sodipodi:cx="226.024658"
       sodipodi:cy="103.976868"
       sodipodi:r1="4.47793055"
       sodipodi:r2="2.23896527"
       sodipodi:arg1="0.97362250"
       sodipodi:arg2="1.60194099"
       points="228.543,107.68 225.955,106.215 223.281,107.516 223.875,104.602 221.811,102.461 224.766,102.125 226.164,99.5011 227.396,102.207 230.324,102.726 228.131,104.735 228.543,107.68 "
       transform="matrix(1.465793,0.000000,0.000000,1.413880,304.3925,349.6951)" />
    <polygon
       sodipodi:type="star"
       style="font-size:12;fill:#ffffef;fill-rule:evenodd;stroke-width:1pt;"
       id="polygon582"
       sodipodi:sides="5"
       sodipodi:cx="226.024658"
       sodipodi:cy="103.976868"
       sodipodi:r1="4.47793055"
       sodipodi:r2="2.23896527"
       sodipodi:arg1="0.97362250"
       sodipodi:arg2="1.60194099"
       points="228.543,107.68 225.955,106.215 223.281,107.516 223.875,104.602 221.811,102.461 224.766,102.125 226.164,99.5011 227.396,102.207 230.324,102.726 228.131,104.735 228.543,107.68 "
       transform="matrix(1.337019,0.000000,0.000000,1.413880,334.0504,366.6455)" />
    <polygon
       sodipodi:type="star"
       style="font-size:12;fill:#ffffef;fill-rule:evenodd;stroke-width:1pt;"
       id="polygon583"
       sodipodi:sides="5"
       sodipodi:cx="226.024658"
       sodipodi:cy="103.976868"
       sodipodi:r1="4.47793055"
       sodipodi:r2="2.23896527"
       sodipodi:arg1="0.97362250"
       sodipodi:arg2="1.60194099"
       points="228.543,107.68 225.955,106.215 223.281,107.516 223.875,104.602 221.811,102.461 224.766,102.125 226.164,99.5011 227.396,102.207 230.324,102.726 228.131,104.735 228.543,107.68 "
       transform="matrix(1.122386,0.000000,0.000000,1.144745,354.5056,357.3149)" />
    <polygon
       sodipodi:type="star"
       style="font-size:12;fill:#ffffef;fill-rule:evenodd;stroke-width:1pt;"
       id="polygon584"
       sodipodi:sides="5"
       sodipodi:cx="226.024658"
       sodipodi:cy="103.976868"
       sodipodi:r1="4.47793055"
       sodipodi:r2="2.23896527"
       sodipodi:arg1="0.97362250"
       sodipodi:arg2="1.60194099"
       points="228.543,107.68 225.955,106.215 223.281,107.516 223.875,104.602 221.811,102.461 224.766,102.125 226.164,99.5011 227.396,102.207 230.324,102.726 228.131,104.735 228.543,107.68 "
       transform="matrix(1.122386,0.000000,0.000000,1.144745,327.7053,357.3164)" />
    <polygon
       sodipodi:type="star"
       style="font-size:12;fill:#ffffef;fill-rule:evenodd;stroke-width:1pt;"
       id="polygon585"
       sodipodi:sides="5"
       sodipodi:cx="226.024658"
       sodipodi:cy="103.976868"
       sodipodi:r1="4.47793055"
       sodipodi:r2="2.23896527"
       sodipodi:arg1="0.97362250"
       sodipodi:arg2="1.60194099"
       points="228.543,107.68 225.955,106.215 223.281,107.516 223.875,104.602 221.811,102.461 224.766,102.125 226.164,99.5011 227.396,102.207 230.324,102.726 228.131,104.735 228.543,107.68 "
       transform="matrix(1.122386,0.000000,0.000000,1.144745,282.2016,317.5232)" />
    <polygon
       sodipodi:type="star"
       style="font-size:12;fill:#ffffef;fill-rule:evenodd;stroke-width:1pt;"
       id="polygon586"
       sodipodi:sides="5"
       sodipodi:cx="226.024658"
       sodipodi:cy="103.976868"
       sodipodi:r1="4.47793055"
       sodipodi:r2="2.23896527"
       sodipodi:arg1="0.97362250"
       sodipodi:arg2="1.60194099"
       points="228.543,107.68 225.955,106.215 223.281,107.516 223.875,104.602 221.811,102.461 224.766,102.125 226.164,99.5011 227.396,102.207 230.324,102.726 228.131,104.735 228.543,107.68 "
       transform="matrix(0.950677,0.000000,0.000000,0.969614,326.5137,417.4829)" />
    <polygon
       sodipodi:type="star"
       style="font-size:12;fill:#ffffef;fill-rule:evenodd;stroke-width:1pt;"
       id="polygon587"
       sodipodi:sides="5"
       sodipodi:cx="226.024658"
       sodipodi:cy="103.976868"
       sodipodi:r1="4.47793055"
       sodipodi:r2="2.23896527"
       sodipodi:arg1="0.97362250"
       sodipodi:arg2="1.60194099"
       points="228.543,107.68 225.955,106.215 223.281,107.516 223.875,104.602 221.811,102.461 224.766,102.125 226.164,99.5011 227.396,102.207 230.324,102.726 228.131,104.735 228.543,107.68 "
       transform="matrix(2.262349,0.000000,0.000000,2.307406,-41.98947,142.2461)" />
    <path
       style="font-size:12;fill:#ffffff;fill-rule:evenodd;stroke-width:1pt;stroke-opacity:0.503145;"
       d="M 288.841 488.531 C 290.003 485.504 291.502 480.939 292.298 476.749 C 251.801 441.313 206.655 423.16 149.61 426.895 C 147.565 430.801 145.928 434.889 144.548 439.313 C 212.135 432.89 261.68 462.697 288.841 488.531 z "
       id="path726"
       sodipodi:nodetypes="ccccc"
       transform="matrix(2.477902,0.000000,0.000000,2.487619,-2.076182,-775.3562)" />
    <path
       style="font-size:12;font-weight:bold;fill:#309e3a;stroke-width:1pt;stroke-opacity:0.501961;font-family:Arial;"
       d="M 270.636 468.607 L 272.083 469.394 C 271.856 469.905 271.795 470.352 271.898 470.733 C 272.005 471.118 272.271 471.453 272.695 471.739 C 273.145 472.045 273.547 472.179 273.901 472.143 C 274.259 472.107 274.526 471.961 274.699 471.706 C 274.808 471.543 274.853 471.371 274.833 471.192 C 274.817 471.013 274.718 470.799 274.537 470.552 C 274.412 470.385 274.107 470.032 273.623 469.494 C 273.001 468.803 272.63 468.22 272.51 467.745 C 272.344 467.077 272.445 466.47 272.815 465.923 C 273.054 465.571 273.375 465.309 273.779 465.138 C 274.189 464.966 274.636 464.927 275.118 465.02 C 275.603 465.114 276.113 465.341 276.643 465.701 C 277.511 466.288 278.035 466.92 278.214 467.596 C 278.397 468.274 278.285 468.938 277.877 469.588 L 276.44 468.705 C 276.62 468.309 276.664 467.967 276.57 467.679 C 276.482 467.39 276.241 467.113 275.847 466.847 C 275.442 466.573 275.068 466.441 274.726 466.452 C 274.505 466.459 274.335 466.552 274.214 466.731 C 274.103 466.895 274.078 467.082 274.137 467.292 C 274.214 467.559 274.536 468.002 275.108 468.622 C 275.678 469.241 276.067 469.747 276.274 470.139 C 276.486 470.53 276.582 470.937 276.562 471.359 C 276.548 471.78 276.392 472.209 276.097 472.646 C 275.829 473.043 275.468 473.338 275.014 473.535 C 274.56 473.732 274.075 473.78 273.557 473.677 C 273.042 473.572 272.484 473.316 271.884 472.909 C 271.01 472.319 270.474 471.663 270.278 470.944 C 270.085 470.222 270.203 469.442 270.636 468.607 z "
       id="path790"
       transform="matrix(2.477902,0.000000,0.000000,2.487619,-2.076182,-775.3562)" />
    <path
       style="font-size:12;font-weight:bold;fill:#309e3a;stroke-width:1pt;stroke-opacity:0.501961;font-family:Arial;"
       d="M 263.775 464.119 L 265.253 464.846 C 265.047 465.365 265.004 465.815 265.122 466.191 C 265.246 466.571 265.523 466.896 265.959 467.165 C 266.422 467.452 266.828 467.57 267.18 467.52 C 267.538 467.469 267.799 467.314 267.96 467.052 C 268.064 466.885 268.101 466.711 268.074 466.533 C 268.051 466.354 267.943 466.144 267.751 465.904 C 267.62 465.742 267.303 465.403 266.796 464.884 C 266.147 464.218 265.753 463.65 265.614 463.181 C 265.421 462.52 265.498 461.91 265.844 461.348 C 266.07 460.987 266.38 460.713 266.776 460.526 C 267.18 460.338 267.625 460.28 268.11 460.353 C 268.599 460.429 269.117 460.635 269.661 460.973 C 270.553 461.524 271.101 462.135 271.307 462.803 C 271.517 463.474 271.432 464.141 271.052 464.807 L 269.579 463.982 C 269.743 463.58 269.774 463.237 269.668 462.953 C 269.568 462.667 269.316 462.4 268.913 462.15 C 268.496 461.892 268.117 461.776 267.777 461.801 C 267.556 461.816 267.39 461.917 267.276 462.101 C 267.173 462.269 267.154 462.455 267.222 462.663 C 267.309 462.927 267.649 463.357 268.245 463.954 C 268.839 464.549 269.249 465.039 269.471 465.422 C 269.699 465.804 269.811 466.207 269.808 466.629 C 269.812 467.051 269.672 467.485 269.396 467.935 C 269.144 468.34 268.793 468.651 268.349 468.867 C 267.903 469.082 267.419 469.149 266.898 469.067 C 266.381 468.983 265.813 468.748 265.196 468.367 C 264.3 467.811 263.738 467.178 263.513 466.467 C 263.289 465.753 263.376 464.97 263.775 464.119 z "
       id="path791"
       transform="matrix(2.477902,0.000000,0.000000,2.487619,-2.076182,-775.3562)" />
    <path
       style="font-size:12;font-weight:bold;fill:#309e3a;stroke-width:1pt;stroke-opacity:0.501961;font-family:Arial;"
       d="M 255.283 461.853 L 259.633 454.728 L 264.916 457.953 L 264.18 459.159 L 260.337 456.812 L 259.371 458.391 L 262.948 460.575 L 262.215 461.775 L 258.638 459.592 L 257.455 461.531 L 261.435 463.961 L 260.701 465.162 L 255.283 461.853 z "
       id="path792"
       transform="matrix(2.477902,0.000000,0.000000,2.487619,-2.076182,-775.3562)" />
    <path
       style="font-size:12;font-weight:bold;fill:#309e3a;stroke-width:1pt;stroke-opacity:0.501961;font-family:Arial;"
       d="M 242.916 451.735 L 243.561 450.484 L 246.79 452.149 L 245.268 455.104 C 244.796 455.246 244.203 455.28 243.485 455.205 C 242.774 455.128 242.113 454.933 241.502 454.618 C 240.726 454.218 240.133 453.709 239.723 453.087 C 239.315 452.462 239.12 451.774 239.141 451.02 C 239.164 450.262 239.358 449.528 239.725 448.816 C 240.122 448.043 240.64 447.441 241.274 447.006 C 241.905 446.573 242.618 446.357 243.407 446.357 C 244.01 446.355 244.665 446.539 245.374 446.902 C 246.296 447.378 246.915 447.942 247.23 448.596 C 247.552 449.249 247.611 449.954 247.408 450.713 L 245.777 450.224 C 245.86 449.806 245.811 449.417 245.628 449.059 C 245.451 448.698 245.146 448.407 244.715 448.184 C 244.059 447.846 243.432 447.785 242.829 448.002 C 242.231 448.218 241.722 448.734 241.302 449.551 C 240.847 450.432 240.701 451.194 240.865 451.838 C 241.031 452.477 241.43 452.961 242.066 453.289 C 242.379 453.45 242.724 453.551 243.1 453.591 C 243.482 453.63 243.83 453.62 244.148 453.561 L 244.633 452.619 L 242.916 451.735 z "
       id="path795"
       transform="matrix(2.477902,0.000000,0.000000,2.487619,-2.076182,-775.3562)" />
    <path
       style="font-size:12;font-weight:bold;fill:#309e3a;stroke-width:1pt;stroke-opacity:0.501961;font-family:Arial;"
       d="M 188.965 438.409 L 190.181 430.151 L 192.675 430.519 L 193.346 436.371 L 195.654 430.956 L 198.157 431.324 L 196.942 439.583 L 195.393 439.355 L 196.351 432.854 L 193.754 439.114 L 192.149 438.877 L 191.471 432.136 L 190.514 438.636 L 188.965 438.409 z "
       id="path804"
       transform="matrix(2.477902,0.000000,0.000000,2.487619,-2.076182,-775.3562)" />
    <path
       style="font-size:12;font-weight:bold;fill:#309e3a;stroke-width:1pt;stroke-opacity:0.501961;font-family:Arial;"
       d="M 180.532 437.434 L 181.312 429.121 L 187.474 429.701 L 187.344 431.107 L 182.859 430.686 L 182.685 432.529 L 186.857 432.92 L 186.726 434.321 L 182.553 433.929 L 182.342 436.191 L 186.983 436.626 L 186.853 438.028 L 180.532 437.434 z "
       id="path805"
       transform="matrix(2.477902,0.000000,0.000000,2.487619,-2.076182,-775.3562)" />
    <g
       id="g812"
       transform="matrix(2.030321,-1.299594,1.294518,2.038283,-138.1399,186.1633)"
       style="font-size:12;">
      <path
         style="font-size:12;font-weight:bold;fill:#309e3a;stroke-width:1pt;stroke-opacity:0.501961;font-family:Arial;"
         d="M 154.793 154.478 C 155.283 153.753 155.803 153.218 156.353 152.873 C 156.759 152.62 157.2 152.444 157.672 152.344 C 158.148 152.246 158.6 152.241 159.028 152.328 C 159.598 152.44 160.173 152.692 160.752 153.083 C 161.8 153.793 162.418 154.685 162.605 155.759 C 162.797 156.837 162.5 157.955 161.717 159.113 C 160.94 160.261 160.019 160.95 158.954 161.177 C 157.892 161.402 156.838 161.161 155.794 160.454 C 154.735 159.738 154.113 158.847 153.924 157.781 C 153.737 156.711 154.027 155.61 154.793 154.478 z "
         id="path810" />
      <path
         style="font-size:12;font-weight:bold;fill:#f7ffff;stroke-width:1pt;stroke-opacity:0.501961;font-family:Arial;fill-opacity:1;"
         d="M 156.306 155.431 C 155.761 156.236 155.533 156.974 155.623 157.643 C 155.714 158.309 156.047 158.836 156.62 159.223 C 157.192 159.61 157.801 159.722 158.444 159.559 C 159.093 159.394 159.696 158.899 160.255 158.074 C 160.806 157.259 161.038 156.529 160.951 155.885 C 160.866 155.243 160.528 154.722 159.936 154.321 C 159.344 153.921 158.729 153.802 158.09 153.964 C 157.454 154.123 156.859 154.612 156.306 155.431 z "
         id="path811" />
    </g>
    <g
       id="g815"
       transform="matrix(2.009958,-1.331112,1.325913,2.017839,-138.5289,194.4117)"
       style="font-size:12;">
      <path
         style="font-size:12;font-weight:bold;fill:#309e3a;stroke-width:1pt;stroke-opacity:0.501961;font-family:Arial;"
         d="M 160.442 163.422 L 165.256 156.307 L 168.279 158.353 C 169.04 158.868 169.548 159.305 169.803 159.667 C 170.064 160.027 170.187 160.441 170.173 160.908 C 170.159 161.375 170.01 161.818 169.725 162.239 C 169.364 162.773 168.908 163.108 168.358 163.245 C 167.81 163.379 167.193 163.28 166.507 162.948 C 166.695 163.339 166.817 163.712 166.87 164.064 C 166.928 164.418 166.94 164.988 166.909 165.774 L 166.839 167.749 L 165.121 166.587 L 165.13 164.336 C 165.136 163.534 165.118 163.015 165.079 162.781 C 165.041 162.543 164.964 162.347 164.847 162.192 C 164.732 162.035 164.51 161.844 164.179 161.621 L 163.889 161.424 L 161.879 164.394 L 160.442 163.422 z "
         id="path808" />
      <path
         style="font-size:12;font-weight:bold;fill:#ffffff;stroke-width:1pt;stroke-opacity:0.501961;font-family:Arial;fill-opacity:1;"
         d="M 164.657 160.288 L 165.72 161.007 C 166.409 161.474 166.859 161.736 167.07 161.794 C 167.281 161.851 167.483 161.842 167.676 161.765 C 167.869 161.688 168.038 161.543 168.183 161.33 C 168.345 161.09 168.411 160.854 168.379 160.621 C 168.354 160.387 168.238 160.171 168.031 159.975 C 167.925 159.88 167.581 159.635 166.999 159.241 L 165.878 158.483 L 164.657 160.288 z "
         id="path809" />
    </g>
    <g
       id="g818"
       transform="matrix(2.060093,-1.251481,1.246593,2.068172,-131.8419,173.3289)"
       style="font-size:12;">
      <path
         style="font-size:12;font-weight:bold;fill:#309e3a;stroke-width:1pt;stroke-opacity:0.501961;font-family:Arial;"
         d="M 172.424 161.157 L 175.05 162.933 C 175.642 163.334 176.062 163.684 176.311 163.985 C 176.645 164.39 176.855 164.851 176.94 165.366 C 177.026 165.881 176.992 166.419 176.839 166.981 C 176.687 167.539 176.387 168.151 175.936 168.817 C 175.54 169.403 175.125 169.858 174.693 170.184 C 174.164 170.581 173.628 170.828 173.08 170.925 C 172.668 171 172.203 170.961 171.687 170.81 C 171.302 170.696 170.844 170.459 170.313 170.1 L 167.611 168.272 L 172.424 161.157 z "
         id="path806" />
      <path
         style="font-size:12;font-weight:bold;fill:#ffffff;stroke-width:1pt;stroke-opacity:0.501961;font-family:Arial;fill-opacity:1;"
         d="M 173.046 163.332 L 169.858 168.045 L 170.931 168.77 C 171.331 169.042 171.637 169.215 171.845 169.29 C 172.117 169.389 172.377 169.421 172.623 169.385 C 172.873 169.351 173.153 169.208 173.464 168.956 C 173.778 168.702 174.121 168.3 174.493 167.75 C 174.865 167.2 175.102 166.744 175.205 166.384 C 175.307 166.024 175.326 165.703 175.263 165.419 C 175.2 165.136 175.054 164.875 174.825 164.635 C 174.655 164.454 174.277 164.165 173.691 163.769 L 173.046 163.332 z "
         id="path807" />
    </g>
    <g
       id="g824"
       transform="matrix(2.254291,-0.849572,0.846253,2.263131,-87.99839,66.93640)"
       style="font-size:12;">
      <path
         style="font-size:12;font-weight:bold;fill:#309e3a;stroke-width:1pt;stroke-opacity:0.501961;font-family:Arial;"
         d="M 200.752 190.693 L 205.565 183.578 L 207.871 185.138 C 208.744 185.729 209.29 186.15 209.507 186.401 C 209.842 186.783 210.026 187.247 210.058 187.792 C 210.092 188.334 209.917 188.888 209.534 189.454 C 209.239 189.891 208.912 190.205 208.551 190.395 C 208.192 190.586 207.831 190.683 207.469 190.689 C 207.112 190.693 206.789 190.637 206.499 190.521 C 206.111 190.357 205.591 190.055 204.941 189.615 L 204.005 188.981 L 202.189 191.665 L 200.752 190.693 z "
         id="path800" />
      <path
         style="font-size:12;font-weight:bold;fill:#ffffff;stroke-width:1pt;stroke-opacity:0.501961;font-family:Arial;fill-opacity:1;"
         d="M 206.188 185.754 L 204.822 187.773 L 205.608 188.305 C 206.175 188.688 206.578 188.907 206.819 188.961 C 207.061 189.016 207.288 189 207.502 188.914 C 207.719 188.83 207.899 188.683 208.041 188.472 C 208.216 188.213 208.285 187.949 208.247 187.678 C 208.208 187.406 208.087 187.171 207.883 186.972 C 207.733 186.823 207.4 186.574 206.882 186.224 L 206.188 185.754 z "
         id="path801" />
    </g>
    <g
       id="g827"
       transform="matrix(2.329431,-0.612081,0.609690,2.338566,-56.96035,4.197659)"
       style="font-size:12;">
      <path
         style="font-size:12;font-weight:bold;fill:#309e3a;stroke-width:1pt;stroke-opacity:0.501961;font-family:Arial;"
         d="M 207.386 195.181 L 212.199 188.067 L 215.223 190.113 C 215.984 190.627 216.492 191.065 216.747 191.426 C 217.008 191.787 217.131 192.2 217.117 192.667 C 217.103 193.134 216.954 193.578 216.669 193.998 C 216.308 194.532 215.852 194.867 215.302 195.004 C 214.754 195.138 214.137 195.039 213.451 194.708 C 213.639 195.099 213.761 195.471 213.814 195.823 C 213.872 196.178 213.884 196.748 213.853 197.533 L 213.783 199.509 L 212.065 198.347 L 212.074 196.096 C 212.079 195.293 212.062 194.775 212.023 194.54 C 211.985 194.303 211.908 194.107 211.791 193.952 C 211.676 193.794 211.454 193.604 211.123 193.38 L 210.833 193.183 L 208.823 196.154 L 207.386 195.181 z "
         id="path798" />
      <path
         style="font-size:12;font-weight:bold;fill:#ffffff;stroke-width:1pt;stroke-opacity:0.501961;font-family:Arial;fill-opacity:1;"
         d="M 211.601 192.048 L 212.664 192.767 C 213.353 193.233 213.802 193.495 214.013 193.552 C 214.224 193.61 214.426 193.601 214.62 193.524 C 214.813 193.448 214.982 193.302 215.126 193.089 C 215.288 192.849 215.354 192.613 215.323 192.38 C 215.298 192.146 215.181 191.931 214.975 191.734 C 214.869 191.639 214.525 191.395 213.943 191.001 L 212.822 190.242 L 211.601 192.048 z "
         id="path799" />
    </g>
    <g
       id="g830"
       transform="matrix(2.305472,-0.697543,0.694819,2.314513,-66.45074,29.66766)"
       style="font-size:12;">
      <path
         style="font-size:12;font-weight:bold;fill:#309e3a;stroke-width:1pt;stroke-opacity:0.501961;font-family:Arial;"
         d="M 216.645 196.324 C 217.136 195.599 217.656 195.064 218.204 194.719 C 218.612 194.466 219.051 194.289 219.525 194.19 C 220.001 194.092 220.453 194.087 220.88 194.173 C 221.451 194.285 222.025 194.537 222.604 194.929 C 223.653 195.638 224.27 196.53 224.458 197.605 C 224.649 198.682 224.353 199.8 223.569 200.958 C 222.792 202.107 221.871 202.795 220.807 203.023 C 219.745 203.248 218.691 203.006 217.646 202.299 C 216.588 201.584 215.965 200.693 215.776 199.627 C 215.589 198.557 215.879 197.456 216.645 196.324 z "
         id="path796" />
      <path
         style="font-size:12;font-weight:bold;fill:#ffffff;stroke-width:1pt;stroke-opacity:0.501961;font-family:Arial;fill-opacity:1;"
         d="M 218.158 197.277 C 217.613 198.082 217.385 198.819 217.475 199.489 C 217.567 200.154 217.899 200.681 218.472 201.069 C 219.045 201.456 219.652 201.568 220.296 201.404 C 220.945 201.24 221.549 200.745 222.107 199.92 C 222.659 199.104 222.891 198.375 222.803 197.73 C 222.719 197.089 222.38 196.567 221.788 196.167 C 221.196 195.766 220.581 195.647 219.943 195.81 C 219.307 195.969 218.712 196.458 218.158 197.277 z "
         id="path797" />
    </g>
    <g
       id="g833"
       transform="matrix(2.391319,-0.283178,0.282072,2.400697,0.415007,-78.35670)"
       style="font-size:12;">
      <path
         style="font-size:12;font-weight:bold;fill:#309e3a;stroke-width:1pt;stroke-opacity:0.501961;font-family:Arial;"
         d="M 230.026 210.498 L 234.839 203.383 L 237.863 205.429 C 238.623 205.944 239.131 206.381 239.387 206.743 C 239.647 207.103 239.771 207.517 239.757 207.984 C 239.743 208.451 239.593 208.894 239.309 209.315 C 238.948 209.849 238.492 210.184 237.941 210.321 C 237.393 210.455 236.777 210.356 236.091 210.024 C 236.279 210.415 236.4 210.788 236.454 211.14 C 236.511 211.495 236.524 212.064 236.493 212.85 L 236.422 214.825 L 234.705 213.663 L 234.713 211.413 C 234.718 210.609 234.702 210.091 234.662 209.857 C 234.625 209.62 234.547 209.423 234.43 209.268 C 234.316 209.111 234.093 208.92 233.763 208.697 L 233.472 208.5 L 231.463 211.47 L 230.026 210.498 z "
         id="path793" />
      <path
         style="font-size:12;font-weight:bold;fill:#ffffff;stroke-width:1pt;stroke-opacity:0.501961;font-family:Arial;fill-opacity:1;"
         d="M 234.24 207.364 L 235.303 208.083 C 235.992 208.55 236.442 208.811 236.653 208.869 C 236.863 208.927 237.066 208.917 237.26 208.841 C 237.453 208.764 237.621 208.619 237.766 208.405 C 237.928 208.166 237.993 207.93 237.963 207.697 C 237.937 207.463 237.821 207.247 237.615 207.051 C 237.509 206.956 237.165 206.711 236.582 206.317 L 235.462 205.559 L 234.24 207.364 z "
         id="path794" />
    </g>
    <g
       id="g836"
       transform="matrix(2.407899,0.000000,0.000000,2.417341,62.55793,-144.3769)"
       style="font-size:12;">
      <path
         style="font-size:12;font-weight:bold;fill:#309e3a;stroke-width:1pt;stroke-opacity:0.501961;font-family:Arial;"
         d="M 259.172 225.095 C 259.662 224.37 260.182 223.835 260.732 223.49 C 261.139 223.237 261.579 223.061 262.052 222.961 C 262.529 222.864 262.98 222.858 263.407 222.944 C 263.978 223.057 264.553 223.309 265.132 223.701 C 266.18 224.41 266.798 225.302 266.986 226.377 C 267.177 227.454 266.88 228.571 266.096 229.73 C 265.319 230.878 264.399 231.567 263.335 231.795 C 262.272 232.019 261.219 231.778 260.173 231.071 C 259.116 230.355 258.492 229.464 258.303 228.398 C 258.116 227.328 258.406 226.227 259.172 225.095 z "
         id="path788" />
      <path
         style="font-size:12;font-weight:bold;fill:#ffffff;stroke-width:1pt;stroke-opacity:0.501961;font-family:Arial;fill-opacity:1;"
         d="M 260.686 226.048 C 260.141 226.854 259.913 227.591 260.002 228.26 C 260.095 228.926 260.427 229.452 260.999 229.84 C 261.572 230.227 262.18 230.339 262.824 230.176 C 263.473 230.011 264.077 229.517 264.635 228.691 C 265.186 227.876 265.418 227.146 265.33 226.502 C 265.245 225.86 264.907 225.339 264.315 224.938 C 263.723 224.537 263.108 224.418 262.47 224.581 C 261.834 224.74 261.24 225.23 260.686 226.048 z "
         id="path789" />
    </g>
    <path
       style="font-size:12;font-weight:bold;fill:#309e3a;stroke-width:1pt;stroke-opacity:0.501961;font-family:Arial;"
       d="M 203.626 440.12 L 204.97 434.26 L 209.315 435.258 L 209.089 436.248 L 205.928 435.523 L 205.627 436.822 L 208.571 437.498 L 208.343 438.484 L 205.403 437.81 L 205.036 439.404 L 208.309 440.155 L 208.083 441.143 L 203.626 440.12 z "
       id="path872"
       transform="matrix(2.477902,0.000000,0.000000,2.487619,-2.076182,-775.3562)" />
  </g>
</svg>
