<?xml version="1.0" encoding="UTF-8" standalone="no"?>
<!DOCTYPE svg PUBLIC "-//W3C//DTD SVG 20010904//EN"
"http://www.w3.org/TR/2001/REC-SVG-20010904/DTD/svg10.dtd">


<!-- /Creative Commons Public Domain -->
<!--

<rdf:RDF xmlns="http://web.resource.org/cc/"
    xmlns:dc="http://purl.org/dc/elements/1.1/"
    xmlns:rdf="http://www.w3.org/1999/02/22-rdf-syntax-ns#">
<Work rdf:about="">
   <dc:title>SVG graphic of Brunei Darussalam flag</dc:title>
   <dc:rights><Agent>
      <dc:title>Gustav Broberg</dc:title>
   </Agent></dc:rights>
   <license rdf:resource="http://web.resource.org/cc/PublicDomain" />
</Work>

<License rdf:about="http://web.resource.org/cc/PublicDomain">
   <permits rdf:resource="http://web.resource.org/cc/Reproduction" />
   <permits rdf:resource="http://web.resource.org/cc/Distribution" />
   <permits rdf:resource="http://web.resource.org/cc/DerivativeWorks" />
</License>
</rdf:RDF>
-->


<!-- Created with Inkscape ("http://www.inkscape.org/") -->
<svg
   id="svg647"
   width="280mm"
   height="140mm"
   inkscape:version="0.36"
   docbase="."
   sodipodi:version="0.32"
   sodipodi:docname="brunei_darussalam.svg"
   xmlns="http://www.w3.org/2000/svg"
   xmlns:inkscape="http://www.inkscape.org/namespaces/inkscape"
   xmlns:sodipodi="http://sodipodi.sourceforge.net/DTD/sodipodi-0.dtd"
   xmlns:xlink="http://www.w3.org/1999/xlink"
   sodipodi:docbase=".">
  <sodipodi:namedview
     id="namedview129" />
  <defs
     id="defs649">
    <linearGradient
       id="linearGradient651">
      <stop
         style="stop-color:#000;stop-opacity:1;"
         offset="0"
         id="stop652" />
      <stop
         style="stop-color:#fff;stop-opacity:1;"
         offset="1"
         id="stop653" />
    </linearGradient>
    <linearGradient
       xlink:href="#linearGradient651"
       id="linearGradient654" />
    <linearGradient
       xlink:href="#linearGradient651"
       id="linearGradient655" />
    <linearGradient
       xlink:href="#linearGradient651"
       id="linearGradient656" />
    <linearGradient
       xlink:href="#linearGradient651"
       id="linearGradient657" />
    <linearGradient
       xlink:href="#linearGradient651"
       id="linearGradient658" />
    <linearGradient
       xlink:href="#linearGradient651"
       id="linearGradient659" />
    <linearGradient
       xlink:href="#linearGradient651"
       id="linearGradient660" />
    <linearGradient
       xlink:href="#linearGradient651"
       id="linearGradient661" />
    <linearGradient
       xlink:href="#linearGradient651"
       id="linearGradient662" />
    <linearGradient
       xlink:href="#linearGradient651"
       id="linearGradient663" />
    <linearGradient
       xlink:href="#linearGradient651"
       id="linearGradient664" />
    <linearGradient
       xlink:href="#linearGradient651"
       id="linearGradient665" />
    <linearGradient
       xlink:href="#linearGradient651"
       id="linearGradient666" />
    <linearGradient
       xlink:href="#linearGradient651"
       id="linearGradient667" />
    <linearGradient
       xlink:href="#linearGradient651"
       id="linearGradient668" />
    <linearGradient
       xlink:href="#linearGradient651"
       id="linearGradient669" />
    <linearGradient
       xlink:href="#linearGradient651"
       id="linearGradient670" />
    <linearGradient
       xlink:href="#linearGradient651"
       id="linearGradient671" />
    <linearGradient
       xlink:href="#linearGradient651"
       id="linearGradient672" />
    <linearGradient
       xlink:href="#linearGradient651"
       id="linearGradient673" />
    <linearGradient
       xlink:href="#linearGradient651"
       id="linearGradient674" />
    <linearGradient
       xlink:href="#linearGradient651"
       id="linearGradient675" />
    <linearGradient
       xlink:href="#linearGradient651"
       id="linearGradient676" />
    <linearGradient
       xlink:href="#linearGradient651"
       id="linearGradient677" />
    <linearGradient
       xlink:href="#linearGradient651"
       id="linearGradient678" />
    <linearGradient
       xlink:href="#linearGradient651"
       id="linearGradient679" />
    <linearGradient
       xlink:href="#linearGradient651"
       id="linearGradient680" />
    <linearGradient
       xlink:href="#linearGradient651"
       id="linearGradient681" />
    <linearGradient
       xlink:href="#linearGradient651"
       id="linearGradient682" />
    <linearGradient
       xlink:href="#linearGradient651"
       id="linearGradient683" />
    <linearGradient
       xlink:href="#linearGradient651"
       id="linearGradient684" />
    <linearGradient
       xlink:href="#linearGradient651"
       id="linearGradient685" />
  </defs>
  <namedview
     id="base"
     gridoriginx="0mm"
     showgrid="false"
     snaptogrid="false"
     gridspacingy="9.72mm"
     snaptoguides="false" />
  <g
     id="g1215">
    <path
       style="font-size:12;fill:#ffffff;fill-rule:evenodd;stroke-width:1pt;"
       d="M 1.30878 34.2513 L 1.43067 152.248 L 992.126 358.264 L 992.126 241.122 L 1.30878 34.2513 z "
       id="path1456"
       nodetypes="ccccc"
       transform="matrix(1.001444,0.000000,0.000000,1.000000,-1.432736,-1.525879e-5)" />
    <path
       style="font-size:12;fill:#fdd114;fill-rule:evenodd;stroke-width:1pt;fill-opacity:1;"
       d="M 0 254.906 L 0 496.063 L 992.126 496.063 L 992.126 461.622 L 0 254.906 z "
       id="path654"
       nodetypes="ccccc" />
    <path
       style="font-size:12;fill:#fdd114;fill-rule:evenodd;stroke-width:1pt;"
       d="M 0 254.906 L 0 496.063 L 992.126 496.063 L 992.126 461.622 L 0 254.906 z "
       id="path656"
       nodetypes="ccccc"
       transform="matrix(-1.000000,0.000000,0.000000,-1.000000,992.1260,496.0635)" />
    <path
       style="font-size:12;fill-rule:evenodd;stroke-width:1pt;"
       d="M 0 -0.667959 L 0 153.464 L 992.447 461.622 L 992.126 307.49 L 0 -0.667959 z "
       id="path658"
       nodetypes="ccccc"
       transform="matrix(1.000000,0.000000,0.000000,0.670583,0.000000,152.0661)" />
    <g
       id="g1129">
      <rect
         style="font-size:12;fill:#cf1126;fill-rule:evenodd;stroke:#000000;stroke-width:1.56231;"
         id="rect694"
         width="9.538899"
         height="25.460136"
         x="274.572458"
         y="617.605881"
         transform="matrix(0.939784,0.000000,0.000000,0.939884,233.0741,-374.0643)" />
      <path
         style="font-size:12;fill:#cf1126;fill-rule:evenodd;stroke:#000000;stroke-width:3.20735;"
         d="M 415.123 645.682 C 414.882 612.116 416.248 579.837 418.889 570.68 C 421.53 561.523 425.445 559.62 430.305 555.072 C 418.793 554.029 406.087 563.719 400.245 576.48 C 396.538 562.082 389.606 552.324 383.506 547.424 C 377.407 552.324 370.214 562.232 366.938 576.607 C 360.928 565.895 350.383 554.019 337.91 555.353 C 342.344 559.973 346.391 561.685 349.088 570.638 C 351.785 579.591 353.132 611.654 352.163 645.238 "
         id="path611"
         nodetypes="cscccccsc"
         transform="matrix(0.428238,0.000000,0.000000,0.489397,331.2799,-46.41895)" />
      <path
         style="font-size:12;fill:#cf1126;fill-rule:evenodd;stroke:#000000;stroke-width:2.80364;"
         d="M 414.444 641.956 C 414.203 608.391 415.814 579.736 418.121 570.629 C 420.43 561.523 424.114 559.823 429.379 555.883 C 417.867 554.84 406.898 557.639 400.477 573.238 C 396.885 558.738 389.838 551.615 383.738 546.715 C 377.639 551.615 370.446 558.989 367.17 573.364 C 360.117 557.89 350.267 554.424 337.794 555.758 C 342.98 560.074 347.056 561.685 349.594 570.613 C 352.132 579.541 352.453 607.928 351.484 641.512 "
         id="path610"
         nodetypes="cscccccsc"
         transform="matrix(0.466978,0.000000,0.000000,0.587353,316.3158,-66.36977)" />
      <path
         style="font-size:12;fill:#cf1126;fill-rule:evenodd;stroke:#000000;stroke-width:2.5;"
         d="M 417.496 590.829 C 417.184 583.017 418.256 572.526 420.031 568.472 C 421.807 564.417 424.285 561.456 426.785 558.019 C 416.063 556.473 405.16 557.262 399.371 572.987 C 395.621 558.612 389.996 551.112 383.896 546.212 C 377.797 551.112 372.5 558.612 368.75 572.987 C 362.961 557.262 352.005 556.309 340.954 558.019 C 343.454 561.456 346.028 564.417 347.899 568.472 C 349.77 572.526 350.938 583.017 350.625 590.829 "
         id="path609"
         nodetypes="cscccccsc"
         transform="matrix(0.587300,0.000000,0.000000,0.587353,270.1049,-25.41902)" />
      <path
         style="font-size:12;fill:#cf1126;fill-rule:evenodd;stroke:#000000;stroke-width:2.5;"
         d="M 378.953 610.77 L 378.953 642.981 L 390.322 642.981 L 390.322 610.77 L 378.953 610.77 z "
         id="path689"
         transform="matrix(0.587300,0.000000,0.000000,0.587353,269.6894,-198.8207)" />
      <path
         style="font-size:12;opacity:0.99;fill:#cf1126;fill-rule:evenodd;stroke:#000000;stroke-width:2.5;stroke-linejoin:bevel;"
         d="M 457.893 1168.67 C 460.706 1170.55 471.928 1172.52 492.269 1168.98 C 527.782 1162.76 527.485 1127.73 582.798 1143.98 C 580.298 1138.98 571.548 1123.67 549.985 1123.05 C 552.173 1115.86 553.735 1105.24 549.673 1098.67 C 545.506 1107.94 539.055 1112.25 534.377 1115.28 C 532.936 1114.5 524.577 1107.67 523.671 1097.38 C 522.415 1076.98 512.46 1073.38 511.403 1073.92 C 505.013 1073.74 466.533 1134.57 384.134 1134.97 C 302.945 1135.36 262.312 1074.46 257.728 1073.92 C 256.671 1073.38 246.716 1076.98 245.46 1097.38 C 244.554 1107.67 236.097 1114.2 234.676 1115.11 C 230.018 1112.21 223.625 1107.94 219.458 1098.67 C 215.396 1105.24 216.958 1115.86 219.146 1123.05 C 197.583 1123.67 188.833 1138.98 186.333 1143.98 C 241.646 1127.73 241.757 1162.76 277.27 1168.98 C 297.611 1172.52 308.156 1170.86 310.969 1168.99 "
         id="path660"
         transform="matrix(0.587300,0.000000,0.000000,0.587353,269.6894,-293.1643)" />
      <path
         style="font-size:12;opacity:0.99;fill:#cf1126;fill-rule:evenodd;stroke:#000000;stroke-width:2.5;stroke-linejoin:bevel;"
         d="M 286.282 1151.19 C 267.017 1150.42 229.434 1121.12 234.768 1115.09 C 236.461 1113.38 244.741 1115.14 259.076 1125.17 C 280.351 1139.67 298.605 1185.39 383.953 1185.04 C 470.933 1184.69 488.78 1139.67 510.055 1125.17 C 524.39 1115.14 533.334 1113.54 534.343 1115.5 C 539.463 1121.28 501.844 1150.51 482.579 1151.28 "
         id="path661"
         transform="matrix(0.587300,0.000000,0.000000,0.587353,269.6894,-293.1643)" />
      <path
         style="font-size:12;fill:#cf1126;fill-rule:evenodd;stroke:#000000;stroke-width:2.5;"
         d="M 259.195 399.543 C 183.085 479.728 224.027 663.902 382.211 666.561 C 541.247 668.343 587.644 482.297 508.621 399.187 M 274.605 402.29 C 234.115 470.468 276.209 589.935 384.486 589.935 C 493.654 589.935 533.666 469.606 493.571 401.889 "
         id="path590"
         nodetypes="cccccc"
         transform="matrix(0.587300,0.000000,0.000000,0.587353,270.1049,-25.41902)" />
      <path
         style="font-size:12;fill:#fdd114;fill-rule:evenodd;stroke:#cf1126;stroke-width:0.220247;"
         d="M 512.192 379.898 C 515.442 380.62 518.407 383.976 517.213 387.425 C 515.887 391.537 510.992 392.536 509.142 392.236 C 507.152 391.042 508.345 389.318 514.448 388.654 C 518.427 387.195 514.803 384.504 511.795 383.215 C 510.16 382.514 510.666 379.559 512.192 379.898 z "
         id="path596"
         nodetypes="ccccss" />
      <path
         style="font-size:12;fill:#fdd114;fill-rule:evenodd;stroke:#cf1126;stroke-width:0.220247;"
         d="M 502.111 378.837 C 503.622 377.118 504.85 382.387 505.186 386.041 C 505.626 389.608 505.672 394.008 504.234 394.226 C 503.357 394.373 504.093 390.13 503.187 386.237 C 502.004 381.73 501.494 379.593 502.111 378.837 z "
         id="path597"
         nodetypes="cssss" />
      <path
         style="font-size:12;fill:#fdd114;fill-rule:evenodd;stroke:#cb4f46;stroke-width:0.220247;"
         d="M 498.642 385.337 C 502.436 389.014 496.009 399.665 481.948 395.022 C 481.152 393.563 487.532 395.006 492.029 394.226 C 500.587 392.875 496.915 383.706 498.642 385.337 z "
         id="path598"
         nodetypes="ccss" />
      <path
         style="font-size:12;fill:#fdd114;fill-rule:evenodd;stroke:#cf1126;stroke-width:0.220247;"
         d="M 491.764 378.041 C 493.276 376.322 492.395 381.764 492.71 385.42 C 493.018 388.855 492.634 393.036 491.004 392.495 C 490.121 392.069 491.568 388.211 490.662 384.584 C 489.691 380.026 490.617 379.195 491.764 378.041 z "
         id="path599"
         nodetypes="cssss" />
      <path
         style="font-size:12;fill:#fdd114;fill-rule:evenodd;stroke:#cf1126;stroke-width:0.220247;"
         d="M 482.109 376.582 C 484.792 376.565 484.073 377.318 483.882 384.485 C 483.672 392.517 476.889 393.416 475.277 391.212 C 473.922 389.483 474.419 388.963 468.357 389.542 C 467.001 388.859 467.053 387.406 462.624 387.778 C 461.479 387.989 461.517 385.817 459.451 384.519 C 455.849 382.367 454.65 386.106 447.782 382.149 C 447.353 381.909 444.566 380.143 445.075 376.652 C 445.606 372.241 441.583 377.191 437.162 375.266 C 436.307 374.884 433.716 373.806 431.43 371.8 C 428.203 369.025 431.582 368.464 435.942 371.293 C 438.634 373 442.588 369.072 442.695 365.141 C 442.936 360.981 440.866 359.887 444.074 359.99 C 445.863 360.043 445.438 367.259 442.398 370.453 C 438.33 374.85 441.075 374.002 442.528 373.781 C 444.043 373.402 450.935 364.862 452.084 365.595 C 453.874 366.811 446.711 372.271 448.315 377.439 C 449.081 379.743 453.351 381.95 456.866 382.307 C 460.999 382.995 461.011 377.383 462.686 378.446 C 465.004 379.967 458.256 382.831 465.341 384.92 C 466.906 385.389 467.81 381.404 468.736 381.577 C 470.959 381.94 467.283 386.231 471.258 386.913 C 474.029 387.374 473.27 382.906 474.988 383.178 C 476.976 383.051 475.11 390.325 480.621 389.583 C 482.944 389.279 479.31 376.598 482.109 376.582 z "
         id="path600"
         nodetypes="csscsssssssssssssssssssss" />
      <path
         style="font-size:12;fill:#fdd114;fill-rule:evenodd;stroke:#cf1126;stroke-width:0.220247;"
         d="M 432.159 367.137 C 433.755 366.796 436.49 365.314 436.604 362.92 C 436.832 360.299 433.185 359.387 428.854 360.071 C 426.575 360.413 422.701 358.931 420.421 356.993 C 418.142 354.144 418.142 350.954 415.407 352.321 C 413.356 353.232 418.256 358.475 420.649 359.729 C 423.043 360.983 426.918 360.869 427.145 362.692 C 427.373 364.516 426.233 367.365 432.159 367.137 z "
         id="path601"
         nodetypes="cccccccc" />
      <path
         style="font-size:12;fill:#fdd114;fill-rule:evenodd;stroke:#cf1126;stroke-width:0.220247;"
         d="M 529.144 379.374 C 528.264 379.8 527.55 387.764 532.523 387.936 C 538.77 388.159 541.911 384.991 543.476 383.865 C 546.075 381.89 550.759 377.942 548.591 374.538 C 547.506 373.302 546.907 376.812 545.656 378.866 C 543.954 381.878 538.127 385.452 533.664 384.965 C 528.197 384.629 530.257 379.089 529.144 379.374 z "
         id="path604"
         nodetypes="csscsss" />
      <path
         style="font-size:12;fill:#fdd114;fill-rule:evenodd;stroke:#cf1126;stroke-width:0.220247;"
         d="M 541.982 375.685 C 540.711 374.724 544.808 373.151 545.232 371.664 C 545.657 370.177 543.422 368.776 544.665 367.147 C 545.968 365.002 546.039 371.19 547.695 371.368 C 552.281 371.846 549.007 374.808 547.277 374.236 C 545.319 373.652 542.749 376.408 541.982 375.685 z "
         id="path605"
         nodetypes="csssss" />
      <path
         style="font-size:12;fill:#fdd114;fill-rule:evenodd;stroke:#cf1126;stroke-width:0.220247;"
         d="M 538.433 366.308 C 538.138 368.374 539.392 368.89 539.762 367.71 C 540.204 365.496 538.949 364.463 538.433 366.308 z "
         id="path606"
         nodetypes="ccc" />
      <path
         style="font-size:12;fill:#fdd114;fill-rule:evenodd;stroke:#cf1126;stroke-width:0.220247;"
         d="M 541.753 364.169 C 541.015 364.227 540.912 366.79 541.873 366.861 C 542.91 366.943 542.431 368.692 543.302 368.669 C 544.338 368.642 544.417 365.735 543.245 365.708 C 542.155 365.681 542.412 364.181 541.753 364.169 z "
         id="path607"
         nodetypes="cssss" />
      <path
         style="font-size:12;fill:#fdd114;fill-rule:evenodd;stroke:#cf1126;stroke-width:0.220247;"
         d="M 550.05 363.677 C 549.173 364.787 547.508 359.4 553.11 358.629 C 555.773 358.864 558.044 363.25 557.809 367.479 C 557.72 369.043 557.653 372.57 556.792 374.293 C 556.086 375.938 553.502 381.343 552.249 380.873 C 550.996 380.402 552.577 378.139 554.677 374.998 C 556.375 372.426 557.027 365.286 556.165 364.033 C 555.303 362.78 554.436 367.166 552.641 368.106 C 551.147 368.889 549.587 366.624 549.352 365.528 C 549.166 364.228 550.35 363.428 551.152 364.973 C 551.792 366.134 553.759 363.83 553.713 362.184 C 553.765 359.522 552 361.633 550.05 363.677 z "
         id="path608"
         nodetypes="ccsccscsssss" />
      <path
         style="font-size:12;fill:#fdd114;fill-rule:evenodd;stroke:#cf1126;stroke-width:0.220247;"
         d="M 562.117 351.658 C 561.412 352.677 558.985 354.948 558.515 355.888 C 558.045 356.828 557.966 358.472 558.749 360.039 C 559.533 361.605 561.177 364.111 560.864 366.383 C 560.55 368.654 558.984 373.353 559.846 372.962 C 560.707 372.57 562.822 367.949 562.352 364.424 C 561.882 360.9 560.237 358.942 560.55 357.767 C 560.863 356.593 562.821 354.4 563.213 352.912 C 563.605 351.423 562.978 347.429 562.43 347.116 C 561.882 346.803 559.924 347.508 560.55 348.839 C 561.177 350.171 562.508 349.387 562.117 351.658 z "
         id="path614"
         nodetypes="ccccccccccc" />
      <path
         style="font-size:12;fill:#fdd114;fill-rule:evenodd;stroke:#cf1126;stroke-width:0.207337;"
         d="M 565.343 353.485 C 564.463 354.286 564.901 358.649 566.11 357.091 C 567.209 355.573 566.047 352.772 565.343 353.485 z "
         id="path615"
         nodetypes="css" />
      <path
         style="font-size:12;fill:#fdd114;fill-rule:evenodd;stroke:#cf1126;stroke-width:0.25044;"
         d="M 542.322 385.881 C 541.91 387.791 543.791 388.395 544.308 387.304 C 544.926 385.258 543.044 384.176 542.322 385.881 z "
         id="path616"
         nodetypes="ccc" />
      <path
         style="font-size:12;fill:#fdd114;fill-rule:evenodd;stroke:#cf1126;stroke-width:0.276166;"
         d="M 545.202 384.262 C 544.591 385.829 547.317 385.966 548.083 385.071 C 548.999 383.392 546.272 382.863 545.202 384.262 z "
         id="path620"
         nodetypes="ccc" />
      <path
         style="font-size:12;fill:#cf1126;fill-rule:evenodd;stroke:#cf1126;stroke-width:0.220247;fill-opacity:1;"
         d="M 431.817 361.667 C 430.359 361.015 430.45 363.946 431.134 364.744 C 431.817 365.542 435.793 363.496 431.817 361.667 z "
         id="path603"
         nodetypes="ccs" />
      <path
         style="font-size:12;fill:#cf1126;fill-rule:evenodd;stroke:#000000;stroke-width:2.5;stroke-linecap:round;"
         d="M 385.652 680.278 C 360.707 685.271 343.579 699.893 351.609 704.866 C 356.526 708.144 379.622 699.138 384.495 691.493 C 393.356 705.016 417.395 710.117 423.201 707.085 "
         id="path676"
         nodetypes="cscc"
         transform="matrix(0.587300,0.000000,0.000000,0.587353,269.6894,-198.8207)" />
      <path
         style="font-size:12;fill:#cf1126;fill-rule:evenodd;stroke-width:1pt;"
         d="M 256.274 672.278 C 260.414 678.676 281.864 694.105 297.293 695.234 C 312.723 696.363 347.72 703.513 354.494 700.502 C 361.268 697.492 380.46 684.32 385.352 686.578 C 390.245 688.836 418.845 704.642 429.382 704.265 C 439.919 703.889 508.033 684.697 510.291 680.934 C 512.549 677.17 496.743 667.386 486.583 667.386 C 476.422 667.386 256.274 672.655 256.274 672.278 z "
         id="path696"
         transform="matrix(0.587300,0.000000,0.000000,0.587353,269.6894,-198.8207)" />
      <path
         style="font-size:12;fill:#cf1126;fill-rule:evenodd;stroke:#000000;stroke-width:2.5;stroke-linecap:round;"
         d="M 316.201 703.328 C 316.325 707.174 319.282 709.955 326.374 710.028 C 338.284 710.276 358.431 704.643 370.465 691.121 "
         id="path675"
         transform="matrix(0.587300,0.000000,0.000000,0.587353,269.6894,-198.8207)" />
      <path
         style="font-size:12;fill:#cf1126;fill-rule:evenodd;stroke:#000000;stroke-width:2.5;stroke-linecap:round;"
         d="M 280.47 697.621 C 279.85 700.847 285.185 705.065 295.606 705.189 C 306.027 705.313 342.378 700.847 354.04 688.689 "
         id="path674"
         transform="matrix(0.587300,0.000000,0.000000,0.587353,269.6894,-198.8207)" />
      <path
         style="font-size:12;fill:#cf1126;fill-rule:evenodd;stroke:#000000;stroke-width:2.5;stroke-linecap:round;"
         d="M 255.86 687.848 C 250.277 695.043 268.064 697.622 278.733 697.497 C 289.403 697.373 316.939 697.231 329.272 688.051 "
         id="path673"
         transform="matrix(0.587300,0.000000,0.000000,0.587353,269.6894,-198.8207)" />
      <path
         style="font-size:12;fill:#cf1126;fill-rule:evenodd;stroke:#000000;stroke-width:2.5;stroke-linecap:round;"
         d="M 236.367 675.778 C 231.032 682.85 248.958 689.061 270.793 688.565 C 290.891 688.069 311.362 681.121 311.362 681.121 "
         id="path672"
         transform="matrix(0.587300,0.000000,0.000000,0.587353,269.6894,-198.8207)" />
      <path
         style="font-size:12;fill:#cf1126;fill-rule:evenodd;stroke:#000000;stroke-width:2.5;stroke-linecap:round;"
         d="M 452.476 703.328 C 452.352 707.174 449.395 709.955 442.303 710.028 C 430.393 710.276 410.246 704.643 398.212 691.121 "
         id="path680"
         transform="matrix(0.587300,0.000000,0.000000,0.587353,269.6894,-198.8207)" />
      <path
         style="font-size:12;fill:#cf1126;fill-rule:evenodd;stroke:#000000;stroke-width:2.5;stroke-linecap:round;"
         d="M 488.207 697.621 C 488.827 700.847 483.492 705.065 473.071 705.189 C 462.65 705.313 426.299 700.847 414.637 688.689 "
         id="path679"
         transform="matrix(0.587300,0.000000,0.000000,0.587353,269.6894,-198.8207)" />
      <path
         style="font-size:12;fill:#cf1126;fill-rule:evenodd;stroke:#000000;stroke-width:2.5;stroke-linecap:round;"
         d="M 512.661 688.004 C 518.244 695.2 500.613 697.622 489.944 697.497 C 479.274 697.373 451.738 697.231 439.405 688.051 "
         id="path678"
         transform="matrix(0.587300,0.000000,0.000000,0.587353,269.6894,-198.8207)" />
      <path
         style="font-size:12;fill:#cf1126;fill-rule:evenodd;stroke:#000000;stroke-width:2.5;stroke-linecap:round;"
         d="M 532.37 675.657 C 537.705 682.729 519.719 689.061 497.884 688.565 C 477.786 688.069 457.315 681.121 457.315 681.121 "
         id="path677"
         transform="matrix(0.587300,0.000000,0.000000,0.587353,269.6894,-198.8207)" />
      <path
         style="font-size:12;fill:#cf1126;fill-rule:evenodd;stroke:#000000;stroke-width:2.5;stroke-linecap:round;"
         d="M 279.214 675.125 C 251.479 679.13 238.704 677.089 233.169 674.443 C 226.254 671.4 214.412 662.134 231.904 661.797 C 243.494 661.571 249.335 662.456 262.511 662.387 C 296.216 661.965 344.871 635.351 359.621 635.242 C 373.322 635.141 376.957 641.475 384.768 641.604 C 392.766 641.697 395.355 635.141 409.056 635.242 C 423.806 635.351 472.461 661.965 506.166 662.387 C 519.342 662.456 525.183 661.571 536.773 661.797 C 554.265 662.134 542.423 671.4 535.508 674.443 C 529.973 677.089 517.198 679.13 489.463 675.125 "
         id="path681"
         transform="matrix(0.587300,0.000000,0.000000,0.587353,269.6894,-198.8207)" />
      <path
         style="font-size:12;fill:#cf1126;fill-rule:evenodd;stroke:#000000;stroke-width:2.5;"
         d="M 383.546 280.288 C 370.498 280.943 352.539 278.714 346.772 293.265 C 337.989 309.912 340.466 328.783 344.412 329.181 C 351.477 329.96 352.149 310.334 355.161 310.305 C 358.31 310.269 358.307 327.346 364.468 327.215 C 369.056 327.084 371.94 310.043 373.382 310.174 C 374.824 310.305 377.839 326.559 383.642 326.559 C 389.839 326.559 392.46 310.305 393.902 310.174 C 395.344 310.043 398.228 327.084 402.816 327.215 C 408.977 327.346 408.974 310.269 412.123 310.305 C 415.135 310.334 416.462 329.829 423.527 329.05 C 427.473 328.652 429.426 309.912 420.643 293.265 C 414.876 278.714 396.524 280.943 383.546 280.288 z "
         id="path618"
         nodetypes="ccccccccccccc"
         transform="matrix(0.587300,0.000000,0.000000,0.587353,270.1049,-25.41902)" />
      <path
         style="font-size:12;fill:#cf1126;fill-rule:evenodd;stroke:#000000;stroke-width:2.5;"
         d="M 352.22 286.251 C 355.724 292.138 383.055 291.998 384.597 291.998 C 386.139 291.998 409.966 292.278 415.572 286.532 "
         id="path619"
         nodetypes="ccc"
         transform="matrix(0.587300,0.000000,0.000000,0.587353,270.1049,-25.41902)" />
      <path
         style="font-size:12;fill:#cf1126;fill-rule:evenodd;stroke:#000000;stroke-width:2.5;"
         d="M 378.616 224.864 L 378.616 282.896 C 378.616 282.896 378.93 286.136 383.74 286.241 C 388.55 286.346 389.281 283.523 389.281 283.104 L 389.072 224.759 "
         id="path628"
         nodetypes="ccccc"
         transform="matrix(0.587300,0.000000,0.000000,0.587353,270.1049,-25.41902)" />
      <path
         style="font-size:12;fill:#cf1126;fill-rule:evenodd;stroke:#000000;stroke-width:2.5;"
         d="M 384.246 231.589 C 406.11 230.468 412.629 243.363 418.796 246.166 C 424.963 248.969 427.766 250.09 436.176 249.529 C 444.585 248.969 421.599 263.546 421.599 264.106 L 430.009 279.243 C 422.16 280.364 407.296 273.118 401.417 269.152 C 394.767 265.225 387.401 267.47 384.598 266.909 L 384.246 231.589 z "
         id="path625"
         nodetypes="cccccscc"
         transform="matrix(0.587300,0.000000,0.000000,0.587353,270.1049,-25.41902)" />
      <path
         style="font-size:12;fill:#cf1126;fill-rule:evenodd;stroke:#000000;stroke-width:1.6744;"
         d="M 313.396 264.666 C 313.396 268.999 309.503 272.515 304.707 272.515 C 299.91 272.515 296.017 268.999 296.017 264.666 C 296.017 260.334 299.91 256.818 304.707 256.818 C 309.503 256.818 313.396 260.334 313.396 264.666 z "
         id="path690"
         transform="matrix(0.852533,0.000000,0.000000,0.902007,235.7130,-138.4982)" />
      <g
         id="g796"
         style="font-size:12;fill:#fdd114;stroke:#cf1126;stroke-width:0.375;"
         transform="matrix(0.587300,0.000000,0.000000,0.587353,269.6894,-202.3640)">
        <path
           style="font-size:12;fill:#fdd114;fill-rule:evenodd;stroke:#cf1126;stroke-width:0.375;stroke-dasharray:none;stroke-linejoin:miter;stroke-linecap:butt;stroke-opacity:1;fill-opacity:1;"
           d="M 249.321 508.254 C 247.655 510.585 246.218 504.455 240.494 508.753 C 237.266 511.512 235.973 515.74 235.996 524.575 C 236.016 532.066 240.327 537.067 242.826 536.567 C 246.656 536.067 244.657 526.907 248.821 525.242 C 254.817 522.41 263.311 526.74 264.81 532.236 C 266.309 537.732 261.978 543.728 257.315 543.062 C 254.65 542.063 258.814 538.233 259.147 536.567 C 259.48 534.902 259.979 529.405 255.982 527.907 C 251.985 526.408 252.652 531.904 252.485 533.403 C 252.319 534.902 249.487 539.565 246.323 539.398 C 243.159 539.232 238.13 539.249 233.165 533.903 C 230.533 531.16 227.336 523.743 230.168 514.416 C 232.999 505.09 237.829 504.257 240.494 504.09 C 243.158 503.924 249.987 505.589 249.321 508.254 z "
           id="path621"
           nodetypes="cssccccccccsccc"
           transform="translate(0.000000,295.1666)" />
        <path
           style="font-size:12;fill:#fdd114;fill-rule:evenodd;stroke:#cf1126;stroke-width:0.375;stroke-dasharray:none;stroke-linejoin:miter;stroke-linecap:butt;stroke-opacity:1;fill-opacity:1;"
           d="M 242.492 547.059 C 239.713 545.574 243.537 540.163 236.33 542.063 C 233.43 542.871 240.66 551.223 243.824 551.557 C 247.322 551.223 246.347 548.953 242.492 547.059 z "
           id="path622"
           nodetypes="cscs"
           transform="translate(0.000000,295.1666)" />
        <path
           style="font-size:12;fill:#fdd114;fill-rule:evenodd;stroke:#cf1126;stroke-width:0.375;stroke-dasharray:none;stroke-linejoin:miter;stroke-linecap:butt;stroke-opacity:1;fill-opacity:1;"
           d="M 250.154 551.557 C 251.652 558.385 253.071 557.806 253.318 561.216 C 253.442 565.572 245.989 563.714 244.99 565.712 C 243.991 567.711 242.659 572.874 247.488 573.207 C 252.318 573.54 259.25 571.684 260.645 575.039 C 264.406 584.482 272.427 583.113 276.167 581.644 C 280.397 579.951 290.352 570.98 292.622 570.209 C 296.002 568.971 289.458 566.545 285.628 569.876 C 284.629 570.876 276.301 579.37 271.971 579.536 C 268.808 579.888 263.908 571.87 264.143 569.044 C 264.476 567.045 271.763 568.694 272.804 564.547 C 273.579 561.584 273.636 558.384 271.305 558.218 C 268.973 558.051 257.981 559.55 257.648 557.885 C 255.649 553.055 259.647 551.057 258.148 549.724 C 256.482 549.058 250.32 548.059 250.154 551.557 z "
           id="path623"
           nodetypes="csccssscssscccc"
           transform="translate(0.000000,295.1666)" />
        <path
           style="font-size:12;fill:#fdd114;fill-rule:evenodd;stroke:#cf1126;stroke-width:0.375;stroke-dasharray:none;stroke-linejoin:miter;stroke-linecap:butt;stroke-opacity:1;fill-opacity:1;"
           d="M 287.182 578.04 C 283.658 581.731 274.381 587.64 274.381 591.814 C 274.381 594.18 276.97 597.889 279.111 598.771 C 282.307 600.03 287.209 599.715 290.938 596.823 C 295.155 593.397 297.052 589.924 295.252 589.31 C 288.874 587.487 288.713 596.278 285.651 596.545 C 282.726 596.788 278.277 592.092 284.121 586.248 C 289.964 580.405 298.035 574.561 297.756 572.891 C 297.478 571.222 289.711 575.491 287.182 578.04 z "
           id="path638"
           nodetypes="csssssccs"
           transform="translate(0.000000,295.1666)" />
        <path
           style="font-size:12;fill:#fdd114;fill-rule:evenodd;stroke:#cf1126;stroke-width:0.375;stroke-dasharray:none;stroke-linejoin:miter;stroke-linecap:butt;stroke-opacity:1;fill-opacity:1;"
           d="M 259.354 585.692 C 259.093 588.043 265.337 588.057 266.45 585.97 C 267.284 584.44 259.632 583.327 259.354 585.692 z "
           id="path639"
           nodetypes="ccs"
           transform="translate(12.66161,312.0024)" />
        <path
           style="font-size:12;fill:#fdd114;fill-rule:evenodd;stroke:#cf1126;stroke-width:0.375;stroke-dasharray:none;stroke-linejoin:miter;stroke-linecap:butt;stroke-opacity:1;fill-opacity:1;"
           d="M 273.842 583.058 C 270.318 586.749 274.259 590.945 276.951 594.384 C 278.442 596.221 281.866 598.011 284.007 598.893 C 287.203 600.152 293.573 599.715 297.302 596.823 C 301.519 593.397 301.852 587.38 299.291 587.352 C 292.672 587.278 297.28 596.156 294.218 596.423 C 291.293 596.666 283.092 594.817 279.103 586.37 C 276.824 581.391 283.305 580.439 282.335 578.276 C 281.347 575.952 276.371 580.509 273.842 583.058 z "
           id="path640"
           nodetypes="cssssssss"
           transform="translate(19.20111,316.1765)" />
        <path
           style="font-size:12;fill:#fdd114;fill-rule:evenodd;stroke:#cf1126;stroke-width:0.375;stroke-dasharray:none;stroke-linejoin:miter;stroke-linecap:butt;stroke-opacity:1;fill-opacity:1;"
           d="M 259.354 585.692 C 259.093 588.043 265.337 588.057 266.45 585.97 C 267.284 584.44 259.632 583.327 259.354 585.692 z "
           id="path641"
           nodetypes="ccs"
           transform="matrix(0.746044,-0.665897,0.665897,0.746044,-273.2715,634.6580)" />
        <path
           style="font-size:12;fill:#fdd114;fill-rule:evenodd;stroke:#cf1126;stroke-width:0.375;stroke-dasharray:none;stroke-linejoin:miter;stroke-linecap:butt;stroke-opacity:1;fill-opacity:1;"
           d="M 319.557 621.309 C 319.367 624.017 320.169 627.673 316.987 627.796 C 313.805 627.918 309.766 623.634 306.584 623.757 C 303.402 623.879 302.055 626.327 302.422 627.674 C 302.789 629.02 308.297 630.611 317.721 629.999 C 327.145 629.387 325.064 635.139 331.673 634.649 C 338.282 634.16 339.261 631.957 338.772 630.489 C 338.282 629.02 332.653 629.999 330.572 629.632 C 328.491 629.264 324.82 625.96 324.33 623.145 C 323.841 620.33 323.841 615.478 326.288 615.435 C 330.817 615.356 328.725 619.55 328.898 621.022 C 329.051 622.325 330.532 623.676 332.53 621.309 C 335.183 618.168 333.754 613.231 331.184 611.518 C 328.614 609.805 320.036 614.718 319.557 621.309 z "
           id="path642"
           nodetypes="cccccccccssscs"
           transform="translate(0.000000,295.1666)" />
        <path
           style="font-size:12;fill:#fdd114;fill-rule:evenodd;stroke:#cf1126;stroke-width:0.375;stroke-dasharray:none;stroke-linejoin:miter;stroke-linecap:butt;stroke-opacity:1;fill-opacity:1;"
           d="M 342.933 621.799 C 342.451 626.652 338.978 627.005 339.384 628.775 C 339.886 630.809 341.143 631.447 341.954 636.485 C 342.413 638.969 345.503 640.022 349.42 639.79 C 352.621 639.702 354.809 635.366 356.885 635.506 C 359.82 635.663 357.375 642.307 364.229 642.238 C 369.736 642.186 371.083 637.464 373.041 637.342 C 374.999 637.219 374.754 642.849 379.283 642.849 C 383.811 642.849 385.769 637.709 387.85 637.587 C 390.053 637.709 390.053 643.094 396.784 642.727 C 403.516 642.359 408.534 641.381 410.125 640.035 C 411.716 638.688 412.45 634.282 414.653 634.037 C 416.856 633.793 420.283 638.198 423.343 638.198 C 426.403 638.198 432.766 630.489 434.724 630.366 C 436.683 630.244 438.274 635.139 442.68 635.139 C 449.534 635.017 450.335 626.106 453.527 625.685 C 459.281 625.125 459.508 622.778 459.814 622.166 C 460.426 620.452 459.77 612.417 458.463 608.748 C 457.828 606.812 450.513 590.467 447.209 590.1 C 443.904 589.733 444.883 594.506 446.841 597.321 C 448.8 600.136 458.835 613.231 457.489 617.025 C 456.143 620.82 449.044 615.434 443.414 615.434 C 435.581 615.434 430.822 631.27 425.3 631.834 C 422.875 632.094 420.283 629.754 421.14 628.04 C 422.731 625.593 424.566 619.718 418.447 620.575 C 412.328 621.431 406.086 624.246 407.065 627.551 C 408.044 630.855 411.716 634.16 407.677 635.506 C 403.638 636.852 396.662 637.22 393.235 636.118 C 389.808 635.017 391.888 627.306 389.808 627.306 C 387.483 627.306 387.361 636.363 384.056 636.608 C 380.752 636.852 377.814 635.506 377.08 632.936 C 376.345 630.366 378.304 627.184 376.101 626.817 C 373.898 626.449 371.694 636.975 368.39 636.73 C 365.086 636.485 364.963 635.751 363.005 633.67 C 361.047 631.59 364.718 624.491 361.414 623.879 C 358.109 623.267 354.804 634.405 352.602 634.283 C 350.398 634.16 347.094 634.038 346.115 631.835 C 345.625 630.733 345.762 623.842 345.872 621.048 C 345.811 619.726 342.69 620.307 342.933 621.799 z "
           id="path643"
           nodetypes="cssssscccccccccscsccccsccccccsccsscscss"
           transform="translate(0.000000,295.1666)" />
        <path
           style="font-size:12;fill:#fdd114;fill-rule:evenodd;stroke:#cf1126;stroke-width:0.375;stroke-dasharray:none;stroke-linejoin:miter;stroke-linecap:butt;stroke-opacity:1;fill-opacity:1;"
           d="M 454.185 591.813 C 460.216 600.944 465.648 613.292 468.994 613.965 C 471.222 614.292 462.017 597.444 458.958 593.649 C 456.388 589.733 448.997 583.854 454.185 591.813 z "
           id="path644"
           nodetypes="cscs"
           transform="translate(0.000000,295.1666)" />
        <path
           style="font-size:12;fill:#fdd114;fill-rule:evenodd;stroke:#cf1126;stroke-width:0.375;stroke-dasharray:none;stroke-linejoin:miter;stroke-linecap:butt;stroke-opacity:1;fill-opacity:1;"
           d="M 342.157 613.741 C 341.013 616.028 341.422 618.234 343.382 617.907 C 345.342 617.58 347.874 613.741 347.221 613.006 C 346.568 612.271 343.709 611.618 342.157 613.741 z "
           id="path645"
           transform="matrix(0.787223,0.000000,0.000000,0.968727,73.02130,314.6675)" />
        <path
           style="font-size:12;fill:#fdd114;fill-rule:evenodd;stroke:#cf1126;stroke-width:0.375;stroke-dasharray:none;stroke-linejoin:miter;stroke-linecap:butt;stroke-opacity:1;fill-opacity:1;"
           d="M 471.9 595.862 C 471.879 600.813 475.385 606.413 481.909 606.06 C 488.434 605.708 495.588 598.492 496.117 591.086 C 496.646 583.68 487.505 578.243 485.213 579.83 C 482.92 581.417 486.073 586.94 491.929 587.281 C 494.437 587.433 493.618 592.337 488.813 596.217 C 483.778 600.197 476.324 600.121 474.501 597.375 C 473.091 593.495 471.807 593.468 471.9 595.862 z "
           id="path646"
           nodetypes="ccccsscs"
           transform="translate(0.000000,295.1666)" />
        <path
           style="font-size:12;fill:#fdd114;fill-rule:evenodd;stroke:#cf1126;stroke-width:0.375;stroke-dasharray:none;stroke-linejoin:miter;stroke-linecap:butt;stroke-opacity:1;fill-opacity:1;"
           d="M 475.832 580.855 C 474.878 582.816 476.867 587.336 479.024 587.136 C 481.211 586.922 476.532 579.557 475.832 580.855 z "
           id="path647"
           nodetypes="css"
           transform="translate(0.000000,295.1666)" />
        <path
           style="font-size:12;fill:#fdd114;fill-rule:evenodd;stroke:#cf1126;stroke-width:0.375;stroke-dasharray:none;stroke-linejoin:miter;stroke-linecap:butt;stroke-opacity:1;fill-opacity:1;"
           d="M 494.985 577.354 C 496.255 580.291 497.765 584.768 500.442 584.768 C 503.12 584.768 505.282 585.489 505.282 587.754 C 505.282 590.019 498.302 597.56 498.074 600.111 C 497.685 604.459 500.854 604.23 502.399 601.861 C 503.943 599.493 508.12 588.354 508.989 585.282 C 509.367 582.854 512.369 578.29 512.49 573.54 C 512.298 568.188 517.226 572.514 519.595 572.72 C 521.765 572.815 524.126 568.807 524.435 565.924 C 524.744 563.04 522.169 562.526 522.169 559.952 C 522.169 558.51 524.923 553.876 525.052 550.787 C 525.359 548.055 519.698 540.181 517.33 540.284 C 515.373 540.387 517.021 543.27 518.154 544.506 C 519.286 545.742 522.169 548.316 521.14 550.581 C 519.286 555.009 510.224 556.142 509.813 560.879 C 509.401 564.277 510.224 574.986 507.444 574.986 C 504.664 574.986 502.388 568.296 498.074 568.292 C 493.236 568.163 493.982 575.117 494.985 577.354 z "
           id="path648"
           nodetypes="cccscsssssscccccss"
           transform="translate(0.000000,295.1666)" />
        <path
           style="font-size:12;fill:#fdd114;fill-rule:evenodd;stroke:#cf1126;stroke-width:0.375;stroke-dasharray:none;stroke-linejoin:miter;stroke-linecap:butt;stroke-opacity:1;fill-opacity:1;"
           d="M 502.09 536.68 C 502.223 538.587 506.209 546.874 508.577 546.874 C 511.975 546.874 507.032 542.962 507.341 541.52 C 507.65 540.078 512.518 537.906 510.533 537.401 C 506.983 536.314 501.914 534.159 502.09 536.68 z "
           id="path651"
           nodetypes="cssss"
           transform="translate(0.000000,295.1666)" />
        <path
           style="font-size:12;fill:#fdd114;fill-rule:evenodd;stroke:#cf1126;stroke-width:0.375;stroke-dasharray:none;stroke-linejoin:miter;stroke-linecap:butt;stroke-opacity:1;fill-opacity:1;"
           d="M 501.781 525.971 C 502.502 528.648 513.519 532.664 518.256 534.003 C 522.993 535.342 528.759 541.005 530.922 539.151 C 533.084 537.298 516.403 530.708 513.932 529.781 C 511.461 528.854 501.266 523.294 501.781 525.971 z "
           id="path652"
           nodetypes="ccccc"
           transform="translate(0.000000,295.1666)" />
        <path
           style="font-size:12;fill:#fdd114;fill-rule:evenodd;stroke:#cf1126;stroke-width:0.375;stroke-dasharray:none;stroke-linejoin:miter;stroke-linecap:butt;stroke-opacity:1;fill-opacity:1;"
           d="M 535.041 543.271 C 539.16 543.373 536.894 535.238 535.864 533.282 C 534.835 531.325 533.29 536.989 533.496 538.637 C 533.702 540.284 533.805 543.168 535.041 543.271 z "
           id="path718"
           nodetypes="cccc"
           transform="translate(0.000000,295.1666)" />
        <path
           style="font-size:12;fill:#fdd114;fill-rule:evenodd;stroke:#cf1126;stroke-width:0.375;stroke-dasharray:none;stroke-linejoin:miter;stroke-linecap:butt;stroke-opacity:1;fill-opacity:1;"
           d="M 511.048 502.803 C 511.013 504.646 522.427 503.338 527.73 504.759 C 530.018 505.4 537.821 509.598 539.262 508.569 C 540.91 506.406 528.656 501.773 521.654 501.773 C 519.387 501.807 511.088 500.63 511.048 502.803 z "
           id="path655"
           nodetypes="cscss"
           transform="translate(0.000000,295.1666)" />
        <path
           style="font-size:12;fill:#fdd114;fill-rule:evenodd;stroke:#cf1126;stroke-width:0.375;stroke-dasharray:none;stroke-linejoin:miter;stroke-linecap:butt;stroke-opacity:1;fill-opacity:1;"
           d="M 508.062 508.054 C 506.019 510.241 514.946 512.687 522.89 512.996 C 530.803 513.305 535.931 518.059 535.247 521.543 C 534.114 527.413 524.229 523.602 525.465 526.795 C 526.185 529.266 530.532 528.359 531.025 531.017 C 531.366 533.695 534.156 534.166 534.007 530.865 C 533.991 528.238 540.138 523.911 539.984 522.676 C 539.675 520.205 535.968 511.555 526.494 510.628 C 517.021 509.702 510.67 505.137 508.062 508.054 z "
           id="path720"
           nodetypes="csscsssss"
           transform="translate(0.000000,295.1666)" />
      </g>
      <path
         style="font-size:12;fill:#cf1126;fill-rule:evenodd;stroke:#cf1126;stroke-width:0.0734158;"
         d="M 419.371 303.328 C 418.625 302.897 415.966 305.287 416.92 305.82 C 418.73 306.845 420.505 303.962 419.371 303.328 z "
         id="path629"
         nodetypes="css" />
      <path
         style="font-size:12;fill:#cf1126;fill-rule:evenodd;stroke:#cf1126;stroke-width:0.0734158;"
         d="M 425.083 300.49 C 423.792 300.329 423.168 303.07 424.248 303.233 C 426.992 303.612 427.533 300.786 425.083 300.49 z "
         id="path634"
         nodetypes="css" />
      <path
         style="font-size:12;fill:#cf1126;fill-rule:evenodd;stroke:#cf1126;stroke-width:0.0734158;"
         d="M 564.264 308.178 C 563.653 308.175 561.724 309.025 562.39 310.356 C 563.055 311.686 564.964 311.718 565.837 310.961 C 566.615 310.224 566.439 308.191 564.264 308.178 z "
         id="path649"
         nodetypes="csss" />
      <path
         style="font-size:12;fill:#cf1126;fill-rule:evenodd;stroke:#cf1126;stroke-width:0.0734158;"
         d="M 571.824 302.372 C 572.019 303.835 573.089 303.598 573.94 303.279 C 574.908 302.856 575.19 301.576 574.243 301.102 C 573.255 300.608 571.624 301.328 571.824 302.372 z "
         id="path650"
         nodetypes="csss" />
      <path
         style="font-size:12;fill:#cf1126;fill-rule:evenodd;stroke:#cf1126;stroke-width:0.0734158;"
         d="M 528.119 336.582 C 526.816 339.46 527.938 342.275 530.016 341.733 C 532.094 341.191 534.173 337.214 532.637 335.949 C 531.101 334.684 528.984 334.67 528.119 336.582 z "
         id="path657"
         nodetypes="cccs" />
      <g
         id="g919"
         transform="matrix(0.587300,0.000000,0.000000,0.587353,269.6894,-198.8207)"
         style="font-size:12;fill:#cf1126;">
        <path
           style="font-size:12;fill:#cf1126;fill-rule:evenodd;stroke-width:1pt;fill-opacity:1;"
           d="M 140.719 708.258 C 132.463 707.508 113.701 703.755 112.95 707.508 C 112.2 711.26 123.082 755.165 128.711 760.793 C 134.339 766.422 160.607 778.43 163.234 776.929 C 165.86 775.428 157.98 748.035 154.978 743.157 C 151.976 738.278 142.97 720.642 143.721 719.891 C 144.471 719.141 140.343 708.258 140.719 708.258 z "
           id="path697"
           transform="translate(0.750504,-3.051758e-5)"
           nodetypes="ccccccc" />
        <path
           style="font-size:12;fill:#cf1126;fill-rule:evenodd;stroke:#000000;stroke-width:2.5;stroke-dasharray:none;fill-opacity:1;"
           d="M 124.242 411.536 C 126.254 400.973 138.536 413.616 137.32 427.377 C 136.721 432.046 139.332 437.189 141.847 439.704 "
           id="path632"
           nodetypes="ccc"
           transform="translate(0.707550,295.2256)" />
        <path
           style="font-size:12;fill:#cf1126;fill-rule:evenodd;stroke:#000000;stroke-width:2.5;stroke-dasharray:none;fill-opacity:1;"
           d="M 134.805 412.039 L 134.344 412.653 C 140.504 402.229 146.46 417.069 147.38 434.171 "
           id="path633"
           nodetypes="ccc"
           transform="translate(0.707550,295.2256)" />
        <path
           style="font-size:12;fill:#cf1126;fill-rule:evenodd;stroke:#000000;stroke-width:2.5;stroke-dasharray:none;fill-opacity:1;"
           d="M 113.615 410.414 C 113.259 401.878 127.124 399.426 126.266 430.284 C 132.311 434.196 139.426 449.134 139.781 454.47 C 144.318 455.537 151.874 461.116 153.714 465.74 "
           id="path631"
           nodetypes="cccc"
           transform="translate(0.707550,295.2256)" />
        <path
           style="font-size:12;fill:#cf1126;fill-rule:evenodd;stroke:#000000;stroke-width:2.5;stroke-dasharray:none;fill-opacity:1;"
           d="M 147.625 581.395 C 148.273 557.9 148.643 507.589 146.183 502.131 C 141.857 492.028 120.093 480.313 113.461 464.429 C 106.822 447.625 101.162 409.295 103.857 404.675 C 107.386 398.016 119.152 412.856 115.951 429.217 C 130.179 445.934 127.188 455.892 129.822 458.027 C 138.596 464.784 151.993 469.409 154.363 475.455 C 159.24 486.272 153.297 460.16 149.384 454.825 C 145.472 449.49 138.714 437.753 143.338 434.908 C 147.961 432.062 156.142 439.532 157.209 441.666 C 158.276 443.8 169.302 455.893 172.503 458.738 C 178.194 463.006 192.567 472.547 192.281 480.726 C 192.266 493.948 193.44 580.938 193.44 580.938 "
           id="path630"
           nodetypes="cssscssccccsc"
           transform="translate(0.707550,295.2256)" />
        <path
           style="font-size:12;fill:#cf1126;fill-rule:evenodd;stroke:#000000;stroke-width:2.5;stroke-dasharray:none;fill-opacity:1;"
           d="M 144.968 612.374 C 144.968 612.374 144.878 621.831 144.879 622.009 C 148.983 627.005 166.113 627.561 169.947 627.54 C 173.699 627.43 189.817 627.718 193.564 621.563 C 193.653 621.385 193.796 613.53 193.796 611.371 "
           id="path581"
           nodetypes="ccscc"
           transform="translate(0.707550,295.2256)" />
        <path
           style="font-size:12;fill:#cf1126;fill-rule:evenodd;stroke:#000000;stroke-width:2.5;stroke-dasharray:none;fill-opacity:1;"
           d="M 144.202 585.22 C 139.457 586.275 138.217 592.072 141.565 596.293 C 144.28 599.717 155.538 603.674 168.456 603.939 C 181.373 604.201 198.51 599.72 199.3 592.602 C 199.564 585.484 192.879 585.918 193.67 586.182 "
           id="path637"
           nodetypes="csccc"
           transform="translate(0.707550,308.4084)" />
        <path
           style="font-size:12;fill:#cf1126;fill-rule:evenodd;stroke:#000000;stroke-width:2.5;stroke-dasharray:none;fill-opacity:1;"
           d="M 144.202 585.306 C 139.457 586.361 138.57 592.336 141.918 596.557 C 144.633 599.981 156.065 604.729 168.983 604.993 C 181.9 605.256 198.246 599.984 199.036 592.866 C 199.3 585.748 194.384 586.361 194.027 586.539 "
           id="path636"
           nodetypes="csccc"
           transform="translate(0.707550,295.2256)" />
        <path
           style="font-size:12;fill:#cf1126;fill-rule:evenodd;stroke:#000000;stroke-width:2.5;stroke-dasharray:none;fill-opacity:1;"
           d="M 171.092 592.602 C 188.227 592.866 199.3 584.43 199.3 579.949 C 199.3 575.467 193.764 575.203 190.336 576.521 C 186.909 577.839 181.637 581.186 170.565 581.266 C 159.231 581.611 149.211 573.358 145.784 573.621 C 142.357 573.885 139.672 577.601 140.775 581.53 C 142.132 585.427 154.22 593.129 171.092 592.602 z "
           id="path635"
           nodetypes="cccscsc"
           transform="translate(0.707550,295.2256)" />
      </g>
      <g
         id="g929"
         transform="matrix(0.587300,0.000000,0.000000,0.587353,269.6894,-198.8207)"
         style="font-size:12;fill:#cf1126;">
        <path
           style="font-size:12;fill:#cf1126;fill-rule:evenodd;stroke-width:1pt;fill-opacity:1;"
           d="M 140.719 708.258 C 132.463 707.508 113.701 703.755 112.95 707.508 C 112.2 711.26 123.082 755.165 128.711 760.793 C 134.339 766.422 160.607 778.43 163.234 776.929 C 165.86 775.428 157.98 748.035 154.978 743.157 C 151.976 738.278 142.97 720.642 143.721 719.891 C 144.471 719.141 140.343 708.258 140.719 708.258 z "
           id="path869"
           transform="matrix(-1.000000,0.000000,0.000000,1.000000,770.0846,-6.103516e-5)"
           nodetypes="ccccccc" />
        <path
           style="font-size:12;fill:#cf1126;fill-rule:evenodd;stroke:#000000;stroke-width:2.5;stroke-dasharray:none;fill-opacity:1;"
           d="M 124.242 411.536 C 126.254 400.973 138.536 413.616 137.32 427.377 C 136.721 432.046 139.332 437.189 141.847 439.704 "
           id="path870"
           nodetypes="ccc"
           transform="matrix(-1.000000,0.000000,0.000000,1.000000,770.1276,295.2256)" />
        <path
           style="font-size:12;fill:#cf1126;fill-rule:evenodd;stroke:#000000;stroke-width:2.5;stroke-dasharray:none;fill-opacity:1;"
           d="M 134.805 412.039 L 134.344 412.653 C 140.504 402.229 146.46 417.069 147.38 434.171 "
           id="path871"
           nodetypes="ccc"
           transform="matrix(-1.000000,0.000000,0.000000,1.000000,770.1276,295.2256)" />
        <path
           style="font-size:12;fill:#cf1126;fill-rule:evenodd;stroke:#000000;stroke-width:2.5;stroke-dasharray:none;fill-opacity:1;"
           d="M 113.615 410.414 C 113.259 401.878 127.124 399.426 126.266 430.284 C 132.311 434.196 139.426 449.134 139.781 454.47 C 144.318 455.537 151.874 461.116 153.714 465.74 "
           id="path872"
           nodetypes="cccc"
           transform="matrix(-1.000000,0.000000,0.000000,1.000000,770.1276,295.2256)" />
        <path
           style="font-size:12;fill:#cf1126;fill-rule:evenodd;stroke:#000000;stroke-width:2.5;stroke-dasharray:none;fill-opacity:1;"
           d="M 147.625 581.395 C 148.273 557.9 148.643 507.589 146.183 502.131 C 141.857 492.028 120.093 480.313 113.461 464.429 C 106.822 447.625 101.162 409.295 103.857 404.675 C 107.386 398.016 119.152 412.856 115.951 429.217 C 130.179 445.934 127.188 455.892 129.822 458.027 C 138.596 464.784 151.993 469.409 154.363 475.455 C 159.24 486.272 153.297 460.16 149.384 454.825 C 145.472 449.49 138.714 437.753 143.338 434.908 C 147.961 432.062 156.142 439.532 157.209 441.666 C 158.276 443.8 169.302 455.893 172.503 458.738 C 178.194 463.006 192.567 472.547 192.281 480.726 C 192.266 493.948 193.44 580.938 193.44 580.938 "
           id="path873"
           nodetypes="cssscssccccsc"
           transform="matrix(-1.000000,0.000000,0.000000,1.000000,770.1276,295.2256)" />
        <path
           style="font-size:12;fill:#cf1126;fill-rule:evenodd;stroke:#000000;stroke-width:2.5;stroke-dasharray:none;fill-opacity:1;"
           d="M 144.968 612.374 C 144.968 612.374 144.878 621.831 144.879 622.009 C 148.983 627.005 166.113 627.561 169.947 627.54 C 173.699 627.43 189.817 627.718 193.564 621.563 C 193.653 621.385 193.796 613.53 193.796 611.371 "
           id="path874"
           nodetypes="ccscc"
           transform="matrix(-1.000000,0.000000,0.000000,1.000000,770.1276,295.2256)" />
        <path
           style="font-size:12;fill:#cf1126;fill-rule:evenodd;stroke:#000000;stroke-width:2.5;stroke-dasharray:none;fill-opacity:1;"
           d="M 144.202 585.22 C 139.457 586.275 138.217 592.072 141.565 596.293 C 144.28 599.717 155.538 603.674 168.456 603.939 C 181.373 604.201 198.51 599.72 199.3 592.602 C 199.564 585.484 192.879 585.918 193.67 586.182 "
           id="path876"
           nodetypes="csccc"
           transform="matrix(-1.000000,0.000000,0.000000,1.000000,770.1276,308.4084)" />
        <path
           style="font-size:12;fill:#cf1126;fill-rule:evenodd;stroke:#000000;stroke-width:2.5;stroke-dasharray:none;fill-opacity:1;"
           d="M 144.202 585.306 C 139.457 586.361 138.57 592.336 141.918 596.557 C 144.633 599.981 156.065 604.729 168.983 604.993 C 181.9 605.256 198.246 599.984 199.036 592.866 C 199.3 585.748 194.384 586.361 194.027 586.539 "
           id="path877"
           nodetypes="csccc"
           transform="matrix(-1.000000,0.000000,0.000000,1.000000,770.1276,295.2256)" />
        <path
           style="font-size:12;fill:#cf1126;fill-rule:evenodd;stroke:#000000;stroke-width:2.5;stroke-dasharray:none;fill-opacity:1;"
           d="M 171.092 592.602 C 188.227 592.866 199.3 584.43 199.3 579.949 C 199.3 575.467 193.764 575.203 190.336 576.521 C 186.909 577.839 181.637 581.186 170.565 581.266 C 159.231 581.611 149.211 573.358 145.784 573.621 C 142.357 573.885 139.672 577.601 140.775 581.53 C 142.132 585.427 154.22 593.129 171.092 592.602 z "
           id="path878"
           nodetypes="cccscsc"
           transform="matrix(-1.000000,0.000000,0.000000,1.000000,770.1276,295.2256)" />
      </g>
    </g>
  </g>
</svg>
