<?xml version="1.0" encoding="UTF-8" standalone="no"?>
<!DOCTYPE svg PUBLIC "-//W3C//DTD SVG 20010904//EN"
"http://www.w3.org/TR/2001/REC-SVG-20010904/DTD/svg10.dtd"
[
 <!ATTLIST svg
  xmlns:xlink CDATA #FIXED "http://www.w3.org/1999/xlink">
]>
<!-- Created with Sodipodi ("http://www.sodipodi.com/") -->
<svg
   xmlns="http://www.w3.org/2000/svg"
   xmlns:xlink="http://www.w3.org/1999/xlink"
   version="1"
   x="0.00000000"
   y="0.00000000"
   width="744.094482"
   height="496.062988"
   id="svg548">
  <defs
     id="defs550" />
  <rect
     width="744.094482"
     height="496.062988"
     x="0.00000000"
     y="-0.00004800"
     style="font-size:12;fill:#1b0073;fill-rule:evenodd;stroke-width:1pt;"
     id="rect815" />
  <rect
     width="744.094482"
     height="248.031509"
     x="0.00000000"
     y="124.015762"
     style="font-size:12;fill:#e60006;fill-rule:evenodd;stroke-width:1pt;"
     id="rect837" />
  <rect
     width="177.165344"
     height="60.0000076"
     x="1422.73621"
     y="-573.673218"
     style="font-size:12;fill:#ffffff;fill-rule:evenodd;stroke:#e60000;stroke-width:1.63482pt;"
     id="rect1002" />
  <g
     transform="translate(0.000000,1.754761e-4)"
     style="font-size:12;"
     id="g1595">
    <rect
       width="315.354340"
       height="50.9922371"
       x="214.370087"
       y="-113.978821"
       transform="translate(0.000000,354.3307)"
       style="fill:#ffffff;fill-rule:evenodd;stroke:#e60000;stroke-width:1.17023;"
       id="rect1035" />
    <path
       d="M 220 280 L 215 295 L 535 295 L 530 280 L 220 280 z "
       transform="matrix(1.018701,0.000000,0.000000,0.799878,-9.965426,67.37808)"
       style="fill:#ffffff;fill-rule:evenodd;stroke:#e60000;stroke-width:1.25;"
       id="path632" />
    <path
       d="M 245 280 L 240 295 L 300 295 L 295 280 L 245 280 z "
       transform="matrix(1.235885,0.000000,0.000000,0.799878,160.4742,67.37851)"
       style="fill:#ffffff;fill-rule:evenodd;stroke:#e60000;stroke-width:1.12246;"
       id="path982" />
    <path
       d="M 245 280 L 240 295 L 300 295 L 295 280 L 245 280 z "
       transform="matrix(0.622451,0.000000,0.000000,0.799878,328.6379,67.37851)"
       style="fill:#ffffff;fill-rule:evenodd;stroke:#e60000;stroke-width:1.51963;"
       id="path983" />
    <path
       d="M 245 280 L 240 295 L 300 295 L 295 280 L 245 280 z "
       transform="matrix(0.402291,0.000000,0.000000,0.799878,388.1035,67.37851)"
       style="fill:#ffffff;fill-rule:evenodd;stroke:#e60000;stroke-width:2.02407;"
       id="path984" />
    <path
       d="M 245 280 L 240 295 L 300 295 L 295 280 L 245 280 z "
       transform="matrix(1.299213,0.000000,0.000000,0.799878,21.25974,67.37830)"
       style="fill:#ffffff;fill-rule:evenodd;stroke:#e60000;stroke-width:1.09772;"
       id="path636" />
    <rect
       width="318.897644"
       height="11.9982224"
       x="212.598419"
       y="239.576508"
       style="fill:#ffffff;fill-rule:evenodd;stroke:#e60000;stroke-width:0.948847pt;"
       id="rect976" />
    <g
       id="g1527">
      <rect
         width="62.4999924"
         height="50.7922859"
         x="462.791412"
         y="-113.870499"
         transform="translate(0.000000,354.3307)"
         style="fill:#ffffff;fill-rule:evenodd;stroke:#e60000;stroke-width:0.893396pt;"
         id="rect1001" />
      <rect
         width="6.24997616"
         height="26.9863567"
         x="507.500305"
         y="-90.0675278"
         transform="translate(0.000000,354.3307)"
         style="fill:#ffffff;fill-rule:evenodd;stroke:#e60000;stroke-width:0.804664;"
         id="rect637" />
      <rect
         width="6.25013208"
         height="26.9863567"
         x="480.000000"
         y="-90.0679474"
         transform="translate(0.000000,354.3307)"
         style="fill:#ffffff;fill-rule:evenodd;stroke:#e60000;stroke-width:0.804669;"
         id="rect639" />
    </g>
    <g
       id="g1517">
      <path
         d="M 245 280 L 240 295 L 300 295 L 295 280 L 245 280 z "
         transform="matrix(0.652611,0.000000,0.000000,0.799878,195.6307,67.37830)"
         style="fill:#ffffff;fill-rule:evenodd;stroke:#e60000;stroke-width:1.55426;"
         id="path637" />
      <path
         d="M 245 280 L 240 295 L 300 295 L 295 280 L 245 280 z "
         transform="matrix(0.409314,0.000000,0.000000,0.799878,261.5330,67.37808)"
         style="fill:#ffffff;fill-rule:evenodd;stroke:#e60000;stroke-width:1.95571;"
         id="path638" />
      <rect
         width="65.8543243"
         height="50.9922523"
         x="338.801819"
         y="-113.978951"
         transform="translate(0.000000,354.3307)"
         style="fill:#ffffff;fill-rule:evenodd;stroke:#e60000;stroke-width:0.918861pt;"
         id="rect1003" />
      <rect
         width="6.24983883"
         height="26.9863567"
         x="391.269653"
         y="-90.0723114"
         transform="translate(0.000000,354.3307)"
         style="fill:#ffffff;fill-rule:evenodd;stroke:#e60000;stroke-width:1.0398;"
         id="rect683" />
      <rect
         width="6.25431013"
         height="26.9863567"
         x="347.775574"
         y="-90.0746002"
         transform="translate(0.000000,354.3307)"
         style="fill:#ffffff;fill-rule:evenodd;stroke:#e60000;stroke-width:1.04016;"
         id="rect686" />
      <rect
         width="31.8897858"
         height="63.3196182"
         x="356.102356"
         y="-126.319618"
         transform="translate(0.000000,354.3307)"
         style="fill:#ffffff;fill-rule:evenodd;stroke:#e60000;stroke-width:0.712525pt;"
         id="rect687" />
      <rect
         width="6.24983883"
         height="26.9863567"
         x="380.019653"
         y="-90.0740509"
         transform="translate(0.000000,354.3307)"
         style="fill:#ffffff;fill-rule:evenodd;stroke:#e60000;stroke-width:1.0398;"
         id="rect684" />
      <rect
         width="6.25431013"
         height="26.9863567"
         x="359.033539"
         y="-90.0728531"
         transform="translate(0.000000,354.3307)"
         style="fill:#ffffff;fill-rule:evenodd;stroke:#e60000;stroke-width:1.04016;"
         id="rect685" />
      <path
         d="M 358.18 217.127 L 371.651 240.107 L 385.915 217.127 L 358.18 217.127 z "
         transform="matrix(1.000000,0.000000,0.000000,0.846538,0.000000,54.37670)"
         style="fill:#ffffff;fill-rule:evenodd;stroke:#e60000;stroke-width:1pt;"
         id="path759" />
    </g>
    <rect
       width="17.7165451"
       height="62.9904251"
       x="487.594543"
       y="-113.978729"
       transform="translate(0.000000,354.3307)"
       style="fill:#ffffff;fill-rule:evenodd;stroke:#e60000;stroke-width:1.1785;"
       id="rect1033" />
    <rect
       width="11.7992077"
       height="62.9904327"
       x="490.535492"
       y="-113.978821"
       transform="translate(0.000000,354.3307)"
       style="fill:#ffffff;fill-rule:evenodd;stroke:#e60000;stroke-width:1.1779;"
       id="rect1034" />
    <g
       id="g1508">
      <path
         d="M 245 280 L 240 295 L 300 295 L 295 280 L 245 280 z "
         transform="matrix(1.236023,0.000000,0.000000,0.799878,-84.44766,67.37851)"
         style="fill:#ffffff;fill-rule:evenodd;stroke:#e60000;stroke-width:1.12246;"
         id="path635" />
      <path
         d="M 245 280 L 240 295 L 300 295 L 295 280 L 245 280 z "
         transform="matrix(0.581103,0.000000,0.000000,0.799878,90.85617,67.37851)"
         style="fill:#ffffff;fill-rule:evenodd;stroke:#e60000;stroke-width:1.63678;"
         id="path634" />
      <path
         d="M 245 280 L 240 295 L 300 295 L 295 280 L 245 280 z "
         transform="matrix(0.370769,0.000000,0.000000,0.799878,147.5582,67.37851)"
         style="fill:#ffffff;fill-rule:evenodd;stroke:#e60000;stroke-width:2.04932;"
         id="path633" />
      <rect
         width="62.0078812"
         height="50.9922371"
         x="217.913406"
         y="-113.978714"
         transform="translate(0.000000,354.3307)"
         style="fill:#ffffff;fill-rule:evenodd;stroke:#e60000;stroke-width:0.891623pt;"
         id="rect1000" />
      <rect
         width="6.24988794"
         height="26.9863567"
         x="229.999985"
         y="-90.0657501"
         transform="translate(0.000000,354.3307)"
         style="fill:#ffffff;fill-rule:evenodd;stroke:#e60000;stroke-width:0.804665;"
         id="rect635" />
      <rect
         width="6.25001001"
         height="26.9863567"
         x="258.749969"
         y="-90.0650024"
         transform="translate(0.000000,354.3307)"
         style="fill:#ffffff;fill-rule:evenodd;stroke:#e60000;stroke-width:0.804665;"
         id="rect638" />
      <rect
         width="17.7165451"
         height="62.9904251"
         x="239.173233"
         y="-113.978584"
         transform="translate(0.000000,354.3307)"
         style="fill:#ffffff;fill-rule:evenodd;stroke:#e60000;stroke-width:1.1785;"
         id="rect986" />
      <rect
         width="11.7992077"
         height="62.9904327"
         x="242.114182"
         y="-113.978729"
         transform="translate(0.000000,354.3307)"
         style="fill:#ffffff;fill-rule:evenodd;stroke:#e60000;stroke-width:1.1779;"
         id="rect987" />
    </g>
    <rect
       width="325.984253"
       height="11.9982224"
       x="209.055130"
       y="228.349091"
       style="fill:#ffffff;fill-rule:evenodd;stroke:#e60000;stroke-width:0.959332pt;"
       id="rect726" />
    <g
       transform="matrix(1.000000,0.000000,0.000000,0.846538,0.000000,54.37670)"
       id="g598">
      <g
         transform="matrix(1.046638,0.000000,0.000000,1.041298,-36.79581,-6.023994)"
         id="g557">
        <rect
           width="406.249969"
           height="17.5000057"
           x="187.500000"
           y="328.562958"
           style="fill:#ffffff;fill-rule:evenodd;stroke:#e60000;stroke-width:1pt;"
           id="rect551" />
        <rect
           width="327.500000"
           height="17.5000057"
           x="226.249985"
           y="284.812958"
           style="fill:#ffffff;fill-rule:evenodd;stroke:#e60000;stroke-width:0.897857pt;"
           id="rect556" />
        <rect
           width="337.500000"
           height="17.5000057"
           x="221.249985"
           y="288.562958"
           style="fill:#ffffff;fill-rule:evenodd;stroke:#e60000;stroke-width:0.911462pt;"
           id="rect555" />
        <rect
           width="406.249969"
           height="17.5000057"
           x="187.500000"
           y="328.562958"
           style="fill:#ffffff;fill-rule:evenodd;stroke:#e60000;stroke-width:1pt;"
           id="rect552" />
        <rect
           width="356.250000"
           height="17.5000057"
           x="212.499985"
           y="298.562958"
           style="fill:#ffffff;fill-rule:evenodd;stroke:#e60000;stroke-width:0.936438pt;"
           id="rect554" />
        <rect
           width="381.250000"
           height="17.5000057"
           x="199.999985"
           y="311.062958"
           style="fill:#ffffff;fill-rule:evenodd;stroke:#e60000;stroke-width:0.968742pt;"
           id="rect553" />
      </g>
      <g
         transform="matrix(0.944882,0.000000,0.000000,1.020472,-32.48034,1.182846)"
         id="g615">
        <rect
           width="18.7499962"
           height="62.5000038"
           x="287.500000"
           y="283.562958"
           style="fill:#ffffff;fill-rule:evenodd;stroke:#e60000;stroke-width:1.02973pt;"
           id="rect613" />
        <rect
           width="12.4999981"
           height="62.5000038"
           x="290.625000"
           y="283.562958"
           style="fill:#ffffff;fill-rule:evenodd;stroke:#e60000;stroke-width:0.840771pt;"
           id="rect614" />
      </g>
      <g
         transform="matrix(0.944882,0.000000,0.000000,1.020472,215.5512,1.183113)"
         id="g621">
        <rect
           width="18.7499962"
           height="62.5000038"
           x="287.500000"
           y="283.562958"
           style="fill:#ffffff;fill-rule:evenodd;stroke:#e60000;stroke-width:1.02973pt;"
           id="rect622" />
        <rect
           width="12.4999981"
           height="62.5000038"
           x="290.625000"
           y="283.562958"
           style="fill:#ffffff;fill-rule:evenodd;stroke:#e60000;stroke-width:0.840771pt;"
           id="rect623" />
      </g>
      <rect
         width="60.0287056"
         height="0.00000000"
         x="290.249725"
         y="344.612732"
         style="fill:#ffffff;fill-rule:evenodd;stroke:#e60000;stroke-width:1.19585;"
         id="rect993" />
      <rect
         width="60.0287056"
         height="0.00000000"
         x="290.249725"
         y="344.612732"
         style="fill:#ffffff;fill-rule:evenodd;stroke:#e60000;stroke-width:1.19585;"
         id="rect995" />
      <rect
         width="60.0287056"
         height="0.00000000"
         x="112.956360"
         y="266.906708"
         style="fill:#ffffff;fill-rule:evenodd;stroke:#e60000;stroke-width:1.19585;"
         id="rect996" />
      <rect
         width="60.0287056"
         height="0.00000000"
         x="32.8253059"
         y="233.971542"
         style="fill:#ffffff;fill-rule:evenodd;stroke:#e60000;stroke-width:1.19585;"
         id="rect997" />
    </g>
    <rect
       width="14.2387543"
       height="113.983109"
       x="365.499512"
       y="240.346817"
       style="fill:#ffffff;fill-rule:evenodd;stroke:#e60000;stroke-width:1.20115;"
       id="rect626" />
    <g
       id="g1531">
      <path
         d="M 217.919 220.296 L 218.103 183.381 C 218.103 183.381 221.465 190.617 247.615 192.202 C 272.364 191.265 276.463 186.84 277.584 182.918 L 276.559 220.433 L 217.919 220.296 z "
         transform="matrix(0.943652,0.000000,0.000000,0.846538,261.1910,54.37670)"
         style="fill:#ffffff;fill-rule:evenodd;stroke:#e60000;stroke-width:1pt;"
         id="path801" />
      <g
         transform="translate(246.5474,2.241310)"
         id="g892">
        <path
           d="M 330.921 208.563 L 312.5 188.108 C 318.641 182.805 330.043 191.897 330.043 191.897 C 330.043 191.897 336.183 168.412 362.5 158.563 C 388.816 168.412 394.956 191.897 394.956 191.897 C 394.956 191.897 406.359 182.805 412.5 188.108 L 394.078 208.563 L 330.921 208.563 z "
           transform="matrix(0.414675,0.000000,0.000000,0.299955,99.01430,139.4772)"
           style="fill:#ffffff;fill-rule:evenodd;stroke:#e60000;stroke-width:3.52778;"
           id="path893" />
        <path
           d="M 330.921 208.563 L 312.5 188.108 C 318.641 182.805 330.043 191.897 330.043 191.897 C 330.043 191.897 336.183 168.412 362.5 158.563 C 388.816 168.412 394.956 191.897 394.956 191.897 C 394.956 191.897 406.359 182.805 412.5 188.108 L 394.078 208.563 L 330.921 208.563 z "
           transform="matrix(0.539076,0.000000,0.000000,0.419936,53.91861,130.3519)"
           style="fill:#ffffff;fill-rule:evenodd;stroke:#e60000;stroke-width:2.61496;"
           id="path894" />
      </g>
      <g
         transform="matrix(1.020471,0.000000,0.000000,1.119836,221.6073,77.95599)"
         id="g727">
        <path
           d="M 0 280.521 C 0.792433 280.521 30.1125 332.822 0 333.614 C -30.1125 334.407 0 282.106 0 280.521 z "
           transform="matrix(0.386597,0.000000,0.000000,0.353094,268.9156,-29.03514)"
           style="fill:#ffffff;fill-rule:evenodd;stroke:#e60000;stroke-width:3.38326;"
           id="path728" />
        <path
           d="M 330.921 208.563 L 312.5 188.108 C 318.641 182.805 330.043 191.897 330.043 191.897 C 330.043 191.897 336.183 168.412 362.5 158.563 C 388.816 168.412 394.956 191.897 394.956 191.897 C 394.956 191.897 406.359 182.805 412.5 188.108 L 394.078 208.563 L 330.921 208.563 z "
           transform="matrix(0.312500,0.000000,0.000000,0.140625,155.6687,64.12357)"
           style="fill:#ffffff;fill-rule:evenodd;stroke:#e60000;stroke-width:5.96285;"
           id="path729" />
        <path
           d="M 330.921 208.563 C 330.921 208.563 330.043 191.897 330.043 191.897 C 330.043 191.897 336.183 168.412 362.5 158.563 C 388.816 168.412 394.956 191.897 394.956 191.897 L 394.078 208.563 L 330.921 208.563 z "
           transform="matrix(0.160471,0.000000,0.000000,0.140625,210.7792,66.46732)"
           style="fill:#ffffff;fill-rule:evenodd;stroke:#e60000;stroke-width:8.32109;"
           id="path730" />
        <path
           d="M 330.921 208.563 C 330.921 208.563 330.043 191.897 330.043 191.897 C 330.043 191.897 336.183 168.412 362.5 158.563 C 388.816 168.412 394.956 191.897 394.956 191.897 L 394.078 208.563 L 330.921 208.563 z "
           transform="matrix(0.320943,0.000000,0.000000,0.187500,152.6085,63.72217)"
           style="fill:#ffffff;fill-rule:evenodd;stroke:#e60000;stroke-width:5.0956;"
           id="path731" />
        <path
           d="M 330.921 208.563 C 330.921 208.563 330.043 191.897 330.043 191.897 C 330.043 191.897 336.183 168.412 362.5 158.563 C 388.816 168.412 394.956 191.897 394.956 191.897 L 394.078 208.563 L 330.921 208.563 z "
           transform="matrix(0.320943,0.000000,0.000000,0.187500,152.6085,68.40971)"
           style="fill:#ffffff;fill-rule:evenodd;stroke:#e60000;stroke-width:5.0956;"
           id="path732" />
        <path
           d="M 330.921 208.563 L 312.5 188.108 C 318.641 182.805 330.043 191.897 330.043 191.897 C 330.043 191.897 336.183 168.412 362.5 158.563 C 388.816 168.412 394.956 191.897 394.956 191.897 C 394.956 191.897 406.359 182.805 412.5 188.108 L 394.078 208.563 L 330.921 208.563 z "
           transform="matrix(0.312500,0.000000,0.000000,0.375000,155.6687,43.36657)"
           style="fill:#ffffff;fill-rule:evenodd;stroke:#e60000;stroke-width:3.65148;"
           id="path733" />
        <path
           d="M 330.921 208.563 L 312.5 188.108 C 318.641 182.805 330.043 191.897 330.043 191.897 C 330.043 191.897 336.183 168.412 362.5 158.563 C 388.816 168.412 394.956 191.897 394.956 191.897 C 394.956 191.897 406.359 182.805 412.5 188.108 L 394.078 208.563 L 330.921 208.563 z "
           transform="matrix(0.312500,0.000000,0.000000,0.375000,155.6687,52.74157)"
           style="fill:#ffffff;fill-rule:evenodd;stroke:#e60000;stroke-width:3.65148;"
           id="path734" />
        <path
           d="M 330.921 208.563 C 330.921 208.563 330.043 191.897 330.043 191.897 C 330.043 191.897 336.183 168.412 362.5 158.563 C 388.816 168.412 394.956 191.897 394.956 191.897 L 394.078 208.563 L 330.921 208.563 z "
           transform="matrix(0.320943,0.000000,0.000000,0.468750,152.6085,47.25131)"
           style="fill:#ffffff;fill-rule:evenodd;stroke:#e60000;stroke-width:3.22274;"
           id="path735" />
        <path
           d="M 330.921 208.563 L 312.5 188.108 C 318.641 182.805 330.043 191.897 330.043 191.897 C 330.043 191.897 336.183 168.412 362.5 158.563 C 388.816 168.412 394.956 191.897 394.956 191.897 C 394.956 191.897 406.359 182.805 412.5 188.108 L 394.078 208.563 L 330.921 208.563 z "
           transform="matrix(0.312500,0.000000,0.000000,0.281250,155.6687,86.35687)"
           style="fill:#ffffff;fill-rule:evenodd;stroke:#e60000;stroke-width:4.21637;"
           id="path736" />
      </g>
    </g>
    <g
       id="g1546">
      <g
         transform="translate(-1.120682,-1.525879e-5)"
         id="g889">
        <path
           d="M 330.921 208.563 L 312.5 188.108 C 318.641 182.805 330.043 191.897 330.043 191.897 C 330.043 191.897 336.183 168.412 362.5 158.563 C 388.816 168.412 394.956 191.897 394.956 191.897 C 394.956 191.897 406.359 182.805 412.5 188.108 L 394.078 208.563 L 330.921 208.563 z "
           transform="matrix(0.414675,0.000000,0.000000,0.299955,99.01430,139.4772)"
           style="fill:#ffffff;fill-rule:evenodd;stroke:#e60000;stroke-width:3.52778;"
           id="path874" />
        <path
           d="M 330.921 208.563 L 312.5 188.108 C 318.641 182.805 330.043 191.897 330.043 191.897 C 330.043 191.897 336.183 168.412 362.5 158.563 C 388.816 168.412 394.956 191.897 394.956 191.897 C 394.956 191.897 406.359 182.805 412.5 188.108 L 394.078 208.563 L 330.921 208.563 z "
           transform="matrix(0.539076,0.000000,0.000000,0.419936,53.91861,130.3519)"
           style="fill:#ffffff;fill-rule:evenodd;stroke:#e60000;stroke-width:2.61496;"
           id="path879" />
      </g>
      <path
         d="M 217.919 220.296 L 218.103 183.381 C 218.103 183.381 221.465 190.617 247.615 192.202 C 272.364 191.265 276.463 186.84 277.584 182.918 L 276.559 220.433 L 217.919 220.296 z "
         transform="matrix(0.943652,0.000000,0.000000,0.846538,15.64132,54.37670)"
         style="fill:#ffffff;fill-rule:evenodd;stroke:#e60000;stroke-width:1pt;"
         id="path800" />
      <g
         transform="matrix(1.020471,0.000000,0.000000,1.119836,-26.42415,77.95599)"
         id="g603">
        <path
           d="M 0 280.521 C 0.792433 280.521 30.1125 332.822 0 333.614 C -30.1125 334.407 0 282.106 0 280.521 z "
           transform="matrix(0.386597,0.000000,0.000000,0.353094,268.9156,-29.03514)"
           style="fill:#ffffff;fill-rule:evenodd;stroke:#e60000;stroke-width:3.38326;"
           id="path583" />
        <path
           d="M 330.921 208.563 L 312.5 188.108 C 318.641 182.805 330.043 191.897 330.043 191.897 C 330.043 191.897 336.183 168.412 362.5 158.563 C 388.816 168.412 394.956 191.897 394.956 191.897 C 394.956 191.897 406.359 182.805 412.5 188.108 L 394.078 208.563 L 330.921 208.563 z "
           transform="matrix(0.312500,0.000000,0.000000,0.140625,155.6687,64.12357)"
           style="fill:#ffffff;fill-rule:evenodd;stroke:#e60000;stroke-width:5.96285;"
           id="path582" />
        <path
           d="M 330.921 208.563 C 330.921 208.563 330.043 191.897 330.043 191.897 C 330.043 191.897 336.183 168.412 362.5 158.563 C 388.816 168.412 394.956 191.897 394.956 191.897 L 394.078 208.563 L 330.921 208.563 z "
           transform="matrix(0.160471,0.000000,0.000000,0.140625,210.7792,66.46732)"
           style="fill:#ffffff;fill-rule:evenodd;stroke:#e60000;stroke-width:8.32109;"
           id="path581" />
        <path
           d="M 330.921 208.563 C 330.921 208.563 330.043 191.897 330.043 191.897 C 330.043 191.897 336.183 168.412 362.5 158.563 C 388.816 168.412 394.956 191.897 394.956 191.897 L 394.078 208.563 L 330.921 208.563 z "
           transform="matrix(0.320943,0.000000,0.000000,0.187500,152.6085,63.72217)"
           style="fill:#ffffff;fill-rule:evenodd;stroke:#e60000;stroke-width:5.0956;"
           id="path580" />
        <path
           d="M 330.921 208.563 C 330.921 208.563 330.043 191.897 330.043 191.897 C 330.043 191.897 336.183 168.412 362.5 158.563 C 388.816 168.412 394.956 191.897 394.956 191.897 L 394.078 208.563 L 330.921 208.563 z "
           transform="matrix(0.320943,0.000000,0.000000,0.187500,152.6085,68.40971)"
           style="fill:#ffffff;fill-rule:evenodd;stroke:#e60000;stroke-width:5.0956;"
           id="path579" />
        <path
           d="M 330.921 208.563 L 312.5 188.108 C 318.641 182.805 330.043 191.897 330.043 191.897 C 330.043 191.897 336.183 168.412 362.5 158.563 C 388.816 168.412 394.956 191.897 394.956 191.897 C 394.956 191.897 406.359 182.805 412.5 188.108 L 394.078 208.563 L 330.921 208.563 z "
           transform="matrix(0.312500,0.000000,0.000000,0.375000,155.6687,43.36657)"
           style="fill:#ffffff;fill-rule:evenodd;stroke:#e60000;stroke-width:3.65148;"
           id="path576" />
        <path
           d="M 330.921 208.563 L 312.5 188.108 C 318.641 182.805 330.043 191.897 330.043 191.897 C 330.043 191.897 336.183 168.412 362.5 158.563 C 388.816 168.412 394.956 191.897 394.956 191.897 C 394.956 191.897 406.359 182.805 412.5 188.108 L 394.078 208.563 L 330.921 208.563 z "
           transform="matrix(0.312500,0.000000,0.000000,0.375000,155.6687,52.74157)"
           style="fill:#ffffff;fill-rule:evenodd;stroke:#e60000;stroke-width:3.65148;"
           id="path575" />
        <path
           d="M 330.921 208.563 C 330.921 208.563 330.043 191.897 330.043 191.897 C 330.043 191.897 336.183 168.412 362.5 158.563 C 388.816 168.412 394.956 191.897 394.956 191.897 L 394.078 208.563 L 330.921 208.563 z "
           transform="matrix(0.320943,0.000000,0.000000,0.468750,152.6085,47.25131)"
           style="fill:#ffffff;fill-rule:evenodd;stroke:#e60000;stroke-width:3.22274;"
           id="path578" />
        <path
           d="M 330.921 208.563 L 312.5 188.108 C 318.641 182.805 330.043 191.897 330.043 191.897 C 330.043 191.897 336.183 168.412 362.5 158.563 C 388.816 168.412 394.956 191.897 394.956 191.897 C 394.956 191.897 406.359 182.805 412.5 188.108 L 394.078 208.563 L 330.921 208.563 z "
           transform="matrix(0.312500,0.000000,0.000000,0.281250,155.6687,86.35687)"
           style="fill:#ffffff;fill-rule:evenodd;stroke:#e60000;stroke-width:4.21637;"
           id="path574" />
      </g>
    </g>
    <g
       id="g1561">
      <rect
         width="85.0393753"
         height="12.8976488"
         ry="6.44882441"
         x="329.527557"
         y="226.275208"
         style="fill:#ffffff;fill-rule:evenodd;stroke:#e60000;stroke-width:1.22556;"
         id="rect901" />
      <path
         d="M 353.237 -212.598 L 354.33 -269.291 C 354.33 -269.291 351.05 -255.385 341.207 -255.385 C 331.365 -255.385 200.131 -255.385 190.289 -255.385 C 180.446 -255.385 177.165 -269.291 177.165 -269.291 L 178.258 -212.598 L 353.237 -212.598 z "
         transform="matrix(0.500001,0.000000,0.000000,0.749999,239.1742,393.3066)"
         style="fill:#ffffff;fill-rule:evenodd;stroke:#e60000;stroke-width:1.57888;"
         id="path900" />
      <g
         transform="translate(-4.359144e-5,-7.790161)"
         id="g860">
        <path
           d="M 510.488 70.2193 L 510.897 44.61 C 510.897 44.61 534.454 41.6116 531.185 35.2781 C 527.915 28.9447 499.581 43.2639 499.581 43.2639 L 386.246 43.2639 C 386.246 43.2639 357.911 28.9447 354.642 35.2781 C 351.373 41.6116 374.93 44.61 374.93 44.61 L 375.338 70.2193 L 510.488 70.2193 z "
           transform="matrix(0.399999,0.000000,0.000000,0.574345,194.8822,182.0210)"
           style="fill:#ffffff;fill-rule:evenodd;stroke:#e60000;stroke-width:2.39948;"
           id="path807" />
        <path
           d="M 510.488 70.2193 L 510.897 44.61 C 510.897 44.61 534.454 41.6116 531.185 35.2781 C 527.915 28.9447 499.581 43.2639 499.581 43.2639 L 386.246 43.2639 C 386.246 43.2639 357.911 28.9447 354.642 35.2781 C 351.373 41.6116 374.93 44.61 374.93 44.61 L 375.338 70.2193 L 510.488 70.2193 z "
           transform="matrix(0.479999,0.000000,0.000000,0.574345,159.4492,194.0191)"
           style="fill:#ffffff;fill-rule:evenodd;stroke:#e60000;stroke-width:2.19042;"
           id="path806" />
        <path
           d="M 510.488 70.2193 L 510.897 44.61 C 510.897 44.61 534.454 41.6115 531.185 35.2781 C 527.915 28.9447 503.896 16.9175 469.375 4.19847 C 445.092 -1.70668 500.639 -22.1481 448.307 -23.5108 C 400.29 -22.7537 442.893 -0.1926 427.24 5.10692 C 388.404 16.9173 357.911 28.9447 354.642 35.2781 C 351.373 41.6115 374.93 44.61 374.93 44.61 L 375.338 70.2193 L 510.488 70.2193 z "
           transform="matrix(0.129852,0.000000,0.000000,0.261059,314.1666,141.8694)"
           style="fill:#ffffff;fill-rule:evenodd;stroke:#e60000;stroke-width:6.24653;"
           id="path814" />
        <path
           d="M 510.488 70.2193 L 510.897 44.61 C 510.897 44.61 534.454 41.6116 531.185 35.2781 C 527.915 28.9447 499.581 43.2639 499.581 43.2639 L 386.246 43.2639 C 386.246 43.2639 357.911 28.9447 354.642 35.2781 C 351.373 41.6116 374.93 44.61 374.93 44.61 L 375.338 70.2193 L 510.488 70.2193 z "
           transform="matrix(0.283325,0.000000,0.000000,0.469916,246.5542,164.5394)"
           style="fill:#ffffff;fill-rule:evenodd;stroke:#e60000;stroke-width:3.15197;"
           id="path808" />
        <path
           d="M 510.488 70.2193 L 510.897 44.61 C 510.897 44.61 534.454 41.6116 531.185 35.2781 C 527.915 28.9447 499.581 43.2639 499.581 43.2639 L 386.246 43.2639 C 386.246 43.2639 357.911 28.9447 354.642 35.2781 C 351.373 41.6116 374.93 44.61 374.93 44.61 L 375.338 70.2193 L 510.488 70.2193 z "
           transform="matrix(0.340000,0.000000,0.000000,0.469916,221.4567,174.3561)"
           style="fill:#ffffff;fill-rule:evenodd;stroke:#e60000;stroke-width:2.8773;"
           id="path809" />
        <path
           d="M 510.488 70.2193 L 510.897 44.61 C 510.897 44.61 534.454 41.6116 531.185 35.2781 C 527.915 28.9447 499.581 43.2639 499.581 43.2639 L 386.246 43.2639 C 386.246 43.2639 357.911 28.9447 354.642 35.2781 C 351.373 41.6116 374.93 44.61 374.93 44.61 L 375.338 70.2193 L 510.488 70.2193 z "
           transform="matrix(0.183332,0.000000,0.000000,0.319083,290.8462,157.2847)"
           style="fill:#ffffff;fill-rule:evenodd;stroke:#e60000;stroke-width:4.75517;"
           id="path810" />
        <path
           d="M 510.488 70.2193 L 510.897 44.61 C 510.897 44.61 534.454 41.6116 531.185 35.2781 C 527.915 28.9447 499.581 43.2639 499.581 43.2639 L 386.246 43.2639 C 386.246 43.2639 357.911 28.9447 354.642 35.2781 C 351.373 41.6116 374.93 44.61 374.93 44.61 L 375.338 70.2193 L 510.488 70.2193 z "
           transform="matrix(0.220000,0.000000,0.000000,0.319083,274.6063,163.9515)"
           style="fill:#ffffff;fill-rule:evenodd;stroke:#e60000;stroke-width:4.34084;"
           id="path811" />
        <path
           d="M 510.488 70.2193 L 510.897 44.61 C 510.897 44.61 534.454 41.6116 531.185 35.2781 C 527.915 28.9447 499.581 43.2639 499.581 43.2639 L 386.246 43.2639 C 386.246 43.2639 357.911 28.9447 354.642 35.2781 C 351.373 41.6116 374.93 44.61 374.93 44.61 L 375.338 70.2193 L 510.488 70.2193 z "
           transform="matrix(0.129852,0.000000,0.000000,0.261059,314.5287,147.5737)"
           style="fill:#ffffff;fill-rule:evenodd;stroke:#e60000;stroke-width:6.24653;"
           id="path812" />
        <path
           d="M 510.488 70.2193 L 510.897 44.61 C 510.897 44.61 534.454 41.6116 531.185 35.2781 C 527.915 28.9447 499.581 43.2639 499.581 43.2639 L 386.246 43.2639 C 386.246 43.2639 357.911 28.9447 354.642 35.2781 C 351.373 41.6116 374.93 44.61 374.93 44.61 L 375.338 70.2193 L 510.488 70.2193 z "
           transform="matrix(0.155833,0.000000,0.000000,0.261059,303.0256,153.0271)"
           style="fill:#ffffff;fill-rule:evenodd;stroke:#e60000;stroke-width:5.70208;"
           id="path813" />
      </g>
      <g
         transform="matrix(1.000000,0.000000,0.000000,0.846538,-3.848958e-5,54.37666)"
         id="g789">
        <path
           d="M 330.921 208.563 L 312.5 188.108 C 318.641 182.805 330.043 191.897 330.043 191.897 C 330.043 191.897 336.183 168.412 362.5 158.563 C 388.816 168.412 394.956 191.897 394.956 191.897 C 394.956 191.897 406.359 182.805 412.5 188.108 L 394.078 208.563 L 330.921 208.563 z "
           transform="matrix(0.177166,0.000000,0.000000,0.212599,307.8246,85.00384)"
           style="fill:#ffffff;fill-rule:evenodd;stroke:#e60000;stroke-width:5.44347;"
           id="path767" />
        <path
           d="M 330.921 208.563 L 312.5 188.108 C 318.641 182.805 330.043 191.897 330.043 191.897 C 330.043 191.897 336.183 168.412 362.5 158.563 C 388.816 168.412 394.956 191.897 394.956 191.897 C 394.956 191.897 406.359 182.805 412.5 188.108 L 394.078 208.563 L 330.921 208.563 z "
           transform="matrix(0.248032,0.000000,0.000000,0.212599,282.1357,92.09048)"
           style="fill:#ffffff;fill-rule:evenodd;stroke:#e60000;stroke-width:5.44347;"
           id="path766" />
        <path
           d="M 330.921 208.563 L 312.5 188.108 C 318.641 182.805 330.043 191.897 330.043 191.897 C 330.043 191.897 336.183 168.412 362.5 158.563 C 388.816 168.412 394.956 191.897 394.956 191.897 C 394.956 191.897 406.359 182.805 412.5 188.108 L 394.078 208.563 L 330.921 208.563 z "
           transform="matrix(0.283465,0.000000,0.000000,0.283465,269.2912,89.70534)"
           style="fill:#ffffff;fill-rule:evenodd;stroke:#e60000;stroke-width:4.40972;"
           id="path765" />
        <path
           d="M 330.921 208.563 L 312.5 188.108 C 318.641 182.805 330.043 191.897 330.043 191.897 C 330.043 191.897 336.183 168.412 362.5 158.563 C 388.816 168.412 394.956 191.897 394.956 191.897 C 394.956 191.897 406.359 182.805 412.5 188.108 L 394.078 208.563 L 330.921 208.563 z "
           transform="matrix(0.354331,0.000000,0.000000,0.354331,243.6023,90.15479)"
           style="fill:#ffffff;fill-rule:evenodd;stroke:#e60000;stroke-width:3.52778;"
           id="path764" />
        <path
           d="M 358.18 217.127 L 371.651 240.107 L 385.915 217.127 L 358.18 217.127 z "
           transform="matrix(0.923077,0.000000,0.000000,0.796018,28.61885,3.752388)"
           style="fill:#ffffff;fill-rule:evenodd;stroke:#e60000;stroke-width:1.45824;"
           id="path762" />
        <path
           d="M 330.921 208.563 L 312.5 188.108 C 318.641 182.805 330.043 191.897 330.043 191.897 C 330.043 191.897 336.183 168.412 362.5 158.563 C 388.816 168.412 394.956 191.897 394.956 191.897 C 394.956 191.897 406.359 182.805 412.5 188.108 L 394.078 208.563 L 330.921 208.563 z "
           transform="matrix(0.425197,0.000000,0.000000,0.394872,217.9134,96.26242)"
           style="fill:#ffffff;fill-rule:evenodd;stroke:#e60000;stroke-width:3.05061;"
           id="path763" />
        <path
           d="M 358.18 217.127 L 371.651 240.107 L 385.915 217.127 L 358.18 217.127 z "
           transform="translate(-1.202225e-4,-20.42196)"
           style="fill:#ffffff;fill-rule:evenodd;stroke:#e60000;stroke-width:1.25;"
           id="path760" />
        <path
           d="M 330.921 208.563 L 312.5 188.108 C 318.641 182.805 330.043 191.897 330.043 191.897 C 330.043 191.897 336.183 168.412 362.5 158.563 C 388.816 168.412 394.956 191.897 394.956 191.897 C 394.956 191.897 406.359 182.805 412.5 188.108 L 394.078 208.563 L 330.921 208.563 z "
           transform="matrix(0.460630,0.000000,0.000000,0.496063,205.0689,95.81519)"
           style="fill:#ffffff;fill-rule:evenodd;stroke:#e60000;stroke-width:2.61496;"
           id="path761" />
        <path
           d="M 330.921 208.563 L 312.5 188.108 C 318.641 182.805 330.043 191.897 330.043 191.897 C 330.043 191.897 336.183 168.412 362.5 158.563 C 388.816 168.412 394.956 191.897 394.956 191.897 C 394.956 191.897 406.359 182.805 412.5 188.108 L 394.078 208.563 L 330.921 208.563 z "
           transform="matrix(0.460630,0.000000,0.000000,0.496063,205.0689,116.2247)"
           style="fill:#ffffff;fill-rule:evenodd;stroke:#e60000;stroke-width:2.61496;"
           id="path746" />
      </g>
    </g>
    <g
       id="g1584">
      <rect
         width="6.24983883"
         height="26.9863567"
         x="285.342529"
         y="-90.0699692"
         transform="translate(0.000000,354.3307)"
         style="fill:#ffffff;fill-rule:evenodd;stroke:#e60000;stroke-width:1.0398;"
         id="rect644" />
      <rect
         width="6.24983883"
         height="26.9863567"
         x="306.592529"
         y="-90.0724564"
         transform="translate(0.000000,354.3307)"
         style="fill:#ffffff;fill-rule:evenodd;stroke:#e60000;stroke-width:1.0398;"
         id="rect649" />
      <rect
         width="6.24983883"
         height="26.9863567"
         x="296.592529"
         y="-90.0729980"
         transform="translate(0.000000,354.3307)"
         style="fill:#ffffff;fill-rule:evenodd;stroke:#e60000;stroke-width:1.0398;"
         id="rect650" />
      <rect
         width="6.24983883"
         height="26.9863567"
         x="410.137787"
         y="-90.0714722"
         transform="translate(0.000000,354.3307)"
         style="fill:#ffffff;fill-rule:evenodd;stroke:#e60000;stroke-width:1.0398;"
         id="rect652" />
      <rect
         width="6.24983883"
         height="26.9863567"
         x="452.637756"
         y="-90.0727768"
         transform="translate(0.000000,354.3307)"
         style="fill:#ffffff;fill-rule:evenodd;stroke:#e60000;stroke-width:1.0398;"
         id="rect653" />
      <rect
         width="6.24983883"
         height="26.9863567"
         x="431.387787"
         y="-90.0739670"
         transform="translate(0.000000,354.3307)"
         style="fill:#ffffff;fill-rule:evenodd;stroke:#e60000;stroke-width:1.0398;"
         id="rect654" />
      <rect
         width="6.24983883"
         height="26.9863567"
         x="421.387787"
         y="-90.0745087"
         transform="translate(0.000000,354.3307)"
         style="fill:#ffffff;fill-rule:evenodd;stroke:#e60000;stroke-width:1.0398;"
         id="rect655" />
      <rect
         width="6.24983883"
         height="26.9863567"
         x="441.387787"
         y="-90.0745316"
         transform="translate(0.000000,354.3307)"
         style="fill:#ffffff;fill-rule:evenodd;stroke:#e60000;stroke-width:1.0398;"
         id="rect656" />
      <rect
         width="6.24983883"
         height="26.9863567"
         x="327.842499"
         y="-90.0712738"
         transform="translate(0.000000,354.3307)"
         style="fill:#ffffff;fill-rule:evenodd;stroke:#e60000;stroke-width:1.0398;"
         id="rect648" />
      <rect
         width="6.24983883"
         height="26.9863567"
         x="316.592529"
         y="-90.0730209"
         transform="translate(0.000000,354.3307)"
         style="fill:#ffffff;fill-rule:evenodd;stroke:#e60000;stroke-width:1.0398;"
         id="rect651" />
    </g>
  </g>
</svg>
