<?xml version="1.0" encoding="UTF-8" standalone="no"?>
<!DOCTYPE svg PUBLIC "-//W3C//DTD SVG 20010904//EN"
"http://www.w3.org/TR/2001/REC-SVG-20010904/DTD/svg10.dtd">
<!-- Created with Sodipodi ("http://www.sodipodi.com/") -->
<svg
   id="svg153"
   sodipodi:version="0.32"
   width="232mm"
   height="140mm"
   sodipodi:docname="/home/cschalle/sodipodi-flags/nations/capeverde.svg"
   xmlns="http://www.w3.org/2000/svg"
   xmlns:sodipodi="http://sodipodi.sourceforge.net/DTD/sodipodi-0.dtd"
   xmlns:xlink="http://www.w3.org/1999/xlink"
   sodipodi:docbase="/home/cschalle/sodipodi-flags/nations">
  <desc
     id="desc549">
The United States of America flag, produced by Daniel McRae</desc>
  <defs
     id="defs155" />
  <sodipodi:namedview
     id="base"
     snaptogrid="false"
     showgrid="true"
     gridoriginx="-1mm"
     gridoriginy="2mm"
     gridspacingx="10mm"
     gridspacingy="10mm" />
  <rect
     style="font-size:12;fill:#ffffff;fill-rule:evenodd;stroke-width:1pt;fill-opacity:1;"
     id="rect808"
     width="821.998596"
     height="200.000168"
     x="0.570595"
     y="229.364044" />
  <rect
     style="font-size:12;fill:#081873;fill-rule:evenodd;stroke-width:1pt;"
     id="rect200"
     width="821.431274"
     height="249.205817"
     x="1.222717"
     y="3.067216" />
  <rect
     style="font-size:12;fill:#081873;fill-rule:evenodd;stroke-width:1pt;"
     id="rect648"
     width="1421.652740"
     height="210.440518"
     x="3.543290"
     y="643.951006"
     transform="matrix(0.582013,0.000000,0.000000,0.582013,-0.608890,2.961983)" />
  <rect
     style="font-size:12;fill:#de3929;fill-rule:evenodd;stroke-width:1pt;"
     id="rect728"
     width="821.431214"
     height="38.500375"
     x="1.453355"
     y="296.852461" />
  <polygon
     sodipodi:type="star"
     style="font-size:12;fill:#ffce08;fill-rule:evenodd;stroke-width:0.125;"
     id="polygon723"
     sodipodi:sides="5"
     points="0,-4.004 0.898954009,-1.2373040455 3.808030291,-1.2373040455 1.454538141067,0.4726080910 2.35349215,3.2393040455 0,1.529391909 -2.35349215,3.2393040455 -1.454538141067,0.472608091 -3.808030291,-1.2373040455 -0.898954009,-1.2373040455 0,-4.004 "
     sodipodi:arg1="-1.570796"
     sodipodi:arg2="-0.942477796"
     sodipodi:r1="4.004000"
     sodipodi:cx="0.000000"
     sodipodi:cy="0.000000"
     sodipodi:r2="1.529391909"
     transform="matrix(7.183647,0.000000,0.000000,7.183652,247.5460,419.4284)" />
  <polygon
     sodipodi:type="star"
     style="font-size:12;fill:#ffce08;fill-rule:evenodd;stroke-width:0.125;"
     id="polygon730"
     sodipodi:sides="5"
     points="0,-4.004 0.898954009,-1.2373040455 3.808030291,-1.2373040455 1.454538141067,0.4726080910 2.35349215,3.2393040455 0,1.529391909 -2.35349215,3.2393040455 -1.454538141067,0.472608091 -3.808030291,-1.2373040455 -0.898954009,-1.2373040455 0,-4.004 "
     sodipodi:arg1="-1.570796"
     sodipodi:arg2="-0.942477796"
     sodipodi:r1="4.004000"
     sodipodi:cx="0.000000"
     sodipodi:cy="0.000000"
     sodipodi:r2="1.529391909"
     transform="matrix(7.183647,0.000000,0.000000,7.183652,428.1523,275.0709)" />
  <polygon
     sodipodi:type="star"
     style="font-size:12;fill:#ffce08;fill-rule:evenodd;stroke-width:0.125;"
     id="polygon731"
     sodipodi:sides="5"
     points="0,-4.004 0.898954009,-1.2373040455 3.808030291,-1.2373040455 1.454538141067,0.4726080910 2.35349215,3.2393040455 0,1.529391909 -2.35349215,3.2393040455 -1.454538141067,0.472608091 -3.808030291,-1.2373040455 -0.898954009,-1.2373040455 0,-4.004 "
     sodipodi:arg1="-1.570796"
     sodipodi:arg2="-0.942477796"
     sodipodi:r1="4.004000"
     sodipodi:cx="0.000000"
     sodipodi:cy="0.000000"
     sodipodi:r2="1.529391909"
     transform="matrix(7.183647,0.000000,0.000000,7.183652,206.1356,357.5609)" />
  <polygon
     sodipodi:type="star"
     style="font-size:12;fill:#ffce08;fill-rule:evenodd;stroke-width:0.125;"
     id="polygon732"
     sodipodi:sides="5"
     points="0,-4.004 0.898954009,-1.2373040455 3.808030291,-1.2373040455 1.454538141067,0.4726080910 2.35349215,3.2393040455 0,1.529391909 -2.35349215,3.2393040455 -1.454538141067,0.472608091 -3.808030291,-1.2373040455 -0.898954009,-1.2373040455 0,-4.004 "
     sodipodi:arg1="-1.570796"
     sodipodi:arg2="-0.942477796"
     sodipodi:r1="4.004000"
     sodipodi:cx="0.000000"
     sodipodi:cy="0.000000"
     sodipodi:r2="1.529391909"
     transform="matrix(7.183647,0.000000,0.000000,7.183652,428.1523,351.7408)" />
  <polygon
     sodipodi:type="star"
     style="font-size:12;fill:#ffce08;fill-rule:evenodd;stroke-width:0.125;"
     id="polygon733"
     sodipodi:sides="5"
     points="0,-4.004 0.898954009,-1.2373040455 3.808030291,-1.2373040455 1.454538141067,0.4726080910 2.35349215,3.2393040455 0,1.529391909 -2.35349215,3.2393040455 -1.454538141067,0.472608091 -3.808030291,-1.2373040455 -0.898954009,-1.2373040455 0,-4.004 "
     sodipodi:arg1="-1.570796"
     sodipodi:arg2="-0.942477796"
     sodipodi:r1="4.004000"
     sodipodi:cx="0.000000"
     sodipodi:cy="0.000000"
     sodipodi:r2="1.529391909"
     transform="matrix(7.183647,0.000000,0.000000,7.183652,382.4235,214.5598)" />
  <polygon
     sodipodi:type="star"
     style="font-size:12;fill:#ffce08;fill-rule:evenodd;stroke-width:0.125;"
     id="polygon734"
     sodipodi:sides="5"
     points="0,-4.004 0.898954009,-1.2373040455 3.808030291,-1.2373040455 1.454538141067,0.4726080910 2.35349215,3.2393040455 0,1.529391909 -2.35349215,3.2393040455 -1.454538141067,0.472608091 -3.808030291,-1.2373040455 -0.898954009,-1.2373040455 0,-4.004 "
     sodipodi:arg1="-1.570796"
     sodipodi:arg2="-0.942477796"
     sodipodi:r1="4.004000"
     sodipodi:cx="0.000000"
     sodipodi:cy="0.000000"
     sodipodi:r2="1.529391909"
     transform="matrix(7.183647,0.000000,0.000000,7.183652,313.3994,190.5227)" />
  <polygon
     sodipodi:type="star"
     style="font-size:12;fill:#ffce08;fill-rule:evenodd;stroke-width:0.125;"
     id="polygon735"
     sodipodi:sides="5"
     points="0,-4.004 0.898954009,-1.2373040455 3.808030291,-1.2373040455 1.454538141067,0.4726080910 2.35349215,3.2393040455 0,1.529391909 -2.35349215,3.2393040455 -1.454538141067,0.472608091 -3.808030291,-1.2373040455 -0.898954009,-1.2373040455 0,-4.004 "
     sodipodi:arg1="-1.570796"
     sodipodi:arg2="-0.942477796"
     sodipodi:r1="4.004000"
     sodipodi:cx="0.000000"
     sodipodi:cy="0.000000"
     sodipodi:r2="1.529391909"
     transform="matrix(7.183647,0.000000,0.000000,7.183652,244.3772,213.2034)" />
  <polygon
     sodipodi:type="star"
     style="font-size:12;fill:#ffce08;fill-rule:evenodd;stroke-width:0.125;"
     id="polygon736"
     sodipodi:sides="5"
     points="0,-4.004 0.898954009,-1.2373040455 3.808030291,-1.2373040455 1.454538141067,0.4726080910 2.35349215,3.2393040455 0,1.529391909 -2.35349215,3.2393040455 -1.454538141067,0.472608091 -3.808030291,-1.2373040455 -0.898954009,-1.2373040455 0,-4.004 "
     sodipodi:arg1="-1.570796"
     sodipodi:arg2="-0.942477796"
     sodipodi:r1="4.004000"
     sodipodi:cx="0.000000"
     sodipodi:cy="0.000000"
     sodipodi:r2="1.529391909"
     transform="matrix(7.183647,0.000000,0.000000,7.183652,204.1093,275.0709)" />
  <polygon
     sodipodi:type="star"
     style="font-size:12;fill:#ffce08;fill-rule:evenodd;stroke-width:0.125;"
     id="polygon737"
     sodipodi:sides="5"
     points="0,-4.004 0.898954009,-1.2373040455 3.808030291,-1.2373040455 1.454538141067,0.4726080910 2.35349215,3.2393040455 0,1.529391909 -2.35349215,3.2393040455 -1.454538141067,0.472608091 -3.808030291,-1.2373040455 -0.898954009,-1.2373040455 0,-4.004 "
     sodipodi:arg1="-1.570796"
     sodipodi:arg2="-0.942477796"
     sodipodi:r1="4.004000"
     sodipodi:cx="0.000000"
     sodipodi:cy="0.000000"
     sodipodi:r2="1.529391909"
     transform="matrix(7.183647,0.000000,0.000000,7.183652,313.3995,440.0509)" />
  <polygon
     sodipodi:type="star"
     style="font-size:12;fill:#ffce08;fill-rule:evenodd;stroke-width:0.125;"
     id="polygon738"
     sodipodi:sides="5"
     points="0,-4.004 0.898954009,-1.2373040455 3.808030291,-1.2373040455 1.454538141067,0.4726080910 2.35349215,3.2393040455 0,1.529391909 -2.35349215,3.2393040455 -1.454538141067,0.472608091 -3.808030291,-1.2373040455 -0.898954009,-1.2373040455 0,-4.004 "
     sodipodi:arg1="-1.570796"
     sodipodi:arg2="-0.942477796"
     sodipodi:r1="4.004000"
     sodipodi:cx="0.000000"
     sodipodi:cy="0.000000"
     sodipodi:r2="1.529391909"
     transform="matrix(7.183647,0.000000,0.000000,7.183652,386.7384,419.4284)" />
</svg>
