<?xml version="1.0" encoding="UTF-8" standalone="no"?>
<!DOCTYPE svg PUBLIC "-//W3C//DTD SVG 20010904//EN"
"http://www.w3.org/TR/2001/REC-SVG-20010904/DTD/svg10.dtd">
<!-- Created with Sodipodi ("http://www.sodipodi.com/") -->
<svg
   version="1"
   x="0"
   y="0"
   width="1062.99"
   height="708.661"
   id="svg378"
   xmlns="http://www.w3.org/2000/svg"
   xmlns:sodipodi="http://sodipodi.sourceforge.net/DTD/sodipodi-0.dtd"
   xmlns:xlink="http://www.w3.org/1999/xlink"
   sodipodi:version="0.31pre"
   sodipodi:docname="/var/www/html/www.sodipodi.com/gallery/misc/china.svg"
   sodipodi:docbase="/var/www/html/www.sodipodi.com/gallery/misc/">
  <sodipodi:namedview
     id="base" />
  <defs
     id="defs380" />
  <rect
     width="1062.99"
     height="708.661"
     x="0"
     y="0"
     style="font-size:12;fill:#ff3300;fill-rule:evenodd;stroke-width:1pt;"
     id="rect149" />
  <path
     transform="matrix(6.20614,0,0,6.20614,-1415.4,-3060.22)"
     style="font-size:12;fill:#ffff00;fill-rule:evenodd;stroke-width:1pt;"
     d="M 266.186 534.45 L 255.778 527.018 L 245.421 534.523 L 249.273 522.327 L 238.935 514.796 L 251.725 514.691 L 255.692 502.532 L 259.744 514.663 L 272.534 514.679 L 262.249 522.281 L 266.186 534.45 z "
     id="path139" />
  <path
     transform="matrix(1.63005,0.555536,-0.555536,1.63005,253.845,-925.669)"
     style="font-size:12;fill:#ffff00;fill-rule:evenodd;stroke-width:1pt;"
     d="M 266.186 534.45 L 255.778 527.018 L 245.421 534.523 L 249.273 522.327 L 238.935 514.796 L 251.725 514.691 L 255.692 502.532 L 259.744 514.663 L 272.534 514.679 L 262.249 522.281 L 266.186 534.45 z "
     id="path138" />
  <path
     transform="matrix(1.67934,0.381425,-0.381425,1.67934,95.0898,-579.252)"
     style="font-size:12;fill:#ffff00;fill-rule:evenodd;stroke-width:1pt;"
     d="M 266.186 534.45 L 255.778 527.018 L 245.421 534.523 L 249.273 522.327 L 238.935 514.796 L 251.725 514.691 L 255.692 502.532 L 259.744 514.663 L 272.534 514.679 L 262.249 522.281 L 266.186 534.45 z "
     id="path137" />
  <path
     transform="matrix(1.40067,1.00191,-1.00191,1.40067,603.914,-806.675)"
     style="font-size:12;fill:#ffff00;fill-rule:evenodd;stroke-width:1pt;"
     d="M 266.186 534.45 L 255.778 527.018 L 245.421 534.523 L 249.273 522.327 L 238.935 514.796 L 251.725 514.691 L 255.692 502.532 L 259.744 514.663 L 272.534 514.679 L 262.249 522.281 L 266.186 534.45 z "
     id="path136" />
  <path
     transform="matrix(1.72207,-0.0121418,0.0121418,1.72207,-26.6586,-602.318)"
     style="font-size:12;fill:#ffff00;fill-rule:evenodd;stroke-width:1pt;"
     d="M 266.186 534.45 L 255.778 527.018 L 245.421 534.523 L 249.273 522.327 L 238.935 514.796 L 251.725 514.691 L 255.692 502.532 L 259.744 514.663 L 272.534 514.679 L 262.249 522.281 L 266.186 534.45 z "
     id="path135" />
</svg>
