<?xml version="1.0" encoding="UTF-8" standalone="no"?>
<!DOCTYPE svg PUBLIC "-//W3C//DTD SVG 20010904//EN"
"http://www.w3.org/TR/2001/REC-SVG-20010904/DTD/svg10.dtd">
<!-- Created with Sodipodi ("http://www.sodipodi.com/") -->
<svg
   id="svg697"
   sodipodi:version="0.33pre"
   width="280mm"
   height="140mm"
   sodipodi:docbase="/home/yemu/clipart/newnewnew/"
   sodipodi:docname="/home/yemu/clipart/newnewnew/christmas_island.svg"
   xmlns="http://www.w3.org/2000/svg"
   xmlns:sodipodi="http://sodipodi.sourceforge.net/DTD/sodipodi-0.dtd"
   xmlns:xlink="http://www.w3.org/1999/xlink">
  <defs
     id="defs699" />
  <sodipodi:namedview
     id="base"
     showgrid="true"
     snaptogrid="false" />
  <rect
     style="font-size:12;fill:#0021ad;fill-rule:evenodd;stroke-width:1pt;fill-opacity:1;"
     id="rect3447"
     width="992.125977"
     height="496.062988"
     x="0"
     y="-0.00001526" />
  <path
     style="font-size:12;fill:#1c8a42;fill-rule:evenodd;stroke:none;stroke-width:2.23796pt;fill-opacity:1;stroke-opacity:1;"
     d="M 1.23596e-06 -3.8147e-05 L 992.126 496.063 L 991.558 0.36747 L 1.23596e-06 -3.8147e-05 z "
     id="path3446"
     sodipodi:nodetypes="cccc" />
  <path
     sodipodi:type="arc"
     style="fill-rule:evenodd;stroke:none;fill:#ffc639;fill-opacity:1;stroke-opacity:1;stroke-width:1pt;stroke-linejoin:miter;stroke-linecap:butt;"
     id="path733"
     d="M 227.500061 97.283752 A 34.921883 34.921875 0 1 0 157.656311,97.283752 A 34.9219 34.9219 0 1 0 227.5 97.2838 L 192.578186 97.283752 z"
     sodipodi:cx="192.578186"
     sodipodi:cy="97.283752"
     sodipodi:rx="34.921883"
     sodipodi:ry="34.921875"
     transform="matrix(2.566054,0.000000,0.000000,2.566053,2.886167,-1.874863)" />
  <path
     style="fill:#1c8a42;fill-rule:evenodd;stroke:none;stroke-opacity:1;stroke-width:1pt;stroke-linejoin:miter;stroke-linecap:butt;fill-opacity:1;"
     d="M 441.342 207.775 C 447.472 216.193 456.757 230.287 464.231 226.611 C 470.056 226.63 473.069 227.043 473.859 230.917 C 487.611 233.261 510.725 227.458 525.097 208.734 C 525.097 208.734 526.312 208.891 525.889 201.772 C 525.969 198.667 530.13 199.294 530.23 200.295 C 530.812 201.837 530.707 202.994 531.487 203.032 C 533.265 202.437 535.683 198.47 537.71 195.952 C 538.265 194.841 537.963 193.666 538.092 192.273 C 539.16 189.639 541.828 190.214 542.393 191.59 C 542.898 192.478 542.906 193.163 543.411 194.051 C 546.119 195.855 551.012 194.171 551.394 194.171 C 551.874 191.965 553.294 192.172 553.294 192.172 C 555.098 191.773 554.394 191.934 555.575 192.552 C 554.53 204.462 557.918 204.987 557.638 211.102 C 557.759 217.917 555.575 219.855 555.575 222.465 C 556.268 225.636 566.327 225.746 562.786 228.436 C 559.675 230.099 562.803 233.211 558.115 234.416 C 544.502 241.33 541.892 247.26 541.892 247.26 C 541.892 247.26 538.472 253.722 538.092 253.722 C 535.806 258.033 532.916 255.677 531.313 257.781 C 530.51 260.422 529.608 266.269 531.213 269.31 C 532.014 273.488 531.113 275.767 530.109 279.948 C 529.207 288.666 525.752 289.987 525.353 293.053 C 523.748 296.321 525.69 311.676 524.171 311.676 C 514.03 311.876 506.258 309.736 502.248 308.936 C 506.158 292.094 504.644 277.286 504.644 275.767 C 503.64 263.719 486.589 266.652 483.985 265.049 C 481.819 264.589 480.459 262.827 479.697 262.066 C 477.289 261.813 476.387 261.258 473.979 261.007 C 472.775 261.607 473.501 262.231 470.818 263.055 C 464.022 263.875 461.015 257.13 461.015 257.13 C 461.347 254.856 445.732 257.593 437.243 255.623 C 433.762 257.563 432.243 263.3 429.389 263.984 C 429.308 265.762 424.703 262.523 423.774 260.773 C 423.575 255.682 428.211 253.426 428.211 253.426 C 431.886 250.842 434.072 250.417 435.843 248.634 C 436.731 244.2 436.282 240.922 438.172 237.589 C 439.771 235.046 442.129 236.239 443.728 235.097 C 445.452 233.958 446.176 226.501 444.593 224.457 C 444.593 224.457 437.711 218.248 437.332 217.869 C 435.091 211.446 439.948 207.31 441.342 207.775 z "
     id="path732"
     sodipodi:nodetypes="cccccccccccccccccccccccccccccccccccccccccc" />
  <path
     style="fill:#ffc639;fill-rule:evenodd;stroke:none;stroke-opacity:0.496855;stroke-width:1pt;stroke-linejoin:miter;stroke-linecap:butt;fill-opacity:1;"
     d="M 871.019 96.7873 C 866.958 80.721 830.619 46.1182 803.31 24.099 C 796.786 19.6572 792.537 22.3028 793.386 28.6357 C 796.789 34.3068 799.337 40.5422 802.742 46.2132 C 803.687 49.993 805.482 52.6386 806.427 56.4184 C 806.427 56.4184 806.709 62.9386 807.28 63.5056 C 815.783 72.8646 816.917 80.8006 816.917 80.8006 C 821.831 90.2516 826.177 97.1493 834.779 104.898 C 844.418 110.946 837.327 129.753 837.612 139.772 C 837.612 146.104 833.078 145.348 829.108 144.59 C 797.828 115.861 766.83 115.768 739.516 107.452 C 728.84 106.317 728.65 111.421 732.147 114.254 C 751.236 134.668 769.194 148.56 792.82 160.184 C 796.789 162.642 800.756 165.099 804.726 167.557 C 809.263 171.336 813.797 175.116 818.334 178.896 C 828.824 185.701 829.676 191.939 829.676 192.503 C 829.957 205.262 823.153 215.184 821.168 219.154 C 817.586 232.685 810.397 235.031 810.397 235.031 C 751.994 274.44 721.372 284.645 626.68 272.454 C 625.263 271.698 616.189 273.21 626.68 276.991 C 650.781 285.023 709.979 297.901 767.251 270.779 C 781.002 261.138 790.202 264.301 800.163 258.53 C 816.517 248.444 839.881 235.883 844.133 234.466 C 856.891 227.661 892.612 220.006 900.835 213.201 C 910.285 212.444 920.075 211.205 920.737 203.078 C 923.845 201.074 928.378 202.536 931.753 195.921 C 939.236 194.618 937.976 191.936 937.976 191.936 C 936.087 186.646 929.092 184.471 924.086 180.598 C 916.713 178.139 911.612 177.384 906.223 180.029 C 904.522 180.787 902.821 181.542 901.12 182.298 C 901.12 182.298 893.182 181.165 893.182 180.598 C 875.541 179.63 877.258 121.17 871.019 96.7873 z "
     id="path3443"
     sodipodi:nodetypes="cccccccccccccccccccccscccccccccc" />
  <path
     sodipodi:type="arc"
     style="fill-rule:evenodd;stroke:none;fill:#1c8a42;fill-opacity:1;stroke-opacity:1;stroke-width:1pt;stroke-linejoin:miter;stroke-linecap:butt;"
     id="path3445"
     d="M 354.375000 73.885620 A 2.070312 1.367188 0 1 0 350.234375,73.885620 A 2.07031 1.36719 0 1 0 354.375 73.8856 L 352.304688 73.885620 z"
     sodipodi:cx="352.304688"
     sodipodi:cy="73.885620"
     sodipodi:rx="2.070312"
     sodipodi:ry="1.367188"
     transform="matrix(2.007221,0.630380,-0.674064,1.877137,250.8724,-169.6010)" />
  <polygon
     sodipodi:type="star"
     style="font-size:12;fill:#ffffff;fill-rule:evenodd;stroke-width:1pt;fill-opacity:1;"
     id="polygon3449"
     sodipodi:sides="7"
     sodipodi:cx="60.1266060"
     sodipodi:cy="327.099609"
     sodipodi:r1="32.0022697"
     sodipodi:r2="16.0011349"
     sodipodi:arg1="1.12842214"
     sodipodi:arg2="1.57722104"
     points="73.8263,356.021 60.0238,343.1 46.0564,355.843 47.5526,336.996 28.8816,334.02 44.5499,323.439 35.2349,306.986 53.2767,312.639 60.3322,295.098 67.1617,312.728 85.2747,307.308 75.7491,323.639 91.2801,334.421 72.5724,337.156 73.8263,356.021 "
     transform="translate(22.07179,-45.66579)" />
  <polygon
     sodipodi:type="star"
     style="font-size:12;fill:#ffffff;fill-rule:evenodd;stroke-width:1pt;fill-opacity:1;"
     id="polygon3451"
     sodipodi:sides="7"
     sodipodi:cx="60.1266060"
     sodipodi:cy="327.099609"
     sodipodi:r1="32.0022697"
     sodipodi:r2="16.0011349"
     sodipodi:arg1="1.12842214"
     sodipodi:arg2="1.57722104"
     points="73.8263,356.021 60.0238,343.1 46.0564,355.843 47.5526,336.996 28.8816,334.02 44.5499,323.439 35.2349,306.986 53.2767,312.639 60.3322,295.098 67.1617,312.728 85.2747,307.308 75.7491,323.639 91.2801,334.421 72.5724,337.156 73.8263,356.021 "
     transform="matrix(0.787625,0.000000,0.000000,0.787624,131.1102,-80.03400)" />
  <polygon
     sodipodi:type="star"
     style="font-size:12;fill:#ffffff;fill-rule:evenodd;stroke-width:1pt;fill-opacity:1;"
     id="polygon3452"
     sodipodi:sides="8"
     sodipodi:cx="208.540375"
     sodipodi:cy="394.837189"
     sodipodi:r1="46.2956696"
     sodipodi:r2="23.1478348"
     sodipodi:arg1="0.80864948"
     sodipodi:arg2="1.20134854"
     points="240.506,428.325 216.899,416.423 207.464,441.12 199.187,416.011 175.052,426.803 186.954,403.196 162.257,393.761 187.366,385.484 176.574,361.349 200.182,373.251 209.617,348.554 217.893,373.663 242.029,362.871 230.126,386.478 254.824,395.914 229.714,404.19 240.506,428.325 "
     transform="matrix(0.769779,0.000000,0.000000,0.769779,18.32761,103.8384)" />
  <polygon
     sodipodi:type="star"
     style="font-size:12;fill:#ffffff;fill-rule:evenodd;stroke-width:1pt;fill-opacity:1;"
     id="polygon3455"
     sodipodi:sides="6"
     sodipodi:cx="249.455887"
     sodipodi:cy="231.304840"
     sodipodi:r1="23.4868622"
     sodipodi:r2="13.1526423"
     sodipodi:arg1="0.54252720"
     sodipodi:arg2="1.06612599"
     points="269.57,243.431 255.815,242.818 249.011,254.787 242.665,242.569 228.897,242.661 236.306,231.056 229.342,219.179 243.096,219.792 249.9,207.822 256.247,220.041 270.015,219.949 262.606,231.554 269.57,243.431 "
     transform="matrix(0.999892,-1.468340e-2,1.468340e-2,0.999892,13.37644,22.16605)" />
  <polygon
     sodipodi:type="star"
     style="font-size:12;fill:#ffffff;fill-rule:evenodd;stroke-width:1pt;fill-opacity:1;"
     id="polygon3461"
     sodipodi:sides="5"
     sodipodi:cx="146.670822"
     sodipodi:cy="302.811676"
     sodipodi:r1="21.7120266"
     sodipodi:r2="8.46769047"
     sodipodi:arg1="0.92374814"
     sodipodi:arg2="1.55206668"
     points="159.76,320.135 146.829,311.278 134.24,320.613 138.668,305.579 125.899,296.49 141.566,296.056 146.264,281.103 151.519,295.869 167.191,295.717 154.772,305.277 159.76,320.135 "
     transform="matrix(0.906769,0.000000,0.000000,0.883077,82.95584,40.95160)" />
</svg>
