<?xml version="1.0" encoding="UTF-8" standalone="no"?>
<!DOCTYPE svg PUBLIC "-//W3C//DTD SVG 1.0//EN"
"http://www.w3.org/TR/2001/REC-SVG-20010904/DTD/svg10.dtd">
<!-- Created with Sodipodi ("http://www.sodipodi.com/") -->
<svg
   id="svg548"
   sodipodi:version="0.33pre"
   xmlns="http://www.w3.org/2000/svg"
   xmlns:sodipodi="http://sodipodi.sourceforge.net/DTD/sodipodi-0.dtd"
   xmlns:xlink="http://www.w3.org/1999/xlink"
   width="210mm"
   height="140mm"
   sodipodi:docbase="/home/tobias/Desktop/Flags"
   sodipodi:docname="/home/tobias/Desktop/Flags/Congo-Kinshasa.svg">
  <defs
     id="defs550" />
  <sodipodi:namedview
     id="base" />
  <rect
     style="font-size:12;fill:#0033ff;fill-rule:evenodd;stroke-width:1pt;fill-opacity:1;"
     id="rect551"
     width="744.094482"
     height="496.063028"
     x="0.000000"
     y="-0.000145"
     sodipodi:fill-cmyk="(1 0.8 0 0)" />
  <polygon
     sodipodi:type="star"
     style="font-size:12;fill:#ffde00;fill-rule:evenodd;stroke-width:1pt;fill-opacity:1;"
     id="polygon555"
     sodipodi:sides="5"
     sodipodi:cx="163.187744"
     sodipodi:cy="102.349113"
     sodipodi:r1="49.5634193"
     sodipodi:r2="18.9669762"
     sodipodi:arg1="0.94394743"
     sodipodi:arg2="1.57226598"
     points="192.261,142.49 163.16,121.316 133.996,142.404 145.14,108.184 116.073,86.9639 152.062,86.9881 163.261,52.7857 174.359,87.0209 210.348,87.1025 181.218,108.237 192.261,142.49 "
     transform="matrix(2.324757,0.000000,0.000000,2.328328,-6.617898,-1.763741)"
     sodipodi:fill-cmyk="(0 0.13 1 0)" />
  <polygon
     sodipodi:type="star"
     style="font-size:12;fill:#ffde00;fill-rule:evenodd;stroke-width:1pt;fill-opacity:1;"
     id="polygon556"
     sodipodi:sides="5"
     sodipodi:cx="163.187744"
     sodipodi:cy="102.349113"
     sodipodi:r1="49.5634193"
     sodipodi:r2="18.9669762"
     sodipodi:arg1="0.94394743"
     sodipodi:arg2="1.57226598"
     points="192.261,142.49 163.16,121.316 133.996,142.404 145.14,108.184 116.073,86.9639 152.062,86.9881 163.261,52.7857 174.359,87.0209 210.348,87.1025 181.218,108.237 192.261,142.49 "
     transform="matrix(0.702023,0.000000,0.000000,0.703102,-54.03374,378.0264)"
     sodipodi:fill-cmyk="(0 0.13 1 0)" />
  <polygon
     sodipodi:type="star"
     style="font-size:12;fill:#ffde00;fill-rule:evenodd;stroke-width:1pt;fill-opacity:1;"
     id="polygon557"
     sodipodi:sides="5"
     sodipodi:cx="163.187744"
     sodipodi:cy="102.349113"
     sodipodi:r1="49.5634193"
     sodipodi:r2="18.9669762"
     sodipodi:arg1="0.94394743"
     sodipodi:arg2="1.57226598"
     points="192.261,142.49 163.16,121.316 133.996,142.404 145.14,108.184 116.073,86.9639 152.062,86.9881 163.261,52.7857 174.359,87.0209 210.348,87.1025 181.218,108.237 192.261,142.49 "
     transform="matrix(0.702023,0.000000,0.000000,0.703102,-54.03374,298.4176)"
     sodipodi:fill-cmyk="(0 0.13 1 0)" />
  <polygon
     sodipodi:type="star"
     style="font-size:12;fill:#ffde00;fill-rule:evenodd;stroke-width:1pt;fill-opacity:1;"
     id="polygon558"
     sodipodi:sides="5"
     sodipodi:cx="163.187744"
     sodipodi:cy="102.349113"
     sodipodi:r1="49.5634193"
     sodipodi:r2="18.9669762"
     sodipodi:arg1="0.94394743"
     sodipodi:arg2="1.57226598"
     points="192.261,142.49 163.16,121.316 133.996,142.404 145.14,108.184 116.073,86.9639 152.062,86.9881 163.261,52.7857 174.359,87.0209 210.348,87.1025 181.218,108.237 192.261,142.49 "
     transform="matrix(0.702023,0.000000,0.000000,0.703102,-54.03374,220.2996)"
     sodipodi:fill-cmyk="(0 0.13 1 0)" />
  <polygon
     sodipodi:type="star"
     style="font-size:12;fill:#ffde00;fill-rule:evenodd;stroke-width:1pt;fill-opacity:1;"
     id="polygon559"
     sodipodi:sides="5"
     sodipodi:cx="163.187744"
     sodipodi:cy="102.349113"
     sodipodi:r1="49.5634193"
     sodipodi:r2="18.9669762"
     sodipodi:arg1="0.94394743"
     sodipodi:arg2="1.57226598"
     points="192.261,142.49 163.16,121.316 133.996,142.404 145.14,108.184 116.073,86.9639 152.062,86.9881 163.261,52.7857 174.359,87.0209 210.348,87.1025 181.218,108.237 192.261,142.49 "
     transform="matrix(0.702023,0.000000,0.000000,0.703102,-54.03374,140.6908)"
     sodipodi:fill-cmyk="(0 0.13 1 0)" />
  <polygon
     sodipodi:type="star"
     style="font-size:12;fill:#ffde00;fill-rule:evenodd;stroke-width:1pt;fill-opacity:1;"
     id="polygon560"
     sodipodi:sides="5"
     sodipodi:cx="163.187744"
     sodipodi:cy="102.349113"
     sodipodi:r1="49.5634193"
     sodipodi:r2="18.9669762"
     sodipodi:arg1="0.94394743"
     sodipodi:arg2="1.57226598"
     points="192.261,142.49 163.16,121.316 133.996,142.404 145.14,108.184 116.073,86.9639 152.062,86.9881 163.261,52.7857 174.359,87.0209 210.348,87.1025 181.218,108.237 192.261,142.49 "
     transform="matrix(0.702023,0.000000,0.000000,0.703102,-54.03374,60.48590)"
     sodipodi:fill-cmyk="(0 0.13 1 0)" />
  <polygon
     sodipodi:type="star"
     style="font-size:12;fill:#ffde00;fill-rule:evenodd;stroke-width:1pt;fill-opacity:1;"
     id="polygon561"
     sodipodi:sides="5"
     sodipodi:cx="163.187744"
     sodipodi:cy="102.349113"
     sodipodi:r1="49.5634193"
     sodipodi:r2="18.9669762"
     sodipodi:arg1="0.94394743"
     sodipodi:arg2="1.57226598"
     points="192.261,142.49 163.16,121.316 133.996,142.404 145.14,108.184 116.073,86.9639 152.062,86.9881 163.261,52.7857 174.359,87.0209 210.348,87.1025 181.218,108.237 192.261,142.49 "
     transform="matrix(0.702023,0.000000,0.000000,0.703102,-54.03374,-19.71944)"
     sodipodi:fill-cmyk="(0 0.13 1 0)" />
</svg>
