<?xml version="1.0" encoding="UTF-8" standalone="no"?>
<!DOCTYPE svg PUBLIC "-//W3C//DTD SVG 20010904//EN"
"http://www.w3.org/TR/2001/REC-SVG-20010904/DTD/svg10.dtd">
<!-- Created with Sodipodi ("http://www.sodipodi.com/") -->
<svg
   id="svg1"
   sodipodi:version="0.32"
   width="280mm"
   height="140mm"
   sodipodi:docname="/home/scarlet/cook_islands.svg"
   sodipodi:docbase="/home/scarlet"
   xmlns="http://www.w3.org/2000/svg"
   xmlns:sodipodi="http://sodipodi.sourceforge.net/DTD/sodipodi-0.dtd"
   xmlns:xlink="http://www.w3.org/1999/xlink">
  <defs
     id="defs3">
    <linearGradient
       id="linearGradient1108">
      <stop
         style="stop-color:#000;stop-opacity:1;"
         offset="0"
         id="stop1109" />
      <stop
         style="stop-color:#fff;stop-opacity:1;"
         offset="1"
         id="stop1110" />
    </linearGradient>
    <linearGradient
       xlink:href="#linearGradient1108"
       id="linearGradient1111" />
    <linearGradient
       xlink:href="#linearGradient1108"
       id="linearGradient1112" />
    <linearGradient
       xlink:href="#linearGradient1108"
       id="linearGradient1113" />
    <linearGradient
       xlink:href="#linearGradient1108"
       id="linearGradient1114" />
    <linearGradient
       xlink:href="#linearGradient1108"
       id="linearGradient1115" />
    <linearGradient
       xlink:href="#linearGradient1108"
       id="linearGradient1116" />
    <linearGradient
       xlink:href="#linearGradient1108"
       id="linearGradient1117" />
    <linearGradient
       xlink:href="#linearGradient1108"
       id="linearGradient1118" />
    <linearGradient
       xlink:href="#linearGradient1108"
       id="linearGradient1119" />
    <linearGradient
       xlink:href="#linearGradient1108"
       id="linearGradient1120" />
    <linearGradient
       xlink:href="#linearGradient1108"
       id="linearGradient1121" />
    <linearGradient
       xlink:href="#linearGradient1108"
       id="linearGradient1122" />
    <linearGradient
       xlink:href="#linearGradient1108"
       id="linearGradient1123" />
    <linearGradient
       xlink:href="#linearGradient1108"
       id="linearGradient1124" />
    <linearGradient
       xlink:href="#linearGradient1108"
       id="linearGradient1125" />
    <linearGradient
       xlink:href="#linearGradient1108"
       id="linearGradient1126" />
    <linearGradient
       xlink:href="#linearGradient1108"
       id="linearGradient1127" />
    <linearGradient
       xlink:href="#linearGradient1108"
       id="linearGradient1128" />
    <linearGradient
       xlink:href="#linearGradient1108"
       id="linearGradient1129" />
    <linearGradient
       xlink:href="#linearGradient1108"
       id="linearGradient1130" />
    <linearGradient
       xlink:href="#linearGradient1108"
       id="linearGradient1131" />
    <linearGradient
       xlink:href="#linearGradient1108"
       id="linearGradient1132" />
    <linearGradient
       xlink:href="#linearGradient1108"
       id="linearGradient1133" />
    <linearGradient
       xlink:href="#linearGradient1108"
       id="linearGradient1134" />
    <linearGradient
       xlink:href="#linearGradient1108"
       id="linearGradient1135" />
    <linearGradient
       xlink:href="#linearGradient1108"
       id="linearGradient1136" />
    <linearGradient
       xlink:href="#linearGradient1108"
       id="linearGradient1137" />
    <linearGradient
       xlink:href="#linearGradient1108"
       id="linearGradient1138" />
    <linearGradient
       xlink:href="#linearGradient1108"
       id="linearGradient1139" />
    <linearGradient
       xlink:href="#linearGradient1108"
       id="linearGradient1140" />
    <linearGradient
       xlink:href="#linearGradient1108"
       id="linearGradient1141" />
    <linearGradient
       xlink:href="#linearGradient1108"
       id="linearGradient1142" />
    <linearGradient
       xlink:href="#linearGradient1108"
       id="linearGradient1143" />
    <linearGradient
       xlink:href="#linearGradient1108"
       id="linearGradient1144" />
    <linearGradient
       xlink:href="#linearGradient1108"
       id="linearGradient1145" />
    <linearGradient
       xlink:href="#linearGradient1108"
       id="linearGradient1146" />
    <linearGradient
       xlink:href="#linearGradient1108"
       id="linearGradient1147" />
    <linearGradient
       xlink:href="#linearGradient1108"
       id="linearGradient1148" />
    <linearGradient
       xlink:href="#linearGradient1108"
       id="linearGradient1149" />
    <linearGradient
       xlink:href="#linearGradient1108"
       id="linearGradient1150" />
    <linearGradient
       xlink:href="#linearGradient1108"
       id="linearGradient1151" />
    <linearGradient
       xlink:href="#linearGradient1108"
       id="linearGradient1152" />
    <linearGradient
       xlink:href="#linearGradient1108"
       id="linearGradient1153" />
    <linearGradient
       xlink:href="#linearGradient1108"
       id="linearGradient1154" />
    <linearGradient
       xlink:href="#linearGradient1108"
       id="linearGradient1155" />
    <linearGradient
       xlink:href="#linearGradient1108"
       id="linearGradient1156" />
    <linearGradient
       xlink:href="#linearGradient1108"
       id="linearGradient1157" />
    <linearGradient
       xlink:href="#linearGradient1108"
       id="linearGradient1158" />
    <linearGradient
       xlink:href="#linearGradient1108"
       id="linearGradient1159" />
    <linearGradient
       xlink:href="#linearGradient1108"
       id="linearGradient1160" />
    <linearGradient
       xlink:href="#linearGradient1108"
       id="linearGradient1161" />
    <linearGradient
       xlink:href="#linearGradient1108"
       id="linearGradient1162" />
    <linearGradient
       xlink:href="#linearGradient1108"
       id="linearGradient1163" />
    <linearGradient
       xlink:href="#linearGradient1108"
       id="linearGradient1164" />
    <linearGradient
       xlink:href="#linearGradient1108"
       id="linearGradient1165" />
    <linearGradient
       xlink:href="#linearGradient1108"
       id="linearGradient1166" />
    <linearGradient
       xlink:href="#linearGradient1108"
       id="linearGradient1167" />
    <linearGradient
       xlink:href="#linearGradient1108"
       id="linearGradient1168" />
    <linearGradient
       xlink:href="#linearGradient1108"
       id="linearGradient1169" />
    <linearGradient
       xlink:href="#linearGradient1108"
       id="linearGradient1170" />
    <linearGradient
       xlink:href="#linearGradient1108"
       id="linearGradient1171" />
    <linearGradient
       xlink:href="#linearGradient1108"
       id="linearGradient1172" />
  </defs>
  <sodipodi:namedview
     id="base"
     showgrid="false" />
  <rect
     style="font-size:12;fill:#000066;stroke-width:1pt;"
     id="rect124"
     x="0.000000"
     y="-0.000037"
     width="992.125978"
     height="496.063019" />
  <g
     id="g584"
     transform="matrix(8.267716,0.000000,0.000000,8.267716,0.000000,2.288818e-5)"
     style="font-size:12;">
    <path
       style="font-size:12;fill:#ffffff;stroke-width:1pt;"
       d="M 0 0 L 0 3.3541 L 53.2918 30 L 60 30 L 60 26.6459 L 6.7082 0 L 0 0 z M 60 0 L 60 3.35405 L 6.7082 30 L 0 30 L 0 26.6458 L 53.2918 0 L 60 0 z "
       id="path146" />
    <path
       style="font-size:12;fill:#ffffff;stroke-width:1pt;"
       d="M 25 0 L 25 30 L 35 30 L 35 0 L 25 0 z M 0 10 L 0 20 L 60 20 L 60 10 L 0 10 z "
       id="path136" />
    <path
       style="font-size:12;fill:#cc0000;stroke-width:1pt;"
       d="M 0 12 L 0 18 L 60 18 L 60 12 L 0 12 z M 27 0 L 27 30 L 33 30 L 33 0 L 27 0 z "
       id="path141" />
    <path
       style="font-size:12;fill:#cc0000;stroke-width:1pt;"
       d="M 0 30 L 20 20 L 24.4721 20 L 4.47214 30 L 0 30 z M 0 0 L 20 10 L 15.5279 10 L 0 2.23607 L 0 0 z M 35.5279 10 L 55.5279 0 L 60 0 L 40 10 L 35.5279 10 z M 60 30 L 40 20 L 44.4721 20 L 60 27.7639 L 60 30 z "
       id="path150" />
  </g>
  <g
     id="g808"
     transform="matrix(1.072863,0.000000,0.000000,1.088248,-61.95463,-33.88618)">
    <polygon
       sodipodi:type="star"
       style="font-size:12;fill:#ffffff;fill-rule:evenodd;stroke-width:1pt;stroke:none;stroke-opacity:1;fill-opacity:1;"
       id="polygon791"
       sodipodi:sides="5"
       sodipodi:cx="683.582092"
       sodipodi:cy="150.746277"
       sodipodi:r1="43.0513649"
       sodipodi:r2="17.2205467"
       sodipodi:arg1="2.15879941"
       sodipodi:arg2="2.78711796"
       points="659.701,186.567 667.432,156.723 642.135,139.104 672.907,137.234 681.847,107.73 693.134,136.418 723.957,135.803 700.161,155.403 710.27,184.527 684.276,167.953 659.701,186.567 "
       transform="matrix(0.818718,3.817616e-2,-3.719042e-2,0.797578,211.4686,-51.03146)" />
    <polygon
       sodipodi:type="star"
       style="font-size:12;fill:#ffffff;fill-rule:evenodd;stroke-width:1pt;stroke:none;stroke-opacity:1;fill-opacity:1;"
       id="polygon794"
       sodipodi:sides="5"
       sodipodi:cx="683.582092"
       sodipodi:cy="150.746277"
       sodipodi:r1="43.0513649"
       sodipodi:r2="17.2205467"
       sodipodi:arg1="2.15879941"
       sodipodi:arg2="2.78711796"
       points="659.701,186.567 667.432,156.723 642.135,139.104 672.907,137.234 681.847,107.73 693.134,136.418 723.957,135.803 700.161,155.403 710.27,184.527 684.276,167.953 659.701,186.567 "
       transform="matrix(0.758488,0.310568,-0.302549,0.738903,360.2272,-215.1602)" />
    <polygon
       sodipodi:type="star"
       style="font-size:12;fill:#ffffff;fill-rule:evenodd;stroke-width:1pt;stroke:none;stroke-opacity:1;fill-opacity:1;"
       id="polygon795"
       sodipodi:sides="5"
       sodipodi:cx="683.582092"
       sodipodi:cy="150.746277"
       sodipodi:r1="43.0513649"
       sodipodi:r2="17.2205467"
       sodipodi:arg1="2.15879941"
       sodipodi:arg2="2.78711796"
       points="659.701,186.567 667.432,156.723 642.135,139.104 672.907,137.234 681.847,107.73 693.134,136.418 723.957,135.803 700.161,155.403 710.27,184.527 684.276,167.953 659.701,186.567 "
       transform="matrix(0.782988,-0.242252,0.235997,0.762770,127.0784,160.0798)" />
    <polygon
       sodipodi:type="star"
       style="font-size:12;fill:#ffffff;fill-rule:evenodd;stroke-width:1pt;stroke:none;stroke-opacity:1;fill-opacity:1;"
       id="polygon796"
       sodipodi:sides="5"
       sodipodi:cx="683.582092"
       sodipodi:cy="150.746277"
       sodipodi:r1="43.0513649"
       sodipodi:r2="17.2205467"
       sodipodi:arg1="2.15879941"
       sodipodi:arg2="2.78711796"
       points="659.701,186.567 667.432,156.723 642.135,139.104 672.907,137.234 681.847,107.73 693.134,136.418 723.957,135.803 700.161,155.403 710.27,184.527 684.276,167.953 659.701,186.567 "
       transform="matrix(0.627278,-0.527521,0.513900,0.611080,136.0141,414.0626)" />
    <polygon
       sodipodi:type="star"
       style="font-size:12;fill:#ffffff;fill-rule:evenodd;stroke-width:1pt;stroke:none;stroke-opacity:1;fill-opacity:1;"
       id="polygon797"
       sodipodi:sides="5"
       sodipodi:cx="683.582092"
       sodipodi:cy="150.746277"
       sodipodi:r1="43.0513649"
       sodipodi:r2="17.2205467"
       sodipodi:arg1="2.15879941"
       sodipodi:arg2="2.78711796"
       points="659.701,186.567 667.432,156.723 642.135,139.104 672.907,137.234 681.847,107.73 693.134,136.418 723.957,135.803 700.161,155.403 710.27,184.527 684.276,167.953 659.701,186.567 "
       transform="matrix(0.340585,-0.745492,0.726242,0.331790,266.3795,664.0245)" />
    <polygon
       sodipodi:type="star"
       style="font-size:12;fill:#ffffff;fill-rule:evenodd;stroke-width:1pt;stroke:none;stroke-opacity:1;fill-opacity:1;"
       id="polygon798"
       sodipodi:sides="5"
       sodipodi:cx="683.582092"
       sodipodi:cy="150.746277"
       sodipodi:r1="43.0513649"
       sodipodi:r2="17.2205467"
       sodipodi:arg1="2.15879941"
       sodipodi:arg2="2.78711796"
       points="659.701,186.567 667.432,156.723 642.135,139.104 672.907,137.234 681.847,107.73 693.134,136.418 723.957,135.803 700.161,155.403 710.27,184.527 684.276,167.953 659.701,186.567 "
       transform="matrix(1.584355e-2,-0.819454,0.798294,1.543402e-2,466.7071,832.5574)" />
    <polygon
       sodipodi:type="star"
       style="font-size:12;fill:#ffffff;fill-rule:evenodd;stroke-width:1pt;stroke:none;stroke-opacity:1;fill-opacity:1;"
       id="polygon799"
       sodipodi:sides="5"
       sodipodi:cx="683.582092"
       sodipodi:cy="150.746277"
       sodipodi:r1="43.0513649"
       sodipodi:r2="17.2205467"
       sodipodi:arg1="2.15879941"
       sodipodi:arg2="2.78711796"
       points="659.701,186.567 667.432,156.723 642.135,139.104 672.907,137.234 681.847,107.73 693.134,136.418 723.957,135.803 700.161,155.403 710.27,184.527 684.276,167.953 659.701,186.567 "
       transform="matrix(-0.317066,-0.755795,0.736278,-0.308879,725.6567,902.3774)" />
    <polygon
       sodipodi:type="star"
       style="font-size:12;fill:#ffffff;fill-rule:evenodd;stroke-width:1pt;stroke:none;stroke-opacity:1;fill-opacity:1;"
       id="polygon800"
       sodipodi:sides="5"
       sodipodi:cx="683.582092"
       sodipodi:cy="150.746277"
       sodipodi:r1="43.0513649"
       sodipodi:r2="17.2205467"
       sodipodi:arg1="2.15879941"
       sodipodi:arg2="2.78711796"
       points="659.701,186.567 667.432,156.723 642.135,139.104 672.907,137.234 681.847,107.73 693.134,136.418 723.957,135.803 700.161,155.403 710.27,184.527 684.276,167.953 659.701,186.567 "
       transform="matrix(-0.558515,-0.599848,0.584358,-0.544093,956.2336,884.0917)" />
    <polygon
       sodipodi:type="star"
       style="font-size:12;fill:#ffffff;fill-rule:evenodd;stroke-width:1pt;stroke:none;stroke-opacity:1;fill-opacity:1;"
       id="polygon801"
       sodipodi:sides="5"
       sodipodi:cx="683.582092"
       sodipodi:cy="150.746277"
       sodipodi:r1="43.0513649"
       sodipodi:r2="17.2205467"
       sodipodi:arg1="2.15879941"
       sodipodi:arg2="2.78711796"
       points="659.701,186.567 667.432,156.723 642.135,139.104 672.907,137.234 681.847,107.73 693.134,136.418 723.957,135.803 700.161,155.403 710.27,184.527 684.276,167.953 659.701,186.567 "
       transform="matrix(-0.795614,-0.196862,0.191778,-0.775070,1238.307,669.3665)" />
    <polygon
       sodipodi:type="star"
       style="font-size:12;fill:#ffffff;fill-rule:evenodd;stroke-width:1pt;stroke:none;stroke-opacity:1;fill-opacity:1;"
       id="polygon802"
       sodipodi:sides="5"
       sodipodi:cx="683.582092"
       sodipodi:cy="150.746277"
       sodipodi:r1="43.0513649"
       sodipodi:r2="17.2205467"
       sodipodi:arg1="2.15879941"
       sodipodi:arg2="2.78711796"
       points="659.701,186.567 667.432,156.723 642.135,139.104 672.907,137.234 681.847,107.73 693.134,136.418 723.957,135.803 700.161,155.403 710.27,184.527 684.276,167.953 659.701,186.567 "
       transform="matrix(-0.798057,0.186712,-0.181891,-0.777450,1368.536,407.8535)" />
    <polygon
       sodipodi:type="star"
       style="font-size:12;fill:#ffffff;fill-rule:evenodd;stroke-width:1pt;stroke:none;stroke-opacity:1;fill-opacity:1;"
       id="polygon803"
       sodipodi:sides="5"
       sodipodi:cx="683.582092"
       sodipodi:cy="150.746277"
       sodipodi:r1="43.0513649"
       sodipodi:r2="17.2205467"
       sodipodi:arg1="2.15879941"
       sodipodi:arg2="2.78711796"
       points="659.701,186.567 667.432,156.723 642.135,139.104 672.907,137.234 681.847,107.73 693.134,136.418 723.957,135.803 700.161,155.403 710.27,184.527 684.276,167.953 659.701,186.567 "
       transform="matrix(-0.425137,0.700725,-0.682632,-0.414158,1277.556,-266.6207)" />
    <polygon
       sodipodi:type="star"
       style="font-size:12;fill:#ffffff;fill-rule:evenodd;stroke-width:1pt;stroke:none;stroke-opacity:1;fill-opacity:1;"
       id="polygon804"
       sodipodi:sides="5"
       sodipodi:cx="683.582092"
       sodipodi:cy="150.746277"
       sodipodi:r1="43.0513649"
       sodipodi:r2="17.2205467"
       sodipodi:arg1="2.15879941"
       sodipodi:arg2="2.78711796"
       points="659.701,186.567 667.432,156.723 642.135,139.104 672.907,137.234 681.847,107.73 693.134,136.418 723.957,135.803 700.161,155.403 710.27,184.527 684.276,167.953 659.701,186.567 "
       transform="matrix(-0.685666,0.449020,-0.437427,-0.667960,1454.923,1.486130)" />
    <polygon
       sodipodi:type="star"
       style="font-size:12;fill:#ffffff;fill-rule:evenodd;stroke-width:1pt;stroke:none;stroke-opacity:1;fill-opacity:1;"
       id="polygon805"
       sodipodi:sides="5"
       sodipodi:cx="683.582092"
       sodipodi:cy="150.746277"
       sodipodi:r1="43.0513649"
       sodipodi:r2="17.2205467"
       sodipodi:arg1="2.15879941"
       sodipodi:arg2="2.78711796"
       points="659.701,186.567 667.432,156.723 642.135,139.104 672.907,137.234 681.847,107.73 693.134,136.418 723.957,135.803 700.161,155.403 710.27,184.527 684.276,167.953 659.701,186.567 "
       transform="matrix(-0.811223,0.116937,-0.113919,-0.790275,1496.591,313.6963)" />
    <polygon
       sodipodi:type="star"
       style="font-size:12;fill:#ffffff;fill-rule:evenodd;stroke-width:1pt;stroke:none;stroke-opacity:1;fill-opacity:1;"
       id="polygon806"
       sodipodi:sides="5"
       sodipodi:cx="683.582092"
       sodipodi:cy="150.746277"
       sodipodi:r1="43.0513649"
       sodipodi:r2="17.2205467"
       sodipodi:arg1="2.15879941"
       sodipodi:arg2="2.78711796"
       points="659.701,186.567 667.432,156.723 642.135,139.104 672.907,137.234 681.847,107.73 693.134,136.418 723.957,135.803 700.161,155.403 710.27,184.527 684.276,167.953 659.701,186.567 "
       transform="matrix(-0.801995,-0.169001,0.164635,-0.781286,1424.992,574.3793)" />
    <polygon
       sodipodi:type="star"
       style="font-size:12;fill:#ffffff;fill-rule:evenodd;stroke-width:1pt;stroke:none;stroke-opacity:1;fill-opacity:1;"
       id="polygon807"
       sodipodi:sides="5"
       sodipodi:cx="683.582092"
       sodipodi:cy="150.746277"
       sodipodi:r1="43.0513649"
       sodipodi:r2="17.2205467"
       sodipodi:arg1="2.15879941"
       sodipodi:arg2="2.78711796"
       points="659.701,186.567 667.432,156.723 642.135,139.104 672.907,137.234 681.847,107.73 693.134,136.418 723.957,135.803 700.161,155.403 710.27,184.527 684.276,167.953 659.701,186.567 "
       transform="matrix(-0.594733,-0.563959,0.549395,-0.579377,1179.569,862.8326)" />
  </g>
</svg>
