<?xml version="1.0" encoding="UTF-8" standalone="no"?>
<!DOCTYPE svg PUBLIC "-//W3C//DTD SVG 20010904//EN"
"http://www.w3.org/TR/2001/REC-SVG-20010904/DTD/svg10.dtd">
<!-- Created with Sodipodi ("http://www.sodipodi.com/") -->
<svg
   version="1"
   x="0.00000000"
   y="0.00000000"
   width="963.779480"
   height="496.062988"
   id="svg557"
   xmlns="http://www.w3.org/2000/svg"
   xmlns:xlink="http://www.w3.org/1999/xlink"
   xmlns:sodipodi="http://sodipodi.sourceforge.net/DTD/sodipodi-0.dtd"
   sodipodi:version="0.32"
   sodipodi:docname="/home/cschalle/sodipodi-flags/nations/croatia.svg"
   sodipodi:docbase="/home/cschalle/sodipodi-flags/nations/">
  <sodipodi:namedview
     id="base" />
  <defs
     id="defs559">
    <linearGradient
       x1="0.00000000"
       y1="0.00000000"
       x2="1.00000000"
       y2="0.00000000"
       id="linearGradient684"
       gradientUnits="objectBoundingBox"
       spreadMethod="pad">
      <stop
         style="stop-color:#000000;stop-opacity:1;"
         offset="0.00000000"
         id="stop685" />
      <stop
         style="stop-color:#ffffff;stop-opacity:1;"
         offset="1.00000000"
         id="stop686" />
    </linearGradient>
    <linearGradient
       x1="0.00000000"
       y1="0.00000000"
       x2="1.00000000"
       y2="0.00000000"
       id="linearGradient687"
       xlink:href="#linearGradient684"
       gradientUnits="objectBoundingBox"
       spreadMethod="pad" />
  </defs>
  <rect
     style="font-size:12;fill:#ffffff;fill-rule:evenodd;stroke-width:1pt;fill-opacity:1;"
     id="rect675"
     width="963.779419"
     height="149.601593"
     x="0.00000000"
     y="168.090271" />
  <g
     transform="matrix(1.043545,0.000000,0.000000,1.043545,5.792381e-2,-0.127045)"
     style="font-size:12;"
     id="g1089">
    <rect
       width="925.358521"
       height="187.639587"
       x="0.78548002"
       y="288.727936"
       style="fill:#003e9f;fill-rule:evenodd;stroke-width:1pt;"
       id="rect714" />
    <rect
       width="926.854248"
       height="157.335617"
       x="-1.33019996"
       y="2.91705608"
       style="fill:#d61517;fill-rule:evenodd;stroke-width:1pt;"
       id="rect713" />
    <path
       d="M 99.546 313.18 C 190.718 280.12 291.806 262.282 390.607 262.028 C 489.408 261.774 590.168 277.576 689.732 313.943 L 763.843 161.543 L 711.752 69.0507 C 711.752 69.0507 618.814 107.961 618.051 107.961 C 617.288 107.961 552.521 35.3051 552.521 35.3051 L 469.349 86.5279 L 391.247 25.6452 L 317.782 85.5887 L 232.016 35.0587 L 169.455 110.836 L 75.6837 69.9661 L 25.4822 161.613 L 99.546 313.18 z "
       transform="matrix(0.265442,0.000000,0.000000,0.260404,359.6833,74.41441)"
       style="fill:#ffffff;fill-rule:evenodd;stroke:#e5141d;stroke-width:4;stroke-linecap:round;"
       id="path683" />
    <path
       d="M 103.349 305.553 L 48.0531 156.801 L 99.6228 73.0566 L 186.459 111.359 L 214.822 267.766 C 173.376 277.902 152.185 284.731 103.349 305.553 z "
       transform="matrix(0.215013,0.152701,-0.155655,0.210933,537.5602,64.72666)"
       style="fill:#00a7bd;fill-rule:evenodd;stroke:#0084fd;stroke-width:1pt;"
       id="path680" />
    <path
       d="M 103.494 305.848 L 40.6328 163.64 L 87.8043 80.5016 L 179.542 116.471 L 218.598 270.27 C 178.116 279.908 149.132 288.601 103.494 305.848 z "
       transform="matrix(0.262125,4.103393e-2,-4.182777e-2,0.257150,402.3929,62.16748)"
       style="fill:none;fill-rule:evenodd;stroke-width:1pt;stroke-opacity:0.996078;"
       id="path671" />
    <path
       d="M 103.494 305.848 L 40.1211 160.004 L 90.2941 81.753 L 180.275 113.461 L 217.474 268.268 C 177.299 279.206 149.132 288.601 103.494 305.848 z "
       transform="matrix(0.251994,8.183254e-2,-8.341566e-2,0.247212,448.1340,56.56871)"
       style="fill:#00a7bd;fill-rule:evenodd;stroke:#0084fd;stroke-width:1pt;"
       id="path672" />
    <path
       d="M 103.118 305.575 L 35.7959 160.421 L 80.787 80.2911 L 174.053 121.67 L 213.461 271.422 C 170.878 280.398 148.328 287.732 103.118 305.575 z "
       transform="matrix(0.265442,0.000000,0.000000,0.260404,359.6833,74.41441)"
       style="fill:#00a7bd;fill-rule:evenodd;stroke:#0084fd;stroke-width:1pt;stroke-opacity:0.996078;"
       id="path670" />
    <path
       d="M 82.1875 225.175 C 103.385 229.55 118.49 229.707 137.5 224.394 C 160.209 214.915 168.23 202.154 175.625 191.894 C 179.063 213.561 175.469 233.196 149.532 247.05 C 126.25 257.988 94.8439 251.113 82.1875 225.175 z "
       transform="matrix(0.265442,0.000000,0.000000,0.260404,359.6833,74.41441)"
       style="fill:#ffffff;fill-rule:evenodd;stroke:#ffffff;stroke-width:1pt;"
       id="path561" />
    <g
       transform="matrix(0.265442,0.000000,0.000000,0.260404,359.6833,74.41441)"
       id="g591">
      <path
         d="M 410.938 120.565 L 406.875 121.581 L 407.031 129.081 L 402.031 130.175 L 398.534 136.789 L 400.693 138.833 C 400.804 139.054 398.99 143.725 399.068 143.725 C 399.146 143.725 400.391 145.487 400.391 145.487 L 401.719 149.55 L 405.078 150.018 L 405.938 154.784 L 411.25 155.643 L 416.172 159.159 L 416.484 161.347 L 422.109 161.503 L 425.938 162.753 L 439.297 161.19 L 441.094 158.378 L 441.25 154.55 L 448.438 154.315 L 449.095 148.21 L 452.904 148.21 L 452.43 141.335 L 455.607 141.621 L 454.787 138.326 L 452.812 135.643 L 452.422 131.425 L 446.797 125.8 L 445.547 118.456 C 445.547 118.456 441.953 116.815 441.953 116.737 C 441.953 116.659 441.719 111.815 441.719 111.815 L 445.781 106.112 L 445.391 103.847 L 441.641 103.768 L 438.828 106.112 C 438.828 106.112 435.078 106.503 435.078 106.581 C 435.078 106.659 435.078 108.3 435.078 108.3 C 435.078 108.3 436.016 111.503 436.016 111.581 C 436.016 111.659 431.719 111.581 431.719 111.581 L 431.562 106.503 L 425.469 103.456 C 425.469 103.456 419.766 107.362 419.766 107.44 C 419.766 107.518 419.453 111.972 419.453 111.972 L 416.719 112.753 L 413.906 108.534 L 408.984 106.659 L 406.328 106.503 L 406.25 109.784 L 411.406 116.581 L 410.938 120.565 z "
         style="fill:#faf703;fill-opacity:0.996078;fill-rule:evenodd;stroke:#544b20;stroke-width:1pt;stroke-opacity:0.996078;"
         id="path568" />
      <path
         d="M 449.234 148.039 L 448.129 143.951 "
         style="fill:none;fill-rule:evenodd;stroke:#544b20;stroke-width:1pt;"
         id="path570" />
      <path
         d="M 452.327 141.299 L 450.449 138.537 "
         style="fill:none;fill-rule:evenodd;stroke:#544b20;stroke-width:1pt;"
         id="path571" />
      <path
         d="M 400.841 138.206 L 406.697 137.874 L 407.802 143.177 L 409.79 144.945 L 410.122 154.668 L 412 155.441 L 412.553 151.574 L 417.083 151.243 L 417.966 159.087 L 416.862 160.082 L 417.304 161.297 L 422.717 161.187 C 422.717 161.187 423.933 159.087 424.043 159.087 C 424.154 159.087 427.137 158.756 427.137 158.866 C 427.137 158.977 428.352 161.187 428.352 161.187 L 429.236 158.203 C 429.236 158.203 432.109 156.988 432.109 157.099 C 432.109 157.209 434.429 160.855 434.429 160.855 L 438.406 160.303 L 435.976 157.983 L 434.981 152.9 L 440.505 149.917 L 442.715 153.674 C 442.715 153.674 444.814 153.784 444.704 153.674 C 444.593 153.563 442.273 149.365 442.273 149.365 L 442.273 140.526 L 446.472 134.781 L 452.327 134.118 L 452.327 131.687 L 446.472 126.273 L 444.925 118.76 L 441.61 117.103 L 440.726 118.097 L 437.08 118.429 L 440.726 123.843 L 440.726 127.378 L 442.384 128.262 L 442.052 137.985 C 442.052 137.985 437.964 138.537 437.964 138.648 C 437.964 138.758 437.633 144.061 437.633 144.061 L 435.092 146.603 C 435.092 146.603 433.655 151.685 433.545 151.685 C 433.434 151.685 431.114 154.778 431.114 154.778 L 426.584 154.889 C 426.584 154.889 423.933 152.348 423.933 152.237 C 423.933 152.127 423.491 148.481 423.491 148.481 C 423.491 148.481 421.723 147.928 421.612 147.928 C 421.502 147.928 420.618 143.84 420.618 143.84 L 417.524 142.073 L 417.304 139.642 L 414.32 138.316 C 414.32 138.316 413.989 136.106 413.878 135.996 C 413.768 135.885 412.442 135.002 412.332 135.002 C 412.221 135.002 412.221 128.925 412.221 128.925 L 414.873 128.483 L 413.388 126.543 L 412.884 124.837 L 412.884 123.069 L 415.094 120.859 C 415.094 120.859 411.116 120.307 411.116 120.417 C 411.116 120.528 407.25 122.185 407.25 122.075 C 407.36 122.075 407.139 129.256 407.139 129.256 L 402.609 130.693 L 398.963 136.548 L 400.841 138.206 z "
         style="fill:#544b20;fill-rule:evenodd;stroke:#544b21;stroke-width:1pt;stroke-opacity:0.999988;"
         id="path576" />
      <path
         d="M 423.712 148.039 L 426.695 146.271 L 426.584 142.846 L 423.712 142.183 L 422.606 141.078 L 425.811 141.631 L 429.788 141.299 L 431.114 140.636 C 430.562 142.073 430.12 141.962 430.009 141.962 C 429.899 141.962 427.8 143.067 427.8 143.067 L 427.91 146.382 C 427.91 146.382 434.76 147.265 434.65 147.265 C 434.539 147.265 434.65 148.591 434.429 148.591 C 434.208 148.591 427.358 147.044 427.358 147.044 L 423.049 149.696 L 423.712 148.039 z "
         style="fill:#544b20;fill-rule:evenodd;stroke:#544b20;stroke-width:1pt;"
         id="path577" />
      <path
         d="M 440.947 127.489 L 436.97 130.582 L 434.429 135.112 L 433.103 135.333 L 429.236 130.14 L 424.817 130.251 C 424.817 130.251 422.386 136.327 422.386 136.438 C 422.386 136.548 420.618 136.217 420.618 136.217 L 415.978 131.135 C 415.978 131.135 414.541 128.593 414.762 128.593 C 414.983 128.593 426.363 128.704 426.363 128.704 L 426.253 123.18 C 426.253 123.18 424.485 122.627 423.601 122.075 C 424.264 121.854 429.899 121.854 429.899 121.854 L 427.468 123.511 L 427.468 128.262 L 437.522 128.372 L 440.947 127.489 z "
         style="fill:#544b20;fill-rule:evenodd;stroke:#544b20;stroke-width:1pt;stroke-opacity:0.999996;"
         id="path578" />
      <rect
         width="2.65161109"
         height="2.65159607"
         ry="1.32579803"
         x="419.513214"
         y="130.140106"
         style="fill:#796a3a;fill-opacity:0.996079;fill-rule:evenodd;stroke-width:1pt;"
         id="rect579" />
      <rect
         width="2.65161109"
         height="2.65159607"
         ry="1.32579803"
         x="432.108582"
         y="129.587769"
         style="fill:#7a6b3a;fill-rule:evenodd;stroke-width:1pt;"
         id="rect580" />
      <path
         d="M 413.547 121.301 C 417.745 119.607 420.728 118.245 425.921 117.766 C 430.819 117.25 434.613 117.95 438.958 118.76 "
         style="fill:none;fill-rule:evenodd;stroke:#544b20;stroke-width:1pt;"
         id="path581" />
      <path
         d="M 415.867 112.352 L 412.442 112.352 L 407.58 107.159 L 410.343 107.491 L 413.547 108.927 L 415.867 112.352 z "
         style="fill:#544b20;fill-rule:evenodd;stroke:#544b20;stroke-width:1pt;"
         id="path584" />
      <path
         d="M 436.528 110.363 L 444.262 104.398 L 441.721 104.066 L 438.848 106.717 L 435.423 107.27 L 436.528 110.363 z "
         style="fill:#544b20;fill-rule:evenodd;stroke:#544b20;stroke-width:1pt;"
         id="path585" />
      <path
         d="M 431.968 111.459 L 419.845 111.91 L 419.955 110.584 L 424.375 110.142 L 424.927 108.375 C 424.927 108.375 426.253 108.265 426.253 108.375 C 426.253 108.486 427.247 110.032 427.247 110.032 L 431.556 110.805 L 431.968 111.459 z "
         style="fill:#544b20;fill-rule:evenodd;stroke:#544b20;stroke-width:1pt;"
         id="path586" />
      <path
         d="M 431.335 106.828 L 427.137 106.938 L 426.805 104.618 L 431.335 106.828 z "
         style="fill:#544b20;fill-rule:evenodd;stroke:#544b20;stroke-width:1pt;"
         id="path587" />
      <path
         d="M 424.264 104.729 L 423.932 107.048 L 419.845 107.711 L 424.264 104.729 z "
         style="fill:#544b20;fill-rule:evenodd;stroke:#544b20;stroke-width:1pt;"
         id="path588" />
      <path
         d="M 401.062 147.044 L 403.161 141.741 L 401.283 138.095 L 399.405 143.509 L 401.062 147.044 z "
         style="fill:#544b20;fill-rule:evenodd;stroke:#544b20;stroke-width:1pt;"
         id="path589" />
      <path
         d="M 405.371 149.807 L 407.912 143.509 L 403.051 148.591 L 405.371 149.807 z "
         transform="translate(-0.110473,0.110443)"
         style="fill:#544b20;fill-rule:evenodd;stroke:#544b20;stroke-width:1pt;"
         id="path590" />
    </g>
    <g
       transform="matrix(0.265442,0.000000,0.000000,0.260404,341.8802,74.98940)"
       id="g576">
      <path
         d="M 410.938 120.565 L 406.875 121.581 L 407.031 129.081 L 402.031 130.175 L 398.534 136.789 L 400.693 138.833 C 400.804 139.054 398.99 143.725 399.068 143.725 C 399.146 143.725 400.391 145.487 400.391 145.487 L 401.719 149.55 L 405.078 150.018 L 405.938 154.784 L 411.25 155.643 L 416.172 159.159 L 416.484 161.347 L 422.109 161.503 L 425.938 162.753 L 439.297 161.19 L 441.094 158.378 L 441.25 154.55 L 448.438 154.315 L 449.095 148.21 L 452.904 148.21 L 452.43 141.335 L 455.607 141.621 L 454.787 138.326 L 452.812 135.643 L 452.422 131.425 L 446.797 125.8 L 445.547 118.456 C 445.547 118.456 441.953 116.815 441.953 116.737 C 441.953 116.659 441.719 111.815 441.719 111.815 L 445.781 106.112 L 445.391 103.847 L 441.641 103.768 L 438.828 106.112 C 438.828 106.112 435.078 106.503 435.078 106.581 C 435.078 106.659 435.078 108.3 435.078 108.3 C 435.078 108.3 436.016 111.503 436.016 111.581 C 436.016 111.659 431.719 111.581 431.719 111.581 L 431.562 106.503 L 425.469 103.456 C 425.469 103.456 419.766 107.362 419.766 107.44 C 419.766 107.518 419.453 111.972 419.453 111.972 L 416.719 112.753 L 413.906 108.534 L 408.984 106.659 L 406.328 106.503 L 406.25 109.784 L 411.406 116.581 L 410.938 120.565 z "
         style="fill:#faf703;fill-opacity:0.996078;fill-rule:evenodd;stroke:#544b20;stroke-width:1pt;stroke-opacity:0.996078;"
         id="path579" />
      <path
         d="M 449.234 148.039 L 448.129 143.951 "
         style="fill:none;fill-rule:evenodd;stroke:#544b20;stroke-width:1pt;"
         id="path580" />
      <path
         d="M 452.327 141.299 L 450.449 138.537 "
         style="fill:none;fill-rule:evenodd;stroke:#544b20;stroke-width:1pt;"
         id="path591" />
      <path
         d="M 400.841 138.206 L 406.697 137.874 L 407.802 143.177 L 409.79 144.945 L 410.122 154.668 L 412 155.441 L 412.553 151.574 L 417.083 151.243 L 417.966 159.087 L 416.862 160.082 L 417.304 161.297 L 422.717 161.187 C 422.717 161.187 423.933 159.087 424.043 159.087 C 424.154 159.087 427.137 158.756 427.137 158.866 C 427.137 158.977 428.352 161.187 428.352 161.187 L 429.236 158.203 C 429.236 158.203 432.109 156.988 432.109 157.099 C 432.109 157.209 434.429 160.855 434.429 160.855 L 438.406 160.303 L 435.976 157.983 L 434.981 152.9 L 440.505 149.917 L 442.715 153.674 C 442.715 153.674 444.814 153.784 444.704 153.674 C 444.593 153.563 442.273 149.365 442.273 149.365 L 442.273 140.526 L 446.472 134.781 L 452.327 134.118 L 452.327 131.687 L 446.472 126.273 L 444.925 118.76 L 441.61 117.103 L 440.726 118.097 L 437.08 118.429 L 440.726 123.843 L 440.726 127.378 L 442.384 128.262 L 442.052 137.985 C 442.052 137.985 437.964 138.537 437.964 138.648 C 437.964 138.758 437.633 144.061 437.633 144.061 L 435.092 146.603 C 435.092 146.603 433.655 151.685 433.545 151.685 C 433.434 151.685 431.114 154.778 431.114 154.778 L 426.584 154.889 C 426.584 154.889 423.933 152.348 423.933 152.237 C 423.933 152.127 423.491 148.481 423.491 148.481 C 423.491 148.481 421.723 147.928 421.612 147.928 C 421.502 147.928 420.618 143.84 420.618 143.84 L 417.524 142.073 L 417.304 139.642 L 414.32 138.316 C 414.32 138.316 413.989 136.106 413.878 135.996 C 413.768 135.885 412.442 135.002 412.332 135.002 C 412.221 135.002 412.221 128.925 412.221 128.925 L 414.873 128.483 L 413.388 126.543 L 412.884 124.837 L 412.884 123.069 L 415.094 120.859 C 415.094 120.859 411.116 120.307 411.116 120.417 C 411.116 120.528 407.25 122.185 407.25 122.075 C 407.36 122.075 407.139 129.256 407.139 129.256 L 402.609 130.693 L 398.963 136.548 L 400.841 138.206 z "
         style="fill:#544b20;fill-rule:evenodd;stroke:#544b21;stroke-width:1pt;stroke-opacity:0.999988;"
         id="path592" />
      <path
         d="M 423.712 148.039 L 426.695 146.271 L 426.584 142.846 L 423.712 142.183 L 422.606 141.078 L 425.811 141.631 L 429.788 141.299 L 431.114 140.636 C 430.562 142.073 430.12 141.962 430.009 141.962 C 429.899 141.962 427.8 143.067 427.8 143.067 L 427.91 146.382 C 427.91 146.382 434.76 147.265 434.65 147.265 C 434.539 147.265 434.65 148.591 434.429 148.591 C 434.208 148.591 427.358 147.044 427.358 147.044 L 423.049 149.696 L 423.712 148.039 z "
         style="fill:#544b20;fill-rule:evenodd;stroke:#544b20;stroke-width:1pt;"
         id="path593" />
      <path
         d="M 440.947 127.489 L 436.97 130.582 L 434.429 135.112 L 433.103 135.333 L 429.236 130.14 L 424.817 130.251 C 424.817 130.251 422.386 136.327 422.386 136.438 C 422.386 136.548 420.618 136.217 420.618 136.217 L 415.978 131.135 C 415.978 131.135 414.541 128.593 414.762 128.593 C 414.983 128.593 426.363 128.704 426.363 128.704 L 426.253 123.18 C 426.253 123.18 424.485 122.627 423.601 122.075 C 424.264 121.854 429.899 121.854 429.899 121.854 L 427.468 123.511 L 427.468 128.262 L 437.522 128.372 L 440.947 127.489 z "
         style="fill:#544b20;fill-rule:evenodd;stroke:#544b20;stroke-width:1pt;stroke-opacity:0.999996;"
         id="path594" />
      <rect
         width="2.65161109"
         height="2.65159607"
         ry="1.32579803"
         x="419.513214"
         y="130.140106"
         style="fill:#796a3a;fill-opacity:0.996079;fill-rule:evenodd;stroke-width:1pt;"
         id="rect595" />
      <rect
         width="2.65161109"
         height="2.65159607"
         ry="1.32579803"
         x="432.108582"
         y="129.587769"
         style="fill:#7a6b3a;fill-rule:evenodd;stroke-width:1pt;"
         id="rect596" />
      <path
         d="M 413.547 121.301 C 417.745 119.607 420.728 118.245 425.921 117.766 C 430.819 117.25 434.613 117.95 438.958 118.76 "
         style="fill:none;fill-rule:evenodd;stroke:#544b20;stroke-width:1pt;"
         id="path597" />
      <path
         d="M 415.867 112.352 L 412.442 112.352 L 407.58 107.159 L 410.343 107.491 L 413.547 108.927 L 415.867 112.352 z "
         style="fill:#544b20;fill-rule:evenodd;stroke:#544b20;stroke-width:1pt;"
         id="path600" />
      <path
         d="M 436.528 110.363 L 444.262 104.398 L 441.721 104.066 L 438.848 106.717 L 435.423 107.27 L 436.528 110.363 z "
         style="fill:#544b20;fill-rule:evenodd;stroke:#544b20;stroke-width:1pt;"
         id="path601" />
      <path
         d="M 431.968 111.459 L 419.845 111.91 L 419.955 110.584 L 424.375 110.142 L 424.927 108.375 C 424.927 108.375 426.253 108.265 426.253 108.375 C 426.253 108.486 427.247 110.032 427.247 110.032 L 431.556 110.805 L 431.968 111.459 z "
         style="fill:#544b20;fill-rule:evenodd;stroke:#544b20;stroke-width:1pt;"
         id="path602" />
      <path
         d="M 431.335 106.828 L 427.137 106.938 L 426.805 104.618 L 431.335 106.828 z "
         style="fill:#544b20;fill-rule:evenodd;stroke:#544b20;stroke-width:1pt;"
         id="path603" />
      <path
         d="M 424.264 104.729 L 423.932 107.048 L 419.845 107.711 L 424.264 104.729 z "
         style="fill:#544b20;fill-rule:evenodd;stroke:#544b20;stroke-width:1pt;"
         id="path604" />
      <path
         d="M 401.062 147.044 L 403.161 141.741 L 401.283 138.095 L 399.405 143.509 L 401.062 147.044 z "
         style="fill:#544b20;fill-rule:evenodd;stroke:#544b20;stroke-width:1pt;"
         id="path605" />
      <path
         d="M 405.371 149.807 L 407.912 143.509 L 403.051 148.591 L 405.371 149.807 z "
         transform="translate(-0.110473,0.110443)"
         style="fill:#544b20;fill-rule:evenodd;stroke:#544b20;stroke-width:1pt;"
         id="path606" />
    </g>
    <path
       d="M 103.349 305.553 L 45.2802 157.1 L 97.9604 77.2495 L 186.304 112.325 L 215.711 268.404 C 174.951 278.897 152.233 285.977 103.349 305.553 z "
       transform="matrix(0.238179,0.114950,-0.117174,0.233659,492.0297,57.35287)"
       style="fill:#001070;fill-rule:evenodd;stroke:#001071;stroke-width:1pt;stroke-opacity:0.996078;"
       id="path673" />
    <g
       transform="matrix(0.265442,0.000000,0.000000,0.260404,351.1114,90.44219)"
       id="g607">
      <path
         d="M 410.938 120.565 L 406.875 121.581 L 407.031 129.081 L 402.031 130.175 L 398.534 136.789 L 400.693 138.833 C 400.804 139.054 398.99 143.725 399.068 143.725 C 399.146 143.725 400.391 145.487 400.391 145.487 L 401.719 149.55 L 405.078 150.018 L 405.938 154.784 L 411.25 155.643 L 416.172 159.159 L 416.484 161.347 L 422.109 161.503 L 425.938 162.753 L 439.297 161.19 L 441.094 158.378 L 441.25 154.55 L 448.438 154.315 L 449.095 148.21 L 452.904 148.21 L 452.43 141.335 L 455.607 141.621 L 454.787 138.326 L 452.812 135.643 L 452.422 131.425 L 446.797 125.8 L 445.547 118.456 C 445.547 118.456 441.953 116.815 441.953 116.737 C 441.953 116.659 441.719 111.815 441.719 111.815 L 445.781 106.112 L 445.391 103.847 L 441.641 103.768 L 438.828 106.112 C 438.828 106.112 435.078 106.503 435.078 106.581 C 435.078 106.659 435.078 108.3 435.078 108.3 C 435.078 108.3 436.016 111.503 436.016 111.581 C 436.016 111.659 431.719 111.581 431.719 111.581 L 431.562 106.503 L 425.469 103.456 C 425.469 103.456 419.766 107.362 419.766 107.44 C 419.766 107.518 419.453 111.972 419.453 111.972 L 416.719 112.753 L 413.906 108.534 L 408.984 106.659 L 406.328 106.503 L 406.25 109.784 L 411.406 116.581 L 410.938 120.565 z "
         style="fill:#faf703;fill-opacity:0.996078;fill-rule:evenodd;stroke:#544b20;stroke-width:1pt;stroke-opacity:0.996078;"
         id="path608" />
      <path
         d="M 449.234 148.039 L 448.129 143.951 "
         style="fill:none;fill-rule:evenodd;stroke:#544b20;stroke-width:1pt;"
         id="path609" />
      <path
         d="M 452.327 141.299 L 450.449 138.537 "
         style="fill:none;fill-rule:evenodd;stroke:#544b20;stroke-width:1pt;"
         id="path610" />
      <path
         d="M 400.841 138.206 L 406.697 137.874 L 407.802 143.177 L 409.79 144.945 L 410.122 154.668 L 412 155.441 L 412.553 151.574 L 417.083 151.243 L 417.966 159.087 L 416.862 160.082 L 417.304 161.297 L 422.717 161.187 C 422.717 161.187 423.933 159.087 424.043 159.087 C 424.154 159.087 427.137 158.756 427.137 158.866 C 427.137 158.977 428.352 161.187 428.352 161.187 L 429.236 158.203 C 429.236 158.203 432.109 156.988 432.109 157.099 C 432.109 157.209 434.429 160.855 434.429 160.855 L 438.406 160.303 L 435.976 157.983 L 434.981 152.9 L 440.505 149.917 L 442.715 153.674 C 442.715 153.674 444.814 153.784 444.704 153.674 C 444.593 153.563 442.273 149.365 442.273 149.365 L 442.273 140.526 L 446.472 134.781 L 452.327 134.118 L 452.327 131.687 L 446.472 126.273 L 444.925 118.76 L 441.61 117.103 L 440.726 118.097 L 437.08 118.429 L 440.726 123.843 L 440.726 127.378 L 442.384 128.262 L 442.052 137.985 C 442.052 137.985 437.964 138.537 437.964 138.648 C 437.964 138.758 437.633 144.061 437.633 144.061 L 435.092 146.603 C 435.092 146.603 433.655 151.685 433.545 151.685 C 433.434 151.685 431.114 154.778 431.114 154.778 L 426.584 154.889 C 426.584 154.889 423.933 152.348 423.933 152.237 C 423.933 152.127 423.491 148.481 423.491 148.481 C 423.491 148.481 421.723 147.928 421.612 147.928 C 421.502 147.928 420.618 143.84 420.618 143.84 L 417.524 142.073 L 417.304 139.642 L 414.32 138.316 C 414.32 138.316 413.989 136.106 413.878 135.996 C 413.768 135.885 412.442 135.002 412.332 135.002 C 412.221 135.002 412.221 128.925 412.221 128.925 L 414.873 128.483 L 413.388 126.543 L 412.884 124.837 L 412.884 123.069 L 415.094 120.859 C 415.094 120.859 411.116 120.307 411.116 120.417 C 411.116 120.528 407.25 122.185 407.25 122.075 C 407.36 122.075 407.139 129.256 407.139 129.256 L 402.609 130.693 L 398.963 136.548 L 400.841 138.206 z "
         style="fill:#544b20;fill-rule:evenodd;stroke:#544b21;stroke-width:1pt;stroke-opacity:0.999988;"
         id="path611" />
      <path
         d="M 423.712 148.039 L 426.695 146.271 L 426.584 142.846 L 423.712 142.183 L 422.606 141.078 L 425.811 141.631 L 429.788 141.299 L 431.114 140.636 C 430.562 142.073 430.12 141.962 430.009 141.962 C 429.899 141.962 427.8 143.067 427.8 143.067 L 427.91 146.382 C 427.91 146.382 434.76 147.265 434.65 147.265 C 434.539 147.265 434.65 148.591 434.429 148.591 C 434.208 148.591 427.358 147.044 427.358 147.044 L 423.049 149.696 L 423.712 148.039 z "
         style="fill:#544b20;fill-rule:evenodd;stroke:#544b20;stroke-width:1pt;"
         id="path612" />
      <path
         d="M 440.947 127.489 L 436.97 130.582 L 434.429 135.112 L 433.103 135.333 L 429.236 130.14 L 424.817 130.251 C 424.817 130.251 422.386 136.327 422.386 136.438 C 422.386 136.548 420.618 136.217 420.618 136.217 L 415.978 131.135 C 415.978 131.135 414.541 128.593 414.762 128.593 C 414.983 128.593 426.363 128.704 426.363 128.704 L 426.253 123.18 C 426.253 123.18 424.485 122.627 423.601 122.075 C 424.264 121.854 429.899 121.854 429.899 121.854 L 427.468 123.511 L 427.468 128.262 L 437.522 128.372 L 440.947 127.489 z "
         style="fill:#544b20;fill-rule:evenodd;stroke:#544b20;stroke-width:1pt;stroke-opacity:0.999996;"
         id="path613" />
      <rect
         width="2.65161109"
         height="2.65159607"
         ry="1.32579803"
         x="419.513214"
         y="130.140106"
         style="fill:#796a3a;fill-opacity:0.996079;fill-rule:evenodd;stroke-width:1pt;"
         id="rect614" />
      <rect
         width="2.65161109"
         height="2.65159607"
         ry="1.32579803"
         x="432.108582"
         y="129.587769"
         style="fill:#7a6b3a;fill-rule:evenodd;stroke-width:1pt;"
         id="rect615" />
      <path
         d="M 413.547 121.301 C 417.745 119.607 420.728 118.245 425.921 117.766 C 430.819 117.25 434.613 117.95 438.958 118.76 "
         style="fill:none;fill-rule:evenodd;stroke:#544b20;stroke-width:1pt;"
         id="path616" />
      <path
         d="M 415.867 112.352 L 412.442 112.352 L 407.58 107.159 L 410.343 107.491 L 413.547 108.927 L 415.867 112.352 z "
         style="fill:#544b20;fill-rule:evenodd;stroke:#544b20;stroke-width:1pt;"
         id="path619" />
      <path
         d="M 436.528 110.363 L 444.262 104.398 L 441.721 104.066 L 438.848 106.717 L 435.423 107.27 L 436.528 110.363 z "
         style="fill:#544b20;fill-rule:evenodd;stroke:#544b20;stroke-width:1pt;"
         id="path620" />
      <path
         d="M 431.968 111.459 L 419.845 111.91 L 419.955 110.584 L 424.375 110.142 L 424.927 108.375 C 424.927 108.375 426.253 108.265 426.253 108.375 C 426.253 108.486 427.247 110.032 427.247 110.032 L 431.556 110.805 L 431.968 111.459 z "
         style="fill:#544b20;fill-rule:evenodd;stroke:#544b20;stroke-width:1pt;"
         id="path621" />
      <path
         d="M 431.335 106.828 L 427.137 106.938 L 426.805 104.618 L 431.335 106.828 z "
         style="fill:#544b20;fill-rule:evenodd;stroke:#544b20;stroke-width:1pt;"
         id="path622" />
      <path
         d="M 424.264 104.729 L 423.932 107.048 L 419.845 107.711 L 424.264 104.729 z "
         style="fill:#544b20;fill-rule:evenodd;stroke:#544b20;stroke-width:1pt;"
         id="path623" />
      <path
         d="M 401.062 147.044 L 403.161 141.741 L 401.283 138.095 L 399.405 143.509 L 401.062 147.044 z "
         style="fill:#544b20;fill-rule:evenodd;stroke:#544b20;stroke-width:1pt;"
         id="path624" />
      <path
         d="M 405.371 149.807 L 407.912 143.509 L 403.051 148.591 L 405.371 149.807 z "
         transform="translate(-0.110473,0.110443)"
         style="fill:#544b20;fill-rule:evenodd;stroke:#544b20;stroke-width:1pt;"
         id="path625" />
    </g>
    <path
       d="M 476.898 225.824 L 472.762 230.755 L 473.08 234.891 L 481.67 234.732 C 484.427 234.069 485.116 233.088 485.647 231.948 C 486.495 230.543 485.912 229.774 486.124 227.892 L 476.898 225.824 z "
       transform="matrix(0.265442,0.000000,0.000000,0.260404,359.6833,74.41441)"
       style="fill:#a0210c;fill-rule:evenodd;stroke:#a0210c;stroke-width:1pt;stroke-opacity:0.99652;"
       id="path628" />
    <path
       d="M 476.58 226.142 L 473.08 229.482 L 473.08 233.3 L 480.716 233.141 C 483.473 232.478 483.843 231.974 484.374 230.835 C 485.222 229.429 484.958 229.456 485.17 227.574 L 476.58 226.142 z "
       transform="matrix(0.265442,0.000000,0.000000,0.260404,365.2569,77.56252)"
       style="fill:#a0210c;fill-rule:evenodd;stroke:#a0210c;stroke-width:1pt;stroke-opacity:0.99652;"
       id="path629" />
    <path
       d="M 476.898 225.983 L 472.921 230.119 L 473.08 233.3 L 481.193 233.618 C 483.95 232.955 483.525 233.088 484.374 231.63 C 485.222 230.225 484.958 229.933 485.17 228.051 L 476.898 225.983 z "
       transform="matrix(0.265442,0.000000,0.000000,0.260404,374.0818,74.82864)"
       style="fill:#a0210c;fill-rule:evenodd;stroke:#a0210c;stroke-width:1pt;stroke-opacity:0.99652;"
       id="path630" />
    <path
       d="M 477.852 225.506 L 473.239 229.482 L 473.239 233.459 L 481.829 234.255 C 484.586 233.592 484.798 232.77 485.488 231.789 C 486.336 230.384 485.912 230.251 486.124 228.369 L 477.852 225.506 z "
       transform="matrix(0.265442,0.000000,0.000000,0.260404,380.1199,76.89977)"
       style="fill:#a0210c;fill-rule:evenodd;stroke:#a0210c;stroke-width:1pt;stroke-opacity:0.99652;"
       id="path631" />
    <path
       d="M 497.1 131.017 L 513.325 141.993 C 516.375 139.414 522.72 140.977 525.205 141.692 C 529.667 142.879 532.812 145.572 536.709 146.288 C 543.837 148.114 552.377 149.375 558.845 148.659 C 565.314 147.944 570.747 144.498 575.522 141.993 L 575.522 140.403 L 572.341 140.403 C 567.177 142.297 559.941 142.401 554.4 141.659 C 548.859 140.917 547.366 138.385 539.095 135.949 L 538.459 134.358 C 548.499 134.844 550.538 134.579 554.741 132.711 C 558.85 131.599 560.701 129.168 563.021 127.489 L 562.956 125.609 L 559.933 125.45 C 556.039 128.094 553.557 128.572 547.591 128.015 C 542.162 127.455 537.272 124.305 533.63 124.239 C 529.767 124.269 529.949 122.388 526.213 122.203 C 520.274 121.673 513.855 122.48 508.235 123.859 C 501.501 125.927 500.493 127.676 497.1 131.017 z "
       transform="matrix(0.265442,0.000000,0.000000,0.260404,359.6833,74.41441)"
       style="fill:#a0210c;fill-rule:evenodd;stroke:#000000;stroke-width:1pt;"
       id="path632" />
    <path
       d="M 500.251 128.583 C 501.804 128.943 503.546 129.399 504.816 130.136 C 506.087 130.873 505.758 130.858 507.123 131.877 C 506.904 130.56 506.966 130.654 506.088 129.619 C 505.209 128.583 503.765 127.642 502.605 126.794 L 500.251 128.583 z "
       transform="matrix(0.265442,0.000000,0.000000,0.260404,359.6833,74.41441)"
       style="fill-rule:evenodd;stroke:#000000;stroke-width:1pt;"
       id="path633" />
    <path
       d="M 513.807 140.444 C 513.838 139.017 513.117 137.777 512.583 136.538 C 512.05 135.299 511.61 134.247 510.606 133.008 C 511.861 133.368 512.552 133.917 513.619 135.219 C 514.685 136.522 514.623 137.824 514.842 139.69 L 513.807 140.444 z "
       transform="matrix(0.265442,0.000000,0.000000,0.260404,359.6833,74.41441)"
       style="fill-rule:evenodd;stroke:#000000;stroke-width:1pt;"
       id="path634" />
    <path
       d="M 516.914 123.029 C 517.291 124.018 518.03 124.697 518.656 126.807 C 519.197 128.724 519.455 131.407 519.455 131.407 C 519.251 129.979 519.612 128.363 519.408 126.935 C 519.204 125.508 518.435 124.268 518.231 122.84 L 516.914 123.029 z "
       transform="matrix(0.265442,0.000000,0.000000,0.260404,359.6833,74.41441)"
       style="fill-rule:evenodd;stroke:#000000;stroke-width:1pt;"
       id="path635" />
    <path
       d="M 529.81 123.876 L 530.469 131.784 L 531.223 124.347 L 529.81 123.876 z "
       transform="matrix(0.265442,0.000000,0.000000,0.260404,359.7583,74.41441)"
       style="fill-rule:evenodd;stroke:#000000;stroke-width:1pt;"
       id="path636" />
    <path
       d="M 526.704 140.35 C 527.018 139.064 526.955 137.777 526.798 136.49 C 526.641 135.204 526.201 134.106 525.762 132.631 C 527.017 133.729 527.52 135.11 528.21 136.585 C 528.21 138.059 527.834 139.345 526.704 140.35 z "
       transform="matrix(0.265442,0.000000,0.000000,0.260404,359.7333,74.38989)"
       style="fill-rule:evenodd;stroke:#000000;stroke-width:1pt;"
       id="path637" />
    <path
       d="M 540.448 137.055 C 540.495 137.055 540.849 139.738 540.249 141.668 C 539.649 143.598 539.225 143.739 538.095 144.775 C 539.601 143.646 540.919 143.269 541.39 142.045 C 541.861 140.162 540.636 137.338 540.448 137.055 z "
       transform="matrix(0.265442,0.000000,0.000000,0.260404,359.7083,74.34086)"
       style="fill-rule:evenodd;stroke:#000000;stroke-width:1pt;"
       id="path638" />
    <path
       d="M 542.048 133.855 C 541.107 134.012 540.919 130.026 540.354 128.112 C 540.762 127.892 541.17 127.955 541.578 128.865 C 542.017 129.399 541.891 132.192 542.048 133.855 z "
       transform="matrix(0.265442,0.000000,0.000000,0.260404,359.9082,74.51247)"
       style="fill-rule:evenodd;stroke:#000000;stroke-width:1pt;"
       id="path639" />
    <path
       d="M 552.215 133.007 L 552.592 129.712 L 553.627 129.618 C 553.627 129.618 553.627 132.348 553.627 132.442 C 553.627 132.537 552.31 133.101 552.215 133.007 z "
       transform="matrix(0.265442,0.000000,0.000000,0.260404,359.6833,74.31635)"
       style="fill-rule:evenodd;stroke:#000000;stroke-width:1pt;"
       id="path640" />
    <path
       d="M 551.556 141.856 C 552.153 142.86 553.219 144.053 553.345 145.151 C 553.471 146.249 553.125 146.783 552.31 148.446 L 553.816 148.54 C 554.631 147.207 554.883 146.25 554.758 145.199 C 554.632 144.147 554.129 143.096 553.063 142.233 L 551.556 141.856 z "
       transform="matrix(0.265442,0.000000,0.000000,0.260404,359.6583,74.31635)"
       style="fill-rule:evenodd;stroke:#000000;stroke-width:1pt;"
       id="path641" />
    <path
       d="M 562.571 142.704 L 562.947 147.316 L 564.171 146.657 L 563.889 142.704 L 562.571 142.704 z "
       transform="matrix(0.265442,0.000000,0.000000,0.260404,359.7083,74.31635)"
       style="fill-rule:evenodd;stroke:#000000;stroke-width:1pt;"
       id="path642" />
    <path
       d="M 496.094 131.831 C 492.422 132.914 491.094 134.982 489.297 136.769 L 478.951 131.428 C 477.273 132.847 476.627 134.874 477.434 136.949 C 478.241 139.023 481.487 142.27 483.795 143.875 C 483.217 146.74 482.365 148.902 481.356 151.415 C 480.231 154.24 477.816 157.809 477.746 158.955 C 477.608 160.267 477.188 163.078 479.113 163.827 C 481.039 164.576 487.231 163.308 489.297 163.447 C 488.961 164.574 488.157 166.545 488.431 167.391 C 488.705 168.237 489.26 168.519 490.941 168.568 C 490.457 169.615 489.412 170.942 489.913 171.567 C 491.211 172.568 492.698 172.395 493.949 172.317 C 491.976 174.649 487.047 179.137 485.448 181.142 C 483.756 183.474 483.611 185.993 486.89 185.746 C 485.67 187.124 484.497 188.455 484.684 189.645 C 484.966 191.07 485.669 192.026 488.013 191.2 C 486.626 194.397 487.537 197.266 488.026 200.603 C 486.842 203.128 487.345 205.466 487.051 208.366 C 484.639 209.758 484.339 211.572 482.771 214.371 C 481.357 217.401 478.725 218.228 477.265 224.729 L 486.73 227.135 C 487.078 225.798 488.316 224.93 488.664 223.594 C 489.011 222.257 488.984 220.592 488.815 219.114 C 490.693 216.342 494.493 210.616 495.714 207.563 C 497.781 206.438 499.284 205.734 500.835 205.734 C 502.386 205.734 503.373 206.672 505.018 207.563 C 504.29 210.136 502.249 212.942 502.131 216.547 L 502.131 226.494 C 501.719 228.965 498.962 228.998 497.799 236.44 L 506.302 238.686 C 507.746 236.183 510.033 235.838 510.633 234.836 L 511.247 224.502 C 512.329 219.624 519.039 215.591 519.136 210.291 C 521.544 210.258 522.453 210.508 523.408 210.006 C 524.691 209.551 525.131 208.815 526.133 207.891 C 526.519 209.486 527.75 209.626 528.793 209.626 C 529.835 209.626 531.909 208.126 532.765 207.516 C 533.367 208.381 533.686 209.199 534.944 209.501 C 536.202 209.803 539.757 209.261 541.203 208.906 L 534.216 220.558 C 533.955 221.681 534.304 222.382 533.762 223.693 C 533.254 224.87 532.23 225.437 531.769 226.521 L 539.69 228.45 L 540.954 225.05 C 542.633 224.329 543.985 223.936 544.867 222.84 C 545.749 221.744 545.741 219.662 546.248 218.472 C 548.954 216.47 553.207 212.123 556.194 208.526 C 558.222 208.875 561.094 210.584 562.184 213.138 C 562.337 215.878 562.535 220.917 561.328 224.408 L 556.194 232.59 L 555.612 233.932 L 563.694 236.867 L 568.828 232.856 L 569.028 227.135 C 571.607 222.493 575.297 219.956 578.814 217.029 C 578.814 216.868 579.189 210.885 579.048 210.651 C 578.179 209.977 577.592 210.382 577.285 209.145 C 576.979 207.909 577.188 204.515 577.351 203.185 C 577.859 202.543 578.93 201.806 578.875 201.258 C 577.476 199.693 577.904 195.642 578.333 192.483 C 578.228 188.886 583.048 184.633 583.787 182.537 L 584.088 178.761 C 583.595 177.833 582.869 177.28 582.845 176.492 C 582.822 175.705 583.782 174.401 584.369 173.566 L 585.391 171.789 L 585.231 162.484 C 584.945 161.479 584.096 159.912 583.294 159.751 C 582.491 159.591 581.314 160.51 580.418 161.521 L 575.773 165.016 C 573.546 165.71 571.6 165.983 567.685 164.989 L 561.713 165.11 C 558.577 166.003 556.941 166.147 553.992 164.836 L 550.456 164.894 C 549.354 165.506 547.829 166.491 546.633 166.727 C 545.438 166.962 543.82 167.01 542.624 166.636 C 533.496 167.262 535.763 167.934 533.154 168.513 C 531.059 168.108 531.731 167.047 523.588 166.969 L 520.36 166.006 C 516.287 163.255 513.151 158.863 510.438 153.814 C 518.922 151.337 522.482 148.765 525.056 142.865 L 513.059 143.322 L 496.094 131.831 z "
       transform="matrix(0.265442,0.000000,0.000000,0.260404,359.6833,74.41441)"
       style="fill:#dc9103;fill-rule:evenodd;stroke:#544b20;stroke-width:1pt;"
       id="path643" />
    <path
       d="M 491.652 147.821 L 495.049 149.288 C 495.464 149.791 496.268 150.371 496.8 150.405 C 497.331 150.438 497.784 149.886 498.238 149.49 L 501.365 147.821 C 499.512 147.548 498.947 146.376 496.977 146.376 C 495.007 146.376 493.622 147.43 491.652 147.821 z "
       transform="matrix(0.265442,0.000000,0.000000,0.260404,359.7352,74.18044)"
       style="fill-rule:evenodd;stroke:#000000;stroke-width:1pt;"
       id="path644" />
    <path
       d="M 506.769 147.782 C 507.873 148.446 509.876 149.774 511.527 149.774 C 513.334 149.618 513.305 148.329 515.893 147.47 L 519.689 144.342 C 517.399 144.368 512.452 144.825 509.733 145.672 C 507.443 146.284 506.911 147.209 506.769 147.782 z "
       transform="matrix(0.265442,0.000000,0.000000,0.260404,359.6833,74.41441)"
       style="fill-rule:evenodd;stroke:#000000;stroke-width:1pt;"
       id="path645" />
    <path
       d="M 497.929 187.567 C 497.928 187.853 497.458 188.062 497.222 187.723 C 496.931 183.665 496.054 180.818 494.826 177.658 C 496.212 180.062 497.363 183.951 497.929 187.567 z "
       transform="matrix(0.265442,0.000000,0.000000,0.260404,359.7248,74.46528)"
       style="fill-rule:evenodd;stroke:#000000;stroke-width:1pt;"
       id="path646" />
    <path
       d="M 507.27 204.531 C 505.726 204.691 505.118 204.459 503.574 204.619 C 503.404 200.536 503.389 195.867 503.414 192.956 C 504.003 193.03 505.725 194.862 506.744 197.749 C 507.01 199.879 507.394 202.283 507.27 204.531 z "
       transform="matrix(0.265442,0.000000,0.000000,0.260404,359.8181,74.38387)"
       style="fill-rule:evenodd;stroke:#000000;stroke-width:1pt;"
       id="path647" />
    <path
       d="M 518.034 188.202 C 518.73 188.397 519.7 188.398 519.927 187.929 C 520.222 187.059 519.344 186.111 519.015 185.046 C 517.87 182.759 517.235 180.278 516.756 179.203 C 516.252 178.879 515.709 178.908 515.829 179.444 C 516.486 181.478 517.612 187.418 518.034 188.202 z "
       transform="matrix(0.265442,0.000000,0.000000,0.260404,359.6833,74.41441)"
       style="fill-rule:evenodd;stroke:#000000;stroke-width:1pt;"
       id="path648" />
    <path
       d="M 528.976 186.971 C 529.051 187.464 527.407 186.747 527.13 186.186 C 527.106 185.097 524.893 177.132 525.259 176.824 C 525.724 176.592 527.166 179.486 527.631 180.818 C 527.74 181.606 528.71 184.503 528.976 186.971 z "
       transform="matrix(0.265442,0.000000,0.000000,0.260404,359.6833,74.41441)"
       style="fill-rule:evenodd;stroke:#000000;stroke-width:1pt;"
       id="path649" />
    <path
       d="M 527.425 203.384 C 527.386 203.941 528.675 203.483 529.183 203.064 C 530.656 200.717 532.481 198.253 533.017 197.313 C 533.34 196.308 534.952 189.913 534.455 189.964 C 534.279 189.779 532.877 193.136 531.067 196.449 C 529.184 199.823 527.405 203.061 527.425 203.384 z "
       transform="matrix(0.265442,0.000000,0.000000,0.260404,359.6833,74.41441)"
       style="fill-rule:evenodd;stroke:#000000;stroke-width:1pt;"
       id="path650" />
    <path
       d="M 538.399 199.947 C 537.863 200.21 539.475 194.418 539.603 193.392 C 539.898 191.77 540.309 188.859 540.955 185.089 C 541.744 190.354 540.813 196.01 538.399 199.947 z "
       transform="matrix(0.265442,0.000000,0.000000,0.260404,359.6833,74.41441)"
       style="fill-rule:evenodd;stroke:#000000;stroke-width:1pt;"
       id="path651" />
    <path
       d="M 544.981 182.22 C 544.629 182.533 539.915 174.59 540.348 174.551 C 540.469 174.199 544.299 179.522 544.846 180.459 C 545.074 180.903 545.3 181.581 544.981 182.22 z "
       transform="matrix(0.265442,0.000000,0.000000,0.260404,359.6833,74.41441)"
       style="fill-rule:evenodd;stroke:#000000;stroke-width:1pt;"
       id="path652" />
    <path
       d="M 556.013 188.117 C 555.661 187.846 555.802 185.31 555.104 182.525 C 554.407 179.74 553.221 177.056 553.456 176.294 C 553.676 175.893 554.443 176.078 555.054 176.614 C 555.345 178.129 556.026 183.942 556.825 187.723 C 556.814 188.089 556.414 188.338 556.013 188.117 z "
       transform="matrix(0.265442,0.000000,0.000000,0.260404,359.6833,74.41441)"
       style="fill-rule:evenodd;stroke:#000000;stroke-width:1pt;"
       id="path653" />
    <path
       d="M 563.723 181.06 C 563.346 180.651 564.747 183.787 565.767 187.513 C 566.787 191.24 567.309 197.823 567.557 197.355 C 568.258 196.881 568.139 196.29 569.231 196.05 C 570.322 195.811 574.383 196.196 574.147 195.918 C 571.635 193.637 569.318 191.746 567.587 189.27 C 565.857 186.794 564.712 183.536 563.723 181.06 z "
       transform="matrix(0.265442,0.000000,0.000000,0.260404,359.6833,74.41441)"
       style="fill-rule:evenodd;stroke:#000000;stroke-width:1pt;"
       id="path654" />
    <path
       d="M 573.22 215.04 C 572.432 215.619 570.941 216.08 570.505 215.839 C 568.11 210.762 566.769 207.443 563.436 202.014 C 562.577 200.725 560.439 200.924 560.56 200.416 C 560.64 199.83 561.761 200.065 562.486 199.215 C 563.211 198.366 563.306 197.291 563.755 196.901 C 562.775 199.244 565.349 202.837 566.791 205.688 C 567.75 205.954 568.513 205.948 568.964 206.526 C 569.071 206.8 567.927 206.994 568.073 207.971 L 570.505 212.963 C 571.297 213.569 572.518 213.903 573.7 214.081 C 574.009 214.361 573.458 214.759 573.22 215.04 z "
       transform="matrix(0.265442,0.000000,0.000000,0.260404,359.6833,74.41441)"
       style="fill-rule:evenodd;stroke:#000000;stroke-width:1pt;"
       id="path655" />
    <path
       d="M 103.349 305.553 L 49.3325 155.434 L 101.832 72.4905 L 189.129 112.335 L 215.443 268.594 C 174.951 278.897 152.121 285.251 103.349 305.553 z "
       transform="matrix(0.216519,0.150639,-0.153553,0.212410,536.7440,64.47726)"
       style="fill:none;fill-rule:evenodd;stroke-width:1pt;stroke-opacity:0.996078;"
       id="path674" />
    <path
       d="M 578.199 170.66 C 579.702 170.745 581.06 170.879 581.506 170.1 C 582.425 168.171 582.958 166.581 582.339 165.327 C 579.983 165.52 578.203 166.626 577.241 168.743 C 577.272 169.478 577.446 170.021 578.199 170.66 z "
       transform="matrix(0.265442,0.000000,0.000000,0.260404,359.6833,74.41441)"
       style="fill-rule:evenodd;stroke:#000000;stroke-width:1pt;"
       id="path656" />
    <path
       d="M 602.949 169.213 C 626.242 174.229 647.805 179.937 669.368 187.028 C 690.93 194.119 711.455 202.594 732.326 211.761 L 697.387 283.714 C 677.885 276.149 658.629 270.051 639.372 263.71 C 620.116 257.368 601.349 251.759 581.848 245.662 L 602.949 169.213 z "
       transform="matrix(0.265442,0.000000,0.000000,0.260404,359.6833,74.41441)"
       style="fill:#fdfcfc;fill-rule:evenodd;stroke:#fdfcfc;stroke-width:1pt;"
       id="path681" />
    <path
       d="M 598.309 186.21 C 598.309 186.21 630.841 193.609 662.365 203.944 C 693.889 214.278 724.648 227.547 724.526 227.547 C 724.281 227.547 704.712 268.642 704.712 268.642 C 685.715 260.937 665.738 253.72 646.007 247.238 C 626.275 240.756 606.544 234.519 586.323 229.749 L 598.309 186.21 z "
       transform="matrix(0.265442,0.000000,0.000000,0.260404,359.6833,74.41441)"
       style="fill:#e6151e;fill-rule:evenodd;stroke:#e6151e;stroke-width:1pt;"
       id="path682" />
    <path
       d="M 601.012 206.307 C 604.212 204.485 606.379 203.993 608.102 200.99 L 619.622 200.991 L 619.771 205.273 C 622.602 206.652 624.251 208.179 627.082 209.557 C 629.913 210.936 633.926 212.166 636.757 213.545 L 661.571 215.761 C 664.894 216.302 669.695 217.73 672.575 219.453 C 675.455 221.177 677.302 223.343 678.853 226.1 C 683.948 227.922 689.045 229.005 694.288 229.793 C 699.532 230.58 706.104 230.925 711.2 231.122 C 713.711 232.009 713.711 233.338 712.529 234.667 C 712.529 234.667 709.722 238.544 702.06 238.581 C 694.398 238.618 685.72 234.224 681.954 234.815 C 682.102 237.178 686.09 242.053 690.669 243.973 L 690.522 255.197 L 688.453 257.118 L 686.238 255.641 C 688.011 252.983 687.419 249.88 686.681 247.222 C 684.982 244.711 684.761 243.677 681.586 243.53 C 677.819 242.79 675.086 241.756 670.286 238.359 L 668.513 238.655 C 667.479 240.526 666.445 241.806 664.082 242.938 L 659.208 242.643 C 659.208 242.643 647.982 240.132 647.982 239.984 C 647.982 239.837 647.834 238.212 648.13 238.064 C 648.425 237.916 651.97 237.917 652.265 237.917 C 654.629 238.655 659.651 238.655 659.651 238.655 L 659.503 234.371 L 667.036 233.928 C 665.51 228.611 665.017 225.213 658.026 224.032 L 636.165 224.623 L 636.461 227.725 C 630.996 226.986 621.1 226.854 616.045 228.561 C 613.091 228.857 608.84 230.383 606.92 230.383 L 604.704 229.793 C 603.227 229.35 603.227 228.907 603.818 227.577 C 613.271 226.838 614.749 226.1 617.555 224.771 C 617.703 223.885 616.521 221.964 616.078 221.816 C 610.17 221.521 605.443 221.964 603.819 221.669 C 601.308 220.93 597.91 219.601 597.91 219.453 C 597.91 219.305 597.467 217.09 597.615 217.09 C 597.762 217.09 601.456 218.124 601.602 218.124 C 605.591 218.862 612.533 218.567 614.158 217.681 L 614.306 214.431 C 614.158 212.954 613.124 211.625 612.828 211.477 C 612.533 211.329 606.329 210.591 604.113 210.591 C 600.519 209.951 601.061 208.129 601.012 206.307 z "
       transform="matrix(0.265442,0.000000,0.000000,0.260404,359.6833,74.41441)"
       style="fill-rule:evenodd;stroke:#010001;stroke-width:1pt;stroke-opacity:0.996078;"
       id="path657" />
    <path
       d="M 648.72 232.599 C 652.068 233.682 654.53 234.026 659.503 234.371 L 667.036 233.928 C 665.51 228.611 665.017 225.213 658.026 224.032 L 636.165 224.623 L 636.461 227.725 C 643.108 230.235 646.357 231.614 648.72 232.599 z "
       transform="matrix(0.265442,0.000000,0.000000,0.260404,359.6833,74.41441)"
       style="fill:#fdfdfd;fill-opacity:0.996081;fill-rule:evenodd;stroke:#010001;stroke-width:1pt;stroke-opacity:0.996078;"
       id="path658" />
    <path
       d="M 101.184 306.598 L 37.6135 165.028 L 84.8809 81.7149 L 176.331 116.382 L 216.532 270.912 C 174.517 281.196 147.645 289.95 101.184 306.598 z "
       transform="matrix(0.261852,4.268235e-2,-4.350807e-2,0.256882,403.4875,61.86232)"
       style="fill:#011171;fill-opacity:0.996078;fill-rule:evenodd;stroke:#011171;stroke-width:1pt;"
       id="path679" />
    <path
       d="M 78.2813 151.268 L 92.0312 163.612 L 88.125 183.456 L 107.188 176.737 L 121.25 189.081 L 124.375 170.8 L 140 165.643 L 128.125 152.518 L 132.031 134.394 C 132.031 134.394 113.281 140.018 113.281 139.862 C 113.281 139.706 100.782 127.675 100.625 127.831 C 100.469 127.987 96.5625 145.018 96.5625 145.018 L 78.2813 151.268 z "
       transform="matrix(0.265442,0.000000,0.000000,0.260404,359.6833,74.41441)"
       style="fill:#fbfd10;fill-opacity:0.996078;fill-rule:evenodd;stroke:#fdc605;stroke-width:1pt;stroke-opacity:0.996078;"
       id="path563" />
    <path
       d="M 78.5938 151.424 L 139.844 165.488 L 124.062 170.956 L 109.844 159.237 C 109.844 159.237 121.406 188.612 121.25 188.456 C 121.094 188.3 107.813 177.049 107.344 176.581 L 109.688 159.237 C 109.688 159.237 88.4375 183.3 88.4375 183.144 C 88.4375 182.987 92.5 163.456 92.5 163.456 L 78.5938 151.424 z "
       transform="matrix(0.265442,0.000000,0.000000,0.260404,359.6833,74.41441)"
       style="fill:#ffc500;fill-rule:evenodd;stroke-width:1pt;"
       id="path565" />
    <path
       d="M 96.4062 145.018 L 110 158.3 L 100.625 127.519 L 96.4062 145.018 z "
       transform="matrix(0.265442,0.000000,0.000000,0.260404,359.6833,74.41441)"
       style="fill:#ffc500;fill-rule:evenodd;stroke-width:1pt;"
       id="path566" />
    <path
       d="M 113.126 140.019 C 113.282 140.175 109.844 157.987 110 157.987 C 111.562 156.112 132.031 134.393 131.876 134.393 C 131.719 134.393 113.438 140.175 113.126 140.019 z "
       transform="matrix(0.265442,0.000000,0.000000,0.260404,359.6833,74.41441)"
       style="fill:#ffc500;fill-rule:evenodd;stroke-width:1pt;"
       id="path567" />
    <path
       d="M 78.2813 151.268 L 92.0312 163.612 L 88.125 183.456 L 107.188 176.737 L 121.25 189.081 L 124.375 170.8 L 140 165.643 L 128.125 152.518 L 132.031 134.394 C 132.031 134.394 113.281 140.018 113.281 139.862 C 113.281 139.706 100.782 127.675 100.625 127.831 C 100.469 127.987 96.5625 145.018 96.5625 145.018 L 78.2813 151.268 z "
       transform="matrix(0.206195,0.163989,-0.167161,0.202282,546.7236,62.46554)"
       style="fill:#fbfd10;fill-opacity:0.996078;fill-rule:evenodd;stroke:#fdc605;stroke-width:1pt;stroke-opacity:0.996078;"
       id="path666" />
    <path
       d="M 78.5938 151.424 L 139.844 165.488 L 124.062 170.956 L 109.844 159.237 C 109.844 159.237 121.406 188.612 121.25 188.456 C 121.094 188.3 107.813 177.049 107.344 176.581 L 109.688 159.237 C 109.688 159.237 88.4375 183.3 88.4375 183.144 C 88.4375 182.987 92.5 163.456 92.5 163.456 L 78.5938 151.424 z "
       transform="matrix(0.206195,0.163989,-0.167161,0.202282,546.7236,62.46554)"
       style="fill:#ffc500;fill-rule:evenodd;stroke-width:1pt;"
       id="path667" />
    <path
       d="M 96.4062 145.018 L 110 158.3 L 100.625 127.519 L 96.4062 145.018 z "
       transform="matrix(0.206195,0.163989,-0.167161,0.202282,546.7236,62.46554)"
       style="fill:#fdc605;fill-rule:evenodd;stroke-width:1pt;"
       id="path668" />
    <path
       d="M 113.126 140.019 C 113.282 140.175 109.844 157.987 110 157.987 C 111.562 156.112 132.031 134.393 131.876 134.393 C 131.719 134.393 113.438 140.175 113.126 140.019 z "
       transform="matrix(0.206195,0.163989,-0.167161,0.202282,546.7236,62.46554)"
       style="fill:#fdc605;fill-rule:evenodd;stroke-width:1pt;"
       id="path669" />
    <path
       d="M 175.367 121.341 C 196.823 110.887 220.905 102.731 246.302 99.1743 C 270.712 95.6161 295.142 95.3079 320.21 95.3626 C 320.21 95.3626 323.494 134.495 323.494 134.824 C 303.79 134.988 289.106 134.615 254.347 139.198 C 219.783 144.084 205.545 148.271 184.527 156.481 L 175.367 121.341 z "
       transform="matrix(0.265442,0.000000,0.000000,0.260404,359.6833,74.41441)"
       style="fill:#e6141d;fill-rule:evenodd;stroke:#e6141d;stroke-width:1pt;"
       id="path675" />
    <path
       d="M 193.74 190.616 C 193.411 190.616 204.595 232.013 204.595 232.013 C 225.23 226.704 246.193 222.708 267.156 219.698 C 288.119 216.688 310.413 214.973 330.719 213.605 L 327.124 173.229 C 305.723 171.915 281.332 171.915 259.274 174.87 C 237.216 177.826 215.798 183.063 193.74 190.616 z "
       transform="matrix(0.265442,0.000000,0.000000,0.260404,359.6833,74.41441)"
       style="fill:#e6141d;fill-opacity:0.996081;fill-rule:evenodd;stroke:#e6141d;stroke-width:1pt;"
       id="path677" />
    <path
       d="M 95.2456 318.449 L 694.118 318.449 L 694.118 709.87 C 678.896 862.307 535.158 976.253 403.815 975.384 C 262.034 981.689 105.248 863.394 93.9408 708.565 L 95.2456 318.449 z "
       transform="matrix(0.265442,0.000000,0.000000,0.260404,359.6833,74.41441)"
       style="fill:#ffffff;fill-rule:evenodd;stroke:#e5141d;stroke-width:4;"
       id="path688" />
    <path
       d="M 95.2456 318.449 L 694.118 318.449 L 694.118 709.87 C 678.896 862.307 535.158 976.253 403.815 975.384 C 262.034 981.689 105.248 863.394 93.9408 708.565 L 95.2456 318.449 z "
       transform="matrix(0.254378,0.000000,0.000000,0.249550,364.0428,81.43736)"
       style="fill:#d61517;fill-rule:evenodd;stroke:#e5141d;stroke-width:4;"
       id="path689" />
    <rect
       width="110.596916"
       height="122.354736"
       ry="0.00000000"
       x="452.675751"
       y="334.033142"
       transform="matrix(0.265442,0.000000,0.000000,0.260404,359.6833,74.41441)"
       style="fill:#ffffff;fill-rule:evenodd;stroke-width:1pt;"
       id="rect693" />
    <rect
       width="110.596916"
       height="122.354736"
       ry="0.00000000"
       x="225.602997"
       y="334.033112"
       transform="matrix(0.265442,0.000000,0.000000,0.260404,359.3907,74.41441)"
       style="fill:#ffffff;fill-rule:evenodd;stroke-width:1pt;"
       id="rect694" />
    <rect
       width="112.080086"
       height="119.415283"
       ry="0.00000000"
       x="109.113754"
       y="460.429291"
       transform="matrix(0.265442,0.000000,0.000000,0.260404,359.6833,74.41441)"
       style="fill:#ffffff;fill-rule:evenodd;stroke-width:1pt;"
       id="rect695" />
    <rect
       width="109.494637"
       height="119.415283"
       ry="0.00000000"
       x="339.506836"
       y="460.429413"
       transform="matrix(0.265442,0.000000,0.000000,0.260404,359.6833,74.41437)"
       style="fill:#ffffff;fill-rule:evenodd;stroke-width:1pt;"
       id="rect696" />
    <rect
       width="112.828384"
       height="119.415283"
       ry="0.00000000"
       x="566.579651"
       y="460.429291"
       transform="matrix(0.265442,0.000000,0.000000,0.260404,359.6833,74.41441)"
       style="fill:#ffffff;fill-rule:evenodd;stroke-width:1pt;"
       id="rect697" />
    <rect
       width="110.596916"
       height="121.252457"
       ry="0.00000000"
       x="452.675751"
       y="583.519226"
       transform="matrix(0.265442,0.000000,0.000000,0.260404,359.6833,74.41441)"
       style="fill:#ffffff;fill-rule:evenodd;stroke-width:1pt;"
       id="rect698" />
    <rect
       width="110.596916"
       height="121.252457"
       ry="0.00000000"
       x="224.500702"
       y="583.519226"
       transform="matrix(0.265442,0.000000,0.000000,0.260404,359.6833,74.41441)"
       style="fill:#ffffff;fill-rule:evenodd;stroke-width:1pt;"
       id="rect699" />
    <rect
       width="109.494637"
       height="121.252449"
       ry="0.00000000"
       x="339.506836"
       y="708.813171"
       transform="matrix(0.265442,0.000000,0.000000,0.260404,359.6833,74.31868)"
       style="fill:#ffffff;fill-rule:evenodd;stroke-width:1pt;"
       id="rect700" />
    <path
       d="M 567.28 709.505 L 567.308 828.62 L 634.649 828.709 C 665.37 782.959 675.891 738.396 678.78 709.531 C 678.282 709.531 567.719 709.477 567.28 709.505 z "
       transform="matrix(0.265442,0.000000,0.000000,0.260404,359.6833,74.41441)"
       style="fill:#ffffff;fill-rule:evenodd;stroke:#ffffff;stroke-width:1pt;"
       id="path705" />
    <path
       d="M 453.355 834.442 L 453.372 953.981 C 501.272 943.834 540.286 920.699 562.62 903.717 L 562.629 834.394 L 453.355 834.442 z "
       transform="matrix(0.265442,0.000000,0.000000,0.260404,359.6833,74.41441)"
       style="fill:#ffffff;fill-rule:evenodd;stroke:#ffffff;stroke-width:1pt;"
       id="path706" />
    <path
       d="M 225.339 834.207 L 225.181 901.751 C 262.805 929.725 305.773 946.096 334.389 952.391 L 334.408 834.251 L 225.339 834.207 z "
       transform="matrix(0.265442,0.000000,0.000000,0.260404,359.6833,74.41441)"
       style="fill:#ffffff;fill-rule:evenodd;stroke:#ffffff;stroke-width:1pt;"
       id="path708" />
    <path
       d="M 109.325 709.342 C 112.897 756.142 132.456 799.551 153.469 828.91 L 220.526 828.795 L 220.538 709.291 L 109.325 709.342 z "
       transform="matrix(0.265442,0.000000,0.000000,0.260404,359.6833,74.41441)"
       style="fill:#ffffff;fill-rule:evenodd;stroke:#ffffff;stroke-width:1pt;"
       id="path710" />
  </g>
</svg>
