<?xml version="1.0" encoding="UTF-8" standalone="no"?>
<!DOCTYPE svg PUBLIC "-//W3C//DTD SVG 20010904//EN"
"http://www.w3.org/TR/2001/REC-SVG-20010904/DTD/svg10.dtd">
<!-- Created with Sodipodi ("http://www.sodipodi.com/") -->
<svg
   id="svg559"
   sodipodi:version="0.32"
   width="400mm"
   height="300mm"
   sodipodi:docbase="/home/cschalle/sodipodi-flags/nations/"
   sodipodi:docname="/home/cschalle/sodipodi-flags/nations/cyprus.svg"
   xmlns="http://www.w3.org/2000/svg"
   xmlns:sodipodi="http://sodipodi.sourceforge.net/DTD/sodipodi-0.dtd"
   xmlns:xlink="http://www.w3.org/1999/xlink">
  <defs
     id="defs561" />
  <sodipodi:namedview
     id="base" />
  <rect
     style="font-size:12;fill:#ffffff;fill-rule:evenodd;stroke-width:1pt;fill-opacity:1;"
     id="rect579"
     width="1404.630190"
     height="1049.241731"
     x="8.461627"
     y="9.519289" />
  <polygon
     sodipodi:type="star"
     style="font-size:12;fill:#808080;fill-rule:evenodd;stroke-width:1pt;"
     id="polygon565"
     sodipodi:sides="5"
     sodipodi:cx="706.057739"
     sodipodi:cy="494.783722"
     sodipodi:r1="7.51806879"
     sodipodi:r2="3.75903440"
     sodipodi:arg1="2.67794514"
     sodipodi:arg2="3.30626369"
     points="699.333,498.146 702.35,494.168 700.782,489.427 705.498,491.067 709.522,488.111 709.42,493.103 713.474,496.016 708.695,497.462 707.177,502.218 704.326,498.12 699.333,498.146 " />
  <path
     style="fill:#ffce00;fill-rule:evenodd;stroke:none;stroke-opacity:1;stroke-width:1pt;stroke-linejoin:miter;stroke-linecap:butt;fill-opacity:1;"
     d="M 416.911 541.013 C 417.051 541.013 417.191 541.013 417.331 541.013 C 416.21 541.013 416.799 540.929 418.592 542.274 C 420.058 542.86 421.348 543.115 423.635 543.115 C 425.64 543.258 427.375 543.535 429.519 543.535 C 431.491 544.367 432.614 545.127 434.142 545.636 C 434.816 546.657 436.286 548.944 437.084 549.839 C 438.564 550.928 440.35 551.593 441.707 552.781 C 443.398 553.242 444.474 553.961 446.33 555.302 C 447.727 555.964 449.048 556.509 450.953 557.404 C 452.782 558.036 454.781 558.882 456.416 559.505 C 457.856 559.844 459.781 560.423 461.039 561.186 C 462.825 561.574 464.324 562.072 466.503 562.447 C 468.728 562.712 469.851 563.3 471.966 563.708 C 473.865 564.669 475.345 565.386 477.43 566.23 C 478.276 567.474 479.003 568.593 480.792 569.171 C 481.711 570.284 483.235 570.58 484.154 571.693 C 485.508 572.334 486.999 572.759 488.777 573.374 C 490.92 573.527 492.466 574.136 494.661 574.215 C 496.622 574.215 498.584 574.215 500.545 574.215 C 502.506 574.215 504.468 574.215 506.429 574.215 C 508.305 574.438 510.406 574.732 511.892 575.055 C 513.949 575.055 515.954 575.09 517.776 574.635 C 520.128 574.607 521.225 573.949 523.24 573.794 C 525.488 574.151 527.013 573.954 527.863 575.896 C 529.256 577.289 530.103 578.653 530.384 580.519 C 530.827 581.848 530.805 584.045 530.805 585.982 C 530.805 587.808 530.815 589.797 531.225 591.026 C 532.563 592.317 533.606 592.698 535.428 593.127 C 536.779 593.577 539.268 593.97 540.471 594.808 C 541.464 595.85 541.95 597.505 543.413 598.591 C 544.692 599.573 546.831 599.778 548.876 599.851 C 550.838 599.851 552.799 599.851 554.76 599.851 C 556.597 599.851 559.035 600.026 560.224 599.431 C 562.044 598.769 562.522 597.538 564.847 597.33 C 567.037 597.66 566.992 598.697 568.629 599.431 C 569.671 600.933 570.659 601.553 571.991 602.373 C 572.855 603.608 573.985 604.567 575.774 604.895 C 577.964 604.673 579.945 604.031 581.658 603.634 C 582.257 602.134 582.991 601.099 583.759 599.851 C 584.329 598.887 584.599 598.639 584.599 596.909 C 585.228 595.653 585.15 593.098 584.599 591.446 C 584.52 589.307 584.02 588.177 583.759 585.982 C 583.759 583.945 583.856 582.006 584.179 580.519 C 585.043 579.522 585.605 577.891 586.281 576.736 C 587.427 575.361 588.489 574.844 590.063 574.215 C 591.393 573.772 593.589 573.794 595.527 573.794 C 596.555 573.486 598.262 573.588 597.628 572.954 C 597.083 573.499 594.992 573.671 597.208 573.794 C 598.414 572.976 600.614 572.6 601.831 572.113 C 603.626 571.843 604.702 571.233 606.454 570.853 C 607.764 570.086 609.23 569.719 611.077 569.171 C 612.599 568.592 614.311 568.026 616.12 567.49 C 618.055 566.581 619.248 566.068 621.163 565.809 C 622.481 565.114 624.136 564.969 626.207 564.969 C 628.149 566.214 629.168 567.19 630.83 568.751 C 631.624 569.92 632.335 570.623 632.931 572.113 C 634.276 573.028 634.995 573.703 637.554 573.794 C 639.578 573.794 640.381 574.14 640.916 572.534 C 642.022 571.548 642.595 569.804 643.858 568.751 C 645.112 567.519 646.661 566.893 648.061 566.23 C 649.639 565.799 650.914 565.229 653.104 564.969 C 654.562 564.436 656.069 564.323 657.727 565.389 C 658.961 567.112 660.354 568.871 661.93 570.853 C 662.999 571.545 664.308 571.693 666.132 571.693 C 667.415 571.052 670.062 571.273 672.016 571.273 C 673.737 571.768 674.489 572.902 676.219 573.374 C 677.186 573.471 677.707 573.794 678.741 573.794 C 681.815 574.193 683.094 573.89 685.465 573.374 C 687.426 573.374 689.388 573.374 691.349 573.374 C 693.414 573.451 694.527 573.794 696.812 573.794 C 698.089 574.569 700.278 574.929 701.856 575.476 C 703.845 575.944 704.225 576.699 706.058 577.577 C 707.247 578.171 709.685 577.997 711.522 577.997 C 713.716 577.736 715.174 577.363 716.985 576.736 C 718.58 576.347 719.255 575.944 719.927 574.635 C 720.972 573.925 722.414 572.788 723.29 571.693 C 724.444 570.908 725.446 569.906 726.231 568.751 C 727.363 568.004 729.266 566.101 730.014 564.969 C 731.088 564.109 732.236 562.308 732.956 561.186 C 733.878 559.816 735.042 559.022 735.898 556.984 C 736.553 555.019 736.639 553.479 737.159 551.52 C 737.592 549.932 738.387 548.588 738.84 546.477 C 739.694 544.637 740.378 542.842 740.941 541.433 C 741.973 540.276 742.657 538.877 743.883 537.651 C 744.586 536.564 745.523 536.011 746.405 535.129 C 747.406 534.175 748.916 533.469 750.607 533.028 C 752.343 532.555 753.094 531.794 753.969 530.506 C 755.558 529.977 756.495 529.292 758.592 528.825 C 760.436 528.279 761.946 527.932 763.636 527.564 C 765.597 527.564 767.558 527.564 769.52 527.564 C 771.639 527.564 773.464 527.754 775.403 527.985 C 777.319 528.532 779.117 529.009 780.867 529.246 C 782.07 529.815 784.071 530.855 785.07 531.767 C 786.325 532.596 787.696 533.934 788.432 535.129 C 788.981 536.778 789.874 537.506 790.953 538.912 C 792.076 540.373 793.021 541.297 795.156 542.274 C 796.857 542.668 798.25 543.385 800.199 543.535 C 802.432 543.535 803.783 543.811 805.663 543.955 C 807.719 543.955 809.725 543.99 811.547 543.535 C 813.382 542.475 814.04 542.192 815.329 540.593 C 817.024 539.759 818.255 539.097 820.373 538.912 C 821.765 538.609 823.49 538.492 825.416 538.492 C 826.507 539.24 827.665 539.522 828.358 540.593 C 829.465 541.377 829.538 541.802 831.3 541.854 C 832.502 542.557 834.272 542.892 835.923 543.115 C 837.884 543.115 839.845 543.115 841.806 543.115 L 835.923 543.115 C 837.884 543.115 839.845 543.115 841.806 543.115 C 843.417 541.762 843.908 541.916 843.908 540.173 C 845.209 539.131 845.854 537.669 847.27 535.97 C 848.038 534.723 848.772 533.687 849.371 532.187 C 849.83 530.81 850.401 528.698 850.632 527.144 C 851.163 525.75 851.664 523.607 851.893 521.681 C 852.402 519.739 852.734 518.003 852.734 515.797 C 852.734 513.836 852.734 511.874 852.734 509.913 C 852.709 507.835 852.397 506.382 851.893 504.87 C 851.227 503.013 850.113 501.656 849.371 500.247 C 848.127 499.264 846.591 497.886 845.589 496.885 C 843.678 495.733 842.23 494.894 840.546 493.943 C 838.705 492.803 836.937 491.814 835.502 491.001 C 834.659 490.058 833.289 488.763 832.561 488.059 C 831.985 486.908 831.985 484.166 832.561 483.016 C 832.61 481.266 832.796 480.258 833.821 479.233 C 835.736 478.546 837.013 477.641 838.444 476.711 C 839.373 475.411 840.829 475.161 842.647 473.77 C 844.466 472.972 845.497 472.553 846.85 471.248 C 848.816 470.592 850.651 469.256 852.313 468.726 C 853.213 467.638 854.898 466.738 856.936 466.205 C 858.394 465.212 860.139 464.156 861.559 463.683 C 863.538 462.634 865.008 462.265 867.023 461.161 C 869.078 460.648 870.913 459.724 872.907 459.06 C 873.418 458.435 874.028 457.972 875.008 457.799 C 877.624 457.644 879.805 457.363 881.312 456.118 C 883.002 455.519 883.177 454.306 884.254 453.176 C 885.027 451.786 885.871 451.17 886.355 449.394 C 887.692 447.958 886.953 447.537 884.674 447.292 C 883.957 446.575 883.31 447.299 882.993 446.032 C 881.485 445.355 881.091 444.18 880.051 443.09 C 879.416 441.353 879.431 440.572 881.312 439.727 C 882.484 438.931 884.152 438.663 885.095 437.626 C 886.846 437.362 888.176 436.606 889.718 435.945 C 892.002 435.782 893.217 435.266 895.181 434.684 C 896.853 433.791 897.939 433.267 899.384 432.583 C 901.112 431.835 903.172 430.779 904.847 430.061 C 906.354 429.057 908.268 428.075 910.311 427.54 C 911.816 426.775 913.667 426.174 915.354 425.438 C 916.794 425.099 918.719 424.521 919.977 423.757 C 921.914 423.388 924.011 422.689 925.441 422.076 C 926.847 421.441 928.503 420.642 929.643 419.975 C 931.384 419.222 932.627 418.321 934.267 417.873 C 935.26 416.926 936.598 416.255 938.049 415.772 C 939.232 414.674 941.748 413.157 943.092 412.41 C 944.367 411.806 945.857 411.191 946.875 410.308 C 947.853 410.2 947.577 409.997 948.556 409.888 C 951.619 408.966 953.183 408.623 954.86 406.946 C 956.163 406.329 957.503 405.659 958.642 404.845 C 960.044 403.732 961.161 402.724 962.004 401.483 C 963.534 400.94 964.372 399.88 965.787 398.961 C 967.253 398.375 968.544 398.12 970.83 398.12 C 972.668 398.12 975.105 398.295 976.294 397.7 C 978.931 397.669 979.617 397.036 981.337 396.019 C 981.906 394.415 983.121 393.613 984.699 392.657 C 985.629 391.808 987.98 390.537 988.902 389.715 C 990.721 388.844 991.507 387.733 993.105 386.353 C 994.339 385.025 995.885 383.797 997.307 382.991 C 999.074 382.221 1000.34 381.875 1001.93 381.31 C 1003.92 380.955 1005.92 380.59 1007.81 380.049 C 1009.96 379.884 1010.72 379.255 1012.44 378.788 C 1013.63 377.653 1014.35 377.081 1015.8 375.426 C 1016.51 373.495 1017.56 372.788 1019.58 372.484 C 1021.61 371.423 1023.24 371.297 1024.63 369.962 C 1026.05 368.539 1027.03 366.938 1028.41 365.339 C 1029.19 363.528 1029.92 362.439 1030.09 360.296 C 1030.06 357.717 1029.5 357.346 1028.41 355.673 C 1027.36 354.167 1026.7 353.209 1025.89 351.89 C 1024.58 351.15 1022.72 350.415 1021.26 349.789 C 1019.26 349.943 1018.03 350.392 1016.64 351.05 C 1015.21 352.206 1014.22 353.156 1013.28 354.832 C 1012.64 356.186 1012.21 357.677 1011.6 359.455 C 1010.8 360.598 1008.89 361.683 1007.39 362.397 C 1005.63 363.167 1004.37 363.513 1002.77 364.078 C 1000.78 364.766 999.852 365.361 997.728 366.18 C 996.485 366.768 994.765 367.672 993.525 368.281 C 991.697 369.369 989.946 370.217 988.482 370.803 C 986.618 371.861 985.553 372.442 983.859 372.904 C 981.948 374.041 980.098 374.903 978.395 375.846 C 976.982 376.54 975.603 377.441 973.772 378.368 C 972.286 378.691 970.184 378.985 968.309 379.208 C 966.207 379.208 964.106 379.208 962.004 379.208 C 960.208 378.794 958.071 378.433 956.121 377.527 C 954.028 376.443 953.004 375.757 951.498 374.585 C 950.577 372.792 950.266 371.935 950.237 369.542 C 948.931 368.889 947.124 368.725 945.194 368.701 C 943.062 368.701 941.085 368.622 939.73 369.542 C 937.9 369.814 936.362 370.554 935.107 371.643 C 933.172 372.563 931.908 373.672 930.484 374.585 C 929.003 375.478 927.087 376.815 925.441 377.527 C 923.894 378.19 921.475 378.916 919.557 379.628 C 917.089 380.337 915.304 381.119 912.833 381.31 C 910.723 382.264 909.069 382.548 906.949 383.411 C 904.797 384.211 903.277 384.801 901.065 385.512 C 899.606 386.254 896.971 387.494 895.601 388.454 C 893.091 389.709 891.254 390.775 889.297 391.816 C 887.33 392.642 885.905 393.426 883.834 394.338 C 882.816 395.245 880.799 395.956 879.631 396.86 C 877.756 397.329 875.602 398.102 874.588 398.961 C 872.93 399.16 872.009 399.597 871.226 400.642 C 869.728 402.439 870.383 402.323 868.704 402.323 C 867.268 403.195 865.035 403.164 862.82 403.164 C 860.578 403.104 858.813 402.743 856.516 402.743 C 854.544 402.391 852.742 401.978 850.632 401.903 C 848.671 401.903 846.71 401.903 844.748 401.903 C 842.787 401.903 840.826 401.903 838.865 401.903 C 836.903 401.903 834.942 401.903 832.981 401.903 C 830.739 401.903 828.498 401.903 826.256 401.903 C 824.295 401.903 822.334 401.903 820.373 401.903 C 818.411 401.903 816.45 401.903 814.489 401.903 C 812.256 401.903 810.905 402.179 809.025 402.323 C 806.934 402.473 805.304 402.928 803.562 403.164 C 801.668 403.449 800.802 404.161 799.359 404.845 C 798.032 405.474 796.694 406.107 795.156 406.526 C 793.093 407.617 790.719 408.189 788.432 408.627 C 786.706 409.428 784.255 409.856 782.968 410.729 C 780.998 410.88 779.709 411.412 777.505 411.569 C 775.633 412.416 774.091 412.867 772.461 413.25 C 770.95 413.754 769.496 414.066 767.418 414.091 C 765.474 414.354 764.402 414.901 762.375 415.352 C 761.654 415.959 760.503 416.391 759.433 416.612 C 756.964 417.782 756.155 417.873 753.549 417.873 C 751.588 417.873 749.627 417.873 747.665 417.873 C 744.862 417.601 742.08 417.251 739.26 416.612 C 736.383 416.474 733.639 416.111 730.854 415.772 C 728.753 415.772 726.652 415.772 724.55 415.772 C 722.449 415.772 720.348 415.772 718.246 415.772 C 716.285 415.772 714.324 415.772 712.362 415.772 C 710.141 415.693 708.169 415.268 706.058 414.931 C 704.082 414.578 701.994 414.407 700.175 413.671 C 697.561 413.533 694.917 413.179 692.61 412.41 C 690.508 412.035 688.493 411.329 686.306 411.149 C 685.092 410.412 682.711 410.167 681.683 409.468 C 679.761 409.32 678.164 408.723 677.06 407.787 C 675.094 407.495 673.955 406.628 672.016 406.106 C 670.27 405.049 668.162 404.695 665.712 403.584 C 663.625 403.137 661.536 402.399 659.408 401.903 C 657.732 401.323 655.689 400.771 654.365 399.802 C 652.507 399.295 651.441 398.748 649.322 398.12 C 648.332 397.239 646.384 396.316 645.119 395.599 C 644.2 394.78 641.785 393.373 640.496 392.657 C 639.127 391.072 637.746 389.509 635.873 387.614 C 634.573 386.196 633.089 385.056 631.67 384.251 C 629.848 383.492 627.784 382.407 626.627 381.73 C 625.035 381.296 623.75 380.328 622.844 379.208 C 621.411 378.396 620.476 377.672 619.062 376.687 C 616.866 377.519 616.635 377.107 614.439 377.107 C 611.934 376.901 610.091 376.824 607.715 377.107 C 605.66 377.349 603.65 377.527 601.41 377.527 C 599.449 377.527 597.488 377.527 595.527 377.527 C 592.868 377.559 592.438 377.903 591.744 380.049 C 590.521 381.394 590.01 382.969 588.802 383.831 C 587.765 385.146 586.269 386.041 584.599 386.773 C 582.524 388.208 581.898 388.727 580.817 390.556 C 579.441 391.762 578.294 393.487 577.455 394.758 C 576.692 396.063 576.18 397.272 575.774 399.381 C 575.774 401.392 575.939 403.508 575.354 405.265 C 575.354 407.276 575.519 409.392 574.933 411.149 C 574.933 413.11 574.933 415.071 574.933 417.033 C 574.933 418.994 574.933 420.955 574.933 422.917 C 575.809 424.205 576.989 424.699 577.455 426.699 C 578.078 428.36 576.924 427.765 575.774 428.8 C 573.813 428.8 571.851 428.8 569.89 428.8 C 567.929 428.8 565.967 428.8 564.006 428.8 C 561.863 428.8 560.128 428.523 558.122 428.38 C 556.424 428.077 553.938 427.966 552.659 427.54 C 550.697 427.54 548.736 427.54 546.775 427.54 C 544.684 427.39 543.054 426.935 541.311 426.699 C 538.877 426.235 537.193 425.531 535.007 424.177 C 532.769 423.698 531.06 422.855 529.123 421.656 C 527.036 421.109 525.382 420.013 523.24 419.554 C 521.798 418.872 520.767 418.211 519.037 417.453 C 518.02 416.061 517.039 415.285 514.834 414.931 C 513.143 414.063 511.71 414.091 509.371 414.091 C 507.181 414.351 505.906 414.921 504.327 415.352 C 502.576 416.144 500.293 416.818 498.864 417.453 C 497.435 418.025 496.137 418.793 494.661 419.554 C 493.531 421.008 492.87 421.877 492.139 423.337 C 491.579 423.337 491.719 423.197 491.719 423.757 C 489.455 423.838 487.074 423.757 484.575 423.757 C 483.389 424.35 481.082 424.478 479.531 424.598 C 478.3 425.55 476.844 426.375 475.749 427.119 C 475.024 428.569 474.517 428.955 474.488 431.322 C 474.578 433.833 475.48 434.563 476.169 436.365 C 475.663 438.657 474.764 438.847 472.807 439.307 C 471.32 439.63 469.381 439.727 467.343 439.727 C 465.242 439.727 463.141 439.727 461.039 439.727 C 458.938 439.727 456.837 439.727 454.735 439.727 C 452.314 439.727 451.176 439.754 450.112 438.467 C 449.381 437.042 449.312 435.226 448.851 433.844 C 447.599 432.141 447.04 430.998 445.069 429.641 C 444.635 428.339 443.594 426.428 442.968 425.018 C 442.294 423.597 441.774 422.342 440.446 421.235 C 439.049 419.938 437.466 419.096 436.243 417.873 C 434.837 416.971 433.708 416.222 431.2 416.192 C 429.163 416.192 427.223 416.289 425.736 416.612 C 424.712 417.501 422.999 418.45 421.534 419.554 C 420.372 421.103 419.342 422.233 417.751 423.757 C 415.958 425.401 414.174 426.399 412.708 427.119 C 411.365 427.791 409.995 428.62 408.925 430.061 C 407.677 430.605 407.071 431.518 406.404 433.003 C 405.307 433.981 404.678 435.61 404.302 437.206 C 403.617 439.263 403.523 441.626 403.462 443.93 C 403.462 445.891 403.462 447.853 403.462 449.814 C 402.797 450.604 402.438 451.444 401.361 452.336 C 400.332 453.252 398.785 454.254 397.578 454.857 C 396.407 456.363 395.677 457.247 395.477 459.48 C 395.477 461.317 395.303 463.755 395.897 464.944 C 396.747 466.134 398.462 466.956 400.1 467.886 C 401.674 468.444 402.491 469.664 403.462 471.248 C 405.262 472.056 405.04 472.804 407.244 472.929 C 408.579 473.978 410.627 474.307 412.288 475.03 C 413.97 475.489 414.808 476.253 416.49 476.711 C 417.579 478.129 418.779 479.049 419.432 481.334 C 419.609 482.803 420.19 484.275 419.432 485.537 C 417.72 486.556 415.423 487.205 414.389 488.059 C 413.029 488.13 413.13 488.446 412.288 488.899 C 412.271 491.708 411.896 493.14 411.447 495.203 C 411.303 497.083 411.027 498.434 411.027 500.667 C 411.027 502.628 411.027 504.59 411.027 506.551 C 411.921 508.418 413.102 508.766 414.389 509.913 C 415.67 510.828 416.069 511.906 416.49 513.695 C 417.211 515.339 417.979 516.71 418.592 518.318 C 419.358 519.928 419.853 521.389 419.853 523.782 C 419.643 526.083 418.681 526.479 416.911 527.564 C 415.971 528.702 416.28 530.716 415.65 532.608 C 415.65 534.545 415.627 536.742 416.07 538.071 C 416.79 539.031 416.615 539.433 416.911 541.013 z "
     id="path568"
     transform="matrix(1.306615,0.000000,0.000000,1.329854,-123.5815,-177.9128)" />
  <g
     id="g588"
     transform="matrix(1.306615,0.000000,0.000000,1.329854,-118.3056,-183.6101)"
     style="fill:#009a00;fill-opacity:1;stroke:none;stroke-opacity:1;">
    <path
       style="fill:#009a00;fill-rule:evenodd;stroke:none;stroke-opacity:1;stroke-width:1pt;stroke-linejoin:miter;stroke-linecap:butt;fill-opacity:1;"
       d="M 460.164 634.917 C 459.936 634.689 459.709 634.462 459.481 634.234 C 461.031 635.783 460.283 635.215 458.798 631.503 C 458.653 627.567 457.7 626.933 455.385 625.358 C 452.67 624.454 451.51 623.294 450.606 620.579 C 448.87 619.146 447.564 617.228 446.509 615.117 C 444.633 613.842 443.006 612.214 441.73 610.338 C 439.854 609.062 438.227 607.435 436.951 605.559 C 434.357 604.653 432.645 602.808 429.441 601.463 C 427.638 599.744 425.944 598.896 423.296 597.366 C 420.333 595.947 420.164 594.92 416.469 594.635 C 415.339 595.879 413.549 595.39 413.055 597.366 C 413.205 601.412 414.01 602.26 415.786 605.559 C 415.924 609.288 416.926 611.043 418.517 613.752 C 420.456 615.109 421.948 617.521 423.979 619.214 C 426.147 620.688 427.009 622.254 430.124 623.993 C 431.751 626.028 434.471 627.119 436.951 628.772 C 440.005 629.95 442.51 630.859 444.461 632.186 C 447.201 632.83 449.072 633.867 451.288 634.917 C 454.565 635.224 455.899 635.59 460.164 634.917 z "
       id="path569" />
    <path
       style="fill:#009a00;fill-rule:evenodd;stroke:none;stroke-opacity:1;stroke-width:1pt;stroke-linejoin:miter;stroke-linecap:butt;fill-opacity:1;"
       d="M 474.501 654.033 C 474.274 653.806 474.046 653.578 473.819 653.351 C 475.44 654.972 474.667 654.309 472.453 650.62 C 469.929 648.23 469.383 646.399 465.626 645.84 C 463.62 645.038 460.364 644.542 458.116 643.792 C 454.229 643.792 452.448 643.377 449.24 642.427 C 446.947 641.801 444.046 640.689 441.73 639.696 C 438.984 639.288 436.141 638.214 433.537 637.648 C 430.351 637.648 427.165 637.648 423.979 637.648 C 420.912 638.369 419.186 638.401 418.517 641.744 C 419.917 643.439 421.765 644.917 423.296 646.523 C 424.159 649.522 426.242 650.237 428.075 651.985 C 431.236 653.079 431.878 653.896 435.585 654.033 C 438.728 655.081 441.013 655.357 444.461 655.399 C 448.118 655.399 450.748 656.141 454.019 656.764 C 456.743 657.132 459.415 657.447 462.895 657.447 C 465.861 657.447 469.092 657.43 471.088 656.764 C 475.39 653.323 474.501 652.576 474.501 657.447 C 474.957 657.902 475.412 658.357 475.867 658.812 "
       id="path570" />
    <path
       style="fill:#009a00;fill-rule:evenodd;stroke:none;stroke-opacity:1;stroke-width:1pt;stroke-linejoin:miter;stroke-linecap:butt;fill-opacity:1;"
       d="M 497.714 664.274 C 497.487 664.274 497.259 664.274 497.032 664.274 C 498.875 664.274 497.939 664.319 494.301 663.592 C 490.896 662.619 488.962 661.674 485.425 661.543 C 483.324 660.315 480.745 660.178 477.232 660.178 C 474.046 660.178 470.86 660.178 467.674 660.178 C 464.294 660.438 462.861 661.283 459.481 661.543 C 457.687 662.593 454.123 663.455 451.971 664.274 C 450.051 665.58 448.412 667.203 445.826 668.371 C 446.422 671.762 448.305 673.039 450.606 674.515 C 452.916 675.44 455.291 676.313 458.798 676.564 C 462.153 676.688 463.961 677.246 467.674 677.246 C 471.153 677.246 473.826 676.932 476.55 676.564 C 478.816 675.49 480.744 674.365 484.06 673.833 C 485.713 672.4 488.133 671.4 490.204 670.419 C 492.038 669.551 494.533 668.75 496.349 667.688 L 490.204 670.419 C 492.038 669.551 494.533 668.75 497.714 664.274 z "
       id="path571" />
    <path
       style="fill:#009a00;fill-rule:evenodd;stroke:none;stroke-opacity:1;stroke-width:1pt;stroke-linejoin:miter;stroke-linecap:butt;fill-opacity:1;"
       d="M 529.803 679.977 C 529.803 679.75 529.803 679.522 529.803 679.295 C 529.803 681.203 529.888 680.189 528.438 676.564 C 525.911 675.232 522.879 674.291 520.927 673.15 C 517.943 673.15 513.983 672.867 512.052 673.833 C 508.604 673.874 506.319 674.151 503.176 675.198 C 500.18 675.65 498.453 676.698 496.349 677.929 C 493.971 679.212 490.525 680.863 487.473 682.025 C 484.775 683.906 483.861 685.009 480.646 686.805 C 478.621 689.024 476.548 690.357 475.184 692.267 C 474.578 694.571 475.223 697.289 477.915 698.411 C 479.617 699.817 482.231 700.551 484.742 701.142 C 487.929 701.024 490.743 700.582 492.935 699.094 C 496.318 698.646 498.328 697.654 501.128 697.046 C 503.524 696.195 505.818 695.379 508.638 694.997 C 510.591 693.673 514.054 692.53 516.148 691.584 C 519.578 690.195 521.769 688.363 524.341 686.805 C 525.567 685.386 527.203 683.854 529.12 683.391 L 524.341 686.805 C 525.567 685.386 527.203 683.854 529.803 679.977 z "
       id="path573"
       transform="matrix(1.000000,0.000000,0.000000,0.851573,1.188736,101.0965)" />
    <path
       style="fill:#009a00;fill-rule:evenodd;stroke:none;stroke-opacity:1;stroke-width:1pt;stroke-linejoin:miter;stroke-linecap:butt;fill-opacity:1;"
       d="M 557.112 693.632 C 556.985 693.6 553.936 692.267 551.651 692.267 C 549.627 691.083 546.352 690.845 543.458 689.536 C 539.727 689.536 537.187 689.954 535.265 691.584 C 532.427 691.967 529.89 692.801 527.755 694.315 C 525.097 694.94 522.685 695.525 520.245 697.046 C 516.951 698.428 515.501 699.725 513.417 701.142 C 512.012 702.843 508.976 703.794 507.273 705.239 C 505.744 707.09 505.747 709.538 506.59 712.066 C 508.338 713.142 511.326 714.21 513.417 715.48 C 516.469 716.025 519.579 716.162 522.976 716.162 C 526.007 715.929 528.564 715.421 530.486 714.114 C 533.92 712.46 534.834 711.238 537.313 709.335 C 538.747 707.599 541.146 706.202 543.458 705.239 C 545.2 703.729 547.314 702.625 550.285 701.825 C 551.948 700.24 553.479 698.708 555.064 697.046 C 556.973 697.046 555.662 697.257 557.112 693.632 z "
       id="path574"
       transform="matrix(1.000000,0.000000,0.000000,0.888389,0.000000,76.96011)" />
    <path
       style="fill:#009a00;fill-rule:evenodd;stroke:none;stroke-opacity:1;stroke-width:1pt;stroke-linejoin:miter;stroke-linecap:butt;fill-opacity:1;"
       d="M 587.153 696.363 C 586.989 696.338 583.298 695.68 581.008 695.68 C 579.077 694.715 575.117 694.997 572.133 694.997 C 568.371 695.137 567.208 695.914 565.305 697.728 C 563.37 698.919 561.034 699.989 559.161 701.825 C 556.767 703.292 554.61 705.314 552.333 706.604 C 549.828 707.677 547.669 708.906 544.823 709.335 C 543.451 710.996 541.045 712.431 539.361 714.114 C 537.487 715.52 536.692 716.196 536.63 719.576 C 535.24 720.697 534.301 722.898 534.582 723.672 C 537.345 725.091 539.629 725.675 543.458 725.721 C 547.105 725.764 549.666 726.558 553.016 725.721 C 556.43 724.709 557.794 724.001 561.209 722.99 C 562.952 720.719 564.261 719.199 566.671 717.528 C 567.973 715.613 569.533 713.851 572.133 712.749 C 574.081 710.977 576.963 709.02 578.96 707.969 C 580.181 706.26 582.562 704.442 584.422 703.19 C 585.79 700.875 586.179 700.49 587.153 696.363 z "
       id="path575"
       transform="matrix(1.000000,0.000000,0.000000,0.866411,-0.594368,95.81036)" />
    <path
       style="fill:#009a00;fill-rule:evenodd;stroke:none;stroke-opacity:1;stroke-width:1pt;stroke-linejoin:miter;stroke-linecap:butt;fill-opacity:1;"
       d="M 589.884 693.632 C 589.884 692.1 589.884 686.313 589.884 682.708 C 589.884 679.522 589.884 676.336 589.884 673.15 C 586.714 671.275 586.239 670.153 585.105 666.323 C 583.422 663.593 582.136 661.876 581.008 659.495 C 579.427 657.836 578.124 655.683 577.594 652.668 C 576.29 650.14 575.481 647.598 572.815 646.523 C 570.4 645.998 567.25 645.84 563.94 645.84 C 559.418 646.008 559.843 646.805 559.843 651.302 C 560.161 654.799 561.276 655.714 562.574 658.812 C 563.577 660.93 564.666 663.106 565.988 664.957 C 567.009 667.219 568.611 670.131 570.084 671.784 C 571.28 674.295 572.999 676.57 573.498 679.295 C 575.369 681.669 576.662 683.746 578.277 685.439 C 579.614 688.23 580.62 689.809 583.056 690.901 C 584.449 692.989 586.804 693.161 589.884 693.632 z "
       id="path577" />
    <path
       style="fill:#009a00;fill-rule:evenodd;stroke:none;stroke-opacity:1;stroke-width:1pt;stroke-linejoin:miter;stroke-linecap:butt;fill-opacity:1;"
       d="M 557.112 682.708 C 557.34 682.708 557.568 682.708 557.795 682.708 C 555.887 682.708 556.901 682.793 560.526 681.343 C 561.492 679.411 561.209 675.452 561.209 672.467 C 561.209 668.58 560.566 666.925 559.843 664.274 C 558.601 661.309 557.588 659.919 557.112 656.764 C 556.091 654.608 555.063 652.435 554.381 649.937 C 553.154 648.131 552.277 645.408 551.651 643.11 C 549.346 641.804 547.218 640.494 544.823 639.696 C 542.652 638.668 540.63 637.135 537.996 636.282 C 534.571 636.909 534.184 638.038 533.899 641.744 C 533.112 644.498 534.192 646.988 535.265 649.254 C 536.393 651.948 537.066 654.68 538.679 656.764 C 539.663 659.827 540.665 660.895 540.727 664.274 C 541.902 666.284 542.393 669.243 543.458 671.784 C 544.829 674.955 546.105 676.322 548.237 678.612 C 551.152 680.594 552.153 681.426 557.112 682.708 z "
       id="path578" />
    <path
       style="fill:#009a00;fill-rule:evenodd;stroke:none;stroke-opacity:1;stroke-width:1pt;stroke-linejoin:miter;stroke-linecap:butt;fill-opacity:1;"
       d="M 529.803 673.833 C 529.803 673.506 531.971 672.163 533.217 670.419 C 534.237 668.378 534.111 664.228 533.217 661.543 C 531.922 658.344 530.511 655.946 529.803 653.351 C 529.083 651.191 529.12 647.623 529.12 644.475 C 528.497 641.607 527.471 639.487 526.389 636.282 C 525.507 634.076 523.787 631.316 522.976 628.772 C 521.911 627.766 520.707 625.701 519.562 624.676 C 518.227 623.584 518.18 623.31 515.466 623.31 C 511.837 623.445 510.011 623.78 507.955 626.041 C 507.236 628.201 507.273 631.769 507.273 634.917 C 507.318 638.679 507.668 640.458 509.321 643.11 C 510.527 645.979 513.057 648.773 514.783 651.302 C 516.198 653.698 517.099 655.977 518.879 657.447 C 519.343 660.523 520.5 661.931 521.61 664.274 C 522.074 667.35 523.231 668.758 524.341 671.102 C 526.127 671.3 525.293 671.736 526.389 672.467 L 524.341 671.102 C 526.127 671.3 525.293 671.736 529.803 673.833 z "
       id="path579" />
    <path
       style="fill:#009a00;fill-rule:evenodd;stroke:none;stroke-opacity:1;stroke-width:1pt;stroke-linejoin:miter;stroke-linecap:butt;fill-opacity:1;"
       d="M 502.494 653.351 C 502.911 652.412 505.445 648.758 505.907 646.523 C 505.861 642.651 505.41 640.008 503.176 637.648 C 502.622 635.259 501.282 631.65 500.445 629.455 C 500.445 626.307 500.483 622.739 499.763 620.579 C 499.763 616.992 499.267 614.837 498.397 612.386 C 496.855 610.119 495.194 609.455 491.57 608.29 C 488.633 607.311 486.603 608.017 483.377 608.973 C 483.377 612.159 483.377 615.345 483.377 618.531 C 483.42 622.144 484.065 624.724 485.425 626.724 C 486.535 629.066 487.607 630.74 488.839 633.551 C 488.971 637.262 489.955 639.18 490.204 642.427 C 490.473 645.918 490.801 647.725 492.935 649.937 C 495.842 651.311 496.729 652.64 499.08 653.351 L 492.935 649.937 C 495.842 651.311 496.729 652.64 502.494 653.351 z "
       id="path581" />
    <path
       style="fill:#009a00;fill-rule:evenodd;stroke:none;stroke-opacity:1;stroke-width:1pt;stroke-linejoin:miter;stroke-linecap:butt;fill-opacity:1;"
       d="M 477.915 638.33 C 477.915 638.103 477.915 637.875 477.915 637.648 C 477.915 639.556 477.831 638.542 479.281 634.917 C 480.02 631.957 479.963 628.699 479.963 625.358 C 479.752 622.607 479.353 619.43 478.598 617.166 C 477.974 613.671 477.259 611.484 476.55 608.29 C 476.062 605.517 474.184 602.456 473.136 600.097 C 472.466 598.087 471.783 593.897 471.088 591.904 C 470.599 589.352 469.373 588.549 466.991 587.808 C 465.122 586.873 460.668 586.873 458.798 587.808 C 456.789 588.504 456.792 590.092 456.068 591.904 C 455.815 595.437 455.214 598.047 456.068 601.463 C 457.223 603.438 458.445 605.534 459.481 607.607 C 460.823 610.03 462.168 613.666 463.578 615.8 C 464.605 619.267 464.985 620.868 466.991 623.993 C 467.729 626.206 468.893 628.866 470.405 630.82 C 471.377 633.25 472.795 634.972 473.819 637.648 C 475.661 637.648 474.28 637.603 477.915 638.33 z "
       id="path582" />
    <path
       style="fill:#009a00;fill-rule:evenodd;stroke:none;stroke-opacity:1;stroke-width:1pt;stroke-linejoin:miter;stroke-linecap:butt;fill-opacity:1;"
       d="M 618.131 711.133 C 617.933 711.133 617.735 711.133 617.537 711.133 C 618.329 711.133 615.952 711.133 615.159 711.133 C 612.385 711.133 609.612 711.133 606.838 711.133 C 605.103 712.781 604.499 713.728 601.489 714.105 C 599.969 715.422 598.529 716.639 596.14 717.076 C 594.037 717.534 591.295 717.671 588.413 717.671 C 584.89 717.628 583.68 717.78 583.064 714.699 C 583.12 711.636 583.264 711.465 586.036 711.133 C 587.52 709.907 590.007 709.326 592.574 708.756 C 594.536 708.059 596.939 707.445 599.112 706.972 C 601.219 706.224 603.23 705.46 605.055 704.595 C 604.601 702.78 603.134 703.178 601.489 704.001 C 599.354 704.001 596.807 704.163 595.545 703.406 C 594.062 701.202 593.259 700.479 589.602 700.435 C 586.132 700.393 585.54 699.482 582.47 699.246 C 579.53 699.21 577.475 698.77 575.337 698.057 C 572.199 697.833 570.091 697.355 567.611 696.274 C 566.814 695.477 568.705 695.312 569.988 695.085 C 571.746 693.89 573.605 693.41 576.526 693.302 C 579.3 693.302 582.073 693.302 584.847 693.302 C 587.896 693.302 590.242 693.792 593.168 693.897 C 595.553 694.722 598.059 695.154 599.706 696.274 C 601.857 696.991 603.211 698.252 604.461 699.84 C 606.552 700.411 608.656 701.114 610.999 701.623 C 613.739 701.623 616.845 701.591 618.725 702.218 C 620.086 704.486 619.01 708.204 618.131 711.133 z "
       id="path583" />
  </g>
  <g
     id="g601"
     transform="matrix(-1.306615,0.000000,0.000000,1.329854,1500.156,-182.8197)"
     style="fill:#009a00;fill-opacity:1;stroke:none;stroke-opacity:1;">
    <path
       style="fill:#009a00;fill-rule:evenodd;stroke:none;stroke-opacity:1;stroke-width:1pt;stroke-linejoin:miter;stroke-linecap:butt;fill-opacity:1;"
       d="M 460.164 634.917 C 459.936 634.689 459.709 634.462 459.481 634.234 C 461.031 635.783 460.283 635.215 458.798 631.503 C 458.653 627.567 457.7 626.933 455.385 625.358 C 452.67 624.454 451.51 623.294 450.606 620.579 C 448.87 619.146 447.564 617.228 446.509 615.117 C 444.633 613.842 443.006 612.214 441.73 610.338 C 439.854 609.062 438.227 607.435 436.951 605.559 C 434.357 604.653 432.645 602.808 429.441 601.463 C 427.638 599.744 425.944 598.896 423.296 597.366 C 420.333 595.947 420.164 594.92 416.469 594.635 C 415.339 595.879 413.549 595.39 413.055 597.366 C 413.205 601.412 414.01 602.26 415.786 605.559 C 415.924 609.288 416.926 611.043 418.517 613.752 C 420.456 615.109 421.948 617.521 423.979 619.214 C 426.147 620.688 427.009 622.254 430.124 623.993 C 431.751 626.028 434.471 627.119 436.951 628.772 C 440.005 629.95 442.51 630.859 444.461 632.186 C 447.201 632.83 449.072 633.867 451.288 634.917 C 454.565 635.224 455.899 635.59 460.164 634.917 z "
       id="path602" />
    <path
       style="fill:#009a00;fill-rule:evenodd;stroke:none;stroke-opacity:1;stroke-width:1pt;stroke-linejoin:miter;stroke-linecap:butt;fill-opacity:1;"
       d="M 474.501 654.033 C 474.274 653.806 474.046 653.578 473.819 653.351 C 475.44 654.972 474.667 654.309 472.453 650.62 C 469.929 648.23 469.383 646.399 465.626 645.84 C 463.62 645.038 460.364 644.542 458.116 643.792 C 454.229 643.792 452.448 643.377 449.24 642.427 C 446.947 641.801 444.046 640.689 441.73 639.696 C 438.984 639.288 436.141 638.214 433.537 637.648 C 430.351 637.648 427.165 637.648 423.979 637.648 C 420.912 638.369 419.186 638.401 418.517 641.744 C 419.917 643.439 421.765 644.917 423.296 646.523 C 424.159 649.522 426.242 650.237 428.075 651.985 C 431.236 653.079 431.878 653.896 435.585 654.033 C 438.728 655.081 441.013 655.357 444.461 655.399 C 448.118 655.399 450.748 656.141 454.019 656.764 C 456.743 657.132 459.415 657.447 462.895 657.447 C 465.861 657.447 469.092 657.43 471.088 656.764 C 475.39 653.323 474.501 652.576 474.501 657.447 C 474.957 657.902 475.412 658.357 475.867 658.812 "
       id="path603" />
    <path
       style="fill:#009a00;fill-rule:evenodd;stroke:none;stroke-opacity:1;stroke-width:1pt;stroke-linejoin:miter;stroke-linecap:butt;fill-opacity:1;"
       d="M 497.714 664.274 C 497.487 664.274 497.259 664.274 497.032 664.274 C 498.875 664.274 497.939 664.319 494.301 663.592 C 490.896 662.619 488.962 661.674 485.425 661.543 C 483.324 660.315 480.745 660.178 477.232 660.178 C 474.046 660.178 470.86 660.178 467.674 660.178 C 464.294 660.438 462.861 661.283 459.481 661.543 C 457.687 662.593 454.123 663.455 451.971 664.274 C 450.051 665.58 448.412 667.203 445.826 668.371 C 446.422 671.762 448.305 673.039 450.606 674.515 C 452.916 675.44 455.291 676.313 458.798 676.564 C 462.153 676.688 463.961 677.246 467.674 677.246 C 471.153 677.246 473.826 676.932 476.55 676.564 C 478.816 675.49 480.744 674.365 484.06 673.833 C 485.713 672.4 488.133 671.4 490.204 670.419 C 492.038 669.551 494.533 668.75 496.349 667.688 L 490.204 670.419 C 492.038 669.551 494.533 668.75 497.714 664.274 z "
       id="path604" />
    <path
       style="fill:#009a00;fill-rule:evenodd;stroke:none;stroke-opacity:1;stroke-width:1pt;stroke-linejoin:miter;stroke-linecap:butt;fill-opacity:1;"
       d="M 529.803 679.977 C 529.803 679.75 529.803 679.522 529.803 679.295 C 529.803 681.203 529.888 680.189 528.438 676.564 C 525.911 675.232 522.879 674.291 520.927 673.15 C 517.943 673.15 513.983 672.867 512.052 673.833 C 508.604 673.874 506.319 674.151 503.176 675.198 C 500.18 675.65 498.453 676.698 496.349 677.929 C 493.971 679.212 490.525 680.863 487.473 682.025 C 484.775 683.906 483.861 685.009 480.646 686.805 C 478.621 689.024 476.548 690.357 475.184 692.267 C 474.578 694.571 475.223 697.289 477.915 698.411 C 479.617 699.817 482.231 700.551 484.742 701.142 C 487.929 701.024 490.743 700.582 492.935 699.094 C 496.318 698.646 498.328 697.654 501.128 697.046 C 503.524 696.195 505.818 695.379 508.638 694.997 C 510.591 693.673 514.054 692.53 516.148 691.584 C 519.578 690.195 521.769 688.363 524.341 686.805 C 525.567 685.386 527.203 683.854 529.12 683.391 L 524.341 686.805 C 525.567 685.386 527.203 683.854 529.803 679.977 z "
       id="path605"
       transform="matrix(1.000000,0.000000,0.000000,0.851573,1.188736,101.0965)" />
    <path
       style="fill:#009a00;fill-rule:evenodd;stroke:none;stroke-opacity:1;stroke-width:1pt;stroke-linejoin:miter;stroke-linecap:butt;fill-opacity:1;"
       d="M 557.112 693.632 C 556.985 693.6 553.936 692.267 551.651 692.267 C 549.627 691.083 546.352 690.845 543.458 689.536 C 539.727 689.536 537.187 689.954 535.265 691.584 C 532.427 691.967 529.89 692.801 527.755 694.315 C 525.097 694.94 522.685 695.525 520.245 697.046 C 516.951 698.428 515.501 699.725 513.417 701.142 C 512.012 702.843 508.976 703.794 507.273 705.239 C 505.744 707.09 505.747 709.538 506.59 712.066 C 508.338 713.142 511.326 714.21 513.417 715.48 C 516.469 716.025 519.579 716.162 522.976 716.162 C 526.007 715.929 528.564 715.421 530.486 714.114 C 533.92 712.46 534.834 711.238 537.313 709.335 C 538.747 707.599 541.146 706.202 543.458 705.239 C 545.2 703.729 547.314 702.625 550.285 701.825 C 551.948 700.24 553.479 698.708 555.064 697.046 C 556.973 697.046 555.662 697.257 557.112 693.632 z "
       id="path606"
       transform="matrix(1.000000,0.000000,0.000000,0.888389,0.000000,76.96011)" />
    <path
       style="fill:#009a00;fill-rule:evenodd;stroke:none;stroke-opacity:1;stroke-width:1pt;stroke-linejoin:miter;stroke-linecap:butt;fill-opacity:1;"
       d="M 587.153 696.363 C 586.989 696.338 583.298 695.68 581.008 695.68 C 579.077 694.715 575.117 694.997 572.133 694.997 C 568.371 695.137 567.208 695.914 565.305 697.728 C 563.37 698.919 561.034 699.989 559.161 701.825 C 556.767 703.292 554.61 705.314 552.333 706.604 C 549.828 707.677 547.669 708.906 544.823 709.335 C 543.451 710.996 541.045 712.431 539.361 714.114 C 537.487 715.52 536.692 716.196 536.63 719.576 C 535.24 720.697 534.301 722.898 534.582 723.672 C 537.345 725.091 539.629 725.675 543.458 725.721 C 547.105 725.764 549.666 726.558 553.016 725.721 C 556.43 724.709 557.794 724.001 561.209 722.99 C 562.952 720.719 564.261 719.199 566.671 717.528 C 567.973 715.613 569.533 713.851 572.133 712.749 C 574.081 710.977 576.963 709.02 578.96 707.969 C 580.181 706.26 582.562 704.442 584.422 703.19 C 585.79 700.875 586.179 700.49 587.153 696.363 z "
       id="path607"
       transform="matrix(1.000000,0.000000,0.000000,0.866411,-0.594368,95.81036)" />
    <path
       style="fill:#009a00;fill-rule:evenodd;stroke:none;stroke-opacity:1;stroke-width:1pt;stroke-linejoin:miter;stroke-linecap:butt;fill-opacity:1;"
       d="M 589.884 693.632 C 589.884 692.1 589.884 686.313 589.884 682.708 C 589.884 679.522 589.884 676.336 589.884 673.15 C 586.714 671.275 586.239 670.153 585.105 666.323 C 583.422 663.593 582.136 661.876 581.008 659.495 C 579.427 657.836 578.124 655.683 577.594 652.668 C 576.29 650.14 575.481 647.598 572.815 646.523 C 570.4 645.998 567.25 645.84 563.94 645.84 C 559.418 646.008 559.843 646.805 559.843 651.302 C 560.161 654.799 561.276 655.714 562.574 658.812 C 563.577 660.93 564.666 663.106 565.988 664.957 C 567.009 667.219 568.611 670.131 570.084 671.784 C 571.28 674.295 572.999 676.57 573.498 679.295 C 575.369 681.669 576.662 683.746 578.277 685.439 C 579.614 688.23 580.62 689.809 583.056 690.901 C 584.449 692.989 586.804 693.161 589.884 693.632 z "
       id="path608" />
    <path
       style="fill:#009a00;fill-rule:evenodd;stroke:none;stroke-opacity:1;stroke-width:1pt;stroke-linejoin:miter;stroke-linecap:butt;fill-opacity:1;"
       d="M 557.112 682.708 C 557.34 682.708 557.568 682.708 557.795 682.708 C 555.887 682.708 556.901 682.793 560.526 681.343 C 561.492 679.411 561.209 675.452 561.209 672.467 C 561.209 668.58 560.566 666.925 559.843 664.274 C 558.601 661.309 557.588 659.919 557.112 656.764 C 556.091 654.608 555.063 652.435 554.381 649.937 C 553.154 648.131 552.277 645.408 551.651 643.11 C 549.346 641.804 547.218 640.494 544.823 639.696 C 542.652 638.668 540.63 637.135 537.996 636.282 C 534.571 636.909 534.184 638.038 533.899 641.744 C 533.112 644.498 534.192 646.988 535.265 649.254 C 536.393 651.948 537.066 654.68 538.679 656.764 C 539.663 659.827 540.665 660.895 540.727 664.274 C 541.902 666.284 542.393 669.243 543.458 671.784 C 544.829 674.955 546.105 676.322 548.237 678.612 C 551.152 680.594 552.153 681.426 557.112 682.708 z "
       id="path609" />
    <path
       style="fill:#009a00;fill-rule:evenodd;stroke:none;stroke-opacity:1;stroke-width:1pt;stroke-linejoin:miter;stroke-linecap:butt;fill-opacity:1;"
       d="M 529.803 673.833 C 529.803 673.506 531.971 672.163 533.217 670.419 C 534.237 668.378 534.111 664.228 533.217 661.543 C 531.922 658.344 530.511 655.946 529.803 653.351 C 529.083 651.191 529.12 647.623 529.12 644.475 C 528.497 641.607 527.471 639.487 526.389 636.282 C 525.507 634.076 523.787 631.316 522.976 628.772 C 521.911 627.766 520.707 625.701 519.562 624.676 C 518.227 623.584 518.18 623.31 515.466 623.31 C 511.837 623.445 510.011 623.78 507.955 626.041 C 507.236 628.201 507.273 631.769 507.273 634.917 C 507.318 638.679 507.668 640.458 509.321 643.11 C 510.527 645.979 513.057 648.773 514.783 651.302 C 516.198 653.698 517.099 655.977 518.879 657.447 C 519.343 660.523 520.5 661.931 521.61 664.274 C 522.074 667.35 523.231 668.758 524.341 671.102 C 526.127 671.3 525.293 671.736 526.389 672.467 L 524.341 671.102 C 526.127 671.3 525.293 671.736 529.803 673.833 z "
       id="path610" />
    <path
       style="fill:#009a00;fill-rule:evenodd;stroke:none;stroke-opacity:1;stroke-width:1pt;stroke-linejoin:miter;stroke-linecap:butt;fill-opacity:1;"
       d="M 502.494 653.351 C 502.911 652.412 505.445 648.758 505.907 646.523 C 505.861 642.651 505.41 640.008 503.176 637.648 C 502.622 635.259 501.282 631.65 500.445 629.455 C 500.445 626.307 500.483 622.739 499.763 620.579 C 499.763 616.992 499.267 614.837 498.397 612.386 C 496.855 610.119 495.194 609.455 491.57 608.29 C 488.633 607.311 486.603 608.017 483.377 608.973 C 483.377 612.159 483.377 615.345 483.377 618.531 C 483.42 622.144 484.065 624.724 485.425 626.724 C 486.535 629.066 487.607 630.74 488.839 633.551 C 488.971 637.262 489.955 639.18 490.204 642.427 C 490.473 645.918 490.801 647.725 492.935 649.937 C 495.842 651.311 496.729 652.64 499.08 653.351 L 492.935 649.937 C 495.842 651.311 496.729 652.64 502.494 653.351 z "
       id="path611" />
    <path
       style="fill:#009a00;fill-rule:evenodd;stroke:none;stroke-opacity:1;stroke-width:1pt;stroke-linejoin:miter;stroke-linecap:butt;fill-opacity:1;"
       d="M 477.915 638.33 C 477.915 638.103 477.915 637.875 477.915 637.648 C 477.915 639.556 477.831 638.542 479.281 634.917 C 480.02 631.957 479.963 628.699 479.963 625.358 C 479.752 622.607 479.353 619.43 478.598 617.166 C 477.974 613.671 477.259 611.484 476.55 608.29 C 476.062 605.517 474.184 602.456 473.136 600.097 C 472.466 598.087 471.783 593.897 471.088 591.904 C 470.599 589.352 469.373 588.549 466.991 587.808 C 465.122 586.873 460.668 586.873 458.798 587.808 C 456.789 588.504 456.792 590.092 456.068 591.904 C 455.815 595.437 455.214 598.047 456.068 601.463 C 457.223 603.438 458.445 605.534 459.481 607.607 C 460.823 610.03 462.168 613.666 463.578 615.8 C 464.605 619.267 464.985 620.868 466.991 623.993 C 467.729 626.206 468.893 628.866 470.405 630.82 C 471.377 633.25 472.795 634.972 473.819 637.648 C 475.661 637.648 474.28 637.603 477.915 638.33 z "
       id="path612" />
    <path
       style="fill:#009a00;fill-rule:evenodd;stroke:none;stroke-opacity:1;stroke-width:1pt;stroke-linejoin:miter;stroke-linecap:butt;fill-opacity:1;"
       d="M 618.131 711.133 C 617.933 711.133 617.735 711.133 617.537 711.133 C 618.329 711.133 615.952 711.133 615.159 711.133 C 612.385 711.133 609.612 711.133 606.838 711.133 C 605.103 712.781 604.499 713.728 601.489 714.105 C 599.969 715.422 598.529 716.639 596.14 717.076 C 594.037 717.534 591.295 717.671 588.413 717.671 C 584.89 717.628 583.68 717.78 583.064 714.699 C 583.12 711.636 583.264 711.465 586.036 711.133 C 587.52 709.907 590.007 709.326 592.574 708.756 C 594.536 708.059 596.939 707.445 599.112 706.972 C 601.219 706.224 603.23 705.46 605.055 704.595 C 604.601 702.78 603.134 703.178 601.489 704.001 C 599.354 704.001 596.807 704.163 595.545 703.406 C 594.062 701.202 593.259 700.479 589.602 700.435 C 586.132 700.393 585.54 699.482 582.47 699.246 C 579.53 699.21 577.475 698.77 575.337 698.057 C 572.199 697.833 570.091 697.355 567.611 696.274 C 566.814 695.477 568.705 695.312 569.988 695.085 C 571.746 693.89 573.605 693.41 576.526 693.302 C 579.3 693.302 582.073 693.302 584.847 693.302 C 587.896 693.302 590.242 693.792 593.168 693.897 C 595.553 694.722 598.059 695.154 599.706 696.274 C 601.857 696.991 603.211 698.252 604.461 699.84 C 606.552 700.411 608.656 701.114 610.999 701.623 C 613.739 701.623 616.845 701.591 618.725 702.218 C 620.086 704.486 619.01 708.204 618.131 711.133 z "
       id="path613" />
  </g>
</svg>
