<?xml version="1.0" encoding="UTF-8" standalone="no"?>
<!DOCTYPE svg PUBLIC "-//W3C//DTD SVG 20010904//EN"
"http://www.w3.org/TR/2001/REC-SVG-20010904/DTD/svg10.dtd">
<!-- Created with Sodipodi ("http://www.sodipodi.com/") -->
<svg
   version="1"
   x="0"
   y="0"
   width="280mm"
   height="140mm"
   id="svg378"
   xmlns="http://www.w3.org/2000/svg"
   xmlns:sodipodi="http://sodipodi.sourceforge.net/DTD/sodipodi-0.dtd"
   xmlns:xlink="http://www.w3.org/1999/xlink"
   sodipodi:version="0.32"
   sodipodi:docname="/home/scarlet/ecuador-normal.svg"
   sodipodi:docbase="/home/scarlet">
  <sodipodi:namedview
     id="base" />
  <defs
     id="defs380" />
  <g
     id="g1350"
     transform="matrix(1.333333,0.000000,0.000000,1.000000,0.000000,2.288818e-5)">
    <rect
       width="744.094482"
       height="496.062319"
       x="0.000000"
       y="-0.000019"
       style="font-size:12;fill:#ffe800;fill-rule:evenodd;stroke-width:1pt;"
       id="rect171" />
    <rect
       width="744.094482"
       height="248.031501"
       x="0.000000"
       y="248.031482"
       style="font-size:12;fill:#00148e;fill-rule:evenodd;stroke-width:1pt;"
       id="rect403" />
    <rect
       width="744.094482"
       height="124.015398"
       x="0.000000"
       y="372.046880"
       style="font-size:12;fill:#da0010;fill-rule:evenodd;stroke-width:1pt;"
       id="rect135" />
  </g>
  <g
     id="g1649"
     transform="matrix(0.714285,0.000000,0.000000,0.857143,230.3151,35.43303)">
    <g
       id="g876"
       transform="matrix(-0.470072,0.000000,0.000000,0.413683,605.2326,96.09377)"
       style="font-size:12;">
      <path
         transform="matrix(0.572124,-0.697182,0.560721,0.714108,353.2764,164.9649)"
         style="font-size:12;fill-rule:evenodd;stroke-width:1pt;"
         d="M 4.79873 403.833 L 28.5919 600.728 L 32.413 600.728 L 8.61975 403.833 L 4.79873 403.833 z "
         id="path877"
         sodipodi:nodetypes="ccccc" />
      <path
         transform="matrix(0.744753,-0.667340,0.729910,0.683543,197.7274,197.4316)"
         style="font-size:12;fill-rule:evenodd;stroke-width:1pt;"
         d="M 4.79872 403.833 L -2.53861 633.668 L 1.28245 633.668 L 8.6198 403.833 L 4.79872 403.833 z "
         id="path878"
         sodipodi:nodetypes="ccccc" />
      <path
         style="font-size:12;fill:#808080;fill-rule:evenodd;stroke:#000000;stroke-width:4.10359;"
         d="M 478.346 60.2362 L 478.346 148.819 L 496.063 237.402 L 513.78 148.819 L 513.78 60.2362 L 478.346 60.2362 z "
         id="path879"
         sodipodi:nodetypes="cccccc"
         transform="matrix(0.117392,-0.110084,0.152053,0.146180,590.1987,674.9190)" />
      <path
         style="font-size:12;fill:#808080;fill-rule:evenodd;stroke:#000000;stroke-width:4.10359;"
         d="M 478.346 60.2362 L 478.346 148.819 L 496.063 237.402 L 513.78 148.819 L 513.78 60.2362 L 478.346 60.2362 z "
         id="path880"
         sodipodi:nodetypes="cccccc"
         transform="matrix(0.117392,-0.110084,0.152053,0.146180,632.0464,611.6375)" />
    </g>
    <g
       id="g1095"
       transform="matrix(0.470072,0.000000,0.000000,0.413683,122.2059,80.33354)"
       style="font-size:12;">
      <path
         style="font-size:12;fill:#ffdf00;fill-rule:evenodd;stroke:#000000;stroke-width:1pt;"
         d="M 301.181 272.835 C 301.181 272.835 283.465 609.449 354.331 609.449 C 425.197 609.449 460.63 574.016 460.63 574.016 L 459.771 388.992 L 301.181 272.835 z "
         id="path571"
         sodipodi:nodetypes="ccccc"
         transform="matrix(0.768206,0.000000,0.000000,1.044717,107.4310,-80.40263)" />
      <path
         style="font-size:12;fill:#0000c4;fill-rule:evenodd;stroke:#000000;stroke-width:1pt;"
         d="M 344.46 304.201 C 344.459 321.918 336.614 574.016 372.047 574.016 C 407.48 574.016 460.63 556.299 460.63 556.299 L 459.771 388.992 L 344.46 304.201 z "
         id="path572"
         sodipodi:nodetypes="ccccc"
         transform="matrix(0.768206,0.000000,0.000000,1.044717,107.4310,-80.40263)" />
      <path
         style="font-size:12;fill:#e10000;fill-rule:evenodd;stroke:#000000;stroke-width:1pt;"
         d="M 367.522 321.159 C 367.521 338.876 372.047 538.583 407.48 538.583 C 425.197 538.583 460.63 538.583 460.63 538.583 L 459.771 388.992 L 367.522 321.159 z "
         id="path573"
         sodipodi:nodetypes="ccccc"
         transform="matrix(0.768206,0.000000,0.000000,1.044717,107.4310,-80.40263)" />
      <path
         transform="matrix(0.572124,-0.697182,0.560721,0.714108,107.4310,-80.40263)"
         style="font-size:12;fill-rule:evenodd;stroke-width:1pt;"
         d="M 4.79873 403.833 L 28.5919 600.728 L 32.413 600.728 L 8.61975 403.833 L 4.79873 403.833 z "
         id="path574"
         sodipodi:nodetypes="ccccc" />
      <path
         style="font-size:12;fill:#ffdf00;fill-rule:evenodd;stroke:#000000;stroke-width:1pt;"
         d="M 301.181 272.835 C 301.181 272.835 265.748 609.449 372.047 609.449 C 460.63 609.449 460.63 556.299 478.346 556.299 L 460.63 432.283 L 301.181 272.835 z "
         id="path551"
         sodipodi:nodetypes="ccccc" />
      <g
         id="g1056"
         transform="matrix(0.516172,-0.271849,0.218451,0.409275,202.3959,380.1901)">
        <path
           style="fill:none;fill-rule:evenodd;stroke:black;stroke-opacity:1;stroke-width:2.30459;stroke-linejoin:miter;stroke-linecap:butt;fill-opacity:1;stroke-dasharray:none;"
           d="M 269.588 155.245 C 270.721 155.245 297.906 61.2295 388.524 7.99149 "
           id="path1046"
           sodipodi:nodetypes="cc"
           transform="matrix(1.032816,0.578801,-0.588954,0.998923,119.6090,-225.3212)" />
        <path
           style="font-size:12;fill:#005b00;fill-rule:evenodd;stroke-width:1pt;stroke:#000000;stroke-opacity:1;"
           d="M 421.373 -20.3266 C 421.373 -2.19391 416.806 11.3897 410.045 24.9824 C 404.418 6.85883 400.984 -2.19391 400.984 -20.3266 C 400.984 -38.4592 407.816 -55.441 413.443 -69.0337 C 415.673 -56.5737 421.373 -38.4592 421.373 -20.3266 z "
           id="path1036"
           sodipodi:nodetypes="ccccc"
           transform="matrix(0.646607,-0.441746,0.570854,0.932877,81.13728,184.8990)" />
        <path
           sodipodi:type="arc"
           style="fill-rule:evenodd;stroke:#000000;fill:#ff0000;fill-opacity:1;stroke-opacity:1;stroke-width:1pt;stroke-linejoin:miter;stroke-linecap:butt;"
           id="path1049"
           d="M 454.221985 -169.279739 A 8.495422 7.362671 0 1 0 437.231140,-169.279739 A 8.49542 7.36267 0 1 0 454.222 -169.28 L 445.726562 -169.279739 z"
           sodipodi:cx="445.726562"
           sodipodi:cy="-169.279739"
           sodipodi:rx="8.495422"
           sodipodi:ry="7.362671"
           transform="matrix(0.600000,0.000000,0.000000,0.692303,86.54007,185.7851)" />
        <path
           style="font-size:12;fill:#005b00;fill-rule:evenodd;stroke-width:1pt;stroke:#000000;stroke-opacity:1;"
           d="M 421.373 -20.3266 C 421.373 -2.19391 416.806 11.3897 410.045 24.9824 C 404.418 6.85883 400.984 -2.19391 400.984 -20.3266 C 400.984 -38.4592 407.816 -55.441 413.443 -69.0337 C 415.673 -56.5737 421.373 -38.4592 421.373 -20.3266 z "
           id="path1032"
           sodipodi:nodetypes="ccccc"
           transform="matrix(0.301826,0.671293,-0.764023,0.808841,305.0676,-304.0169)" />
        <path
           style="font-size:12;fill:#005b00;fill-rule:evenodd;stroke-width:1pt;stroke:#000000;stroke-opacity:1;"
           d="M 421.373 -20.3266 C 421.373 -2.19391 416.806 11.3897 410.045 24.9824 C 404.418 6.85883 400.984 -2.19391 400.984 -20.3266 C 400.984 -38.4592 407.816 -55.441 413.443 -69.0337 C 415.673 -56.5737 421.373 -38.4592 421.373 -20.3266 z "
           id="path1033"
           sodipodi:nodetypes="ccccc"
           transform="matrix(0.492255,0.205110,-0.505769,0.951828,218.4435,-112.5343)" />
        <path
           style="font-size:12;fill:#005b00;fill-rule:evenodd;stroke-width:1pt;stroke:#000000;stroke-opacity:1;"
           d="M 421.373 -20.3266 C 421.373 -2.19391 416.806 11.3897 410.045 24.9824 C 404.418 6.85883 400.984 -2.19391 400.984 -20.3266 C 400.984 -38.4592 407.816 -55.441 413.443 -69.0337 C 415.673 -56.5737 421.373 -38.4592 421.373 -20.3266 z "
           id="path1034"
           sodipodi:nodetypes="ccccc"
           transform="matrix(-0.166487,0.889380,-0.699681,0.300336,493.4225,-380.7820)" />
        <path
           style="font-size:12;fill:#005b00;fill-rule:evenodd;stroke-width:1pt;stroke:#000000;stroke-opacity:1;"
           d="M 421.373 -20.3266 C 421.373 -2.19391 416.806 11.3897 410.045 24.9824 C 404.418 6.85883 400.984 -2.19391 400.984 -20.3266 C 400.984 -38.4592 407.816 -55.441 413.443 -69.0337 C 415.673 -56.5737 421.373 -38.4592 421.373 -20.3266 z "
           id="path1035"
           sodipodi:nodetypes="ccccc"
           transform="matrix(0.777935,-0.219068,0.176834,1.049753,36.13285,90.53029)" />
        <path
           style="font-size:12;fill:#005b00;fill-rule:evenodd;stroke-width:1pt;stroke:#000000;stroke-opacity:1;"
           d="M 421.373 -20.3266 C 421.373 -2.19391 416.806 11.3897 410.045 24.9824 C 404.418 6.85883 400.984 -2.19391 400.984 -20.3266 C 400.984 -38.4592 407.816 -55.441 413.443 -69.0337 C 415.673 -56.5737 421.373 -38.4592 421.373 -20.3266 z "
           id="path1037"
           sodipodi:nodetypes="ccccc"
           transform="matrix(0.855130,-0.320810,0.385256,1.059185,-55.63219,192.1157)" />
        <path
           style="font-size:12;fill:#005b00;fill-rule:evenodd;stroke-width:1pt;stroke:#000000;stroke-opacity:1;"
           d="M 421.373 -20.3266 C 421.373 -2.19391 416.806 11.3897 410.045 24.9824 C 404.418 6.85883 400.984 -2.19391 400.984 -20.3266 C 400.984 -38.4592 407.816 -55.441 413.443 -69.0337 C 415.673 -56.5737 421.373 -38.4592 421.373 -20.3266 z "
           id="path1038"
           sodipodi:nodetypes="ccccc"
           transform="matrix(0.539603,0.736881,-0.915987,0.656707,107.9508,-231.9060)" />
        <path
           style="font-size:12;fill:#005b00;fill-rule:evenodd;stroke-width:1pt;stroke:#000000;stroke-opacity:1;"
           d="M 421.373 -20.3266 C 421.373 -2.19391 416.806 11.3897 410.045 24.9824 C 404.418 6.85883 400.984 -2.19391 400.984 -20.3266 C 400.984 -38.4592 407.816 -55.441 413.443 -69.0337 C 415.673 -56.5737 421.373 -38.4592 421.373 -20.3266 z "
           id="path1039"
           sodipodi:nodetypes="ccccc"
           transform="matrix(0.118043,0.905666,-1.119030,0.134420,289.5134,-286.8532)" />
        <path
           style="font-size:12;fill:#005b00;fill-rule:evenodd;stroke-width:1pt;stroke:#000000;stroke-opacity:1;"
           d="M 421.373 -20.3266 C 421.373 -2.19391 416.806 11.3897 410.045 24.9824 C 404.418 6.85883 400.984 -2.19391 400.984 -20.3266 C 400.984 -38.4592 407.816 -55.441 413.443 -69.0337 C 415.673 -56.5737 421.373 -38.4592 421.373 -20.3266 z "
           id="path1040"
           sodipodi:nodetypes="ccccc"
           transform="matrix(9.502301e-2,0.407639,-0.563805,0.272509,477.3514,-164.8951)" />
        <path
           style="font-size:12;fill:#005b00;fill-rule:evenodd;stroke-width:1pt;stroke:#000000;stroke-opacity:1;"
           d="M 421.373 -20.3266 C 421.373 -2.19391 416.806 11.3897 410.045 24.9824 C 404.418 6.85883 400.984 -2.19391 400.984 -20.3266 C 400.984 -38.4592 407.816 -55.441 413.443 -69.0337 C 415.673 -56.5737 421.373 -38.4592 421.373 -20.3266 z "
           id="path1041"
           sodipodi:nodetypes="ccccc"
           transform="matrix(0.269650,0.202117,-0.426899,0.396946,400.5673,-82.10780)" />
        <path
           style="font-size:12;fill:#005b00;fill-rule:evenodd;stroke-width:1pt;stroke:#000000;stroke-opacity:1;"
           d="M 421.373 -20.3266 C 421.373 -2.19391 416.806 11.3897 410.045 24.9824 C 404.418 6.85883 400.984 -2.19391 400.984 -20.3266 C 400.984 -38.4592 407.816 -55.441 413.443 -69.0337 C 415.673 -56.5737 421.373 -38.4592 421.373 -20.3266 z "
           id="path1042"
           sodipodi:nodetypes="ccccc"
           transform="matrix(-0.214773,0.430254,-0.459564,2.052863e-2,600.5398,-168.2965)" />
        <path
           style="font-size:12;fill:#005b00;fill-rule:evenodd;stroke-width:1pt;stroke:#000000;stroke-opacity:1;"
           d="M 421.373 -20.3266 C 421.373 -2.19391 416.806 11.3897 410.045 24.9824 C 404.418 6.85883 400.984 -2.19391 400.984 -20.3266 C 400.984 -38.4592 407.816 -55.441 413.443 -69.0337 C 415.673 -56.5737 421.373 -38.4592 421.373 -20.3266 z "
           id="path1043"
           sodipodi:nodetypes="ccccc"
           transform="matrix(2.309915e-2,0.469418,-0.848825,4.068574e-2,382.7152,-176.3958)" />
        <path
           style="font-size:12;fill:#005b00;fill-rule:evenodd;stroke-width:1pt;stroke:#000000;stroke-opacity:1;"
           d="M 421.373 -20.3266 C 421.373 -2.19391 416.806 11.3897 410.045 24.9824 C 404.418 6.85883 400.984 -2.19391 400.984 -20.3266 C 400.984 -38.4592 407.816 -55.441 413.443 -69.0337 C 415.673 -56.5737 421.373 -38.4592 421.373 -20.3266 z "
           id="path1044"
           sodipodi:nodetypes="ccccc"
           transform="matrix(4.541443e-2,0.912197,-1.126186,4.471760e-2,406.8966,-340.5623)" />
        <path
           style="fill:none;fill-rule:evenodd;stroke:black;stroke-opacity:1;stroke-width:2.37026;stroke-linejoin:miter;stroke-linecap:butt;fill-opacity:1;stroke-dasharray:none;"
           d="M 269.588 155.245 C 270.721 155.245 297.906 61.2295 388.524 7.99149 "
           id="path1045"
           sodipodi:nodetypes="cc"
           transform="matrix(1.171429,0.000000,0.000000,1.107692,-46.21507,-16.71870)" />
        <path
           sodipodi:type="arc"
           style="fill-rule:evenodd;stroke:#000000;fill:#ff0000;fill-opacity:1;stroke-opacity:1;stroke-width:1pt;stroke-linejoin:miter;stroke-linecap:butt;"
           id="path1047"
           d="M 454.221985 -169.279739 A 8.495422 7.362671 0 1 0 437.231140,-169.279739 A 8.49542 7.36267 0 1 0 454.222 -169.28 L 445.726562 -169.279739 z"
           sodipodi:cx="445.726562"
           sodipodi:cy="-169.279739"
           sodipodi:rx="8.495422"
           sodipodi:ry="7.362671"
           transform="matrix(0.600000,0.000000,0.000000,0.692308,187.3524,125.7515)" />
        <path
           sodipodi:type="arc"
           style="fill-rule:evenodd;stroke:#000000;fill:#ff0000;fill-opacity:1;stroke-opacity:1;stroke-width:1pt;stroke-linejoin:miter;stroke-linecap:butt;"
           id="path1048"
           d="M 454.221985 -169.279739 A 8.495422 7.362671 0 1 0 437.231140,-169.279739 A 8.49542 7.36267 0 1 0 454.222 -169.28 L 445.726562 -169.279739 z"
           sodipodi:cx="445.726562"
           sodipodi:cy="-169.279739"
           sodipodi:rx="8.495422"
           sodipodi:ry="7.362671"
           transform="matrix(0.600000,0.000000,0.000000,0.692308,223.5995,124.6189)" />
        <path
           sodipodi:type="arc"
           style="fill-rule:evenodd;stroke:#000000;fill:#ff0000;fill-opacity:1;stroke-opacity:1;stroke-width:1pt;stroke-linejoin:miter;stroke-linecap:butt;"
           id="path1050"
           d="M 454.221985 -169.279739 A 8.495422 7.362671 0 1 0 437.231140,-169.279739 A 8.49542 7.36267 0 1 0 454.222 -169.28 L 445.726562 -169.279739 z"
           sodipodi:cx="445.726562"
           sodipodi:cy="-169.279739"
           sodipodi:rx="8.495422"
           sodipodi:ry="7.362671"
           transform="matrix(0.620690,0.000000,0.000000,0.519999,89.95374,93.04906)" />
        <path
           sodipodi:type="arc"
           style="fill-rule:evenodd;stroke:#000000;fill:#ff0000;fill-opacity:1;stroke-opacity:1;stroke-width:1pt;stroke-linejoin:miter;stroke-linecap:butt;"
           id="path1051"
           d="M 454.221985 -169.279739 A 8.495422 7.362671 0 1 0 437.231140,-169.279739 A 8.49542 7.36267 0 1 0 454.222 -169.28 L 445.726562 -169.279739 z"
           sodipodi:cx="445.726562"
           sodipodi:cy="-169.279739"
           sodipodi:rx="8.495422"
           sodipodi:ry="7.362671"
           transform="matrix(0.620690,0.000000,0.000000,0.519999,99.79671,94.22711)" />
        <path
           sodipodi:type="arc"
           style="fill-rule:evenodd;stroke:#000000;fill:#ff0000;fill-opacity:1;stroke-opacity:1;stroke-width:1pt;stroke-linejoin:miter;stroke-linecap:butt;"
           id="path1052"
           d="M 454.221985 -169.279739 A 8.495422 7.362671 0 1 0 437.231140,-169.279739 A 8.49542 7.36267 0 1 0 454.222 -169.28 L 445.726562 -169.279739 z"
           sodipodi:cx="445.726562"
           sodipodi:cy="-169.279739"
           sodipodi:rx="8.495422"
           sodipodi:ry="7.362671"
           transform="matrix(0.620690,0.000000,0.000000,0.519999,91.35988,100.1172)" />
        <path
           sodipodi:type="arc"
           style="fill-rule:evenodd;stroke:#000000;fill:#ff0000;fill-opacity:1;stroke-opacity:1;stroke-width:1pt;stroke-linejoin:miter;stroke-linecap:butt;"
           id="path1053"
           d="M 454.221985 -169.279739 A 8.495422 7.362671 0 1 0 437.231140,-169.279739 A 8.49542 7.36267 0 1 0 454.222 -169.28 L 445.726562 -169.279739 z"
           sodipodi:cx="445.726562"
           sodipodi:cy="-169.279739"
           sodipodi:rx="8.495422"
           sodipodi:ry="7.362671"
           transform="matrix(0.666667,0.000000,0.000000,0.769227,102.6999,156.3298)" />
        <path
           sodipodi:type="arc"
           style="fill-rule:evenodd;stroke:#000000;fill:#ff0000;fill-opacity:1;stroke-opacity:1;stroke-width:1pt;stroke-linejoin:miter;stroke-linecap:butt;"
           id="path1054"
           d="M 454.221985 -169.279739 A 8.495422 7.362671 0 1 0 437.231140,-169.279739 A 8.49542 7.36267 0 1 0 454.222 -169.28 L 445.726562 -169.279739 z"
           sodipodi:cx="445.726562"
           sodipodi:cy="-169.279739"
           sodipodi:rx="8.495422"
           sodipodi:ry="7.362671"
           transform="matrix(0.666667,0.000000,0.000000,0.769227,111.7617,152.9316)" />
        <path
           sodipodi:type="arc"
           style="fill-rule:evenodd;stroke:#000000;fill:#ff0000;fill-opacity:1;stroke-opacity:1;stroke-width:1pt;stroke-linejoin:miter;stroke-linecap:butt;"
           id="path1055"
           d="M 454.221985 -169.279739 A 8.495422 7.362671 0 1 0 437.231140,-169.279739 A 8.49542 7.36267 0 1 0 454.222 -169.28 L 445.726562 -169.279739 z"
           sodipodi:cx="445.726562"
           sodipodi:cy="-169.279739"
           sodipodi:rx="8.495422"
           sodipodi:ry="7.362671"
           transform="matrix(0.666667,0.000000,0.000000,0.769227,111.7617,157.4624)" />
      </g>
      <path
         style="font-size:12;fill:#0000c4;fill-rule:evenodd;stroke:#000000;stroke-width:1pt;"
         d="M 336.614 308.268 C 336.613 325.985 301.181 520.866 389.764 574.016 C 425.197 591.732 478.346 556.299 478.346 574.016 L 460.63 432.283 L 336.614 308.268 z "
         id="path552"
         sodipodi:nodetypes="ccccc"
         transform="translate(0.000000,-3.051758e-5)" />
      <path
         style="font-size:12;fill:#e10000;fill-rule:evenodd;stroke:#000000;stroke-width:1pt;"
         d="M 372.047 343.701 C 372.046 361.418 354.331 503.15 407.48 538.583 C 442.913 574.016 531.496 564.405 531.496 564.405 L 460.63 432.283 L 372.047 343.701 z "
         id="path553"
         sodipodi:nodetypes="ccccc" />
      <path
         transform="matrix(0.744753,-0.667340,0.729910,0.683543,0.000000,0.000000)"
         style="font-size:12;fill-rule:evenodd;stroke-width:1pt;"
         d="M 4.79872 403.833 L -2.53861 633.668 L 1.28245 633.668 L 8.6198 403.833 L 4.79872 403.833 z "
         id="path570"
         sodipodi:nodetypes="ccccc" />
      <path
         style="font-size:12;fill:#cececc;fill-rule:evenodd;stroke:#000000;stroke-width:1pt;"
         d="M 460.63 184.252 L 478.346 219.685 L 478.346 237.402 C 477.481 236.097 478.346 255.118 460.63 255.118 C 442.913 255.118 442.913 219.685 442.913 219.685 C 442.913 219.685 425.197 255.118 425.197 290.551 C 425.197 325.984 442.913 343.701 442.913 343.701 C 442.913 343.701 440.302 306.998 460.63 308.268 C 480.958 309.539 478.346 325.984 478.346 325.984 L 478.346 361.417 L 496.063 361.417 L 496.063 219.685 L 513.78 184.252 L 486.644 131.102 L 460.63 184.252 z "
         id="path575"
         sodipodi:nodetypes="ccccccccccccccc"
         transform="matrix(0.231993,-0.229358,0.178421,0.176867,131.3837,328.0845)" />
      <path
         style="font-size:12;fill:#cececc;fill-rule:evenodd;stroke:#000000;stroke-width:1pt;"
         d="M 557.819 95.6693 L 531.496 166.535 L 549.213 219.685 L 513.78 201.969 L 549.213 255.118 L 549.213 290.551 L 566.929 290.551 L 566.929 255.118 L 602.362 201.969 L 566.929 219.685 L 584.646 166.535 L 557.819 95.6693 z "
         id="path576"
         sodipodi:nodetypes="cccccccccccc"
         transform="matrix(0.178617,-0.259385,0.238843,0.150075,178.6952,314.5843)" />
      <path
         style="font-size:12;fill:#e10000;fill-rule:evenodd;stroke:#000000;stroke-width:1pt;"
         d="M 422.527 136.956 C 422.527 139.024 420.569 140.702 418.156 140.702 C 415.744 140.702 413.785 139.024 413.785 136.956 C 413.785 134.888 415.744 133.209 418.156 133.209 C 420.569 133.209 422.527 134.888 422.527 136.956 z M 416.283 144.865 C 416.283 180.666 437.2 332.673 438.865 336.42 C 439.004 340.86 434.147 342.803 431.788 337.253 C 425.237 319.911 411.044 177.339 410.455 144.033 C 410.211 130.299 414.216 129.232 418.781 129.463 C 422.54 129.672 427.106 133.188 427.106 137.372 C 427.106 142.368 421.278 146.114 416.283 144.865 z "
         id="path582"
         transform="matrix(0.686413,0.000000,0.000000,0.503029,58.42698,129.6832)"
         sodipodi:nodetypes="cccccccccccc" />
      <path
         style="font-size:12;fill:#0000c4;fill-rule:evenodd;stroke:#000000;stroke-width:1pt;"
         d="M 422.527 136.956 C 422.527 139.024 420.569 140.702 418.156 140.702 C 415.744 140.702 413.785 139.024 413.785 136.956 C 413.785 134.888 415.744 133.209 418.156 133.209 C 420.569 133.209 422.527 134.888 422.527 136.956 z M 416.283 144.865 C 447.771 206.28 465.005 311.635 466.67 315.382 C 466.809 319.822 461.952 321.765 459.593 316.215 C 457.114 312.9 446.926 216.032 410.455 144.033 C 410.211 130.299 414.216 129.232 418.781 129.463 C 422.54 129.672 427.106 133.188 427.106 137.372 C 427.106 142.368 421.278 146.114 416.283 144.865 z "
         id="path583"
         transform="matrix(0.647528,0.147280,-0.258095,0.474533,113.7421,78.37521)"
         sodipodi:nodetypes="cccccccccccc" />
      <path
         style="font-size:12;fill:#e10000;fill-rule:evenodd;stroke:#000000;stroke-width:1pt;"
         d="M 422.527 136.956 C 422.527 139.024 420.569 140.702 418.156 140.702 C 415.744 140.702 413.785 139.024 413.785 136.956 C 413.785 134.888 415.744 133.209 418.156 133.209 C 420.569 133.209 422.527 134.888 422.527 136.956 z M 416.283 144.865 C 416.283 180.666 437.2 332.673 438.865 336.42 C 439.004 340.86 434.147 342.803 431.788 337.253 C 425.237 319.911 411.044 177.339 410.455 144.033 C 410.211 130.299 414.216 129.232 418.781 129.463 C 422.54 129.672 427.106 133.188 427.106 137.372 C 427.106 142.368 421.278 146.114 416.283 144.865 z "
         id="path586"
         transform="matrix(0.877124,0.000000,0.000000,0.818372,-58.63320,151.1773)"
         sodipodi:nodetypes="cccccccccccc" />
      <path
         style="font-size:12;fill:#0000c4;fill-rule:evenodd;stroke:#000000;stroke-width:1pt;"
         d="M 422.527 136.956 C 422.527 139.024 420.569 140.702 418.156 140.702 C 415.744 140.702 413.785 139.024 413.785 136.956 C 413.785 134.888 415.744 133.209 418.156 133.209 C 420.569 133.209 422.527 134.888 422.527 136.956 z M 416.283 144.865 C 447.771 206.28 465.005 311.635 466.67 315.382 C 466.809 319.822 461.952 321.765 459.593 316.215 C 457.114 312.9 446.926 216.032 410.455 144.033 C 410.211 130.299 414.216 129.232 418.781 129.463 C 422.54 129.672 427.106 133.188 427.106 137.372 C 427.106 142.368 421.278 146.114 416.283 144.865 z "
         id="path587"
         transform="matrix(0.827435,0.239608,-0.329804,0.772011,12.05044,67.70505)"
         sodipodi:nodetypes="cccccccccccc" />
    </g>
    <g
       id="g841"
       transform="matrix(0.470072,0.000000,0.000000,0.413683,138.8620,96.09377)"
       style="font-size:12;">
      <path
         transform="matrix(0.572124,-0.697182,0.560721,0.714108,353.2764,164.9649)"
         style="font-size:12;fill-rule:evenodd;stroke-width:1pt;"
         d="M 4.79873 403.833 L 28.5919 600.728 L 32.413 600.728 L 8.61975 403.833 L 4.79873 403.833 z "
         id="path840"
         sodipodi:nodetypes="ccccc" />
      <path
         transform="matrix(0.744753,-0.667340,0.729910,0.683543,197.7274,197.4316)"
         style="font-size:12;fill-rule:evenodd;stroke-width:1pt;"
         d="M 4.79872 403.833 L -2.53861 633.668 L 1.28245 633.668 L 8.6198 403.833 L 4.79872 403.833 z "
         id="path839"
         sodipodi:nodetypes="ccccc" />
      <path
         style="font-size:12;fill:#808080;fill-rule:evenodd;stroke:#000000;stroke-width:4.10359;"
         d="M 478.346 60.2362 L 478.346 148.819 L 496.063 237.402 L 513.78 148.819 L 513.78 60.2362 L 478.346 60.2362 z "
         id="path700"
         sodipodi:nodetypes="cccccc"
         transform="matrix(0.117392,-0.110084,0.152053,0.146180,590.1987,674.9190)" />
      <path
         style="font-size:12;fill:#808080;fill-rule:evenodd;stroke:#000000;stroke-width:4.10359;"
         d="M 478.346 60.2362 L 478.346 148.819 L 496.063 237.402 L 513.78 148.819 L 513.78 60.2362 L 478.346 60.2362 z "
         id="path701"
         sodipodi:nodetypes="cccccc"
         transform="matrix(0.117392,-0.110084,0.152053,0.146180,632.0464,611.6375)" />
    </g>
    <g
       id="g1003"
       transform="matrix(0.470072,0.000000,0.000000,0.413683,122.2059,80.33354)"
       style="font-size:12;">
      <path
         style="font-size:12;fill:#ffdf00;fill-rule:evenodd;stroke:#000000;stroke-width:1pt;"
         d="M 301.181 272.835 C 301.181 272.835 283.465 609.449 354.331 609.449 C 425.197 609.449 460.63 574.016 460.63 574.016 L 459.771 388.992 L 301.181 272.835 z "
         id="path862"
         sodipodi:nodetypes="ccccc"
         transform="matrix(-0.768206,0.000000,0.000000,1.044717,955.5609,-80.40259)" />
      <path
         style="font-size:12;fill:#0000c4;fill-rule:evenodd;stroke:#000000;stroke-width:1pt;"
         d="M 344.46 304.201 C 344.459 321.918 336.614 574.016 372.047 574.016 C 407.48 574.016 460.63 556.299 460.63 556.299 L 459.771 388.992 L 344.46 304.201 z "
         id="path863"
         sodipodi:nodetypes="ccccc"
         transform="matrix(-0.768206,0.000000,0.000000,1.044717,955.5609,-80.40259)" />
      <path
         style="font-size:12;fill:#e10000;fill-rule:evenodd;stroke:#000000;stroke-width:1pt;"
         d="M 367.522 321.159 C 367.521 338.876 372.047 538.583 407.48 538.583 C 425.197 538.583 460.63 538.583 460.63 538.583 L 459.771 388.992 L 367.522 321.159 z "
         id="path864"
         sodipodi:nodetypes="ccccc"
         transform="matrix(-0.768206,0.000000,0.000000,1.044717,955.5609,-80.40259)" />
      <path
         transform="matrix(-0.572124,-0.697182,-0.560721,0.714108,955.5609,-80.40259)"
         style="font-size:12;fill-rule:evenodd;stroke-width:1pt;"
         d="M 4.79873 403.833 L 28.5919 600.728 L 32.413 600.728 L 8.61975 403.833 L 4.79873 403.833 z "
         id="path865"
         sodipodi:nodetypes="ccccc" />
      <g
         id="g940"
         transform="matrix(0.524288,-0.223577,0.168947,0.693819,362.7567,423.1306)">
        <path
           style="fill:#005b00;fill-rule:evenodd;stroke:black;stroke-opacity:1;stroke-width:1pt;stroke-linejoin:miter;stroke-linecap:butt;fill-opacity:1;"
           d="M 428.169 -16.9284 C 428.169 -16.9284 509.725 73.6895 539.176 137.122 C 568.627 200.554 593.547 293.437 593.547 293.437 C 593.547 293.437 595.812 207.351 557.3 130.326 C 505.195 32.9114 425.903 -12.3975 428.169 -16.9284 z "
           id="path922"
           sodipodi:nodetypes="ccccc"
           transform="matrix(0.534452,0.000000,0.000000,0.823430,287.6635,-0.293381)" />
        <path
           style="fill:#005b00;fill-rule:evenodd;stroke:black;stroke-opacity:1;stroke-width:1pt;stroke-linejoin:miter;stroke-linecap:butt;fill-opacity:1;"
           d="M 428.169 -16.9284 C 428.169 -16.9284 509.725 73.6895 539.176 137.122 C 568.627 200.554 593.547 293.437 593.547 293.437 C 593.547 293.437 595.812 207.351 557.3 130.326 C 505.195 32.9114 425.903 -12.3975 428.169 -16.9284 z "
           id="path923"
           sodipodi:nodetypes="ccccc"
           transform="matrix(0.615277,7.875077e-2,-6.175663e-2,0.890372,253.7035,-77.62798)" />
        <path
           style="fill:#005b00;fill-rule:evenodd;stroke:black;stroke-opacity:1;stroke-width:1pt;stroke-linejoin:miter;stroke-linecap:butt;fill-opacity:1;"
           d="M 428.169 -16.9284 C 428.169 -16.9284 509.725 73.6895 539.176 137.122 C 568.627 200.554 593.547 293.437 593.547 293.437 C 593.547 293.437 595.812 207.351 557.3 130.326 C 505.195 32.9114 425.903 -12.3975 428.169 -16.9284 z "
           id="path924"
           sodipodi:nodetypes="ccccc"
           transform="matrix(0.588688,0.519984,-0.356193,0.813967,345.6692,-312.4745)" />
        <path
           style="fill:#005b00;fill-rule:evenodd;stroke:black;stroke-opacity:1;stroke-width:1pt;stroke-linejoin:miter;stroke-linecap:butt;fill-opacity:1;"
           d="M 428.169 -16.9284 C 428.169 -16.9284 509.725 73.6895 539.176 137.122 C 568.627 200.554 593.547 293.437 593.547 293.437 C 593.547 293.437 595.812 207.351 557.3 130.326 C 505.195 32.9114 425.903 -12.3975 428.169 -16.9284 z "
           id="path925"
           sodipodi:nodetypes="ccccc"
           transform="matrix(0.707198,0.297745,-0.251863,0.948752,249.3111,-237.1770)" />
        <path
           style="fill:#005b00;fill-rule:evenodd;stroke:black;stroke-opacity:1;stroke-width:1pt;stroke-linejoin:miter;stroke-linecap:butt;fill-opacity:1;"
           d="M 428.169 -16.9284 C 428.169 -16.9284 509.725 73.6895 539.176 137.122 C 568.627 200.554 593.547 293.437 593.547 293.437 C 593.547 293.437 595.812 207.351 557.3 130.326 C 505.195 32.9114 425.903 -12.3975 428.169 -16.9284 z "
           id="path926"
           sodipodi:nodetypes="ccccc"
           transform="matrix(0.420616,0.527042,-0.351254,0.716206,446.4877,-285.6559)" />
        <path
           style="fill:#005b00;fill-rule:evenodd;stroke:black;stroke-opacity:1;stroke-width:1pt;stroke-linejoin:miter;stroke-linecap:butt;fill-opacity:1;"
           d="M 428.169 -16.9284 C 428.169 -16.9284 509.725 73.6895 539.176 137.122 C 568.627 200.554 593.547 293.437 593.547 293.437 C 593.547 293.437 595.812 207.351 557.3 130.326 C 505.195 32.9114 425.903 -12.3975 428.169 -16.9284 z "
           id="path927"
           sodipodi:nodetypes="ccccc"
           transform="matrix(0.668988,0.218882,-0.173257,0.885540,249.2059,-174.2276)" />
        <path
           style="fill:#005b00;fill-rule:evenodd;stroke:black;stroke-opacity:1;stroke-width:1pt;stroke-linejoin:miter;stroke-linecap:butt;fill-opacity:1;"
           d="M 428.169 -16.9284 C 428.169 -16.9284 509.725 73.6895 539.176 137.122 C 568.627 200.554 593.547 293.437 593.547 293.437 C 593.547 293.437 595.812 207.351 557.3 130.326 C 505.195 32.9114 425.903 -12.3975 428.169 -16.9284 z "
           id="path934"
           sodipodi:nodetypes="ccccc"
           transform="matrix(0.633678,3.827388e-2,-6.552245e-2,0.878652,239.9686,-48.72089)" />
        <path
           style="fill:#005b00;fill-rule:evenodd;stroke:black;stroke-opacity:1;stroke-width:1pt;stroke-linejoin:miter;stroke-linecap:butt;fill-opacity:1;"
           d="M 428.169 -16.9284 C 428.169 -16.9284 509.725 73.6895 539.176 137.122 C 568.627 200.554 593.547 293.437 593.547 293.437 C 593.547 293.437 595.812 207.351 557.3 130.326 C 505.195 32.9114 425.903 -12.3975 428.169 -16.9284 z "
           id="path935"
           sodipodi:nodetypes="ccccc"
           transform="matrix(0.608623,0.119774,-0.121239,0.884238,268.0236,-109.9339)" />
        <path
           style="fill:#005b00;fill-rule:evenodd;stroke:black;stroke-opacity:1;stroke-width:1pt;stroke-linejoin:miter;stroke-linecap:butt;fill-opacity:1;"
           d="M 428.169 -16.9284 C 428.169 -16.9284 509.725 73.6895 539.176 137.122 C 568.627 200.554 593.547 293.437 593.547 293.437 C 593.547 293.437 595.812 207.351 557.3 130.326 C 505.195 32.9114 425.903 -12.3975 428.169 -16.9284 z "
           id="path936"
           sodipodi:nodetypes="ccccc"
           transform="matrix(0.554178,0.533939,-0.407346,0.750256,373.7918,-312.5133)" />
        <path
           style="fill:#005b00;fill-rule:evenodd;stroke:black;stroke-opacity:1;stroke-width:1pt;stroke-linejoin:miter;stroke-linecap:butt;fill-opacity:1;"
           d="M 428.169 -16.9284 C 428.169 -16.9284 509.725 73.6895 539.176 137.122 C 568.627 200.554 593.547 293.437 593.547 293.437 C 593.547 293.437 595.812 207.351 557.3 130.326 C 505.195 32.9114 425.903 -12.3975 428.169 -16.9284 z "
           id="path937"
           sodipodi:nodetypes="ccccc"
           transform="matrix(0.685673,0.344432,-0.314828,0.929758,274.3247,-269.4191)" />
        <path
           style="fill:#005b00;fill-rule:evenodd;stroke:black;stroke-opacity:1;stroke-width:1pt;stroke-linejoin:miter;stroke-linecap:butt;fill-opacity:1;"
           d="M 428.169 -16.9284 C 428.169 -16.9284 509.725 73.6895 539.176 137.122 C 568.627 200.554 593.547 293.437 593.547 293.437 C 593.547 293.437 595.812 207.351 557.3 130.326 C 505.195 32.9114 425.903 -12.3975 428.169 -16.9284 z "
           id="path938"
           sodipodi:nodetypes="ccccc"
           transform="matrix(0.387739,0.520480,-0.393860,0.643471,470.9721,-270.7065)" />
        <path
           style="fill:#005b00;fill-rule:evenodd;stroke:black;stroke-opacity:1;stroke-width:1pt;stroke-linejoin:miter;stroke-linecap:butt;fill-opacity:1;"
           d="M 428.169 -16.9284 C 428.169 -16.9284 509.725 73.6895 539.176 137.122 C 568.627 200.554 593.547 293.437 593.547 293.437 C 593.547 293.437 595.812 207.351 557.3 130.326 C 505.195 32.9114 425.903 -12.3975 428.169 -16.9284 z "
           id="path939"
           sodipodi:nodetypes="ccccc"
           transform="matrix(0.700755,0.261265,-0.255537,0.879051,246.3647,-207.5011)" />
      </g>
      <path
         style="font-size:12;fill:#ffdf00;fill-rule:evenodd;stroke:#000000;stroke-width:1pt;"
         d="M 301.181 272.835 C 301.181 272.835 265.748 609.449 372.047 609.449 C 460.63 609.449 460.63 556.299 478.346 556.299 L 460.63 432.283 L 301.181 272.835 z "
         id="path866"
         sodipodi:nodetypes="ccccc"
         transform="matrix(-1.000000,0.000000,0.000000,1.000000,1062.992,4.577637e-5)" />
      <path
         style="font-size:12;fill:#0000c4;fill-rule:evenodd;stroke:#000000;stroke-width:1pt;"
         d="M 336.614 308.268 C 336.613 325.985 301.181 520.866 389.764 574.016 C 425.197 591.732 478.346 556.299 478.346 574.016 L 460.63 432.283 L 336.614 308.268 z "
         id="path867"
         sodipodi:nodetypes="ccccc"
         transform="matrix(-1.000000,0.000000,0.000000,1.000000,1062.992,1.525879e-5)" />
      <path
         style="font-size:12;fill:#e10000;fill-rule:evenodd;stroke:#000000;stroke-width:1pt;"
         d="M 372.047 343.701 C 372.046 361.418 354.331 503.15 407.48 538.583 C 442.913 574.016 531.496 564.405 531.496 564.405 L 460.63 432.283 L 372.047 343.701 z "
         id="path868"
         sodipodi:nodetypes="ccccc"
         transform="matrix(-1.000000,0.000000,0.000000,1.000000,1062.992,4.577637e-5)" />
      <path
         transform="matrix(-0.744753,-0.667340,-0.729910,0.683543,1062.992,4.577637e-5)"
         style="font-size:12;fill-rule:evenodd;stroke-width:1pt;"
         d="M 4.79872 403.833 L -2.53861 633.668 L 1.28245 633.668 L 8.6198 403.833 L 4.79872 403.833 z "
         id="path869"
         sodipodi:nodetypes="ccccc" />
      <path
         style="font-size:12;fill:#cececc;fill-rule:evenodd;stroke:#000000;stroke-width:1pt;"
         d="M 460.63 184.252 L 478.346 219.685 L 478.346 237.402 C 477.481 236.097 478.346 255.118 460.63 255.118 C 442.913 255.118 442.913 219.685 442.913 219.685 C 442.913 219.685 425.197 255.118 425.197 290.551 C 425.197 325.984 442.913 343.701 442.913 343.701 C 442.913 343.701 440.302 306.998 460.63 308.268 C 480.958 309.539 478.346 325.984 478.346 325.984 L 478.346 361.417 L 496.063 361.417 L 496.063 219.685 L 513.78 184.252 L 486.644 131.102 L 460.63 184.252 z "
         id="path870"
         sodipodi:nodetypes="ccccccccccccccc"
         transform="matrix(-0.231993,-0.229358,-0.178421,0.176867,931.6083,328.0846)" />
      <path
         style="font-size:12;fill:#cececc;fill-rule:evenodd;stroke:#000000;stroke-width:1pt;"
         d="M 557.819 95.6693 L 531.496 166.535 L 549.213 219.685 L 513.78 201.969 L 549.213 255.118 L 549.213 290.551 L 566.929 290.551 L 566.929 255.118 L 602.362 201.969 L 566.929 219.685 L 584.646 166.535 L 557.819 95.6693 z "
         id="path871"
         sodipodi:nodetypes="cccccccccccc"
         transform="matrix(-0.178617,-0.259385,-0.238843,0.150075,884.2968,314.5844)" />
      <path
         style="font-size:12;fill:#e10000;fill-rule:evenodd;stroke:#000000;stroke-width:1pt;"
         d="M 422.527 136.956 C 422.527 139.024 420.569 140.702 418.156 140.702 C 415.744 140.702 413.785 139.024 413.785 136.956 C 413.785 134.888 415.744 133.209 418.156 133.209 C 420.569 133.209 422.527 134.888 422.527 136.956 z M 416.283 144.865 C 416.283 180.666 437.2 332.673 438.865 336.42 C 439.004 340.86 434.147 342.803 431.788 337.253 C 425.237 319.911 411.044 177.339 410.455 144.033 C 410.211 130.299 414.216 129.232 418.781 129.463 C 422.54 129.672 427.106 133.188 427.106 137.372 C 427.106 142.368 421.278 146.114 416.283 144.865 z "
         id="path872"
         transform="matrix(-0.686413,0.000000,0.000000,0.503029,1004.565,129.6832)"
         sodipodi:nodetypes="cccccccccccc" />
      <path
         style="font-size:12;fill:#0000c4;fill-rule:evenodd;stroke:#000000;stroke-width:1pt;"
         d="M 422.527 136.956 C 422.527 139.024 420.569 140.702 418.156 140.702 C 415.744 140.702 413.785 139.024 413.785 136.956 C 413.785 134.888 415.744 133.209 418.156 133.209 C 420.569 133.209 422.527 134.888 422.527 136.956 z M 416.283 144.865 C 447.771 206.28 465.005 311.635 466.67 315.382 C 466.809 319.822 461.952 321.765 459.593 316.215 C 457.114 312.9 446.926 216.032 410.455 144.033 C 410.211 130.299 414.216 129.232 418.781 129.463 C 422.54 129.672 427.106 133.188 427.106 137.372 C 427.106 142.368 421.278 146.114 416.283 144.865 z "
         id="path873"
         transform="matrix(-0.647528,0.147280,0.258095,0.474533,949.2498,78.37526)"
         sodipodi:nodetypes="cccccccccccc" />
      <path
         style="font-size:12;fill:#e10000;fill-rule:evenodd;stroke:#000000;stroke-width:1pt;"
         d="M 422.527 136.956 C 422.527 139.024 420.569 140.702 418.156 140.702 C 415.744 140.702 413.785 139.024 413.785 136.956 C 413.785 134.888 415.744 133.209 418.156 133.209 C 420.569 133.209 422.527 134.888 422.527 136.956 z M 416.283 144.865 C 416.283 180.666 437.2 332.673 438.865 336.42 C 439.004 340.86 434.147 342.803 431.788 337.253 C 425.237 319.911 411.044 177.339 410.455 144.033 C 410.211 130.299 414.216 129.232 418.781 129.463 C 422.54 129.672 427.106 133.188 427.106 137.372 C 427.106 142.368 421.278 146.114 416.283 144.865 z "
         id="path874"
         transform="matrix(-0.877124,0.000000,0.000000,0.818372,1121.625,151.1774)"
         sodipodi:nodetypes="cccccccccccc" />
      <path
         style="font-size:12;fill:#0000c4;fill-rule:evenodd;stroke:#000000;stroke-width:1pt;"
         d="M 422.527 136.956 C 422.527 139.024 420.569 140.702 418.156 140.702 C 415.744 140.702 413.785 139.024 413.785 136.956 C 413.785 134.888 415.744 133.209 418.156 133.209 C 420.569 133.209 422.527 134.888 422.527 136.956 z M 416.283 144.865 C 447.771 206.28 465.005 311.635 466.67 315.382 C 466.809 319.822 461.952 321.765 459.593 316.215 C 457.114 312.9 446.926 216.032 410.455 144.033 C 410.211 130.299 414.216 129.232 418.781 129.463 C 422.54 129.672 427.106 133.188 427.106 137.372 C 427.106 142.368 421.278 146.114 416.283 144.865 z "
         id="path875"
         transform="matrix(-0.827435,0.239608,0.329804,0.772011,1050.942,67.70509)"
         sodipodi:nodetypes="cccccccccccc" />
    </g>
    <g
       id="g618"
       transform="matrix(0.470072,0.000000,0.000000,0.413683,122.2059,80.33354)"
       style="font-size:12;">
      <path
         style="fill:#e10000;fill-rule:evenodd;stroke:black;stroke-opacity:1;stroke-width:1pt;stroke-linejoin:miter;stroke-linecap:butt;fill-opacity:1;"
         d="M 478.346 698.031 C 496.063 708.683 515.435 706.299 531.496 698.031 L 531.496 556.299 L 496.063 556.299 C 513.78 609.449 513.78 662.598 478.346 698.031 z "
         id="path561"
         sodipodi:nodetypes="ccccc" />
      <path
         style="fill:#0000c4;fill-rule:evenodd;stroke:black;stroke-opacity:1;stroke-width:1pt;stroke-linejoin:miter;stroke-linecap:butt;fill-opacity:1;"
         d="M 513.78 609.449 C 513.78 698.031 471.314 717.717 471.314 735.433 C 489.03 735.433 500.779 727.185 513.78 715.748 C 531.496 698.031 533.206 608.07 531.496 609.449 L 513.78 609.449 z "
         id="path559"
         sodipodi:nodetypes="ccccc"
         transform="matrix(0.601274,0.000000,0.000000,1.124987,194.9577,-129.3211)" />
      <path
         style="fill:#0000c4;fill-rule:evenodd;stroke:black;stroke-opacity:1;stroke-width:1pt;stroke-linejoin:miter;stroke-linecap:butt;fill-opacity:1;"
         d="M 478.346 609.449 C 477.536 661.219 433.552 709.088 441.849 719.685 C 451.323 729.16 478.346 698.031 513.78 715.748 C 531.496 698.031 533.206 608.07 531.496 609.449 L 478.346 609.449 z "
         id="path560"
         sodipodi:nodetypes="ccccc"
         transform="matrix(0.601274,0.000000,0.000000,1.124987,194.9577,-129.3211)" />
      <path
         style="fill:#ffdf00;fill-rule:evenodd;stroke:black;stroke-opacity:1;stroke-width:1pt;stroke-linejoin:miter;stroke-linecap:butt;fill-opacity:1;"
         d="M 513.78 609.449 C 513.78 698.031 473.084 703.918 473.084 727.539 C 490.801 727.539 513.687 714.627 513.78 715.748 C 531.496 698.031 533.206 608.07 531.496 609.449 L 513.78 609.449 z "
         id="path558"
         sodipodi:nodetypes="ccccc"
         transform="matrix(0.601274,0.000000,0.000000,0.750028,176.1767,99.20712)" />
      <path
         style="fill:#ffdf00;fill-rule:evenodd;stroke:black;stroke-opacity:1;stroke-width:1pt;stroke-linejoin:miter;stroke-linecap:butt;fill-opacity:1;"
         d="M 478.346 609.449 C 477.536 661.219 434.616 705.151 442.913 715.748 C 452.387 725.223 478.346 698.031 513.78 715.748 C 531.496 698.031 533.206 608.07 531.496 609.449 L 478.346 609.449 z "
         id="path557"
         sodipodi:nodetypes="ccccc"
         transform="matrix(0.601274,0.000000,0.000000,0.750028,176.1767,99.20712)" />
      <path
         style="fill:#e10000;fill-rule:evenodd;stroke:black;stroke-opacity:1;stroke-width:1pt;stroke-linejoin:miter;stroke-linecap:butt;fill-opacity:1;"
         d="M 478.346 698.031 C 496.063 708.683 515.435 706.283 531.496 698.016 L 531.496 556.299 L 496.063 556.299 C 513.78 609.449 513.78 662.598 478.346 698.031 z "
         id="path562"
         sodipodi:nodetypes="ccccc"
         transform="matrix(-1.000000,0.000000,0.000000,1.000000,1062.992,1.568604e-2)" />
      <path
         style="fill:#0000c4;fill-rule:evenodd;stroke:black;stroke-opacity:1;stroke-width:1pt;stroke-linejoin:miter;stroke-linecap:butt;fill-opacity:1;"
         d="M 513.78 609.449 C 513.78 698.031 471.314 717.717 471.314 735.433 C 489.03 735.433 500.779 727.185 513.78 715.748 C 531.496 698.031 533.206 608.07 531.496 609.449 L 513.78 609.449 z "
         id="path563"
         sodipodi:nodetypes="ccccc"
         transform="matrix(-0.601274,0.000000,0.000000,1.124987,868.0344,-129.3054)" />
      <path
         style="fill:#0000c4;fill-rule:evenodd;stroke:black;stroke-opacity:1;stroke-width:1pt;stroke-linejoin:miter;stroke-linecap:butt;fill-opacity:1;"
         d="M 478.346 609.449 C 477.536 661.219 433.552 709.088 441.849 719.685 C 451.323 729.16 478.346 698.031 513.78 715.748 C 531.496 698.031 533.206 608.07 531.496 609.449 L 478.346 609.449 z "
         id="path564"
         sodipodi:nodetypes="ccccc"
         transform="matrix(-0.601274,0.000000,0.000000,1.124987,868.0344,-129.3054)" />
      <path
         style="fill:#ffdf00;fill-rule:evenodd;stroke:black;stroke-opacity:1;stroke-width:1pt;stroke-linejoin:miter;stroke-linecap:butt;fill-opacity:1;"
         d="M 513.78 609.449 C 513.78 698.031 473.084 703.918 473.084 727.539 C 490.801 727.539 513.687 714.627 513.78 715.748 C 531.496 698.031 533.206 608.07 531.496 609.449 L 513.78 609.449 z "
         id="path565"
         sodipodi:nodetypes="ccccc"
         transform="matrix(-0.601274,0.000000,0.000000,0.750028,886.8153,99.22284)" />
      <path
         style="fill:#ffdf00;fill-rule:evenodd;stroke:black;stroke-opacity:1;stroke-width:1pt;stroke-linejoin:miter;stroke-linecap:butt;fill-opacity:1;"
         d="M 478.346 609.449 C 477.536 661.219 434.616 705.151 442.913 715.748 C 452.387 725.223 478.346 698.031 513.78 715.748 C 531.496 698.031 533.206 608.07 531.496 609.449 L 478.346 609.449 z "
         id="path566"
         sodipodi:nodetypes="ccccc"
         transform="matrix(-0.601274,0.000000,0.000000,0.750028,886.8155,99.20712)" />
    </g>
    <g
       id="g751"
       transform="matrix(0.470072,0.000000,0.000000,0.413683,122.2059,80.33354)"
       style="font-size:12;">
      <path
         style="font-size:12;fill:#908f8a;fill-rule:evenodd;stroke:#000000;stroke-width:4.46656;"
         d="M 198.564 77.9515 L 108.888 113.385 L 198.564 148.819 L 243.401 131.102 L 265.82 148.819 L 288.239 184.252 L 310.658 148.819 L 333.077 131.102 L 1534.96 131.1 L 1534.96 95.666 L 333.077 95.6683 L 310.658 77.9515 C 310.658 60.235 315.361 42.5181 333.077 42.5181 C 350.794 42.5181 387.319 42.516 422.752 42.516 C 422.752 24.7995 377.914 -10.6343 288.239 -10.6343 C 198.564 -10.6343 153.726 24.7995 153.726 42.516 C 189.159 42.516 225.684 42.5181 243.401 42.5181 C 261.117 42.5181 265.82 60.235 265.82 77.9515 L 243.401 95.6683 L 198.564 77.9515 z "
         id="path702"
         sodipodi:nodetypes="cccccccccccccccccccc"
         transform="matrix(0.206356,0.000000,0.000000,0.363628,356.4797,542.4496)" />
      <rect
         style="font-size:12;fill:#b74d00;fill-rule:evenodd;stroke:#000000;stroke-width:1.3784pt;"
         id="rect651"
         width="336.614105"
         height="17.716518"
         x="204.354340"
         y="95.671248"
         transform="matrix(0.476192,0.000000,0.000000,0.444439,353.4863,559.0548)" />
      <rect
         style="font-size:12;fill:#b74d00;fill-rule:evenodd;stroke:#000000;stroke-width:1.3784pt;"
         id="rect652"
         width="336.614105"
         height="17.716518"
         x="204.354279"
         y="77.954698"
         transform="matrix(0.476192,0.000000,0.000000,0.444439,353.4863,559.0548)" />
      <rect
         style="font-size:12;fill:#b74d00;fill-rule:evenodd;stroke:#000000;stroke-width:1.3784pt;"
         id="rect653"
         width="336.614105"
         height="17.716518"
         x="204.354279"
         y="60.237492"
         transform="matrix(0.476192,0.000000,0.000000,0.444439,353.4863,559.0548)" />
      <rect
         style="font-size:12;fill:#b74d00;fill-rule:evenodd;stroke:#000000;stroke-width:1.3784pt;"
         id="rect654"
         width="336.614105"
         height="17.716518"
         x="204.354279"
         y="42.521530"
         transform="matrix(0.476192,0.000000,0.000000,0.444439,353.4863,559.0548)" />
      <rect
         style="font-size:12;fill:#b74d00;fill-rule:evenodd;stroke:#000000;stroke-width:1.3784pt;"
         id="rect655"
         width="336.614105"
         height="17.716518"
         x="204.354279"
         y="24.805231"
         transform="matrix(0.476192,0.000000,0.000000,0.444439,353.4863,559.0548)" />
      <rect
         style="font-size:12;fill:#b74d00;fill-rule:evenodd;stroke:#000000;stroke-width:1.3784pt;"
         id="rect656"
         width="336.614105"
         height="17.716518"
         x="204.354279"
         y="7.088742"
         transform="matrix(0.476192,0.000000,0.000000,0.444439,353.4863,559.0548)" />
      <rect
         style="font-size:12;fill:#b74d00;fill-rule:evenodd;stroke:#000000;stroke-width:1.3784pt;"
         id="rect657"
         width="336.614105"
         height="17.716518"
         x="204.354279"
         y="-10.627865"
         transform="matrix(0.476192,0.000000,0.000000,0.444439,353.4863,559.0548)" />
      <path
         transform="matrix(0.428558,0.000000,0.000000,0.444439,277.8570,527.5601)"
         style="font-size:12;fill:#908f8a;fill-rule:evenodd;stroke:#000000;stroke-width:3.25457;"
         d="M 423.227 60.2362 L 561.027 184.252 L 580.713 184.252 L 442.913 60.2362 L 423.227 60.2362 z "
         id="path678"
         sodipodi:nodetypes="ccccc" />
      <path
         transform="matrix(0.428558,0.000000,0.000000,-0.444439,277.8570,636.2201)"
         style="font-size:12;fill:#908f8a;fill-rule:evenodd;stroke:#000000;stroke-width:3.25457;"
         d="M 423.227 60.2362 L 561.027 184.252 L 580.713 184.252 L 442.913 60.2362 L 423.227 60.2362 z "
         id="path680"
         sodipodi:nodetypes="ccccc" />
      <path
         style="font-size:12;fill:#908f8a;fill-rule:evenodd;stroke:#000000;stroke-width:3.08745;"
         d="M 425.197 60.2362 L 425.197 184.252 L 442.913 184.252 L 442.913 60.2362 L 425.197 60.2362 z "
         id="path672"
         sodipodi:nodetypes="ccccc"
         transform="matrix(0.476209,0.000000,0.000000,0.444439,256.7520,527.5601)" />
      <path
         transform="matrix(0.428558,0.000000,0.000000,0.444439,353.7852,527.5601)"
         style="font-size:12;fill:#908f8a;fill-rule:evenodd;stroke:#000000;stroke-width:3.25457;"
         d="M 423.227 60.2362 L 561.027 184.252 L 580.713 184.252 L 442.913 60.2362 L 423.227 60.2362 z "
         id="path679"
         sodipodi:nodetypes="ccccc" />
      <path
         transform="matrix(0.428558,0.000000,0.000000,-0.444439,353.7852,636.2201)"
         style="font-size:12;fill:#908f8a;fill-rule:evenodd;stroke:#000000;stroke-width:3.25457;"
         d="M 423.227 60.2362 L 561.027 184.252 L 580.713 184.252 L 442.913 60.2362 L 423.227 60.2362 z "
         id="path681"
         sodipodi:nodetypes="ccccc" />
      <path
         style="font-size:12;fill:#908f8a;fill-rule:evenodd;stroke:#000000;stroke-width:3.08746;"
         d="M 425.197 60.2362 L 425.197 184.252 L 442.913 184.252 L 442.913 60.2362 L 425.197 60.2362 z "
         id="path673"
         sodipodi:nodetypes="ccccc"
         transform="matrix(0.476205,0.000000,0.000000,0.444439,391.7372,527.5601)" />
      <path
         style="font-size:12;fill:#908f8a;fill-rule:evenodd;stroke:#000000;stroke-width:3.08747;"
         d="M 425.197 60.2362 L 425.197 184.252 L 442.913 184.252 L 442.913 60.2362 L 425.197 60.2362 z "
         id="path674"
         sodipodi:nodetypes="ccccc"
         transform="matrix(0.476202,0.000000,0.000000,0.444439,332.6829,527.5601)" />
      <path
         style="font-size:12;fill:#908f8a;fill-rule:evenodd;stroke:#000000;stroke-width:3.08745;"
         d="M 425.197 60.2362 L 425.197 184.252 L 442.913 184.252 L 442.913 60.2362 L 425.197 60.2362 z "
         id="path675"
         sodipodi:nodetypes="ccccc"
         transform="matrix(0.476207,0.000000,0.000000,0.444439,315.8081,527.5601)" />
    </g>
    <g
       id="g967"
       transform="matrix(0.470072,0.000000,0.000000,0.413683,122.2059,80.33354)"
       style="font-size:12;">
      <g
         id="g645">
        <path
           style="font-size:12;fill:#ffdf00;fill-rule:evenodd;stroke-width:1pt;fill-opacity:1;stroke:#000000;stroke-opacity:1;"
           d="M 655.512 396.85 C 655.512 484.866 599.953 556.299 531.496 556.299 C 463.04 556.299 407.481 484.866 407.481 396.85 C 407.481 308.835 463.04 237.402 531.496 237.402 C 599.953 237.402 655.512 308.835 655.512 396.85 z M 637.795 396.851 C 637.795 475.087 590.173 538.583 531.496 538.583 C 472.819 538.583 425.197 475.087 425.197 396.851 C 425.197 318.614 472.819 255.118 531.496 255.118 C 590.173 255.118 637.795 318.614 637.795 396.851 z "
           id="path635" />
        <path
           style="font-size:12;fill:#ffdf00;fill-rule:evenodd;stroke:#000000;stroke-width:1pt;"
           d="M 579.754 249.939 C 564.918 241.867 548.61 237.402 531.496 237.402 C 514.382 237.402 498.074 241.867 483.239 249.939 L 490.132 266.262 C 502.848 259.087 516.827 255.118 531.496 255.118 C 546.165 255.118 560.144 259.087 572.86 266.262 L 579.754 249.939 z "
           id="path643"
           sodipodi:nodetypes="ccccccc" />
        <path
           style="font-size:12;fill:#ffdf00;fill-rule:evenodd;stroke:#000000;stroke-width:1pt;"
           d="M 579.754 249.939 C 564.918 241.867 548.61 237.402 531.496 237.402 C 514.382 237.402 498.074 241.867 483.239 249.939 L 490.132 266.262 C 502.848 259.087 516.827 255.118 531.496 255.118 C 546.165 255.118 560.144 259.087 572.86 266.262 L 579.754 249.939 z "
           id="path644"
           sodipodi:nodetypes="ccccccc"
           transform="matrix(1.000000,0.000000,0.000000,-1.000000,0.204659,793.7012)" />
      </g>
      <path
         sodipodi:type="arc"
         style="fill-rule:evenodd;stroke:none;fill:#a7cfff;fill-opacity:1;stroke-opacity:1;stroke-width:1pt;stroke-linejoin:miter;stroke-linecap:butt;"
         id="path883"
         d="M 637.795288 396.850342 A 106.299225 141.732285 0 1 0 425.196869,396.850342 A 106.299 141.732 0 1 0 637.795 396.85 L 531.496094 396.850342 z"
         sodipodi:cx="531.496094"
         sodipodi:cy="396.850342"
         sodipodi:rx="106.299225"
         sodipodi:ry="141.732285" />
      <path
         style="font-size:12;fill:#afff7b;fill-rule:evenodd;stroke:#000000;stroke-width:1pt;"
         d="M 637.795 396.85 C 638.928 423.508 633.161 436.485 625.905 464.206 C 623.993 467.185 614.939 457.669 609.458 452.97 C 603.977 448.271 601.646 457.209 594.921 449.924 C 588.196 442.64 583.872 451.982 578.938 445.829 C 574.004 439.676 527.637 438.773 527.572 438.244 C 532.163 435.968 555.841 438.396 552.046 427.051 C 547.746 415.329 520.952 426.699 517.354 411.686 C 514.914 396.779 463.788 396.143 460.135 392.461 C 461.579 398.125 499.863 400.51 498.949 415.031 C 498.116 420.946 461.256 422.675 457.702 427.682 C 454.657 433.977 486.629 425.975 487.816 433.714 C 487.738 436.899 483.111 433.782 466.458 438.704 C 458.132 441.164 481.912 449.033 472.868 453.341 C 463.823 457.648 444.607 459.528 445.435 461.338 C 448.375 470.246 490.128 480.874 485.97 482.403 C 471.216 488.962 463.418 493.275 456.343 497.055 C 437.103 471.402 425.197 435.968 425.197 396.85 C 456.913 385.445 450.165 383.115 508.842 383.115 C 567.519 383.115 586.823 385.445 637.795 396.85 z "
         id="path889"
         sodipodi:nodetypes="cssssssscssssssscccc" />
      <path
         style="font-size:12;fill:#ffffff;fill-rule:evenodd;stroke-width:1pt;stroke:#000000;stroke-opacity:1;"
         d="M 637.795 396.85 C 629.725 396.85 621.341 400.249 612.725 400.249 C 604.108 400.249 595.26 396.851 586.259 396.851 C 577.258 396.851 566.972 401.382 557.747 401.382 C 548.523 401.382 540.359 396.851 531.071 396.851 C 521.784 396.851 512.505 400.249 503.316 400.249 C 494.127 400.249 485.027 396.851 476.097 396.851 C 467.167 396.851 458.406 400.249 449.896 400.249 C 441.386 400.249 433.126 396.85 425.197 396.85 C 425.197 377.291 428.173 358.653 433.555 341.699 C 460.63 343.701 444.597 325.984 460.63 325.984 C 469.285 325.984 478.064 327.843 485.868 335.772 C 488.315 335.772 500.347 324.399 513.78 325.984 C 527.212 327.57 522.272 353.256 540.151 354.621 C 549.213 361.417 554.543 365.754 566.929 368.492 C 584.646 370.098 635.28 365.992 635.634 368.298 C 637.051 377.521 637.795 387.07 637.795 396.85 z "
         id="path887"
         sodipodi:nodetypes="csssssssccscccccc" />
      <path
         style="fill:#000000;fill-rule:evenodd;stroke:black;stroke-opacity:1;stroke-width:1pt;stroke-linejoin:miter;stroke-linecap:butt;fill-opacity:1;"
         d="M 549.851 473.942 C 549.851 468.278 563.363 464.48 563.363 455.418 C 563.363 446.356 551.449 446.069 550.984 437.558 C 550.784 434.097 561.303 430.512 565.898 430.223 C 570.493 429.934 574.391 437.643 574.391 439.342 C 574.391 441.041 569.729 435.15 565.813 434.964 C 561.897 434.778 553.5 435.595 553.5 437.294 C 553.5 440.693 568.351 444.892 567.218 456.219 C 566.086 467.546 554.508 470.876 554.508 474.274 C 554.508 477.672 559.564 487.134 559.564 487.134 C 559.564 487.134 549.851 479.605 549.851 473.942 z "
         id="path891"
         sodipodi:nodetypes="cssssssssss"
         transform="matrix(0.351078,0.000000,0.000000,0.780385,355.4934,112.9889)" />
      <path
         style="fill:#000000;fill-rule:evenodd;stroke:black;stroke-opacity:1;stroke-width:1pt;stroke-linejoin:miter;stroke-linecap:butt;fill-opacity:1;"
         d="M 549.851 473.942 C 549.851 468.278 563.363 464.48 563.363 455.418 C 563.363 446.356 551.414 446.07 550.984 437.558 C 550.037 433.596 562.797 431.014 567.392 430.725 C 571.987 430.436 577.378 438.646 577.378 440.345 C 577.378 442.044 571.969 435.15 568.053 434.964 C 564.137 434.778 553.5 435.595 553.5 437.294 C 553.5 440.693 568.351 444.892 567.218 456.219 C 566.086 467.546 554.508 470.876 554.508 474.274 C 554.508 477.672 559.564 487.134 559.564 487.134 C 559.564 487.134 549.851 479.605 549.851 473.942 z "
         id="path892"
         sodipodi:nodetypes="cssssssssss"
         transform="matrix(-0.351078,0.000000,0.000000,0.780385,746.9489,112.3639)" />
      <path
         sodipodi:type="arc"
         style="fill-rule:evenodd;stroke:none;fill:#000000;fill-opacity:1;stroke-opacity:1;stroke-width:1pt;stroke-linejoin:miter;stroke-linecap:butt;"
         id="path893"
         d="M 555.863037 443.235596 A 3.804535 4.004791 0 1 0 548.253906,443.235596 A 3.80453 4.00479 0 1 0 555.863 443.236 L 552.058472 443.235596 z"
         sodipodi:cx="552.058472"
         sodipodi:cy="443.235596"
         sodipodi:rx="3.804535"
         sodipodi:ry="4.004791"
         transform="matrix(0.654646,0.000000,0.000000,0.977032,189.7921,12.89182)" />
      <rect
         style="font-size:12;fill:#000000;fill-rule:evenodd;stroke-width:1pt;fill-opacity:1;"
         id="rect894"
         width="0.800964"
         height="31.637726"
         x="586.699829"
         y="458.053268" />
      <rect
         style="font-size:12;fill:#000000;fill-rule:evenodd;stroke-width:1pt;fill-opacity:1;"
         id="rect895"
         width="0.800964"
         height="31.637726"
         x="593.908424"
         y="455.650391" />
      <rect
         style="font-size:12;fill:#000000;fill-rule:evenodd;stroke-width:1pt;fill-opacity:1;"
         id="rect896"
         width="0.800494"
         height="6.900394"
         x="-376.416685"
         y="597.915459"
         transform="matrix(7.556181e-3,-0.999971,0.986997,0.160741,0.000000,0.000000)" />
      <path
         style="fill:#b74d00;fill-rule:evenodd;stroke:black;stroke-opacity:1;stroke-width:1pt;stroke-linejoin:miter;stroke-linecap:butt;fill-opacity:1;"
         d="M 497.265 478.072 C 497.265 478.072 523.317 489.4 528.981 496.196 C 534.645 502.993 532.379 502.992 532.379 502.992 L 590.148 505.258 C 590.148 501.86 600.342 501.859 602.608 493.93 C 604.873 486.001 604.873 483.736 604.873 483.736 L 586.75 489.4 L 587.882 479.206 L 572.024 479.205 L 569.759 489.4 L 535.777 488.267 L 538.043 461.081 L 531.247 462.214 L 530.114 488.267 C 528.981 488.267 498.397 480.338 497.265 478.072 z "
         id="path890"
         sodipodi:nodetypes="ccccccccccccccc"
         transform="translate(-4.530907,1.132629)" />
      <path
         style="fill:#fede00;fill-rule:evenodd;stroke:#fede00;stroke-opacity:1;stroke-width:1pt;stroke-linejoin:miter;stroke-linecap:butt;fill-opacity:1;"
         d="M 440.526 316.284 C 440.526 316.284 478.171 305.07 532.636 305.871 C 587.101 306.672 624.746 318.686 623.945 318.686 C 623.144 318.686 613.532 300.264 613.532 300.264 C 613.532 300.264 575.086 289.852 531.835 289.051 C 488.583 288.25 450.938 297.061 451.739 297.862 L 440.526 316.284 z "
         id="path897"
         sodipodi:nodetypes="ccccccc" />
      <rect
         style="font-size:12;fill:#38a9f9;fill-rule:evenodd;stroke-width:1pt;fill-opacity:1;"
         id="rect898"
         width="23.227709"
         height="12.815309"
         x="502.195116"
         y="301.172665"
         transform="matrix(0.999832,-1.831222e-2,1.831222e-2,0.999832,0.000000,0.000000)" />
      <path
         transform="matrix(0.984847,-0.173427,0.173427,0.984847,0.000000,0.000000)"
         style="font-size:12;fill:#38a9f9;fill-rule:evenodd;stroke-width:1pt;"
         d="M 395.323 373.111 L 385.068 384.121 L 412.89 385.743 L 412.89 372.928 L 395.323 373.111 z "
         id="path905"
         sodipodi:nodetypes="ccccc" />
      <rect
         style="font-size:12;fill:#38a9f9;fill-rule:evenodd;stroke-width:1pt;fill-opacity:1;"
         id="rect900"
         width="23.227722"
         height="12.815316"
         x="451.602498"
         y="332.640854"
         transform="matrix(0.996555,-8.293565e-2,8.293565e-2,0.996555,0.000000,0.000000)" />
      <rect
         style="font-size:12;fill:#38a9f9;fill-rule:evenodd;stroke-width:1pt;fill-opacity:1;"
         id="rect901"
         width="23.227713"
         height="12.815309"
         x="-578.714507"
         y="256.516891"
         transform="matrix(-0.997984,-6.346966e-2,-6.346966e-2,0.997984,0.000000,0.000000)" />
      <path
         transform="matrix(-0.976005,-0.217749,-0.217749,0.976005,0.000000,0.000000)"
         style="font-size:12;fill:#38a9f9;fill-rule:evenodd;stroke-width:1pt;"
         d="M -662.062 160.454 L -673.704 173.954 L -647.956 173.696 L -647.956 160.881 L -662.062 160.454 z "
         id="path904"
         sodipodi:nodetypes="ccccc" />
      <rect
         style="font-size:12;fill:#38a9f9;fill-rule:evenodd;stroke-width:1pt;fill-opacity:1;"
         id="rect903"
         width="23.227739"
         height="12.815325"
         x="-624.157042"
         y="218.173405"
         transform="matrix(-0.991790,-0.127879,-0.127879,0.991790,0.000000,0.000000)" />
      <polygon
         sodipodi:type="star"
         style="font-size:12;fill:#ffdf00;fill-rule:evenodd;stroke-width:1pt;stroke:#000000;stroke-opacity:1;fill-opacity:1;"
         id="polygon906"
         sodipodi:sides="16"
         sodipodi:cx="532.635803"
         sodipodi:cy="297.060608"
         sodipodi:r1="26.4315796"
         sodipodi:r2="13.2157898"
         sodipodi:arg1="1.57079637"
         sodipodi:arg2="1.76714587"
         points="532.636,323.492 530.058,310.022 522.521,321.48 525.294,308.049 513.946,315.751 521.647,304.403 508.216,307.176 519.674,299.639 506.204,297.061 519.674,294.482 508.216,286.946 521.647,289.718 513.946,278.371 525.294,286.072 522.521,272.641 530.058,284.099 532.636,270.629 535.214,284.099 542.751,272.641 539.978,286.072 551.326,278.371 543.624,289.718 557.055,286.946 545.598,294.482 559.067,297.061 545.598,299.639 557.055,307.176 543.624,304.403 551.326,315.751 539.978,308.049 542.751,321.48 535.214,310.022 532.636,323.492 " />
      <path
         sodipodi:type="arc"
         style="fill-rule:evenodd;stroke:#000000;fill:#ffdf00;fill-opacity:1;stroke-opacity:1;stroke-width:1pt;stroke-linejoin:miter;stroke-linecap:butt;"
         id="path907"
         d="M 547.052979 293.856781 A 14.817657 16.820068 0 1 0 517.417725,293.856781 A 14.8177 16.8201 0 1 0 547.053 293.857 L 532.235352 293.856781 z"
         sodipodi:cx="532.235352"
         sodipodi:cy="293.856781"
         sodipodi:rx="14.817657"
         sodipodi:ry="16.820068"
         transform="matrix(0.972972,0.000000,0.000000,0.833333,14.78554,51.77945)" />
      <path
         sodipodi:type="arc"
         style="fill-rule:evenodd;stroke:none;fill:#000000;fill-opacity:1;stroke-opacity:1;stroke-width:1pt;stroke-linejoin:miter;stroke-linecap:butt;"
         id="path908"
         d="M 533.436768 291.854370 A 4.805725 2.002411 0 1 0 523.825317,291.854370 A 4.80573 2.00241 0 1 0 533.437 291.854 L 528.631042 291.854370 z"
         sodipodi:cx="528.631042"
         sodipodi:cy="291.854370"
         sodipodi:rx="4.805725"
         sodipodi:ry="2.002411"
         transform="matrix(1.000000,0.000000,0.000000,0.800008,-0.800972,59.57013)" />
      <path
         sodipodi:type="arc"
         style="fill-rule:evenodd;stroke:none;fill:#000000;fill-opacity:1;stroke-opacity:1;stroke-width:1pt;stroke-linejoin:miter;stroke-linecap:butt;"
         id="path909"
         d="M 543.849182 291.453857 A 3.604309 1.601913 0 1 0 536.640564,291.453857 A 3.60431 1.60191 0 1 0 543.849 291.454 L 540.244873 291.453857 z"
         sodipodi:cx="540.244873"
         sodipodi:cy="291.453857"
         sodipodi:rx="3.604309"
         sodipodi:ry="1.601913"
         transform="translate(-0.800934,1.601913)" />
      <path
         style="fill:none;fill-rule:evenodd;stroke:black;stroke-opacity:1;stroke-width:1pt;stroke-linejoin:miter;stroke-linecap:butt;fill-opacity:1;"
         d="M 529.432 297.862 C 529.699 298.129 529.966 298.396 530.233 298.663 C 528.331 296.761 529.237 297.537 531.835 301.866 C 534.228 301.371 534.926 300.476 536.641 299.463 "
         id="path911"
         transform="matrix(0.958810,-0.284050,0.284050,0.958810,-62.24138,163.4591)" />
      <path
         style="fill:none;fill-rule:evenodd;stroke:black;stroke-opacity:1;stroke-width:1pt;stroke-linejoin:miter;stroke-linecap:butt;fill-opacity:1;"
         d="M 527.83 304.269 C 528.097 304.536 528.364 304.803 528.631 305.07 C 526.729 303.168 527.507 304.075 531.835 306.672 C 535.862 307.216 539.927 305.476 542.247 302.667 "
         id="path912"
         transform="translate(-1.601906,-3.051758e-5)"
         sodipodi:nodetypes="cccc" />
      <path
         style="fill:#b7e1ff;fill-rule:evenodd;stroke:none;stroke-opacity:1;stroke-width:1pt;stroke-linejoin:miter;stroke-linecap:butt;fill-opacity:1;"
         d="M 468.559 330.701 C 468.559 330.701 470.161 343.516 459.749 359.535 C 449.336 375.554 450.938 369.948 450.938 369.948 C 450.938 369.948 455.744 378.758 454.943 378.758 C 454.142 378.758 446.934 370.749 446.934 370.749 L 438.123 379.559 C 438.123 379.559 446.133 365.943 445.332 365.943 C 444.531 365.943 442.929 361.137 442.929 361.137 L 449.336 358.734 C 449.336 358.734 458.948 341.914 458.948 342.715 C 458.948 343.516 430.113 361.137 430.113 361.137 L 468.559 330.701 z "
         id="path914" />
      <path
         style="fill:#b7e1ff;fill-rule:evenodd;stroke:none;stroke-opacity:1;stroke-width:1pt;stroke-linejoin:miter;stroke-linecap:butt;fill-opacity:1;"
         d="M 474.967 335.506 C 474.166 335.506 478.972 348.322 482.977 354.729 C 486.981 361.137 486.981 369.147 486.981 369.147 L 500.598 375.554 L 482.977 350.725 L 494.19 354.729 L 474.967 335.506 z "
         id="path915" />
      <path
         style="fill:#b7e1ff;fill-rule:evenodd;stroke:none;stroke-opacity:1;stroke-width:1pt;stroke-linejoin:miter;stroke-linecap:butt;fill-opacity:1;"
         d="M 474.967 369.147 C 474.967 369.147 484.578 378.758 485.379 381.962 C 486.18 385.166 486.18 392.374 486.18 392.374 L 482.176 384.365 L 476.569 391.573 C 476.569 391.573 480.574 380.36 479.773 379.559 C 478.972 378.758 473.365 383.564 473.365 383.564 C 473.365 383.564 475.768 377.156 475.768 376.355 C 475.768 375.554 475.768 371.549 474.967 369.147 z "
         id="path916" />
      <path
         style="fill:#b7e1ff;fill-rule:evenodd;stroke:none;stroke-opacity:1;stroke-width:1pt;stroke-linejoin:miter;stroke-linecap:butt;fill-opacity:1;"
         d="M 426.91 391.573 C 430.113 389.171 436.521 387.569 436.521 387.569 C 436.521 387.569 432.516 393.976 431.715 393.976 C 430.914 393.976 428.512 393.976 426.91 391.573 z "
         id="path917" />
      <path
         style="fill:#b7e1ff;fill-rule:evenodd;stroke:none;stroke-opacity:1;stroke-width:1pt;stroke-linejoin:miter;stroke-linecap:butt;fill-opacity:1;"
         d="M 537.442 356.331 C 537.442 356.331 558.266 368.346 558.266 369.147 C 558.266 369.948 544.65 363.54 544.65 363.54 L 537.442 356.331 z "
         id="path918" />
      <path
         style="fill:#b7e1ff;fill-rule:evenodd;stroke:none;stroke-opacity:1;stroke-width:1pt;stroke-linejoin:miter;stroke-linecap:butt;fill-opacity:1;"
         d="M 499.797 331.502 C 501.399 332.303 530.233 354.729 529.432 354.729 C 528.631 354.729 516.617 348.322 516.617 349.123 C 516.617 349.924 516.617 354.729 516.617 354.729 L 510.209 341.914 L 508.607 346.72 L 499.797 331.502 z "
         id="path919" />
      <path
         style="fill:#b7e1ff;fill-rule:evenodd;stroke:none;stroke-opacity:1;stroke-width:1pt;stroke-linejoin:miter;stroke-linecap:butt;fill-opacity:1;"
         d="M 507.005 367.545 L 515.015 382.763 L 523.024 381.161 C 523.024 381.161 507.806 367.545 507.005 367.545 z "
         id="path920" />
      <path
         style="fill:#b7e1ff;fill-rule:evenodd;stroke:none;stroke-opacity:1;stroke-width:1pt;stroke-linejoin:miter;stroke-linecap:butt;fill-opacity:1;"
         d="M 531.835 357.933 C 531.835 360.336 532.636 372.35 532.636 372.35 C 532.636 372.35 537.442 376.355 537.442 375.554 C 537.442 374.753 532.636 358.734 531.835 357.933 z "
         id="path921" />
    </g>
    <g
       id="g1032"
       transform="matrix(0.421724,0.000000,0.000000,0.407233,143.4796,81.97356)"
       style="font-size:12;">
      <path
         style="fill:#984000;fill-rule:evenodd;stroke:none;stroke-opacity:1;stroke-width:1.37843;stroke-linejoin:miter;stroke-linecap:butt;fill-opacity:1;stroke-dasharray:none;"
         d="M -66.6052 93.2473 C -66.6052 93.2473 2.49758 54.1167 81.1749 24.9769 C 159.852 -4.16287 248.104 -23.3119 259.76 -23.3119 C 283.072 -23.3119 323.035 36.6328 329.696 36.6328 C 336.356 36.6328 362.998 19.9815 396.301 19.9815 C 429.604 19.9815 449.585 46.6236 456.246 46.6236 C 462.906 46.6236 509.53 46.6236 516.19 46.6236 C 522.851 46.6236 496.209 -19.9816 516.19 -16.6513 C 526.181 -14.9862 611.103 -1.66508 690.197 24.5607 C 769.29 50.7865 881.563 97.0834 881.563 97.0834 C 881.563 97.0834 698.068 122.165 649.401 114.746 C 642.74 118.076 649.071 158.798 639.739 140.883 C 624.407 137.3 568.123 128.32 558.132 128.32 C 548.141 128.32 529.511 139.871 502.869 146.531 C 476.227 153.192 442.925 163.183 442.925 163.183 L 486.218 233.118 L 432.934 259.76 C 432.934 259.76 399.631 179.834 386.31 179.834 C 372.989 179.834 366.329 236.448 349.677 233.118 C 333.026 229.788 326.366 179.834 313.044 166.513 C 299.723 153.192 229.491 148.344 202.849 141.684 C 176.207 135.023 133.21 129.88 109.899 123.22 C 86.5868 116.559 63.2749 139.871 53.2842 139.871 C 43.2934 139.871 66.6052 119.889 56.6144 116.559 C 46.6236 113.229 39.9631 126.55 33.3026 126.55 C 26.6421 126.55 -43.2934 113.229 -49.9539 109.899 C -56.6144 106.568 -33.3026 93.2473 -39.9631 93.2473 C -46.6236 93.2473 -56.6144 93.2473 -66.6052 93.2473 z "
         id="path1021"
         transform="matrix(0.579530,0.000000,0.000000,0.488656,318.3424,114.6301)"
         sodipodi:nodetypes="csccccccsccccccccccccccccccc" />
      <path
         sodipodi:type="arc"
         style="fill-rule:evenodd;stroke:#772600;fill:gray;fill-opacity:1;stroke-opacity:1;stroke-width:3.70569;stroke-linejoin:miter;stroke-linecap:butt;stroke-dasharray:none;"
         id="path1022"
         d="M 462.906250 -64.940254 A 45.791061 38.297997 0 1 0 371.324097,-64.940254 A 45.7911 38.298 0 1 0 462.906 -64.9403 L 417.115173 -64.940254 z"
         sodipodi:cx="417.115173"
         sodipodi:cy="-64.940254"
         sodipodi:rx="45.791061"
         sodipodi:ry="38.297997"
         transform="matrix(0.417721,0.000000,0.000000,0.434332,373.2954,171.7159)" />
      <path
         style="fill:#984000;fill-rule:evenodd;stroke:#772600;stroke-opacity:1;stroke-width:5.25;stroke-linejoin:miter;stroke-linecap:butt;fill-opacity:1;stroke-dasharray:none;"
         d="M 284.737 -59.9449 C 291.398 -66.6055 299.724 -76.5962 321.37 -76.5962 C 326.366 -78.2613 326.366 -88.2521 338.021 -88.2521 C 349.677 -88.2521 346.347 -78.2613 354.673 -74.9311 C 362.998 -71.6008 431.269 -78.2613 431.269 -78.2613 C 431.269 -78.2613 437.929 -73.2659 437.929 -66.6054 C 437.929 -59.9449 432.934 -54.9495 431.269 -54.9495 C 429.604 -54.9495 362.998 -59.9449 358.003 -58.2798 C 353.008 -56.6146 349.677 -54.9495 338.021 -54.9495 C 326.366 -54.9495 323.035 -66.6054 314.71 -66.6054 C 306.384 -66.6054 298.058 -68.2705 284.737 -59.9449 z "
         id="path1023"
         sodipodi:nodetypes="ccccccccccc"
         transform="matrix(0.522151,0.000000,0.000000,0.525769,323.2151,178.5293)" />
      <path
         style="fill:none;fill-rule:evenodd;stroke:#772600;stroke-opacity:1;stroke-width:3.5;stroke-linejoin:miter;stroke-linecap:butt;fill-opacity:1;stroke-dasharray:none;"
         d="M 487.883 -76.5966 C 491.62 -76.5966 505.734 -76.5966 514.525 -76.5966 C 524.097 -76.4827 527.398 -73.5913 536.172 -73.2664 C 543.943 -73.2664 551.713 -73.2664 559.484 -73.2664 C 567.959 -73.5803 572.435 -75.5615 581.131 -76.5966 C 595.635 -76.7714 590.686 -77.9021 587.791 -86.5874 C 585.166 -93.1517 584.842 -96.1971 581.131 -99.9085 C 579.735 -107.854 576.476 -110.68 576.135 -119.89 C 574.608 -126.916 571.793 -131.642 574.47 -139.872 C 578.31 -134.225 579.857 -131.902 589.456 -131.546 C 599.501 -131.546 603.393 -131.752 609.438 -128.216 C 614.101 -123.325 620.324 -124.885 629.42 -124.885 C 637.097 -123.48 638.38 -119.573 644.406 -116.56 C 651.509 -112.624 656.1 -111.564 666.052 -111.564 C 674.02 -110.142 680.932 -108.986 686.034 -106.569 C 690.284 -101.489 696.985 -100.231 706.016 -99.9085 C 711.065 -99.9085 714.965 -100.433 719.337 -101.574 C 727.014 -101.205 734.81 -101.574 744.314 -101.574 C 750.476 -94.3647 751.9 -91.7121 762.63 -91.5828 C 769.968 -86.429 776.157 -85.5474 782.612 -83.2572 C 790.937 -83.2572 799.263 -83.2572 807.589 -83.2572 C 816.517 -82.5704 819.378 -78.907 827.57 -76.5966 C 835.684 -72.8293 843.291 -70.2463 849.217 -68.271 C 855.108 -66.9903 862.791 -66.6059 870.863 -66.6059 C 877.046 -63.4312 884.472 -63.1467 889.18 -59.9453 C 896.07 -58.4688 905.482 -56.7314 910.827 -54.9499 C 919.643 -53.7815 923.014 -51.0078 930.808 -49.9546 C 937.511 -48.0394 928.584 -46.3942 924.148 -44.9591 C 914.321 -45.3231 913.611 -48.9051 904.166 -49.9546 C 899.143 -52.8929 891.527 -52.5024 884.185 -54.9499 C 876.67 -54.9499 869.083 -54.9499 882.519 -54.9499 C 889.119 -51.0461 895.467 -48.5277 892.51 -41.6289 C 884.018 -41.6289 877.143 -42.7265 869.198 -43.294 C 860.814 -44.9102 856.972 -46.6243 847.552 -46.6243 C 856.947 -48.8882 859.407 -46.3546 865.868 -43.294 C 868.264 -35.2355 863.143 -38.2986 854.212 -38.2986 C 846.604 -41.0296 842.039 -44.2825 832.565 -44.9591 C 825.905 -44.9591 819.244 -44.9591 812.584 -44.9591 C 822.474 -44.5928 824.561 -40.86 830.9 -36.6335 C 831.418 -34.0438 830.768 -34.1615 825.905 -33.3033 C 820.745 -37.7814 814.016 -39.3166 805.923 -41.6289 C 798.044 -41.9104 789.706 -42.5944 782.612 -44.9591 C 777.745 -45.2632 778.496 -51.1367 789.272 -41.6289 C 795.805 -37.7858 798.105 -34.6828 797.598 -31.6381 C 789.022 -33.7822 784.773 -37.2179 779.281 -39.9637 C 771.545 -42.8187 765.153 -43.294 755.969 -43.294 C 747.36 -45.5597 756.863 -46.8669 762.63 -38.2986 C 775.009 -29.5304 760.997 -33.2924 755.969 -34.9684 C 748.462 -37.1133 740.685 -40.1535 734.323 -41.6289 C 729.277 -43.0706 724.882 -44.4838 719.337 -44.9591 C 727.968 -44.1745 730.908 -41.1364 734.323 -34.9684 C 743.078 -28.9371 733.939 -31.8679 725.997 -33.3033 C 720.926 -37.7048 714.51 -39.961 711.011 -44.9591 C 702.66 -49.1346 702.448 -53.9408 707.681 -43.294 C 709.044 -39.8868 708.792 -32.4991 709.346 -31.6381 C 703.21 -38.2644 704.521 -39.9637 697.69 -39.9637 C 693.056 -43.2077 686.194 -45.7292 682.704 -49.9546 C 676.268 -50.5579 675.862 -52.8537 669.383 -54.9499 C 674.724 -48.6758 681.772 -42.4707 686.034 -36.6335 C 693.631 -32.3913 695.734 -28.5724 701.02 -24.9776 C 703.16 -21.3398 708.924 -18.3219 702.685 -23.3124 C 695.541 -30.3557 690.225 -31.9827 679.373 -36.6335 C 673.224 -41.5929 671.003 -43.6782 664.387 -48.2894 C 655.384 -51.1937 658.879 -52.8323 664.387 -43.294 C 670.705 -37.5253 675.556 -31.0645 681.039 -26.6427 C 684.806 -21.7359 691.175 -16.5242 696.025 -13.3216 C 697.526 -11.0701 702.016 -10.6571 696.025 -9.99144 C 690.934 -14.5899 683.627 -17.5224 677.708 -21.6473 C 669.406 -23.989 665.517 -28.3007 659.392 -33.3033 C 655.492 -39.1532 649.01 -43.6846 644.406 -48.2894 C 634.775 -52.0581 646.305 -44.6521 649.401 -39.9637 C 651.554 -33.8952 654.189 -28.9289 656.062 -23.3124 C 658.842 -17.7519 647.592 -24.6398 644.406 -26.6427 C 637.085 -30.7999 631.732 -33.5797 622.759 -34.9684 C 616.779 -36.2684 609.157 -37.4365 602.777 -38.2986 C 595.163 -40.3487 606.819 -33.4976 611.103 -26.6427 C 619.521 -18.7347 602.771 -25.2174 597.782 -26.6427 C 589.559 -28.2873 581.495 -28.3078 572.805 -28.3078 C 562.135 -27.6802 569.755 -26.3616 572.805 -21.6473 C 576.092 -19.119 578.442 -13.7936 577.8 -11.6565 C 570.768 -12.6069 564.775 -14.6788 556.154 -14.9868 C 549.192 -12.6662 540.809 -13.3216 532.842 -13.3216 C 532.461 -9.13031 534.286 -12.6668 537.837 -8.32632 C 543.6 -5.98517 547.422 -3.14879 546.163 -0.000671387 C 538.392 -0.000671387 530.622 -0.000671387 522.851 -0.000671387 C 514.525 -0.000671387 506.2 -0.000671387 497.874 -0.000671387 C 492.578 1.4438 499.013 0.700241 502.87 6.65987 C 500.709 12.0618 497.92 9.99017 491.214 9.99017 C 486.669 8.17247 477.616 7.35429 472.897 4.99475 C 468.208 4.99475 468.561 3.7729 464.572 3.32964 C 478.607 13.2573 471.645 10.7795 479.558 18.3159 C 480.925 18.7715 484.082 19.981 481.223 19.981 "
         id="path1025"
         transform="matrix(0.522151,0.000000,0.000000,0.525769,323.2151,185.5331)" />
      <path
         style="fill:none;fill-rule:evenodd;stroke:#772600;stroke-opacity:1;stroke-width:3.5;stroke-linejoin:miter;stroke-linecap:butt;fill-opacity:1;stroke-dasharray:none;"
         d="M 371.324 73.2652 C 370.327 73.2652 368.125 67.8898 364.664 63.2745 C 362.337 57.2254 359.272 60.6864 356.338 51.6186 C 356.686 42.2166 357.022 40.5241 356.338 31.6369 C 349.475 26.8539 346.624 25.3663 341.352 16.6507 C 332.892 9.57199 342.588 -2.41201 344.197 -11.1981 C 336.822 -12.8369 333.196 0.277594 321.856 4.99481 C 313.701 10.4868 320.945 -6.35927 316.965 -16.1932 C 314.19 -30.0652 306.139 -9.23707 303.054 -3.33084 C 297.587 0.386426 295.926 5.21058 288.068 -1.66585 C 288.068 -6.81041 293.005 -21.1549 290.913 -23.9445 C 283.099 -20.1306 272.826 -8.4545 264.756 -6.6611 C 256.625 -8.42882 266.525 -21.4891 266.525 -31.1795 C 263.588 -32.1585 251.83 -5.42389 247.006 -5.17663 C 242.182 -4.92936 244.293 -31.1698 242.034 -30.605 C 238.492 -25.646 231.385 -15.176 226.458 -11.6565 C 217.004 -12.8763 227.856 -29.0912 229.303 -35.0839 C 230.932 -42.2518 220.399 -21.3332 214.802 -19.9823 C 210.701 -16.4284 202.565 -13.9108 199.816 -13.3216 C 203.055 -19.4536 218.892 -32.0348 217.751 -35.6004 C 208.541 -35.2594 194.44 -23.0431 186.495 -21.6473 C 181.303 -21.6473 174.107 -19.889 173.174 -19.9823 C 173.622 -27.9081 192.592 -34.6322 195.619 -39.4474 C 186.313 -37.9536 168.433 -29.7419 163.183 -23.3124 C 157.038 -21.9767 149.24 -20.2928 143.201 -23.3124 C 144.098 -30.7878 158.057 -45.3107 161.137 -50.0702 C 152.741 -46.3718 148.495 -43.4804 139.49 -41.7444 C 137.838 -40.0922 132.966 -36.5131 134.495 -40.0793 C 137.15 -47.0243 141.17 -50.1892 144.485 -55.0656 C 137.035 -53.7015 134.205 -49.4319 126.169 -45.0749 C 121.075 -44.8533 106.523 -30.2205 101.573 -29.9729 C 90.1244 -21.591 85.564 -20.1657 73.2658 -16.6519 C 65.6784 -15.297 62.0064 -13.7182 58.2796 -9.99135 C 62.0757 -16.6797 67.877 -23.0841 73.2658 -26.6426 C 76.9423 -32.21 80.3872 -36.838 88.2519 -39.9637 C 90.1484 -42.2818 95.4394 -42.8692 89.9171 -43.2941 C 85.1711 -39.0566 77.2214 -34.3281 73.2658 -31.6382 C 68.1643 -28.4314 62.2558 -25.157 59.9447 -26.6426 C 62.562 -33.8403 67.381 -35.5448 71.6006 -41.6289 C 80.4096 -47.2345 71.6428 -43.5439 64.9401 -41.6289 C 60.6026 -37.7628 52.8186 -34.903 46.6237 -31.6382 C 39.5102 -29.7824 34.9196 -25.5064 26.6421 -23.3124 C 26.6421 -20.9371 29.0075 -27.5609 29.9724 -29.9729 C 36.8038 -37.3817 38.6297 -39.4487 46.6237 -41.6289 C 48.5353 -44.4963 51.0424 -43.2941 44.9585 -43.2941 C 40.4446 -39.2708 34.1479 -37.0825 28.3072 -33.3033 C 22.4159 -32.0226 14.7331 -31.6382 6.66049 -31.6382 C -3.69473 -30.3955 -2.8 -29.6135 6.66049 -34.9684 C 12.018 -40.0105 16.4293 -38.7434 16.6513 -44.9591 C 10.3967 -40.4269 2.78188 -37.0994 -4.99537 -33.3033 C -11.4299 -33.1139 -13.129 -31.6382 -19.9816 -31.6382 C -16.6835 -35.054 -14.7044 -39.2719 -9.99078 -41.6289 C -3.09478 -49.2911 -14.368 -43.1063 -16.6513 -41.6289 C -24.977 -41.6289 -33.3026 -41.6289 -41.6283 -41.6289 C -46.0935 -36.0472 -41.8575 -41.5776 -38.298 -44.9591 C -33.9924 -47.1979 -29.542 -50.1133 -29.9724 -51.6197 C -34.9444 -47.3043 -40.6981 -45.3212 -44.9585 -41.6289 C -49.5974 -40.2372 -54.9493 -39.5444 -54.9493 -38.2985 C -51.322 -43.6441 -45.4245 -46.8744 -41.6283 -51.6197 C -36.0159 -52.8398 -31.2318 -54.5543 -29.9724 -56.615 C -37.743 -56.615 -45.5136 -56.615 -53.2842 -56.615 C -61.4928 -56.615 -39.8044 -56.615 -36.6329 -56.615 C -28.2341 -56.615 -21.0053 -57.3655 -13.321 -58.2802 C -0.0579345 -60.4907 -14.4799 -61.6103 -21.6467 -61.6103 C -23.0366 -64.1585 -17.5349 -65.5979 -11.6559 -66.6059 C -6.63175 -68.9857 -0.423075 -71.099 4.99537 -73.2664 C 10.2512 -74.6998 17.7015 -79.0754 18.3164 -79.9269 C 13.3009 -79.6629 13.3412 -78.5257 8.32562 -78.2616 C 15.7724 -78.8347 21.1261 -79.9269 29.9724 -79.9269 C 38 -82.5072 44.8788 -85.3379 51.6191 -88.2525 C 54.5552 -91.8412 55.8583 -91.5828 48.2888 -91.5828 C 55.002 -93.7406 64.5272 -94.7754 69.9355 -96.5782 C 77.8076 -98.2651 84.8344 -100.831 89.9171 -103.239 C 94.7927 -106.554 97.6066 -110.414 103.238 -113.229 C 109.765 -108.791 109.839 -108.234 121.555 -108.234 C 130.964 -108.346 136.726 -110.607 141.536 -114.895 C 148.743 -116.86 150.018 -120.324 158.187 -121.555 C 165.631 -120.226 173.216 -119.89 181.499 -119.89 C 189.595 -122.01 197.176 -125.901 203.146 -129.881 C 208.239 -132.383 214.285 -136.002 219.797 -138.207 C 225.867 -135.074 230.64 -132.556 238.114 -131.546 C 245.841 -132.695 249.86 -136.415 256.43 -138.207 C 260.007 -142.536 265.207 -144.839 271.416 -146.532 C 281.087 -151.28 280.329 -144.958 284.737 -139.872 C 289.632 -134.739 296.11 -137.191 303.054 -134.876 C 306.884 -128.983 309.7 -124.962 314.71 -121.555 C 318.599 -116.847 323.218 -115.521 331.361 -114.895 C 334.328 -110.938 331.962 -108.084 338.022 -106.569 C 340.41 -104.04 344.54 -102.963 348.012 -101.574 "
         id="path1027"
         transform="matrix(0.522151,0.000000,0.000000,0.525769,323.2151,185.5331)"
         sodipodi:nodetypes="cccccccccccccsccccccccccccccccccccccccccccccccccccccccccccccccccccccccccccccccccccccccccc" />
      <path
         style="fill:none;fill-rule:evenodd;stroke:#782600;stroke-opacity:1;stroke-width:3.125;stroke-linejoin:miter;stroke-linecap:butt;fill-opacity:1;stroke-dasharray:none;"
         d="M 468.735 30.8027 C 468.735 31.0802 468.735 31.3577 468.735 31.6353 C 468.735 29.3082 468.632 30.5446 470.4 34.9655 C 470.995 38.6062 469.591 38.1843 467.902 40.7935 C 467.616 44.5169 467.07 47.1936 467.07 51.6169 C 466.533 55.2294 464.499 58.657 462.907 61.6076 C 461.303 64.7396 454.352 66.4767 454.581 70.7659 C 450.591 71.9062 450.497 69.3216 450.419 64.9379 C 448.033 62.211 447.207 58.4709 445.423 54.9471 C 444.315 51.4711 441.954 48.9148 440.428 44.9563 C 437.969 41.1702 435.882 40.0814 433.767 35.7981 C 432.941 33.7317 433.085 31.1805 431.27 29.9701 C 428.55 26.5321 426.781 25.9803 422.111 25.8073 C 418.519 26.6526 417.14 28.2228 413.786 29.1375 C 411.216 29.9943 406.216 29.7181 402.962 30.8027 C 402.154 32.1167 404.562 32.7434 405.46 35.7981 C 403.325 37.562 402.534 40.681 401.297 43.2912 C 399.332 45.777 398.014 46.9964 397.134 50.7843 C 398.497 53.0999 397.335 56.1707 395.469 58.2774 C 394.895 62.1411 393.035 64.1507 392.139 67.4357 C 389.453 69.2622 388.487 70.9742 386.311 74.0962 C 384.397 76.7753 382.675 76.5938 377.985 76.5938 C 374.318 75.5936 373.804 73.6062 370.492 72.431 C 370.14 71.3745 369.884 71.1181 368.827 70.7659 "
         id="path1028"
         sodipodi:nodetypes="cccccccccccccccccccccccc"
         transform="matrix(0.522151,0.000000,0.000000,0.525769,323.2151,185.5331)" />
      <path
         style="fill:#812e00;fill-rule:evenodd;stroke:none;stroke-opacity:1;stroke-width:1pt;stroke-linejoin:miter;stroke-linecap:butt;fill-opacity:1;"
         d="M 369.66 93.2452 C 369.66 93.2452 367.995 115.725 356.339 130.711 C 344.683 145.697 320.538 163.181 320.538 163.181 C 320.538 163.181 353.008 144.032 356.338 148.195 C 359.669 152.358 335.524 185.66 335.524 185.66 C 335.524 185.66 367.162 150.692 371.325 150.692 C 375.488 150.692 384.646 184.827 387.976 183.995 C 391.306 183.162 380.483 140.701 382.148 134.041 C 383.813 127.38 382.148 91.5801 382.148 91.5801 L 369.66 93.2452 z "
         id="path1029"
         sodipodi:nodetypes="cccccccccc"
         transform="matrix(0.522151,0.000000,0.000000,0.363072,325.3889,185.6553)" />
      <path
         style="fill:#812e00;fill-rule:evenodd;stroke:none;stroke-opacity:1;stroke-width:1pt;stroke-linejoin:miter;stroke-linecap:butt;fill-opacity:1;"
         d="M 369.66 93.2452 C 369.66 93.2452 367.995 115.725 356.339 130.711 C 344.683 145.697 320.538 163.181 320.538 163.181 C 320.538 163.181 353.008 144.032 356.338 148.195 C 359.669 152.358 335.524 185.66 335.524 185.66 C 335.524 185.66 367.162 150.692 371.325 150.692 C 375.488 150.692 384.646 184.827 387.976 183.995 C 391.306 183.162 380.483 140.701 382.148 134.041 C 383.813 127.38 382.148 91.5801 382.148 91.5801 L 369.66 93.2452 z "
         id="path1030"
         sodipodi:nodetypes="cccccccccc"
         transform="matrix(0.522151,0.000000,0.000000,0.388103,364.5140,182.2158)" />
      <path
         sodipodi:type="arc"
         style="fill-rule:evenodd;stroke:none;fill:#812e00;fill-opacity:1;stroke-opacity:1;stroke-width:1pt;stroke-linejoin:miter;stroke-linecap:butt;"
         id="path1031"
         d="M 502.761597 139.267014 A 4.120987 2.943573 0 1 0 494.519653,139.267014 A 4.12099 2.94357 0 1 0 502.762 139.267 L 498.640625 139.267014 z"
         sodipodi:cx="498.640625"
         sodipodi:cy="139.267014"
         sodipodi:rx="4.120987"
         sodipodi:ry="2.943573" />
    </g>
  </g>
</svg>
