<?xml version="1.0" encoding="UTF-8" standalone="no"?>
<!DOCTYPE svg PUBLIC "-//W3C//DTD SVG 20010904//EN"
"http://www.w3.org/TR/2001/REC-SVG-20010904/DTD/svg10.dtd">
<!-- Created with Sodipodi ("http://www.sodipodi.com/") -->
<svg
   id="svg1689"
   sodipodi:version="0.32"
   width="210mm"
   height="140mm"
   sodipodi:docbase="/home/scarlet/"
   sodipodi:docname="/home/scarlet/egypt.svg"
   xmlns="http://www.w3.org/2000/svg"
   xmlns:sodipodi="http://sodipodi.sourceforge.net/DTD/sodipodi-0.dtd"
   xmlns:xlink="http://www.w3.org/1999/xlink">
  <defs
     id="defs1691" />
  <sodipodi:namedview
     id="base"
     snaptogrid="true"
     showgrid="true"
     gridspacingx="1mm"
     gridspacingy="1mm" />
  <g
     id="g973">
    <rect
       style="font-size:12;fill:#ffffff;fill-rule:evenodd;stroke-width:1pt;"
       id="rect1801"
       width="744.094499"
       height="166.535446"
       x="0.000000"
       y="162.992065" />
    <rect
       style="font-size:12;fill-rule:evenodd;stroke-width:1pt;"
       id="rect1800"
       width="744.094543"
       height="166.535440"
       x="0.000000"
       y="329.527425" />
    <rect
       style="font-size:12;fill:#ff0000;fill-rule:evenodd;stroke-width:1pt;"
       id="rect1802"
       width="744.094482"
       height="162.992144"
       x="0.000000"
       y="-0.000057" />
    <g
       id="g827"
       transform="translate(23.21154,409.2175)">
      <path
         style="font-size:12;fill:#d7b900;fill-rule:evenodd;stroke:#ffffff;stroke-width:1pt;"
         d="M 322.441 -322.441 L 329.528 -322.441 L 333.278 -262.205 L 325.984 -255.118 L 318.898 -262.205 L 322.441 -322.441 z "
         id="path725"
         sodipodi:nodetypes="cccccc"
         transform="matrix(0.605846,-3.203790e-2,5.719647e-2,0.758729,164.0516,95.20659)" />
      <path
         style="font-size:12;fill:#d7b900;fill-rule:evenodd;stroke:#ffffff;stroke-width:1pt;"
         d="M 322.441 -322.441 L 329.528 -322.441 L 333.278 -262.205 L 325.984 -255.118 L 318.898 -262.205 L 322.441 -322.441 z "
         id="path726"
         sodipodi:nodetypes="cccccc"
         transform="matrix(0.606424,2.312396e-2,-4.128265e-2,0.759454,123.8816,77.44898)" />
      <g
         id="g720"
         transform="matrix(1.266666,0.000000,0.000000,1.030736,-115.1910,8.205971)"
         style="font-size:12;">
        <path
           style="font-size:12;fill:#d7b900;fill-rule:evenodd;stroke:#ffffff;stroke-width:4.82444;stroke-opacity:1;fill-opacity:1;"
           d="M 177.165 255.118 L 159.449 698.032 L 194.882 662.598 L 212.598 255.118 L 177.165 255.118 z "
           id="path1700"
           sodipodi:nodetypes="ccccc"
           transform="matrix(-0.210526,0.000000,0.000000,0.184182,442.7267,-252.5807)" />
        <path
           style="font-size:12;fill:#d7b900;fill-rule:evenodd;stroke:#ffffff;stroke-width:4.82444;stroke-opacity:1;fill-opacity:1;"
           d="M 177.165 290.551 L 159.448 698.032 L 194.881 662.598 L 212.598 290.551 L 177.165 290.551 z "
           id="path1701"
           sodipodi:nodetypes="ccccc"
           transform="matrix(-0.210526,0.000000,0.000000,0.184182,435.2671,-259.1068)" />
        <path
           style="font-size:12;fill:#d7b900;fill-rule:evenodd;stroke:#ffffff;stroke-width:4.82444;stroke-opacity:1;fill-opacity:1;"
           d="M 177.166 325.984 L 159.448 698.032 L 194.881 662.598 L 212.599 325.984 L 177.166 325.984 z "
           id="path1702"
           sodipodi:nodetypes="ccccc"
           transform="matrix(-0.210526,0.000000,0.000000,0.184182,427.8076,-265.6329)" />
        <path
           style="font-size:12;fill:#d7b900;fill-rule:evenodd;stroke:#ffffff;stroke-width:4.82444;stroke-opacity:1;fill-opacity:1;"
           d="M 177.165 361.417 L 159.448 698.032 L 194.881 662.598 L 212.598 361.417 L 177.165 361.417 z "
           id="path1703"
           sodipodi:nodetypes="ccccc"
           transform="matrix(-0.210526,0.000000,0.000000,0.184182,420.3480,-272.1591)" />
      </g>
      <g
         id="g715"
         transform="matrix(1.127293,0.000000,0.000000,1.030735,-62.20917,8.148102)"
         style="font-size:12;">
        <path
           style="font-size:12;fill:#d7b900;fill-rule:evenodd;stroke:#ffffff;stroke-width:4.82444;stroke-opacity:1;fill-opacity:1;"
           d="M 177.165 255.118 L 159.449 698.032 L 194.882 662.598 L 212.598 255.118 L 177.165 255.118 z "
           id="path1696"
           sodipodi:nodetypes="ccccc"
           transform="matrix(0.210526,0.000000,0.000000,0.184182,269.1654,-252.5807)" />
        <path
           style="font-size:12;fill:#d7b900;fill-rule:evenodd;stroke:#ffffff;stroke-width:4.82444;stroke-opacity:1;fill-opacity:1;"
           d="M 177.165 290.551 L 159.448 698.032 L 194.881 662.598 L 212.598 290.551 L 177.165 290.551 z "
           id="path1697"
           sodipodi:nodetypes="ccccc"
           transform="matrix(0.210526,0.000000,0.000000,0.184182,276.6251,-259.1068)" />
        <path
           style="font-size:12;fill:#d7b900;fill-rule:evenodd;stroke:#ffffff;stroke-width:4.82444;stroke-opacity:1;fill-opacity:1;"
           d="M 177.166 325.984 L 159.449 698.032 L 194.882 662.598 L 212.599 325.984 L 177.166 325.984 z "
           id="path1698"
           sodipodi:nodetypes="ccccc"
           transform="matrix(0.210526,0.000000,0.000000,0.184182,284.0845,-265.6330)" />
        <path
           style="font-size:12;fill:#d7b900;fill-rule:evenodd;stroke:#ffffff;stroke-width:4.82444;stroke-opacity:1;fill-opacity:1;"
           d="M 177.165 361.417 L 159.449 698.033 L 194.882 662.599 L 212.598 361.417 L 177.165 361.417 z "
           id="path1699"
           sodipodi:nodetypes="ccccc"
           transform="matrix(0.210526,0.000000,0.000000,0.184182,291.8568,-271.3014)" />
      </g>
      <path
         style="font-size:12;fill:#ffffff;fill-rule:evenodd;stroke:#d7b900;stroke-width:4.82444;"
         d="M 181.732 256.048 C 180.728 254.736 201.579 237.402 237.012 237.402 C 290.162 237.402 298.319 256.048 333.753 256.048 C 369.186 256.048 450.341 256.048 485.774 256.048 C 521.207 256.048 531.497 237.402 584.646 237.402 C 620.079 237.402 636.814 255.695 637.795 256.048 C 637.795 256.048 620.079 255.118 584.646 255.118 C 549.213 255.118 535.346 294.158 499.594 293.34 C 472.806 294.158 355.366 293.34 319.932 293.34 C 284.499 293.34 272.446 256.048 237.012 256.048 C 201.579 256.048 180.728 254.736 181.732 256.048 z "
         id="path1704"
         sodipodi:nodetypes="ccccccccccc"
         transform="matrix(0.256388,0.000000,0.000000,0.190031,236.0099,-252.3627)" />
      <path
         style="font-size:12;fill:#ffffff;fill-rule:evenodd;stroke:#d7b900;stroke-width:1pt;"
         d="M 400.394 -109.842 L 400.394 -106.299 L 403.937 -102.756 L 400.394 -99.2126 L 400.394 -95.6693 C 386.22 -88.5826 371.545 -88.5826 357.874 -88.5826 C 344.204 -88.5826 329.528 -88.5826 311.811 -95.6693 L 311.811 -99.2126 L 308.268 -102.756 L 311.811 -106.299 L 311.811 -109.842 C 325.984 -106.299 340.158 -102.756 357.874 -102.756 C 375.591 -102.756 386.221 -106.299 400.394 -109.842 z "
         id="path709"
         sodipodi:nodetypes="ccccccccccccc"
         transform="matrix(1.323131,0.000000,0.000000,1.203745,-129.9094,19.85426)" />
      <g
         id="g695"
         transform="matrix(-1.062733,0.284558,0.304927,0.991740,760.8218,-100.2936)"
         style="font-size:12;">
        <rect
           style="font-size:12;fill:#ffffff;fill-rule:evenodd;stroke:#d7b900;stroke-width:0.623445;fill-opacity:1;stroke-opacity:1;"
           id="rect696"
           width="4.789328"
           height="40.130048"
           x="-73.159379"
           y="-406.532546"
           ry="4.50477289"
           rx="2.39466409"
           transform="matrix(-0.563962,-0.825801,-0.888399,0.459072,0.000000,0.000000)" />
        <g
           id="g697"
           transform="matrix(-0.100453,3.769187e-2,9.413487e-2,0.226620,362.0181,-256.8519)"
           style="font-size:12;stroke:#d7b900;stroke-width:4.7128;fill:#ffffff;fill-opacity:1;stroke-opacity:1;">
          <path
             style="fill:#ffffff;fill-rule:evenodd;stroke:#d7b900;stroke-opacity:1;stroke-width:4.7128;stroke-linejoin:miter;stroke-linecap:butt;fill-opacity:1;stroke-dasharray:none;"
             d="M 318.898 574.016 L 336.614 591.732 L 354.331 574.016 L 372.047 591.732 L 389.764 574.016 L 407.48 591.732 C 412.737 582.306 414.572 568.844 407.368 555.213 C 371.183 541.395 338.544 542.57 300.189 556.401 C 297.102 567.432 297.214 580.329 300.189 591.834 L 318.898 574.016 z "
             id="path698"
             sodipodi:nodetypes="cccccccccc"
             transform="matrix(1.376273,0.175475,-0.141509,1.706629,-97.88570,-514.1425)" />
          <path
             style="fill:#ffffff;fill-rule:evenodd;stroke:#d7b900;stroke-opacity:1;stroke-width:4.7128;stroke-linejoin:miter;stroke-linecap:butt;fill-opacity:1;stroke-dasharray:none;"
             d="M 318.898 574.016 L 336.614 591.732 L 354.331 574.016 L 372.047 591.732 L 389.764 574.016 L 407.48 591.732 C 412.737 582.306 414.572 568.844 407.368 555.213 C 371.183 541.395 338.544 542.57 300.189 556.401 C 297.102 567.432 297.214 580.329 300.189 591.834 L 318.898 574.016 z "
             id="path699"
             sodipodi:nodetypes="cccccccccc"
             transform="matrix(1.376273,0.175475,-0.141509,1.706629,-95.12674,-545.9706)" />
          <path
             style="fill:#ffffff;fill-rule:evenodd;stroke:#d7b900;stroke-opacity:1;stroke-width:4.7128;stroke-linejoin:miter;stroke-linecap:butt;fill-opacity:1;stroke-dasharray:none;"
             d="M 318.898 574.016 L 336.614 591.732 L 354.331 574.016 L 372.047 591.732 L 389.764 574.016 L 407.48 591.732 C 412.737 582.306 414.572 568.844 407.368 555.213 C 371.183 541.395 338.544 542.57 300.189 556.401 C 297.102 567.432 297.214 580.329 300.189 591.834 L 318.898 574.016 z "
             id="path700"
             sodipodi:nodetypes="cccccccccc"
             transform="matrix(1.376273,0.175475,-0.141509,1.706629,-92.36777,-577.7986)" />
          <path
             style="fill:#ffffff;fill-rule:evenodd;stroke:#d7b900;stroke-opacity:1;stroke-width:4.7128;stroke-linejoin:miter;stroke-linecap:butt;fill-opacity:1;stroke-dasharray:none;"
             d="M 318.898 574.016 L 336.614 591.732 L 354.331 574.016 L 372.047 591.732 L 389.764 574.016 L 407.48 591.732 C 412.737 582.306 414.572 568.844 407.368 555.213 C 371.183 541.395 338.544 542.57 300.189 556.401 C 297.102 567.432 297.214 580.329 300.189 591.834 L 318.898 574.016 z "
             id="path701"
             sodipodi:nodetypes="cccccccccc"
             transform="matrix(1.376273,0.175475,-0.141509,1.706629,-88.22936,-617.1158)" />
          <path
             style="fill:#ffffff;fill-rule:evenodd;stroke:#d7b900;stroke-opacity:1;stroke-width:4.7128;stroke-linejoin:miter;stroke-linecap:butt;fill-opacity:1;stroke-dasharray:none;"
             d="M 318.898 574.016 L 336.614 591.732 L 354.331 574.016 L 372.047 591.732 L 389.764 574.016 L 407.48 591.732 C 412.737 582.306 414.572 568.844 407.368 555.213 C 371.183 541.395 338.544 542.57 300.189 556.401 C 297.102 567.432 297.214 580.329 300.189 591.834 L 318.898 574.016 z "
             id="path702"
             sodipodi:nodetypes="cccccccccc"
             transform="matrix(1.376273,0.175475,-0.141509,1.706629,-85.47041,-648.9438)" />
          <path
             style="fill:#ffffff;fill-rule:evenodd;stroke:#d7b900;stroke-opacity:1;stroke-width:4.7128;stroke-linejoin:miter;stroke-linecap:butt;fill-opacity:1;stroke-dasharray:none;"
             d="M 318.898 574.016 L 336.614 591.732 L 354.331 574.016 L 372.047 591.732 L 389.764 574.016 L 407.48 591.732 C 412.737 582.306 414.572 568.844 407.368 555.213 C 371.183 541.395 338.544 542.57 300.189 556.401 C 297.102 567.432 297.214 580.329 300.189 591.834 L 318.898 574.016 z "
             id="path703"
             sodipodi:nodetypes="cccccccccc"
             transform="matrix(1.376273,0.175475,-0.141509,1.706629,-82.71143,-680.7720)" />
        </g>
        <path
           sodipodi:type="arc"
           style="fill-rule:evenodd;stroke:#d7b900;fill:#ffffff;fill-opacity:1;stroke-opacity:1;stroke-width:1pt;stroke-linejoin:miter;stroke-linecap:butt;"
           id="path704"
           d="M 345.625031 -96.124550 A 2.500000 5.937500 0 1 0 340.625031,-96.124550 A 2.5 5.9375 0 1 0 345.625 -96.1245 L 343.125031 -96.124550 z"
           sodipodi:cx="343.125031"
           sodipodi:cy="-96.124550"
           sodipodi:rx="2.500000"
           sodipodi:ry="5.937500"
           transform="matrix(0.497996,-0.385055,0.290965,0.659035,228.0313,87.15948)" />
        <path
           sodipodi:type="arc"
           style="fill-rule:evenodd;stroke:#d7b900;fill:#ffffff;fill-opacity:1;stroke-opacity:1;stroke-width:1pt;stroke-linejoin:miter;stroke-linecap:butt;"
           id="path705"
           d="M 345.625031 -96.124550 A 2.500000 5.937500 0 1 0 340.625031,-96.124550 A 2.5 5.9375 0 1 0 345.625 -96.1245 L 343.125031 -96.124550 z"
           sodipodi:cx="343.125031"
           sodipodi:cy="-96.124550"
           sodipodi:rx="2.500000"
           sodipodi:ry="5.937500"
           transform="matrix(0.497996,-0.429838,0.290965,0.735681,242.0938,102.8618)" />
        <path
           sodipodi:type="arc"
           style="fill-rule:evenodd;stroke:#d7b900;fill:#ffffff;fill-opacity:1;stroke-opacity:1;stroke-width:1pt;stroke-linejoin:miter;stroke-linecap:butt;"
           id="path706"
           d="M 345.625031 -96.124550 A 2.500000 5.937500 0 1 0 340.625031,-96.124550 A 2.5 5.9375 0 1 0 345.625 -96.1245 L 343.125031 -96.124550 z"
           sodipodi:cx="343.125031"
           sodipodi:cy="-96.124550"
           sodipodi:rx="2.500000"
           sodipodi:ry="5.937500"
           transform="matrix(0.534539,-0.414910,0.312316,0.710132,245.2011,88.25274)" />
      </g>
      <path
         style="font-size:12;fill:#ffffff;fill-rule:evenodd;stroke:#d7b900;stroke-width:4.82444;"
         d="M 268.291 261.844 C 268.291 261.844 301.181 219.685 301.181 166.535 C 301.181 166.536 372.047 166.536 372.047 166.535 C 372.047 219.685 406.355 261.844 407.481 255.119 C 389.764 255.119 354.331 237.402 336.615 201.969 C 318.899 237.403 286.007 261.844 268.291 261.844 z "
         id="path1751"
         sodipodi:nodetypes="cccccc"
         transform="matrix(0.307970,0.000000,0.000000,0.190031,235.4112,-246.3776)" />
      <path
         style="font-size:12;fill:#ffffff;fill-rule:evenodd;stroke:#d7b900;stroke-width:4.82444;"
         d="M 253.459 240.407 C 253.459 240.407 301.398 181.681 301.398 128.532 C 301.398 91.2395 301.398 89.3806 301.398 53.9475 C 301.398 36.2309 325.368 35.3019 337.353 35.3019 C 355.07 35.3019 373.307 36.2309 373.307 53.9475 C 373.307 89.3806 373.307 99.7814 373.307 128.532 C 373.307 181.681 421.247 240.407 421.247 240.407 C 385.814 240.407 367.054 201.256 349.338 165.823 C 349.338 183.54 354.331 219.685 336.614 237.402 C 318.898 219.685 325.368 183.54 325.368 165.823 C 307.651 201.256 288.893 240.407 253.459 240.407 z "
         id="path1750"
         sodipodi:nodetypes="ccccccccccc"
         transform="matrix(0.295648,0.000000,0.000000,0.190031,239.5589,-245.8472)" />
      <path
         transform="matrix(0.242291,7.746248e-2,-5.394260e-2,0.118358,258.1111,-271.5446)"
         style="font-size:12;fill:#ffffff;fill-rule:evenodd;stroke:#d7b900;stroke-width:5.90871;"
         d="M 283.116 77.9526 C 283.116 77.9526 336.265 77.9526 336.265 77.9526 C 336.265 95.6691 336.265 113.386 318.549 113.386 C 300.832 113.386 283.116 95.6691 283.116 77.9526 z "
         id="path1756"
         sodipodi:nodetypes="ccsc" />
      <path
         style="font-size:12;fill:#ffffff;fill-rule:evenodd;stroke:#d7b900;stroke-width:4.82444;"
         d="M 183.965 42.5197 C 195.776 42.5197 195.776 60.2362 195.776 77.9528 C 178.06 77.9528 166.248 60.2362 148.532 77.9528 C 148.532 58.3938 148.532 42.5197 166.248 42.5197 C 183.965 42.5197 166.249 42.5197 183.965 42.5197 z "
         id="path1754"
         sodipodi:nodetypes="ccccc"
         transform="matrix(0.363435,0.116193,-5.394260e-2,0.118358,267.4771,-266.1476)" />
      <path
         sodipodi:type="arc"
         style="font-size:12;fill:#ffffff;fill-rule:evenodd;stroke:#d7b900;stroke-width:4.82444;"
         id="path1757"
         d="M 336.614197 69.094437 A 8.858276 8.858261 0 1 0 318.897644,69.094437 A 8.85828 8.85826 0 1 0 336.614 69.0944 L 327.755920 69.094437 z"
         sodipodi:cx="327.755920"
         sodipodi:cy="69.094437"
         sodipodi:rx="8.858276"
         sodipodi:ry="8.858261"
         transform="matrix(0.242291,7.746248e-2,-8.091389e-2,0.177536,263.9437,-273.7637)" />
      <path
         style="font-size:12;fill:#d7b900;fill-rule:evenodd;stroke:#ffffff;stroke-width:1pt;"
         d="M 322.441 -322.441 L 329.528 -322.441 L 333.278 -262.205 L 325.984 -255.118 L 318.898 -262.205 L 322.441 -322.441 z "
         id="path710"
         sodipodi:nodetypes="cccccc"
         transform="matrix(0.607052,0.000000,0.000000,0.760240,141.1257,85.23917)" />
      <g
         id="g683"
         transform="matrix(1.158950,0.303170,-0.355856,0.987359,-126.7418,-108.6385)"
         style="font-size:12;">
        <rect
           style="font-size:12;fill:#ffffff;fill-rule:evenodd;stroke:#d7b900;stroke-width:0.623445;fill-opacity:1;stroke-opacity:1;"
           id="rect1764"
           width="4.789328"
           height="40.130048"
           x="-73.159379"
           y="-406.532546"
           ry="4.50477289"
           rx="2.39466409"
           transform="matrix(-0.563962,-0.825801,-0.888399,0.459072,0.000000,0.000000)" />
        <g
           id="g673"
           transform="matrix(-0.100453,3.769187e-2,9.413487e-2,0.226620,362.0181,-256.8519)"
           style="font-size:12;stroke:#d7b900;stroke-width:4.7128;fill:#ffffff;fill-opacity:1;stroke-opacity:1;">
          <path
             style="fill:#ffffff;fill-rule:evenodd;stroke:#d7b900;stroke-opacity:1;stroke-width:4.7128;stroke-linejoin:miter;stroke-linecap:butt;fill-opacity:1;stroke-dasharray:none;"
             d="M 318.898 574.016 L 336.614 591.732 L 354.331 574.016 L 372.047 591.732 L 389.764 574.016 L 407.48 591.732 C 412.737 582.306 414.572 568.844 407.368 555.213 C 371.183 541.395 338.544 542.57 300.189 556.401 C 297.102 567.432 297.214 580.329 300.189 591.834 L 318.898 574.016 z "
             id="path674"
             sodipodi:nodetypes="cccccccccc"
             transform="matrix(1.376273,0.175475,-0.141509,1.706629,-97.88570,-514.1425)" />
          <path
             style="fill:#ffffff;fill-rule:evenodd;stroke:#d7b900;stroke-opacity:1;stroke-width:4.7128;stroke-linejoin:miter;stroke-linecap:butt;fill-opacity:1;stroke-dasharray:none;"
             d="M 318.898 574.016 L 336.614 591.732 L 354.331 574.016 L 372.047 591.732 L 389.764 574.016 L 407.48 591.732 C 412.737 582.306 414.572 568.844 407.368 555.213 C 371.183 541.395 338.544 542.57 300.189 556.401 C 297.102 567.432 297.214 580.329 300.189 591.834 L 318.898 574.016 z "
             id="path675"
             sodipodi:nodetypes="cccccccccc"
             transform="matrix(1.376273,0.175475,-0.141509,1.706629,-95.12674,-545.9706)" />
          <path
             style="fill:#ffffff;fill-rule:evenodd;stroke:#d7b900;stroke-opacity:1;stroke-width:4.7128;stroke-linejoin:miter;stroke-linecap:butt;fill-opacity:1;stroke-dasharray:none;"
             d="M 318.898 574.016 L 336.614 591.732 L 354.331 574.016 L 372.047 591.732 L 389.764 574.016 L 407.48 591.732 C 412.737 582.306 414.572 568.844 407.368 555.213 C 371.183 541.395 338.544 542.57 300.189 556.401 C 297.102 567.432 297.214 580.329 300.189 591.834 L 318.898 574.016 z "
             id="path676"
             sodipodi:nodetypes="cccccccccc"
             transform="matrix(1.376273,0.175475,-0.141509,1.706629,-92.36777,-577.7986)" />
          <path
             style="fill:#ffffff;fill-rule:evenodd;stroke:#d7b900;stroke-opacity:1;stroke-width:4.7128;stroke-linejoin:miter;stroke-linecap:butt;fill-opacity:1;stroke-dasharray:none;"
             d="M 318.898 574.016 L 336.614 591.732 L 354.331 574.016 L 372.047 591.732 L 389.764 574.016 L 407.48 591.732 C 412.737 582.306 414.572 568.844 407.368 555.213 C 371.183 541.395 338.544 542.57 300.189 556.401 C 297.102 567.432 297.214 580.329 300.189 591.834 L 318.898 574.016 z "
             id="path677"
             sodipodi:nodetypes="cccccccccc"
             transform="matrix(1.376273,0.175475,-0.141509,1.706629,-88.22936,-617.1158)" />
          <path
             style="fill:#ffffff;fill-rule:evenodd;stroke:#d7b900;stroke-opacity:1;stroke-width:4.7128;stroke-linejoin:miter;stroke-linecap:butt;fill-opacity:1;stroke-dasharray:none;"
             d="M 318.898 574.016 L 336.614 591.732 L 354.331 574.016 L 372.047 591.732 L 389.764 574.016 L 407.48 591.732 C 412.737 582.306 414.572 568.844 407.368 555.213 C 371.183 541.395 338.544 542.57 300.189 556.401 C 297.102 567.432 297.214 580.329 300.189 591.834 L 318.898 574.016 z "
             id="path678"
             sodipodi:nodetypes="cccccccccc"
             transform="matrix(1.376273,0.175475,-0.141509,1.706629,-85.47041,-648.9438)" />
          <path
             style="fill:#ffffff;fill-rule:evenodd;stroke:#d7b900;stroke-opacity:1;stroke-width:4.7128;stroke-linejoin:miter;stroke-linecap:butt;fill-opacity:1;stroke-dasharray:none;"
             d="M 318.898 574.016 L 336.614 591.732 L 354.331 574.016 L 372.047 591.732 L 389.764 574.016 L 407.48 591.732 C 412.737 582.306 414.572 568.844 407.368 555.213 C 371.183 541.395 338.544 542.57 300.189 556.401 C 297.102 567.432 297.214 580.329 300.189 591.834 L 318.898 574.016 z "
             id="path679"
             sodipodi:nodetypes="cccccccccc"
             transform="matrix(1.376273,0.175475,-0.141509,1.706629,-82.71143,-680.7720)" />
        </g>
        <path
           sodipodi:type="arc"
           style="fill-rule:evenodd;stroke:#d7b900;fill:#ffffff;fill-opacity:1;stroke-opacity:1;stroke-width:1pt;stroke-linejoin:miter;stroke-linecap:butt;"
           id="path680"
           d="M 345.625031 -96.124550 A 2.500000 5.937500 0 1 0 340.625031,-96.124550 A 2.5 5.9375 0 1 0 345.625 -96.1245 L 343.125031 -96.124550 z"
           sodipodi:cx="343.125031"
           sodipodi:cy="-96.124550"
           sodipodi:rx="2.500000"
           sodipodi:ry="5.937500"
           transform="matrix(0.497996,-0.385055,0.290965,0.659035,228.0313,87.15948)" />
        <path
           sodipodi:type="arc"
           style="fill-rule:evenodd;stroke:#d7b900;fill:#ffffff;fill-opacity:1;stroke-opacity:1;stroke-width:1pt;stroke-linejoin:miter;stroke-linecap:butt;"
           id="path681"
           d="M 345.625031 -96.124550 A 2.500000 5.937500 0 1 0 340.625031,-96.124550 A 2.5 5.9375 0 1 0 345.625 -96.1245 L 343.125031 -96.124550 z"
           sodipodi:cx="343.125031"
           sodipodi:cy="-96.124550"
           sodipodi:rx="2.500000"
           sodipodi:ry="5.937500"
           transform="matrix(0.497996,-0.429838,0.290965,0.735681,242.0938,102.8618)" />
        <path
           sodipodi:type="arc"
           style="fill-rule:evenodd;stroke:#d7b900;fill:#ffffff;fill-opacity:1;stroke-opacity:1;stroke-width:1pt;stroke-linejoin:miter;stroke-linecap:butt;"
           id="path682"
           d="M 345.625031 -96.124550 A 2.500000 5.937500 0 1 0 340.625031,-96.124550 A 2.5 5.9375 0 1 0 345.625 -96.1245 L 343.125031 -96.124550 z"
           sodipodi:cx="343.125031"
           sodipodi:cy="-96.124550"
           sodipodi:rx="2.500000"
           sodipodi:ry="5.937500"
           transform="matrix(0.534539,-0.414910,0.312316,0.710132,245.2011,88.25274)" />
      </g>
      <g
         id="g711"
         transform="matrix(1.170283,0.000000,0.000000,1.031757,-76.89803,9.431290)"
         style="font-size:12;">
        <path
           style="font-size:12;fill:#ffffff;fill-rule:evenodd;stroke:#d7b900;stroke-width:4.82444;fill-opacity:1;stroke-opacity:1;"
           d="M 301.181 290.551 C 301.181 485.433 336.614 467.717 407.48 538.583 C 478.346 467.717 513.78 485.433 513.78 290.551 C 478.346 290.551 442.913 290.551 407.48 272.835 C 372.048 290.551 336.614 290.551 301.181 290.551 z "
           id="path1706"
           sodipodi:nodetypes="ccccc"
           transform="matrix(0.210526,0.000000,0.000000,0.184182,269.6644,-253.3405)" />
        <path
           style="font-size:12;fill:#d7b900;fill-rule:evenodd;stroke:none;stroke-width:4.82444;fill-opacity:1;stroke-opacity:1;"
           d="M 301.181 290.551 C 301.181 485.433 336.614 467.717 407.48 538.583 C 478.346 467.717 513.78 485.433 513.78 290.551 C 478.346 290.551 442.913 290.551 407.48 272.835 C 372.048 290.551 336.614 290.551 301.181 290.551 z "
           id="path707"
           sodipodi:nodetypes="ccccc"
           transform="matrix(0.195827,0.000000,0.000000,0.168895,275.6540,-247.6072)" />
        <path
           style="font-size:12;fill:#ffffff;fill-rule:evenodd;stroke:none;stroke-width:4.82444;"
           d="M 372.047 284.806 L 372.047 506.388 L 407.48 538.583 L 442.913 506.388 L 442.913 284.806 C 430.273 282.362 418.076 277.93 407.535 272.835 C 395.816 278.262 383.876 282.528 372.047 284.806 z "
           id="path1709"
           sodipodi:nodetypes="ccccccc"
           transform="matrix(0.210526,0.000000,0.000000,0.154784,269.7744,-242.1947)" />
      </g>
    </g>
  </g>
</svg>
