<?xml version="1.0" encoding="UTF-8" standalone="no"?>
<!DOCTYPE svg PUBLIC "-//W3C//DTD SVG 20010904//EN"
"http://www.w3.org/TR/2001/REC-SVG-20010904/DTD/svg10.dtd">
<!-- Created with Sodipodi ("http://www.sodipodi.com/") -->
<svg
   version="1"
   x="0.00000000"
   y="0.00000000"
   width="744.094482"
   height="496.062988"
   id="svg548"
   xmlns="http://www.w3.org/2000/svg"
   xmlns:sodipodi="http://sodipodi.sourceforge.net/DTD/sodipodi-0.dtd"
   xmlns:xlink="http://www.w3.org/1999/xlink"
   sodipodi:version="0.32"
   sodipodi:docname="/home/cschalle/sodipodi-flags/nations/equatorial_guinea.svg"
   sodipodi:docbase="/home/cschalle/sodipodi-flags/nations">
  <sodipodi:namedview
     id="base" />
  <defs
     id="defs550" />
  <g
     style="font-size:12;"
     id="g771">
    <rect
       width="744.094543"
       height="166.535461"
       x="0.00000000"
       y="-0.00006800"
       style="fill:#3e9a00;fill-rule:evenodd;stroke-width:1pt;"
       id="rect757" />
    <rect
       width="744.094482"
       height="162.992111"
       x="0.00000000"
       y="166.535446"
       style="fill:#ffffff;fill-rule:evenodd;stroke-width:1pt;"
       id="rect758" />
    <rect
       width="744.094482"
       height="166.535431"
       x="0.00000000"
       y="329.527527"
       style="fill:#e32118;fill-rule:evenodd;stroke-width:1pt;"
       id="rect759" />
    <path
       d="M 0 -3.8147e-05 L 0 496.063 L 265.748 248.031 L 0 -3.8147e-05 z "
       transform="matrix(0.933334,0.000000,0.000000,1.000000,0.000000,-1.525879e-5)"
       style="fill:#5567e4;fill-rule:evenodd;stroke-width:1pt;"
       id="path761" />
  </g>
  <g
     transform="matrix(0.197428,0.000000,0.000000,0.179763,278.0699,174.1726)"
     style="font-size:12;"
     id="g699">
    <path
       d="M 283.465 148.819 L 283.465 591.732 C 283.465 627.165 301.181 662.598 336.614 662.598 L 407.48 662.598 C 425.197 662.598 442.913 698.031 442.913 698.031 C 442.913 698.031 459.851 662.598 478.346 662.598 L 549.213 662.598 C 584.646 662.598 602.362 627.165 602.362 591.732 L 602.362 148.819 L 283.465 148.819 z "
       transform="matrix(1.169841,0.000000,0.000000,1.000000,-85.82144,-3.051758e-5)"
       style="fill:#cccccc;fill-rule:evenodd;stroke:#000000;stroke-width:3.79071;"
       id="path553" />
    <g
       transform="matrix(1.107997,0.000000,0.000000,1.000000,-59.60719,-3.051758e-5)"
       id="g639">
      <g
         transform="matrix(1.061174,0.000000,0.000000,0.999987,-28.55449,-106.2908)"
         id="g582">
        <path
           d="M 215.382 731.788 C 197.361 731.788 179.644 714.071 179.644 696.355 C 179.644 678.093 179.644 625.488 179.644 607.772 C 195.146 623.274 268.227 678.638 250.511 696.355 C 232.794 714.071 214.774 696.355 215.078 696.355 C 215.382 696.355 215.382 731.788 215.382 731.788 z "
           transform="translate(-2.478656,1.676758)"
           style="fill:#cccccc;fill-rule:evenodd;stroke:#000000;stroke-width:1pt;"
           id="path560" />
        <path
           d="M 218.717 687.775 C 236.433 670.059 236.433 705.492 254.15 687.775 L 236.433 794.075 C 219.244 790.745 218.655 794.074 208.726 776.358 C 208.726 758.64 208.726 702.026 218.717 687.775 z "
           transform="translate(-6.118104,10.25616)"
           style="fill:#cccccc;fill-rule:evenodd;stroke-width:1.25;"
           id="path580" />
        <path
           d="M 215.382 731.788 C 197.361 731.788 179.644 714.071 179.644 696.355 C 179.644 678.093 179.644 625.488 179.644 607.772 C 195.146 623.274 268.227 678.638 250.511 696.355 C 232.794 714.071 214.774 696.355 215.078 696.355 C 215.382 696.355 215.382 731.788 215.382 731.788 z "
           transform="matrix(-1.000000,0.000000,0.000000,1.000000,891.0562,1.676529)"
           style="fill:#cccccc;fill-rule:evenodd;stroke:#000000;stroke-width:1pt;"
           id="path579" />
        <path
           d="M 218.717 687.775 C 236.433 670.059 236.433 705.492 254.15 687.775 L 236.433 794.075 C 219.244 790.745 218.655 794.074 208.726 776.358 C 208.726 758.64 208.726 702.026 218.717 687.775 z "
           transform="matrix(-1.000000,0.000000,0.000000,1.000000,891.9453,10.25571)"
           style="fill:#cccccc;fill-rule:evenodd;stroke-width:1.25;"
           id="path581" />
        <path
           d="M 513.78 1140.94 C 513.779 1123.23 478.347 1087.8 478.347 1070.08 C 478.347 1052.36 513.78 1087.8 584.646 1087.8 C 655.512 1087.8 690.946 999.212 673.228 981.496 C 690.945 1016.93 690.945 1052.36 690.945 1070.08 C 690.945 1105.51 655.512 1140.94 584.646 1140.94 C 549.213 1140.94 531.495 1140.94 513.78 1140.94 z "
           transform="translate(-1.144409e-4,-283.4597)"
           style="fill:#cccccc;fill-rule:evenodd;stroke:#000000;stroke-width:1pt;"
           id="path577" />
        <path
           d="M 513.78 1140.94 C 513.779 1123.23 478.347 1087.8 478.347 1070.08 C 478.347 1052.36 513.78 1087.8 584.646 1087.8 C 655.512 1087.8 690.946 999.212 673.228 981.496 C 690.945 1016.93 690.945 1052.36 690.945 1070.08 C 690.945 1105.51 655.512 1140.94 584.646 1140.94 C 549.213 1140.94 531.495 1140.94 513.78 1140.94 z "
           transform="matrix(-1.000000,0.000000,0.000000,1.000000,885.8273,-283.4597)"
           style="fill:#cccccc;fill-rule:evenodd;stroke:#000000;stroke-width:1pt;"
           id="path578" />
        <path
           d="M 549.213 1016.93 C 549.213 999.218 513.78 981.497 513.78 963.779 L 513.78 1052.36 L 549.213 1052.36 L 549.213 1016.93 z "
           transform="matrix(-1.000000,0.000000,0.000000,1.000000,921.2604,-177.1632)"
           style="fill:#cccccc;fill-rule:evenodd;stroke-width:1pt;"
           id="path572" />
        <path
           d="M 549.213 1016.93 C 549.213 999.218 513.78 981.497 513.78 963.779 L 513.78 1052.36 L 549.213 1052.36 L 549.213 1016.93 z "
           transform="translate(-35.43342,-177.1649)"
           style="fill:#cccccc;fill-rule:evenodd;stroke-width:1pt;"
           id="path571" />
        <path
           d="M 371.172 1034.65 C 371.172 1052.36 512.904 1052.36 512.904 1034.65 C 512.904 1052.36 512.904 1087.8 512.904 1105.52 C 512.904 1123.23 371.172 1123.23 371.172 1105.52 C 371.172 1087.8 371.172 1052.36 371.172 1034.65 z "
           transform="translate(0.875511,-194.8863)"
           style="fill:#cccccc;fill-rule:evenodd;stroke:#000000;stroke-width:1pt;"
           id="path565" />
        <path
           d="M 249.634 696.355 C 231.917 714.071 231.917 678.638 214.201 696.355 C 196.484 714.071 231.918 802.654 302.784 802.654 C 373.65 802.654 409.083 767.221 409.083 784.937 C 409.083 802.654 373.65 820.37 373.65 838.087 C 373.65 855.804 515.382 855.804 515.382 838.087 C 515.382 820.37 479.949 802.654 479.949 784.937 C 479.949 767.221 515.382 802.654 586.248 802.654 C 657.114 802.654 692.548 714.071 674.831 696.355 C 657.115 678.638 657.115 714.071 639.398 696.355 "
           transform="translate(-1.602649,1.676758)"
           style="fill:none;fill-rule:evenodd;stroke:#000000;stroke-width:1.25;"
           id="path554" />
      </g>
      <path
         d="M 497.605 890.01 L 497.605 840.603 L 501.366 840.603 L 501.366 890.01 L 497.605 890.01 z "
         transform="matrix(0.897013,-0.442005,0.391587,0.794694,-121.7215,233.9962)"
         style="font-weight:normal;stroke-width:1pt;font-family:helvetica;"
         id="path600" />
      <path
         d="M 488.562 872.686 L 492.327 874.343 C 491.536 879.709 490.115 883.81 488.059 886.64 C 486.016 889.453 483.513 890.856 480.55 890.856 C 477.484 890.856 474.987 889.775 473.06 887.618 C 471.147 885.438 469.687 882.292 468.677 878.185 C 467.68 874.072 467.183 869.655 467.183 864.939 C 467.183 859.791 467.746 855.31 468.872 851.491 C 470.011 847.649 471.62 844.738 473.703 842.76 C 475.799 840.764 478.1 839.763 480.609 839.763 C 483.454 839.763 485.847 841.023 487.788 843.536 C 489.728 846.055 491.079 849.593 491.84 854.154 L 488.135 855.667 C 487.476 852.072 486.52 849.455 485.265 847.816 C 484.01 846.176 482.431 845.36 480.53 845.36 C 478.345 845.36 476.514 846.268 475.04 848.086 C 473.58 849.909 472.551 852.354 471.955 855.431 C 471.362 858.491 471.064 861.649 471.064 864.904 C 471.064 869.103 471.412 872.778 472.11 875.924 C 472.822 879.048 473.921 881.383 475.408 882.936 C 476.898 884.483 478.507 885.26 480.239 885.26 C 482.348 885.26 484.132 884.201 485.596 882.09 C 487.056 879.979 488.046 876.845 488.562 872.686 z "
         transform="matrix(0.927135,-0.374729,0.331985,0.821380,-81.63618,179.0662)"
         style="font-weight:normal;stroke-width:1pt;font-family:helvetica;"
         id="path601" />
      <path
         d="M 457.873 890.01 L 457.873 840.603 L 461.634 840.603 L 461.634 890.01 L 457.873 890.01 z "
         transform="matrix(0.957629,-0.288006,0.255154,0.848396,-28.13263,116.6485)"
         style="font-weight:normal;stroke-width:1pt;font-family:helvetica;"
         id="path602" />
      <path
         d="M 440.199 890.01 L 440.199 846.435 L 430.829 846.435 L 430.829 840.603 L 453.37 840.603 L 453.37 846.435 L 443.96 846.435 L 443.96 890.01 L 440.199 890.01 z "
         transform="matrix(0.996305,-8.588082e-2,7.608473e-2,0.882661,107.3054,-3.282272)"
         style="font-weight:normal;stroke-width:1pt;font-family:helvetica;"
         id="path603" />
      <path
         d="M 405.179 874.136 L 408.731 873.601 C 408.897 876.068 409.288 878.104 409.893 879.698 C 410.516 881.274 411.473 882.55 412.764 883.54 C 414.059 884.506 415.515 884.989 417.131 884.989 C 418.565 884.989 419.833 884.621 420.932 883.879 C 422.032 883.137 422.846 882.125 423.379 880.842 C 423.922 879.542 424.194 878.127 424.194 876.597 C 424.194 875.05 423.935 873.698 423.415 872.554 C 422.899 871.386 422.045 870.408 420.856 869.62 C 420.091 869.103 418.406 868.309 415.794 867.228 C 413.178 866.129 411.35 865.094 410.301 864.128 C 408.943 862.891 407.93 861.367 407.255 859.543 C 406.596 857.703 406.268 855.649 406.268 853.377 C 406.268 850.881 406.675 848.558 407.49 846.401 C 408.304 844.221 409.493 842.57 411.059 841.448 C 412.622 840.327 414.363 839.763 416.277 839.763 C 418.386 839.763 420.24 840.356 421.846 841.546 C 423.462 842.719 424.703 844.445 425.571 846.74 C 426.435 849.029 426.902 851.623 426.968 854.522 L 423.359 854.994 C 423.164 851.871 422.505 849.512 421.379 847.919 C 420.267 846.32 418.618 845.526 416.433 845.526 C 414.155 845.526 412.493 846.257 411.446 847.718 C 410.413 849.156 409.893 850.893 409.893 852.94 C 409.893 854.712 410.264 856.173 410.999 857.323 C 411.724 858.468 413.612 859.647 416.664 860.861 C 419.73 862.051 421.833 863.092 422.969 863.995 C 424.624 865.318 425.849 867.003 426.637 869.051 C 427.425 871.07 427.819 873.405 427.819 876.057 C 427.819 878.685 427.385 881.17 426.521 883.505 C 425.654 885.823 424.405 887.629 422.776 888.935 C 421.161 890.212 419.336 890.856 417.307 890.856 C 414.731 890.856 412.572 890.2 410.827 888.9 C 409.092 887.595 407.728 885.639 406.731 883.034 C 405.748 880.405 405.232 877.443 405.179 874.136 z "
         transform="matrix(1.000000,0.000000,0.000000,0.885934,172.3411,-41.58481)"
         style="font-weight:normal;stroke-width:1pt;font-family:helvetica;"
         id="path604" />
      <path
         d="M 396.431 840.603 L 400.196 840.603 L 400.196 869.149 C 400.196 874.118 399.871 878.058 399.225 880.98 C 398.576 883.902 397.408 886.283 395.712 888.124 C 394.03 889.941 391.819 890.856 389.077 890.856 C 386.412 890.856 384.233 890.056 382.541 888.463 C 380.846 886.864 379.638 884.564 378.913 881.55 C 378.187 878.518 377.827 874.383 377.827 869.149 L 377.827 840.603 L 381.588 840.603 L 381.588 869.114 C 381.588 873.405 381.816 876.574 382.27 878.622 C 382.733 880.641 383.521 882.205 384.634 883.304 C 385.76 884.408 387.13 884.955 388.749 884.955 C 391.514 884.955 393.487 883.868 394.666 881.688 C 395.842 879.508 396.431 875.315 396.431 869.114 L 396.431 840.603 z "
         transform="matrix(0.998965,4.549658e-2,-4.030697e-2,0.885017,205.1411,-59.32185)"
         style="font-weight:normal;stroke-width:1pt;font-family:helvetica;"
         id="path605" />
      <path
         d="M 355.981 875.993 L 359.374 875.182 C 359.467 878.956 359.874 881.544 360.599 882.936 C 361.321 884.328 362.324 885.024 363.606 885.024 C 364.549 885.024 365.364 884.656 366.049 883.914 C 366.735 883.149 367.208 882.125 367.466 880.842 C 367.725 879.542 367.854 877.472 367.854 874.642 L 367.854 840.603 L 371.618 840.603 L 371.618 874.274 C 371.618 878.409 371.327 881.607 370.744 883.879 C 370.175 886.145 369.264 887.877 368.009 889.067 C 366.768 890.258 365.304 890.856 363.626 890.856 C 361.129 890.856 359.215 889.608 357.881 887.112 C 356.563 884.621 355.928 880.911 355.981 875.993 z "
         transform="matrix(1.000000,0.000000,0.000000,0.885934,164.8481,-44.08252)"
         style="font-weight:normal;stroke-width:1pt;font-family:helvetica;"
         id="path606" />
      <path
         d="M 320.325 890.01 L 320.325 883.942 L 334.893 852.302 C 335.926 850.053 336.909 848.097 337.843 846.435 L 321.974 846.435 L 321.974 840.603 L 342.343 840.603 L 342.343 846.435 L 326.377 880.71 L 324.649 884.184 L 342.81 884.184 L 342.81 890.01 L 320.325 890.01 z "
         transform="translate(136.5408,-84.92175)"
         style="font-weight:normal;stroke-width:1pt;font-family:helvetica;"
         id="path607" />
      <path
         d="M 164.268 890.01 L 164.268 840.603 L 168.029 840.603 L 168.029 890.01 L 164.268 890.01 z "
         transform="matrix(0.983392,0.181494,-0.181494,0.983392,249.7245,-160.6504)"
         style="font-weight:normal;stroke-width:1pt;font-family:helvetica;"
         id="path618" />
      <path
         d="M 134.896 890.01 L 134.896 840.603 L 138.757 840.603 L 153.693 879.393 L 153.693 840.603 L 157.302 840.603 L 157.302 890.01 L 153.441 890.01 L 138.502 851.186 L 138.502 890.01 L 134.896 890.01 z "
         transform="matrix(0.880932,0.473243,-0.473243,0.880932,511.8177,-122.6323)"
         style="font-weight:normal;stroke-width:1pt;font-family:helvetica;"
         id="path619" />
      <path
         d="M 124.904 840.603 L 128.668 840.603 L 128.668 869.149 C 128.668 874.118 128.344 878.058 127.698 880.98 C 127.049 883.902 125.88 886.283 124.185 888.124 C 122.503 889.941 120.291 890.856 117.55 890.856 C 114.888 890.856 112.706 890.056 111.014 888.463 C 109.319 886.864 108.11 884.564 107.385 881.55 C 106.66 878.518 106.299 874.383 106.299 869.149 L 106.299 840.603 L 110.064 840.603 L 110.064 869.114 C 110.064 873.405 110.289 876.574 110.743 878.622 C 111.206 880.641 111.997 882.205 113.11 883.304 C 114.232 884.408 115.603 884.955 117.222 884.955 C 119.99 884.955 121.96 883.868 123.139 881.688 C 124.314 879.508 124.904 875.315 124.904 869.114 L 124.904 840.603 z "
         transform="matrix(0.707807,0.706406,-0.706406,0.707807,734.9689,-6.534836)"
         style="font-weight:normal;stroke-width:1pt;font-family:helvetica;"
         id="path620" />
      <path
         d="M 174.664 890.01 L 174.664 840.603 L 184.462 840.603 C 186.673 840.603 188.362 840.839 189.527 841.31 C 191.156 841.966 192.547 843.145 193.696 844.853 C 195.199 847.051 196.315 849.875 197.053 853.308 C 197.805 856.725 198.179 860.636 198.179 865.036 C 198.179 868.792 197.927 872.117 197.421 875.016 C 196.918 877.915 196.272 880.319 195.481 882.228 C 194.693 884.115 193.825 885.61 192.881 886.709 C 191.951 887.785 190.819 888.607 189.488 889.171 C 188.167 889.729 186.647 890.01 184.928 890.01 L 174.664 890.01 z M 178.429 884.184 L 184.501 884.184 C 186.375 884.184 187.845 883.879 188.905 883.269 C 189.978 882.665 190.832 881.808 191.468 880.71 C 192.358 879.157 193.05 877.081 193.544 874.475 C 194.047 871.846 194.299 868.666 194.299 864.939 C 194.299 859.768 193.809 855.805 192.825 853.038 C 191.855 850.254 190.67 848.391 189.272 847.447 C 188.266 846.774 186.644 846.435 184.405 846.435 L 178.429 846.435 L 178.429 884.184 z "
         transform="matrix(0.999617,2.766579e-2,-2.766579e-2,0.999617,119.7559,-146.3625)"
         style="font-weight:normal;stroke-width:1pt;font-family:helvetica;"
         id="path623" />
      <path
         d="M 200.235 890.01 L 211.158 840.603 L 215.211 840.603 L 226.852 890.01 L 222.564 890.01 L 219.247 875.05 L 207.354 875.05 L 204.232 890.01 L 200.235 890.01 z M 208.443 869.724 L 218.085 869.724 L 215.115 856.041 C 214.211 851.882 213.539 848.471 213.098 845.797 C 212.734 848.96 212.224 852.106 211.565 855.23 L 208.443 869.724 z "
         transform="translate(95.74509,-141.5362)"
         style="font-weight:normal;stroke-width:1pt;font-family:helvetica;"
         id="path626" />
      <path
         d="M 229.859 890.01 L 229.859 840.603 L 239.656 840.603 C 241.868 840.603 243.556 840.839 244.722 841.31 C 246.351 841.966 247.741 843.145 248.89 844.853 C 250.39 847.051 251.509 849.875 252.247 853.308 C 252.999 856.725 253.373 860.636 253.373 865.036 C 253.373 868.792 253.122 872.117 252.615 875.016 C 252.112 877.915 251.466 880.319 250.675 882.228 C 249.887 884.115 249.019 885.61 248.076 886.709 C 247.145 887.785 246.013 888.607 244.682 889.171 C 243.361 889.729 241.841 890.01 240.123 890.01 L 229.859 890.01 z M 233.623 884.184 L 239.695 884.184 C 241.57 884.184 243.04 883.879 244.099 883.269 C 245.172 882.665 246.026 881.808 246.659 880.71 C 247.552 879.157 248.244 877.081 248.734 874.475 C 249.241 871.846 249.493 868.666 249.493 864.939 C 249.493 859.768 249.003 855.805 248.019 853.038 C 247.049 850.254 245.864 848.391 244.467 847.447 C 243.46 846.774 241.834 846.435 239.599 846.435 L 233.623 846.435 L 233.623 884.184 z "
         transform="translate(95.74509,-141.5362)"
         style="font-weight:normal;stroke-width:1pt;font-family:helvetica;"
         id="path629" />
      <path
         d="M 269.59 890.01 L 269.59 840.603 L 280.321 840.603 C 282.209 840.603 283.649 840.764 284.645 841.074 C 286.043 841.483 287.215 842.254 288.158 843.404 C 289.102 844.526 289.857 846.107 290.426 848.155 C 291.009 850.197 291.301 852.446 291.301 854.896 C 291.301 859.095 290.529 862.655 288.993 865.577 C 287.453 868.476 284.672 869.925 280.649 869.925 L 273.355 869.925 L 273.355 890.01 L 269.59 890.01 z M 273.355 864.093 L 280.709 864.093 C 283.139 864.093 284.867 863.311 285.887 861.735 C 286.91 860.165 287.42 857.95 287.42 855.097 C 287.42 853.027 287.115 851.267 286.51 849.806 C 285.914 848.322 285.126 847.344 284.142 846.872 C 283.506 846.579 282.338 846.435 280.629 846.435 L 273.355 846.435 L 273.355 864.093 z "
         transform="translate(136.5408,-84.92175)"
         style="font-weight:normal;stroke-width:1pt;font-family:helvetica;"
         id="path632" />
      <path
         d="M 292.969 890.01 L 303.892 840.603 L 307.945 840.603 L 319.586 890.01 L 315.299 890.01 L 311.981 875.05 L 300.088 875.05 L 296.966 890.01 L 292.969 890.01 z M 301.174 869.724 L 310.815 869.724 L 307.849 856.041 C 306.945 851.882 306.269 848.471 305.832 845.797 C 305.468 848.96 304.958 852.106 304.299 855.23 L 301.174 869.724 z "
         transform="translate(136.5408,-84.92175)"
         style="font-weight:normal;stroke-width:1pt;font-family:helvetica;"
         id="path635" />
      <path
         d="M 504.879 890.01 L 515.802 840.603 L 519.855 840.603 L 531.496 890.01 L 527.208 890.01 L 523.891 875.05 L 511.998 875.05 L 508.875 890.01 L 504.879 890.01 z M 513.084 869.724 L 522.725 869.724 L 519.759 856.041 C 518.851 851.882 518.179 848.471 517.742 845.797 C 517.378 848.96 516.868 852.106 516.209 855.23 L 513.084 869.724 z "
         transform="matrix(0.739932,-0.544174,0.547960,0.734819,-179.5935,338.2304)"
         style="font-weight:normal;stroke-width:1pt;font-family:helvetica;"
         id="path638" />
    </g>
    <path
       d="M 419.164 331.777 C 419.229 364.745 439.057 463.404 381.486 616.714 C 377.224 627.841 388.55 633.198 397.97 635.553 C 407.389 637.908 412.099 626.134 412.099 623.779 C 412.099 621.424 414.454 642.618 423.873 640.263 C 433.293 637.908 442.712 623.779 442.712 623.779 C 442.712 623.779 447.422 644.973 459.196 644.973 C 470.97 644.973 470.97 619.069 470.97 619.069 C 470.97 621.424 479.134 641.304 488.553 641.304 C 497.973 641.304 512.482 632.544 504.101 618.16 C 444.269 517.439 447.421 350.616 447.421 331.777 C 447.421 312.938 475.205 278.709 502.839 277.888 L 492.164 261.132 C 485.204 263.267 476.884 264.801 462.755 276.575 C 448.626 288.349 440.357 301.164 440.357 301.164 L 440.357 221.099 L 416.809 221.099 L 419.164 294.1 C 419.164 294.1 411.113 284.661 399.069 274.168 C 387.668 264.234 367.097 264.969 354.432 267.05 L 353.228 283.039 C 368.197 286.162 387.295 279.971 396.715 294.1 C 408.489 305.874 419.129 315.359 419.164 331.777 z "
       transform="matrix(0.723076,0.000000,0.000000,0.800000,123.3166,119.9790)"
       style="fill:#682900;fill-rule:evenodd;stroke:#000000;stroke-width:5.02915;"
       id="path668" />
    <path
       d="M 310.547 312.211 C 310.547 311.934 310.547 311.656 310.547 311.379 C 310.547 313.355 310.48 312.48 311.38 308.881 C 312.157 306.033 313.787 303.358 315.543 301.388 C 318.583 300.374 322.984 301.441 326.366 300.555 C 328.644 297.287 332.194 304.822 332.194 299.722 C 336.537 299.411 336.593 295.163 338.022 293.062 C 342.076 292.562 342.985 287.622 346.348 290.565 C 349.104 291.87 346.754 289.732 351.344 289.732 C 354.057 290.395 355.475 292.052 358.004 290.564 C 358.624 287.713 359.403 284.296 359.669 280.574 C 358.492 278.218 358.837 273.39 358.837 269.75 C 361.111 266.718 365.099 272.226 368.827 271.415 C 369.845 267.853 372.973 267.949 371.325 264.755 C 371.017 260.748 370.245 258.252 371.325 253.932 C 372.639 250.228 374.553 250.325 377.985 248.104 C 379.078 244.827 377.863 242.074 378.818 238.113 C 382.719 237.998 382.65 236.981 382.981 233.118 C 384.241 230.457 385.839 227.762 387.976 225.625 C 389.944 223.243 392.279 223.478 393.804 219.797 C 395.112 216.526 395.115 215.046 398.799 213.969 C 401.495 212.7 403.632 212.558 405.46 210.638 C 407.192 207.582 408.634 205.152 411.288 201.48 C 413.918 199.708 426.525 203.145 430.437 203.145 C 432.555 200.476 435.834 196.286 437.93 194.819 C 441.517 192.903 442.891 192.322 447.92 192.322 C 452.208 193.592 454.002 195.116 458.744 193.987 C 460.676 191.281 462.56 190.022 467.069 191.489 C 470.502 193.71 472.416 193.613 473.73 197.317 C 475.676 201.932 475.238 203.509 480.391 203.978 C 485.572 204.163 486.1 205.42 489.549 208.14 C 494.797 210.39 494.544 209.122 494.544 213.968 C 498.265 213.968 498.596 213.528 498.707 217.299 C 501.001 218.012 503.614 220.017 505.368 221.461 C 507.461 223.877 507.997 225.39 512.861 225.624 C 516.452 224.116 517.611 224.128 517.856 219.796 C 520.606 218.814 521.068 216.161 522.019 213.136 C 524.127 210.251 525.493 209.805 530.344 209.805 C 534.623 211.578 534.483 213.373 533.675 217.299 C 536.339 217.85 537.439 217.538 537.838 220.629 C 539.245 222.975 538.877 225.779 537.005 227.289 C 539.137 228.857 540.374 231.545 541.168 234.782 C 539.757 237.134 540.621 240.591 541.168 243.108 C 544.08 244.564 545.583 245.917 549.493 247.271 C 551.476 248.951 555.692 250.712 559.484 251.434 C 563.965 250.828 565.445 250.866 569.475 253.099 C 571.559 256.092 571.71 259.87 573.638 261.425 C 575.813 263.268 579.456 264.074 581.131 266.42 C 583.909 268.45 584.725 270.701 588.624 271.415 C 590.095 273.643 593.258 277.311 594.452 279.741 C 595.393 282.435 595.813 287.154 596.95 290.564 C 596.95 294.45 596.95 298.335 596.95 302.22 C 596.792 306.524 596.117 309.136 596.117 313.876 C 595.377 316.26 594.452 317.176 594.452 320.537 C 592.87 324.063 591.521 327.026 589.457 329.695 C 588.516 333.93 586.984 335.918 585.294 339.686 C 585.346 344.055 586.126 345.99 586.126 350.509 C 584.316 353.199 582.239 355.156 578.633 357.17 C 575.909 360.357 574.265 361.596 573.638 366.328 C 572.072 369.033 572.195 368.826 568.643 368.826 C 564.443 368.826 560.829 369.201 556.987 369.658 C 553.609 369.658 552.347 370.014 550.326 367.993 C 546.338 366.189 542.981 366.083 538.67 367.16 C 536.345 365.566 535.412 364.663 531.177 364.663 C 528.016 365.09 525.212 365.495 521.186 365.495 C 518.691 362.706 517.289 362.165 512.861 362.165 C 510.505 363.343 505.677 362.998 502.037 362.998 C 498.216 361.955 497.724 360.368 496.209 357.17 C 493.604 355.935 492.574 354.131 488.716 353.839 C 485.077 353.839 480.248 354.184 477.893 353.007 C 475.17 352.68 472.307 351.98 470.4 350.509 C 468.844 348.221 466.86 346.237 464.572 344.681 C 460.874 344.681 458.708 345.036 457.079 343.016 C 454.347 340.859 452.188 337.452 448.753 335.523 C 445.691 333.093 443.617 331.607 442.092 327.197 C 442.092 323.254 442.872 322.323 438.762 322.202 C 436.007 325.014 434.753 325.532 429.604 325.532 C 426.215 325.532 422.673 325.514 420.446 324.7 C 416.765 322.61 415.418 321.687 411.288 321.369 C 408.703 323.014 405.28 324.916 401.297 325.532 C 397.892 327.498 395.86 327.911 394.636 331.36 C 391.491 333.928 389.647 335.438 385.478 337.188 C 383.162 339.397 380.952 339.779 379.65 343.849 C 378.858 347.215 377.985 349.218 377.985 353.839 C 378.575 358.207 378.346 360.076 376.32 363.83 C 374.579 366.316 371.563 367.53 368.827 369.658 C 364.711 370.152 364.279 369.844 361.334 367.993 C 358.401 367.016 355.068 366.213 351.343 365.495 C 346.847 364.629 345.326 363.534 343.017 361.333 L 351.343 365.495 C 346.847 364.629 345.326 363.534 343.017 361.333 C 337.953 357.75 336.954 355.935 331.361 355.505 C 326.163 355.566 323.932 355.823 323.036 360.5 C 325.997 361.289 323.645 363.054 322.203 363.83 C 320.125 365.682 316.792 367.198 313.877 367.993 C 312.549 369.321 312.805 366.892 310.547 366.328 C 307.099 364.486 305.657 363.102 302.221 362.165 C 300.538 359.194 298.637 356.891 296.393 353.839 C 294.659 351.021 293.011 350.001 290.565 347.179 C 289.396 345.425 286.406 345.35 284.738 343.849 C 283.737 340.847 281.569 335.279 282.24 332.193 C 283.919 330.607 284.872 324.95 287.235 323.867 C 290.602 321.342 291.87 323.644 296.394 323.867 C 300.653 323.867 290.528 317.157 294.729 317.207 C 298.649 316.541 299.116 314.612 300.556 312.211 C 303.887 312.211 307.217 312.211 310.547 312.211 z "
       transform="matrix(1.000000,0.000000,0.000000,0.823253,-6.660537,55.38220)"
       style="fill:#009200;fill-rule:evenodd;stroke:#000000;stroke-width:4.46363;"
       id="path670" />
    <path
       d="M 382.98 253.099 C 383.858 253.812 387.664 255.597 391.306 255.597 C 395.282 256.325 396.149 257.813 397.134 261.425 C 399.308 262.729 400.684 263.09 404.627 263.09 C 408.986 263.961 408.949 265.302 412.12 268.085 "
       transform="translate(-6.660537,-3.330338)"
       style="fill:none;fill-rule:evenodd;stroke:#006800;stroke-width:4.05;"
       id="path671" />
    <path
       d="M 358.836 299.723 C 360.648 299.989 366.99 300.555 371.324 300.555 C 374.657 298.631 376.236 297.315 378.817 295.56 C 382.76 295.56 384.137 295.921 386.311 297.225 C 388.416 297.927 393.363 298.188 395.469 298.89 C 395.469 300 395.191 299.723 396.301 299.723 "
       transform="translate(-6.660537,-3.330338)"
       style="fill:none;fill-rule:evenodd;stroke:#006800;stroke-width:4.05;"
       id="path672" />
    <path
       d="M 391.306 286.402 C 391.371 286.377 394.558 284.456 397.134 283.904 C 399.969 281.928 403.08 280.965 406.292 279.741 C 408.409 279.281 413.394 279.293 414.618 278.909 "
       transform="translate(-6.660537,-3.330338)"
       style="fill:none;fill-rule:evenodd;stroke:#006800;stroke-width:4.05;"
       id="path673" />
    <path
       d="M 432.102 273.913 C 432.102 274.191 432.102 274.468 432.102 274.746 C 432.102 272.419 431.998 273.655 433.767 278.076 C 434.641 282.154 435.716 285.602 437.097 288.899 C 439.552 292.729 441.155 294.446 444.59 296.392 C 447.529 298.708 449.754 301.116 452.916 302.22 C 455.118 304.183 458.022 305.804 461.241 307.216 C 465.512 307.216 468.799 307.902 472.897 308.048 C 473.73 308.048 474.563 308.048 475.395 308.048 "
       transform="translate(-6.660537,-3.330338)"
       style="fill:none;fill-rule:evenodd;stroke:#006800;stroke-width:4.05;"
       id="path674" />
    <path
       d="M 477.06 227.289 C 477.06 227.567 477.06 227.844 477.06 228.122 C 477.06 225.875 477.115 227.017 476.228 231.452 C 474.971 234.106 473.523 236.576 472.065 238.945 C 468.15 240.364 466.691 243.222 465.404 246.438 C 464.032 248.669 461.899 251.608 460.409 253.931 C 457.82 257.142 456.787 258.173 452.083 259.759 "
       transform="translate(-6.660537,-3.330338)"
       style="fill:none;fill-rule:evenodd;stroke:#006800;stroke-width:4.05;"
       id="path676" />
    <path
       d="M 510.363 244.773 C 510.363 245.017 508.826 247.207 507.865 249.769 C 506.212 252.205 505.79 256.63 505.368 259.759 C 505.368 263.377 505.389 267.316 506.2 269.75 C 508.716 272.871 509.358 274.514 513.693 276.411 L 506.2 269.75 C 508.716 272.871 509.358 274.514 513.693 276.411 "
       transform="translate(-6.660537,-3.330338)"
       style="fill:none;fill-rule:evenodd;stroke:#006800;stroke-width:4.05;"
       id="path677" />
    <path
       d="M 571.14 273.913 C 571.14 274.191 571.14 274.468 571.14 274.746 C 571.14 272.136 571.357 273.74 566.977 277.243 C 563.725 280.242 561.405 282.659 558.652 284.736 C 553.92 285.991 553.197 285.918 548.661 285.569 C 546.163 285.569 543.666 285.569 541.168 285.569 "
       transform="translate(-6.660537,-3.330338)"
       style="fill:none;fill-rule:evenodd;stroke:#006800;stroke-width:4.05;"
       id="path678" />
    <path
       d="M 582.796 337.188 C 582.519 337.188 582.241 337.188 581.964 337.188 C 584.291 337.188 583.053 337.085 578.633 338.853 C 574.941 339.776 570.754 339.835 567.81 338.853 C 564.844 337.172 561.855 335.798 559.484 333.025 C 558.243 332.095 558.064 331.719 556.987 331.36 "
       transform="translate(-6.660537,-3.330338)"
       style="fill:none;fill-rule:evenodd;stroke:#006800;stroke-width:4.05;"
       id="path679" />
    <path
       d="M 553.656 362.998 C 553.656 362.72 553.656 362.443 553.656 362.165 C 553.656 364.775 553.873 363.171 549.493 359.667 C 547.621 356.914 545.745 355.873 542 353.007 C 538.764 349.094 538.341 347.526 537.005 343.016 C 536.649 339.693 535.55 336.282 537.005 333.858 "
       transform="translate(-6.660537,-3.330338)"
       style="fill:none;fill-rule:evenodd;stroke:#006800;stroke-width:4.05;"
       id="path680" />
    <path
       d="M 492.046 348.844 C 493.856 348.844 500.606 348.685 503.702 348.011 C 506.12 346.368 508.796 345.265 512.028 343.849 C 513.792 339.489 515.298 338.04 515.358 333.025 "
       transform="translate(-6.660537,-3.330338)"
       style="fill:none;fill-rule:evenodd;stroke:#006800;stroke-width:4.05;"
       id="path681" />
    <path
       d="M 441.26 323.867 C 440.608 322.384 437.716 316.431 436.265 313.044 C 436.2 309.406 435.432 306.759 435.432 303.053 "
       transform="translate(-6.660537,-3.330338)"
       style="fill:none;fill-rule:evenodd;stroke:#006800;stroke-width:4.05;"
       id="path682" />
    <path
       d="M 328.864 350.509 C 329.703 350.635 333.239 350.912 335.524 350.509 C 339.159 348.648 342.546 348.304 346.347 348.011 C 348.28 346.852 351.433 346.98 353.008 345.514 C 356.482 343.198 356.945 340.869 358.836 337.188 C 359.003 335.515 359.501 334.698 359.668 333.025 "
       transform="translate(-6.660537,-3.330338)"
       style="fill:none;fill-rule:evenodd;stroke:#006800;stroke-width:4.05;"
       id="path683" />
    <path
       d="M 383.813 338.021 C 381.985 338.021 375.155 338.146 371.324 337.188 C 369.357 335.915 367.961 333.824 366.329 332.193 C 367.439 332.193 367.162 332.47 367.162 331.36 "
       transform="translate(-6.660537,-3.330338)"
       style="fill:none;fill-rule:evenodd;stroke:#006800;stroke-width:4.05;"
       id="path684" />
    <path
       d="M 393.804 313.876 C 394.157 313.77 398.289 312.211 401.297 312.211 C 403.087 311.053 406.057 309.974 408.79 308.881 C 410.271 308.084 411.294 307.094 412.953 306.383 "
       transform="translate(-6.660537,-3.330338)"
       style="fill:none;fill-rule:evenodd;stroke:#006800;stroke-width:4.05;"
       id="path685" />
    <path
       d="M 293.063 347.179 C 293.341 347.179 293.618 347.179 293.896 347.179 C 291.647 347.179 292.796 347.232 297.226 346.346 C 302.406 346.026 305.892 344.235 309.715 343.016 C 312.211 340.698 315.654 338.381 318.04 337.188 C 318.04 335.765 317.699 335.914 318.873 335.523 "
       transform="translate(-6.660537,-3.330338)"
       style="fill:none;fill-rule:evenodd;stroke:#006800;stroke-width:4.05;"
       id="path686" />
    <path
       d="M 504.535 301.388 C 504.812 301.388 505.09 301.388 505.368 301.388 C 503.04 301.388 504.278 301.285 508.698 303.053 C 512.215 304.399 515.393 304.834 518.689 305.551 C 521.682 306.282 522.816 307.216 527.014 307.216 C 531.204 309.042 532.118 309.613 535.34 312.211 C 537.805 313.379 539.561 313.876 543.666 313.876 C 545.844 312.67 549.827 311.267 551.991 310.546 C 553.202 309.638 553.284 309.996 553.656 308.881 "
       transform="translate(-6.660537,-3.330338)"
       style="fill:none;fill-rule:evenodd;stroke:#006800;stroke-width:4.05;"
       id="path687" />
    <path
       d="M 430.938 469.536 C 430.938 472.178 430.938 482.158 430.938 488.375 C 430.938 494.392 430.381 499.652 428.583 504.859 C 428.583 510.734 428.506 516.413 426.228 520.165 C 425.827 525.783 425.051 530.644 425.051 536.649 C 423.346 541.765 423.547 548.693 422.696 554.311 C 421.958 559.819 421.303 566.371 420.341 570.795 C 418.587 574.479 415.596 581.144 413.277 583.746 C 412.989 588.831 411.745 591.334 413.277 595.521 C 414.918 600.443 414.454 606.371 414.454 612.005 C 415.991 616.616 415.632 622.009 415.632 627.311 "
       transform="translate(6.660538,-6.660568)"
       style="fill:none;fill-rule:evenodd;stroke:#000000;stroke-width:1pt;"
       id="path688" />
    <path
       d="M 436.825 493.084 C 437.183 495.445 438.943 503.957 439.18 509.568 C 439.18 518.203 439.18 526.837 439.18 535.472 C 439.18 541.771 439.712 547.323 440.358 553.133 C 440.274 560.076 439.012 562.673 435.648 568.44 C 434.986 573.999 433.955 579.364 433.293 584.924 C 431.652 589.847 432.116 595.774 432.116 601.408 C 433.52 607.73 435.819 608.861 436.825 614.359 C 436.825 617.718 437.146 619.425 438.003 621.424 "
       transform="translate(6.660538,-6.660568)"
       style="fill:none;fill-rule:evenodd;stroke:#000000;stroke-width:1pt;"
       id="path689" />
    <path
       d="M 447.422 535.472 C 447.422 537.627 447.282 548.004 448.6 551.956 C 448.6 557.979 449.706 562.5 449.777 568.44 C 449.063 573.721 448.324 577.524 445.067 580.214 C 442.923 584.572 441.753 588.449 441.535 594.343 C 444.578 596.473 447.884 602.422 450.954 604.94 C 453.521 610.301 455.91 610.53 456.842 616.714 C 459.3 619.446 455.109 620.868 456.842 622.601 C 458.752 625.149 457.529 624.07 456.842 626.134 "
       transform="translate(6.660538,-6.660568)"
       style="fill:none;fill-rule:evenodd;stroke:#000000;stroke-width:1pt;"
       id="path690" />
    <polygon
       points="93.2475,-0.00193787 77.2622,-25.5989 47.102,-26.6441 61.2769,-53.2862 47.102,-79.9283 77.2622,-80.9735 93.2475,-106.57 109.233,-80.9735 139.393,-79.9283 125.218,-53.2862 139.393,-26.644 109.233,-25.5989 93.2475,-0.00193787 "
       transform="matrix(0.791712,0.000000,0.000000,0.792844,405.2503,101.1431)"
       style="fill:#ffd100;fill-rule:evenodd;stroke:#000000;stroke-width:3.125;"
       id="polygon693" />
    <polygon
       points="93.2475,-0.00193787 77.2622,-25.5989 47.102,-26.6441 61.2769,-53.2862 47.102,-79.9283 77.2622,-80.9735 93.2475,-106.57 109.233,-80.9735 139.393,-79.9283 125.218,-53.2862 139.393,-26.644 109.233,-25.5989 93.2475,-0.00193787 "
       transform="matrix(0.791712,0.000000,0.000000,0.792844,307.6955,101.1431)"
       style="fill:#ffd100;fill-rule:evenodd;stroke:#000000;stroke-width:3.125;"
       id="polygon694" />
    <polygon
       points="93.2475,-0.00193787 77.2622,-25.5989 47.102,-26.6441 61.2769,-53.2862 47.102,-79.9283 77.2622,-80.9735 93.2475,-106.57 109.233,-80.9735 139.393,-79.9283 125.218,-53.2862 139.393,-26.644 109.233,-25.5989 93.2475,-0.00193787 "
       transform="matrix(0.785044,-0.102681,0.102534,0.786166,224.1363,128.8447)"
       style="fill:#ffd100;fill-rule:evenodd;stroke:#000000;stroke-width:3.125;"
       id="polygon695" />
    <polygon
       points="93.2475,-0.00193787 77.2622,-25.5989 47.102,-26.6441 61.2769,-53.2862 47.102,-79.9283 77.2622,-80.9735 93.2475,-106.57 109.233,-80.9735 139.393,-79.9283 125.218,-53.2862 139.393,-26.644 109.233,-25.5989 93.2475,-0.00193787 "
       transform="matrix(-0.785044,-0.102681,-0.102534,0.786166,644.3694,126.2043)"
       style="fill:#ffd100;fill-rule:evenodd;stroke:#000000;stroke-width:3.125;"
       id="polygon696" />
    <polygon
       points="93.2475,-0.00193787 77.2622,-25.5989 47.102,-26.6441 61.2769,-53.2862 47.102,-79.9283 77.2622,-80.9735 93.2475,-106.57 109.233,-80.9735 139.393,-79.9283 125.218,-53.2862 139.393,-26.644 109.233,-25.5989 93.2475,-0.00193787 "
       transform="matrix(-0.747182,-0.262149,-0.261775,0.748251,719.3617,181.3000)"
       style="fill:#ffd100;fill-rule:evenodd;stroke:#000000;stroke-width:3.125;"
       id="polygon697" />
    <polygon
       points="93.2475,-0.00193787 77.2622,-25.5989 47.102,-26.6441 61.2769,-53.2862 47.102,-79.9283 77.2622,-80.9735 93.2475,-106.57 109.233,-80.9735 139.393,-79.9283 125.218,-53.2862 139.393,-26.644 109.233,-25.5989 93.2475,-0.00193787 "
       transform="matrix(0.747182,-0.262149,0.261775,0.748251,146.5073,176.0193)"
       style="fill:#ffd100;fill-rule:evenodd;stroke:#000000;stroke-width:3.125;"
       id="polygon698" />
  </g>
</svg>
