<?xml version="1.0" encoding="UTF-8" standalone="no"?>
<!DOCTYPE svg PUBLIC "-//W3C//DTD SVG 20010904//EN"
"http://www.w3.org/TR/2001/REC-SVG-20010904/DTD/svg10.dtd"
[
 <!ATTLIST svg
  xmlns:xlink CDATA #FIXED "http://www.w3.org/1999/xlink">
]>
<!-- Created with Sodipodi ("http://www.sodipodi.com/") -->

<!--

<rdf:RDF xmlns="http://web.resource.org/cc/"
    xmlns:dc="http://purl.org/dc/elements/1.1/"
    xmlns:rdf="http://www.w3.org/1999/02/22-rdf-syntax-ns#">
<Work rdf:about="">
   <dc:title>SVG graphic of Eritrea's Flag</dc:title>
   <dc:rights><Agent>
      <dc:title>Andrew Duhan</dc:title>
   </Agent></dc:rights>
   <license rdf:resource="http://web.resource.org/cc/PublicDomain" />
</Work>

<License rdf:about="http://web.resource.org/cc/PublicDomain">
   <permits rdf:resource="http://web.resource.org/cc/Reproduction" />
   <permits rdf:resource="http://web.resource.org/cc/Distribution" />
   <permits rdf:resource="http://web.resource.org/cc/DerivativeWorks" />
</License>

</rdf:RDF>

-->


<svg
   id="svg678"
   sodipodi:version="0.32"
   xmlns="http://www.w3.org/2000/svg"
   xmlns:sodipodi="http://sodipodi.sourceforge.net/DTD/sodipodi-0.dtd"
   xmlns:xlink="http://www.w3.org/1999/xlink"
   width="500pt"
   height="250pt"
   sodipodi:docbase="/home/andrew/sodipodi-flags/work"
   sodipodi:docname="/home/andrew/sodipodi-flags/work/eritrea.svg">
  <defs
     id="defs680" />
  <sodipodi:namedview
     id="base" />
  <rect
     style="font-size:12;fill:#be0027;fill-rule:evenodd;stroke-width:1pt;fill-opacity:1;"
     id="rect686"
     width="625.000000"
     height="312.500000"
     x="0.000000"
     y="0.000000" />
  <path
     style="fill:#f3e295;fill-rule:evenodd;stroke:none;stroke-opacity:1;stroke-width:1pt;stroke-linejoin:miter;stroke-linecap:butt;fill-opacity:1;"
     d="M 145.726 954.366 C 140.413 955.833 137.367 959.955 137.445 963.844 L 163.597 963.739 C 163.832 959.56 160.394 955.695 155.16 954.173 C 180.765 953.644 203.009 944.053 207.051 937.899 C 203.051 936.163 198.426 938.957 195.129 938.314 C 202.957 934.696 226.41 919.516 222.597 903.242 C 219.633 912.281 210.654 919.76 206.83 921.768 C 215.591 908.465 227.554 894.615 217.175 883.89 C 217.699 890.106 213.225 896.947 211.249 897.461 C 216.331 883.405 221.18 865.757 210.169 854.123 C 211.615 858.328 211.031 870.19 209.04 870.723 C 208.427 861.165 206.796 841.061 196.73 841.347 C 199.927 844.193 201.326 851.961 201.397 859.807 C 199.103 854.432 196.496 850.385 190.92 846.416 C 186.409 837.765 178.383 830.597 170.356 825.462 C 171.257 831.759 172.003 836.727 180.795 843.258 C 176.211 842.973 171.628 834.283 166.729 834.042 C 162.832 833.854 159.774 837.573 153.406 835.433 C 154.111 837.535 157.082 838.466 157.709 840.021 C 156.345 840.963 153.107 839.874 150.415 838.472 C 154.118 843.516 159.856 846.482 164.727 845.481 C 170.52 844.367 176.731 844.956 182.655 848.327 C 181.142 849.104 175.253 849.099 171.474 848.626 C 174.909 852.104 177.213 854.409 183.186 854.371 C 188.521 854.336 191.318 851.525 192.688 853.266 C 196.034 857.231 198.286 861.194 201.085 865.862 C 194.902 866.545 196.766 858.869 189.88 854.943 C 186.011 862.951 194.33 872.444 199.993 876.39 C 200.069 882.409 200.949 887.445 203.502 892.028 C 205.223 895.259 207.448 898.566 206.609 905.858 C 203.219 903.389 199.906 895.062 201.125 888.452 C 196.882 889.609 195.223 897.07 197.223 900.826 C 198.717 903.685 199.714 909.157 197.991 911.603 C 196.312 913.882 196.136 913.627 196.158 918.518 C 196.218 921.445 194.583 924.906 191.92 927.319 C 192.476 925.257 193.11 921.709 192.494 919.491 C 190.389 923.062 185.108 926.757 183.445 930.596 C 181.812 934.444 181.398 941.109 173.495 942.646 C 163.328 944.664 159.819 946.426 153.277 949.103 C 152.551 944.134 154.724 933.772 158.879 934.363 C 162.936 935.085 175.236 930.125 170.836 919.763 C 169.967 923.029 167.068 926.216 163.934 926.357 C 167.32 921.964 173.363 917.415 170.42 910.054 C 168.784 913.183 166.211 916.938 162.309 919.051 C 166.492 911.035 162.795 908.637 157.828 915.239 C 155.952 917.786 154.819 922.89 153.627 929.372 C 151.676 924.1 151.805 917.16 149.493 911.525 C 147.078 905.431 152.698 903.822 155.343 904.311 C 161.819 906.04 172.642 906.039 171.838 895.34 C 169.041 898.959 164.136 900.077 158.839 898.774 C 164.788 894.43 169.485 886.259 162.856 881.993 C 162.635 886.517 159.134 891.589 154.46 893.925 C 153.366 890.108 153.366 886.057 154.304 881.616 C 151.694 884.363 149.788 890.079 148.272 896.577 C 148.158 890.154 149.373 885.526 150.274 882.071 C 151.64 877.024 155.035 880.308 160.232 880.68 C 165.237 880.964 172.128 878.198 170.811 871.411 C 169.102 874.096 165.594 875.141 162.01 874.857 C 166.325 872.243 173.843 867.598 169.72 860.453 C 167.988 863.159 167.427 865.474 162.414 866.304 C 163.727 863.284 163.945 859.014 167.836 857.322 C 160.895 855.94 156.921 860.495 154.901 867.629 C 154.082 862.683 153.107 860.862 152.913 857.244 C 156.665 853.077 157.058 844.925 148.935 843.102 C 148.453 847.307 148.596 848.309 149.52 851.733 C 145.707 849.468 140.333 848.218 136.755 851.421 C 139.179 854.037 142.931 856.34 148.714 853.487 C 147.348 857.956 143.795 857.191 138.913 855.487 C 141.897 861.092 145.663 862.088 149.819 861.442 C 151.995 867.179 152.091 871.538 145.732 879.893 C 146.026 874.701 145.657 870.833 141.532 866.635 C 137.997 863.173 135.124 866.783 140.648 874.48 C 137.297 872.012 133.504 867.003 132.362 861.995 C 131.257 868.182 132.252 875.474 135.677 879.562 C 134.057 881.293 132.215 879.378 129.49 875.143 C 130.521 888.696 136.303 891.311 144.074 888.29 C 144.295 895.729 144.295 902.617 144.737 911.603 C 140.206 905.085 134.462 900.223 131.257 899.008 C 130.263 902.654 134.02 907.404 136.119 910.056 C 132.915 909.393 125.954 904.09 125.954 904.09 C 125.254 910.13 133.063 915.728 138.108 918.232 C 132.179 917.974 129.563 915.728 125.733 912.045 C 125.807 928.802 143.889 925.892 147.278 923.314 C 147.72 931.564 148.35 941.101 148.792 949.351 C 143.68 948.459 144.082 946.922 139.708 946.517 C 127.568 946.044 117.938 931.944 114.749 921.572 C 113.834 923.279 114.56 925.065 113.723 927.162 C 111.752 922.071 109.234 915.496 105.857 912.436 C 106.717 915.404 106.808 918.42 106.509 923.967 C 105.35 920.373 104.272 919.271 104.194 915.052 C 104.268 911.813 107.319 909.423 107.15 904.867 C 107.025 901.541 103.991 894.332 103.545 888.751 C 102.076 894.495 101.154 900.55 98.904 904.106 C 100.022 897.972 99.6636 893.739 101.555 889.611 C 103.74 885.265 105.598 881.385 104.143 876.999 C 102.748 878.693 103.228 880.232 99.7231 884.348 C 98.9618 879.872 104.255 872.708 109.392 869.828 C 113.015 867.919 117.582 861.091 114.607 856.411 C 111.2 858.858 109.67 862.164 104.857 867.813 C 108.29 854.393 117.21 850.882 127.889 850.836 C 130.252 850.825 135.016 849.972 136.353 846.845 C 133.343 848.007 129.784 848.155 126.617 847.521 C 128.922 844.137 133.776 844.577 138.299 844.557 C 141.847 844.54 147.386 844.059 149.625 839.006 C 145.297 840.881 138.547 841.271 134.297 839.943 C 141.056 836.441 151.643 836.064 157.073 831.468 C 150.884 826.849 135.397 832.544 125.615 839.253 C 128.349 836.753 132.67 832.318 135.054 828.738 C 129.704 826.173 116.174 841.162 111.513 850.068 C 107.086 852.568 105.315 856.487 103.596 859.222 C 105.955 851.251 106.205 845.467 108.173 838.903 C 92.9976 844.127 99.3054 872.166 96.0045 878.874 C 96.393 871.468 96.0784 861.954 93.0293 857.048 C 88.3551 860.614 87.9779 881.602 92.3663 899.075 C 90.7816 894.399 87.7906 890.034 86.831 884.343 C 79.9132 896.96 90.8863 911.845 100.062 923.603 C 93.1542 920.005 86.3242 912.266 81.8378 905.778 C 83.0761 928.36 106.658 933.052 110.319 938.602 C 105.35 936.289 95.8504 931.712 91.8194 936.508 C 98.3816 938.023 103.616 939.774 107.834 942.539 C 113.954 950.18 125.543 953.522 145.726 954.366 z "
     id="path687"
     sodipodi:nodetypes="cccccccccccccccccscccsccsccccsccscsccsscsccccscsscccccccsccccccccccccccccccccccccccccscccccsccsccsccsccscccccccccccccccccc"
     transform="translate(0.000000,-739.8621)" />
  <path
     style="fill:#b4d7f4;fill-rule:evenodd;stroke:none;stroke-opacity:1;stroke-width:1pt;stroke-linejoin:miter;stroke-linecap:butt;fill-opacity:1;"
     d="M 0 741.698 L 625.001 741.893 L 624.962 897.351 L 0 741.698 z "
     id="path684"
     transform="matrix(0.999998,0.000000,0.000000,-1.003844,0.000000,1057.049)" />
  <path
     style="fill:#239e46;fill-rule:evenodd;stroke:none;stroke-opacity:1;stroke-width:1pt;stroke-linejoin:miter;stroke-linecap:butt;fill-opacity:1;"
     d="M 0 741.698 L 625.001 741.893 L 624.962 897.351 L 0 741.698 z "
     id="path685"
     transform="matrix(0.999998,0.000000,0.000000,1.003835,0.000000,-744.5422)" />
</svg>
