<?xml version="1.0" encoding="UTF-8" standalone="no"?>
<!DOCTYPE svg PUBLIC "-//W3C//DTD SVG 20010904//EN"
"http://www.w3.org/TR/2001/REC-SVG-20010904/DTD/svg10.dtd">
<!-- Created with Sodipodi ("http://www.sodipodi.com/") -->
<svg
   version="1"
   x="0"
   y="0"
   width="280mm"
   height="140mm"
   id="svg378"
   xmlns="http://www.w3.org/2000/svg"
   xmlns:sodipodi="http://sodipodi.sourceforge.net/DTD/sodipodi-0.dtd"
   xmlns:xlink="http://www.w3.org/1999/xlink"
   sodipodi:version="0.32"
   sodipodi:docname="/home/cschalle/sodipodi-flags/nations/ethiopia.svg"
   sodipodi:docbase="/home/cschalle/sodipodi-flags/nations/">
  <sodipodi:namedview
     id="base"
     showgrid="true"
     gridoriginy="-9mm"
     gridspacingx="15mm"
     gridspacingy="15mm" />
  <defs
     id="defs380" />
  <rect
     width="991.835518"
     height="475.888702"
     x="1.923095"
     y="9.689585"
     style="font-size:12;fill:#ffc621;fill-rule:evenodd;stroke-width:1pt;fill-opacity:1;"
     id="rect171" />
  <rect
     width="993.181774"
     height="161.972667"
     x="0.000000"
     y="333.636009"
     style="font-size:12;fill:#ef2118;fill-rule:evenodd;stroke-width:1pt;fill-opacity:1;"
     id="rect289" />
  <rect
     width="991.931580"
     height="172.003098"
     x="1.923121"
     y="6.346151"
     style="font-size:12;fill:#298c08;fill-rule:evenodd;stroke-width:1pt;fill-opacity:1;"
     id="rect288" />
  <ellipse
     cx="534.221802"
     cy="352.967804"
     rx="199.651794"
     ry="199.651764"
     style="font-size:12;fill:#006bc6;fill-rule:evenodd;stroke-width:1pt;fill-opacity:1;"
     id="path316"
     transform="matrix(0.515258,0.000000,0.000000,0.515257,204.6805,77.01319)" />
  <path
     d="M 445.21 211.89 L 433.281 220.276 L 476.853 281.516 L 488.475 274.105 L 445.21 211.89 z M 499.754 356.441 L 481.837 343.948 L 489.241 320.439 L 399.994 321.685 L 374.162 301.907 L 495.992 300.594 L 518.586 232.144 L 530.723 259.821 L 499.754 356.441 z M 641.67 225.361 L 630.071 216.524 L 584.86 276.564 L 595.437 285.403 L 641.67 225.361 z M 520.357 321.034 L 526.853 300.179 L 551.5 300.134 L 523.344 215.435 L 534.393 184.834 L 572.457 300.573 L 644.534 301.427 L 621.819 321.36 L 520.357 321.034 z M 688.516 415.925 L 693.365 402.173 L 622.344 377.578 L 617.179 390.357 L 688.516 415.925 z M 560.218 329.843 L 582.06 329.622 L 589.671 353.065 L 661.635 300.266 L 694.15 301.386 L 595.687 373.145 L 617.002 442.003 L 591.058 426.504 L 560.218 329.843 z M 523.591 519.158 L 538.171 519.371 L 538.845 444.215 L 525.086 443.393 L 523.591 519.158 z M 564.288 370.114 L 571.459 390.747 L 551.665 405.432 L 624.648 456.813 L 633.951 487.989 L 534.55 417.535 L 476.078 459.687 L 482.499 430.156 L 564.288 370.114 z M 372.771 394.197 L 377.083 408.127 L 448.755 385.495 L 445.275 372.157 L 372.771 394.197 z M 527.091 386.742 L 509.694 399.949 L 489.6 385.676 L 463.345 470.982 L 436.582 489.481 L 472.793 373.149 L 414.606 330.604 L 444.674 327.565 L 527.091 386.742 z "
     style="font-size:12;fill:#ffc621;fill-rule:evenodd;stroke-width:1pt;fill-opacity:1;"
     id="path322"
     transform="matrix(0.515258,0.000000,0.000000,0.515257,204.6805,77.01319)" />
</svg>
