<?xml version="1.0" encoding="UTF-8" standalone="no"?>
<!DOCTYPE svg PUBLIC "-//W3C//DTD SVG 1.0//EN"
"http://www.w3.org/TR/2001/REC-SVG-20010904/DTD/svg10.dtd">
<!-- Created with Sodipodi ("http://www.sodipodi.com/") -->
<svg
   id="svg559"
   sodipodi:version="0.33pre"
   xmlns="http://www.w3.org/2000/svg"
   xmlns:sodipodi="http://sodipodi.sourceforge.net/DTD/sodipodi-0.dtd"
   xmlns:xlink="http://www.w3.org/1999/xlink"
   width="233.33mm"
   height="140mm"
   sodipodi:docbase="/home/tobias/Desktop/Flags"
   sodipodi:docname="/home/tobias/Desktop/Flags/grenada.svg">
  <defs
     id="defs561" />
  <sodipodi:namedview
     id="base" />
  <rect
     style="font-size:12;fill:#ff0000;fill-rule:evenodd;stroke-width:1pt;fill-opacity:1;"
     id="rect575"
     width="826.759827"
     height="496.062947"
     x="0.000000"
     y="-0.000174" />
  <polygon
     sodipodi:type="star"
     style="font-size:12;fill:#ffce00;fill-opacity:1;fill-rule:evenodd;stroke-width:1pt;"
     id="polygon578"
     sodipodi:sides="5"
     sodipodi:cx="239.282196"
     sodipodi:cy="33.5711517"
     sodipodi:r1="29.2232857"
     sodipodi:r2="11.4137974"
     sodipodi:arg1="0.94336361"
     sodipodi:arg2="1.57168210"
     points="256.438,57.2285 239.272,44.9849 222.084,57.1981 228.424,37.0886 211.497,24.516 232.582,24.3313 239.308,4.34788 245.999,24.3431 267.083,24.5653 250.134,37.1078 256.438,57.2285 "
     transform="translate(4.768372e-6,-1.525879e-5)" />
  <polygon
     sodipodi:type="star"
     style="font-size:12;fill:#ffce00;fill-opacity:1;fill-rule:evenodd;stroke-width:1pt;"
     id="polygon579"
     sodipodi:sides="5"
     sodipodi:cx="239.282196"
     sodipodi:cy="33.5711517"
     sodipodi:r1="29.2232857"
     sodipodi:r2="11.4137974"
     sodipodi:arg1="0.94336361"
     sodipodi:arg2="1.57168210"
     points="256.438,57.2285 239.272,44.9849 222.084,57.1981 228.424,37.0886 211.497,24.516 232.582,24.3313 239.308,4.34788 245.999,24.3431 267.083,24.5653 250.134,37.1078 256.438,57.2285 "
     transform="translate(172.1351,0.510773)" />
  <polygon
     sodipodi:type="star"
     style="font-size:12;fill:#ffce00;fill-opacity:1;fill-rule:evenodd;stroke-width:1pt;"
     id="polygon581"
     sodipodi:sides="5"
     sodipodi:cx="239.282196"
     sodipodi:cy="33.5711517"
     sodipodi:r1="29.2232857"
     sodipodi:r2="11.4137974"
     sodipodi:arg1="0.94336361"
     sodipodi:arg2="1.57168210"
     points="256.438,57.2285 239.272,44.9849 222.084,57.1981 228.424,37.0886 211.497,24.516 232.582,24.3313 239.308,4.34788 245.999,24.3431 267.083,24.5653 250.134,37.1078 256.438,57.2285 "
     transform="translate(344.3872,0.233826)" />
  <polygon
     sodipodi:type="star"
     style="font-size:12;fill:#ffce00;fill-opacity:1;fill-rule:evenodd;stroke-width:1pt;"
     id="polygon583"
     sodipodi:sides="5"
     sodipodi:cx="239.282196"
     sodipodi:cy="33.5711517"
     sodipodi:r1="29.2232857"
     sodipodi:r2="11.4137974"
     sodipodi:arg1="0.94336361"
     sodipodi:arg2="1.57168210"
     points="256.438,57.2285 239.272,44.9849 222.084,57.1981 228.424,37.0886 211.497,24.516 232.582,24.3313 239.308,4.34788 245.999,24.3431 267.083,24.5653 250.134,37.1078 256.438,57.2285 "
     transform="translate(4.768372e-6,425.3461)" />
  <polygon
     sodipodi:type="star"
     style="font-size:12;fill:#ffce00;fill-opacity:1;fill-rule:evenodd;stroke-width:1pt;"
     id="polygon584"
     sodipodi:sides="5"
     sodipodi:cx="239.282196"
     sodipodi:cy="33.5711517"
     sodipodi:r1="29.2232857"
     sodipodi:r2="11.4137974"
     sodipodi:arg1="0.94336361"
     sodipodi:arg2="1.57168210"
     points="256.438,57.2285 239.272,44.9849 222.084,57.1981 228.424,37.0886 211.497,24.516 232.582,24.3313 239.308,4.34788 245.999,24.3431 267.083,24.5653 250.134,37.1078 256.438,57.2285 "
     transform="translate(172.1351,425.8568)" />
  <polygon
     sodipodi:type="star"
     style="font-size:12;fill:#ffce00;fill-opacity:1;fill-rule:evenodd;stroke-width:1pt;"
     id="polygon585"
     sodipodi:sides="5"
     sodipodi:cx="239.282196"
     sodipodi:cy="33.5711517"
     sodipodi:r1="29.2232857"
     sodipodi:r2="11.4137974"
     sodipodi:arg1="0.94336361"
     sodipodi:arg2="1.57168210"
     points="256.438,57.2285 239.272,44.9849 222.084,57.1981 228.424,37.0886 211.497,24.516 232.582,24.3313 239.308,4.34788 245.999,24.3431 267.083,24.5653 250.134,37.1078 256.438,57.2285 "
     transform="translate(344.3872,425.5799)" />
  <rect
     style="font-size:12;fill:#009a00;fill-rule:evenodd;stroke-width:1pt;fill-opacity:1;"
     id="rect567"
     width="694.488159"
     height="363.791321"
     x="66.153542"
     y="66.118118" />
  <path
     style="font-size:12;fill:#ffca00;fill-rule:evenodd;stroke-width:1pt;"
     d="M 66.1535 429.909 L 760.642 429.909 L 413.398 248.031 L 66.1535 429.909 z "
     id="path571"
     sodipodi:nodetypes="cccc" />
  <path
     style="font-size:12;fill:#ffca00;fill-rule:evenodd;stroke-width:1pt;"
     d="M 66.1535 66.2028 L 413.398 248.081 L 760.642 66.2028 L 66.1535 66.2028 z "
     id="path570"
     sodipodi:nodetypes="cccc" />
  <path
     sodipodi:type="arc"
     style="fill-rule:evenodd;stroke:none;fill:#ff0000;fill-opacity:1;stroke-opacity:1;stroke-width:1pt;stroke-linejoin:miter;stroke-linecap:butt;"
     id="path577"
     d="M 455.805725 246.947205 A 45.689346 45.689354 0 1 0 364.427063,246.947205 A 45.6893 45.6894 0 1 0 455.806 246.947 L 410.116394 246.947205 z"
     sodipodi:cx="410.116394"
     sodipodi:cy="246.947205"
     sodipodi:rx="45.689346"
     sodipodi:ry="45.689354"
     transform="translate(1.087837,-1.525879e-5)" />
  <polygon
     sodipodi:type="star"
     style="font-size:12;fill:#ffce00;fill-opacity:1;fill-rule:evenodd;stroke-width:1pt;"
     id="polygon586"
     sodipodi:sides="5"
     sodipodi:cx="239.282196"
     sodipodi:cy="33.5711517"
     sodipodi:r1="29.2232857"
     sodipodi:r2="11.4137974"
     sodipodi:arg1="0.94336361"
     sodipodi:arg2="1.57168210"
     points="256.438,57.2285 239.272,44.9849 222.084,57.1981 228.424,37.0886 211.497,24.516 232.582,24.3313 239.308,4.34788 245.999,24.3431 267.083,24.5653 250.134,37.1078 256.438,57.2285 "
     transform="matrix(1.187828,0.000000,0.000000,1.187829,127.2648,207.1030)" />
  <path
     style="fill:#ff0000;fill-rule:evenodd;stroke:none;stroke-opacity:1;stroke-width:1pt;stroke-linejoin:miter;stroke-linecap:butt;fill-opacity:1;"
     d="M 158.257 286.488 C 158.257 286.488 160.575 267.285 159.251 254.373 C 157.926 241.461 124.818 237.819 124.818 237.819 L 124.487 267.947 C 124.487 267.947 150.974 289.468 158.257 286.488 z "
     id="path588"
     sodipodi:nodetypes="ccccc" />
  <path
     style="fill:#ffce00;fill-rule:evenodd;stroke:none;stroke-opacity:1;stroke-width:1pt;stroke-linejoin:miter;stroke-linecap:butt;fill-opacity:1;"
     d="M 109.919 210.339 C 109.919 210.339 113.11 227.259 108.595 260.995 C 106.183 279.312 126.142 291.786 150.642 297.414 C 145.676 288.806 132.433 274.9 135.744 249.407 C 153.622 251.724 170.507 286.488 170.507 286.488 C 170.507 286.488 183.883 237.195 156.933 229.542 C 130.741 222.183 109.919 210.67 109.919 210.339 z "
     id="path587"
     sodipodi:nodetypes="cscccsc" />
</svg>
