<?xml version="1.0" encoding="UTF-8" standalone="no"?>
<!DOCTYPE svg PUBLIC "-//W3C//DTD SVG 20010904//EN"
"http://www.w3.org/TR/2001/REC-SVG-20010904/DTD/svg10.dtd">
<!-- Created with Sodipodi ("http://www.sodipodi.com/") -->
<svg
   id="svg603"
   sodipodi:version="0.32"
   width="224mm"
   height="140mm"
   sodipodi:docbase="/home/scarlet/sodipodi-flags/nations/"
   sodipodi:docname="/home/scarlet/sodipodi-flags/nations/guatemala.svg"
   xmlns="http://www.w3.org/2000/svg"
   xmlns:sodipodi="http://sodipodi.sourceforge.net/DTD/sodipodi-0.dtd"
   xmlns:xlink="http://www.w3.org/1999/xlink">
  <defs
     id="defs605" />
  <sodipodi:namedview
     id="base" />
  <g
     id="g1399"
     transform="matrix(0.999966,0.000000,0.000000,0.999957,0.000000,-9.155273e-5)">
    <rect
       style="font-size:12;fill:#0066ff;fill-rule:evenodd;stroke-width:1pt;"
       id="rect606"
       height="496.070007"
       x="0.000000"
       y="0"
       width="793.727994667" />
    <rect
       style="font-size:12;fill:#ffffff;fill-rule:evenodd;stroke-width:1pt;"
       id="rect607"
       height="496.084473"
       y="0"
       x="264.575998222"
       width="264.575998222" />
  </g>
  <g
     id="g1400"
     transform="matrix(0.999935,0.000000,0.000000,0.999904,26.81757,0.735115)">
    <path
       style="font-size:12;fill:none;fill-rule:evenodd;stroke:#000000;stroke-width:0.5;"
       d="M 401.816 305.021 C 400.056 303.19 390.688 300.331 384.028 299.757 C 378.273 299.303 374.561 295.519 371.151 295.145 C 361.295 285.235 348.41 281.448 339.984 262.155 C 338.382 256.365 337.243 249.314 337.072 242.57 C 340.252 220.04 342.31 220.648 347.057 205.752 "
       id="path998"
       sodipodi:nodetypes="cccccc"
       transform="matrix(-1.000000,0.000000,0.000000,1.000000,768.2460,1.217338)" />
    <path
       style="font-size:12;fill:#0c5c1d;fill-rule:evenodd;stroke-width:0.375;"
       d="M 378.399 303.291 C 378.227 304.953 373.149 311.084 364.379 310.006 C 365.163 308.314 367.068 307.1 369.801 304.553 C 371.052 303.264 378.462 302.505 378.399 303.291 z "
       id="path999"
       sodipodi:nodetypes="ccss"
       transform="matrix(-1.000000,0.000000,0.000000,1.000000,762.4661,-0.135392)" />
    <path
       style="font-size:12;fill:#0c5c1d;fill-rule:evenodd;stroke-width:0.375;"
       d="M 379.497 302.996 C 380.517 303.085 381.424 303.692 379.681 305.223 C 376.741 307.694 366.195 309.967 364.606 306.83 C 369.274 306.2 372.386 305.211 372.866 305.229 C 375.034 304.519 377.829 302.839 379.497 302.996 z "
       id="path1000"
       sodipodi:nodetypes="ccccs"
       transform="matrix(-1.000000,0.000000,0.000000,1.000000,774.0138,-1.587990)" />
    <path
       style="font-size:12;fill:#0c5c1d;fill-rule:evenodd;stroke-width:0.25;"
       d="M 378.996 299.441 C 376.869 297.978 375.221 298.099 373.845 297.81 C 370.321 297.566 367.911 298.05 366.436 298.66 C 364.253 299.6 361.073 301.953 360.67 303.662 C 363.911 303.601 366.059 301.155 370.232 300.228 C 372.361 300.044 376.296 299.77 378.996 299.441 z "
       id="path1001"
       sodipodi:nodetypes="cccccc"
       transform="matrix(-1.000000,0.000000,0.000000,1.000000,768.2460,1.217338)" />
    <path
       style="font-size:12;fill:#0c5c1d;fill-rule:evenodd;stroke-width:0.25;"
       d="M 380.788 299.841 C 374.326 296.625 367.899 290.241 366.653 283.076 C 374.838 288.37 380.801 296.542 380.788 299.841 z "
       id="path1002"
       sodipodi:nodetypes="ccc"
       transform="matrix(-0.995961,8.978587e-2,8.978587e-2,0.995961,735.9479,-32.79963)" />
    <path
       style="font-size:12;fill:#0c5c1d;fill-rule:evenodd;stroke-width:0.25;"
       d="M 381.157 298.734 C 375.959 296.479 368.917 291.428 368.062 280.923 C 375.194 285.412 377.475 292.05 381.157 298.734 z "
       id="path1003"
       sodipodi:nodetypes="ccc"
       transform="matrix(-1.000000,0.000000,0.000000,1.000000,768.2460,1.217324)" />
    <path
       style="font-size:12;fill:#0c5c1d;fill-rule:evenodd;stroke-width:0.25;"
       d="M 370.685 297.109 C 371.086 294.144 363.966 278.651 359.812 274.663 C 359.358 280.627 365.158 297.377 370.685 297.109 z "
       id="path1004"
       sodipodi:nodetypes="ccc"
       transform="matrix(-1.000000,0.000000,0.000000,1.000000,768.7379,-2.225960)" />
    <path
       style="font-size:12;fill:#0c5c1d;fill-rule:evenodd;stroke-width:0.25;"
       d="M 365.727 295.857 C 364.646 300.452 352.894 301.645 349.1 296.258 C 353.824 295.47 359.664 295.011 365.727 295.857 z "
       id="path1005"
       sodipodi:nodetypes="ccc"
       transform="matrix(-1.000000,0.000000,0.000000,1.000000,763.5730,-0.381325)" />
    <path
       style="font-size:12;fill:#0c5c1d;fill-rule:evenodd;stroke-width:0.25;"
       d="M 367.181 296.304 C 363.116 300.273 351.215 300.656 343.403 296.795 C 352.731 291.651 366.306 294.733 367.181 296.304 z "
       id="path1006"
       sodipodi:nodetypes="ccc"
       transform="matrix(-0.977760,0.209725,0.209725,0.977760,699.8756,-74.39114)" />
    <path
       style="font-size:12;fill:#0c5c1d;fill-rule:evenodd;stroke-width:0.25;"
       d="M 357.568 287.685 C 356.805 284.346 346.918 277.752 340.541 278.117 C 344.592 283.615 345.981 282.674 348.091 285.113 C 349.533 286.922 354.565 288.251 357.568 287.685 z "
       id="path1008"
       sodipodi:nodetypes="ccsc"
       transform="matrix(-1.000000,0.000000,0.000000,1.000000,769.8447,-1.980065)" />
    <path
       style="font-size:12;fill:#0c5c1d;fill-rule:evenodd;stroke-width:0.25;"
       d="M 351.73 280.549 C 355.14 279.023 353.726 269.105 351.131 265.185 C 349.115 270.821 349.027 279.414 351.73 280.549 z "
       id="path1010"
       sodipodi:nodetypes="ccc"
       transform="matrix(-0.998026,6.280386e-2,6.351756e-2,1.009367,748.7443,-27.16420)" />
    <path
       style="font-size:12;fill:#0c5c1d;fill-rule:evenodd;stroke-width:0.25;"
       d="M 346.418 275.013 C 351.076 272.422 349.397 259.751 346.915 256.198 C 344.969 259.982 343.948 273.172 346.418 275.013 z "
       id="path1011"
       sodipodi:nodetypes="ccc"
       transform="matrix(-1.000000,0.000000,0.000000,1.000000,766.7703,-0.627259)" />
    <path
       style="font-size:12;fill:#0c5c1d;fill-rule:evenodd;stroke-width:0.25;"
       d="M 347.212 274.081 C 350.666 270.424 348.537 261.273 345.933 257.679 C 342.782 263.101 344.263 269.845 347.212 274.081 z "
       id="path1012"
       sodipodi:nodetypes="ccc"
       transform="matrix(-0.245580,-0.969377,-0.969377,0.245580,773.0885,543.5364)" />
    <path
       style="font-size:12;fill:#0c5c1d;fill-rule:evenodd;stroke-width:0.25;"
       d="M 343.086 271.805 C 346.967 265.737 344.557 262.521 342.188 255.008 C 341.042 261.388 341.966 268.12 343.086 271.805 z "
       id="path1015"
       sodipodi:nodetypes="ccc"
       transform="matrix(-1.000000,0.000000,0.000000,1.000000,768.0000,-0.258378)" />
    <path
       style="font-size:12;fill:#0c5c1d;fill-rule:evenodd;stroke-width:0.25;"
       d="M 343.212 270.951 C 346.958 266.702 345.539 261.133 343.117 255.527 C 340.833 259.185 339.16 264.037 343.212 270.951 z "
       id="path1016"
       sodipodi:nodetypes="ccc"
       transform="matrix(-0.666936,-0.745115,-0.745115,0.666936,860.6224,333.1057)" />
    <path
       style="font-size:12;fill:#0c5c1d;fill-rule:evenodd;stroke-width:0.25;"
       d="M 343.631 269.733 C 347.962 265.364 344.831 260.492 341.439 255.962 C 341.843 259.503 340.8 265.179 343.631 269.733 z "
       id="path1017"
       sodipodi:nodetypes="ccc"
       transform="matrix(-0.813801,0.581143,0.581143,0.813801,551.3445,-158.0544)" />
    <path
       style="font-size:12;fill:#0c5c1d;fill-rule:evenodd;stroke-width:0.25;"
       d="M 344.367 272.341 C 346.538 269.226 346.163 259.399 340.89 254.625 C 339.71 260.325 341.99 268.251 344.367 272.341 z "
       id="path1018"
       sodipodi:nodetypes="ccc"
       transform="matrix(0.975670,-0.219246,0.219246,0.975670,31.20223,61.13845)" />
    <path
       style="font-size:12;fill:#0c5c1d;fill-rule:evenodd;stroke-width:0.25;"
       d="M 343.447 273.405 C 343.156 271.147 342.889 269.966 342.317 267.034 C 341.391 261.711 342.397 263.688 340.961 257.159 C 337.556 263.049 338.71 271.535 343.447 273.405 z "
       id="path1020"
       sodipodi:nodetypes="cscc"
       transform="matrix(-0.963162,-0.268923,-0.268923,0.963162,834.6649,78.33263)" />
    <path
       style="font-size:12;fill:#0c5c1d;fill-rule:evenodd;stroke-width:0.25;"
       d="M 343 271.086 C 345.741 267.162 344.716 262.77 340.705 256.475 C 339.755 261.207 341.587 265.744 343 271.086 z "
       id="path1022"
       sodipodi:nodetypes="ccc"
       transform="matrix(-0.107837,0.994169,0.994169,0.107837,198.2263,-138.5849)" />
    <path
       style="font-size:12;fill:#0c5c1d;fill-rule:evenodd;stroke-width:0.25;"
       d="M 345.651 276.294 C 342.899 268.035 343.287 266.024 339.757 257.442 C 337.95 263.819 340.992 272.731 345.651 276.294 z "
       id="path1023"
       sodipodi:nodetypes="ccc"
       transform="matrix(0.817281,0.576240,-0.576240,0.817281,306.3139,-195.6658)" />
    <path
       style="font-size:12;fill:#0c5c1d;fill-rule:evenodd;stroke-width:0.25;"
       d="M 345.273 271.565 C 343.257 264.877 345.019 260.363 340.869 255.073 C 339.568 257.011 341.127 270.416 345.273 271.565 z "
       id="path1024"
       sodipodi:nodetypes="ccc"
       transform="matrix(0.796084,-0.605186,0.605186,0.796084,-10.55970,221.5299)" />
    <path
       style="font-size:12;fill:#0c5c1d;fill-rule:evenodd;stroke-width:0.25;"
       d="M 343.674 271.113 C 343.519 265.354 344.152 261.23 341.861 255.411 C 339.226 260.29 339.172 270.249 343.674 271.113 z "
       id="path1025"
       sodipodi:nodetypes="ccc"
       transform="matrix(0.796084,-0.605186,0.605186,0.796084,-10.47437,215.2106)" />
    <path
       style="font-size:12;fill:#0c5c1d;fill-rule:evenodd;stroke-width:0.25;"
       d="M 343.674 271.113 C 347.382 265.932 342.134 258.863 341.069 254.809 C 338.434 259.688 340.04 267.647 343.674 271.113 z "
       id="path1026"
       sodipodi:nodetypes="ccc"
       transform="matrix(0.904622,-0.426215,0.426215,0.904622,-6.098021,114.2594)" />
    <path
       style="font-size:12;fill:#0c5c1d;fill-rule:evenodd;stroke-width:0.25;"
       d="M 343.465 269.858 C 346.937 265.055 343.324 259.842 341.829 256.32 C 340.493 261.68 339.512 267.341 343.465 269.858 z "
       id="path1027"
       sodipodi:nodetypes="ccc"
       transform="matrix(0.950097,-0.311955,0.311955,0.950097,9.790600,56.57180)" />
    <path
       style="font-size:12;fill:#0c5c1d;fill-rule:evenodd;stroke-width:0.25;"
       d="M 343.461 270.523 C 345.403 266.724 343.498 258.499 341.791 255.104 C 340.145 257.163 340.279 270.108 343.461 270.523 z "
       id="path1028"
       sodipodi:nodetypes="ccc"
       transform="matrix(0.997048,7.678157e-2,-7.678157e-2,0.997048,105.9512,-79.06041)" />
    <path
       style="font-size:12;fill:#0c5c1d;fill-rule:evenodd;stroke-width:0.25;"
       d="M 343.71 268.925 C 345.688 264.195 343.716 259.63 341.829 256.32 C 340.824 261.688 340.244 266.807 343.71 268.925 z "
       id="path1029"
       sodipodi:nodetypes="ccc"
       transform="matrix(0.992935,0.118654,-0.118654,0.992935,114.8022,-98.16853)" />
    <path
       style="font-size:12;fill:#0c5c1d;fill-rule:evenodd;stroke-width:0.25;"
       d="M 343.931 270.683 C 346.881 268.326 345.086 260.275 339.252 255.648 C 340.433 262.206 341.975 264.731 343.931 270.683 z "
       id="path1063"
       sodipodi:nodetypes="ccc"
       transform="matrix(0.854297,0.519786,-0.519786,0.854297,276.2044,-165.0276)" />
    <path
       style="font-size:12;fill:#0c5c1d;fill-rule:evenodd;stroke-width:0.25;"
       d="M 343 271.086 C 346.068 267.569 344.716 262.77 340.705 256.475 C 340.271 261.015 344.224 266.525 343 271.086 z "
       id="path1062"
       sodipodi:nodetypes="ccc"
       transform="matrix(0.618011,0.786170,-0.786170,0.618011,429.5117,-206.0435)" />
    <path
       style="font-size:12;fill:#0c5c1d;fill-rule:evenodd;stroke-width:0.25;"
       d="M 343.931 270.683 C 347.995 269.042 345.434 257.159 339.097 253.947 C 340.333 261.92 341.421 264.857 343.931 270.683 z "
       id="path1019"
       sodipodi:nodetypes="ccc"
       transform="matrix(-0.814590,0.580038,0.580038,0.814590,554.6663,-173.0924)" />
    <path
       style="font-size:12;fill:#0c5c1d;fill-rule:evenodd;stroke-width:0.25;"
       d="M 347.212 274.081 C 350.979 272.001 348.7 263.077 346.174 259.129 C 344.741 263.619 345.726 271.25 347.212 274.081 z "
       id="path1013"
       sodipodi:nodetypes="ccc"
       transform="matrix(-0.359777,-0.933039,-0.933040,0.359777,807.6245,488.6201)" />
    <path
       style="font-size:12;fill:#0c5c1d;fill-rule:evenodd;stroke-width:0.25;"
       d="M 347.728 275.836 C 347.5 272.542 351.393 270.796 345.811 258.363 C 344.697 268.064 347.05 274.057 347.728 275.836 z "
       id="path1014"
       sodipodi:nodetypes="ccc"
       transform="matrix(0.680770,0.909169,-0.835657,0.625724,418.5937,-218.7071)" />
    <path
       style="font-size:12;fill:none;fill-rule:evenodd;stroke:#000000;stroke-width:0.5;"
       d="M 399.555 306.238 C 398.143 304.233 390.688 302.07 384.028 301.496 C 378.273 301.738 372.996 300.389 368.195 297.928 C 358.338 288.018 347.367 281.448 338.941 262.155 C 337.339 256.365 336.373 251.053 336.202 244.309 C 339.382 221.779 339.701 219.605 348.448 204.709 "
       id="path609"
       sodipodi:nodetypes="cccccc"
       transform="translate(-26.78044,-1.525879e-5)" />
    <path
       style="font-size:12;fill:#0c5c1d;fill-rule:evenodd;stroke-width:0.375;"
       d="M 378.399 303.291 C 378.227 304.953 372.411 310.1 364.379 310.006 C 365.163 308.314 373.062 306.502 375.212 303.446 C 375.848 302.526 378.462 302.505 378.399 303.291 z "
       id="path612"
       sodipodi:nodetypes="ccss"
       transform="translate(-26.78044,-3.051758e-5)" />
    <path
       style="font-size:12;fill:#0c5c1d;fill-rule:evenodd;stroke-width:0.375;"
       d="M 379.497 302.996 C 380.507 302.826 381.055 303.323 379.312 304.854 C 376.372 307.325 371.36 308.491 363.991 309.781 C 366.446 307.307 372.386 305.211 372.866 305.229 C 375.034 304.519 377.583 303.331 379.497 302.996 z "
       id="path619"
       sodipodi:nodetypes="ccccs"
       transform="translate(-33.77805,-2.067520)" />
    <path
       style="font-size:12;fill:#0c5c1d;fill-rule:evenodd;stroke-width:0.25;"
       d="M 376.782 300.671 C 376.008 298.962 375.221 298.099 373.845 297.81 C 370.321 297.566 367.542 298.173 366.436 298.66 C 365.237 299.354 361.442 301.83 361.039 303.539 C 363.911 302.74 365.813 300.54 369.986 299.982 C 371.992 299.306 374.82 299.401 376.782 300.671 z "
       id="path627"
       sodipodi:nodetypes="cccccc"
       transform="translate(-26.78044,-3.051758e-5)" />
    <path
       style="font-size:12;fill:#0c5c1d;fill-rule:evenodd;stroke-width:0.25;"
       d="M 380.788 299.841 C 374.326 296.625 370.046 292.146 368.8 284.981 C 376.985 290.275 380.801 296.542 380.788 299.841 z "
       id="path576"
       sodipodi:nodetypes="ccc"
       transform="matrix(0.995962,8.978587e-2,-8.978595e-2,0.995961,5.517642,-34.01699)" />
    <path
       style="font-size:12;fill:#0c5c1d;fill-rule:evenodd;stroke-width:0.25;"
       d="M 380.788 299.841 C 374.975 297.34 372.852 292.658 368.8 284.981 C 376.055 288.609 379.074 292.419 380.788 299.841 z "
       id="path575"
       sodipodi:nodetypes="ccc"
       transform="translate(-26.78044,-3.051758e-5)" />
    <path
       style="font-size:12;fill:#0c5c1d;fill-rule:evenodd;stroke-width:0.25;"
       d="M 367.734 297.232 C 368.995 292.053 366.794 284.431 363.009 280.689 C 362.678 286.53 363.805 296.27 367.734 297.232 z "
       id="path580"
       sodipodi:nodetypes="ccc"
       transform="translate(-26.78044,-3.051758e-5)" />
    <path
       style="font-size:12;fill:#0c5c1d;fill-rule:evenodd;stroke-width:0.25;"
       d="M 365.727 295.857 C 364.646 300.452 352.648 300.538 349.1 296.258 C 352.717 297.069 360.648 297.225 365.727 295.857 z "
       id="path581"
       sodipodi:nodetypes="ccc"
       transform="translate(-26.78044,-1.525879e-5)" />
    <path
       style="font-size:12;fill:#0c5c1d;fill-rule:evenodd;stroke-width:0.25;"
       d="M 367.181 296.304 C 364.147 299.8 348.604 298.449 347.878 295.961 C 349.743 295.31 366.306 294.733 367.181 296.304 z "
       id="path583"
       sodipodi:nodetypes="ccc"
       transform="matrix(0.977761,0.209725,-0.209725,0.977760,38.88451,-74.50172)" />
    <path
       style="font-size:12;fill:#0c5c1d;fill-rule:evenodd;stroke-width:0.25;"
       d="M 361.459 291.252 C 363.621 286.982 357.675 273.468 355.297 273.576 C 356.702 283.684 359.243 288.279 361.459 291.252 z "
       id="path584"
       sodipodi:nodetypes="ccc"
       transform="translate(-26.78044,-3.051758e-5)" />
    <path
       style="font-size:12;fill:#0c5c1d;fill-rule:evenodd;stroke-width:0.25;"
       d="M 357.568 287.685 C 356.19 284.469 345.811 278.982 340.541 278.117 C 344.838 282.631 347.603 281.997 349.075 284.867 C 350.148 286.799 354.811 287.144 357.568 287.685 z "
       id="path585"
       sodipodi:nodetypes="ccsc"
       transform="translate(-26.78044,-1.525879e-5)" />
    <path
       style="font-size:12;fill:#0c5c1d;fill-rule:evenodd;stroke-width:0.25;"
       d="M 355.622 285.252 C 356.703 281.198 356.162 279.576 353.513 276.657 C 353.243 280.927 353.784 282.603 355.622 285.252 z "
       id="path586"
       sodipodi:nodetypes="ccc"
       transform="translate(-26.78044,-1.525879e-5)" />
    <path
       style="font-size:12;fill:#0c5c1d;fill-rule:evenodd;stroke-width:0.25;"
       d="M 351.73 280.549 C 354.648 278.658 352.865 268.983 350.27 266.279 C 349.73 273.253 349.027 279.414 351.73 280.549 z "
       id="path587"
       sodipodi:nodetypes="ccc"
       transform="matrix(1.000001,0.000000,0.000000,1.011364,-26.78044,-3.026001)" />
    <path
       style="font-size:12;fill:#0c5c1d;fill-rule:evenodd;stroke-width:0.25;"
       d="M 346.541 273.414 C 351.568 271.684 347.675 262.333 346.054 258.658 C 344.108 262.441 347.514 264.441 346.541 273.414 z "
       id="path588"
       sodipodi:nodetypes="ccc"
       transform="translate(-26.78044,-1.525879e-5)" />
    <path
       style="font-size:12;fill:#0c5c1d;fill-rule:evenodd;stroke-width:0.25;"
       d="M 347.212 274.081 C 350.065 269.054 348.539 261.78 345.935 258.186 C 345.527 263.42 346.355 271.091 347.212 274.081 z "
       id="path589"
       sodipodi:nodetypes="ccc"
       transform="matrix(0.245580,-0.969377,0.969378,0.245580,-32.11484,543.3030)" />
    <path
       style="font-size:12;fill:#0c5c1d;fill-rule:evenodd;stroke-width:0.25;"
       d="M 347.212 274.081 C 350.979 272.001 348.7 263.077 346.174 259.129 C 344.741 263.619 345.726 271.25 347.212 274.081 z "
       id="path590"
       sodipodi:nodetypes="ccc"
       transform="matrix(0.245580,-0.969377,0.969378,0.245580,-36.49320,534.3840)" />
    <path
       style="font-size:12;fill:#0c5c1d;fill-rule:evenodd;stroke-width:0.25;"
       d="M 347.728 275.836 C 347.5 272.542 351.393 270.796 345.811 258.363 C 344.697 268.064 347.05 274.057 347.728 275.836 z "
       id="path591"
       sodipodi:nodetypes="ccc"
       transform="matrix(-0.680770,0.909169,0.835657,0.625724,323.5790,-217.0960)" />
    <path
       style="font-size:12;fill:#0c5c1d;fill-rule:evenodd;stroke-width:0.25;"
       d="M 343.086 271.805 C 346.967 265.737 344.557 262.521 342.188 255.008 C 341.042 261.388 341.966 268.12 343.086 271.805 z "
       id="path593"
       sodipodi:nodetypes="ccc"
       transform="translate(-26.78044,-1.525879e-5)" />
    <path
       style="font-size:12;fill:#0c5c1d;fill-rule:evenodd;stroke-width:0.25;"
       d="M 343.212 270.951 C 346.538 266.417 345.129 260.675 342.119 256.256 C 341.007 259.195 342.884 262.85 343.212 270.951 z "
       id="path594"
       sodipodi:nodetypes="ccc"
       transform="matrix(0.666937,-0.745115,0.745116,0.666936,-120.3868,332.9951)" />
    <path
       style="font-size:12;fill:#0c5c1d;fill-rule:evenodd;stroke-width:0.25;"
       d="M 343.631 269.733 C 347.962 265.364 344.831 260.492 341.439 255.962 C 341.843 259.503 340.8 265.179 343.631 269.733 z "
       id="path595"
       sodipodi:nodetypes="ccc"
       transform="matrix(0.765428,0.643522,-0.643523,0.765427,221.8573,-166.8170)" />
    <path
       style="font-size:12;fill:#0c5c1d;fill-rule:evenodd;stroke-width:0.25;"
       d="M 343.557 270.899 C 346.685 269.133 345.854 260.212 340.953 256.026 C 342.557 263.36 343.744 265.494 343.557 270.899 z "
       id="path597"
       sodipodi:nodetypes="ccc"
       transform="matrix(0.817282,0.576240,-0.576241,0.817281,186.5739,-165.8271)" />
    <path
       style="font-size:12;fill:#0c5c1d;fill-rule:evenodd;stroke-width:0.25;"
       d="M 343.931 270.683 C 346.881 268.326 345.086 260.275 339.252 255.648 C 341.634 262.051 343.953 263.96 343.931 270.683 z "
       id="path598"
       sodipodi:nodetypes="ccc"
       transform="matrix(0.817282,0.576240,-0.576241,0.817281,184.6208,-172.4674)" />
    <path
       style="font-size:12;fill:#0c5c1d;fill-rule:evenodd;stroke-width:0.25;"
       d="M 342.841 273.746 C 342.313 271.422 343.315 269.85 342.317 267.034 C 340.548 261.986 342.356 259.718 339.691 256.677 C 338.743 266.572 339.942 271.241 342.841 273.746 z "
       id="path599"
       sodipodi:nodetypes="cscc"
       transform="matrix(-0.817282,0.576240,0.576241,0.817281,431.5237,-170.9440)" />
    <path
       style="font-size:12;fill:#0c5c1d;fill-rule:evenodd;stroke-width:0.25;"
       d="M 348.308 277.665 C 341.236 264.814 342.45 271.548 339.691 256.677 C 336.859 268.982 346.546 278.211 348.308 277.665 z "
       id="path600"
       sodipodi:nodetypes="ccc"
       transform="matrix(-0.817282,0.576240,0.576241,0.817281,434.0649,-182.9317)" />
    <path
       style="font-size:12;fill:#0c5c1d;fill-rule:evenodd;stroke-width:0.25;"
       d="M 343 271.086 C 346.068 267.569 344.716 262.77 340.705 256.475 C 340.271 261.015 344.224 266.525 343 271.086 z "
       id="path601"
       sodipodi:nodetypes="ccc"
       transform="matrix(-0.796085,-0.605186,-0.605187,0.796084,746.9366,230.3114)" />
    <path
       style="font-size:12;fill:#0c5c1d;fill-rule:evenodd;stroke-width:0.25;"
       d="M 345.651 276.294 C 342.899 268.035 343.287 266.024 339.757 257.442 C 337.95 263.819 340.992 272.731 345.651 276.294 z "
       id="path602"
       sodipodi:nodetypes="ccc"
       transform="matrix(-0.817282,0.576240,0.576241,0.817281,434.7831,-197.1291)" />
    <path
       style="font-size:12;fill:#0c5c1d;fill-rule:evenodd;stroke-width:0.25;"
       d="M 345.273 271.565 C 343.257 264.877 345.019 260.363 340.869 255.073 C 339.568 257.011 341.127 270.416 345.273 271.565 z "
       id="path603"
       sodipodi:nodetypes="ccc"
       transform="matrix(-0.796085,-0.605186,-0.605187,0.796084,753.0097,220.3125)" />
    <path
       style="font-size:12;fill:#0c5c1d;fill-rule:evenodd;stroke-width:0.25;"
       d="M 343.674 271.113 C 343.519 265.354 344.152 261.23 341.861 255.411 C 339.226 260.29 339.172 270.249 343.674 271.113 z "
       id="path604"
       sodipodi:nodetypes="ccc"
       transform="matrix(-0.796085,-0.605186,-0.605187,0.796084,751.0798,215.8378)" />
    <path
       style="font-size:12;fill:#0c5c1d;fill-rule:evenodd;stroke-width:0.25;"
       d="M 343.674 271.113 C 347.382 265.932 342.134 258.863 341.069 254.809 C 338.434 259.688 340.04 267.647 343.674 271.113 z "
       id="path605"
       sodipodi:nodetypes="ccc"
       transform="matrix(-0.796085,-0.605186,-0.605187,0.796084,759.3110,201.7509)" />
    <path
       style="font-size:12;fill:#0c5c1d;fill-rule:evenodd;stroke-width:0.25;"
       d="M 343.465 269.858 C 346.937 265.055 343.324 259.842 341.829 256.32 C 340.493 261.68 339.512 267.341 343.465 269.858 z "
       id="path606"
       sodipodi:nodetypes="ccc"
       transform="matrix(-0.906894,-0.421361,-0.421361,0.906893,746.1479,105.2011)" />
    <path
       style="font-size:12;fill:#0c5c1d;fill-rule:evenodd;stroke-width:0.25;"
       d="M 343.461 270.523 C 345.403 266.724 343.498 258.499 341.791 255.104 C 340.145 257.163 340.279 270.108 343.461 270.523 z "
       id="path607"
       sodipodi:nodetypes="ccc"
       transform="matrix(-0.997049,7.678157e-2,7.678165e-2,0.997048,635.1461,-81.50752)" />
    <path
       style="font-size:12;fill:#0c5c1d;fill-rule:evenodd;stroke-width:0.25;"
       d="M 343.71 268.925 C 345.688 264.195 343.716 259.63 341.829 256.32 C 340.824 261.688 340.244 266.807 343.71 268.925 z "
       id="path608"
       sodipodi:nodetypes="ccc"
       transform="matrix(-0.999684,-2.516794e-2,-2.516796e-2,0.999683,667.7320,-50.74591)" />
    <path
       style="font-size:12;fill:#6f8593;fill-rule:evenodd;stroke-width:0.25;"
       d="M 374.103 288.35 C 391.045 271.778 405.776 257.415 429.347 242.609 C 391.192 272.33 392.371 274.65 376.313 289.566 C 375.65 289.013 374.766 288.903 374.103 288.35 z "
       id="path1073"
       sodipodi:nodetypes="cccc"
       transform="matrix(1.000001,0.000000,0.000000,1.000000,-26.78044,-1.525879e-5)" />
    <path
       style="font-size:12;fill:#6a0d06;fill-rule:evenodd;stroke-width:0.25;"
       d="M 343.949 292.257 L 350.261 299.193 L 369.391 270.15 L 377.442 261.596 L 375.493 258.76 L 363.13 270.846 L 361.708 273.679 L 343.949 292.257 z "
       id="path1066"
       sodipodi:nodetypes="cccccccc"
       transform="matrix(1.000001,0.000000,0.000000,1.000000,-26.78044,-1.525879e-5)" />
    <path
       style="font-size:12;fill:#6a0d06;fill-rule:evenodd;stroke-width:0.25;"
       d="M 343.286 292.257 L 351.366 299.414 L 369.391 270.15 L 379.873 258.723 L 377.04 256.771 L 363.13 270.846 L 361.708 273.679 L 343.286 292.257 z "
       id="path1069"
       sodipodi:nodetypes="cccccccc"
       transform="matrix(-1.000001,0.000000,0.000000,1.000000,764.8805,0.441956)" />
    <path
       style="font-size:12;fill:#bbcdcd;fill-rule:evenodd;stroke-width:0.25;"
       d="M 369.463 274.595 C 369.297 273.545 367.918 271.502 371.011 268.739 C 370.937 267.266 369.428 265.738 368.248 264.983 C 367.254 264.983 364.382 266.989 363.111 269.236 C 362.392 270.802 362.024 273.232 362.945 275.092 C 363.627 276.123 364.418 277.32 365.265 277.799 C 365.67 278.093 366.573 278.001 367.309 277.688 C 368.469 277.099 369.353 275.405 369.463 274.595 z "
       id="path1071"
       sodipodi:nodetypes="cccccccc"
       transform="matrix(-1.000001,0.000000,0.000000,1.000000,764.9295,0.390686)" />
    <path
       style="font-size:12;fill-rule:evenodd;stroke-width:0.25;"
       d="M 409.484 224.968 L 423.59 210.731 L 424.435 210.765 L 424.728 211.705 L 425.181 213.012 L 426.852 214.583 L 448.885 193.92 L 428.165 216.521 L 427.187 216.532 L 424.164 213.386 L 422.891 213.682 L 412.502 225.849 L 409.484 224.968 z "
       id="path1068"
       sodipodi:nodetypes="ccccccccccccc"
       transform="matrix(-1.000001,0.000000,0.000000,1.000000,766.2926,-1.674667)" />
    <path
       style="font-size:12;fill-rule:evenodd;stroke-width:0.25;"
       d="M 402.001 310.363 C 427.815 268.44 450.302 239.548 409.109 202.498 C 407.568 200.947 402.247 196.035 398.914 194.977 C 398.45 191.976 400.724 187.237 394.913 186.845 C 392.442 186.976 391.222 187.859 391.272 190.09 C 391.277 191.824 392.193 192.583 391.721 194.134 C 391.547 194.909 389.622 196.677 389.74 198.932 C 390.488 203.736 392.343 204.912 392.906 205.596 C 393.914 206.598 394.517 207.304 397.477 208.526 C 397.805 208.92 398.679 209.655 399.128 210.149 C 404.567 211.313 409.525 210.719 413.039 212.471 C 414.571 212.943 417.028 215.543 417.827 216.845 C 427.752 227.727 432.047 245.19 416.871 263.627 C 419.911 263.876 427.187 251.42 428.849 240.842 C 426.524 256.619 421.378 262.129 418.828 266.844 C 423.926 263.448 428.029 251.489 428.984 249.032 C 424.942 270.8 404.011 297.678 390.842 303.321 C 402.762 300.557 410.759 288.678 415 284.422 C 410.87 292.94 402.375 304.994 402.001 310.363 z "
       id="path1110"
       sodipodi:nodetypes="ccsccssccccsccccccc"
       transform="matrix(1.000001,0.000000,0.000000,1.000000,-26.78044,-2.212082)" />
    <path
       style="font-size:12;fill:#6f8593;fill-rule:evenodd;stroke-width:0.25;"
       d="M 374.103 288.35 C 390.603 271.668 416.935 246.477 430.01 243.714 C 409.643 256.862 391.708 274.54 376.313 289.566 C 375.65 289.013 374.766 288.903 374.103 288.35 z "
       id="path1075"
       sodipodi:nodetypes="cccc"
       transform="matrix(-1.000001,0.000000,0.000000,1.000000,767.0586,1.104874)" />
    <path
       style="font-size:12;fill-rule:evenodd;stroke-width:0.25;"
       d="M 408.073 226.076 L 423.59 210.731 L 424.435 210.765 L 424.728 211.705 L 425.181 213.012 L 426.852 214.583 L 448.885 193.92 L 428.165 216.521 L 427.187 216.532 L 424.164 213.386 L 422.891 213.682 L 409.681 228.318 L 408.073 226.076 z "
       id="path1265"
       sodipodi:nodetypes="ccccccccccccc"
       transform="matrix(1.000001,0.000000,0.000000,1.000000,-25.44213,-1.674667)" />
    <path
       style="font-size:12;fill:#e3cf6e;fill-rule:evenodd;stroke-width:0.25;"
       d="M 368.358 218.745 C 369.169 214.325 370.531 211.121 375.098 210.348 C 387.067 209.832 398.153 209.758 410.674 210.016 C 414.246 212.852 410.527 218.671 406.807 218.966 C 412.516 228.835 420.324 236.385 421.392 248.023 C 421.76 254.137 419.607 258.1 417.444 260.301 C 400.99 260.702 393.018 262.75 379.264 263.816 C 375.422 264.278 372.533 259.809 372.57 256.089 C 372.592 252.244 374.173 249.237 378.445 248.705 C 379.771 248.561 381.617 248.649 383.274 248.686 C 380.07 239.111 367.696 227.768 368.358 218.745 z "
       id="path1076"
       sodipodi:nodetypes="ccccccccccc"
       transform="matrix(1.000001,0.000000,0.000000,1.000000,-26.78044,-1.525879e-5)" />
    <path
       style="font-size:12;fill:#336446;fill-rule:evenodd;stroke-width:0.25;"
       d="M 390.195 196.436 C 388.775 200.996 392.343 204.912 392.906 205.596 C 393.914 206.598 394.572 207.415 397.532 208.637 C 397.86 209.031 402.096 211.446 402.702 212.018 C 407.207 213.199 409.6 211.175 414.73 212.434 C 413.41 209.174 399.705 195.804 390.195 196.436 z "
       id="path1114"
       transform="matrix(1.000001,0.000000,0.000000,1.000000,-27.01523,-1.251312)"
       sodipodi:nodetypes="cccccc" />
    <path
       style="font-size:12;fill:#402e08;fill-rule:evenodd;stroke-width:0.25;"
       d="M 390.078 197.257 C 388.698 199.512 392.343 204.912 392.906 205.596 C 393.914 206.598 394.572 207.415 397.532 208.637 C 397.86 209.031 399.327 209.773 399.542 210.032 L 403.422 210.742 C 402.102 207.482 394.605 196.204 390.078 197.257 z "
       id="path1113"
       transform="matrix(1.000001,0.000000,0.000000,1.000000,-26.78044,-1.525879e-5)"
       sodipodi:nodetypes="cccccc" />
    <path
       style="fill:#000000;fill-rule:evenodd;stroke:none;stroke-opacity:1;stroke-width:1pt;stroke-linejoin:miter;stroke-linecap:butt;fill-opacity:1;"
       d="M 391.704 190.528 L 390.782 191.199 L 392.124 191.87 L 391.704 190.528 z "
       id="path1141"
       transform="matrix(1.000001,0.000000,0.000000,1.000000,-26.93680,-0.978256)" />
    <path
       style="font-size:12;fill:#8c361d;fill-rule:evenodd;stroke-width:0.25;"
       d="M 389.727 198.838 C 390.475 203.642 392.264 204.949 392.867 205.596 C 393.835 206.635 394.572 207.298 397.532 208.637 C 398.72 209.617 399.171 209.891 400.09 210.384 L 403.224 210.85 C 401.904 207.59 394.088 200.163 389.727 198.838 z "
       id="path1112"
       transform="matrix(1.000001,0.000000,0.000000,1.000000,-26.78044,-1.525879e-5)"
       sodipodi:nodetypes="cscccc" />
    <path
       style="font-size:12;fill:#bbcdcd;fill-rule:evenodd;stroke-width:0.25;"
       d="M 369.463 274.595 C 369.297 273.545 367.918 271.502 371.011 268.739 C 370.937 267.266 369.428 265.738 368.248 264.983 C 367.254 264.983 364.382 266.989 363.111 269.236 C 362.392 270.802 362.024 273.232 362.945 275.092 C 363.627 276.123 364.418 277.32 365.265 277.799 C 365.67 278.093 366.573 278.001 367.309 277.688 C 368.469 277.099 369.353 275.405 369.463 274.595 z "
       id="path1070"
       sodipodi:nodetypes="cccccccc"
       transform="matrix(1.000001,0.000000,0.000000,1.000000,-26.78044,-1.525879e-5)" />
    <path
       style="font-size:12;fill:#d4be72;fill-rule:evenodd;stroke-width:0.25;"
       d="M 371.673 289.896 C 370.273 291.517 364.787 294.684 363.718 295.753 C 362.834 296.931 364.933 298.552 366.259 298.736 C 368.616 296.968 370.973 294.537 373.108 293.102 C 376.087 290.35 375.89 290.124 380.733 291.554 C 380.033 288.976 375.135 286.951 372.336 286.362 C 367.621 286.877 365.448 288.829 364.491 291.554 C 367.621 289.197 369.758 288.055 371.673 289.896 z "
       id="path1072"
       sodipodi:nodetypes="cccccccc"
       transform="matrix(1.000001,0.000000,0.000000,1.000000,-26.78044,-1.525879e-5)" />
    <path
       style="font-size:12;fill:#ffffff;fill-rule:evenodd;stroke-width:0.25;"
       d="M 368.789 274.589 C 368.701 274.085 368.418 273.813 368.41 272.823 C 367.377 274.309 366.884 275.065 365.541 276.952 C 366.025 277.598 366.723 277.293 367.381 276.98 C 367.994 276.587 368.874 275.321 368.789 274.589 z "
       id="path1132"
       sodipodi:nodetypes="ccccc"
       transform="matrix(-1.000001,0.000000,0.000000,1.000000,765.0705,0.331787)" />
    <path
       style="font-size:12;fill:#ffffff;fill-rule:evenodd;stroke-width:0.25;"
       d="M 368.789 274.589 C 368.701 274.085 368.418 273.813 368.41 272.823 C 367.377 274.309 366.884 275.065 365.541 276.952 C 366.025 277.598 366.723 277.293 367.381 276.98 C 367.994 276.587 368.874 275.321 368.789 274.589 z "
       id="path1130"
       sodipodi:nodetypes="ccccc"
       transform="matrix(1.000001,0.000000,0.000000,1.000000,-26.78044,-1.525879e-5)" />
    <path
       style="font-size:12;fill:#d4be72;fill-rule:evenodd;stroke-width:0.25;"
       d="M 371.673 289.896 C 370.273 291.517 364.787 294.684 363.718 295.753 C 362.834 296.931 364.933 298.552 366.259 298.736 C 368.616 296.968 370.973 294.537 373.108 293.102 C 375.549 290.17 376.608 290.303 380.733 291.554 C 380.033 288.976 375.135 286.951 372.336 286.362 C 367.621 286.877 365.448 288.829 364.491 291.554 C 367.621 289.197 369.758 288.055 371.673 289.896 z "
       id="path1074"
       sodipodi:nodetypes="cccccccc"
       transform="matrix(-1.000001,0.000000,0.000000,1.000000,766.0745,1.104874)" />
    <path
       style="font-size:12;fill-rule:evenodd;stroke-width:0.25;"
       d="M 383.205 248.719 C 384.377 250.399 385.353 254.109 385.51 256.492 C 385.718 261.101 381.043 263.445 379.454 263.25 C 376.434 262.885 373.959 260.607 373.712 257.078 C 374.193 252.964 375.925 250.684 378.79 250.515 C 380.666 250.841 382.775 253.081 382.775 255.789 C 382.723 258.029 382.085 260.268 380.704 260.32 C 377.345 260.06 377.54 258.12 376.993 257.078 C 376.85 256.31 376.73 254.231 377.111 253.719 C 377.612 253.097 379.923 252.274 381.055 253.875 C 382.279 255.124 379.246 253.211 378.048 254.069 C 377.436 254.942 377.84 256.361 378.009 256.921 C 378.218 257.481 378.192 259.33 380.509 259.226 C 381.356 259.097 381.655 257.363 381.72 255.671 C 381.851 254.513 380.223 252.182 378.595 251.687 C 377.462 251.505 374.689 253.822 374.806 257.078 C 375.028 260.776 378.061 262.052 379.689 261.804 C 381.342 261.362 384.793 260.06 384.65 256.375 C 384.285 252.312 383.529 250.632 382.227 248.679 C 382.735 248.679 382.697 248.679 383.205 248.719 z "
       id="path1140"
       sodipodi:nodetypes="ccccccccsccccccccccc"
       transform="matrix(1.000001,0.000000,0.000000,1.000000,-26.78044,-1.525879e-5)" />
    <path
       style="font-size:12;fill-rule:evenodd;stroke-width:0.25;"
       d="M 407.423 220.008 L 406.719 218.875 L 391.563 218.875 C 387.266 219.266 380.722 219.917 378.47 220.893 C 372.702 223.732 371.131 218.719 370.818 217.469 C 370.483 216.323 371.199 214.253 372.319 213.524 C 372.762 212.677 375.238 211.75 376.735 212.31 C 378.428 213.026 379.164 215.163 378.894 216.609 C 378.386 218.758 374.32 220.085 375.766 217.898 C 375.948 216.937 376.68 214.265 375.391 212.351 L 374.211 212.585 C 375.851 216 374.346 217.694 374.268 218.67 C 374.191 220.311 375.593 220.168 376.679 220.126 C 377.421 220.087 378.673 219.148 379.181 218.64 C 379.792 218.107 379.886 217.073 379.961 215.868 C 380.153 212.688 377.24 210.425 375.274 210.711 C 369.298 212.196 369.154 217.182 370.508 219.773 C 371.263 221.075 372.136 221.87 373.594 222.625 C 374.818 222.99 376.669 222.781 378.125 222.234 C 381.008 221.199 385.68 220.281 391.501 220.138 L 407.423 220.008 z "
       id="path1139"
       sodipodi:nodetypes="ccccccccccccccscccscc"
       transform="matrix(1.000001,0.000000,0.000000,1.000000,-26.78044,-1.525879e-5)" />
  </g>
  <g
     id="g738"
     transform="matrix(0.474322,0.000000,0.239791,0.426855,79.92256,-5.105797)"
     style="fill:#8c361d;fill-opacity:1;">
    <path
       style="font-size:12;font-weight:bold;stroke-width:1pt;font-family:Times New Roman;fill:#8c361d;fill-opacity:1;"
       d="M 400.497 402.913 L 400.736 405.05 L 400.526 405.073 C 400.347 404.594 400.169 404.256 399.994 404.06 C 399.819 403.859 399.592 403.709 399.313 403.611 C 399.159 403.558 398.896 403.552 398.528 403.593 L 397.939 403.659 L 398.62 409.75 C 398.665 410.153 398.714 410.403 398.768 410.499 C 398.826 410.595 398.923 410.675 399.06 410.738 C 399.2 410.797 399.382 410.814 399.608 410.788 L 399.87 410.759 L 399.894 410.975 L 395.76 411.437 L 395.736 411.221 L 395.997 411.192 C 396.227 411.166 396.406 411.105 396.537 411.008 C 396.632 410.942 396.702 410.84 396.745 410.702 C 396.777 410.604 396.771 410.357 396.727 409.961 L 396.047 403.87 L 395.476 403.934 C 394.944 403.993 394.571 404.149 394.354 404.4 C 394.052 404.753 393.889 405.225 393.865 405.817 L 393.643 405.842 L 393.404 403.705 L 400.497 402.913 z "
       id="path668"
       transform="translate(-8.838844,144.0730)" />
    <path
       style="font-size:12;font-weight:bold;stroke-width:1pt;font-family:Times New Roman;fill:#8c361d;fill-opacity:1;"
       d="M 379.707 405.695 L 380.066 408.909 L 380.223 408.892 C 380.723 408.836 381.07 408.638 381.259 408.298 C 381.45 407.959 381.541 407.479 381.535 406.858 L 381.756 406.834 L 382.217 410.968 L 381.997 410.993 C 381.9 410.548 381.759 410.19 381.576 409.92 C 381.396 409.649 381.202 409.475 380.993 409.401 C 380.784 409.322 380.491 409.303 380.114 409.345 L 380.363 411.571 C 380.411 412.005 380.459 412.269 380.505 412.362 C 380.554 412.455 380.633 412.527 380.741 412.578 C 380.848 412.628 381.015 412.641 381.24 412.616 L 381.712 412.563 C 382.45 412.481 383.021 412.245 383.425 411.853 C 383.833 411.462 384.095 410.906 384.212 410.186 L 384.427 410.162 L 384.352 412.711 L 377.527 413.473 L 377.503 413.257 L 377.766 413.228 C 377.994 413.203 378.175 413.141 378.305 413.044 C 378.4 412.978 378.467 412.877 378.507 412.739 C 378.539 412.641 378.533 412.394 378.489 411.998 L 377.908 406.804 C 377.869 406.447 377.834 406.228 377.806 406.149 C 377.752 406.017 377.668 405.921 377.555 405.858 C 377.395 405.766 377.187 405.734 376.932 405.763 L 376.67 405.792 L 376.646 405.577 L 383.254 404.839 L 383.515 407.173 L 383.295 407.198 C 383.118 406.64 382.913 406.249 382.679 406.023 C 382.45 405.797 382.142 405.646 381.757 405.572 C 381.531 405.527 381.12 405.537 380.522 405.604 L 379.707 405.695 z "
       id="path671"
       transform="translate(-8.838844,144.0730)" />
    <path
       style="font-size:12;font-weight:bold;stroke-width:1pt;font-family:Times New Roman;fill:#8c361d;fill-opacity:1;"
       d="M 369.036 414.203 L 369.06 414.419 L 364.932 414.88 L 364.908 414.664 L 365.17 414.635 C 365.399 414.609 365.579 414.548 365.709 414.451 C 365.804 414.385 365.871 414.284 365.911 414.146 C 365.944 414.047 365.937 413.801 365.893 413.405 L 365.313 408.21 C 365.268 407.807 365.219 407.557 365.165 407.46 C 365.111 407.365 365.013 407.287 364.873 407.228 C 364.736 407.164 364.557 407.145 364.336 407.169 L 364.074 407.199 L 364.05 406.984 L 368.178 406.523 L 368.202 406.738 L 367.941 406.767 C 367.711 406.792 367.532 406.854 367.401 406.951 C 367.306 407.017 367.237 407.119 367.194 407.258 C 367.161 407.355 367.167 407.603 367.211 407.998 L 367.791 413.193 C 367.836 413.597 367.886 413.847 367.94 413.942 C 367.998 414.038 368.096 414.118 368.232 414.181 C 368.372 414.24 368.553 414.257 368.775 414.232 L 369.036 414.203 z "
       id="path675"
       transform="translate(-8.838844,144.0730)" />
    <path
       style="font-size:12;font-weight:bold;stroke-width:1pt;font-family:Times New Roman;fill:#8c361d;fill-opacity:1;"
       d="M 363.958 412.182 L 363.971 414.987 L 356.96 415.77 L 356.936 415.555 L 357.198 415.525 C 357.427 415.5 357.607 415.439 357.738 415.341 C 357.832 415.275 357.9 415.174 357.939 415.036 C 357.971 414.938 357.966 414.691 357.922 414.295 L 357.341 409.101 C 357.296 408.697 357.246 408.447 357.192 408.351 C 357.138 408.255 357.041 408.177 356.902 408.119 C 356.765 408.054 356.585 408.035 356.364 408.06 L 356.102 408.089 L 356.078 407.874 L 360.288 407.404 L 360.312 407.619 L 359.968 407.657 C 359.74 407.683 359.56 407.744 359.429 407.841 C 359.334 407.907 359.265 408.009 359.221 408.148 C 359.189 408.245 359.195 408.493 359.24 408.889 L 359.801 413.919 C 359.847 414.324 359.898 414.579 359.958 414.687 C 360.016 414.79 360.117 414.861 360.259 414.901 C 360.36 414.925 360.597 414.916 360.97 414.875 L 361.628 414.801 C 362.047 414.754 362.388 414.641 362.65 414.463 C 362.914 414.284 363.129 414.024 363.295 413.683 C 363.465 413.342 363.606 412.851 363.72 412.209 L 363.958 412.182 z "
       id="path676"
       transform="translate(-8.838844,144.0730)" />
    <path
       style="font-size:12;font-weight:bold;stroke-width:1pt;font-family:Times New Roman;fill:#8c361d;fill-opacity:1;"
       d="M 401.741 553.854 L 401.717 553.639 L 401.978 553.609 C 402.208 553.584 402.379 553.529 402.491 553.446 C 402.607 553.358 402.687 553.25 402.731 553.119 C 402.757 553.033 402.748 552.787 402.702 552.379 L 402.122 547.185 C 402.077 546.781 402.027 546.531 401.973 546.435 C 401.919 546.339 401.823 546.261 401.682 546.203 C 401.545 546.138 401.366 546.119 401.144 546.144 L 400.883 546.173 L 400.859 545.958 L 404.393 545.564 C 405.337 545.458 406.11 545.502 406.713 545.693 C 407.451 545.93 408.036 546.345 408.468 546.942 C 408.904 547.537 409.167 548.237 409.257 549.041 C 409.319 549.596 409.287 550.119 409.161 550.609 C 409.034 551.094 408.846 551.506 408.597 551.845 C 408.348 552.179 408.047 552.46 407.695 552.688 C 407.346 552.911 406.91 553.104 406.385 553.265 C 406.154 553.337 405.784 553.403 405.275 553.46 L 401.741 553.854 z M 403.919 546.07 L 404.607 552.231 C 404.644 552.557 404.682 552.755 404.721 552.826 C 404.76 552.896 404.819 552.946 404.897 552.977 C 405.009 553.023 405.163 553.035 405.361 553.013 C 406.009 552.941 406.479 552.665 406.772 552.184 C 407.171 551.534 407.3 550.58 407.159 549.323 C 407.046 548.309 406.797 547.518 406.411 546.947 C 406.106 546.502 405.746 546.216 405.33 546.09 C 405.037 546 404.567 545.994 403.919 546.07 z "
       id="path724" />
    <path
       style="font-size:12;font-weight:bold;stroke-width:1pt;font-family:Times New Roman;fill:#8c361d;fill-opacity:1;"
       d="M 397.682 552.032 L 394.892 552.343 L 394.646 553.15 C 394.566 553.417 394.535 553.635 394.554 553.802 C 394.578 554.023 394.686 554.176 394.876 554.261 C 394.988 554.312 395.252 554.33 395.666 554.314 L 395.691 554.53 L 393.064 554.823 L 393.04 554.608 C 393.318 554.533 393.539 554.391 393.7 554.181 C 393.861 553.966 394.041 553.543 394.242 552.911 L 396.363 546.296 L 396.473 546.283 L 400.043 552.44 C 400.384 553.023 400.65 553.384 400.843 553.524 C 400.988 553.629 401.183 553.679 401.426 553.671 L 401.45 553.887 L 397.63 554.314 L 397.605 554.098 L 397.762 554.08 C 398.07 554.046 398.28 553.979 398.395 553.88 C 398.473 553.809 398.505 553.715 398.492 553.598 C 398.485 553.528 398.466 553.457 398.434 553.387 C 398.422 553.353 398.348 553.213 398.211 552.969 L 397.682 552.032 z M 397.435 551.624 L 395.955 549.035 L 395.048 551.89 L 397.435 551.624 z "
       id="path727" />
    <path
       style="font-size:12;font-weight:bold;stroke-width:1pt;font-family:Times New Roman;fill:#8c361d;fill-opacity:1;"
       d="M 379.17 552.732 L 379.417 554.944 C 379.465 555.371 379.52 555.639 379.583 555.746 C 379.65 555.848 379.753 555.925 379.892 555.977 C 380.031 556.028 380.281 556.033 380.643 555.992 L 380.667 556.208 L 376.625 556.66 L 376.601 556.444 C 376.966 556.403 377.209 556.343 377.329 556.263 C 377.454 556.178 377.535 556.078 377.574 555.964 C 377.615 555.85 377.613 555.578 377.565 555.151 L 376.993 550.027 C 376.945 549.599 376.888 549.335 376.822 549.233 C 376.759 549.125 376.657 549.046 376.518 548.995 C 376.379 548.944 376.128 548.938 375.767 548.978 L 375.743 548.764 L 379.412 548.354 C 380.367 548.247 381.073 548.235 381.53 548.318 C 381.987 548.4 382.377 548.604 382.696 548.93 C 383.014 549.253 383.201 549.652 383.254 550.129 C 383.319 550.712 383.163 551.216 382.786 551.644 C 382.545 551.914 382.19 552.137 381.723 552.311 L 383.92 554.772 C 384.207 555.089 384.408 555.285 384.522 555.359 C 384.695 555.461 384.886 555.506 385.097 555.495 L 385.121 555.711 L 382.635 555.988 L 379.689 552.674 L 379.17 552.732 z M 378.737 548.859 L 379.124 552.318 L 379.456 552.281 C 379.995 552.221 380.393 552.127 380.651 552 C 380.907 551.87 381.097 551.667 381.22 551.394 C 381.346 551.117 381.386 550.771 381.339 550.355 C 381.272 549.753 381.08 549.325 380.765 549.069 C 380.454 548.813 379.986 548.719 379.36 548.789 L 378.737 548.859 z "
       id="path730" />
    <path
       style="font-size:12;font-weight:bold;stroke-width:1pt;font-family:Times New Roman;fill:#8c361d;fill-opacity:1;"
       d="M 365.333 553.682 C 366.102 553.773 366.651 553.926 366.982 554.14 C 367.456 554.445 367.724 554.879 367.787 555.442 C 367.854 556.035 367.67 556.553 367.235 556.995 C 366.701 557.531 365.876 557.86 364.758 557.985 L 360.746 558.433 L 360.722 558.218 C 361.087 558.177 361.329 558.116 361.45 558.037 C 361.574 557.951 361.655 557.852 361.694 557.738 C 361.736 557.623 361.733 557.352 361.685 556.925 L 361.113 551.8 C 361.065 551.373 361.008 551.109 360.942 551.007 C 360.878 550.899 360.778 550.82 360.638 550.769 C 360.499 550.718 360.249 550.712 359.888 550.752 L 359.864 550.537 L 363.648 550.115 C 364.553 550.014 365.203 550.023 365.598 550.144 C 365.992 550.261 366.316 550.469 366.569 550.766 C 366.822 551.061 366.968 551.388 367.009 551.75 C 367.051 552.129 366.952 552.485 366.709 552.815 C 366.467 553.14 366.008 553.429 365.333 553.682 z M 363.195 553.761 C 363.746 553.7 364.145 553.592 364.391 553.439 C 364.641 553.285 364.824 553.089 364.939 552.847 C 365.053 552.606 365.091 552.311 365.052 551.962 C 365.013 551.612 364.911 551.335 364.747 551.129 C 364.586 550.92 364.371 550.77 364.101 550.683 C 363.832 550.595 363.414 550.585 362.848 550.652 L 363.195 553.761 z M 363.246 554.216 L 363.529 556.749 L 363.556 557.041 C 363.579 557.25 363.65 557.404 363.766 557.5 C 363.887 557.593 364.052 557.627 364.262 557.604 C 364.572 557.569 364.849 557.47 365.094 557.305 C 365.343 557.136 365.523 556.913 365.633 556.638 C 365.743 556.358 365.78 556.057 365.744 555.735 C 365.703 555.366 365.581 555.046 365.377 554.773 C 365.174 554.497 364.916 554.318 364.604 554.235 C 364.293 554.152 363.839 554.145 363.246 554.216 z "
       id="path734" />
  </g>
  <g
     id="g747"
     transform="matrix(0.474322,0.000000,0.223454,0.426855,95.01492,-5.887047)"
     style="fill:#8c361d;fill-opacity:1;">
    <path
       style="font-size:12;font-weight:bold;stroke-width:1pt;font-family:Times New Roman;fill:#8c361d;fill-opacity:1;"
       d="M 384.008 417.289 L 384.367 420.503 L 384.525 420.486 C 385.026 420.43 385.371 420.232 385.561 419.892 C 385.751 419.553 385.842 419.073 385.837 418.452 L 386.058 418.428 L 386.52 422.562 L 386.298 422.587 C 386.201 422.142 386.061 421.784 385.878 421.514 C 385.698 421.243 385.504 421.07 385.295 420.995 C 385.085 420.916 384.793 420.897 384.416 420.94 L 384.664 423.165 C 384.713 423.599 384.761 423.863 384.806 423.956 C 384.856 424.049 384.935 424.121 385.043 424.172 C 385.151 424.222 385.317 424.235 385.542 424.21 L 386.014 424.157 C 386.751 424.075 387.323 423.839 387.727 423.448 C 388.135 423.056 388.398 422.5 388.513 421.78 L 388.729 421.756 L 388.654 424.305 L 381.829 425.067 L 381.805 424.852 L 382.067 424.822 C 382.296 424.797 382.476 424.735 382.606 424.638 C 382.702 424.572 382.769 424.471 382.809 424.333 C 382.841 424.235 382.834 423.988 382.79 423.592 L 382.21 418.398 C 382.17 418.041 382.137 417.822 382.108 417.743 C 382.054 417.611 381.971 417.515 381.857 417.452 C 381.698 417.36 381.49 417.328 381.233 417.357 L 380.971 417.386 L 380.947 417.171 L 387.557 416.433 L 387.818 418.768 L 387.596 418.792 C 387.42 418.234 387.214 417.843 386.981 417.617 C 386.751 417.391 386.444 417.241 386.058 417.166 C 385.833 417.121 385.421 417.131 384.824 417.198 L 384.008 417.289 z "
       id="path677"
       transform="translate(-8.838844,144.0730)" />
    <path
       style="font-size:12;font-weight:bold;stroke-width:1pt;font-family:Times New Roman;fill:#8c361d;fill-opacity:1;"
       d="M 364.969 418.956 L 368.667 418.543 L 368.246 420.11 L 365.136 420.458 L 364.927 421.277 C 366.272 421.178 367.34 421.397 368.132 421.933 C 368.782 422.376 369.15 422.976 369.234 423.732 C 369.288 424.218 369.203 424.709 368.98 425.205 C 368.756 425.698 368.408 426.098 367.935 426.407 C 367.462 426.711 366.926 426.897 366.329 426.964 C 365.684 427.036 365.175 426.971 364.804 426.769 C 364.544 426.625 364.401 426.444 364.377 426.227 C 364.358 426.06 364.404 425.905 364.514 425.763 C 364.628 425.621 364.768 425.54 364.935 425.521 C 365.087 425.504 365.244 425.518 365.406 425.563 C 365.568 425.608 365.852 425.741 366.258 425.963 C 366.513 426.1 366.729 426.189 366.907 426.233 C 367.033 426.266 367.171 426.274 367.322 426.257 C 367.641 426.221 367.898 426.075 368.093 425.818 C 368.292 425.559 368.374 425.267 368.338 424.941 C 368.261 424.257 367.857 423.741 367.126 423.39 C 366.396 423.039 365.51 422.922 364.47 423.039 C 364.364 423.05 364.207 423.07 363.998 423.096 L 364.969 418.956 z "
       id="path680"
       transform="translate(-8.838844,144.0730)" />
    <path
       style="font-size:12;font-weight:bold;stroke-width:1pt;font-family:Times New Roman;fill:#8c361d;fill-opacity:1;"
       d="M 361.055 419.228 L 361.776 425.686 C 361.83 426.171 361.886 426.479 361.944 426.61 C 362.002 426.737 362.102 426.836 362.248 426.906 C 362.394 426.976 362.616 426.995 362.914 426.962 L 363.095 426.941 L 363.119 427.157 L 358.961 427.621 L 358.937 427.406 L 359.147 427.382 C 359.485 427.345 359.721 427.279 359.856 427.185 C 359.991 427.092 360.076 426.974 360.112 426.833 C 360.147 426.691 360.137 426.372 360.081 425.875 L 359.624 421.781 C 359.583 421.416 359.54 421.191 359.495 421.106 C 359.45 421.016 359.376 420.946 359.272 420.895 C 359.171 420.839 359.059 420.819 358.935 420.832 C 358.737 420.855 358.503 420.943 358.233 421.099 L 358.105 420.901 L 360.863 419.25 L 361.055 419.228 z "
       id="path681"
       transform="translate(-8.838844,144.0730)" />
    <path
       style="font-size:12;font-weight:bold;stroke-width:1pt;font-family:Times New Roman;fill:#8c361d;fill-opacity:1;"
       d="M 364.296 570.111 L 364.272 569.896 L 364.534 569.866 C 364.763 569.841 364.934 569.786 365.046 569.703 C 365.162 569.615 365.243 569.506 365.288 569.376 C 365.313 569.29 365.303 569.044 365.257 568.636 L 364.677 563.442 C 364.632 563.038 364.583 562.788 364.529 562.692 C 364.475 562.596 364.378 562.518 364.237 562.46 C 364.1 562.395 363.921 562.376 363.701 562.401 L 363.438 562.43 L 363.414 562.215 L 366.949 561.821 C 367.892 561.715 368.666 561.759 369.269 561.95 C 370.007 562.186 370.591 562.602 371.023 563.199 C 371.459 563.794 371.723 564.494 371.812 565.298 C 371.874 565.853 371.842 566.376 371.716 566.866 C 371.59 567.351 371.401 567.763 371.152 568.102 C 370.903 568.436 370.602 568.717 370.25 568.945 C 369.902 569.168 369.466 569.361 368.941 569.522 C 368.709 569.594 368.339 569.66 367.831 569.716 L 364.296 570.111 z M 366.475 562.327 L 367.163 568.488 C 367.199 568.814 367.237 569.012 367.276 569.083 C 367.316 569.153 367.374 569.203 367.452 569.234 C 367.564 569.28 367.718 569.292 367.917 569.27 C 368.565 569.198 369.035 568.922 369.328 568.44 C 369.726 567.791 369.856 566.837 369.716 565.58 C 369.602 564.566 369.353 563.775 368.966 563.204 C 368.661 562.759 368.301 562.473 367.886 562.347 C 367.594 562.257 367.123 562.251 366.475 562.327 z "
       id="path737" />
  </g>
  <g
     id="g752"
     transform="matrix(0.474322,0.000000,0.244450,0.426855,73.79445,-4.793297)"
     style="fill:#8c361d;fill-opacity:1;">
    <path
       style="font-size:12;font-weight:bold;stroke-width:1pt;font-family:Times New Roman;fill:#8c361d;fill-opacity:1;"
       d="M 432.066 423.996 L 432.425 427.21 L 432.582 427.193 C 433.083 427.137 433.428 426.939 433.618 426.599 C 433.809 426.26 433.9 425.78 433.894 425.159 L 434.115 425.135 L 434.576 429.269 L 434.356 429.294 C 434.259 428.849 434.118 428.491 433.935 428.221 C 433.755 427.95 433.561 427.777 433.352 427.702 C 433.143 427.623 432.85 427.604 432.473 427.646 L 432.722 429.872 C 432.77 430.306 432.818 430.57 432.864 430.663 C 432.913 430.756 432.992 430.828 433.1 430.879 C 433.207 430.929 433.374 430.942 433.599 430.917 L 434.071 430.864 C 434.809 430.782 435.379 430.546 435.784 430.154 C 436.192 429.763 436.454 429.207 436.571 428.487 L 436.786 428.463 L 436.711 431.012 L 429.887 431.774 L 429.862 431.558 L 430.124 431.529 C 430.353 431.504 430.533 431.442 430.664 431.345 C 430.759 431.279 430.826 431.178 430.865 431.04 C 430.897 430.942 430.892 430.695 430.848 430.299 L 430.268 425.105 C 430.228 424.748 430.193 424.529 430.165 424.45 C 430.111 424.318 430.027 424.222 429.914 424.159 C 429.754 424.067 429.546 424.035 429.29 424.064 L 429.029 424.093 L 429.005 423.878 L 435.614 423.14 L 435.874 425.474 L 435.654 425.499 C 435.477 424.941 435.272 424.55 435.038 424.324 C 434.809 424.098 434.501 423.947 434.116 423.873 C 433.89 423.828 433.479 423.838 432.881 423.905 L 432.066 423.996 z "
       id="path682"
       transform="translate(-8.838844,144.0730)" />
    <path
       style="font-size:12;font-weight:bold;stroke-width:1pt;font-family:Times New Roman;fill:#8c361d;fill-opacity:1;"
       d="M 407.207 431.583 L 408.768 426.138 L 411.983 425.779 L 412.007 425.994 L 411.751 426.023 C 411.518 426.049 411.336 426.11 411.206 426.207 C 411.115 426.273 411.048 426.373 411.003 426.508 C 410.971 426.606 410.977 426.851 411.021 427.242 L 411.602 432.449 C 411.648 432.852 411.697 433.102 411.751 433.198 C 411.805 433.295 411.902 433.374 412.043 433.437 C 412.183 433.496 412.363 433.513 412.585 433.488 L 412.841 433.46 L 412.865 433.675 L 408.742 434.136 L 408.718 433.92 L 408.974 433.892 C 409.208 433.865 409.389 433.804 409.52 433.707 C 409.611 433.641 409.678 433.54 409.722 433.402 C 409.754 433.303 409.748 433.056 409.704 432.661 L 409.051 426.808 L 406.827 434.35 L 406.687 434.365 L 402.813 427.558 L 403.434 433.119 C 403.478 433.507 403.514 433.745 403.544 433.832 C 403.616 434.02 403.743 434.167 403.923 434.273 C 404.108 434.375 404.38 434.405 404.741 434.364 L 404.765 434.58 L 402.064 434.882 L 402.039 434.666 L 402.121 434.657 C 402.295 434.642 402.456 434.596 402.601 434.521 C 402.745 434.442 402.85 434.348 402.917 434.238 C 402.984 434.128 403.027 433.98 403.05 433.793 C 403.053 433.749 403.035 433.551 402.995 433.198 L 402.437 428.201 C 402.393 427.801 402.343 427.555 402.29 427.463 C 402.236 427.367 402.139 427.289 401.999 427.231 C 401.858 427.167 401.677 427.148 401.456 427.173 L 401.206 427.201 L 401.182 426.986 L 404.408 426.626 L 407.207 431.583 z "
       id="path688"
       transform="translate(-8.838844,144.0730)" />
    <path
       style="font-size:12;font-weight:bold;stroke-width:1pt;font-family:Times New Roman;fill:#8c361d;fill-opacity:1;"
       d="M 396.288 427.992 L 396.647 431.206 L 396.804 431.189 C 397.305 431.133 397.65 430.935 397.841 430.595 C 398.031 430.256 398.122 429.776 398.117 429.156 L 398.337 429.131 L 398.799 433.265 L 398.578 433.29 C 398.481 432.845 398.341 432.487 398.158 432.217 C 397.977 431.946 397.783 431.773 397.574 431.698 C 397.365 431.619 397.072 431.601 396.696 431.643 L 396.944 433.868 C 396.993 434.302 397.041 434.566 397.086 434.659 C 397.136 434.752 397.214 434.824 397.323 434.875 C 397.43 434.925 397.596 434.938 397.822 434.913 L 398.294 434.86 C 399.031 434.778 399.602 434.542 400.007 434.151 C 400.415 433.759 400.677 433.203 400.793 432.483 L 401.008 432.459 L 400.934 435.008 L 394.109 435.77 L 394.085 435.555 L 394.346 435.525 C 394.576 435.5 394.755 435.438 394.886 435.341 C 394.981 435.275 395.049 435.174 395.088 435.036 C 395.12 434.938 395.114 434.691 395.07 434.295 L 394.49 429.101 C 394.45 428.744 394.416 428.525 394.388 428.446 C 394.334 428.314 394.25 428.218 394.137 428.155 C 393.977 428.063 393.769 428.031 393.512 428.06 L 393.251 428.089 L 393.227 427.874 L 399.836 427.136 L 400.097 429.471 L 399.876 429.495 C 399.699 428.937 399.494 428.546 399.261 428.32 C 399.031 428.094 398.724 427.944 398.338 427.869 C 398.113 427.824 397.701 427.834 397.103 427.901 L 396.288 427.992 z "
       id="path689"
       transform="translate(-8.838844,144.0730)" />
    <path
       style="font-size:12;font-weight:bold;stroke-width:1pt;font-family:Times New Roman;fill:#8c361d;fill-opacity:1;"
       d="M 393.572 435.612 L 393.596 435.828 L 389.468 436.289 L 389.444 436.073 L 389.706 436.044 C 389.935 436.018 390.115 435.957 390.245 435.86 C 390.34 435.794 390.408 435.693 390.447 435.554 C 390.48 435.456 390.473 435.209 390.429 434.814 L 389.849 429.619 C 389.804 429.216 389.755 428.966 389.701 428.869 C 389.647 428.773 389.55 428.696 389.409 428.637 C 389.272 428.573 389.093 428.553 388.872 428.578 L 388.61 428.607 L 388.586 428.393 L 392.714 427.932 L 392.738 428.146 L 392.476 428.176 C 392.247 428.201 392.067 428.263 391.937 428.36 C 391.842 428.426 391.773 428.528 391.73 428.666 C 391.697 428.764 391.703 429.012 391.747 429.407 L 392.327 434.602 C 392.372 435.005 392.422 435.255 392.476 435.351 C 392.533 435.447 392.631 435.527 392.768 435.59 C 392.908 435.649 393.089 435.666 393.31 435.641 L 393.572 435.612 z "
       id="path690"
       transform="translate(-8.838844,144.0730)" />
    <path
       style="font-size:12;font-weight:bold;stroke-width:1pt;font-family:Times New Roman;fill:#8c361d;fill-opacity:1;"
       d="M 387.916 428.468 L 388.155 430.604 L 387.945 430.628 C 387.766 430.149 387.588 429.81 387.413 429.614 C 387.238 429.414 387.011 429.264 386.732 429.165 C 386.577 429.112 386.315 429.106 385.946 429.147 L 385.358 429.213 L 386.038 435.304 C 386.083 435.708 386.134 435.958 386.187 436.053 C 386.245 436.15 386.342 436.229 386.479 436.292 C 386.619 436.351 386.802 436.368 387.027 436.343 L 387.289 436.314 L 387.313 436.529 L 383.179 436.991 L 383.155 436.775 L 383.416 436.746 C 383.646 436.721 383.825 436.659 383.956 436.562 C 384.051 436.496 384.121 436.395 384.164 436.256 C 384.196 436.158 384.19 435.911 384.146 435.516 L 383.466 429.424 L 382.895 429.488 C 382.363 429.548 381.99 429.703 381.773 429.955 C 381.472 430.307 381.308 430.779 381.284 431.372 L 381.062 431.396 L 380.823 429.26 L 387.916 428.468 z "
       id="path691"
       transform="translate(-8.838844,144.0730)" />
    <path
       style="font-size:12;font-weight:bold;stroke-width:1pt;font-family:Times New Roman;fill:#8c361d;fill-opacity:1;"
       d="M 368.453 431.101 L 368.812 434.315 L 368.969 434.298 C 369.47 434.242 369.816 434.044 370.006 433.704 C 370.196 433.365 370.288 432.885 370.282 432.265 L 370.502 432.24 L 370.964 436.374 L 370.743 436.399 C 370.646 435.954 370.506 435.596 370.323 435.326 C 370.143 435.055 369.949 434.882 369.74 434.807 C 369.53 434.728 369.238 434.71 368.861 434.752 L 369.109 436.977 C 369.158 437.411 369.206 437.675 369.251 437.768 C 369.301 437.861 369.379 437.933 369.488 437.984 C 369.595 438.034 369.762 438.047 369.987 438.022 L 370.459 437.969 C 371.196 437.887 371.768 437.651 372.172 437.26 C 372.58 436.868 372.842 436.312 372.959 435.592 L 373.174 435.568 L 373.099 438.117 L 366.274 438.879 L 366.25 438.664 L 366.512 438.634 C 366.741 438.609 366.921 438.547 367.051 438.45 C 367.147 438.384 367.214 438.283 367.254 438.145 C 367.286 438.047 367.28 437.8 367.235 437.404 L 366.655 432.21 C 366.615 431.853 366.581 431.634 366.553 431.555 C 366.499 431.423 366.415 431.327 366.302 431.264 C 366.143 431.172 365.934 431.14 365.679 431.169 L 365.416 431.198 L 365.392 430.983 L 372.001 430.245 L 372.262 432.58 L 372.041 432.604 C 371.864 432.046 371.659 431.655 371.426 431.429 C 371.196 431.203 370.889 431.053 370.503 430.978 C 370.278 430.933 369.866 430.943 369.269 431.01 L 368.453 431.101 z "
       id="path694"
       transform="translate(-8.838844,144.0730)" />
    <path
       style="font-size:12;font-weight:bold;stroke-width:1pt;font-family:Times New Roman;fill:#8c361d;fill-opacity:1;"
       d="M 364.103 430.944 L 364.46 433.569 L 364.222 433.595 C 364.036 432.948 363.698 432.449 363.212 432.099 C 362.728 431.745 362.23 431.595 361.717 431.652 C 361.321 431.697 361.019 431.839 360.809 432.079 C 360.604 432.314 360.516 432.569 360.547 432.845 C 360.566 433.02 360.624 433.17 360.722 433.297 C 360.855 433.466 361.055 433.627 361.323 433.778 C 361.52 433.886 361.967 434.066 362.663 434.318 C 363.638 434.669 364.31 435.029 364.677 435.396 C 365.04 435.764 365.25 436.208 365.308 436.729 C 365.382 437.389 365.187 437.986 364.725 438.522 C 364.265 439.052 363.639 439.362 362.847 439.45 C 362.599 439.478 362.362 439.479 362.134 439.453 C 361.908 439.427 361.619 439.364 361.27 439.261 C 361.075 439.204 360.918 439.183 360.796 439.196 C 360.696 439.207 360.593 439.258 360.489 439.348 C 360.386 439.438 360.308 439.567 360.256 439.735 L 360.04 439.759 L 359.707 436.777 L 359.923 436.753 C 360.187 437.572 360.587 438.176 361.121 438.564 C 361.659 438.949 362.21 439.109 362.773 439.046 C 363.207 438.997 363.54 438.841 363.77 438.575 C 364.004 438.31 364.102 438.019 364.067 437.705 C 364.046 437.518 363.976 437.344 363.856 437.18 C 363.739 437.016 363.571 436.868 363.352 436.735 C 363.133 436.599 362.752 436.433 362.212 436.238 C 361.454 435.964 360.904 435.722 360.562 435.509 C 360.22 435.295 359.946 435.044 359.741 434.757 C 359.54 434.469 359.419 434.14 359.377 433.771 C 359.307 433.142 359.478 432.581 359.891 432.087 C 360.303 431.593 360.861 431.306 361.564 431.228 C 361.82 431.199 362.072 431.202 362.319 431.238 C 362.508 431.264 362.738 431.326 363.013 431.425 C 363.291 431.52 363.482 431.562 363.587 431.55 C 363.687 431.539 363.763 431.499 363.815 431.43 C 363.866 431.362 363.904 431.206 363.928 430.964 L 364.103 430.944 z "
       id="path695"
       transform="translate(-8.838844,144.0730)" />
    <path
       style="font-size:12;font-weight:bold;stroke-width:1pt;font-family:Times New Roman;fill:#8c361d;fill-opacity:1;"
       d="M 367.972 578.155 L 368.216 580.344 C 368.264 580.772 368.319 581.039 368.382 581.146 C 368.449 581.248 368.551 581.325 368.691 581.377 C 368.834 581.427 369.084 581.433 369.441 581.393 L 369.465 581.609 L 365.453 582.057 L 365.429 581.841 C 365.795 581.8 366.038 581.74 366.158 581.66 C 366.282 581.575 366.363 581.475 366.402 581.361 C 366.444 581.247 366.441 580.975 366.394 580.548 L 365.821 575.424 C 365.774 574.996 365.717 574.732 365.65 574.63 C 365.587 574.522 365.485 574.443 365.346 574.392 C 365.207 574.341 364.957 574.335 364.595 574.375 L 364.571 574.161 L 368.013 573.776 C 369.147 573.65 369.982 573.761 370.52 574.109 C 371.058 574.458 371.361 574.935 371.429 575.54 C 371.486 576.053 371.376 576.509 371.099 576.91 C 370.822 577.31 370.41 577.608 369.866 577.802 C 369.5 577.937 368.868 578.055 367.972 578.155 z M 367.54 574.289 L 367.921 577.701 C 368.05 577.694 368.147 577.688 368.214 577.68 C 368.687 577.627 369.037 577.446 369.261 577.139 C 369.486 576.827 369.565 576.375 369.499 575.786 C 369.434 575.199 369.258 574.784 368.971 574.542 C 368.685 574.298 368.287 574.206 367.778 574.262 L 367.54 574.289 z "
       id="path714" />
    <path
       style="font-size:12;font-weight:bold;stroke-width:1pt;font-family:Times New Roman;fill:#8c361d;fill-opacity:1;"
       d="M 409.079 572.945 C 409.847 573.036 410.398 573.189 410.728 573.404 C 411.202 573.708 411.471 574.142 411.534 574.705 C 411.6 575.298 411.416 575.816 410.982 576.258 C 410.448 576.794 409.623 577.123 408.505 577.248 L 404.493 577.696 L 404.468 577.481 C 404.833 577.44 405.076 577.379 405.197 577.3 C 405.321 577.214 405.402 577.115 405.44 577.001 C 405.483 576.886 405.48 576.615 405.432 576.188 L 404.86 571.063 C 404.812 570.636 404.755 570.372 404.688 570.27 C 404.625 570.162 404.525 570.083 404.385 570.032 C 404.246 569.981 403.995 569.975 403.635 570.015 L 403.611 569.8 L 407.395 569.378 C 408.299 569.277 408.95 569.286 409.344 569.407 C 409.739 569.524 410.062 569.732 410.315 570.029 C 410.569 570.324 410.715 570.651 410.755 571.013 C 410.798 571.392 410.699 571.748 410.456 572.078 C 410.213 572.403 409.755 572.692 409.079 572.945 z M 406.942 573.024 C 407.493 572.963 407.892 572.855 408.138 572.702 C 408.388 572.548 408.57 572.351 408.685 572.11 C 408.799 571.869 408.838 571.574 408.799 571.225 C 408.76 570.875 408.657 570.598 408.493 570.392 C 408.332 570.183 408.117 570.033 407.848 569.946 C 407.579 569.858 407.161 569.848 406.595 569.915 L 406.942 573.024 z M 406.993 573.479 L 407.276 576.012 L 407.302 576.304 C 407.326 576.513 407.396 576.667 407.513 576.763 C 407.633 576.856 407.798 576.89 408.008 576.867 C 408.318 576.832 408.596 576.733 408.841 576.568 C 409.089 576.399 409.269 576.176 409.379 575.901 C 409.49 575.621 409.527 575.32 409.491 574.998 C 409.45 574.629 409.327 574.309 409.124 574.036 C 408.92 573.76 408.662 573.581 408.35 573.498 C 408.039 573.415 407.586 573.408 406.993 573.479 z "
       id="path718" />
    <path
       style="font-size:12;font-weight:bold;stroke-width:1pt;font-family:Times New Roman;fill:#8c361d;fill-opacity:1;"
       d="M 414.962 572.883 L 415.209 575.096 C 415.257 575.523 415.312 575.79 415.375 575.897 C 415.442 575.999 415.545 576.076 415.684 576.128 C 415.823 576.179 416.073 576.184 416.435 576.144 L 416.459 576.36 L 412.417 576.811 L 412.393 576.595 C 412.758 576.555 413.001 576.494 413.122 576.414 C 413.246 576.329 413.327 576.229 413.366 576.115 C 413.407 576.001 413.405 575.73 413.358 575.302 L 412.785 570.178 C 412.737 569.751 412.68 569.487 412.614 569.384 C 412.551 569.277 412.449 569.197 412.31 569.147 C 412.171 569.096 411.92 569.09 411.559 569.13 L 411.535 568.915 L 415.204 568.505 C 416.16 568.399 416.866 568.386 417.323 568.469 C 417.78 568.552 418.169 568.756 418.488 569.081 C 418.807 569.404 418.993 569.804 419.046 570.281 C 419.111 570.863 418.955 571.368 418.579 571.795 C 418.337 572.066 417.983 572.288 417.515 572.462 L 419.712 574.924 C 419.999 575.241 420.2 575.437 420.314 575.51 C 420.487 575.613 420.678 575.658 420.889 575.646 L 420.913 575.862 L 418.427 576.14 L 415.481 572.825 L 414.962 572.883 z M 414.529 569.01 L 414.916 572.47 L 415.248 572.433 C 415.787 572.373 416.185 572.279 416.443 572.151 C 416.699 572.021 416.889 571.819 417.012 571.545 C 417.138 571.269 417.178 570.922 417.132 570.507 C 417.064 569.905 416.873 569.476 416.557 569.221 C 416.246 568.965 415.778 568.871 415.152 568.941 L 414.529 569.01 z "
       id="path721" />
  </g>
  <g
     id="g763"
     transform="matrix(0.474322,0.000000,0.148140,0.426855,135.3069,-5.418297)"
     style="fill:#8c361d;fill-opacity:1;">
    <path
       style="font-size:12;font-weight:bold;stroke-width:1pt;font-family:Times New Roman;fill:#8c361d;fill-opacity:1;"
       d="M 401.156 438.898 L 401.877 445.356 C 401.931 445.841 401.988 446.149 402.045 446.28 C 402.102 446.408 402.204 446.506 402.349 446.576 C 402.495 446.647 402.717 446.665 403.016 446.632 L 403.197 446.611 L 403.221 446.827 L 399.063 447.292 L 399.038 447.076 L 399.248 447.052 C 399.586 447.015 399.822 446.949 399.958 446.856 C 400.092 446.762 400.178 446.644 400.213 446.503 C 400.249 446.361 400.238 446.042 400.183 445.545 L 399.725 441.451 C 399.685 441.086 399.641 440.862 399.597 440.776 C 399.551 440.686 399.477 440.616 399.373 440.566 C 399.272 440.509 399.16 440.489 399.036 440.503 C 398.838 440.525 398.603 440.613 398.334 440.769 L 398.206 440.571 L 400.964 438.92 L 401.156 438.898 z "
       id="path696"
       transform="translate(-8.838844,144.0730)" />
    <path
       style="font-size:12;font-weight:bold;stroke-width:1pt;font-family:Times New Roman;fill:#8c361d;fill-opacity:1;"
       d="M 397.147 447.505 L 392.5 448.025 L 392.486 447.896 C 393.721 446.041 394.458 444.803 394.695 444.183 C 394.936 443.563 395.025 442.973 394.963 442.414 C 394.917 442.006 394.753 441.682 394.471 441.443 C 394.188 441.199 393.865 441.097 393.5 441.138 C 392.902 441.205 392.471 441.556 392.208 442.191 L 391.984 442.139 C 392.11 441.371 392.368 440.784 392.754 440.379 C 393.142 439.974 393.615 439.741 394.174 439.678 C 394.574 439.634 394.949 439.685 395.3 439.835 C 395.65 439.984 395.937 440.212 396.16 440.517 C 396.382 440.818 396.51 441.111 396.541 441.394 C 396.599 441.911 396.513 442.451 396.286 443.014 C 395.974 443.777 395.23 444.874 394.053 446.307 L 395.76 446.116 C 396.179 446.069 396.448 446.021 396.569 445.972 C 396.693 445.923 396.792 445.853 396.864 445.762 C 396.936 445.668 397.023 445.48 397.125 445.197 L 397.335 445.173 L 397.147 447.505 z "
       id="path697"
       transform="translate(-8.838844,144.0730)" />
    <path
       style="font-size:12;font-weight:bold;stroke-width:1pt;font-family:Times New Roman;fill:#8c361d;fill-opacity:1;"
       d="M 383.267 440.896 L 383.988 447.354 C 384.043 447.839 384.099 448.147 384.156 448.278 C 384.213 448.406 384.315 448.504 384.461 448.574 C 384.606 448.645 384.828 448.663 385.127 448.63 L 385.308 448.61 L 385.332 448.825 L 381.174 449.29 L 381.15 449.074 L 381.359 449.051 C 381.697 449.013 381.933 448.947 382.069 448.854 C 382.203 448.76 382.289 448.642 382.324 448.501 C 382.36 448.359 382.349 448.04 382.294 447.544 L 381.837 443.449 C 381.796 443.084 381.753 442.86 381.708 442.774 C 381.663 442.685 381.588 442.614 381.484 442.564 C 381.383 442.507 381.271 442.487 381.147 442.501 C 380.949 442.523 380.715 442.611 380.445 442.767 L 380.318 442.569 L 383.075 440.918 L 383.267 440.896 z "
       id="path701"
       transform="translate(-8.838844,144.0730)" />
    <path
       style="font-size:12;font-weight:bold;stroke-width:1pt;font-family:Times New Roman;fill:#8c361d;fill-opacity:1;"
       d="M 371.765 442.806 L 372.124 446.02 L 372.282 446.002 C 372.783 445.946 373.128 445.749 373.317 445.409 C 373.508 445.07 373.599 444.589 373.593 443.969 L 373.815 443.944 L 374.277 448.079 L 374.055 448.104 C 373.958 447.659 373.818 447.301 373.634 447.031 C 373.455 446.76 373.261 446.586 373.052 446.512 C 372.842 446.433 372.549 446.414 372.173 446.456 L 372.421 448.681 C 372.47 449.116 372.517 449.38 372.563 449.473 C 372.613 449.566 372.692 449.637 372.799 449.689 C 372.908 449.739 373.074 449.752 373.299 449.727 L 373.771 449.674 C 374.508 449.591 375.079 449.356 375.484 448.964 C 375.892 448.573 376.155 448.017 376.27 447.297 L 376.486 447.273 L 376.41 449.822 L 369.586 450.584 L 369.562 450.368 L 369.824 450.339 C 370.053 450.313 370.233 450.252 370.363 450.155 C 370.458 450.089 370.526 449.988 370.565 449.85 C 370.598 449.751 370.591 449.505 370.547 449.109 L 369.967 443.914 C 369.927 443.558 369.894 443.339 369.865 443.26 C 369.811 443.128 369.727 443.032 369.614 442.969 C 369.455 442.877 369.247 442.845 368.99 442.873 L 368.728 442.903 L 368.704 442.688 L 375.314 441.95 L 375.575 444.284 L 375.353 444.309 C 375.177 443.751 374.971 443.36 374.738 443.134 C 374.508 442.908 374.201 442.757 373.815 442.683 C 373.59 442.637 373.178 442.648 372.581 442.715 L 371.765 442.806 z "
       id="path702"
       transform="translate(-8.838844,144.0730)" />
    <path
       style="font-size:12;font-weight:bold;stroke-width:1pt;font-family:Times New Roman;fill:#8c361d;fill-opacity:1;"
       d="M 352.053 595.628 L 352.029 595.412 L 352.291 595.383 C 352.52 595.358 352.691 595.303 352.803 595.22 C 352.919 595.132 353 595.023 353.044 594.892 C 353.07 594.807 353.06 594.561 353.014 594.153 L 352.434 588.959 C 352.389 588.555 352.34 588.305 352.286 588.208 C 352.232 588.113 352.135 588.035 351.994 587.976 C 351.857 587.912 351.678 587.893 351.457 587.917 L 351.195 587.947 L 351.171 587.732 L 354.706 587.337 C 355.649 587.232 356.423 587.275 357.026 587.467 C 357.764 587.703 358.348 588.119 358.78 588.716 C 359.216 589.311 359.479 590.011 359.569 590.815 C 359.631 591.369 359.599 591.892 359.472 592.382 C 359.347 592.867 359.158 593.28 358.909 593.619 C 358.66 593.952 358.359 594.233 358.007 594.462 C 357.659 594.685 357.223 594.878 356.698 595.039 C 356.466 595.111 356.096 595.176 355.588 595.233 L 352.053 595.628 z M 354.231 587.844 L 354.919 594.005 C 354.956 594.331 354.994 594.529 355.033 594.6 C 355.073 594.67 355.131 594.72 355.209 594.75 C 355.321 594.797 355.475 594.809 355.674 594.787 C 356.322 594.714 356.792 594.439 357.085 593.957 C 357.483 593.308 357.613 592.354 357.472 591.096 C 357.359 590.083 357.11 589.292 356.723 588.721 C 356.418 588.276 356.058 587.989 355.643 587.863 C 355.35 587.773 354.88 587.768 354.231 587.844 z "
       id="path707" />
    <path
       style="font-size:12;font-weight:bold;stroke-width:1pt;font-family:Times New Roman;fill:#8c361d;fill-opacity:1;"
       d="M 380.974 587.882 C 381.574 588.227 382.001 588.565 382.254 588.894 C 382.511 589.219 382.664 589.609 382.715 590.063 C 382.786 590.7 382.606 591.267 382.173 591.763 C 381.745 592.254 381.119 592.546 380.296 592.638 C 379.515 592.726 378.891 592.601 378.42 592.264 C 377.951 591.927 377.685 591.482 377.623 590.927 C 377.576 590.503 377.657 590.119 377.866 589.774 C 378.078 589.427 378.457 589.091 379.002 588.762 C 378.324 588.354 377.879 588.009 377.666 587.726 C 377.457 587.442 377.331 587.101 377.286 586.702 C 377.227 586.173 377.399 585.685 377.8 585.235 C 378.205 584.781 378.799 584.51 379.579 584.423 C 380.333 584.339 380.931 584.453 381.374 584.765 C 381.821 585.072 382.072 585.475 382.128 585.972 C 382.17 586.345 382.096 586.687 381.907 586.999 C 381.721 587.306 381.41 587.601 380.974 587.882 z M 380.497 587.634 C 380.62 587.423 380.702 587.195 380.746 586.946 C 380.788 586.697 380.794 586.43 380.761 586.143 C 380.705 585.638 380.554 585.263 380.306 585.02 C 380.12 584.833 379.883 584.755 379.596 584.787 C 379.336 584.816 379.125 584.936 378.964 585.146 C 378.803 585.353 378.737 585.596 378.768 585.875 C 378.8 586.159 378.933 586.442 379.17 586.727 C 379.41 587.007 379.852 587.309 380.497 587.634 z M 379.47 588.993 C 379.362 589.115 379.287 589.223 379.248 589.318 C 379.185 589.463 379.137 589.669 379.104 589.936 C 379.071 590.202 379.07 590.478 379.102 590.761 C 379.143 591.126 379.224 591.428 379.345 591.666 C 379.465 591.9 379.616 592.062 379.8 592.152 C 379.987 592.24 380.172 592.275 380.353 592.255 C 380.637 592.223 380.864 592.093 381.035 591.866 C 381.206 591.634 381.271 591.338 381.231 590.977 C 381.147 590.224 380.56 589.563 379.47 588.993 z "
       id="path711" />
  </g>
</svg>
