<?xml version="1.0" encoding="UTF-8" standalone="no"?>
<!DOCTYPE svg PUBLIC "-//W3C//DTD SVG 20010904//EN"
"http://www.w3.org/TR/2001/REC-SVG-20010904/DTD/svg10.dtd"
[
 <!ATTLIST svg
  xmlns:xlink CDATA #FIXED "http://www.w3.org/1999/xlink">
]>
<!-- Created with Sodipodi ("http://www.sodipodi.com/") -->
<svg
   xmlns="http://www.w3.org/2000/svg"
   xmlns:xlink="http://www.w3.org/1999/xlink"
   version="1"
   x="0"
   y="0"
   width="1062.99"
   height="708.661"
   id="svg378">
  <defs
     id="defs380" />
  <rect
     width="1062.99"
     height="708.661"
     x="0"
     y="0"
     style="font-size:12;fill:#ffffff;fill-rule:evenodd;stroke-width:1pt;"
     id="rect171" />
  <rect
     width="1062.99"
     height="236.22"
     x="0"
     y="472.441"
     transform="translate(0,0.000281206)"
     style="font-size:12;fill:#329203;fill-rule:evenodd;stroke-width:1pt;"
     id="rect256" />
  <rect
     width="1062.99"
     height="236.22"
     x="0"
     y="0"
     style="font-size:12;fill:#e77300;fill-rule:evenodd;stroke-width:1pt;"
     id="rect255" />
  <g
     transform="matrix(0.366639,0,0,0.366639,398.443,219.601)"
     style="font-size:12;"
     id="g228">
    <ellipse
       cx="362.900665"
       cy="367.472717"
       rx="305.002045"
       ry="305.002014"
       style="fill:#08399c;fill-rule:evenodd;stroke-width:1pt;"
       id="path200" />
    <path
       d="M 297.088 104.968 C 303.188 103.329 306.442 102.994 312.276 101.81 C 315.917 113.787 323.854 120.051 331.838 118.648 C 339.028 117.491 349.276 112.227 347.176 97.2493 C 353.118 96.8936 356.532 96.7349 362.849 96.7512 C 362.732 141.956 359.885 189.588 355.72 234.027 C 352.716 266.812 361.782 274.663 363.142 291.724 C 364.662 311.519 363.406 327.098 364.81 367.978 C 356.752 327.873 351.829 312.107 348.925 293.543 C 346.244 275.677 352.742 268.833 339.989 235.543 C 323.519 193.496 308.818 148.625 297.088 104.968 z "
       transform="matrix(0.0050186,0.999987,-0.999987,0.0050186,730.681,1.42004)"
       style="fill:#ffffff;fill-rule:evenodd;stroke-width:1pt;"
       id="path175" />
    <path
       d="M 297.088 104.968 C 303.188 103.329 306.442 102.994 312.276 101.81 C 315.917 113.787 323.854 120.051 331.838 118.648 C 339.028 117.491 349.276 112.227 347.176 97.2493 C 353.118 96.8936 356.532 96.7349 362.849 96.7512 C 362.732 141.956 359.885 189.588 355.72 234.027 C 352.716 266.812 361.782 274.663 363.142 291.724 C 364.662 311.519 363.406 327.098 364.81 367.978 C 356.752 327.873 351.829 312.107 348.925 293.543 C 346.244 275.677 352.742 268.833 339.989 235.543 C 323.519 193.496 308.818 148.625 297.088 104.968 z "
       transform="matrix(0.999999,0.00146689,-0.00146689,0.999999,0.540109,-0.431542)"
       style="fill:#ffffff;fill-rule:evenodd;stroke-width:1pt;"
       id="path205" />
    <path
       d="M 297.088 104.968 C 303.188 103.329 306.442 102.994 312.276 101.81 C 315.917 113.787 323.854 120.051 331.838 118.648 C 339.028 117.491 349.276 112.227 347.176 97.2493 C 353.118 96.8936 356.532 96.7349 362.849 96.7512 C 362.732 141.956 359.885 189.588 355.72 234.027 C 352.716 266.812 361.782 274.663 363.142 291.724 C 364.662 311.519 363.406 327.098 364.81 367.978 C 356.752 327.873 351.829 312.107 348.925 293.543 C 346.244 275.677 352.742 268.833 339.989 235.543 C 323.519 193.496 308.818 148.625 297.088 104.968 z "
       transform="matrix(0.966391,0.257075,-0.257075,0.966391,106.818,-81.2843)"
       style="fill:#ffffff;fill-rule:evenodd;stroke-width:1pt;"
       id="path206" />
    <path
       d="M 297.088 104.968 C 303.188 103.329 306.442 102.994 312.276 101.81 C 315.917 113.787 323.854 120.051 331.838 118.648 C 339.028 117.491 349.276 112.227 347.176 97.2493 C 353.118 96.8936 356.532 96.7349 362.849 96.7512 C 362.732 141.956 359.885 189.588 355.72 234.027 C 352.716 266.812 361.782 274.663 363.142 291.724 C 364.662 311.519 363.406 327.098 364.81 367.978 C 356.752 327.873 351.829 312.107 348.925 293.543 C 346.244 275.677 352.742 268.833 339.989 235.543 C 323.519 193.496 308.818 148.625 297.088 104.968 z "
       transform="matrix(0.867187,0.497982,-0.497982,0.867187,231.61,-132.647)"
       style="fill:#ffffff;fill-rule:evenodd;stroke-width:1pt;"
       id="path207" />
    <path
       d="M 297.088 104.968 C 303.188 103.329 306.442 102.994 312.276 101.81 C 315.917 113.787 323.854 120.051 331.838 118.648 C 339.028 117.491 349.276 112.227 347.176 97.2493 C 353.118 96.8936 356.532 96.7349 362.849 96.7512 C 362.732 141.956 359.885 189.588 355.72 234.027 C 352.716 266.812 361.782 274.663 363.142 291.724 C 364.662 311.519 363.406 327.098 364.81 367.978 C 356.752 327.873 351.829 312.107 348.925 293.543 C 346.244 275.677 352.742 268.833 339.989 235.543 C 323.519 193.496 308.818 148.625 297.088 104.968 z "
       transform="matrix(0.709124,0.705084,-0.705084,0.709124,365.432,-150.031)"
       style="fill:#ffffff;fill-rule:evenodd;stroke-width:1pt;"
       id="path208" />
    <path
       d="M 297.088 104.968 C 303.188 103.329 306.442 102.994 312.276 101.81 C 315.917 113.787 323.854 120.051 331.838 118.648 C 339.028 117.491 349.276 112.227 347.176 97.2493 C 353.118 96.8936 356.532 96.7349 362.849 96.7512 C 362.732 141.956 359.885 189.588 355.72 234.027 C 352.716 266.812 361.782 274.663 363.142 291.724 C 364.662 311.519 363.406 327.098 364.81 367.978 C 356.752 327.873 351.829 312.107 348.925 293.543 C 346.244 275.677 352.742 268.833 339.989 235.543 C 323.519 193.496 308.818 148.625 297.088 104.968 z "
       transform="matrix(0.504288,0.863535,-0.863535,0.504288,498.416,-132.469)"
       style="fill:#ffffff;fill-rule:evenodd;stroke-width:1pt;"
       id="path209" />
    <path
       d="M 297.088 104.968 C 303.188 103.329 306.442 102.994 312.276 101.81 C 315.917 113.787 323.854 120.051 331.838 118.648 C 339.028 117.491 349.276 112.227 347.176 97.2493 C 353.118 96.8936 356.532 96.7349 362.849 96.7512 C 362.732 141.956 359.885 189.588 355.72 234.027 C 352.716 266.812 361.782 274.663 363.142 291.724 C 364.662 311.519 363.406 327.098 364.81 367.978 C 356.752 327.873 351.829 312.107 348.925 293.543 C 346.244 275.677 352.742 268.833 339.989 235.543 C 323.519 193.496 308.818 148.625 297.088 104.968 z "
       transform="matrix(0.259619,0.965711,-0.965711,0.259619,625.226,-79.7316)"
       style="fill:#ffffff;fill-rule:evenodd;stroke-width:1pt;"
       id="path210" />
    <path
       d="M 297.088 104.968 C 303.188 103.329 306.442 102.994 312.276 101.81 C 315.917 113.787 323.854 120.051 331.838 118.648 C 339.028 117.491 349.276 112.227 347.176 97.2493 C 353.118 96.8936 356.532 96.7349 362.849 96.7512 C 362.732 141.956 359.885 189.588 355.72 234.027 C 352.716 266.812 361.782 274.663 363.142 291.724 C 364.662 311.519 363.406 327.098 364.81 367.978 C 356.752 327.873 351.829 312.107 348.925 293.543 C 346.244 275.677 352.742 268.833 339.989 235.543 C 323.519 193.496 308.818 148.625 297.088 104.968 z "
       transform="matrix(0.00113884,-0.999999,0.999999,0.00113884,-3.57304,732.199)"
       style="fill:#ffffff;fill-rule:evenodd;stroke-width:1pt;"
       id="path211" />
    <path
       d="M 297.088 104.968 C 303.188 103.329 306.442 102.994 312.276 101.81 C 315.917 113.787 323.854 120.051 331.838 118.648 C 339.028 117.491 349.276 112.227 347.176 97.2493 C 353.118 96.8936 356.532 96.7349 362.849 96.7512 C 362.732 141.956 359.885 189.588 355.72 234.027 C 352.716 266.812 361.782 274.663 363.142 291.724 C 364.662 311.519 363.406 327.098 364.81 367.978 C 356.752 327.873 351.829 312.107 348.925 293.543 C 346.244 275.677 352.742 268.833 339.989 235.543 C 323.519 193.496 308.818 148.625 297.088 104.968 z "
       transform="matrix(-0.250504,0.968115,-0.968115,-0.250504,812.141,107.034)"
       style="fill:#ffffff;fill-rule:evenodd;stroke-width:1pt;"
       id="path212" />
    <path
       d="M 297.088 104.968 C 303.188 103.329 306.442 102.994 312.276 101.81 C 315.917 113.787 323.854 120.051 331.838 118.648 C 339.028 117.491 349.276 112.227 347.176 97.2493 C 353.118 96.8936 356.532 96.7349 362.849 96.7512 C 362.732 141.956 359.885 189.588 355.72 234.027 C 352.716 266.812 361.782 274.663 363.142 291.724 C 364.662 311.519 363.406 327.098 364.81 367.978 C 356.752 327.873 351.829 312.107 348.925 293.543 C 346.244 275.677 352.742 268.833 339.989 235.543 C 323.519 193.496 308.818 148.625 297.088 104.968 z "
       transform="matrix(-0.492329,0.870408,-0.870408,-0.492329,864.389,231.618)"
       style="fill:#ffffff;fill-rule:evenodd;stroke-width:1pt;"
       id="path213" />
    <path
       d="M 297.088 104.968 C 303.188 103.329 306.442 102.994 312.276 101.81 C 315.917 113.787 323.854 120.051 331.838 118.648 C 339.028 117.491 349.276 112.227 347.176 97.2493 C 353.118 96.8936 356.532 96.7349 362.849 96.7512 C 362.732 141.956 359.885 189.588 355.72 234.027 C 352.716 266.812 361.782 274.663 363.142 291.724 C 364.662 311.519 363.406 327.098 364.81 367.978 C 356.752 327.873 351.829 312.107 348.925 293.543 C 346.244 275.677 352.742 268.833 339.989 235.543 C 323.519 193.496 308.818 148.625 297.088 104.968 z "
       transform="matrix(-0.700821,0.713336,-0.713336,-0.700821,882.645,365.59)"
       style="fill:#ffffff;fill-rule:evenodd;stroke-width:1pt;"
       id="path214" />
    <path
       d="M 297.088 104.968 C 303.188 103.329 306.442 102.994 312.276 101.81 C 315.917 113.787 323.854 120.051 331.838 118.648 C 339.028 117.491 349.276 112.227 347.176 97.2493 C 353.118 96.8936 356.532 96.7349 362.849 96.7512 C 362.732 141.956 359.885 189.588 355.72 234.027 C 352.716 266.812 361.782 274.663 363.142 291.724 C 364.662 311.519 363.406 327.098 364.81 367.978 C 356.752 327.873 351.829 312.107 348.925 293.543 C 346.244 275.677 352.742 268.833 339.989 235.543 C 323.519 193.496 308.818 148.625 297.088 104.968 z "
       transform="matrix(-0.861651,0.5075,-0.5075,-0.861651,865.582,499.813)"
       style="fill:#ffffff;fill-rule:evenodd;stroke-width:1pt;"
       id="path215" />
    <path
       d="M 297.088 104.968 C 303.188 103.329 306.442 102.994 312.276 101.81 C 315.917 113.787 323.854 120.051 331.838 118.648 C 339.028 117.491 349.276 112.227 347.176 97.2493 C 353.118 96.8936 356.532 96.7349 362.849 96.7512 C 362.732 141.956 359.885 189.588 355.72 234.027 C 352.716 266.812 361.782 274.663 363.142 291.724 C 364.662 311.519 363.406 327.098 364.81 367.978 C 356.752 327.873 351.829 312.107 348.925 293.543 C 346.244 275.677 352.742 268.833 339.989 235.543 C 323.519 193.496 308.818 148.625 297.088 104.968 z "
       transform="matrix(-0.964221,0.265097,-0.265097,-0.964221,813.822,625.941)"
       style="fill:#ffffff;fill-rule:evenodd;stroke-width:1pt;"
       id="path216" />
    <path
       d="M 297.088 104.968 C 303.188 103.329 306.442 102.994 312.276 101.81 C 315.917 113.787 323.854 120.051 331.838 118.648 C 339.028 117.491 349.276 112.227 347.176 97.2493 C 353.118 96.8936 356.532 96.7349 362.849 96.7512 C 362.732 141.956 359.885 189.588 355.72 234.027 C 352.716 266.812 361.782 274.663 363.142 291.724 C 364.662 311.519 363.406 327.098 364.81 367.978 C 356.752 327.873 351.829 312.107 348.925 293.543 C 346.244 275.677 352.742 268.833 339.989 235.543 C 323.519 193.496 308.818 148.625 297.088 104.968 z "
       transform="matrix(-0.999983,0.00579202,-0.00579202,-0.999983,731.482,733.659)"
       style="fill:#ffffff;fill-rule:evenodd;stroke-width:1pt;"
       id="path217" />
    <path
       d="M 297.088 104.968 C 303.188 103.329 306.442 102.994 312.276 101.81 C 315.917 113.787 323.854 120.051 331.838 118.648 C 339.028 117.491 349.276 112.227 347.176 97.2493 C 353.118 96.8936 356.532 96.7349 362.849 96.7512 C 362.732 141.956 359.885 189.588 355.72 234.027 C 352.716 266.812 361.782 274.663 363.142 291.724 C 364.662 311.519 363.406 327.098 364.81 367.978 C 356.752 327.873 351.829 312.107 348.925 293.543 C 346.244 275.677 352.742 268.833 339.989 235.543 C 323.519 193.496 308.818 148.625 297.088 104.968 z "
       transform="matrix(-0.966932,-0.255034,0.255034,-0.966932,623.487,816.619)"
       style="fill:#ffffff;fill-rule:evenodd;stroke-width:1pt;"
       id="path218" />
    <path
       d="M 297.088 104.968 C 303.188 103.329 306.442 102.994 312.276 101.81 C 315.917 113.787 323.854 120.051 331.838 118.648 C 339.028 117.491 349.276 112.227 347.176 97.2493 C 353.118 96.8936 356.532 96.7349 362.849 96.7512 C 362.732 141.956 359.885 189.588 355.72 234.027 C 352.716 266.812 361.782 274.663 363.142 291.724 C 364.662 311.519 363.406 327.098 364.81 367.978 C 356.752 327.873 351.829 312.107 348.925 293.543 C 346.244 275.677 352.742 268.833 339.989 235.543 C 323.519 193.496 308.818 148.625 297.088 104.968 z "
       transform="matrix(-0.868276,-0.49608,0.49608,-0.868276,498.844,868.234)"
       style="fill:#ffffff;fill-rule:evenodd;stroke-width:1pt;"
       id="path219" />
    <path
       d="M 297.088 104.968 C 303.188 103.329 306.442 102.994 312.276 101.81 C 315.917 113.787 323.854 120.051 331.838 118.648 C 339.028 117.491 349.276 112.227 347.176 97.2493 C 353.118 96.8936 356.532 96.7349 362.849 96.7512 C 362.732 141.956 359.885 189.588 355.72 234.027 C 352.716 266.812 361.782 274.663 363.142 291.724 C 364.662 311.519 363.406 327.098 364.81 367.978 C 356.752 327.873 351.829 312.107 348.925 293.543 C 346.244 275.677 352.742 268.833 339.989 235.543 C 323.519 193.496 308.818 148.625 297.088 104.968 z "
       transform="matrix(-0.710016,-0.704184,0.704184,-0.710016,364.582,885.911)"
       style="fill:#ffffff;fill-rule:evenodd;stroke-width:1pt;"
       id="path220" />
    <path
       d="M 297.088 104.968 C 303.188 103.329 306.442 102.994 312.276 101.81 C 315.917 113.787 323.854 120.051 331.838 118.648 C 339.028 117.491 349.276 112.227 347.176 97.2493 C 353.118 96.8936 356.532 96.7349 362.849 96.7512 C 362.732 141.956 359.885 189.588 355.72 234.027 C 352.716 266.812 361.782 274.663 363.142 291.724 C 364.662 311.519 363.406 327.098 364.81 367.978 C 356.752 327.873 351.829 312.107 348.925 293.543 C 346.244 275.677 352.742 268.833 339.989 235.543 C 323.519 193.496 308.818 148.625 297.088 104.968 z "
       transform="matrix(-0.502848,-0.864374,0.864374,-0.502848,230.108,868.125)"
       style="fill:#ffffff;fill-rule:evenodd;stroke-width:1pt;"
       id="path221" />
    <path
       d="M 297.088 104.968 C 303.188 103.329 306.442 102.994 312.276 101.81 C 315.917 113.787 323.854 120.051 331.838 118.648 C 339.028 117.491 349.276 112.227 347.176 97.2493 C 353.118 96.8936 356.532 96.7349 362.849 96.7512 C 362.732 141.956 359.885 189.588 355.72 234.027 C 352.716 266.812 361.782 274.663 363.142 291.724 C 364.662 311.519 363.406 327.098 364.81 367.978 C 356.752 327.873 351.829 312.107 348.925 293.543 C 346.244 275.677 352.742 268.833 339.989 235.543 C 323.519 193.496 308.818 148.625 297.088 104.968 z "
       transform="matrix(-0.259259,-0.965807,0.965807,-0.259259,103.965,815.514)"
       style="fill:#ffffff;fill-rule:evenodd;stroke-width:1pt;"
       id="path222" />
    <path
       d="M 297.088 104.968 C 303.188 103.329 306.442 102.994 312.276 101.81 C 315.917 113.787 323.854 120.051 331.838 118.648 C 339.028 117.491 349.276 112.227 347.176 97.2493 C 353.118 96.8936 356.532 96.7349 362.849 96.7512 C 362.732 141.956 359.885 189.588 355.72 234.027 C 352.716 266.812 361.782 274.663 363.142 291.724 C 364.662 311.519 363.406 327.098 364.81 367.978 C 356.752 327.873 351.829 312.107 348.925 293.543 C 346.244 275.677 352.742 268.833 339.989 235.543 C 323.519 193.496 308.818 148.625 297.088 104.968 z "
       transform="matrix(0.966945,-0.254982,0.254982,0.966945,-81.7369,105.248)"
       style="fill:#ffffff;fill-rule:evenodd;stroke-width:1pt;"
       id="path223" />
    <path
       d="M 297.088 104.968 C 303.188 103.329 306.442 102.994 312.276 101.81 C 315.917 113.787 323.854 120.051 331.838 118.648 C 339.028 117.491 349.276 112.227 347.176 97.2493 C 353.118 96.8936 356.532 96.7349 362.849 96.7512 C 362.732 141.956 359.885 189.588 355.72 234.027 C 352.716 266.812 361.782 274.663 363.142 291.724 C 364.662 311.519 363.406 327.098 364.81 367.978 C 356.752 327.873 351.829 312.107 348.925 293.543 C 346.244 275.677 352.742 268.833 339.989 235.543 C 323.519 193.496 308.818 148.625 297.088 104.968 z "
       transform="matrix(0.261593,-0.965178,0.965178,0.261593,-85.7465,623.696)"
       style="fill:#ffffff;fill-rule:evenodd;stroke-width:1pt;"
       id="path224" />
    <path
       d="M 297.088 104.968 C 303.188 103.329 306.442 102.994 312.276 101.81 C 315.917 113.787 323.854 120.051 331.838 118.648 C 339.028 117.491 349.276 112.227 347.176 97.2493 C 353.118 96.8936 356.532 96.7349 362.849 96.7512 C 362.732 141.956 359.885 189.588 355.72 234.027 C 352.716 266.812 361.782 274.663 363.142 291.724 C 364.662 311.519 363.406 327.098 364.81 367.978 C 356.752 327.873 351.829 312.107 348.925 293.543 C 346.244 275.677 352.742 268.833 339.989 235.543 C 323.519 193.496 308.818 148.625 297.088 104.968 z "
       transform="matrix(0.500258,-0.865876,0.865876,0.500258,-136.255,499.693)"
       style="fill:#ffffff;fill-rule:evenodd;stroke-width:1pt;"
       id="path225" />
    <path
       d="M 297.088 104.968 C 303.188 103.329 306.442 102.994 312.276 101.81 C 315.917 113.787 323.854 120.051 331.838 118.648 C 339.028 117.491 349.276 112.227 347.176 97.2493 C 353.118 96.8936 356.532 96.7349 362.849 96.7512 C 362.732 141.956 359.885 189.588 355.72 234.027 C 352.716 266.812 361.782 274.663 363.142 291.724 C 364.662 311.519 363.406 327.098 364.81 367.978 C 356.752 327.873 351.829 312.107 348.925 293.543 C 346.244 275.677 352.742 268.833 339.989 235.543 C 323.519 193.496 308.818 148.625 297.088 104.968 z "
       transform="matrix(0.707599,-0.706613,0.706613,0.707599,-153.286,365.345)"
       style="fill:#ffffff;fill-rule:evenodd;stroke-width:1pt;"
       id="path226" />
    <path
       d="M 297.088 104.968 C 303.188 103.329 306.442 102.994 312.276 101.81 C 315.917 113.787 323.854 120.051 331.838 118.648 C 339.028 117.491 349.276 112.227 347.176 97.2493 C 353.118 96.8936 356.532 96.7349 362.849 96.7512 C 362.732 141.956 359.885 189.588 355.72 234.027 C 352.716 266.812 361.782 274.663 363.142 291.724 C 364.662 311.519 363.406 327.098 364.81 367.978 C 356.752 327.873 351.829 312.107 348.925 293.543 C 346.244 275.677 352.742 268.833 339.989 235.543 C 323.519 193.496 308.818 148.625 297.088 104.968 z "
       transform="matrix(0.869088,-0.494657,0.494657,0.869088,-134.212,228.648)"
       style="fill:#ffffff;fill-rule:evenodd;stroke-width:1pt;"
       id="path227" />
  </g>
</svg>
