<?xml version="1.0" encoding="UTF-8" standalone="no"?>
<!DOCTYPE svg PUBLIC "-//W3C//DTD SVG 20010904//EN"
"http://www.w3.org/TR/2001/REC-SVG-20010904/DTD/svg10.dtd">
<!-- Created with Sodipodi ("http://www.sodipodi.com/") -->
<svg
   id="svg378"
   sodipodi:version="0.31pre"
   width="300mm"
   height="200mm"
   sodipodi:docbase="/var/www/html/www.sodipodi.com/gallery/flags/"
   sodipodi:docname="/var/www/html/www.sodipodi.com/gallery/flags/iraq.svg"
   xmlns="http://www.w3.org/2000/svg"
   xmlns:sodipodi="http://sodipodi.sourceforge.net/DTD/sodipodi-0.dtd"
   xmlns:xlink="http://www.w3.org/1999/xlink">
  <defs
     id="defs380" />
  <sodipodi:namedview
     id="base"
     snaptoguides="false">
    <sodipodi:guide
       orientation="horizontal"
       position="285.041046"
       id="guide203" />
    <sodipodi:guide
       orientation="vertical"
       position="427.344666"
       id="guide204" />
    <sodipodi:guide
       orientation="horizontal"
       position="321.051"
       id="guide395" />
  </sodipodi:namedview>
  <rect
     style="font-size:12;fill:#ffffff;fill-rule:evenodd;stroke-width:1pt;fill-opacity:1;"
     id="rect171"
     x="0"
     y="0"
     width="300mm"
     height="200mm" />
  <rect
     style="font-size:12;fill:#000000;fill-rule:evenodd;stroke:none;stroke-width:0.817699pt;fill-opacity:1;"
     id="rect140"
     width="1062.991514"
     x="0"
     height="66.6666mm"
     y="133.3333mm" />
  <rect
     style="font-size:12;fill:#f30000;fill-rule:evenodd;stroke:none;stroke-width:0.817699pt;fill-opacity:1;"
     id="rect403"
     width="1062.991514"
     x="0"
     y="0"
     height="66.6666mm" />
  <polygon
     sodipodi:type="star"
     style="font-size:12;fill:#005623;fill-rule:evenodd;stroke-width:1pt;fill-opacity:1;"
     id="polygon141"
     sodipodi:sides="5"
     sodipodi:cx="531.089844"
     sodipodi:cy="357.514862"
     sodipodi:r1="59.950012"
     sodipodi:r2="22.777296"
     sodipodi:arg1="0.937586"
     sodipodi:arg2="1.564362"
     points="566.564,405.842 531.236,380.292 496.09,406.187 509.473,364.693 473.984,339.268 517.583,339.174 530.797,297.566 544.359,339.002 588.014,338.711 552.797,364.414 566.564,405.842 "
     transform="translate(356.27,-2.39695e-05)" />
  <path
     style="font-size:12;fill:#005623;fill-rule:evenodd;stroke:none;stroke-width:1pt;fill-opacity:1;"
     d="M 430.432 320.764 C 430.795 361.48 430.432 387.655 430.432 396.017 C 426.069 401.106 421.707 406.559 418.435 410.921 C 416.981 409.831 416.617 409.831 416.617 407.649 C 416.617 405.468 416.254 352.028 416.617 332.397 C 423.161 329.125 427.524 320.036 430.432 320.764 z M 415.527 320.037 C 418.799 314.584 422.434 309.13 424.979 306.586 C 427.524 308.04 427.16 312.039 427.524 313.129 C 424.979 316.765 418.799 322.581 416.981 324.399 C 416.254 323.309 416.981 323.672 415.527 320.037 z M 433.704 273.503 L 433.704 273.503 C 411.528 288.045 386.443 305.495 377.355 313.129 C 368.266 320.764 364.995 325.49 364.995 338.577 C 364.995 351.665 365.358 366.57 364.268 373.477 C 363.177 380.384 359.905 387.655 351.907 381.111 C 343.909 374.568 338.093 368.024 334.457 365.116 C 330.822 362.207 324.278 358.208 315.553 365.843 C 306.828 373.477 266.112 416.375 258.477 421.101 C 250.843 425.827 249.389 426.918 243.936 429.826 C 255.205 430.553 267.929 431.28 278.108 429.099 C 291.559 419.283 307.192 397.107 312.281 391.654 C 317.371 386.201 322.46 374.568 333.73 387.292 C 345 400.016 344.636 400.379 350.089 404.378 C 355.543 408.377 362.45 407.65 367.176 399.652 C 371.902 391.654 372.265 388.019 374.083 374.931 C 375.901 361.844 376.991 345.484 379.9 338.214 C 382.808 330.943 388.625 323.672 398.44 317.855 C 408.256 312.039 410.074 311.675 412.255 310.585 C 416.617 302.223 427.16 282.592 431.522 277.866 C 433.34 275.685 433.704 274.594 433.704 273.503 z M 335.184 405.832 C 329.731 402.197 327.913 399.288 325.005 399.652 C 322.097 400.016 315.917 408.377 312.281 410.558 C 317.007 414.557 321.37 418.193 325.005 417.466 C 328.641 416.738 331.185 408.741 335.184 405.832 z "
     id="path155" />
  <path
     style="font-size:12;fill:#005623;fill-rule:evenodd;stroke:none;stroke-width:1pt;fill-opacity:1;"
     d="M 795.79 303.677 C 788.156 305.495 784.157 315.674 777.613 322.581 C 776.886 342.94 776.886 406.196 776.886 414.557 C 783.43 406.923 787.429 402.56 792.155 399.652 C 793.245 365.843 797.244 318.583 795.79 303.677 z M 759.799 303.314 C 750.711 309.13 748.53 314.947 740.895 321.491 C 740.532 345.848 741.622 380.384 739.805 385.11 C 737.987 389.836 733.988 399.652 724.173 398.561 C 714.357 397.471 711.449 395.653 711.449 385.474 C 711.449 375.295 713.63 310.221 713.63 299.678 C 705.995 303.314 699.452 314.584 693.999 319.31 C 693.999 344.757 695.089 377.112 694.362 384.02 C 693.635 390.927 690.727 402.197 678.366 401.833 C 666.006 401.47 659.462 395.289 659.462 388.019 C 659.462 380.748 659.099 333.124 659.826 324.763 C 648.92 332.397 623.472 347.666 618.382 367.297 C 613.293 386.928 621.291 392.745 628.561 389.109 C 635.832 385.474 639.104 382.202 643.103 379.294 C 644.194 391.654 644.557 405.105 656.917 413.103 C 669.278 421.101 684.91 418.193 690.727 413.83 C 696.543 409.468 698.725 406.559 700.179 404.378 C 711.085 412.739 727.081 417.102 737.624 408.013 C 748.166 398.925 753.983 389.836 755.073 379.657 C 756.164 369.478 761.254 317.128 759.799 303.314 z M 645.648 352.755 C 634.742 357.845 630.016 365.479 632.924 370.205 C 635.832 374.931 641.649 369.478 645.648 367.66 C 644.921 360.39 645.648 356.391 645.648 352.755 z M 715.811 275.685 C 713.266 284.046 711.449 282.592 708.177 282.956 C 704.905 283.319 702.724 280.047 700.179 277.139 C 697.634 277.502 697.271 278.23 695.453 278.957 C 701.269 287.318 705.632 290.953 712.539 289.136 C 719.446 287.318 719.81 281.138 719.81 277.866 C 718.719 277.139 718.356 276.775 715.811 275.685 z M 709.631 265.142 C 706.359 266.233 705.632 266.96 704.541 269.868 C 706.359 273.867 708.904 276.048 711.449 274.958 C 713.993 273.867 714.357 269.505 712.903 268.414 C 711.449 267.323 712.176 266.596 709.631 265.142 z "
     id="path161" />
  <polygon
     sodipodi:type="star"
     style="font-size:12;fill:#005623;fill-rule:evenodd;stroke-width:1pt;fill-opacity:1;"
     id="polygon163"
     sodipodi:sides="5"
     sodipodi:cx="531.089844"
     sodipodi:cy="357.514862"
     sodipodi:r1="59.950012"
     sodipodi:r2="22.777296"
     sodipodi:arg1="0.937586"
     sodipodi:arg2="1.564362"
     points="566.564,405.842 531.236,380.292 496.09,406.187 509.473,364.693 473.984,339.268 517.583,339.174 530.797,297.566 544.359,339.002 588.014,338.711 552.797,364.414 566.564,405.842 "
     transform="translate(-354.815,-2.39695e-05)" />
  <polygon
     sodipodi:type="star"
     style="font-size:12;fill:#005623;fill-rule:evenodd;stroke-width:1pt;fill-opacity:1;"
     id="polygon164"
     sodipodi:sides="5"
     sodipodi:cx="531.089844"
     sodipodi:cy="357.514862"
     sodipodi:r1="59.950012"
     sodipodi:r2="22.777296"
     sodipodi:arg1="0.937586"
     sodipodi:arg2="1.564362"
     points="566.564,405.842 531.236,380.292 496.09,406.187 509.473,364.693 473.984,339.268 517.583,339.174 530.797,297.566 544.359,339.002 588.014,338.711 552.797,364.414 566.564,405.842 " />
</svg>
