<?xml version="1.0" encoding="UTF-8" standalone="no"?>
<!DOCTYPE svg PUBLIC "-//W3C//DTD SVG 20010904//EN"
"http://www.w3.org/TR/2001/REC-SVG-20010904/DTD/svg10.dtd"
[
 <!ATTLIST svg
  xmlns:xlink CDATA #FIXED "http://www.w3.org/1999/xlink">
]>
<!-- Created with Sodipodi ("http://www.sodipodi.com/") -->
<svg
   xmlns="http://www.w3.org/2000/svg"
   xmlns:xlink="http://www.w3.org/1999/xlink"
   version="1"
   x="0.00000000"
   y="0.00000000"
   width="1062.98853"
   height="744.094482"
   id="svg378">
  <defs
     id="defs380" />
  <rect
     width="1062.98999"
     height="744.094482"
     x="-1062.98999"
     y="-744.094482"
     transform="scale(-1.000000,-1.000000)"
     style="font-size:12;fill:#ba0000;fill-rule:evenodd;stroke-width:1pt;"
     id="rect148" />
  <path
     d="M 238.862 224.504 C 238.983 224.138 239.227 220.364 239.105 220.364 C 238.983 220.364 233.383 213.79 233.505 213.79 C 233.627 213.79 240.688 215.373 240.688 215.129 C 240.688 214.886 243.488 208.19 243.488 208.068 C 243.488 207.947 246.897 216.225 246.897 216.225 L 253.836 219.269 L 248.966 223.286 C 248.966 223.286 250.062 231.078 250.062 231.2 C 250.062 231.321 245.192 226.573 245.192 226.573 L 239.835 227.182 C 239.835 227.182 239.105 224.747 238.862 224.504 z "
     transform="matrix(2.402454,0.000000,0.000000,2.402454,-17.21325,7.103897)"
     style="font-size:12;fill:#ffef00;fill-opacity:0.988235;fill-rule:evenodd;stroke:#000000;stroke-width:1pt;"
     id="path747" />
  <path
     d="M 201.141 122.196 C 196.515 124.578 178.761 144.872 176.326 148.037 C 174.286 152.632 170.296 158.445 166.186 162.187 C 161.799 165.506 159.361 170.04 159.965 174.333 C 159.916 179.675 162.911 183.312 165.297 187.071 C 166.709 188.788 168.609 189.898 170.629 190.033 C 174.773 190.58 175.141 191.856 177.215 192.646 C 185.385 203.77 197.573 211.973 206.351 218.471 C 211.946 221.42 215.837 224.369 217.17 225.979 C 219.74 230.886 219.267 235.671 218.915 238.022 C 216.743 246.218 214.57 254.414 212.398 262.61 C 211.302 269.306 217.121 267.8 217.434 266.461 C 220.06 263.052 223.979 265.446 229.579 245.724 C 232.146 242.268 234.714 238.812 237.281 235.356 C 237.281 235.356 240.244 234.171 240.244 233.875 C 244.749 228.466 241.319 225.37 238.762 224.396 C 236.886 223.705 235.01 223.013 233.134 222.322 C 233.134 222.322 226.617 215.805 226.321 215.805 C 223.224 206.796 208.023 187.563 204.492 184.885 C 202.048 182.338 200.885 181.253 198.565 179.836 C 194.998 178.13 193.847 177.575 191.662 176.703 C 189.843 175.973 191.138 173.976 192.295 173.063 C 204.335 166.509 213.879 159.225 225.432 151.819 C 226.024 151.424 226.617 151.029 227.209 150.634 C 225.827 142.735 224.444 134.835 223.062 126.936 C 216.644 124.665 210.225 122.393 203.807 120.122 C 202.797 120.813 202.03 121.505 201.141 122.196 z "
     transform="matrix(2.402454,0.000000,0.000000,2.402454,-17.21325,7.103897)"
     style="font-size:12;fill:#ffffff;fill-rule:evenodd;stroke:#000000;stroke-width:1.59449;"
     id="path724" />
  <path
     d="M 217.252 246.966 C 217.313 246.723 229.304 244.531 229.304 244.531 C 229.304 244.531 227.904 248.975 227.843 248.975 L 215.913 252.566 L 217.252 246.966 z "
     transform="matrix(2.402454,0.000000,0.000000,2.402454,-17.21325,7.103897)"
     style="font-size:12;fill:#ffec00;fill-rule:evenodd;stroke-width:1pt;"
     id="path745" />
  <path
     d="M 186.004 201.816 C 188.317 195.668 194.738 190.8 199.051 189.457 "
     transform="matrix(2.402454,0.000000,0.000000,2.402454,-17.21325,7.103897)"
     style="font-size:12;fill:none;fill-rule:evenodd;stroke:#000000;stroke-width:1pt;"
     id="path725" />
  <path
     d="M 216.821 247.074 C 217.595 246.856 221.032 245.853 222.033 245.697 C 223.101 245.447 224.164 245.167 225.191 244.836 C 226.376 244.594 227.118 244.371 228.349 244.147 C 229.313 243.779 230.266 243.527 231.297 243.286 M 214.65 254.488 C 214.75 254.354 215.567 253.632 216.154 253.283 C 216.845 253.065 219.208 252.062 220.102 251.906 C 221.056 251.656 222.005 251.376 222.922 251.045 C 223.981 250.803 224.643 250.58 225.743 250.356 C 226.604 249.988 227.455 249.736 228.375 249.495 "
     transform="matrix(2.402454,0.000000,0.000000,2.402454,-17.21325,7.103897)"
     style="font-size:12;fill:none;fill-rule:evenodd;stroke:#000000;stroke-width:1.1058pt;"
     id="path744" />
  <path
     d="M 219.519 203.556 C 219.461 203.556 219.404 203.556 219.347 203.556 C 219.886 203.556 219.555 203.511 218.83 204.417 C 218.572 205.113 216.362 206.655 214.698 206.655 C 213.895 206.741 212.661 206.827 211.857 206.827 C 211.628 206.827 211.312 206.655 211.082 206.655 "
     transform="matrix(2.402454,0.000000,0.000000,2.402454,-17.21325,7.103897)"
     style="font-size:12;fill:none;fill-rule:evenodd;stroke:#000000;stroke-width:1pt;"
     id="path726" />
  <path
     d="M 219.347 239.024 C 219.404 239.024 219.461 239.024 219.519 239.024 C 219.289 239.024 219.978 239.024 220.207 239.024 C 221.1 239.024 221.996 239.183 222.79 239.196 C 223.651 239.196 224.512 239.44 225.373 239.44 C 226.242 239.563 227.289 239.523 228.188 239.651 C 229.196 239.685 230.005 239.884 231.054 239.884 C 231.9 239.916 232.356 240.057 233.293 240.057 L 231.054 239.884 C 231.9 239.916 232.356 240.057 233.293 240.057 "
     transform="matrix(2.402454,0.000000,0.000000,2.402454,-17.21325,7.103897)"
     style="font-size:12;fill:none;fill-rule:evenodd;stroke:#000000;stroke-width:1pt;"
     id="path728" />
  <path
     d="M 213.493 260.028 C 213.585 259.894 214.333 259.172 214.87 258.823 C 215.503 258.605 217.667 257.602 218.486 257.446 C 219.359 257.196 220.228 256.916 221.068 256.585 C 222.038 256.343 222.644 256.12 223.651 255.896 C 224.44 255.528 225.219 255.276 226.061 255.035 "
     transform="matrix(2.402454,0.000000,0.000000,2.402454,-17.21325,7.103897)"
     style="font-size:12;fill:none;fill-rule:evenodd;stroke:#000000;stroke-width:1pt;"
     id="path727" />
  <path
     d="M 229.616 230.102 C 229.129 231.516 229.76 231.871 230.021 232.481 C 230.475 233.072 231.634 233.973 233.465 234.547 C 234.171 234.737 234.714 234.923 235.531 235.236 C 236.072 235.286 236.338 235.421 236.736 235.58 "
     transform="matrix(2.402454,0.000000,0.000000,2.402454,-17.21325,7.103897)"
     style="font-size:12;fill:none;fill-rule:evenodd;stroke:#000000;stroke-width:1pt;"
     id="path729" />
  <path
     d="M 161.497 178.247 C 161.554 178.247 161.612 178.247 161.669 178.247 C 161.129 178.247 161.453 178.282 162.358 177.558 C 162.917 176.933 163.384 176.65 163.907 176.009 "
     transform="matrix(2.402454,0.000000,0.000000,2.402454,-17.21325,7.103897)"
     style="font-size:12;fill:none;fill-rule:evenodd;stroke:#000000;stroke-width:1pt;"
     id="path730" />
  <path
     d="M 172.645 190.512 C 172.76 190.512 182.661 185.522 183.718 184.456 C 184.467 183.913 185.034 183.34 185.945 182.723 C 186.529 182.418 186.948 182.027 187.495 181.69 C 187.95 181.031 188.544 180.633 188.872 180.03 C 189.48 179.503 189.219 178.932 189.712 178.297 C 189.945 177.647 190.381 176.552 190.523 175.957 "
     transform="matrix(2.402454,0.000000,0.000000,2.402454,-17.21325,7.103897)"
     style="font-size:12;fill:none;fill-rule:evenodd;stroke:#000000;stroke-width:1pt;"
     id="path731" />
  <path
     d="M 203.133 183.362 C 203.187 183.718 202.975 184.815 202.99 185.65 C 202.956 186.618 201.711 189.608 200.206 190.501 "
     transform="matrix(2.402454,0.000000,0.000000,2.402454,-17.21325,7.103897)"
     style="font-size:12;fill:none;fill-rule:evenodd;stroke:#000000;stroke-width:1pt;"
     id="path733" />
  <path
     d="M 185.345 183.251 C 185.403 183.251 186.91 183.741 189.429 184.516 C 192.461 185.606 198.767 189.58 199.393 190.127 C 200.032 190.63 201.175 191.079 201.613 191.676 C 202.298 192.268 202.8 192.951 203.335 193.57 C 203.964 194.337 204.5 194.986 204.884 195.636 C 206.799 197.189 211.95 207.942 212.115 208.549 C 212.404 209.117 212.762 209.908 212.976 210.443 C 213.358 210.883 213.617 211.505 214.009 212.165 C 214.369 213.021 214.772 213.411 215.215 214.059 C 215.785 214.455 216.553 215.207 217.281 215.608 C 218.057 216.272 218.785 216.542 219.347 216.986 C 220.159 217.331 229.233 223.067 229.654 223.354 C 230.483 224.02 233.014 226.643 231.237 228.551 C 230.483 229.196 229.804 230.05 229.16 230.415 C 228.504 231.072 227.591 231.366 226.837 231.706 C 222.749 232.914 220.667 232.481 219.863 232.481 C 219.576 232.481 219.289 232.481 219.002 232.481 "
     transform="matrix(2.402454,0.000000,0.000000,2.402454,-17.21325,7.103897)"
     style="font-size:12;fill:none;fill-rule:evenodd;stroke:#000000;stroke-width:1pt;"
     id="path734" />
  <path
     d="M 165.304 162.966 C 166.466 163.421 165.997 163.085 167.043 163.561 C 167.746 163.869 168.209 163.877 168.9 164.129 C 169.633 164.364 171.681 164.733 172.665 165.721 C 173.387 166.373 173.938 166.924 174.731 167.4 C 175.669 168.047 176.346 168.335 177.509 168.82 C 178.49 169.187 179.587 169.594 180.579 169.629 C 181.61 169.689 181.857 169.638 182.846 169.638 C 183.65 169.638 184.453 169.638 185.257 169.638 L 182.846 169.638 C 183.65 169.638 184.453 169.638 185.257 169.638 "
     transform="matrix(2.402454,0.000000,0.000000,2.402454,-17.21325,7.103897)"
     style="font-size:12;fill:none;fill-rule:evenodd;stroke:#000000;stroke-width:1pt;"
     id="path735" />
  <path
     d="M 165.027 174.459 C 167.609 174.287 171.913 175.062 171.999 175.062 C 172 175.062 177.681 174.976 177.681 174.976 C 180.666 174.688 181.325 173.541 181.813 172.737 C 182.932 171.016 183.707 170.413 184.568 169.122 C 185.945 168.089 187.84 170.499 187.926 170.499 C 192.746 175.062 188.872 180.657 188.614 180.829 C 186.204 183.039 185.687 183.182 184.224 181.776 C 182.76 180.054 182.33 179.28 181.125 178.677 C 178.801 177.558 173.98 178.419 173.893 178.419 C 173.807 178.419 171.397 179.366 171.397 179.366 C 170.22 179.796 169.474 180.83 167.437 181.173 C 165.371 181.317 164.682 181.116 163.649 179.452 C 162.272 177.3 162.96 174.717 165.027 174.459 z "
     transform="matrix(2.402454,0.000000,0.000000,2.402454,-17.21325,7.103897)"
     style="font-size:12;fill:#ffe606;fill-rule:evenodd;stroke:#000000;stroke-width:1pt;"
     id="path738" />
  <path
     d="M 238.862 224.504 C 238.983 224.138 239.227 220.364 239.105 220.364 C 238.983 220.364 233.383 213.79 233.505 213.79 C 233.627 213.79 240.688 215.373 240.688 215.129 C 240.688 214.886 243.488 208.19 243.488 208.068 C 243.488 207.947 246.897 216.225 246.897 216.225 L 253.836 219.269 L 248.966 223.286 C 248.966 223.286 250.062 231.078 250.062 231.2 C 250.062 231.321 245.192 226.573 245.192 226.573 L 239.835 227.182 C 239.835 227.182 239.105 224.747 238.862 224.504 z "
     transform="matrix(-1.177409,-2.094158,2.094157,-1.177409,514.1974,939.9071)"
     style="font-size:12;fill:#ffef00;fill-opacity:0.988235;fill-rule:evenodd;stroke:#000000;stroke-width:1pt;"
     id="path770" />
  <path
     d="M 201.141 122.196 C 196.515 124.578 178.761 144.872 176.326 148.037 C 174.286 152.632 170.296 158.445 166.186 162.187 C 161.799 165.506 159.361 170.04 159.965 174.333 C 159.916 179.675 162.911 183.312 165.297 187.071 C 166.709 188.788 168.609 189.898 170.629 190.033 C 174.773 190.58 175.141 191.856 177.215 192.646 C 185.385 203.77 197.573 211.973 206.351 218.471 C 211.946 221.42 215.837 224.369 217.17 225.979 C 219.74 230.886 219.267 235.671 218.915 238.022 C 216.743 246.218 214.57 254.414 212.398 262.61 C 211.302 269.306 217.121 267.8 217.434 266.461 C 220.06 263.052 223.979 265.446 229.579 245.724 C 232.146 242.268 234.714 238.812 237.281 235.356 C 237.281 235.356 240.244 234.171 240.244 233.875 C 244.749 228.466 241.319 225.37 238.762 224.396 C 236.886 223.705 235.01 223.013 233.134 222.322 C 233.134 222.322 226.617 215.805 226.321 215.805 C 223.224 206.796 207.931 187.379 204.4 184.701 C 200.944 182.43 202.357 181.437 198.657 179.836 C 195.918 178.314 197.802 178.955 191.662 176.703 C 189.843 175.973 191.138 173.976 192.295 173.063 C 204.335 166.509 213.879 159.225 225.432 151.819 C 226.024 151.424 226.617 151.029 227.209 150.634 C 225.827 142.735 224.444 134.835 223.062 126.936 C 216.644 124.665 210.225 122.393 203.807 120.122 C 202.797 120.813 202.03 121.505 201.141 122.196 z "
     transform="matrix(-1.177409,-2.094158,2.094157,-1.177409,514.1974,939.9071)"
     style="font-size:12;fill:#ffffff;fill-rule:evenodd;stroke:#000000;stroke-width:1.59449;"
     id="path771" />
  <path
     d="M 217.252 246.966 C 217.313 246.723 229.304 244.531 229.304 244.531 C 229.304 244.531 227.904 248.975 227.843 248.975 L 215.913 252.566 L 217.252 246.966 z "
     transform="matrix(-1.177409,-2.094158,2.094157,-1.177409,514.1974,939.9071)"
     style="font-size:12;fill:#ffec00;fill-rule:evenodd;stroke-width:1pt;"
     id="path772" />
  <path
     d="M 186.004 201.816 C 188.317 195.668 194.738 190.8 199.051 189.457 "
     transform="matrix(-1.177409,-2.094158,2.094157,-1.177409,514.1974,939.9071)"
     style="font-size:12;fill:none;fill-rule:evenodd;stroke:#000000;stroke-width:1pt;"
     id="path773" />
  <path
     d="M 216.821 247.074 C 217.595 246.856 221.032 245.853 222.033 245.697 C 223.101 245.447 224.164 245.167 225.191 244.836 C 226.376 244.594 227.118 244.371 228.349 244.147 C 229.313 243.779 230.266 243.527 231.297 243.286 M 214.65 254.488 C 214.75 254.354 215.567 253.632 216.154 253.283 C 216.845 253.065 219.208 252.062 220.102 251.906 C 221.056 251.656 222.005 251.376 222.922 251.045 C 223.981 250.803 224.643 250.58 225.743 250.356 C 226.604 249.988 227.455 249.736 228.375 249.495 "
     transform="matrix(-1.177409,-2.094158,2.094157,-1.177409,514.1974,939.9071)"
     style="font-size:12;fill:none;fill-rule:evenodd;stroke:#000000;stroke-width:1.1058pt;"
     id="path774" />
  <path
     d="M 219.519 203.556 C 219.461 203.556 219.404 203.556 219.347 203.556 C 219.886 203.556 219.555 203.511 218.83 204.417 C 218.572 205.113 216.362 206.655 214.698 206.655 C 213.895 206.741 212.661 206.827 211.857 206.827 C 211.628 206.827 211.312 206.655 211.082 206.655 "
     transform="matrix(-1.177409,-2.094158,2.094157,-1.177409,514.1974,939.9071)"
     style="font-size:12;fill:none;fill-rule:evenodd;stroke:#000000;stroke-width:1pt;"
     id="path775" />
  <path
     d="M 219.347 239.024 C 219.404 239.024 219.461 239.024 219.519 239.024 C 219.289 239.024 219.978 239.024 220.207 239.024 C 221.1 239.024 221.996 239.183 222.79 239.196 C 223.651 239.196 224.512 239.44 225.373 239.44 C 226.242 239.563 227.289 239.523 228.188 239.651 C 229.196 239.685 230.005 239.884 231.054 239.884 C 231.9 239.916 232.356 240.057 233.293 240.057 L 231.054 239.884 C 231.9 239.916 232.356 240.057 233.293 240.057 "
     transform="matrix(-1.177409,-2.094158,2.094157,-1.177409,514.1974,939.9071)"
     style="font-size:12;fill:none;fill-rule:evenodd;stroke:#000000;stroke-width:1pt;"
     id="path776" />
  <path
     d="M 213.493 260.028 C 213.585 259.894 214.333 259.172 214.87 258.823 C 215.503 258.605 217.667 257.602 218.486 257.446 C 219.359 257.196 220.228 256.916 221.068 256.585 C 222.038 256.343 222.644 256.12 223.651 255.896 C 224.44 255.528 225.219 255.276 226.061 255.035 "
     transform="matrix(-1.177409,-2.094158,2.094157,-1.177409,514.1974,939.9071)"
     style="font-size:12;fill:none;fill-rule:evenodd;stroke:#000000;stroke-width:1pt;"
     id="path777" />
  <path
     d="M 229.616 230.102 C 229.129 231.516 229.76 231.871 230.021 232.481 C 230.475 233.072 231.634 233.973 233.465 234.547 C 234.171 234.737 234.714 234.923 235.531 235.236 C 236.072 235.286 236.338 235.421 236.736 235.58 "
     transform="matrix(-1.177409,-2.094158,2.094157,-1.177409,514.1974,939.9071)"
     style="font-size:12;fill:none;fill-rule:evenodd;stroke:#000000;stroke-width:1pt;"
     id="path778" />
  <path
     d="M 161.497 178.247 C 161.554 178.247 161.612 178.247 161.669 178.247 C 161.129 178.247 161.453 178.282 162.358 177.558 C 162.917 176.933 163.384 176.65 163.907 176.009 "
     transform="matrix(-1.177409,-2.094158,2.094157,-1.177409,514.1974,939.9071)"
     style="font-size:12;fill:none;fill-rule:evenodd;stroke:#000000;stroke-width:1pt;"
     id="path779" />
  <path
     d="M 172.645 190.512 C 172.76 190.512 182.661 185.522 183.718 184.456 C 184.467 183.913 185.034 183.34 185.945 182.723 C 186.529 182.418 186.948 182.027 187.495 181.69 C 187.95 181.031 188.544 180.633 188.872 180.03 C 189.48 179.503 189.219 178.932 189.712 178.297 C 189.945 177.647 190.381 176.552 190.523 175.957 "
     transform="matrix(-1.177409,-2.094158,2.094157,-1.177409,514.1974,939.9071)"
     style="font-size:12;fill:none;fill-rule:evenodd;stroke:#000000;stroke-width:1pt;"
     id="path780" />
  <path
     d="M 203.133 183.362 C 203.187 183.718 202.975 184.815 202.99 185.65 C 202.956 186.618 201.711 189.608 200.206 190.501 "
     transform="matrix(-1.177409,-2.094158,2.094157,-1.177409,514.1974,939.9071)"
     style="font-size:12;fill:none;fill-rule:evenodd;stroke:#000000;stroke-width:1pt;"
     id="path781" />
  <path
     d="M 185.345 183.251 C 185.403 183.251 186.91 183.741 189.429 184.516 C 192.461 185.606 198.767 189.58 199.393 190.127 C 200.032 190.63 201.175 191.079 201.613 191.676 C 202.298 192.268 202.8 192.951 203.335 193.57 C 203.964 194.337 204.5 194.986 204.884 195.636 C 206.799 197.189 211.95 207.942 212.115 208.549 C 212.404 209.117 212.762 209.908 212.976 210.443 C 213.358 210.883 213.617 211.505 214.009 212.165 C 214.369 213.021 214.772 213.411 215.215 214.059 C 215.785 214.455 216.553 215.207 217.281 215.608 C 218.057 216.272 218.785 216.542 219.347 216.986 C 220.159 217.331 229.233 223.067 229.654 223.354 C 230.483 224.02 233.014 226.643 231.237 228.551 C 230.483 229.196 229.804 230.05 229.16 230.415 C 228.504 231.072 227.591 231.366 226.837 231.706 C 222.749 232.914 220.667 232.481 219.863 232.481 C 219.576 232.481 219.289 232.481 219.002 232.481 "
     transform="matrix(-1.177409,-2.094158,2.094157,-1.177409,514.1974,939.9071)"
     style="font-size:12;fill:none;fill-rule:evenodd;stroke:#000000;stroke-width:1pt;"
     id="path782" />
  <path
     d="M 165.629 163.096 C 165.686 163.096 165.744 163.096 165.801 163.096 C 165.336 163.096 165.574 163.085 166.49 163.268 C 167.193 163.576 168.209 163.877 168.9 164.129 C 169.633 164.364 170.555 164.477 170.966 164.818 C 171.766 164.958 172.234 165.416 172.86 165.851 C 173.582 166.503 174.133 166.924 174.926 167.4 C 175.864 168.047 176.606 168.368 177.509 168.95 C 178.425 169.122 179.099 169.431 180.091 169.466 C 181.025 169.526 181.857 169.638 182.846 169.638 C 183.65 169.638 184.453 169.638 185.257 169.638 L 182.846 169.638 C 183.65 169.638 184.453 169.638 185.257 169.638 "
     transform="matrix(-1.177409,-2.094158,2.094157,-1.177409,514.1974,939.9071)"
     style="font-size:12;fill:none;fill-rule:evenodd;stroke:#000000;stroke-width:1pt;"
     id="path783" />
  <path
     d="M 165.027 174.459 C 167.609 174.287 171.913 175.062 171.999 175.062 C 172 175.062 177.681 174.976 177.681 174.976 C 180.666 174.688 181.325 173.541 181.813 172.737 C 182.932 171.016 183.707 170.413 184.568 169.122 C 185.945 168.089 187.84 170.499 187.926 170.499 C 192.746 175.062 188.872 180.657 188.614 180.829 C 186.204 183.039 185.687 183.182 184.224 181.776 C 182.76 180.054 182.33 179.28 181.125 178.677 C 178.801 177.558 173.98 178.419 173.893 178.419 C 173.807 178.419 171.397 179.366 171.397 179.366 C 170.22 179.796 169.474 180.83 167.437 181.173 C 165.371 181.317 164.682 181.116 163.649 179.452 C 162.272 177.3 162.96 174.717 165.027 174.459 z "
     transform="matrix(-1.177409,-2.094158,2.094157,-1.177409,514.1974,939.9071)"
     style="font-size:12;fill:#ffe606;fill-rule:evenodd;stroke:#000000;stroke-width:1pt;"
     id="path785" />
  <g
     transform="matrix(-1.107009,2.132209,-2.132209,-1.107010,1044.277,-15.62964)"
     style="font-size:12;"
     id="g786">
    <path
       d="M 238.862 224.504 C 238.983 224.138 239.227 220.364 239.105 220.364 C 238.983 220.364 233.383 213.79 233.505 213.79 C 233.627 213.79 240.688 215.373 240.688 215.129 C 240.688 214.886 243.488 208.19 243.488 208.068 C 243.488 207.947 246.897 216.225 246.897 216.225 L 253.836 219.269 L 248.966 223.286 C 248.966 223.286 250.062 231.078 250.062 231.2 C 250.062 231.321 245.192 226.573 245.192 226.573 L 239.835 227.182 C 239.835 227.182 239.105 224.747 238.862 224.504 z "
       style="fill:#ffef00;fill-opacity:0.988235;fill-rule:evenodd;stroke:#000000;stroke-width:1pt;"
       id="path787" />
    <path
       d="M 201.141 122.196 C 196.515 124.578 178.761 144.872 176.326 148.037 C 174.286 152.632 170.296 158.445 166.186 162.187 C 161.799 165.506 159.361 170.04 159.965 174.333 C 159.916 179.675 162.911 183.312 165.297 187.071 C 166.709 188.788 168.609 189.898 170.629 190.033 C 174.773 190.58 175.141 191.856 177.215 192.646 C 185.385 203.77 197.573 211.973 206.351 218.471 C 211.946 221.42 215.837 224.369 217.17 225.979 C 219.74 230.886 219.267 235.671 218.915 238.022 C 216.743 246.218 214.57 254.414 212.398 262.61 C 211.302 269.306 217.121 267.8 217.434 266.461 C 220.06 263.052 223.979 265.446 229.579 245.724 C 232.146 242.268 234.714 238.812 237.281 235.356 C 237.281 235.356 240.244 234.171 240.244 233.875 C 244.749 228.466 241.319 225.37 238.762 224.396 C 236.886 223.705 235.01 223.013 233.134 222.322 C 233.134 222.322 226.617 215.805 226.321 215.805 C 223.224 206.796 207.931 187.379 204.4 184.701 C 200.944 182.43 202.357 181.437 198.657 179.836 C 195.918 178.314 197.802 178.955 191.662 176.703 C 189.843 175.973 191.138 173.976 192.295 173.063 C 204.335 166.509 213.879 159.225 225.432 151.819 C 226.024 151.424 226.617 151.029 227.209 150.634 C 225.827 142.735 224.444 134.835 223.062 126.936 C 216.644 124.665 210.225 122.393 203.807 120.122 C 202.797 120.813 202.03 121.505 201.141 122.196 z "
       style="fill:#ffffff;fill-rule:evenodd;stroke:#000000;stroke-width:1.59449;"
       id="path788" />
    <path
       d="M 217.252 246.966 C 217.313 246.723 229.304 244.531 229.304 244.531 C 229.304 244.531 227.904 248.975 227.843 248.975 L 215.913 252.566 L 217.252 246.966 z "
       style="fill:#ffec00;fill-rule:evenodd;stroke-width:1pt;"
       id="path789" />
    <path
       d="M 186.004 201.816 C 188.317 195.668 194.738 190.8 199.051 189.457 "
       style="fill:none;fill-rule:evenodd;stroke:#000000;stroke-width:1pt;"
       id="path790" />
    <path
       d="M 216.821 247.074 C 217.595 246.856 221.032 245.853 222.033 245.697 C 223.101 245.447 224.164 245.167 225.191 244.836 C 226.376 244.594 227.118 244.371 228.349 244.147 C 229.313 243.779 230.266 243.527 231.297 243.286 M 214.65 254.488 C 214.75 254.354 215.567 253.632 216.154 253.283 C 216.845 253.065 219.208 252.062 220.102 251.906 C 221.056 251.656 222.005 251.376 222.922 251.045 C 223.981 250.803 224.643 250.58 225.743 250.356 C 226.604 249.988 227.455 249.736 228.375 249.495 "
       style="fill:none;fill-rule:evenodd;stroke:#000000;stroke-width:1.1058pt;"
       id="path791" />
    <path
       d="M 219.519 203.556 C 219.461 203.556 219.404 203.556 219.347 203.556 C 219.886 203.556 219.555 203.511 218.83 204.417 C 218.572 205.113 216.362 206.655 214.698 206.655 C 213.895 206.741 212.661 206.827 211.857 206.827 C 211.628 206.827 211.312 206.655 211.082 206.655 "
       style="fill:none;fill-rule:evenodd;stroke:#000000;stroke-width:1pt;"
       id="path792" />
    <path
       d="M 219.347 239.024 C 219.404 239.024 219.461 239.024 219.519 239.024 C 219.289 239.024 219.978 239.024 220.207 239.024 C 221.1 239.024 221.996 239.183 222.79 239.196 C 223.651 239.196 224.512 239.44 225.373 239.44 C 226.242 239.563 227.289 239.523 228.188 239.651 C 229.196 239.685 230.005 239.884 231.054 239.884 C 231.9 239.916 232.356 240.057 233.293 240.057 L 231.054 239.884 C 231.9 239.916 232.356 240.057 233.293 240.057 "
       style="fill:none;fill-rule:evenodd;stroke:#000000;stroke-width:1pt;"
       id="path793" />
    <path
       d="M 213.493 260.028 C 213.585 259.894 214.333 259.172 214.87 258.823 C 215.503 258.605 217.667 257.602 218.486 257.446 C 219.359 257.196 220.228 256.916 221.068 256.585 C 222.038 256.343 222.644 256.12 223.651 255.896 C 224.44 255.528 225.219 255.276 226.061 255.035 "
       style="fill:none;fill-rule:evenodd;stroke:#000000;stroke-width:1pt;"
       id="path794" />
    <path
       d="M 229.616 230.102 C 229.129 231.516 229.76 231.871 230.021 232.481 C 230.475 233.072 231.634 233.973 233.465 234.547 C 234.171 234.737 234.714 234.923 235.531 235.236 C 236.072 235.286 236.338 235.421 236.736 235.58 "
       style="fill:none;fill-rule:evenodd;stroke:#000000;stroke-width:1pt;"
       id="path795" />
    <path
       d="M 161.497 178.247 C 161.554 178.247 161.612 178.247 161.669 178.247 C 161.129 178.247 161.453 178.282 162.358 177.558 C 162.917 176.933 163.384 176.65 163.907 176.009 "
       style="fill:none;fill-rule:evenodd;stroke:#000000;stroke-width:1pt;"
       id="path796" />
    <path
       d="M 172.645 190.512 C 172.76 190.512 182.661 185.522 183.718 184.456 C 184.467 183.913 185.034 183.34 185.945 182.723 C 186.529 182.418 186.948 182.027 187.495 181.69 C 187.95 181.031 188.544 180.633 188.872 180.03 C 189.48 179.503 189.219 178.932 189.712 178.297 C 189.945 177.647 190.381 176.552 190.523 175.957 "
       style="fill:none;fill-rule:evenodd;stroke:#000000;stroke-width:1pt;"
       id="path797" />
    <path
       d="M 203.133 183.362 C 203.187 183.718 202.975 184.815 202.99 185.65 C 202.956 186.618 201.711 189.608 200.206 190.501 "
       style="fill:none;fill-rule:evenodd;stroke:#000000;stroke-width:1pt;"
       id="path798" />
    <path
       d="M 185.345 183.251 C 185.403 183.251 186.91 183.741 189.429 184.516 C 192.461 185.606 198.767 189.58 199.393 190.127 C 200.032 190.63 201.175 191.079 201.613 191.676 C 202.298 192.268 202.8 192.951 203.335 193.57 C 203.964 194.337 204.5 194.986 204.884 195.636 C 206.799 197.189 211.95 207.942 212.115 208.549 C 212.404 209.117 212.762 209.908 212.976 210.443 C 213.358 210.883 213.617 211.505 214.009 212.165 C 214.369 213.021 214.772 213.411 215.215 214.059 C 215.785 214.455 216.553 215.207 217.281 215.608 C 218.057 216.272 218.785 216.542 219.347 216.986 C 220.159 217.331 229.233 223.067 229.654 223.354 C 230.483 224.02 233.014 226.643 231.237 228.551 C 230.483 229.196 229.804 230.05 229.16 230.415 C 228.504 231.072 227.591 231.366 226.837 231.706 C 222.749 232.914 220.667 232.481 219.863 232.481 C 219.576 232.481 219.289 232.481 219.002 232.481 "
       style="fill:none;fill-rule:evenodd;stroke:#000000;stroke-width:1pt;"
       id="path799" />
    <path
       d="M 165.629 163.096 C 165.686 163.096 165.744 163.096 165.801 163.096 C 165.336 163.096 165.574 163.085 166.49 163.268 C 167.193 163.576 168.209 163.877 168.9 164.129 C 169.633 164.364 170.555 164.477 170.966 164.818 C 171.766 164.958 172.234 165.416 172.86 165.851 C 173.582 166.503 174.133 166.924 174.926 167.4 C 175.864 168.047 176.606 168.368 177.509 168.95 C 178.425 169.122 179.099 169.431 180.091 169.466 C 181.025 169.526 181.857 169.638 182.846 169.638 C 183.65 169.638 184.453 169.638 185.257 169.638 L 182.846 169.638 C 183.65 169.638 184.453 169.638 185.257 169.638 "
       style="fill:none;fill-rule:evenodd;stroke:#000000;stroke-width:1pt;"
       id="path800" />
    <path
       d="M 221.241 142.952 C 221.126 142.952 221.011 142.952 220.896 142.952 C 221.533 142.952 221.354 142.929 220.38 143.124 C 219.363 143.649 218.009 144.046 217.108 144.501 C 216.08 144.841 214.975 145.218 214.009 145.707 C 212.915 146.348 211.907 146.869 210.91 147.6 C 209.919 148.131 208.945 148.785 207.983 149.322 C 207.024 149.843 206.232 150.346 205.401 151.044 C 204.707 151.429 203.764 151.974 202.99 152.593 C 202.263 152.854 201.738 153.372 201.269 153.799 C 200.358 154.606 199.8 155.025 198.858 155.865 C 198.363 156.333 197.705 156.883 196.964 157.586 C 196.186 158.105 195.344 159.103 194.726 159.652 C 194.33 160.169 193.75 160.784 193.177 161.202 C 192.736 161.757 192.225 162.487 191.627 162.924 C 191.272 163.452 190.651 164.14 190.077 164.818 C 189.612 165.387 188.972 165.96 188.528 166.539 C 187.93 167.201 187.472 167.868 186.806 168.433 C 186.687 168.831 186.437 169.037 186.29 169.294 "
       style="fill:none;fill-rule:evenodd;stroke:#000000;stroke-width:1pt;"
       id="path801" />
    <path
       d="M 165.027 174.459 C 167.609 174.287 171.913 175.062 171.999 175.062 C 172 175.062 177.681 174.976 177.681 174.976 C 180.666 174.688 181.325 173.541 181.813 172.737 C 182.932 171.016 183.707 170.413 184.568 169.122 C 185.945 168.089 187.84 170.499 187.926 170.499 C 192.746 175.062 188.872 180.657 188.614 180.829 C 186.204 183.039 185.687 183.182 184.224 181.776 C 182.76 180.054 182.33 179.28 181.125 178.677 C 178.801 177.558 173.98 178.419 173.893 178.419 C 173.807 178.419 171.397 179.366 171.397 179.366 C 170.22 179.796 169.474 180.83 167.437 181.173 C 165.371 181.317 164.682 181.116 163.649 179.452 C 162.272 177.3 162.96 174.717 165.027 174.459 z "
       style="fill:#ffe606;fill-rule:evenodd;stroke:#000000;stroke-width:1pt;"
       id="path802" />
  </g>
  <path
     d="M 469.841 290.148 C 467.565 288.081 512.652 306.485 518.855 306.694 C 527.336 303.592 562.288 274.018 562.288 274.018 C 562.633 276.913 563.872 284.427 567.249 286.014 C 553.739 296.976 541.467 307.522 527.956 318.482 C 528.922 335.855 525.751 354.262 534.574 373.703 C 534.574 373.703 524.028 373.908 524.028 373.703 C 514.721 364.396 511.41 319.518 511.41 319.518 C 496.589 312.899 481.766 306.489 466.945 299.87 C 469.083 298.49 470.806 294.218 469.841 290.148 z "
     style="font-size:12;fill:#ffef00;fill-opacity:0.987421;fill-rule:evenodd;stroke:#000000;stroke-width:2.40245pt;"
     id="path746" />
  <path
     d="M 512.738 336.153 C 513.459 335.63 504.605 340.266 502.331 341.43 C 461.37 363.28 440.291 395.064 438.977 396.265 C 438.269 397.619 436.966 399.425 435.773 401.194 C 434.813 402.677 433.435 404.212 432.527 405.712 C 431.272 407.45 428.634 410.882 427.193 412.406 C 427.013 413.388 427.876 412.07 427.594 412.723 "
     style="font-size:12;fill:none;fill-rule:evenodd;stroke:#000000;stroke-width:2.40245pt;"
     id="path920" />
  <path
     d="M 540.726 310.185 C 539.931 309.783 548.104 315.536 550.179 317.025 C 588.345 343.456 626.251 347.663 627.92 348.282 C 629.448 348.292 631.65 348.625 633.768 348.877 C 635.527 349.052 637.521 349.575 639.271 349.697 C 641.39 350.017 645.649 350.793 647.664 351.378 C 648.618 351.088 647.053 350.925 647.762 350.876 "
     style="font-size:12;fill:none;fill-rule:evenodd;stroke:#000000;stroke-width:2.40245pt;"
     id="path923" />
</svg>
