<?xml version="1.0" encoding="UTF-8" standalone="no"?>
<!DOCTYPE svg PUBLIC "-//W3C//DTD SVG 20010904//EN"
"http://www.w3.org/TR/2001/REC-SVG-20010904/DTD/svg10.dtd">
<!-- Created with Sodipodi ("http://www.sodipodi.com/") -->
<svg
   version="1"
   x="0"
   y="0"
   width="299.999mm"
   height="210mm"
   id="svg378"
   sodipodi:version="0.33pre"
   sodipodi:docname="/home/meuserj/israel.svg"
   sodipodi:docbase="/home/meuserj/"
   xmlns="http://www.w3.org/2000/svg"
   xmlns:sodipodi="http://sodipodi.sourceforge.net/DTD/sodipodi-0.dtd"
   xmlns:xlink="http://www.w3.org/1999/xlink">
  <sodipodi:namedview
     id="base" />
  <defs
     id="defs380" />
  <rect
     width="1062.989990"
     height="744.094421"
     x="-1062.989258"
     y="-744.094498"
     style="font-size:12;fill:#ffffff;fill-rule:evenodd;stroke:none;stroke-width:1.0247pt;fill-opacity:1;"
     id="rect149"
     transform="scale(-1.000000,-1.000000)" />
  <rect
     width="1062.989990"
     height="97.702178"
     x="-1062.989258"
     y="-167.458393"
     style="font-size:12;fill:#0000cc;fill-rule:evenodd;stroke-width:1pt;stroke:none;fill-opacity:1;"
     id="rect585"
     transform="scale(-1.000000,-1.000000)" />
  <rect
     width="1062.989990"
     height="97.702179"
     x="-1062.989258"
     y="-676.783096"
     style="font-size:12;fill:#0000cc;fill-rule:evenodd;stroke-width:1pt;stroke:none;fill-opacity:1;"
     id="rect688"
     transform="scale(-1.000000,-1.000000)" />
  <path
     style="font-size:12;fill:#0000cc;fill-rule:evenodd;stroke-width:0.969612pt;fill-opacity:1;"
     d="M -260.497 692.489 L -108.21 957.365 L 47.3428 693.577 L -260.497 692.489 z "
     id="path706"
     sodipodi:nodetypes="cccc"
     transform="matrix(1.050927,0.000000,0.000000,1.050927,634.8065,-450.4951)" />
  <path
     style="font-size:12;fill:#ffffff;fill-rule:evenodd;stroke-width:0.969612pt;"
     d="M -136.982 868.156 L -108.01 917.256 L -78.4157 868.357 L -136.982 868.156 z "
     id="path704"
     sodipodi:nodetypes="cccc"
     transform="matrix(1.050927,0.000000,0.000000,1.050927,634.8065,-450.4951)" />
  <path
     style="font-size:12;fill:#0000cc;fill-rule:evenodd;stroke-width:0.969612pt;fill-opacity:1;"
     d="M -261.058 871.987 L -108.771 607.116 L 46.7819 870.899 L -261.058 871.987 z "
     id="path707"
     sodipodi:nodetypes="cccc"
     transform="matrix(1.050927,0.000000,0.000000,1.050927,634.8065,-450.4951)" />
  <path
     style="font-size:12;fill:#ffffff;fill-rule:evenodd;stroke-width:0.969612pt;"
     d="M -136.982 693.635 L -108.01 644.535 L -78.4157 693.434 L -136.982 693.635 z "
     id="path708"
     sodipodi:nodetypes="cccc"
     transform="matrix(1.050927,0.000000,0.000000,1.050927,634.8065,-450.4951)" />
  <path
     style="font-size:12;fill:#ffffff;fill-rule:evenodd;stroke-width:0.969612pt;"
     d="M -197.523 803.581 L -227.449 853.34 L -170.891 853.164 L -197.523 803.581 z "
     id="path709"
     sodipodi:nodetypes="cccc"
     transform="matrix(1.050927,0.000000,0.000000,1.050927,634.8065,-450.4951)" />
  <path
     style="font-size:12;fill:#ffffff;fill-rule:evenodd;stroke-width:0.969612pt;"
     d="M -226.927 711.618 L -169.918 712.018 L -197.346 762.164 L -226.927 711.618 z "
     id="path710"
     sodipodi:nodetypes="cccc"
     transform="matrix(1.050927,0.000000,0.000000,1.050927,634.8065,-450.4951)" />
  <path
     style="font-size:12;fill:#ffffff;fill-rule:evenodd;stroke-width:0.969612pt;"
     d="M -17.7863 804.142 L 11.0178 853.34 L -46.6621 852.603 L -17.7863 804.142 z "
     id="path711"
     sodipodi:nodetypes="cccc"
     transform="matrix(1.050927,0.000000,0.000000,1.050927,634.8065,-450.4951)" />
  <path
     style="font-size:12;fill:#ffffff;fill-rule:evenodd;stroke-width:0.969612pt;"
     d="M 10.4958 711.618 L -46.5132 712.018 L -19.0852 762.164 L 10.4958 711.618 z "
     id="path712"
     sodipodi:nodetypes="cccc"
     transform="matrix(1.050927,0.000000,0.000000,1.050927,634.8065,-450.4951)" />
  <path
     style="font-size:12;fill:#ffffff;fill-rule:evenodd;stroke-width:1pt;"
     d="M -147.525 711.56 L -186.79 782.799 L -146.964 852.354 L -74.0429 854.037 L -29.7293 782.799 L -70.6773 711 L -147.525 711.56 z "
     id="path716"
     sodipodi:nodetypes="ccccccc"
     transform="matrix(1.050927,0.000000,0.000000,1.050927,634.8065,-450.4951)" />
</svg>
