<?xml version="1.0" encoding="UTF-8" standalone="no"?>
<!DOCTYPE svg PUBLIC "-//W3C//DTD SVG 20010904//EN"
"http://www.w3.org/TR/2001/REC-SVG-20010904/DTD/svg10.dtd">
<!-- Created with Sodipodi ("http://www.sodipodi.com/") -->
<svg
   id="svg732"
   sodipodi:version="0.32"
   width="280mm"
   height="140mm"
   sodipodi:docbase="/home/scarlet"
   sodipodi:docname="/home/scarlet/kazakhstan.svg"
   xmlns="http://www.w3.org/2000/svg"
   xmlns:sodipodi="http://sodipodi.sourceforge.net/DTD/sodipodi-0.dtd"
   xmlns:xlink="http://www.w3.org/1999/xlink">
  <defs
     id="defs734">
    <linearGradient
       id="linearGradient774">
      <stop
         style="stop-color:#000;stop-opacity:1;"
         offset="0"
         id="stop775" />
      <stop
         style="stop-color:#fff;stop-opacity:1;"
         offset="1"
         id="stop776" />
    </linearGradient>
    <linearGradient
       xlink:href="#linearGradient774"
       id="linearGradient777" />
  </defs>
  <sodipodi:namedview
     id="base" />
  <rect
     style="font-size:12;fill:#6fdcff;fill-rule:evenodd;stroke-width:1pt;"
     id="rect851"
     width="992.125977"
     height="496.047434"
     x="0.000000"
     y="0.015622" />
  <rect
     style="font-size:12;fill:#ffe400;fill-rule:evenodd;stroke-width:1pt;"
     id="rect773"
     width="164.935778"
     height="156.271021"
     x="412.634412"
     y="116.647829"
     ry="78.1355103"
     rx="82.4678890" />
  <path
     style="font-size:12;fill:#ffe400;fill-rule:evenodd;stroke-width:0.25;"
     d="M 404.532 240.281 C 404.376 240.281 403.595 246.531 403.283 247.937 C 403.022 251.062 407.293 250.906 406.563 247.781 L 404.532 240.281 z "
     id="path778"
     sodipodi:nodetypes="cccc"
     transform="matrix(4.398074,4.117567e-2,-4.345876e-2,4.167023,-1277.573,-947.8580)" />
  <path
     style="font-size:12;fill:#ffe400;fill-rule:evenodd;stroke-width:0.25;"
     d="M 404.532 240.281 C 404.376 240.281 403.595 246.531 403.283 247.937 C 403.022 251.062 407.293 250.906 406.563 247.781 L 404.532 240.281 z "
     id="path779"
     sodipodi:nodetypes="cccc"
     transform="matrix(-4.384439,-0.330442,0.348764,-4.154104,2187.609,1453.643)" />
  <path
     style="font-size:12;fill:#ffe400;fill-rule:evenodd;stroke-width:0.25;"
     d="M 404.532 240.281 C 404.376 240.281 403.595 246.531 403.283 247.937 C 403.022 251.062 407.293 250.906 406.563 247.781 L 404.532 240.281 z "
     id="path780"
     sodipodi:nodetypes="cccc"
     transform="matrix(0.369884,-4.152462,4.382706,0.350453,-836.3251,1789.910)" />
  <path
     style="font-size:12;fill:#ffe400;fill-rule:evenodd;stroke-width:0.25;"
     d="M 404.532 240.281 C 404.376 240.281 403.595 246.531 403.283 247.937 C 403.022 251.062 407.293 250.906 406.563 247.781 L 404.532 240.281 z "
     id="path781"
     sodipodi:nodetypes="cccc"
     transform="matrix(-0.185684,4.163095,-4.394027,-0.193462,1760.557,-1440.216)" />
  <path
     style="font-size:12;fill:#ffe400;fill-rule:evenodd;stroke-width:0.25;"
     d="M 404.532 240.281 C 404.376 240.281 403.595 246.531 403.283 247.937 C 403.022 251.062 407.293 250.906 406.563 247.781 L 404.532 240.281 z "
     id="path782"
     sodipodi:nodetypes="cccc"
     transform="matrix(2.993471,-3.053144,3.222433,2.836210,-1591.131,665.5995)" />
  <path
     style="font-size:12;fill:#ffe400;fill-rule:evenodd;stroke-width:0.25;"
     d="M 404.532 240.281 C 404.376 240.281 403.595 246.531 403.283 247.937 C 403.022 251.062 407.293 250.906 406.563 247.781 L 404.532 240.281 z "
     id="path783"
     sodipodi:nodetypes="cccc"
     transform="matrix(-2.702476,3.287796,-3.470096,-2.560503,2525.733,-437.1166)" />
  <path
     style="font-size:12;fill:#ffe400;fill-rule:evenodd;stroke-width:0.25;"
     d="M 404.532 240.281 C 404.376 240.281 403.595 246.531 403.283 247.937 C 403.022 251.062 407.293 250.906 406.563 247.781 L 404.532 240.281 z "
     id="path784"
     sodipodi:nodetypes="cccc"
     transform="matrix(3.997609,-1.737779,1.834135,3.787596,-1622.885,-123.2255)" />
  <path
     style="font-size:12;fill:#ffe400;fill-rule:evenodd;stroke-width:0.25;"
     d="M 404.532 240.281 C 404.376 240.281 403.595 246.531 403.283 247.937 C 403.022 251.062 407.293 250.906 406.563 247.781 L 404.532 240.281 z "
     id="path785"
     sodipodi:nodetypes="cccc"
     transform="matrix(-4.115325,1.470564,-1.552103,-3.899128,2591.883,650.9773)" />
  <path
     style="font-size:12;fill:#ffe400;fill-rule:evenodd;stroke-width:0.25;"
     d="M 404.532 240.281 C 404.376 240.281 403.595 246.531 403.283 247.937 C 403.022 251.062 407.293 250.906 406.563 247.781 L 404.532 240.281 z "
     id="path786"
     sodipodi:nodetypes="cccc"
     transform="matrix(3.174030,2.884792,-3.044746,3.007283,30.99682,-1788.286)" />
  <path
     style="font-size:12;fill:#ffe400;fill-rule:evenodd;stroke-width:0.25;"
     d="M 404.532 240.281 C 404.376 240.281 403.595 246.531 403.283 247.937 C 403.022 251.062 407.293 250.906 406.563 247.781 L 404.532 240.281 z "
     id="path787"
     sodipodi:nodetypes="cccc"
     transform="matrix(-2.954933,-3.086661,3.257808,-2.799697,818.7521,2210.356)" />
  <path
     style="font-size:12;fill:#ffe400;fill-rule:evenodd;stroke-width:0.25;"
     d="M 404.532 240.281 C 404.376 240.281 403.595 246.531 403.283 247.937 C 403.022 251.062 407.293 250.906 406.563 247.781 L 404.532 240.281 z "
     id="path788"
     sodipodi:nodetypes="cccc"
     transform="matrix(1.806228,-3.799615,4.010294,1.711338,-1322.091,1275.172)" />
  <path
     style="font-size:12;fill:#ffe400;fill-rule:evenodd;stroke-width:0.25;"
     d="M 404.532 240.281 C 404.376 240.281 403.595 246.531 403.283 247.937 C 403.022 251.062 407.293 250.906 406.563 247.781 L 404.532 240.281 z "
     id="path789"
     sodipodi:nodetypes="cccc"
     transform="matrix(-2.080351,3.671606,-3.875187,-1.971061,2390.891,-766.9916)" />
  <path
     style="font-size:12;fill:#ffe400;fill-rule:evenodd;stroke-width:0.25;"
     d="M 404.532 240.281 C 404.376 240.281 403.595 246.531 403.283 247.937 C 403.022 251.062 407.293 250.906 406.563 247.781 L 404.532 240.281 z "
     id="path790"
     sodipodi:nodetypes="cccc"
     transform="matrix(4.078116,1.560851,-1.647397,3.863874,-713.8855,-1482.640)" />
  <path
     style="font-size:12;fill:#ffe400;fill-rule:evenodd;stroke-width:0.25;"
     d="M 404.532 240.281 C 404.376 240.281 403.595 246.531 403.283 247.937 C 403.022 251.062 407.293 250.906 406.563 247.781 L 404.532 240.281 z "
     id="path791"
     sodipodi:nodetypes="cccc"
     transform="matrix(-3.953873,-1.825400,1.926613,-3.746158,1585.616,1952.398)" />
  <path
     style="font-size:12;fill:#ffe400;fill-rule:evenodd;stroke-width:0.25;"
     d="M 404.532 240.281 C 404.376 240.281 403.595 246.531 403.283 247.937 C 403.022 251.062 407.293 250.906 406.563 247.781 L 404.532 240.281 z "
     id="path792"
     sodipodi:nodetypes="cccc"
     transform="matrix(-1.593883,-3.883968,4.099324,-1.510149,33.79904,2180.745)" />
  <path
     style="font-size:12;fill:#ffe400;fill-rule:evenodd;stroke-width:0.25;"
     d="M 404.532 240.281 C 404.376 240.281 403.595 246.531 403.283 247.937 C 403.022 251.062 407.293 250.906 406.563 247.781 L 404.532 240.281 z "
     id="path793"
     sodipodi:nodetypes="cccc"
     transform="matrix(1.305373,3.979460,-4.200111,1.236795,1099.391,-1759.673)" />
  <path
     style="font-size:12;fill:#ffe400;fill-rule:evenodd;stroke-width:0.25;"
     d="M 404.532 240.281 C 404.376 240.281 403.595 246.531 403.283 247.937 C 403.022 251.062 407.293 250.906 406.563 247.781 L 404.532 240.281 z "
     id="path794"
     sodipodi:nodetypes="cccc"
     transform="matrix(4.299442,0.878506,-0.927217,4.073573,-998.5060,-1262.422)" />
  <path
     style="font-size:12;fill:#ffe400;fill-rule:evenodd;stroke-width:0.25;"
     d="M 404.532 240.281 C 404.376 240.281 403.595 246.531 403.283 247.937 C 403.022 251.062 407.293 250.906 406.563 247.781 L 404.532 240.281 z "
     id="path795"
     sodipodi:nodetypes="cccc"
     transform="matrix(-4.224676,-1.159264,1.223542,-4.002734,1886.021,1750.381)" />
  <path
     style="font-size:12;fill:#ffe400;fill-rule:evenodd;stroke-width:0.25;"
     d="M 404.532 240.281 C 404.376 240.281 403.595 246.531 403.283 247.937 C 403.022 251.062 407.293 250.906 406.563 247.781 L 404.532 240.281 z "
     id="path796"
     sodipodi:nodetypes="cccc"
     transform="matrix(4.296354,-0.891957,0.941414,4.070647,-1502.675,-543.0688)" />
  <path
     style="font-size:12;fill:#ffe400;fill-rule:evenodd;stroke-width:0.25;"
     d="M 404.532 240.281 C 404.376 240.281 403.595 246.531 403.283 247.937 C 403.022 251.062 407.293 250.906 406.563 247.781 L 404.532 240.281 z "
     id="path797"
     sodipodi:nodetypes="cccc"
     transform="matrix(-4.351359,0.607132,-0.640796,-4.122763,2441.665,1063.201)" />
  <path
     style="font-size:12;fill:#ffe400;fill-rule:evenodd;stroke-width:0.25;"
     d="M 404.532 240.281 C 404.376 240.281 403.595 246.531 403.283 247.937 C 403.022 251.062 407.293 250.906 406.563 247.781 L 404.532 240.281 z "
     id="path798"
     sodipodi:nodetypes="cccc"
     transform="matrix(3.605330,-2.386888,2.519235,3.415926,-1648.978,240.7500)" />
  <path
     style="font-size:12;fill:#ffe400;fill-rule:evenodd;stroke-width:0.25;"
     d="M 404.532 240.281 C 404.376 240.281 403.595 246.531 403.283 247.937 C 403.022 251.062 407.293 250.906 406.563 247.781 L 404.532 240.281 z "
     id="path799"
     sodipodi:nodetypes="cccc"
     transform="matrix(-3.771568,2.143917,-2.262792,-3.573430,2643.973,288.5994)" />
  <path
     style="font-size:12;fill:#ffe400;fill-rule:evenodd;stroke-width:0.25;"
     d="M 404.532 240.281 C 404.376 240.281 403.595 246.531 403.283 247.937 C 403.022 251.062 407.293 250.906 406.563 247.781 L 404.532 240.281 z "
     id="path800"
     sodipodi:nodetypes="cccc"
     transform="matrix(2.462453,-3.452893,3.644348,2.333089,-1491.055,964.6725)" />
  <path
     style="font-size:12;fill:#ffe400;fill-rule:evenodd;stroke-width:0.25;"
     d="M 404.532 240.281 C 404.376 240.281 403.595 246.531 403.283 247.937 C 403.022 251.062 407.293 250.906 406.563 247.781 L 404.532 240.281 z "
     id="path801"
     sodipodi:nodetypes="cccc"
     transform="matrix(-2.709579,3.282541,-3.464550,-2.567233,2536.221,-447.3082)" />
  <path
     style="font-size:12;fill:#ffe400;fill-rule:evenodd;stroke-width:0.25;"
     d="M 404.532 240.281 C 404.376 240.281 403.595 246.531 403.283 247.937 C 403.022 251.062 407.293 250.906 406.563 247.781 L 404.532 240.281 z "
     id="path802"
     sodipodi:nodetypes="cccc"
     transform="matrix(1.126947,-4.028112,4.251461,1.067744,-1111.627,1541.988)" />
  <path
     style="font-size:12;fill:#ffe400;fill-rule:evenodd;stroke-width:0.25;"
     d="M 404.532 240.281 C 404.376 240.281 403.595 246.531 403.283 247.937 C 403.022 251.062 407.293 250.906 406.563 247.781 L 404.532 240.281 z "
     id="path803"
     sodipodi:nodetypes="cccc"
     transform="matrix(-1.419455,3.944243,-4.162941,-1.344885,2199.437,-1047.354)" />
  <path
     style="font-size:12;fill:#ffe400;fill-rule:evenodd;stroke-width:0.25;"
     d="M 404.532 240.281 C 404.376 240.281 403.595 246.531 403.283 247.937 C 403.022 251.062 407.293 250.906 406.563 247.781 L 404.532 240.281 z "
     id="path804"
     sodipodi:nodetypes="cccc"
     transform="matrix(-0.610131,-4.126934,4.355762,-0.578078,-434.8277,2027.252)" />
  <path
     style="font-size:12;fill:#ffe400;fill-rule:evenodd;stroke-width:0.25;"
     d="M 404.532 240.281 C 404.376 240.281 403.595 246.531 403.283 247.937 C 403.022 251.062 407.293 250.906 406.563 247.781 L 404.532 240.281 z "
     id="path805"
     sodipodi:nodetypes="cccc"
     transform="matrix(0.306187,4.157117,-4.387619,0.290101,1557.153,-1576.106)" />
  <path
     style="font-size:12;fill:#ffe400;fill-rule:evenodd;stroke-width:0.25;"
     d="M 404.532 240.281 C 404.376 240.281 403.595 246.531 403.283 247.937 C 403.022 251.062 407.293 250.906 406.563 247.781 L 404.532 240.281 z "
     id="path806"
     sodipodi:nodetypes="cccc"
     transform="matrix(-2.452033,-3.459544,3.651367,-2.323216,503.2500,2228.403)" />
  <path
     style="font-size:12;fill:#ffe400;fill-rule:evenodd;stroke-width:0.25;"
     d="M 404.532 240.281 C 404.376 240.281 403.595 246.531 403.283 247.937 C 403.022 251.062 407.293 250.906 406.563 247.781 L 404.532 240.281 z "
     id="path807"
     sodipodi:nodetypes="cccc"
     transform="matrix(2.192556,3.612519,-3.812824,2.077371,633.2468,-1837.436)" />
  <path
     style="font-size:12;fill:#ffe400;fill-rule:evenodd;stroke-width:0.25;"
     d="M 404.532 240.281 C 404.376 240.281 403.595 246.531 403.283 247.937 C 403.022 251.062 407.293 250.906 406.563 247.781 L 404.532 240.281 z "
     id="path808"
     sodipodi:nodetypes="cccc"
     transform="matrix(-3.705119,-2.245518,2.370027,-3.510472,1358.401,2056.803)" />
  <path
     style="font-size:12;fill:#ffe400;fill-rule:evenodd;stroke-width:0.25;"
     d="M 404.532 240.281 C 404.376 240.281 403.595 246.531 403.283 247.937 C 403.022 251.062 407.293 250.906 406.563 247.781 L 404.532 240.281 z "
     id="path809"
     sodipodi:nodetypes="cccc"
     transform="matrix(3.531598,2.483871,-2.621596,3.346066,-234.3356,-1720.621)" />
  <g
     id="g766"
     transform="matrix(14.18174,0.000000,0.000000,10.78753,-5406.821,-2660.816)"
     style="font-size:12;fill:#ffe400;">
    <path
       style="font-size:12;fill:#ffe400;fill-rule:evenodd;stroke:none;stroke-width:0.125;fill-opacity:1;"
       d="M 387.597 291.556 C 387.834 291.861 387.756 292.374 388.415 292.308 C 389.421 292.308 389.45 291.499 389.45 290.934 C 389.45 290.37 387.951 289.581 387.882 288.751 C 387.812 287.92 388.228 287.688 388.576 287.688 C 388.922 287.688 389.165 287.954 389.165 288.186 C 389.165 288.418 388.992 288.485 388.749 288.485 C 388.506 288.485 388.853 288.319 388.645 288.186 C 388.437 288.053 388.298 288.385 388.298 288.585 C 388.298 288.784 388.818 288.85 389.165 288.701 C 389.235 289.149 389.269 289.183 388.783 289.946 C 389.131 289.647 389.164 289.581 389.547 289.747 C 389.165 289.315 389.451 288.435 389.464 288.211 C 389.477 287.987 389.391 287.721 389.235 287.588 C 388.957 287.256 388.35 287.241 387.986 287.455 C 387.456 287.766 387.43 288.683 387.569 288.983 L 389.038 290.963 C 389.142 291.196 389.178 291.843 388.554 291.876 C 387.895 291.942 387.669 290.761 387.552 290.368 C 387.395 290.797 387.22 291.981 386.561 291.915 C 385.936 291.882 385.816 291.235 385.92 291.002 L 387.429 288.983 C 387.567 288.683 387.541 287.766 387.011 287.455 C 386.647 287.241 386.041 287.256 385.763 287.588 C 385.607 287.721 385.52 287.987 385.533 288.211 C 385.546 288.435 385.832 289.315 385.45 289.747 C 385.833 289.581 385.867 289.647 386.214 289.946 C 385.728 289.183 385.763 289.149 385.832 288.701 C 386.179 288.85 386.7 288.784 386.7 288.585 C 386.7 288.385 386.56 288.053 386.352 288.186 C 386.145 288.319 386.491 288.485 386.249 288.485 C 386.005 288.485 385.832 288.418 385.832 288.186 C 385.832 287.954 386.075 287.688 386.422 287.688 C 386.769 287.688 387.185 287.92 387.115 288.751 C 387.046 289.581 385.508 290.487 385.508 291.051 C 385.508 291.616 385.615 292.308 386.621 292.308 C 387.28 292.374 387.358 291.861 387.597 291.556 z "
       id="path760"
       sodipodi:nodetypes="ccccccccccccccccccccccccccccccccccccc" />
    <path
       style="font-size:12;fill:#ffe400;fill-rule:evenodd;stroke:none;stroke-width:0.125;fill-opacity:1;"
       d="M 387.519 294.915 C 387.756 295.22 387.951 296.124 388.61 296.058 C 389.616 296.058 389.997 295.327 389.997 294.762 C 389.997 294.198 387.951 289.581 387.882 288.751 C 387.812 287.92 388.228 287.688 388.576 287.688 C 388.922 287.688 389.165 287.954 389.165 288.186 C 389.165 288.418 388.992 288.485 388.749 288.485 C 388.506 288.485 388.853 288.319 388.645 288.186 C 388.437 288.053 388.298 288.385 388.298 288.585 C 388.298 288.784 388.818 288.85 389.165 288.701 C 389.235 289.149 389.269 289.183 388.783 289.946 C 389.131 289.647 389.164 289.581 389.547 289.747 C 389.165 289.315 389.451 288.435 389.464 288.211 C 389.477 287.987 389.391 287.721 389.235 287.588 C 388.957 287.256 388.35 287.241 387.986 287.455 C 387.456 287.766 387.43 288.683 387.569 288.983 L 389.546 294.596 C 389.65 294.829 389.373 295.593 388.749 295.626 C 388.09 295.692 387.864 294.784 387.747 294.391 L 388.645 294.477 C 388.645 294.477 388.68 294.295 388.645 294.177 C 388.181 294.137 387.747 294.026 387.747 294.026 L 387.713 293.428 L 388.156 293.428 L 388.121 293.163 C 388.121 293.163 387.747 293.196 387.713 293.163 C 387.678 293.13 387.643 292.564 387.643 292.564 C 387.643 292.564 387.574 292.531 387.499 292.531 C 387.423 292.531 387.354 292.564 387.354 292.564 C 387.354 292.564 387.319 293.13 387.285 293.163 C 387.25 293.196 386.876 293.163 386.876 293.163 L 386.842 293.428 L 387.285 293.428 L 387.25 294.026 C 387.25 294.026 386.816 294.137 386.352 294.177 C 386.318 294.295 386.352 294.477 386.352 294.477 L 387.25 294.391 C 387.133 294.784 386.907 295.692 386.249 295.626 C 385.624 295.593 385.347 294.829 385.451 294.596 L 387.429 288.983 C 387.567 288.683 387.541 287.766 387.011 287.455 C 386.647 287.241 386.041 287.256 385.763 287.588 C 385.607 287.721 385.52 287.987 385.533 288.211 C 385.546 288.435 385.832 289.315 385.45 289.747 C 385.833 289.581 385.867 289.647 386.214 289.946 C 385.728 289.183 385.763 289.149 385.832 288.701 C 386.179 288.85 386.7 288.784 386.7 288.585 C 386.7 288.385 386.56 288.053 386.352 288.186 C 386.145 288.319 386.491 288.485 386.249 288.485 C 386.005 288.485 385.832 288.418 385.832 288.186 C 385.832 287.954 386.075 287.688 386.422 287.688 C 386.769 287.688 387.185 287.92 387.115 288.751 C 387.046 289.581 385 294.198 385 294.762 C 385 295.327 385.381 296.058 386.387 296.058 C 387.046 296.124 387.28 295.22 387.519 294.915 z "
       id="path761"
       sodipodi:nodetypes="ccccccccccccccccccccccccccccccccccccccccccccccccccccccc"
       transform="matrix(1.000000,-1.224606e-16,-1.224606e-16,-1.000000,9.536743e-6,574.6260)" />
    <path
       style="font-size:12;fill:#ffe400;fill-rule:evenodd;stroke:none;stroke-width:0.125;fill-opacity:1;"
       d="M 387.519 294.915 C 387.756 295.22 387.951 296.124 388.61 296.058 C 389.616 296.058 389.997 295.327 389.997 294.762 C 389.997 294.198 387.951 289.581 387.882 288.751 C 387.812 287.92 388.228 287.688 388.576 287.688 C 388.922 287.688 389.165 287.954 389.165 288.186 C 389.165 288.418 388.992 288.485 388.749 288.485 C 388.506 288.485 388.853 288.319 388.645 288.186 C 388.437 288.053 388.298 288.385 388.298 288.585 C 388.298 288.784 388.818 288.85 389.165 288.701 C 389.235 289.149 389.269 289.183 388.783 289.946 C 389.131 289.647 389.164 289.581 389.547 289.747 C 389.165 289.315 389.451 288.435 389.464 288.211 C 389.477 287.987 389.391 287.721 389.235 287.588 C 388.957 287.256 388.35 287.241 387.986 287.455 C 387.456 287.766 387.43 288.683 387.569 288.983 L 389.546 294.596 C 389.65 294.829 389.373 295.593 388.749 295.626 C 388.09 295.692 387.864 294.784 387.747 294.391 L 388.645 294.477 C 388.645 294.477 388.68 294.295 388.645 294.177 C 388.181 294.137 387.747 294.026 387.747 294.026 L 387.713 293.428 L 388.156 293.428 L 388.121 293.163 C 388.121 293.163 387.747 293.196 387.713 293.163 C 387.678 293.13 387.643 292.564 387.643 292.564 C 387.643 292.564 387.574 292.531 387.499 292.531 C 387.423 292.531 387.354 292.564 387.354 292.564 C 387.354 292.564 387.319 293.13 387.285 293.163 C 387.25 293.196 386.876 293.163 386.876 293.163 L 386.842 293.428 L 387.285 293.428 L 387.25 294.026 C 387.25 294.026 386.816 294.137 386.352 294.177 C 386.318 294.295 386.352 294.477 386.352 294.477 L 387.25 294.391 C 387.133 294.784 386.907 295.692 386.249 295.626 C 385.624 295.593 385.347 294.829 385.451 294.596 L 387.429 288.983 C 387.567 288.683 387.541 287.766 387.011 287.455 C 386.647 287.241 386.041 287.256 385.763 287.588 C 385.607 287.721 385.52 287.987 385.533 288.211 C 385.546 288.435 385.832 289.315 385.45 289.747 C 385.833 289.581 385.867 289.647 386.214 289.946 C 385.728 289.183 385.763 289.149 385.832 288.701 C 386.179 288.85 386.7 288.784 386.7 288.585 C 386.7 288.385 386.56 288.053 386.352 288.186 C 386.145 288.319 386.491 288.485 386.249 288.485 C 386.005 288.485 385.832 288.418 385.832 288.186 C 385.832 287.954 386.075 287.688 386.422 287.688 C 386.769 287.688 387.185 287.92 387.115 288.751 C 387.046 289.581 385 294.198 385 294.762 C 385 295.327 385.381 296.058 386.387 296.058 C 387.046 296.124 387.28 295.22 387.519 294.915 z "
       id="path762"
       sodipodi:nodetypes="ccccccccccccccccccccccccccccccccccccccccccccccccccccccc"
       transform="translate(0.000000,-17.49845)" />
    <path
       style="font-size:12;fill:#ffe400;fill-rule:evenodd;stroke:none;stroke-width:0.125;fill-opacity:1;"
       d="M 387.519 294.915 C 387.756 295.22 387.951 296.124 388.61 296.058 C 389.616 296.058 389.997 295.327 389.997 294.762 C 389.997 294.198 387.951 289.581 387.882 288.751 C 387.812 287.92 388.228 287.688 388.576 287.688 C 388.922 287.688 389.165 287.954 389.165 288.186 C 389.165 288.418 388.992 288.485 388.749 288.485 C 388.506 288.485 388.853 288.319 388.645 288.186 C 388.437 288.053 388.298 288.385 388.298 288.585 C 388.298 288.784 388.818 288.85 389.165 288.701 C 389.235 289.149 389.269 289.183 388.783 289.946 C 389.131 289.647 389.164 289.581 389.547 289.747 C 389.165 289.315 389.451 288.435 389.464 288.211 C 389.477 287.987 389.391 287.721 389.235 287.588 C 388.957 287.256 388.35 287.241 387.986 287.455 C 387.456 287.766 387.43 288.683 387.569 288.983 L 389.546 294.596 C 389.65 294.829 389.373 295.593 388.749 295.626 C 388.09 295.692 387.864 294.784 387.747 294.391 L 388.645 294.477 C 388.645 294.477 388.68 294.295 388.645 294.177 C 388.181 294.137 387.747 294.026 387.747 294.026 L 387.713 293.428 L 388.156 293.428 L 388.121 293.163 C 388.121 293.163 387.747 293.196 387.713 293.163 C 387.678 293.13 387.643 292.564 387.643 292.564 C 387.643 292.564 387.574 292.531 387.499 292.531 C 387.423 292.531 387.354 292.564 387.354 292.564 C 387.354 292.564 387.319 293.13 387.285 293.163 C 387.25 293.196 386.876 293.163 386.876 293.163 L 386.842 293.428 L 387.285 293.428 L 387.25 294.026 C 387.25 294.026 386.816 294.137 386.352 294.177 C 386.318 294.295 386.352 294.477 386.352 294.477 L 387.25 294.391 C 387.133 294.784 386.907 295.692 386.249 295.626 C 385.624 295.593 385.347 294.829 385.451 294.596 L 387.429 288.983 C 387.567 288.683 387.541 287.766 387.011 287.455 C 386.647 287.241 386.041 287.256 385.763 287.588 C 385.607 287.721 385.52 287.987 385.533 288.211 C 385.546 288.435 385.832 289.315 385.45 289.747 C 385.833 289.581 385.867 289.647 386.214 289.946 C 385.728 289.183 385.763 289.149 385.832 288.701 C 386.179 288.85 386.7 288.784 386.7 288.585 C 386.7 288.385 386.56 288.053 386.352 288.186 C 386.145 288.319 386.491 288.485 386.249 288.485 C 386.005 288.485 385.832 288.418 385.832 288.186 C 385.832 287.954 386.075 287.688 386.422 287.688 C 386.769 287.688 387.185 287.92 387.115 288.751 C 387.046 289.581 385 294.198 385 294.762 C 385 295.327 385.381 296.058 386.387 296.058 C 387.046 296.124 387.28 295.22 387.519 294.915 z "
       id="path763"
       sodipodi:nodetypes="ccccccccccccccccccccccccccccccccccccccccccccccccccccccc"
       transform="matrix(1.000000,-1.224606e-16,-1.224606e-16,-1.000000,9.536743e-6,557.1260)" />
    <path
       style="font-size:12;fill:#ffe400;fill-rule:evenodd;stroke:none;stroke-width:0.125;fill-opacity:1;"
       d="M 387.519 294.915 C 387.756 295.22 387.951 296.124 388.61 296.058 C 389.616 296.058 389.997 295.327 389.997 294.762 C 389.997 294.198 387.951 289.581 387.882 288.751 C 387.812 287.92 388.228 287.688 388.576 287.688 C 388.922 287.688 389.165 287.954 389.165 288.186 C 389.165 288.418 388.992 288.485 388.749 288.485 C 388.506 288.485 388.853 288.319 388.645 288.186 C 388.437 288.053 388.298 288.385 388.298 288.585 C 388.298 288.784 388.818 288.85 389.165 288.701 C 389.235 289.149 389.269 289.183 388.783 289.946 C 389.131 289.647 389.164 289.581 389.547 289.747 C 389.165 289.315 389.451 288.435 389.464 288.211 C 389.477 287.987 389.391 287.721 389.235 287.588 C 388.957 287.256 388.35 287.241 387.986 287.455 C 387.456 287.766 387.43 288.683 387.569 288.983 L 389.546 294.596 C 389.65 294.829 389.373 295.593 388.749 295.626 C 388.09 295.692 387.864 294.784 387.747 294.391 L 388.645 294.477 C 388.645 294.477 388.68 294.295 388.645 294.177 C 388.181 294.137 387.747 294.026 387.747 294.026 L 387.713 293.428 L 388.156 293.428 L 388.121 293.163 C 388.121 293.163 387.747 293.196 387.713 293.163 C 387.678 293.13 387.643 292.564 387.643 292.564 C 387.643 292.564 387.574 292.531 387.499 292.531 C 387.423 292.531 387.354 292.564 387.354 292.564 C 387.354 292.564 387.319 293.13 387.285 293.163 C 387.25 293.196 386.876 293.163 386.876 293.163 L 386.842 293.428 L 387.285 293.428 L 387.25 294.026 C 387.25 294.026 386.816 294.137 386.352 294.177 C 386.318 294.295 386.352 294.477 386.352 294.477 L 387.25 294.391 C 387.133 294.784 386.907 295.692 386.249 295.626 C 385.624 295.593 385.347 294.829 385.451 294.596 L 387.429 288.983 C 387.567 288.683 387.541 287.766 387.011 287.455 C 386.647 287.241 386.041 287.256 385.763 287.588 C 385.607 287.721 385.52 287.987 385.533 288.211 C 385.546 288.435 385.832 289.315 385.45 289.747 C 385.833 289.581 385.867 289.647 386.214 289.946 C 385.728 289.183 385.763 289.149 385.832 288.701 C 386.179 288.85 386.7 288.784 386.7 288.585 C 386.7 288.385 386.56 288.053 386.352 288.186 C 386.145 288.319 386.491 288.485 386.249 288.485 C 386.005 288.485 385.832 288.418 385.832 288.186 C 385.832 287.954 386.075 287.688 386.422 287.688 C 386.769 287.688 387.185 287.92 387.115 288.751 C 387.046 289.581 385 294.198 385 294.762 C 385 295.327 385.381 296.058 386.387 296.058 C 387.046 296.124 387.28 295.22 387.519 294.915 z "
       id="path764"
       sodipodi:nodetypes="ccccccccccccccccccccccccccccccccccccccccccccccccccccccc"
       transform="translate(0.000000,-34.99849)" />
    <path
       style="font-size:12;fill:#ffe400;fill-rule:evenodd;stroke:none;stroke-width:0.125;fill-opacity:1;"
       d="M 387.597 291.556 C 387.834 291.861 387.756 292.374 388.415 292.308 C 389.421 292.308 389.45 291.499 389.45 290.934 C 389.45 290.37 387.951 289.581 387.882 288.751 C 387.812 287.92 388.228 287.688 388.576 287.688 C 388.922 287.688 389.165 287.954 389.165 288.186 C 389.165 288.418 388.992 288.485 388.749 288.485 C 388.506 288.485 388.853 288.319 388.645 288.186 C 388.437 288.053 388.298 288.385 388.298 288.585 C 388.298 288.784 388.818 288.85 389.165 288.701 C 389.235 289.149 389.269 289.183 388.783 289.946 C 389.131 289.647 389.164 289.581 389.547 289.747 C 389.165 289.315 389.451 288.435 389.464 288.211 C 389.477 287.987 389.391 287.721 389.235 287.588 C 388.957 287.256 388.35 287.241 387.986 287.455 C 387.456 287.766 387.43 288.683 387.569 288.983 L 389.038 290.963 C 389.142 291.196 389.178 291.843 388.554 291.876 C 387.895 291.942 387.669 290.761 387.552 290.368 C 387.395 290.797 387.22 291.981 386.561 291.915 C 385.936 291.882 385.816 291.235 385.92 291.002 L 387.429 288.983 C 387.567 288.683 387.541 287.766 387.011 287.455 C 386.647 287.241 386.041 287.256 385.763 287.588 C 385.607 287.721 385.52 287.987 385.533 288.211 C 385.546 288.435 385.832 289.315 385.45 289.747 C 385.833 289.581 385.867 289.647 386.214 289.946 C 385.728 289.183 385.763 289.149 385.832 288.701 C 386.179 288.85 386.7 288.784 386.7 288.585 C 386.7 288.385 386.56 288.053 386.352 288.186 C 386.145 288.319 386.491 288.485 386.249 288.485 C 386.005 288.485 385.832 288.418 385.832 288.186 C 385.832 287.954 386.075 287.688 386.422 287.688 C 386.769 287.688 387.185 287.92 387.115 288.751 C 387.046 289.581 385.508 290.487 385.508 291.051 C 385.508 291.616 385.615 292.308 386.621 292.308 C 387.28 292.374 387.358 291.861 387.597 291.556 z "
       id="path765"
       sodipodi:nodetypes="ccccccccccccccccccccccccccccccccccccc"
       transform="matrix(1.000000,-1.224606e-16,-1.224606e-16,-1.000000,-2.861023e-5,539.6260)" />
  </g>
  <g
     id="g852"
     transform="matrix(2.114387,0.000000,0.000000,1.998628,-392.3909,-248.6073)"
     style="font-size:12;fill:#ffe400;">
    <path
       style="fill:#ffe400;fill-rule:evenodd;stroke:none;stroke-opacity:1;stroke-width:0;stroke-linejoin:miter;stroke-linecap:butt;fill-opacity:1;stroke-dasharray:none;"
       d="M 349.532 159.5 C 350.157 162 350.313 176.062 364.376 189.5 C 378.438 202.937 402.345 205.906 402.345 205.906 C 402.345 205.906 402.501 207.781 400.782 207.937 C 399.063 208.094 390.938 206.375 386.876 205.125 C 382.813 203.875 379.22 201.687 378.751 201.844 C 378.282 202 377.501 203.406 376.251 203.25 C 375.001 203.094 369.22 197 366.72 195.437 C 364.22 193.875 355.782 184.656 352.97 180.125 C 350.157 175.594 349.532 172.625 348.595 172.625 C 347.657 172.625 344.376 174.812 344.376 174.812 C 344.376 174.812 341.407 170.281 338.751 163.093 C 336.095 155.906 336.407 151.687 337.032 151.375 C 337.657 151.062 337.657 156.687 339.688 161.843 C 341.72 167 344.532 168.562 344.532 168.562 C 344.532 168.562 342.657 165.906 341.251 159.187 C 339.845 152.468 339.376 146.062 340.313 144.031 C 341.251 142 342.188 141.375 342.345 141.531 C 342.501 141.687 340.626 144.656 341.876 152.312 C 343.126 159.968 346.72 166.531 347.501 166.218 C 348.282 165.906 347.032 164.343 346.407 159.812 C 345.782 155.281 347.032 152.468 348.126 152.156 C 348.595 151.687 349.376 157.156 349.532 159.5 z "
       id="path844"
       sodipodi:nodetypes="ccccccccccccccccccccccc"
       transform="translate(10.60661,88.38854)" />
    <path
       style="fill:#ffe400;fill-rule:evenodd;stroke:none;stroke-opacity:1;stroke-width:1pt;stroke-linejoin:miter;stroke-linecap:butt;fill-opacity:1;"
       d="M 339.063 174.812 C 336.407 172.312 332.188 163.562 331.251 164.031 C 330.313 164.5 338.126 177 338.282 178.094 C 338.438 179.187 340.157 182.625 338.907 182.156 C 337.657 181.687 328.282 171.844 329.376 173.719 C 330.47 175.594 337.501 184.187 337.032 184.656 C 336.563 185.125 331.251 179.968 331.095 180.594 C 330.938 181.219 336.407 186.375 336.251 187 C 336.095 187.625 332.813 183.719 332.813 184.5 C 332.813 185.281 336.251 189.187 336.251 189.812 C 336.251 190.437 333.282 187 334.22 188.875 C 335.157 190.75 337.813 192.469 337.657 193.094 C 337.501 193.719 335.47 192.312 335.47 192.625 C 335.47 192.937 339.376 194.344 340.313 195.437 C 341.251 196.531 347.657 203.875 352.501 207.625 C 357.345 211.375 371.095 217.781 372.032 217.781 C 372.97 217.781 374.376 215.75 374.063 214.969 C 373.751 214.187 360.313 209.656 356.563 206.219 C 352.813 202.781 343.595 194.656 342.813 194.187 C 342.032 193.719 340.001 193.875 340.001 193.406 C 340.001 192.937 342.657 193.719 342.501 193.406 C 342.345 193.094 338.751 191.531 338.907 191.219 C 339.063 190.906 341.407 191.844 341.407 191.531 C 341.407 191.219 337.188 188.875 337.345 188.406 C 337.501 187.937 340.47 189.812 340.47 189.5 C 340.47 189.187 336.407 186.375 336.563 185.906 C 336.72 185.437 339.688 188.094 339.532 187.469 C 339.376 186.844 337.188 183.562 337.188 183.094 C 337.188 182.625 340.782 186.531 341.095 185.75 C 341.407 184.969 339.845 178.562 340.001 178.406 C 340.157 178.25 342.646 179.828 343.115 178.89 C 343.583 177.953 341.278 176.649 339.063 174.812 z "
       id="path845"
       sodipodi:nodetypes="cccccccccccccccccccccccccccccccc"
       transform="translate(11.23161,85.88854)" />
    <path
       style="fill:#ffe400;fill-rule:evenodd;stroke:none;stroke-opacity:1;stroke-width:1pt;stroke-linejoin:miter;stroke-linecap:butt;fill-opacity:1;"
       d="M 385.178 222.668 C 382.7 222.995 381.583 222.149 382.99 220.118 C 384.938 219.972 390.122 218.301 391.954 217.534 C 393.786 216.767 395.742 215.668 397.37 214.195 C 398.992 212.586 399.86 215.226 399.048 216.592 C 398.374 217.554 395.333 219.286 393.098 220.202 C 389.854 221.289 387.065 222.795 385.178 222.668 z "
       id="path846"
       sodipodi:nodetypes="ccscscc"
       transform="matrix(0.763980,0.000000,0.000000,0.758753,102.1268,140.9539)" />
    <path
       style="fill:#ffe400;fill-rule:evenodd;stroke:none;stroke-opacity:1;stroke-width:0;stroke-linejoin:miter;stroke-linecap:butt;fill-opacity:1;stroke-dasharray:none;"
       d="M 398.282 216.375 C 397.032 214.968 398.126 214.031 400.001 212.937 C 402.813 211.375 402.033 209.344 405.626 207.625 C 407.189 206.687 429.532 197.625 436.876 192.781 C 444.22 187.937 464.689 172.468 470.157 161.843 C 475.626 151.218 472.97 150.437 473.751 149.968 C 474.532 149.5 475.314 151.531 475.157 153.875 C 475.001 156.218 473.282 163.25 473.751 163.875 C 474.22 164.5 482.032 158.406 485.157 150.906 C 488.282 143.406 490.782 135.593 492.345 135.593 C 493.907 135.593 489.689 148.406 487.032 153.406 C 484.376 158.406 481.251 160.906 482.032 162 C 482.814 163.093 490.626 156.531 493.282 151.687 C 495.939 146.843 498.439 142.468 498.907 143.406 C 499.376 144.343 496.407 154.656 492.189 159.5 C 487.97 164.343 482.97 167.781 483.751 168.562 C 484.532 169.344 490.157 170.125 496.095 166.062 C 502.032 162 502.657 156.062 503.439 156.375 C 504.22 156.687 502.657 164.812 497.032 169.812 C 491.407 174.812 483.751 175.281 484.064 176.375 C 484.376 177.469 500.314 171.844 500.001 173.094 C 499.689 174.344 479.376 182.312 479.219 183.094 C 479.22 183.719 482.658 183.875 488.126 182.625 C 493.595 181.375 498.752 177.157 499.533 178.094 C 499.688 179.5 495.626 182.938 489.376 184.5 C 483.126 186.063 480.001 188.25 479.845 188.719 C 479.689 189.187 490.939 187.312 490.939 187.937 C 490.939 188.562 476.251 191.375 476.095 192.157 C 475.939 192.938 490.157 189.344 489.845 190.125 C 489.532 190.906 470.626 196.531 470.782 196.844 C 470.939 197.156 486.564 193.406 486.251 194.031 C 485.939 194.656 459.845 202 459.689 202.469 C 459.532 202.937 482.657 197.312 482.501 197.781 C 482.345 198.25 470.47 201.218 470.47 201.531 C 470.47 201.843 480.001 199.969 479.845 200.437 C 479.689 200.906 455.782 207 455.313 207.937 C 454.845 208.875 467.657 205.437 467.501 207.156 C 467.345 208.875 439.845 218.25 439.688 216.531 C 439.532 214.812 456.407 210.437 456.251 209.969 C 456.095 209.5 446.564 211.062 446.407 210.125 C 446.251 209.187 452.657 207.156 452.189 206.687 C 451.72 206.219 446.876 208.093 447.345 207 C 447.814 205.906 456.876 201.687 456.72 201.375 C 456.564 201.062 453.439 202.468 453.751 201.375 C 454.064 200.281 473.438 194.656 473.126 194.031 C 472.813 193.406 464.22 195.437 463.439 195.593 C 463.126 194.969 475.47 190.437 475.157 189.656 C 474.845 188.875 468.595 192.312 468.283 191.375 C 467.97 190.437 479.064 186.062 478.439 185.437 C 477.814 184.812 472.658 187.156 472.033 186.531 C 471.408 185.906 482.501 178.094 480.782 177.937 C 479.064 177.781 477.032 180.282 476.72 178.719 C 477.033 176.687 485.47 173.406 483.595 171.844 C 480.626 170.906 470.47 172.469 466.251 174.969 C 462.032 177.469 448.126 191.375 444.688 193.562 C 441.251 195.75 429.688 200.594 427.501 201.531 C 424.063 202.781 423.438 204.656 420.001 206.375 C 413.75 208.094 413.751 209.969 410.782 211.062 C 409.689 211.375 398.439 216.843 398.282 216.375 z "
       id="path847"
       sodipodi:nodetypes="ccccccccccccccccccccccccccccccccccccccccccccccccccccccccccc"
       transform="translate(10.60661,88.38854)" />
    <path
       style="fill:#ffe400;fill-rule:evenodd;stroke:none;stroke-opacity:1;stroke-width:1pt;stroke-linejoin:miter;stroke-linecap:butt;fill-opacity:1;"
       d="M 380.001 224.187 C 378.126 225.125 376.408 227.625 377.5 228.562 C 378.126 229.812 380.001 225.906 381.563 226.062 C 383.126 226.218 385.313 226.219 389.532 226.532 C 393.751 226.844 395.938 225.594 398.282 225.75 C 400.626 225.906 405.939 224.5 408.439 224.5 C 410.939 224.5 411.407 224.812 411.72 223.718 C 412.032 222.625 403.907 223.406 400.313 223.25 C 396.72 223.094 392.188 224.031 389.532 224.031 C 387.032 223.875 382.657 223.093 380.001 224.187 z "
       id="path848"
       sodipodi:nodetypes="cccccccccc"
       transform="translate(13.10661,87.60729)" />
    <rect
       style="font-size:12;fill:#ffe400;fill-rule:evenodd;stroke-width:1pt;fill-opacity:1;"
       id="rect849"
       width="3.437500"
       height="2.968765"
       x="401.701248"
       y="309.138374"
       ry="1.48438263"
       rx="1.71875000" />
    <path
       style="fill:#ffe400;fill-rule:evenodd;stroke:none;stroke-opacity:1;stroke-width:1pt;stroke-linejoin:miter;stroke-linecap:butt;fill-opacity:1;"
       d="M 432.166 225.281 C 433.732 224.968 437.915 226.531 440.805 227.312 C 446.118 229.5 455.939 228.406 455.939 229.5 C 455.939 230.594 455.328 232 452.984 232.156 C 450.64 232.312 445.001 231.219 445.157 231.219 C 445.313 231.219 449.689 233.406 448.439 234.031 C 447.189 234.656 443.438 232.781 442.813 233.25 C 442.188 233.719 446.251 234.656 445.626 234.969 C 445.001 235.281 442.179 234.5 441.241 234.657 C 440.304 234.812 442.032 235.906 440.938 236.375 C 439.845 236.844 438.006 235.751 437.225 236.062 C 436.444 236.376 438.907 238.094 437.813 238.25 C 436.72 238.406 434.086 237.469 432.679 237.313 C 431.273 237.157 434.063 238.875 433.126 239.031 C 432.188 239.187 429.638 237.782 429.013 237.782 C 428.388 237.782 429.063 239.656 428.126 239.656 C 427.188 239.656 426.085 238.094 425.616 238.094 C 425.147 238.094 425.626 239.969 424.688 239.969 C 423.751 239.969 423.415 237.938 422.634 238.094 C 421.71 238.251 422.657 240.75 421.407 240.594 C 420.157 240.437 419.991 237.938 419.054 238.094 C 418.116 238.25 419.22 240.594 418.282 240.594 C 417.345 240.594 417.193 238.25 416.255 238.094 C 415.318 237.938 415.782 240.281 415.157 240.281 C 414.532 240.281 414.068 238.094 413.755 238.094 C 413.443 238.094 413.751 240.281 412.657 240.125 C 411.563 239.969 411.568 237.625 411.255 237.781 C 410.943 237.938 410.938 239.5 410.157 239.5 C 409.376 239.5 409.38 237.938 409.068 238.094 C 408.755 238.25 407.657 240.281 406.876 239.969 C 406.095 239.656 407.064 238.094 406.752 238.094 C 406.439 238.094 405.47 239.187 404.845 239.031 C 404.22 238.875 404.877 237.625 404.72 237.625 C 404.564 237.625 403.126 238.406 402.501 238.406 C 401.876 238.406 400.157 239.5 399.688 238.562 C 399.22 237.625 400.911 237.625 401.223 236.687 C 401.536 235.75 400.313 233.094 401.563 232.156 C 402.813 231.219 406.72 233.406 412.501 231.844 C 423.125 228.719 431.325 225.126 432.166 225.281 z "
       id="path850"
       transform="matrix(1.097057,0.000000,0.000000,1.000000,-29.11443,82.45104)"
       sodipodi:nodetypes="ccccccccccccccccccccccccccccccccccccccc" />
  </g>
</svg>
