<?xml version="1.0" encoding="UTF-8" standalone="no"?>
<!DOCTYPE svg PUBLIC "-//W3C//DTD SVG 20010904//EN"
"http://www.w3.org/TR/2001/REC-SVG-20010904/DTD/svg10.dtd">
<!-- Created with Sodipodi ("http://www.sodipodi.com/") -->
<svg
   id="svg548"
   sodipodi:version="0.32"
   width="206mm"
   height="140mm"
   sodipodi:docbase="/home/cschalle/sodipodi-flags/nations/"
   sodipodi:docname="/home/cschalle/sodipodi-flags/nations/kenya.svg"
   xmlns="http://www.w3.org/2000/svg"
   xmlns:sodipodi="http://sodipodi.sourceforge.net/DTD/sodipodi-0.dtd"
   xmlns:xlink="http://www.w3.org/1999/xlink">
  <defs
     id="defs550" />
  <sodipodi:namedview
     id="base" />
  <g
     id="g565"
     transform="matrix(2.908399,0.000000,0.000000,2.908399,-668.2187,-1173.815)">
    <rect
       style="font-size:12;fill:#ffffff;fill-rule:evenodd;stroke-width:0.75;fill-opacity:1;stroke:#000000;stroke-opacity:1;stroke-dasharray:none;"
       id="rect551"
       width="247.937012"
       height="168.312332"
       x="231.753113"
       y="405.006897" />
    <rect
       style="font-size:12;fill:#008900;fill-rule:evenodd;stroke-width:1pt;fill-opacity:1;"
       id="rect552"
       width="247.937012"
       height="48.551674"
       x="231.753113"
       y="524.767524" />
    <rect
       style="font-size:12;fill:#c23743;fill-rule:evenodd;stroke-width:1pt;fill-opacity:1;"
       id="rect553"
       width="247.937012"
       height="48.551674"
       x="231.105759"
       y="465.858093" />
    <rect
       style="font-size:12;fill:#000000;fill-rule:evenodd;stroke-width:1pt;fill-opacity:1;"
       id="rect554"
       width="247.937012"
       height="51.141050"
       x="231.753113"
       y="405.654089" />
    <path
       style="fill:#ffffff;fill-rule:evenodd;stroke:black;stroke-opacity:1;stroke-width:0.375;stroke-linejoin:miter;stroke-linecap:butt;fill-opacity:1;stroke-dasharray:none;"
       d="M 351.782 674.994 C 351.782 653.747 352.391 583.18 351.743 583.18 C 340.78 582.939 351.814 573.842 353.416 560.11 C 355.705 573.613 366.037 583.649 355.208 583.219 C 355.398 602.242 355.516 660.535 355.476 674.954 C 354.064 674.954 353.613 674.915 351.782 674.994 z "
       id="path565"
       sodipodi:nodetypes="cccccc"
       transform="matrix(0.639739,0.343725,-0.589892,1.097905,495.5724,-313.3043)" />
    <path
       style="fill:#ffffff;fill-rule:evenodd;stroke:black;stroke-opacity:1;stroke-width:0.375;stroke-linejoin:miter;stroke-linecap:butt;fill-opacity:1;stroke-dasharray:none;"
       d="M 351.782 674.994 C 351.782 653.747 352.391 583.18 351.743 583.18 C 340.78 582.939 351.814 573.842 353.416 560.11 C 355.705 573.613 366.037 583.649 355.208 583.219 C 355.398 602.242 355.516 660.535 355.476 674.954 C 354.064 674.954 353.613 674.915 351.782 674.994 z "
       id="path568"
       sodipodi:nodetypes="cccccc"
       transform="matrix(-0.639739,0.343725,0.589892,1.097905,212.1863,-312.3888)" />
    <path
       style="fill:#c23743;fill-rule:evenodd;stroke:#000000;stroke-opacity:1;stroke-width:0.375;stroke-linejoin:miter;stroke-linecap:butt;fill-opacity:1;stroke-dasharray:none;"
       d="M 353.456 433.49 C 392.945 461.327 392.297 528.651 353.456 551.957 C 317.204 527.357 312.025 460.679 353.456 433.49 z "
       id="path555"
       sodipodi:nodetypes="ccc"
       transform="translate(0.000000,-0.647385)" />
    <path
       sodipodi:type="arc"
       style="fill-rule:evenodd;stroke:none;fill:#fffffb;fill-opacity:1;stroke-opacity:1;stroke-width:1pt;stroke-linejoin:miter;stroke-linecap:butt;"
       id="path557"
       d="M 359.929443 494.665771 A 4.855179 7.444595 0 1 0 350.219116,494.665771 A 4.85518 7.44459 0 1 0 359.929 494.666 L 355.074280 494.665771 z"
       sodipodi:cx="355.074280"
       sodipodi:cy="494.665771"
       sodipodi:rx="4.855179"
       sodipodi:ry="7.444595"
       transform="translate(-1.294708,-3.884155)" />
    <path
       style="fill:#ffffff;fill-rule:evenodd;stroke:#000000;stroke-opacity:1;stroke-width:0.375;stroke-linejoin:miter;stroke-linecap:butt;fill-opacity:1;stroke-dasharray:none;"
       d="M 353.456 433.49 C 392.945 461.327 392.297 528.651 353.456 551.957 C 317.204 527.357 312.025 460.679 353.456 433.49 z "
       id="path558"
       sodipodi:nodetypes="ccc"
       transform="matrix(0.281180,0.000000,0.000000,0.385913,253.8235,268.1427)" />
    <path
       style="fill:#ffffff;fill-rule:evenodd;stroke:#000000;stroke-opacity:1;stroke-width:0.375;stroke-linejoin:miter;stroke-linecap:butt;fill-opacity:1;stroke-dasharray:none;"
       d="M 353.456 433.49 C 392.945 461.327 392.297 528.651 353.456 551.957 C 317.204 527.357 312.025 460.679 353.456 433.49 z "
       id="path559"
       sodipodi:nodetypes="ccc"
       transform="matrix(0.281180,0.000000,0.000000,0.385913,253.8235,335.4677)" />
    <rect
       style="font-size:12;fill:#c23743;fill-rule:evenodd;stroke-width:1pt;fill-opacity:1;"
       id="rect560"
       width="4.531494"
       height="46.609586"
       x="350.866455"
       y="435.432655" />
    <rect
       style="font-size:12;fill:#c23743;fill-rule:evenodd;stroke-width:1pt;fill-opacity:1;"
       id="rect561"
       width="4.531494"
       height="46.609585"
       x="351.513809"
       y="502.110138" />
    <path
       style="fill:#000000;fill-rule:evenodd;stroke:#000000;stroke-opacity:1;stroke-width:0.375;stroke-linejoin:miter;stroke-linecap:butt;fill-opacity:1;stroke-dasharray:none;"
       d="M 353.456 433.49 C 392.945 461.327 392.297 528.651 353.456 551.957 C 317.204 527.357 312.025 460.679 353.456 433.49 z "
       id="path562"
       sodipodi:nodetypes="ccc"
       transform="matrix(0.170593,0.000000,0.000000,0.450577,268.9709,269.2424)" />
    <path
       style="fill:#000000;fill-rule:evenodd;stroke:#000000;stroke-opacity:1;stroke-width:0.375;stroke-linejoin:miter;stroke-linecap:butt;fill-opacity:1;stroke-dasharray:none;"
       d="M 353.456 433.49 C 392.945 461.327 392.297 528.651 353.456 551.957 C 317.204 527.357 312.025 460.679 353.456 433.49 z "
       id="path563"
       sodipodi:nodetypes="ccc"
       transform="matrix(0.170593,0.000000,0.000000,0.450577,318.1699,269.8897)" />
  </g>
</svg>
