<?xml version="1.0" encoding="UTF-8" standalone="no"?>
<!DOCTYPE svg PUBLIC "-//W3C//DTD SVG 20010904//EN"
"http://www.w3.org/TR/2001/REC-SVG-20010904/DTD/svg10.dtd">
<!-- Created with Sodipodi ("http://www.sodipodi.com/") -->
<svg
   id="svg570"
   sodipodi:version="0.32"
   width="227mm"
   height="140mm"
   sodipodi:docbase="/home/cschalle/sodipodi-flags/nations/"
   sodipodi:docname="/home/cschalle/sodipodi-flags/nations/kiribati.svg"
   xmlns="http://www.w3.org/2000/svg"
   xmlns:sodipodi="http://sodipodi.sourceforge.net/DTD/sodipodi-0.dtd"
   xmlns:xlink="http://www.w3.org/1999/xlink">
  <defs
     id="defs572">
    <linearGradient
       id="linearGradient580">
      <stop
         style="stop-color:#000;stop-opacity:1;"
         offset="0"
         id="stop581" />
      <stop
         style="stop-color:#fff;stop-opacity:1;"
         offset="1"
         id="stop582" />
    </linearGradient>
    <linearGradient
       xlink:href="#linearGradient580"
       id="linearGradient583" />
    <linearGradient
       xlink:href="#linearGradient580"
       id="linearGradient584" />
    <linearGradient
       xlink:href="#linearGradient580"
       id="linearGradient585" />
  </defs>
  <sodipodi:namedview
     id="base" />
  <rect
     style="font-size:12;fill:#e73e2d;fill-rule:evenodd;stroke-width:1pt;fill-opacity:1;"
     id="rect574"
     width="802.624301"
     height="294.325348"
     x="4.023230"
     y="5.753274" />
  <path
     style="fill:#fec74a;fill-rule:evenodd;stroke:#d8aa3f;stroke-opacity:1;stroke-width:1.25;stroke-linejoin:miter;stroke-linecap:butt;fill-opacity:1;stroke-dasharray:none;"
     d="M 330.311 587.19 C 315.721 575.799 288.547 579.652 284.071 548.69 C 304.878 564.807 301.101 547.769 332.177 563.125 L 330.311 587.19 z "
     id="path605"
     sodipodi:nodetypes="cccc"
     transform="matrix(1.279234,0.000000,0.000000,1.279234,-64.56436,-474.4866)" />
  <path
     style="fill:#fec74a;fill-rule:evenodd;stroke:#d8aa3f;stroke-opacity:1;stroke-width:1.25;stroke-linejoin:miter;stroke-linecap:butt;fill-opacity:1;stroke-dasharray:none;"
     d="M 330.311 587.19 C 315.721 575.799 288.547 579.652 284.071 548.69 C 304.878 564.807 301.101 547.769 332.177 563.125 L 330.311 587.19 z "
     id="path564"
     sodipodi:nodetypes="cccc"
     transform="matrix(1.217721,0.391909,-0.391909,1.217721,190.8429,-585.8279)" />
  <path
     style="fill:#fec74a;fill-rule:evenodd;stroke:#d8aa3f;stroke-opacity:1;stroke-width:1.25;stroke-linejoin:miter;stroke-linecap:butt;fill-opacity:1;stroke-dasharray:none;"
     d="M 330.311 587.19 C 315.721 575.799 288.547 579.652 284.071 548.69 C 304.878 564.807 301.101 547.769 332.177 563.125 L 330.311 587.19 z "
     id="path565"
     sodipodi:nodetypes="cccc"
     transform="matrix(0.975372,0.827700,-0.827700,0.975372,532.8320,-600.2823)" />
  <path
     style="fill:#fec74a;fill-rule:evenodd;stroke:#d8aa3f;stroke-opacity:1;stroke-width:1.25;stroke-linejoin:miter;stroke-linecap:butt;fill-opacity:1;stroke-dasharray:none;"
     d="M 330.311 587.19 C 315.721 575.799 288.547 579.652 284.071 548.69 C 304.878 564.807 301.101 547.769 332.177 563.125 L 330.311 587.19 z "
     id="path566"
     sodipodi:nodetypes="cccc"
     transform="matrix(0.674185,1.087158,-1.087158,0.674185,798.6409,-521.0389)" />
  <path
     style="fill:#fec74a;fill-rule:evenodd;stroke:#d8aa3f;stroke-opacity:1;stroke-width:1.25;stroke-linejoin:miter;stroke-linecap:butt;fill-opacity:1;stroke-dasharray:none;"
     d="M 330.311 587.19 C 315.721 575.799 288.547 579.652 284.071 548.69 C 304.878 564.807 301.101 547.769 332.177 563.125 L 330.311 587.19 z "
     id="path567"
     sodipodi:nodetypes="cccc"
     transform="matrix(0.169977,1.267891,-1.267891,0.169977,1083.742,-294.2182)" />
  <path
     style="fill:#fec74a;fill-rule:evenodd;stroke:#d8aa3f;stroke-opacity:1;stroke-width:1.25;stroke-linejoin:miter;stroke-linecap:butt;fill-opacity:1;stroke-dasharray:none;"
     d="M 330.311 587.19 C 315.721 575.799 288.547 579.652 284.071 548.69 C 304.878 564.807 301.101 547.769 332.177 563.125 L 330.311 587.19 z "
     id="path568"
     sodipodi:nodetypes="cccc"
     transform="matrix(-0.240634,1.256397,-1.256397,-0.240634,1230.678,-46.80246)" />
  <path
     style="fill:#fec74a;fill-rule:evenodd;stroke:#d8aa3f;stroke-opacity:1;stroke-width:1.25;stroke-linejoin:miter;stroke-linecap:butt;fill-opacity:1;stroke-dasharray:none;"
     d="M 330.311 587.19 C 315.721 575.799 288.547 579.652 284.071 548.69 C 304.878 564.807 301.101 547.769 332.177 563.125 L 330.311 587.19 z "
     id="path569"
     sodipodi:nodetypes="cccc"
     transform="matrix(-0.598776,1.130443,-1.130443,-0.598776,1290.863,214.2985)" />
  <path
     style="fill:#fec74a;fill-rule:evenodd;stroke:#d8aa3f;stroke-opacity:1;stroke-width:1.25;stroke-linejoin:miter;stroke-linecap:butt;fill-opacity:1;stroke-dasharray:none;"
     d="M 330.311 587.19 C 315.721 575.799 288.547 579.652 284.071 548.69 C 304.878 564.807 301.101 547.769 332.177 563.125 L 330.311 587.19 z "
     id="path570"
     sodipodi:nodetypes="cccc"
     transform="matrix(-0.892769,0.916187,-0.916187,-0.892769,1275.538,472.1673)" />
  <path
     style="fill:#fec74a;fill-rule:evenodd;stroke:#d8aa3f;stroke-opacity:1;stroke-width:1.25;stroke-linejoin:miter;stroke-linecap:butt;fill-opacity:1;stroke-dasharray:none;"
     d="M 368.352 490.638 L 353.006 573.372 L 375.916 574.536 L 368.352 490.638 L 368.352 490.638 z "
     id="path598"
     sodipodi:nodetypes="ccccc"
     transform="matrix(0.260854,1.252355,-1.252355,0.260854,1044.551,-334.2381)" />
  <path
     style="fill:#fec74a;fill-rule:evenodd;stroke:#d8aa3f;stroke-opacity:1;stroke-width:1.25;stroke-linejoin:miter;stroke-linecap:butt;fill-opacity:1;stroke-dasharray:none;"
     d="M 368.533 489.851 L 353.498 571.987 L 381.683 573.886 L 368.533 489.851 z "
     id="path597"
     sodipodi:nodetypes="cccc"
     transform="matrix(0.665960,1.092216,-1.092216,0.665960,799.9702,-513.2404)" />
  <path
     style="fill:#fec74a;fill-rule:evenodd;stroke:#d8aa3f;stroke-opacity:1;stroke-width:1.25;stroke-linejoin:miter;stroke-linecap:butt;fill-opacity:1;stroke-dasharray:none;"
     d="M 380.103 573.403 L 368.352 490.638 L 353.492 573.836 L 380.103 573.403 L 380.103 573.403 z "
     id="path596"
     sodipodi:nodetypes="ccccc"
     transform="matrix(1.022641,0.768533,-0.768533,1.022641,483.2019,-603.2219)" />
  <path
     style="fill:#fec74a;fill-rule:evenodd;stroke:#d8aa3f;stroke-opacity:1;stroke-width:1.25388;stroke-linejoin:miter;stroke-linecap:butt;fill-opacity:1;stroke-dasharray:none;"
     d="M 381.865 573.24 L 368.352 490.638 L 352.947 573.173 L 381.865 573.24 L 381.865 573.24 z "
     id="path595"
     sodipodi:nodetypes="ccccc"
     transform="matrix(1.214457,0.401911,-0.399430,1.206961,195.3655,-577.7878)" />
  <path
     style="fill:#fec74a;fill-rule:evenodd;stroke:#d8aa3f;stroke-opacity:1;stroke-width:1.25;stroke-linejoin:miter;stroke-linecap:butt;fill-opacity:1;stroke-dasharray:none;"
     d="M 381.891 573.402 L 368.352 490.638 L 353.346 573.764 L 381.891 573.402 L 381.891 573.402 z "
     id="path594"
     sodipodi:nodetypes="ccccc"
     transform="matrix(1.279234,0.000000,0.000000,1.279234,-64.56436,-474.4866)" />
  <path
     style="fill:#fec74a;fill-rule:evenodd;stroke:#d8aa3f;stroke-opacity:1;stroke-width:1.25263;stroke-linejoin:miter;stroke-linecap:butt;fill-opacity:1;stroke-dasharray:none;"
     d="M 378.511 569.671 L 368.352 490.638 L 350.434 574.19 L 378.511 569.671 L 378.511 569.671 z "
     id="path604"
     sodipodi:nodetypes="ccccc"
     transform="matrix(1.179097,-0.488596,0.483832,1.181565,-306.9275,-238.2126)" />
  <path
     style="fill:#fec74a;fill-rule:evenodd;stroke:#d8aa3f;stroke-opacity:1;stroke-width:1.25;stroke-linejoin:miter;stroke-linecap:butt;fill-opacity:1;stroke-dasharray:none;"
     d="M 378.511 569.671 L 368.352 490.638 L 350.567 574.127 L 378.511 569.671 z "
     id="path603"
     sodipodi:nodetypes="cccc"
     transform="matrix(0.943170,-0.864217,0.864217,0.943170,-442.1146,39.10769)" />
  <path
     style="fill:#fec74a;fill-rule:evenodd;stroke:#d8aa3f;stroke-opacity:1;stroke-width:1.25;stroke-linejoin:miter;stroke-linecap:butt;fill-opacity:1;stroke-dasharray:none;"
     d="M 368.352 490.638 L 348.742 573.102 L 378.511 569.671 L 368.352 490.638 z "
     id="path601"
     sodipodi:nodetypes="cccc"
     transform="matrix(0.564174,-1.148106,1.148106,0.564174,-469.1809,362.0610)" />
  <path
     style="fill:#fec74a;fill-rule:evenodd;stroke:#d8aa3f;stroke-opacity:1;stroke-width:1.25;stroke-linejoin:miter;stroke-linecap:butt;fill-opacity:1;stroke-dasharray:none;"
     d="M 373.865 567.25 L 368.352 490.638 L 349.476 569.027 L 373.865 567.25 z "
     id="path600"
     sodipodi:nodetypes="cccc"
     transform="matrix(0.109738,-1.274519,1.274519,0.109738,-379.3258,670.5052)" />
  <path
     sodipodi:type="arc"
     style="fill-rule:evenodd;stroke:#d8aa3f;fill:#fec74a;fill-opacity:1;stroke-opacity:1;stroke-width:1.18698;stroke-linejoin:miter;stroke-linecap:butt;stroke-dasharray:none;"
     id="path575"
     d="M 429.770142 602.071533 A 43.751373 43.751373 0 1 0 342.267395,602.071533 A 43.7514 43.7514 0 1 0 429.77 602.072 L 386.018768 602.071533 z"
     sodipodi:cx="386.018768"
     sodipodi:cy="602.071533"
     sodipodi:rx="43.751373"
     sodipodi:ry="43.751373"
     transform="matrix(1.347157,0.000000,0.000000,1.347157,-114.5583,-537.1744)" />
  <rect
     style="font-size:12;fill:#005989;fill-rule:evenodd;stroke-width:1pt;fill-opacity:1;"
     id="rect586"
     width="806.575256"
     height="200.325869"
     x="3.215062"
     y="297.111284" />
  <path
     style="fill:#ffffff;fill-rule:evenodd;stroke:none;stroke-opacity:1;stroke-width:1.25;stroke-linejoin:miter;stroke-linecap:butt;fill-opacity:1;stroke-dasharray:none;"
     d="M 53.6009 716.232 C 65.2741 721.658 81.9966 735.239 99.8843 735.227 C 129.813 735.032 130.61 714.639 160.927 715.609 C 191.323 716.386 185.825 737.855 226.869 737.748 C 260.78 737.659 271.735 711.725 300.966 714.832 C 322.614 713.713 331.474 739.39 364.748 739.716 C 399.259 740.457 411.931 711.73 433.58 714.108 C 456.643 714.108 464.198 737.245 496.554 737.412 C 537.765 737.621 545.01 713.331 570.792 714.885 C 589.142 714.496 603.612 732.687 630.503 733.14 C 651.96 733.507 669.923 717.215 682.058 711.389 L 682.658 683.743 C 669.94 688.493 650.977 704.067 632.014 704.238 C 604.726 705.241 587.845 686.262 568.882 686.433 C 546.162 686.638 537.108 709.918 498.566 709.918 C 463.355 709.918 455.276 686.433 432.555 686.433 C 410.347 686.604 403.543 711.976 365.096 711.506 C 333.733 711.127 321.513 687.287 299.304 687.458 C 275.76 687.458 251.414 710.64 225.344 709.521 C 189.362 707.994 181.588 687.458 158.044 687.458 C 140.448 687.458 121.458 706.702 100.26 707.023 C 79.1779 707.349 55.4942 687.874 53.3006 687.458 L 53.6009 716.232 z "
     id="path573"
     sodipodi:nodetypes="cccscscscsccccscscscscc"
     transform="matrix(1.284810,0.000000,0.000000,1.279234,-66.11154,-474.4866)" />
  <path
     style="fill:#ffffff;fill-rule:evenodd;stroke:none;stroke-opacity:1;stroke-width:1.25;stroke-linejoin:miter;stroke-linecap:butt;fill-opacity:1;stroke-dasharray:none;"
     d="M 53.6009 716.232 C 65.2741 721.658 81.9966 735.239 99.8843 735.227 C 129.813 735.032 130.61 714.639 160.927 715.609 C 191.323 716.386 185.825 737.855 226.869 737.748 C 260.78 737.659 271.735 711.725 300.966 714.832 C 322.614 713.713 331.474 739.39 364.748 739.716 C 399.259 740.457 411.931 711.73 433.58 714.108 C 456.643 714.108 464.198 737.245 496.554 737.412 C 537.765 737.621 545.01 713.331 570.792 714.885 C 589.142 714.496 603.612 732.687 630.503 733.14 C 651.96 733.507 669.923 717.215 682.058 711.389 L 682.658 683.743 C 669.94 688.493 650.977 704.067 632.014 704.238 C 604.726 705.241 587.845 686.262 568.882 686.433 C 546.162 686.638 537.108 709.918 498.566 709.918 C 463.355 709.918 455.276 686.433 432.555 686.433 C 410.347 686.604 403.543 711.976 365.096 711.506 C 333.733 711.127 321.513 687.287 299.304 687.458 C 275.76 687.458 251.414 710.64 225.344 709.521 C 189.362 707.994 181.588 687.458 158.044 687.458 C 140.448 687.458 121.458 706.702 100.26 707.023 C 79.1779 707.349 55.4942 687.874 53.3006 687.458 L 53.6009 716.232 z "
     id="path578"
     sodipodi:nodetypes="cccscscscsccccscscscscc"
     transform="matrix(1.284810,0.000000,0.000000,1.279234,-66.11153,-544.5251)" />
  <path
     style="fill:#ffffff;fill-rule:evenodd;stroke:none;stroke-opacity:1;stroke-width:1.25;stroke-linejoin:miter;stroke-linecap:butt;fill-opacity:1;stroke-dasharray:none;"
     d="M 53.6009 716.232 C 65.2741 721.658 81.9966 735.239 99.8843 735.227 C 129.813 735.032 130.61 714.639 160.927 715.609 C 191.323 716.386 185.825 737.855 226.869 737.748 C 260.78 737.659 271.735 711.725 300.966 714.832 C 322.614 713.713 331.474 739.39 364.748 739.716 C 399.259 740.457 411.931 711.73 433.58 714.108 C 456.643 714.108 464.198 737.245 496.554 737.412 C 537.765 737.621 545.01 713.331 570.792 714.885 C 589.142 714.496 603.612 732.687 630.503 733.14 C 651.96 733.507 669.923 717.215 682.058 711.389 L 682.658 683.743 C 669.94 688.493 650.977 704.067 632.014 704.238 C 604.726 705.241 587.845 686.262 568.882 686.433 C 546.162 686.638 537.108 709.918 498.566 709.918 C 463.355 709.918 455.276 686.433 432.555 686.433 C 410.347 686.604 403.543 711.976 365.096 711.506 C 333.733 711.127 321.513 687.287 299.304 687.458 C 275.76 687.458 251.414 710.64 225.344 709.521 C 189.362 707.994 181.588 687.458 158.044 687.458 C 140.448 687.458 121.458 706.702 100.26 707.023 C 79.1779 707.349 55.4942 687.874 53.3006 687.458 L 53.6009 716.232 z "
     id="path579"
     sodipodi:nodetypes="cccscscscsccccscscscscc"
     transform="matrix(1.283612,0.000000,0.000000,1.279234,-66.04775,-613.8108)" />
  <path
     style="fill:#ffc84b;fill-rule:evenodd;stroke:#d8aa3f;stroke-opacity:1;stroke-width:1pt;stroke-linejoin:miter;stroke-linecap:butt;fill-opacity:1;"
     d="M 279.646 432.432 C 325.475 429.294 317.122 425.38 335.568 422.436 C 358.813 425.632 361.471 439.705 374.423 448.339 C 374.423 448.339 369.555 464.799 353.624 462.469 C 351.482 455.866 361.336 453.825 332.982 436.54 C 316.498 435.559 287.002 439.433 279.646 432.432 z "
     id="path587"
     sodipodi:nodetypes="cccccc"
     transform="matrix(1.279234,0.000000,0.000000,1.279234,-64.56436,-474.4866)" />
  <path
     style="fill:#ffc84b;fill-rule:evenodd;stroke:#d8aa3f;stroke-opacity:1;stroke-width:1pt;stroke-linejoin:miter;stroke-linecap:butt;fill-opacity:1;"
     d="M 385.689 468.002 L 418.704 466.643 L 418.704 458.486 C 396.435 457.774 392.421 460.752 385.689 468.002 z "
     id="path591"
     transform="matrix(-1.279234,1.566557e-16,-1.566557e-16,-1.279234,968.3016,709.9626)"
     sodipodi:nodetypes="cccc" />
  <path
     style="fill:#ffc84b;fill-rule:evenodd;stroke:#d8aa3f;stroke-opacity:1;stroke-width:1.25;stroke-linejoin:round;stroke-linecap:butt;fill-opacity:1;stroke-dasharray:none;"
     d="M 308.195 456.538 C 313.949 453.595 316.811 454.796 321.796 454.602 C 325.227 460.816 328.464 461.399 335.973 462.176 C 347.431 478.295 363.55 478.489 365.88 478.489 C 388.343 477.906 395.464 462.176 410.547 460.428 L 426.472 460.428 C 423.818 455.897 421.746 453.307 415.985 453.048 C 404.138 452.401 388.797 452.725 375.397 455.767 L 356.559 460.428 C 351.056 457.774 337.592 443.662 328.982 443.921 C 323.933 445.28 323.933 447.028 321.408 448.97 C 316.553 451.042 311.697 450.049 308.195 456.538 z "
     id="path590"
     sodipodi:nodetypes="cccccccccccc"
     transform="matrix(1.279234,0.000000,0.000000,1.279234,-64.56436,-474.4866)" />
  <path
     sodipodi:type="arc"
     style="fill-rule:evenodd;stroke:#d8aa3f;fill:#ffc84b;fill-opacity:1;stroke-opacity:1;stroke-width:1.63027;stroke-linejoin:miter;stroke-linecap:butt;stroke-dasharray:none;"
     id="path589"
     d="M 330.535278 451.106415 A 3.107254 3.107269 0 1 0 324.320801,451.106415 A 3.10725 3.10727 0 1 0 330.535 451.106 L 327.428040 451.106415 z"
     sodipodi:cx="327.428040"
     sodipodi:cy="451.106415"
     sodipodi:rx="3.107254"
     sodipodi:ry="3.107269"
     transform="matrix(0.980842,0.000000,0.000000,0.980842,34.52800,-341.7349)" />
  <path
     style="fill:#ffc84b;fill-rule:evenodd;stroke:#d8aa3f;stroke-opacity:1;stroke-width:1pt;stroke-linejoin:miter;stroke-linecap:butt;fill-opacity:1;"
     d="M 346.266 456.35 C 379.993 415.697 409.447 420.681 447.835 417.898 C 449.13 422.624 448.677 429.68 430.357 435.959 C 405.305 439.649 360.443 466.06 360.249 466.06 C 351.897 465.672 346.071 456.933 346.266 456.35 z "
     id="path588"
     sodipodi:nodetypes="ccccc"
     transform="matrix(1.279234,0.000000,0.000000,1.279234,-64.56436,-474.4866)" />
  <path
     style="fill:none;fill-rule:evenodd;stroke:#d9a43e;stroke-opacity:1;stroke-width:1pt;stroke-linejoin:miter;stroke-linecap:round;fill-opacity:1;"
     d="M 415.562 429.865 L 440.436 430.943 "
     id="path592"
     sodipodi:nodetypes="cc"
     transform="matrix(1.279234,0.000000,0.000000,1.279234,-64.56436,-474.4866)" />
  <path
     style="fill:none;fill-rule:evenodd;stroke:#d9a43e;stroke-opacity:1;stroke-width:1pt;stroke-linejoin:miter;stroke-linecap:round;fill-opacity:1;"
     d="M 412.857 433.923 L 430.988 435.402 "
     id="path593"
     sodipodi:nodetypes="cc"
     transform="matrix(1.279234,0.000000,0.000000,1.279234,-64.56436,-474.4866)" />
</svg>
