<?xml version="1.0" encoding="UTF-8" standalone="no"?>
<!DOCTYPE svg PUBLIC "-//W3C//DTD SVG 1.0//EN"
"http://www.w3.org/TR/2001/REC-SVG-20010904/DTD/svg10.dtd">
<!-- Created with Sodipodi ("http://www.sodipodi.com/") -->
<svg
   id="svg583"
   sodipodi:version="0.33pre"
   xmlns="http://www.w3.org/2000/svg"
   xmlns:sodipodi="http://sodipodi.sourceforge.net/DTD/sodipodi-0.dtd"
   xmlns:xlink="http://www.w3.org/1999/xlink"
   width="210mm"
   height="140mm"
   sodipodi:docbase="/home/tobias/Desktop/Flags"
   sodipodi:docname="/home/tobias/Desktop/Flags/Lebanon.svg">
  <defs
     id="defs585" />
  <sodipodi:namedview
     id="base" />
  <g
     id="g709"
     transform="translate(0.000000,-1.525879e-5)">
    <rect
       style="font-size:12;fill:#ff0000;fill-rule:evenodd;stroke-width:1pt;fill-opacity:1;"
       id="rect704"
       width="744.094482"
       height="124.015747"
       x="0.000000"
       y="372.047226" />
    <rect
       style="font-size:12;fill:#ff0000;fill-rule:evenodd;stroke-width:1pt;fill-opacity:1;"
       id="rect707"
       width="744.094482"
       height="124.015747"
       x="0.000000"
       y="0.000000" />
    <rect
       style="font-size:12;fill:#ffffff;fill-rule:evenodd;stroke-width:1pt;fill-opacity:1;"
       id="rect708"
       width="744.094482"
       height="248.031466"
       x="0.000000"
       y="124.015779" />
  </g>
  <path
     id="selection_to_path"
     fill="none"
     stroke="black"
     stroke-width="1"
     d="M 368.264 125.904 C 360.697 141.012 355.651 141.012 343.04 151.085 C 337.996 156.121 330.429 158.639 340.518 163.676 C 330.429 168.711 325.384 171.23 320.339 181.302 C 320.339 181.302 322.861 183.82 322.861 183.82 C 322.861 183.82 332.448 179.121 332.951 181.302 C 334.628 183.315 320.332 191.04 318.487 192.214 C 316.642 193.388 307.727 198.929 307.727 198.929 C 295.116 209.001 287.548 206.482 279.981 221.591 C 279.981 221.591 305.205 219.074 305.205 219.074 C 310.25 236.7 292.593 239.218 279.981 246.772 C 279.981 246.772 259.802 259.363 259.802 259.363 C 264.848 276.989 279.981 266.917 292.593 261.88 C 292.593 261.88 295.116 264.399 295.116 264.399 C 295.116 264.399 295.116 269.435 295.116 269.435 C 295.116 269.435 269.892 282.026 269.892 282.026 C 269.892 282.026 240.116 299.063 239.624 299.652 C 239.421 300.564 239.624 304.688 239.624 304.688 C 249.713 307.206 264.848 309.725 274.937 304.688 C 287.548 299.652 290.07 294.616 305.205 294.616 C 287.548 307.206 274.937 312.243 254.758 314.76 C 254.758 314.76 254.758 324.833 254.758 324.833 C 269.892 324.833 279.981 324.833 292.593 322.315 C 292.593 322.315 325.384 312.243 325.384 312.243 C 332.951 312.243 340.518 319.797 337.996 327.351 C 330.429 355.049 300.16 350.014 290.07 372.676 C 290.07 372.676 330.429 357.568 330.429 357.568 C 340.518 352.532 350.607 347.496 363.219 350.014 C 378.353 355.049 378.353 365.123 398.532 370.158 C 398.532 370.158 393.488 357.568 393.488 357.568 C 398.532 360.086 403.577 360.086 408.621 362.604 C 421.234 367.641 423.756 372.676 438.889 370.158 C 426.278 355.049 423.756 357.568 413.666 347.496 C 403.577 332.387 398.532 309.725 413.666 307.206 C 413.666 307.206 431.323 312.243 431.323 312.243 C 448.979 314.76 448.979 309.725 474.202 319.797 C 489.337 324.833 494.382 332.387 512.038 327.351 C 504.471 309.725 476.725 297.134 459.069 292.098 C 479.247 279.507 474.202 297.134 501.948 289.579 C 501.948 289.579 501.948 284.544 501.948 284.544 C 481.77 269.435 474.202 256.845 446.456 256.845 C 446.456 256.845 489.337 251.808 489.337 251.808 C 489.337 251.808 489.337 246.772 489.337 246.772 C 489.337 246.772 447.047 235.677 446.063 235.283 C 446.358 234.005 447.392 232.022 450.2 230.926 C 458.231 236.125 482.519 235.519 483.898 235.421 C 483.188 229.225 471.68 224.109 461.591 219.074 C 461.591 219.074 418.39 192.446 418.175 190.089 C 419.032 183.34 435.919 191.161 454.024 196.41 C 448.979 186.338 438.889 181.302 428.8 178.784 C 428.8 178.784 443.934 176.266 443.934 176.266 C 433.845 153.603 408.621 156.121 393.488 146.049 C 383.397 138.495 383.397 133.458 368.264 125.904 z "
     style="font-size:12;fill:#007900;stroke-width:1.2375;stroke-linecap:round;stroke-linejoin:round;stroke:none;"
     sodipodi:nodetypes="ccccccccccccccccssccccccccccccccccccccccccccccccccccc" />
  <path
     style="font-size:12;fill:#ffffff;fill-rule:evenodd;stroke:#ffffff;stroke-width:3.11878;stroke-linecap:round;stroke-linejoin:round;"
     d="M 341.009 293.634 C 342.881 287.633 345.346 282.323 334.114 277.208 C 322.881 272.094 339.728 297.665 341.009 293.634 z "
     id="path593"
     sodipodi:nodetypes="ccc" />
  <path
     style="font-size:12;fill:#ffffff;fill-rule:evenodd;stroke:#ffffff;stroke-width:3.11878;stroke-linecap:round;stroke-linejoin:round;"
     d="M 354.312 281.632 C 352.048 281.927 350.862 290.192 355.394 292.453 C 360.421 293.238 356.283 281.731 354.312 281.632 z "
     id="path594"
     sodipodi:nodetypes="ccc" />
  <path
     style="font-size:12;fill:#ffffff;fill-rule:evenodd;stroke:#ffffff;stroke-width:3.11878;stroke-linecap:round;stroke-linejoin:round;"
     d="M 367.416 280.746 C 365.05 281.436 364.952 293.042 373.23 290.977 C 381.506 288.913 373.129 279.764 367.416 280.746 z "
     id="path595"
     sodipodi:nodetypes="ccc" />
  <path
     style="font-size:12;fill:#ffffff;fill-rule:evenodd;stroke:#ffffff;stroke-width:3.11878;stroke-linecap:round;stroke-linejoin:round;"
     d="M 382.689 250.944 C 384.462 248.091 382.591 236.387 375.495 241.304 C 368.402 246.223 380.422 251.731 382.689 250.944 z "
     id="path597"
     sodipodi:nodetypes="ccc" />
  <path
     style="font-size:12;fill:#ffffff;fill-rule:evenodd;stroke:#ffffff;stroke-width:3.11878;stroke-linecap:round;stroke-linejoin:round;"
     d="M 367.217 241.206 C 369.386 240.419 369.583 233.239 363.376 235.108 C 357.171 236.977 365.545 242.682 367.217 241.206 z "
     id="path598"
     sodipodi:nodetypes="ccc" />
  <path
     style="font-size:12;fill:#ffffff;fill-rule:evenodd;stroke:#ffffff;stroke-width:3.11878;stroke-linecap:round;stroke-linejoin:round;"
     d="M 353.228 244.059 C 353.228 244.059 348.892 238.059 345.542 239.337 C 341.305 243.37 353.523 244.157 353.228 244.059 z "
     id="path599"
     sodipodi:nodetypes="ccc" />
  <path
     style="font-size:12;fill:#ffffff;fill-rule:evenodd;stroke:#ffffff;stroke-width:3.11878;stroke-linecap:round;stroke-linejoin:round;"
     d="M 305.185 263.233 C 307.031 263.401 320.713 260.977 325.442 255.666 C 330.171 250.354 301.097 257.939 301.097 258.037 C 301.097 258.135 303.844 262.73 305.185 263.233 z "
     id="path600"
     sodipodi:nodetypes="cccc" />
  <path
     style="font-size:12;fill:#ffffff;fill-rule:evenodd;stroke:#ffffff;stroke-width:3.11878;stroke-linecap:round;stroke-linejoin:round;"
     d="M 441.906 229.361 C 442.611 228.106 434.623 222.412 429.876 224.656 C 428.654 228.86 441.866 230.225 441.906 229.361 z "
     id="path601"
     sodipodi:nodetypes="ccc" />
  <path
     style="font-size:12;fill:#ffffff;fill-rule:evenodd;stroke:#ffffff;stroke-width:3.11878;stroke-linecap:round;stroke-linejoin:round;"
     d="M 415.005 215.828 C 416.484 213.664 411.558 204.812 401.705 209.73 C 391.852 214.648 412.049 219.271 415.005 215.828 z "
     id="path602"
     sodipodi:nodetypes="ccc" />
  <path
     style="font-size:12;fill:#ffffff;fill-rule:evenodd;stroke:#ffffff;stroke-width:3.11878;stroke-linecap:round;stroke-linejoin:round;"
     d="M 383.872 210.615 C 383.872 210.615 386.334 202.648 392.247 204.221 C 398.948 209.337 384.167 210.911 383.872 210.615 z "
     id="path603"
     sodipodi:nodetypes="ccc" />
  <path
     style="font-size:12;fill:#ffffff;fill-rule:evenodd;stroke:#ffffff;stroke-width:3.11878;stroke-linecap:round;stroke-linejoin:round;"
     d="M 378.058 204.615 C 377.17 202.353 370.963 203.73 363.87 208.353 C 356.774 212.976 380.225 209.731 378.058 204.615 z "
     id="path604"
     sodipodi:nodetypes="ccc" />
  <path
     style="font-size:12;fill:#ffffff;fill-rule:evenodd;stroke:#ffffff;stroke-width:3.11878;stroke-linecap:round;stroke-linejoin:round;"
     d="M 396.186 183.172 C 396.186 183.172 402.506 180.343 404.364 183.172 C 407.025 187.402 396.088 183.271 396.186 183.172 z "
     id="path605"
     sodipodi:nodetypes="ccc" />
  <path
     style="font-size:12;fill:#ffffff;fill-rule:evenodd;stroke:#ffffff;stroke-width:3.11878;stroke-linecap:round;stroke-linejoin:round;"
     d="M 390.883 180.407 C 389.602 177.849 382.609 177.607 382.788 181.303 C 381.616 184.199 391.876 183.66 390.883 180.407 z "
     id="path606"
     sodipodi:nodetypes="ccc" />
  <path
     style="font-size:12;fill:#ffffff;fill-rule:evenodd;stroke:#ffffff;stroke-width:3.11878;stroke-linecap:round;stroke-linejoin:round;"
     d="M 374.214 180.418 C 373.525 178.942 363.576 180.446 360.619 186.418 C 365.365 188.726 376.384 184.156 374.214 180.418 z "
     id="path607"
     sodipodi:nodetypes="ccc" />
  <path
     style="font-size:12;fill:#ffffff;fill-rule:evenodd;stroke:#ffffff;stroke-width:3.11878;stroke-linecap:round;stroke-linejoin:round;"
     d="M 352.933 186.517 C 352.933 186.517 339.844 194.519 339.04 200.386 C 339.437 205.452 355.296 191.238 355.296 191.238 C 355.296 191.238 356.676 185.631 352.933 186.517 z "
     id="path608"
     sodipodi:nodetypes="cccc" />
  <path
     style="font-size:12;fill:#ffffff;fill-rule:evenodd;stroke:#ffffff;stroke-width:3.11878;stroke-linecap:round;stroke-linejoin:round;"
     d="M 338.449 179.238 C 338.815 177.61 344.916 173.839 345.444 174.123 C 345.938 175.764 340.461 180.206 338.449 179.238 z "
     id="path609"
     sodipodi:nodetypes="ccc" />
  <path
     style="font-size:12;fill:#ffffff;fill-rule:evenodd;stroke:#ffffff;stroke-width:3.11878;stroke-linecap:round;stroke-linejoin:round;"
     d="M 342.586 209.829 C 342.881 207.468 327.018 207.664 333.029 214.943 C 338.034 221.048 343.671 210.911 342.586 209.829 z "
     id="path610"
     sodipodi:nodetypes="ccc" />
  <path
     style="font-size:12;fill:#ffffff;fill-rule:evenodd;stroke:#ffffff;stroke-width:3.11878;stroke-linecap:round;stroke-linejoin:round;"
     d="M 328.143 220.277 C 327.316 218.681 326.126 214.427 323.954 214.035 C 322.184 213.936 312.645 215.903 311.916 217.518 C 311.522 218.797 315.864 226.659 317.343 226.856 C 319.018 227.544 327.848 221.064 328.143 220.277 z "
     id="path611"
     sodipodi:nodetypes="ccccc" />
  <path
     style="font-size:12;fill:#ffffff;fill-rule:evenodd;stroke:#ffffff;stroke-width:3.11878;stroke-linecap:round;stroke-linejoin:round;"
     d="M 413.724 273.665 C 414.216 271.994 430.426 266.392 436.023 271.75 C 442.623 280.8 413.331 276.519 413.724 273.665 z "
     id="path612"
     sodipodi:nodetypes="ccc" />
  <path
     style="font-size:12;fill:#ffffff;fill-rule:evenodd;stroke:#ffffff;stroke-width:3.11878;stroke-linecap:round;stroke-linejoin:round;"
     d="M 458.279 284.262 C 461.831 278.251 447.372 271.125 441.235 277.993 C 443.333 286.245 455.408 289.232 458.279 284.262 z "
     id="path613"
     sodipodi:nodetypes="ccc" />
</svg>
