<?xml version="1.0" encoding="UTF-8" standalone="no"?>
<!DOCTYPE svg PUBLIC "-//W3C//DTD SVG 20010904//EN"
"http://www.w3.org/TR/2001/REC-SVG-20010904/DTD/svg10.dtd">
<!-- Created with Sodipodi ("http://www.sodipodi.com/") -->
<svg
   version="1"
   x="0"
   y="0"
   width="299.999mm"
   height="210mm"
   id="svg378"
   sodipodi:version="0.32-hydra1"
   sodipodi:docname="/home/yemu/clipart/flags/lesotho.svg"
   sodipodi:docbase="/home/yemu/clipart/flags/"
   xmlns="http://www.w3.org/2000/svg"
   xmlns:sodipodi="http://sodipodi.sourceforge.net/DTD/sodipodi-0.dtd"
   xmlns:xlink="http://www.w3.org/1999/xlink">
  <sodipodi:namedview
     id="base">
    <sodipodi:guide
       orientation="vertical"
       position="284.309814"
       id="guide626" />
    <sodipodi:guide
       orientation="vertical"
       position="521.178223"
       id="guide627" />
    <sodipodi:guide
       orientation="horizontal"
       position="401.079895"
       id="guide573" />
  </sodipodi:namedview>
  <defs
     id="defs380" />
  <rect
     style="font-size:12;fill:#ffffff;fill-rule:evenodd;stroke-width:1pt;"
     id="rect628"
     width="1061.716431"
     height="743.683255"
     x="-5.262917"
     y="0.411514"
     transform="translate(5.260696,-0.411514)" />
  <path
     style="font-size:12;fill:#3662a2;fill-rule:evenodd;stroke-width:1.03875pt;"
     d="M 1057.73 742.84 L 1058.62 1.85814 L 1.19989 744.506 L 1057.73 742.84 z "
     id="path624"
     sodipodi:nodetypes="cccc"
     transform="translate(5.260696,-0.411514)" />
  <path
     style="font-size:12;fill:#826006;fill-rule:evenodd;stroke-width:0.995191pt;"
     d="M 176.877 81.6031 C 179.086 82.3279 188.245 107.033 188.634 127.116 C 191.548 137.786 194.516 138.551 193.633 152.525 C 192.273 160.034 189.226 158.823 189.809 165.34 C 189.476 169.265 197.138 171.348 202.235 173.149 C 205.568 173.843 206.139 174.902 209.827 174.142 C 214.692 172.392 224.564 151.952 224.564 151.952 C 214.709 121.382 238.187 110.328 252.037 119.139 C 265.887 127.951 270.108 156.628 237.274 159.552 C 231.937 166.55 230.051 168.128 225.29 176.35 C 223.733 179.994 223.198 182.135 225.211 182.976 C 259.461 200.636 281.502 240.529 286.082 270.241 C 287.73 276.782 286.905 281.921 284.433 286.499 C 279.305 295.096 270.331 295.002 264.104 293.787 C 260.533 292.105 250.073 278.665 249.799 270.85 C 248.563 262.161 246.874 253.726 236.022 242.094 C 228.605 235.974 217.626 237.387 213.504 242.9 C 207.643 250.936 208.929 258.551 211.447 265.605 C 222.803 285.975 228.303 301.901 239.659 322.271 C 242.635 330.773 240.254 338.715 238.285 340.351 C 235.629 343.014 232.717 345.115 228.824 344.134 C 226.992 343.294 221.561 339.51 219.863 341.612 C 218.069 344.415 221.043 347.078 221.592 348.76 C 229.101 361.093 237.314 380.144 242.861 393.268 C 248.63 403.5 241.594 409.996 235.549 402.147 C 224.011 379.723 217.221 365.134 205.682 342.709 C 202.295 335.205 197.336 327.107 193.008 322.973 C 190.039 319.999 179.441 318.018 176.865 318.613 C 174.774 318.731 174.623 320.238 174.668 322.537 C 174.118 351.129 174.541 379.919 173.991 408.51 C 174.252 413.528 169.796 416.47 167.92 416.137 C 164.439 304.76 164.824 189.897 176.877 81.6031 z "
     id="path749"
     sodipodi:nodetypes="cccccccscccccccccccccccccccccccc"
     transform="translate(5.260696,-0.411514)" />
  <path
     style="font-size:12;fill:#826006;fill-rule:evenodd;stroke-width:1pt;"
     d="M 176.846 81.4417 C 174.615 82.1666 175.389 82.8913 174.139 84.8054 C 171.982 87.0026 172.312 89.9925 171.919 93.7754 C 171.919 93.7754 163.436 100.429 163.043 106.54 C 160.101 117.209 165.817 140.868 165.817 140.868 C 167.19 148.377 166.406 155.093 165.817 161.61 C 165.262 165.535 163.598 168.338 159.992 170.58 C 154.629 174.224 148.712 173.664 143.072 173.384 C 143.072 173.384 138.634 172.262 138.079 171.702 C 137.524 171.141 125.319 142.549 125.319 142.549 C 134.011 141.428 141.592 141.429 150.284 140.307 C 133.086 129.094 115.611 117.602 98.4131 106.389 C 97.1186 126.759 96.9337 148.809 95.6393 169.178 C 100.447 163.199 106.365 154.977 111.172 148.997 C 115.981 157.219 118.847 166.282 123.655 174.504 C 125.227 178.148 124.579 182.073 122.546 182.914 C 87.9652 200.573 66.6991 237.295 62.076 267.007 C 60.4117 273.547 61.2438 278.687 63.7403 283.265 C 68.918 291.861 77.9792 291.767 84.2665 290.553 C 87.8725 288.871 92.3107 282.285 92.7267 275.977 C 93.975 267.288 95.5 250.188 106.457 238.556 C 113.946 232.436 126.429 235.005 130.59 240.518 C 136.508 248.553 135.629 256.729 133.086 263.783 C 121.62 284.153 110.71 303.821 99.2447 324.19 C 96.2398 332.693 98.6439 340.635 100.632 342.27 C 103.314 344.934 108.075 346.474 112.005 345.494 C 113.854 344.653 116.258 344.092 117.552 345.494 C 118.524 347.457 116.443 348.858 115.888 350.54 C 108.306 362.873 100.724 375.207 93.1428 387.54 C 87.3177 397.772 97.0257 405.481 103.129 397.632 C 114.779 375.207 124.663 356.944 136.314 334.52 C 140.13 327.016 142.769 323.08 150.704 320.136 C 153.108 319.342 157.67 318.55 160.27 319.144 C 162.382 319.263 162.534 320.769 162.489 323.069 C 163.044 351.66 162.617 380.45 163.172 409.042 C 162.908 414.06 166.568 416.302 168.463 415.968 C 171.977 304.591 173.332 192.818 176.846 81.4417 z "
     id="path751"
     sodipodi:nodetypes="ccccccccccccccccccccccccccccccccccccc"
     transform="translate(5.260696,-0.411514)" />
  <path
     style="font-size:12;fill:#38a100;fill-rule:evenodd;stroke-width:1.03875pt;"
     d="M 1057.73 744.139 L 1057.21 245.782 L 349.544 744.506 L 1057.73 744.139 z "
     id="path575"
     sodipodi:nodetypes="cccc"
     transform="translate(5.260696,-0.411514)" />
</svg>
