<?xml version="1.0" encoding="UTF-8" standalone="no"?>
<!DOCTYPE svg PUBLIC "-//W3C//DTD SVG 20010904//EN"
"http://www.w3.org/TR/2001/REC-SVG-20010904/DTD/svg10.dtd"
[
 <!ATTLIST svg
  xmlns:xlink CDATA #FIXED "http://www.w3.org/1999/xlink">
]>
<!-- Created with Sodipodi ("http://www.sodipodi.com/") -->
<svg
   id="svg548"
   sodipodi:version="0.32"
   xmlns="http://www.w3.org/2000/svg"
   xmlns:sodipodi="http://sodipodi.sourceforge.net/DTD/sodipodi-0.dtd"
   xmlns:xlink="http://www.w3.org/1999/xlink"
   width="210mm"
   height="140mm"
   sodipodi:docbase="/home/scarlet"
   sodipodi:docname="/home/scarlet/malta.svg">
  <defs
     id="defs550" />
  <sodipodi:namedview
     id="base"
     snaptogrid="false"
     showgrid="true"
     gridspacingx="1mm"
     gridspacingy="1mm" />
  <g
     id="g712">
    <g
       id="g709">
      <rect
         style="font-size:12;fill:#ce0000;fill-rule:evenodd;stroke-width:1pt;fill-opacity:1;"
         id="rect706"
         width="372.047241"
         height="496.062958"
         x="372.047241"
         y="0.000033" />
      <rect
         style="font-size:12;fill:#ffffff;fill-rule:evenodd;stroke-width:1pt;fill-opacity:1;"
         id="rect708"
         width="372.047241"
         height="496.062958"
         x="0.000000"
         y="0.000018" />
    </g>
    <g
       id="g647"
       transform="matrix(0.339152,0.000000,0.000000,0.339135,17.49836,-59.81645)">
      <path
         sodipodi:type="arc"
         style="fill-rule:evenodd;stroke:none;fill:#f1eeee;fill-opacity:1;stroke-opacity:1;stroke-width:1pt;stroke-linejoin:miter;stroke-linecap:butt;"
         id="path606"
         d="M 209.055115 63.779495 A 17.716530 14.173203 0 1 0 173.622070,63.779495 A 17.7165 14.1732 0 1 0 209.055 63.7795 L 191.338593 63.779495 z"
         sodipodi:cx="191.338593"
         sodipodi:cy="63.779495"
         sodipodi:rx="17.716530"
         sodipodi:ry="14.173203"
         transform="matrix(0.330324,0.000000,0.000000,0.295558,114.0451,362.8132)" />
      <path
         style="font-size:12;fill:#cc0000;fill-rule:evenodd;stroke-width:1pt;fill-opacity:1;"
         d="M 171.259 485.433 L 171.259 503.15 L 188.976 503.15 C 188.976 506.102 191.929 509.055 194.882 509.055 L 194.882 526.771 L 212.598 526.771 L 212.598 509.055 C 215.551 509.055 218.504 506.102 218.504 503.15 L 236.221 503.15 L 236.221 485.433 L 218.504 485.433 C 218.504 482.481 215.551 479.528 212.598 479.528 L 212.598 461.812 L 194.882 461.812 L 194.882 479.528 C 191.929 479.528 188.976 482.481 188.976 485.433 L 171.259 485.433 z "
         id="path552"
         sodipodi:nodetypes="ccccccccccccccccc"
         transform="matrix(5.999956,0.000000,0.000000,6.000074,-1027.549,-2551.219)" />
      <path
         style="font-size:12;fill:#ffe600;fill-rule:evenodd;stroke-width:1pt;fill-opacity:1;"
         d="M 171.85 486.024 L 171.85 502.559 L 189.567 502.559 C 189.567 505.511 192.519 508.465 195.472 508.465 L 195.472 526.181 L 212.008 526.181 L 212.008 508.465 C 214.961 508.465 217.913 505.511 217.913 502.559 L 235.63 502.559 L 235.63 486.024 L 217.913 486.024 C 217.913 483.072 214.961 480.118 212.008 480.118 L 212.008 462.402 L 195.472 462.402 L 195.472 480.118 C 192.519 480.118 189.567 483.072 189.567 486.024 L 171.85 486.024 z "
         id="path553"
         sodipodi:nodetypes="ccccccccccccccccc"
         transform="matrix(5.999956,0.000000,0.000000,6.000074,-1027.549,-2551.219)" />
      <path
         style="font-size:12;fill:#707070;fill-rule:evenodd;stroke-width:1pt;fill-opacity:1;"
         d="M 172.441 486.614 L 172.441 501.969 L 190.157 501.969 C 190.157 504.921 193.11 507.874 196.063 507.874 L 196.063 525.59 L 211.417 525.59 L 211.417 507.874 C 214.37 507.874 217.323 504.921 217.323 501.969 L 235.039 501.969 L 235.039 486.614 L 217.323 486.614 C 217.323 483.662 214.37 480.709 211.417 480.709 L 211.417 462.993 L 196.063 462.993 L 196.063 480.709 C 193.11 480.709 190.157 483.662 190.157 486.614 L 172.441 486.614 z "
         id="path554"
         sodipodi:nodetypes="ccccccccccccccccc"
         transform="matrix(5.999956,0.000000,0.000000,6.000074,-1027.552,-2551.221)" />
      <path
         style="font-size:12;fill:#a0a0a0;fill-rule:evenodd;stroke-width:1pt;fill-opacity:1;"
         d="M 173.032 487.205 L 173.032 501.378 L 190.748 501.378 C 190.748 504.33 193.701 507.284 196.654 507.284 L 196.654 525 L 210.827 525 L 210.827 507.284 C 213.78 507.284 216.733 504.33 216.733 501.378 L 234.449 501.378 L 234.449 487.205 L 216.733 487.205 C 216.733 484.253 213.78 481.3 210.827 481.3 L 210.827 463.584 L 196.654 463.584 L 196.654 481.3 C 193.701 481.3 190.748 484.253 190.748 487.205 L 173.032 487.205 z "
         id="path555"
         sodipodi:nodetypes="ccccccccccccccccc"
         transform="matrix(5.999956,0.000000,0.000000,6.000074,-1027.552,-2551.221)" />
      <g
         id="g562"
         transform="matrix(0.707107,-0.707107,0.707107,0.707107,-304.0122,361.6512)">
        <path
           sodipodi:type="arc"
           style="fill-rule:evenodd;stroke:none;fill:#d0d0d0;fill-opacity:1;stroke-opacity:1;stroke-width:1pt;stroke-linejoin:miter;stroke-linecap:butt;"
           id="path556"
           d="M 333.070862 295.866150 A 24.803146 15.944901 0 1 0 283.464539,295.866150 A 24.8031 15.9449 0 1 0 333.071 295.866 L 308.267700 295.866150 z"
           sodipodi:cx="308.267700"
           sodipodi:cy="295.866150"
           sodipodi:rx="24.803146"
           sodipodi:ry="15.944901"
           transform="matrix(1.285716,0.000000,0.000000,1.000000,-80.99048,3.543213)" />
        <path
           sodipodi:type="arc"
           style="fill-rule:evenodd;stroke:none;fill:#808080;fill-opacity:1;stroke-opacity:1;stroke-width:1pt;stroke-linejoin:miter;stroke-linecap:butt;"
           id="path557"
           d="M 333.070862 295.866150 A 24.803146 15.944901 0 1 0 283.464539,295.866150 A 24.8031 15.9449 0 1 0 333.071 295.866 L 308.267700 295.866150 z"
           sodipodi:cx="308.267700"
           sodipodi:cy="295.866150"
           sodipodi:rx="24.803146"
           sodipodi:ry="15.944901"
           transform="matrix(0.857147,0.000000,0.000000,1.000000,51.12380,3.543213)" />
        <path
           style="fill:#d0d0d0;fill-rule:evenodd;stroke:none;stroke-opacity:1;stroke-width:1pt;stroke-linejoin:miter;stroke-linecap:butt;fill-opacity:1;"
           d="M 281.339 223.228 L 286.299 223.228 L 291.26 237.402 L 296.22 223.228 L 301.181 223.228 L 291.26 251.575 L 281.339 223.228 z "
           id="path560"
           sodipodi:nodetypes="ccccccc"
           transform="matrix(0.714292,0.000000,0.000000,0.749985,100.2229,123.1336)" />
        <rect
           style="font-size:12;fill:#d0d0d0;fill-rule:evenodd;stroke-width:1pt;fill-opacity:1;"
           id="rect561"
           width="3.543304"
           height="21.259827"
           x="322.440948"
           y="290.551208" />
      </g>
      <g
         id="g567"
         transform="matrix(0.707107,0.707107,-0.707107,0.707107,247.7976,-84.32719)">
        <path
           sodipodi:type="arc"
           style="fill-rule:evenodd;stroke:none;fill:#d0d0d0;fill-opacity:1;stroke-opacity:1;stroke-width:1pt;stroke-linejoin:miter;stroke-linecap:butt;"
           id="path568"
           d="M 333.070862 295.866150 A 24.803146 15.944901 0 1 0 283.464539,295.866150 A 24.8031 15.9449 0 1 0 333.071 295.866 L 308.267700 295.866150 z"
           sodipodi:cx="308.267700"
           sodipodi:cy="295.866150"
           sodipodi:rx="24.803146"
           sodipodi:ry="15.944901"
           transform="matrix(1.285716,0.000000,0.000000,1.000000,-80.99048,3.543213)" />
        <path
           sodipodi:type="arc"
           style="fill-rule:evenodd;stroke:none;fill:#808080;fill-opacity:1;stroke-opacity:1;stroke-width:1pt;stroke-linejoin:miter;stroke-linecap:butt;"
           id="path569"
           d="M 333.070862 295.866150 A 24.803146 15.944901 0 1 0 283.464539,295.866150 A 24.8031 15.9449 0 1 0 333.071 295.866 L 308.267700 295.866150 z"
           sodipodi:cx="308.267700"
           sodipodi:cy="295.866150"
           sodipodi:rx="24.803146"
           sodipodi:ry="15.944901"
           transform="matrix(0.857147,0.000000,0.000000,1.000000,51.12380,3.543213)" />
        <path
           style="fill:#d0d0d0;fill-rule:evenodd;stroke:none;stroke-opacity:1;stroke-width:1pt;stroke-linejoin:miter;stroke-linecap:butt;fill-opacity:1;"
           d="M 281.339 223.228 L 286.299 223.228 L 291.26 237.402 L 296.22 223.228 L 301.181 223.228 L 291.26 251.575 L 281.339 223.228 z "
           id="path570"
           sodipodi:nodetypes="ccccccc"
           transform="matrix(0.714292,0.000000,0.000000,0.749985,100.2229,123.1336)" />
        <rect
           style="font-size:12;fill:#d0d0d0;fill-rule:evenodd;stroke-width:1pt;fill-opacity:1;"
           id="rect571"
           width="3.543304"
           height="21.259827"
           x="322.440948"
           y="290.551208" />
      </g>
      <g
         id="g572"
         transform="matrix(-0.707107,0.707107,-0.707107,-0.707107,693.7760,467.4827)">
        <path
           sodipodi:type="arc"
           style="fill-rule:evenodd;stroke:none;fill:#d0d0d0;fill-opacity:1;stroke-opacity:1;stroke-width:1pt;stroke-linejoin:miter;stroke-linecap:butt;"
           id="path573"
           d="M 333.070862 295.866150 A 24.803146 15.944901 0 1 0 283.464539,295.866150 A 24.8031 15.9449 0 1 0 333.071 295.866 L 308.267700 295.866150 z"
           sodipodi:cx="308.267700"
           sodipodi:cy="295.866150"
           sodipodi:rx="24.803146"
           sodipodi:ry="15.944901"
           transform="matrix(1.285716,0.000000,0.000000,1.000000,-80.99048,3.543213)" />
        <path
           sodipodi:type="arc"
           style="fill-rule:evenodd;stroke:none;fill:#808080;fill-opacity:1;stroke-opacity:1;stroke-width:1pt;stroke-linejoin:miter;stroke-linecap:butt;"
           id="path574"
           d="M 333.070862 295.866150 A 24.803146 15.944901 0 1 0 283.464539,295.866150 A 24.8031 15.9449 0 1 0 333.071 295.866 L 308.267700 295.866150 z"
           sodipodi:cx="308.267700"
           sodipodi:cy="295.866150"
           sodipodi:rx="24.803146"
           sodipodi:ry="15.944901"
           transform="matrix(0.857147,0.000000,0.000000,1.000000,51.12380,3.543213)" />
        <path
           style="fill:#d0d0d0;fill-rule:evenodd;stroke:none;stroke-opacity:1;stroke-width:1pt;stroke-linejoin:miter;stroke-linecap:butt;fill-opacity:1;"
           d="M 281.339 223.228 L 286.299 223.228 L 291.26 237.402 L 296.22 223.228 L 301.181 223.228 L 291.26 251.575 L 281.339 223.228 z "
           id="path575"
           sodipodi:nodetypes="ccccccc"
           transform="matrix(0.714292,0.000000,0.000000,0.749985,100.2229,123.1336)" />
        <rect
           style="font-size:12;fill:#d0d0d0;fill-rule:evenodd;stroke-width:1pt;fill-opacity:1;"
           id="rect576"
           width="3.543304"
           height="21.259827"
           x="322.440948"
           y="290.551208" />
      </g>
      <g
         id="g577"
         transform="matrix(-0.707107,-0.707107,0.707107,-0.707107,141.9662,913.4611)">
        <path
           sodipodi:type="arc"
           style="fill-rule:evenodd;stroke:none;fill:#d0d0d0;fill-opacity:1;stroke-opacity:1;stroke-width:1pt;stroke-linejoin:miter;stroke-linecap:butt;"
           id="path578"
           d="M 333.070862 295.866150 A 24.803146 15.944901 0 1 0 283.464539,295.866150 A 24.8031 15.9449 0 1 0 333.071 295.866 L 308.267700 295.866150 z"
           sodipodi:cx="308.267700"
           sodipodi:cy="295.866150"
           sodipodi:rx="24.803146"
           sodipodi:ry="15.944901"
           transform="matrix(1.285716,0.000000,0.000000,1.000000,-80.99048,3.543213)" />
        <path
           sodipodi:type="arc"
           style="fill-rule:evenodd;stroke:none;fill:#808080;fill-opacity:1;stroke-opacity:1;stroke-width:1pt;stroke-linejoin:miter;stroke-linecap:butt;"
           id="path579"
           d="M 333.070862 295.866150 A 24.803146 15.944901 0 1 0 283.464539,295.866150 A 24.8031 15.9449 0 1 0 333.071 295.866 L 308.267700 295.866150 z"
           sodipodi:cx="308.267700"
           sodipodi:cy="295.866150"
           sodipodi:rx="24.803146"
           sodipodi:ry="15.944901"
           transform="matrix(0.857147,0.000000,0.000000,1.000000,51.12380,3.543213)" />
        <path
           style="fill:#d0d0d0;fill-rule:evenodd;stroke:none;stroke-opacity:1;stroke-width:1pt;stroke-linejoin:miter;stroke-linecap:butt;fill-opacity:1;"
           d="M 281.339 223.228 L 286.299 223.228 L 291.26 237.402 L 296.22 223.228 L 301.181 223.228 L 291.26 251.575 L 281.339 223.228 z "
           id="path580"
           sodipodi:nodetypes="ccccccc"
           transform="matrix(0.714292,0.000000,0.000000,0.749985,100.2229,123.1336)" />
        <rect
           style="font-size:12;fill:#d0d0d0;fill-rule:evenodd;stroke-width:1pt;fill-opacity:1;"
           id="rect581"
           width="3.543304"
           height="21.259827"
           x="322.440948"
           y="290.551208" />
      </g>
      <path
         sodipodi:type="arc"
         style="fill-rule:evenodd;stroke:#707070;fill:none;fill-opacity:1;stroke-opacity:1;stroke-width:1pt;stroke-linejoin:miter;stroke-linecap:butt;"
         id="path582"
         d="M 269.291351 414.566895 A 76.181107 74.409470 0 1 0 116.929138,414.566895 A 76.1811 74.4095 0 1 0 269.291 414.567 L 193.110245 414.566895 z"
         sodipodi:cx="193.110245"
         sodipodi:cy="414.566895"
         sodipodi:rx="76.181107"
         sodipodi:ry="74.409470"
         transform="matrix(0.976744,0.000000,0.000000,1.000000,6.262578,1.983643e-4)" />
      <path
         sodipodi:type="arc"
         style="fill-rule:evenodd;stroke:#707070;fill:none;fill-opacity:1;stroke-opacity:1;stroke-width:1pt;stroke-linejoin:miter;stroke-linecap:butt;"
         id="path583"
         d="M 269.291351 414.566895 A 76.181107 74.409470 0 1 0 116.929138,414.566895 A 76.1811 74.4095 0 1 0 269.291 414.567 L 193.110245 414.566895 z"
         sodipodi:cx="193.110245"
         sodipodi:cy="414.566895"
         sodipodi:rx="76.181107"
         sodipodi:ry="74.409470"
         transform="matrix(0.744186,0.000000,0.000000,0.761903,51.17200,98.70709)" />
      <path
         sodipodi:type="arc"
         style="fill-rule:evenodd;stroke:none;fill:#d0d0d0;fill-opacity:1;stroke-opacity:1;stroke-width:1pt;stroke-linejoin:miter;stroke-linecap:butt;"
         id="path584"
         d="M 170.078735 474.803131 A 3.543304 3.543304 0 1 0 162.992126,474.803131 A 3.5433 3.5433 0 1 0 170.079 474.803 L 166.535431 474.803131 z"
         sodipodi:cx="166.535431"
         sodipodi:cy="474.803131"
         sodipodi:rx="3.543304"
         sodipodi:ry="3.543304"
         transform="translate(0.000000,-3.051758e-5)" />
      <path
         sodipodi:type="arc"
         style="fill-rule:evenodd;stroke:none;fill:#d0d0d0;fill-opacity:1;stroke-opacity:1;stroke-width:1pt;stroke-linejoin:miter;stroke-linecap:butt;"
         id="path585"
         d="M 170.078735 474.803131 A 3.543304 3.543304 0 1 0 162.992126,474.803131 A 3.5433 3.5433 0 1 0 170.079 474.803 L 166.535431 474.803131 z"
         sodipodi:cx="166.535431"
         sodipodi:cy="474.803131"
         sodipodi:rx="3.543304"
         sodipodi:ry="3.543304"
         transform="translate(56.69291,-3.051758e-5)" />
      <path
         style="fill:#d0d0d0;fill-rule:evenodd;stroke:none;stroke-opacity:1;stroke-width:1pt;stroke-linejoin:miter;stroke-linecap:butt;fill-opacity:1;"
         d="M 318.898 315.354 L 318.898 322.441 L 311.811 322.441 C 304.724 322.441 304.724 329.528 311.811 329.528 L 318.898 329.528 L 318.898 336.614 C 318.922 343.961 325.083 344.846 325.534 337.187 L 325.984 329.528 L 333.071 329.528 C 340.157 329.528 340.157 322.441 333.071 322.441 L 325.984 322.441 L 325.984 315.354 C 325.984 308.268 318.898 308.268 318.898 315.354 z "
         id="path586"
         sodipodi:nodetypes="ccccccccccccc"
         transform="matrix(0.666667,0.000000,0.000000,0.521331,-20.07875,310.3991)" />
      <path
         style="fill:#d0d0d0;fill-rule:evenodd;stroke:#707070;stroke-opacity:1;stroke-width:1pt;stroke-linejoin:miter;stroke-linecap:butt;fill-opacity:1;"
         d="M 180.709 162.992 C 180.709 162.992 180.709 170.079 180.709 170.079 C 180.709 170.079 177.347 175.502 155.906 177.165 C 134.465 178.828 131.103 177.165 131.103 177.165 C 131.662 183.346 135.835 195.061 134.646 209.055 C 135.481 225.346 130.543 240.097 130.543 240.097 C 131.103 240.945 128.525 241.376 124.016 240.945 C 127.559 237.401 127.15 227.15 127.559 212.598 C 127.968 198.045 114.032 176.142 116.929 170.079 C 119.826 164.016 180.709 162.992 180.709 162.992 z "
         id="path590"
         sodipodi:nodetypes="cccccccccc"
         transform="matrix(0.330324,0.000000,0.000000,0.295558,117.5563,374.2830)" />
      <path
         style="fill:#d0d0d0;fill-rule:evenodd;stroke:#707070;stroke-opacity:1;stroke-width:1pt;stroke-linejoin:miter;stroke-linecap:butt;fill-opacity:1;"
         d="M 272.835 162.263 C 293.693 161.186 328.694 161.42 328.694 161.42 C 328.694 161.42 336.947 179.922 336.604 190.143 C 336.261 200.364 333.423 209.062 329.527 204.713 C 325.631 200.364 331.332 201.182 332.025 190.143 C 332.717 179.104 325.364 167.664 325.364 167.664 C 325.364 167.664 310.402 174.966 287.898 173.492 C 265.395 172.018 275.357 162.701 272.835 162.263 z "
         id="path591"
         transform="matrix(0.330324,0.000000,0.000000,0.295558,115.2155,366.8992)"
         sodipodi:nodetypes="cccccccc" />
      <path
         style="fill:#d0d0d0;fill-rule:evenodd;stroke:#707070;stroke-opacity:1;stroke-width:1pt;stroke-linejoin:miter;stroke-linecap:butt;fill-opacity:1;"
         d="M 312.213 273.912 C 333.071 272.835 346.764 276.41 346.764 276.41 C 346.764 276.41 355.017 294.912 354.674 305.133 C 354.331 315.354 351.493 324.052 347.597 319.703 C 343.701 315.354 349.402 316.172 350.095 305.133 C 350.787 294.094 343.434 282.654 343.434 282.654 C 343.434 282.654 328.472 289.956 305.968 288.482 C 283.465 287.008 289.884 285.507 287.362 285.069 C 284.84 284.631 284.231 292.027 250.186 293.061 C 216.142 294.094 198.779 285.069 198.779 285.069 C 198.779 285.069 195.417 290.492 173.976 292.155 C 152.535 293.818 149.173 292.155 149.173 292.155 C 149.732 298.336 153.905 310.051 152.716 324.045 C 153.551 340.336 148.613 355.087 148.613 355.087 C 149.173 355.935 146.595 356.366 142.086 355.935 C 145.629 352.391 145.22 342.14 145.629 327.588 C 146.038 313.035 132.102 291.132 134.999 285.069 C 137.896 279.006 153.332 284.674 156.259 281.525 C 159.185 278.376 142.51 256.192 145.629 235.462 C 148.749 214.731 166.421 220.576 188.149 221.289 C 209.876 222.001 258.014 228.292 269.645 221.289 C 281.277 214.286 276.243 188.36 287.362 171.683 C 294.448 161.053 305.078 157.51 315.708 157.51 C 322.795 157.51 333.425 185.856 333.425 192.943 C 333.425 192.943 329.881 196.486 329.881 196.486 C 329.881 196.486 326.338 196.486 326.338 196.486 C 326.338 196.486 326.338 200.029 326.338 200.029 C 318.25 200.936 317.122 192.297 312.165 185.856 C 310.035 195.84 319.251 228.376 319.251 249.636 C 319.251 267.352 312.629 275.161 312.213 273.912 z "
         id="path588"
         transform="matrix(0.330324,0.000000,0.000000,0.295558,104.5648,339.2996)"
         sodipodi:nodetypes="cccccccccccccccccccccscssscccc" />
      <path
         style="fill:#d0d0d0;fill-rule:evenodd;stroke:#707070;stroke-opacity:1;stroke-width:1pt;stroke-linejoin:miter;stroke-linecap:butt;fill-opacity:1;"
         d="M 209.055 131.102 C 209.349 138.164 181.671 153.997 179.418 160.266 C 177.165 166.535 186.454 170.01 183.581 173.587 C 180.709 177.165 178.341 175.838 177.753 176.501 C 177.165 177.165 167.346 151.941 167.346 151.941 C 167.346 151.941 193.307 138.857 192.323 133.208 C 191.339 127.559 173.152 124.123 169.844 109.896 C 166.535 95.6693 168.37 68.1865 165.681 62.4397 C 162.992 56.6929 131.129 51.2099 131.102 42.5197 C 131.075 33.8293 163.852 9.97849 167.395 6.43517 C 170.938 2.89192 174.482 9.97849 170.938 13.5218 C 167.395 17.0651 141.732 38.9764 141.732 42.5197 C 141.732 46.063 162.992 49.6063 170.079 49.6063 C 177.165 49.6063 180.709 46.063 180.709 42.5197 C 180.751 39.4542 173.622 38.9764 173.622 31.8898 C 173.622 24.8032 177.165 21.2598 184.252 21.2598 C 187.795 21.2598 194.608 25.797 194.882 31.8898 C 195.156 37.9825 188.577 38.4986 187.795 42.5197 C 187.014 46.5409 194.882 49.6063 201.968 49.6063 C 209.055 49.6063 233.25 70.2146 236.793 73.7579 C 240.337 77.3013 243.88 77.3012 240.337 80.8446 C 236.794 84.3879 238.869 88.5827 235.325 85.0394 C 232.308 81.6164 231.782 77.9527 231.782 77.9527 C 231.476 74.733 205.512 60.2362 201.968 63.7795 C 198.425 67.3228 201.968 109.843 201.968 113.386 C 201.968 120.472 209.349 120.448 209.055 131.102 z "
         id="path592"
         sodipodi:nodetypes="cccccccccccccccccccccccccc"
         transform="matrix(0.330324,0.000000,0.000000,0.295558,116.1021,372.4311)" />
      <rect
         style="font-size:12;fill:#a7a7a7;fill-rule:evenodd;stroke-width:1pt;fill-opacity:1;"
         id="rect604"
         width="14.045291"
         height="14.661552"
         x="170.226303"
         y="386.899994" />
      <rect
         style="font-size:12;fill:#808080;fill-rule:evenodd;stroke-width:1pt;"
         id="rect593"
         width="87.553222"
         height="1.139442"
         x="405.606328"
         y="64.582112"
         ry="0.56972119"
         rx="1.26989625"
         transform="matrix(0.554405,0.832247,-0.882362,0.470572,0.000000,0.000000)" />
      <path
         sodipodi:type="arc"
         style="fill-rule:evenodd;stroke:#707070;fill:#d0d0d0;fill-opacity:1;stroke-opacity:1;stroke-width:1pt;stroke-linejoin:miter;stroke-linecap:butt;"
         id="path594"
         d="M 180.708649 42.519653 A 7.086609 7.086639 0 1 0 166.535431,42.519653 A 7.08661 7.08664 0 1 0 180.709 42.5197 L 173.622040 42.519653 z"
         sodipodi:cx="173.622040"
         sodipodi:cy="42.519653"
         sodipodi:rx="7.086609"
         sodipodi:ry="7.086639"
         transform="matrix(0.330324,0.000000,0.000000,0.295558,114.0451,362.8132)" />
      <path
         style="font-size:12;fill:#808080;fill-rule:evenodd;stroke-width:1pt;"
         d="M 354.331 49.6063 C 354.331 54.4962 326.366 60.2362 294.094 60.2362 C 261.822 60.2362 233.858 54.4962 233.858 49.6063 C 233.858 44.7166 261.822 56.6929 294.094 56.6929 C 326.366 56.6929 354.331 44.7166 354.331 49.6063 z "
         id="path596"
         sodipodi:nodetypes="ccccc"
         transform="matrix(0.194308,0.000000,0.000000,0.177453,145.8537,385.6362)" />
      <rect
         style="font-size:12;fill:#a7a7a7;fill-rule:evenodd;stroke-width:1pt;fill-opacity:1;"
         id="rect603"
         width="11.704406"
         height="4.189005"
         x="171.396774"
         y="401.561554" />
      <path
         sodipodi:type="arc"
         style="fill-rule:evenodd;stroke:none;fill:gray;fill-opacity:1;stroke-opacity:1;stroke-width:1pt;stroke-linejoin:miter;stroke-linecap:butt;"
         id="path597"
         d="M 279.921265 58.464554 A 1.771667 12.401581 0 1 0 276.377930,58.464554 A 1.77167 12.4016 0 1 0 279.921 58.4646 L 278.149597 58.464554 z"
         sodipodi:cx="278.149597"
         sodipodi:cy="58.464554"
         sodipodi:rx="1.771667"
         sodipodi:ry="12.401581"
         transform="matrix(0.197665,0.260137,-0.165684,0.310349,163.8133,300.2754)" />
      <path
         sodipodi:type="arc"
         style="fill-rule:evenodd;stroke:none;fill:gray;fill-opacity:1;stroke-opacity:1;stroke-width:1pt;stroke-linejoin:miter;stroke-linecap:butt;"
         id="path598"
         d="M 279.921265 58.464554 A 1.771667 12.401581 0 1 0 276.377930,58.464554 A 1.77167 12.4016 0 1 0 279.921 58.4646 L 278.149597 58.464554 z"
         sodipodi:cx="278.149597"
         sodipodi:cy="58.464554"
         sodipodi:rx="1.771667"
         sodipodi:ry="12.401581"
         transform="matrix(3.709477e-2,0.233431,-0.188680,0.165536,213.0754,321.7187)" />
      <path
         sodipodi:type="arc"
         style="fill-rule:evenodd;stroke:none;fill:gray;fill-opacity:1;stroke-opacity:1;stroke-width:1pt;stroke-linejoin:miter;stroke-linecap:butt;"
         id="path599"
         d="M 279.921265 58.464554 A 1.771667 12.401581 0 1 0 276.377930,58.464554 A 1.77167 12.4016 0 1 0 279.921 58.4646 L 278.149597 58.464554 z"
         sodipodi:cx="278.149597"
         sodipodi:cy="58.464554"
         sodipodi:rx="1.771667"
         sodipodi:ry="12.401581"
         transform="matrix(0.182174,-7.772617e-2,0.139132,0.253088,151.8007,401.0536)" />
      <path
         sodipodi:type="arc"
         style="fill-rule:evenodd;stroke:none;fill:gray;fill-opacity:1;stroke-opacity:1;stroke-width:1pt;stroke-linejoin:miter;stroke-linecap:butt;"
         id="path600"
         d="M 290.551178 136.417328 A 23.031494 1.771660 0 1 0 244.488190,136.417328 A 23.0315 1.77166 0 1 0 290.551 136.417 L 267.519684 136.417328 z"
         sodipodi:cx="267.519684"
         sodipodi:cy="136.417328"
         sodipodi:rx="23.031494"
         sodipodi:ry="1.771660"
         transform="matrix(0.355734,0.000000,0.000000,0.295558,106.6623,362.8132)" />
      <path
         sodipodi:type="arc"
         style="fill-rule:evenodd;stroke:none;fill:gray;fill-opacity:1;stroke-opacity:1;stroke-width:1pt;stroke-linejoin:miter;stroke-linecap:butt;"
         id="path601"
         d="M 209.055115 132.873993 A 17.716530 1.771660 0 1 0 173.622070,132.873993 A 17.7165 1.77166 0 1 0 209.055 132.874 L 191.338593 132.873993 z"
         sodipodi:cx="191.338593"
         sodipodi:cy="132.873993"
         sodipodi:rx="17.716530"
         sodipodi:ry="1.771660"
         transform="matrix(0.330324,0.000000,0.000000,0.295558,114.0451,362.8132)" />
      <path
         style="fill:#d0d0d0;fill-rule:evenodd;stroke:#808080;stroke-opacity:1;stroke-width:1pt;stroke-linejoin:miter;stroke-linecap:butt;fill-opacity:1;"
         d="M 375.488 171.922 C 375.488 171.922 384.426 208.055 422.528 208.555 C 460.63 209.055 473.743 197.717 458.328 178.583 C 442.913 159.449 414.244 165.401 417.949 181.913 C 421.654 198.425 407.197 203.932 403.795 192.32 C 400.394 180.709 386.75 146.33 411.288 144.031 C 435.827 141.732 487.799 129.214 500.789 153.19 C 513.78 177.165 486.114 198.897 507.033 203.976 C 527.953 209.055 530.926 198.167 566.929 194.882 C 602.933 191.596 616.671 205.984 629.005 203.976 C 641.339 201.969 639.595 166.718 629.837 157.769 C 620.079 148.819 601.337 147.183 596.534 137.371 C 591.732 127.559 578.664 135.546 579.883 124.466 C 581.102 113.386 598.413 132.091 598.616 126.432 C 598.622 126.255 601.474 122.502 602.05 121.554 C 599.872 120.726 598.629 122.066 596.994 123.502 C 598.769 121.142 598.659 120.054 599.254 118.124 C 598.944 117.397 596.793 120.858 596.429 120.135 C 596.065 119.412 598.934 114.503 597.635 116.283 C 597.185 116.796 593.763 119.612 593.725 117.672 C 593.783 116.885 595.514 114.859 594.902 113.76 C 594.409 112.846 591.809 114.824 591.474 115.05 C 592.961 111.741 592.856 111.781 591.426 109.329 C 590.177 106.877 589.266 106.934 587.226 109.703 C 588.075 105.724 588.306 104.882 586.257 103.374 C 584.572 101.853 584.497 100.418 582.401 107.536 C 583.199 99.918 581.058 99.5859 581.947 95.9736 C 582.476 92.662 585.27 91.2644 589.874 91.996 C 598.819 92.1261 603.602 109.95 606.525 109.896 C 609.449 109.842 612.721 91.0136 625.258 98.6564 C 637.795 106.299 639.343 107.858 645.656 112.394 C 651.969 116.929 641.221 123.851 644.823 132.792 C 648.425 141.732 673.052 171.596 666.054 202.727 C 659.055 233.858 641.028 238.782 639.412 252.265 C 637.795 265.748 696.479 260.216 711.429 264.754 C 726.378 269.291 735.804 287.864 736.406 290.979 C 737.008 294.094 710.18 293.893 710.18 293.893 C 710.18 293.893 696.404 282.056 663.556 280.989 C 630.709 279.921 618.201 257.88 605.905 255.118 C 593.609 252.356 567.404 259.748 552.756 258.661 C 538.107 257.574 523.268 253.718 513.78 251.575 C 504.291 249.433 457.087 287.008 457.251 295.759 C 447.411 295.138 424.242 293.05 425.197 294.094 C 426.152 295.137 429.349 277.056 447.411 273.878 C 465.472 270.699 483.056 256.305 482.473 246.853 C 481.89 237.402 485.96 204.977 487.468 191.071 C 488.976 177.165 495.738 170.455 494.129 163.18 C 492.52 155.906 471.885 148.402 452.084 148.61 C 432.283 148.819 410.314 150.667 407.125 158.601 C 403.937 166.535 406.344 189.565 410.456 186.909 C 414.567 184.252 409.462 169.197 413.786 166.094 C 418.11 162.992 429.191 160.251 439.595 159.85 C 450 159.449 468.089 174.579 467.903 179.415 C 467.717 184.252 473.724 200.349 465.405 206.474 C 457.087 212.598 440.073 215.336 423.777 213.967 C 407.48 212.598 390.991 203.293 385.062 197.316 C 379.134 191.339 375.488 173.171 375.488 171.922 z "
         id="path609"
         sodipodi:nodetypes="ccccccccccccccccccccccccccccccccccccccccccccccccccccccccc"
         transform="matrix(0.215979,0.000000,0.000000,0.129892,76.26469,416.1699)" />
      <path
         sodipodi:type="arc"
         style="fill-rule:evenodd;stroke:none;fill:#000000;fill-opacity:1;stroke-opacity:1;stroke-width:1pt;stroke-linejoin:miter;stroke-linecap:butt;"
         id="path610"
         d="M 205.511810 434.055115 A 1.771652 1.771667 0 1 0 201.968506,434.055115 A 1.77165 1.77167 0 1 0 205.512 434.055 L 203.740158 434.055115 z"
         sodipodi:cx="203.740158"
         sodipodi:cy="434.055115"
         sodipodi:rx="1.771652"
         sodipodi:ry="1.771667"
         transform="matrix(0.530061,0.000000,0.000000,0.530074,100.5367,201.4738)" />
      <path
         style="font-size:12;font-weight:normal;stroke-width:1pt;font-family:helvetica;fill:#d0d0d0;fill-opacity:1;"
         d="M 187.236 167.987 L 187.236 164.348 L 183.926 159.397 L 185.309 159.397 L 187.002 161.987 C 187.314 162.471 187.605 162.956 187.875 163.44 C 188.133 162.991 188.445 162.485 188.813 161.923 L 190.477 159.397 L 191.801 159.397 L 188.373 164.348 L 188.373 167.987 L 187.236 167.987 z "
         id="path615"
         transform="matrix(-0.426435,1.977883,-1.252471,-0.270034,543.8737,92.98566)" />
      <path
         style="font-size:12;font-weight:normal;stroke-width:1pt;font-family:helvetica;fill:#d0d0d0;fill-opacity:1;"
         d="M 171.006 167.987 L 171.006 160.411 L 168.176 160.411 L 168.176 159.397 L 174.984 159.397 L 174.984 160.411 L 172.143 160.411 L 172.143 167.987 L 171.006 167.987 z "
         id="path618"
         transform="matrix(0.846438,1.837773,-1.163748,0.535997,296.5971,-19.87170)" />
      <path
         style="font-size:12;font-weight:normal;stroke-width:1pt;font-family:helvetica;fill:#d0d0d0;fill-opacity:1;"
         d="M 160.143 167.987 L 160.143 159.397 L 161.309 159.397 L 165.82 166.141 L 165.82 159.397 L 166.91 159.397 L 166.91 167.987 L 165.744 167.987 L 161.232 161.237 L 161.232 167.987 L 160.143 167.987 z "
         id="path619"
         transform="matrix(1.366432,1.492223,-0.944932,0.865278,172.1216,-16.48227)" />
      <path
         style="font-size:12;font-weight:normal;stroke-width:1pt;font-family:helvetica;fill:#d0d0d0;fill-opacity:1;"
         d="M 145.43 167.987 L 145.43 159.397 L 146.566 159.397 L 146.566 166.973 L 150.797 166.973 L 150.797 167.987 L 145.43 167.987 z "
         id="path622"
         transform="matrix(2.008484,0.244666,-0.154932,1.271848,-69.34126,104.2809)" />
      <path
         style="font-size:12;font-weight:normal;stroke-width:1pt;font-family:helvetica;fill:#d0d0d0;fill-opacity:1;"
         d="M 138.756 167.987 L 138.756 159.397 L 139.893 159.397 L 139.893 166.973 L 144.123 166.973 L 144.123 167.987 L 138.756 167.987 z "
         id="path623"
         transform="matrix(1.990662,-0.362123,0.229309,1.260563,-135.4705,193.5688)" />
      <path
         style="font-size:12;font-weight:normal;stroke-width:1pt;font-family:helvetica;fill:#d0d0d0;fill-opacity:1;"
         d="M 125.484 164.618 L 125.484 163.61 L 129.123 163.604 L 129.123 166.792 C 128.564 167.237 127.988 167.573 127.395 167.8 C 126.801 168.022 126.191 168.134 125.566 168.134 C 124.723 168.134 123.955 167.954 123.264 167.595 C 122.576 167.231 122.057 166.708 121.705 166.024 C 121.354 165.341 121.178 164.577 121.178 163.733 C 121.178 162.897 121.352 162.118 121.699 161.395 C 122.051 160.669 122.555 160.13 123.211 159.778 C 123.867 159.427 124.623 159.251 125.479 159.251 C 126.1 159.251 126.66 159.352 127.16 159.555 C 127.664 159.755 128.059 160.034 128.344 160.393 C 128.629 160.753 128.846 161.221 128.994 161.8 L 127.969 162.081 C 127.84 161.643 127.68 161.3 127.488 161.05 C 127.297 160.8 127.023 160.6 126.668 160.452 C 126.313 160.3 125.918 160.223 125.484 160.223 C 124.965 160.223 124.516 160.304 124.137 160.464 C 123.758 160.62 123.451 160.827 123.217 161.085 C 122.986 161.343 122.807 161.626 122.678 161.934 C 122.459 162.466 122.35 163.042 122.35 163.663 C 122.35 164.429 122.48 165.069 122.742 165.585 C 123.008 166.1 123.393 166.483 123.896 166.733 C 124.4 166.983 124.936 167.108 125.502 167.108 C 125.994 167.108 126.475 167.014 126.943 166.827 C 127.412 166.636 127.768 166.432 128.01 166.218 L 128.01 164.618 L 125.484 164.618 z "
         id="path626"
         transform="matrix(1.579420,-1.264634,0.800815,1.000149,-182.9856,365.0427)" />
      <path
         style="font-size:12;font-weight:normal;stroke-width:1pt;font-family:helvetica;fill:#d0d0d0;fill-opacity:1;"
         d="M 92.8594 167.987 L 92.8594 159.397 L 98.6543 159.397 L 98.6543 160.411 L 93.9961 160.411 L 93.9961 163.071 L 98.0274 163.071 L 98.0274 164.085 L 93.9961 164.085 L 93.9961 167.987 L 92.8594 167.987 z "
         id="path631"
         transform="matrix(-1.171477,-1.649700,1.044653,-0.741824,79.96045,727.9259)" />
      <path
         style="font-size:12;font-weight:normal;stroke-width:1pt;font-family:helvetica;fill:#d0d0d0;fill-opacity:1;"
         d="M 112.108 187.63 C 112.108 194.05 112.766 199.118 114.086 202.821 C 115.414 206.506 117.076 208.348 119.073 208.348 C 121.105 208.348 122.776 206.481 124.086 202.753 C 125.405 199.019 126.064 193.728 126.064 186.867 C 126.064 182.531 125.781 178.747 125.215 175.528 C 124.657 172.278 123.836 169.772 122.75 168.004 C 121.671 166.211 120.461 165.312 119.113 165.312 C 117.202 165.312 115.552 167.036 114.169 170.473 C 112.795 173.89 112.108 179.61 112.108 187.63 z M 109.323 187.525 C 109.323 178.679 110.232 171.757 112.053 166.769 C 113.872 161.751 116.223 159.245 119.099 159.245 C 120.984 159.245 122.684 160.417 124.198 162.768 C 125.712 165.119 126.862 168.401 127.652 172.619 C 128.45 176.812 128.85 181.576 128.85 186.904 C 128.85 192.307 128.431 197.139 127.597 201.407 C 126.76 205.669 125.576 208.907 124.046 211.109 C 122.512 213.292 120.86 214.384 119.087 214.384 C 117.164 214.384 115.445 213.168 113.934 210.749 C 112.419 208.324 111.271 205.017 110.492 200.824 C 109.712 196.631 109.323 192.196 109.323 187.525 z "
         id="path634"
         transform="matrix(-0.231218,-0.819179,0.198785,-5.610839e-2,122.0685,538.1703)" />
      <path
         style="font-size:12;font-weight:normal;stroke-width:1pt;font-family:helvetica;fill:#d0d0d0;fill-opacity:1;"
         d="M 132.373 213.472 L 132.373 160.188 L 141.427 160.188 C 143.248 160.188 144.631 160.672 145.577 161.646 C 146.526 162.588 147.282 164.269 147.847 166.695 C 148.413 169.12 148.698 171.794 148.698 174.728 C 148.698 178.505 148.228 181.694 147.291 184.287 C 146.352 186.88 144.904 188.53 142.946 189.231 C 143.659 190.124 144.203 191.011 144.574 191.885 C 145.363 193.771 146.112 196.135 146.818 198.969 L 150.369 213.472 L 146.97 213.472 L 144.267 202.387 C 143.478 199.186 142.829 196.742 142.318 195.043 C 141.807 193.349 141.348 192.165 140.94 191.482 C 140.54 190.806 140.131 190.335 139.713 190.068 C 139.406 189.894 138.905 189.814 138.211 189.814 L 135.075 189.814 L 135.075 213.472 L 132.373 213.472 z M 135.075 183.704 L 140.885 183.704 C 142.119 183.704 143.084 183.381 143.78 182.724 C 144.477 182.047 145.007 180.98 145.368 179.523 C 145.732 178.046 145.912 176.446 145.912 174.728 C 145.912 172.209 145.558 170.138 144.852 168.512 C 144.156 166.887 143.053 166.075 141.539 166.075 L 135.075 166.075 L 135.075 183.704 z "
         id="path637"
         transform="matrix(1.920510e-2,-0.850969,0.206499,4.660230e-3,88.36563,527.3970)" />
      <path
         style="font-size:12;font-weight:normal;stroke-width:1pt;font-family:helvetica;fill:#d0d0d0;fill-opacity:1;"
         d="M 180.801 213.472 L 188.643 160.188 L 191.555 160.188 L 199.912 213.472 L 196.834 213.472 L 194.452 197.338 L 185.914 197.338 L 183.672 213.472 L 180.801 213.472 z M 186.693 191.594 L 193.615 191.594 L 191.486 176.837 C 190.834 172.352 190.352 168.667 190.036 165.789 C 189.777 169.201 189.41 172.594 188.935 175.962 L 186.693 191.594 z "
         id="path640"
         transform="matrix(0.730357,-0.437144,0.106079,0.177231,4.774199,406.1000)" />
      <path
         style="font-size:12;font-weight:normal;stroke-width:1pt;font-family:helvetica;fill:#d0d0d0;fill-opacity:1;"
         d="M 231.556 213.472 L 239.398 160.188 L 242.307 160.188 L 250.665 213.472 L 247.587 213.472 L 245.205 197.338 L 236.667 197.338 L 234.425 213.472 L 231.556 213.472 z M 237.449 191.594 L 244.371 191.594 L 242.239 176.837 C 241.59 172.352 241.107 168.667 240.791 165.789 C 240.529 169.201 240.163 172.594 239.69 175.962 L 237.449 191.594 z "
         id="path643"
         transform="matrix(0.687957,0.501229,-0.121630,0.166943,81.26591,203.3000)" />
      <path
         style="font-size:12;font-weight:normal;stroke-width:1pt;font-family:helvetica;fill:#d0d0d0;fill-opacity:1;"
         d="M 290.89 213.472 L 290.89 160.188 L 299.944 160.188 C 301.763 160.188 303.146 160.672 304.095 161.646 C 305.041 162.588 305.797 164.269 306.365 166.695 C 306.931 169.12 307.214 171.794 307.214 174.728 C 307.214 178.505 306.745 181.694 305.806 184.287 C 304.87 186.88 303.42 188.53 301.461 189.231 C 302.176 190.124 302.721 191.011 303.092 191.885 C 303.881 193.771 304.627 196.135 305.333 198.969 L 308.885 213.472 L 305.488 213.472 L 302.785 202.387 C 301.996 199.186 301.345 196.742 300.836 195.043 C 300.325 193.349 299.864 192.165 299.455 191.482 C 299.058 190.806 298.649 190.335 298.231 190.068 C 297.924 189.894 297.422 189.814 296.726 189.814 L 293.593 189.814 L 293.593 213.472 L 290.89 213.472 z M 293.593 183.704 L 299.4 183.704 C 300.636 183.704 301.601 183.381 302.298 182.724 C 302.994 182.047 303.522 180.98 303.886 179.523 C 304.247 178.046 304.428 176.446 304.428 174.728 C 304.428 172.209 304.076 170.138 303.37 168.512 C 302.673 166.887 301.568 166.075 300.054 166.075 L 293.593 166.075 L 293.593 183.704 z "
         id="path646"
         transform="matrix(0.198084,0.827816,-0.200881,4.806824e-2,236.0143,144.2068)" />
    </g>
  </g>
</svg>
