<?xml version="1.0" encoding="UTF-8" standalone="no"?>
<!DOCTYPE svg PUBLIC "-//W3C//DTD SVG 1.0//EN"
"http://www.w3.org/TR/2001/REC-SVG-20010904/DTD/svg10.dtd">
<!-- Created with Sodipodi ("http://www.sodipodi.com/") -->
<svg
   id="svg548"
   sodipodi:version="0.33pre"
   xmlns="http://www.w3.org/2000/svg"
   xmlns:sodipodi="http://sodipodi.sourceforge.net/DTD/sodipodi-0.dtd"
   xmlns:xlink="http://www.w3.org/1999/xlink"
   width="280mm"
   height="140mm"
   sodipodi:docbase="/home/tobias/Desktop/Flags"
   sodipodi:docname="/home/tobias/Desktop/Flags/Caribbean.svg">
  <defs
     id="defs550" />
  <sodipodi:namedview
     id="base" />
  <rect
     style="font-size:12;fill:#000066;stroke-width:1pt;"
     id="rect877"
     x="0.000000"
     y="0.000039"
     width="992.125977"
     height="496.062958" />
  <g
     id="g678"
     transform="matrix(1.198836,0.000000,0.000000,1.198836,588.0421,99.29652)">
    <g
       id="g555">
      <path
         style="fill:#ffffff;fill-rule:evenodd;stroke:none;stroke-opacity:1;stroke-width:1pt;stroke-linejoin:miter;stroke-linecap:butt;fill-opacity:1;"
         d="M 40.1476 18.9127 L 217.303 18.9127 L 217.092 144.971 C 218.566 195.646 186.981 227.091 128.865 241.269 C 87.5946 231.021 40.0071 209.824 39.937 146.409 L 40.1476 18.9127 z "
         id="path552"
         sodipodi:nodetypes="cccccc" />
      <path
         style="fill:#00a2bd;fill-rule:evenodd;stroke:#000000;stroke-opacity:1;stroke-width:1pt;stroke-linejoin:miter;stroke-linecap:butt;fill-opacity:1;"
         d="M 44.0689 22.7132 L 213.372 22.7132 L 213.171 143.508 C 214.579 192.066 184.394 222.198 128.854 235.784 C 89.4129 225.965 43.9345 205.652 43.8676 144.885 L 44.0689 22.7132 z "
         id="path553"
         sodipodi:nodetypes="cccccc" />
      <path
         style="fill:#a53d08;fill-rule:evenodd;stroke:none;stroke-opacity:1;stroke-width:1pt;stroke-linejoin:miter;stroke-linecap:butt;fill-opacity:1;"
         d="M 212.061 157.816 C 205.902 204.167 170.205 224.419 128.852 235.168 C 92.2476 225.349 52.8683 209.673 45.2348 158.049 L 212.061 157.816 z "
         id="path554"
         sodipodi:nodetypes="cccc" />
    </g>
    <g
       id="g580">
      <path
         style="fill:#ffc6b5;fill-rule:evenodd;stroke:black;stroke-opacity:1;stroke-width:1.25;stroke-linejoin:round;stroke-linecap:butt;fill-opacity:1;stroke-dasharray:none;"
         d="M 155.77 197.174 C 155.864 197.268 156.428 206.469 151.451 212.103 C 155.864 213.512 158.869 211.821 160.277 210.037 C 161.686 208.253 162.156 206 162.156 206 C 162.156 206 163.376 205.249 163.564 203.559 C 163.658 201.211 162.625 201.211 161.78 200.742 L 161.967 195.484 C 161.967 195.484 156.897 192.385 155.77 197.174 z "
         id="path578"
         sodipodi:nodetypes="cccccccc" />
      <path
         style="fill:#ff9a08;fill-rule:evenodd;stroke:black;stroke-opacity:1;stroke-width:1pt;stroke-linejoin:miter;stroke-linecap:round;fill-opacity:1;"
         d="M 155.489 210.319 L 153.986 209.098 "
         id="path579" />
    </g>
    <path
       style="fill:#ffc6b5;fill-rule:evenodd;stroke:black;stroke-opacity:1;stroke-width:1pt;stroke-linejoin:miter;stroke-linecap:butt;fill-opacity:1;"
       d="M 141.641 69.3934 C 141.641 69.3934 141.758 75.0184 141.406 75.6044 C 141.055 76.1903 137.852 77.6747 137.852 77.6747 L 140.586 83.495 C 140.586 83.495 148.281 82.4012 148.32 82.4012 C 148.359 82.4012 151.641 73.6903 151.641 73.6903 C 151.641 73.6903 149.922 70.7997 150.352 67.7919 C 147.774 59.6278 141.758 69.4325 141.641 69.3934 z "
       id="path671"
       sodipodi:nodetypes="cccccccc" />
    <path
       style="fill:#005121;fill-rule:evenodd;stroke:black;stroke-opacity:1;stroke-width:1.25;stroke-linejoin:round;stroke-linecap:butt;fill-opacity:1;stroke-dasharray:none;"
       d="M 131.452 203.089 C 131.452 203.089 135.771 207.408 140.747 206.845 C 152.015 205.625 155.301 195.578 158.775 195.484 C 162.249 195.39 164.409 201.587 167.695 200.836 C 164.878 195.672 161.874 184.217 162.343 176.142 C 162.813 168.067 162.813 134.077 162.813 134.077 C 162.813 134.077 157.179 116.519 154.55 113.608 C 157.179 110.791 158.963 105.815 158.869 100.369 C 158.775 94.9231 158.869 88.9139 158.869 88.9139 C 158.869 88.9139 160.183 87.4116 160.09 83.1864 C 159.996 78.9612 152.954 72.858 152.015 73.1397 C 151.076 73.4214 142.25 81.0268 141.499 82.8108 C 140.747 84.5948 139.715 76.3321 141.405 75.5809 C 143.095 74.8298 137.461 74.3603 133.893 78.5856 C 130.325 82.8108 131.358 203.277 131.452 203.089 z "
       id="path583"
       sodipodi:nodetypes="ccccccccccccccc" />
    <path
       style="fill:#000000;fill-rule:evenodd;stroke:none;stroke-opacity:1;stroke-width:1pt;stroke-linejoin:miter;stroke-linecap:butt;fill-opacity:1;"
       d="M 89.102 45.0969 L 122.146 45.2149 L 121.91 29.9908 L 133.948 30.1088 L 134.066 45.2149 L 166.992 45.2149 L 167.11 57.0165 L 134.066 57.1345 L 133.802 196.315 L 122.06 196.389 L 121.91 57.0164 L 89.095 57.1345 L 89.102 45.0969 z "
       id="path559"
       sodipodi:nodetypes="ccccccccccccc" />
    <path
       style="fill:#ffc6b5;fill-rule:evenodd;stroke:black;stroke-opacity:1;stroke-width:1pt;stroke-linejoin:miter;stroke-linecap:butt;fill-opacity:1;"
       d="M 122.031 81.959 C 122.031 81.959 119.773 81.5606 118.047 82.0918 C 116.321 82.623 120.703 62.5058 120.703 60.846 C 122.23 60.1156 129.865 58.7214 129.666 53.3436 C 129.135 50.0903 117.848 53.5427 118.047 57.6591 C 117.317 59.7173 109.948 80.6975 111.408 87.6024 C 113.997 89.6607 118.778 89.2622 122.031 88.7311 L 122.031 81.959 z "
       id="path560"
       sodipodi:nodetypes="cccccccc" />
    <path
       style="fill:none;fill-rule:evenodd;stroke:black;stroke-opacity:1;stroke-width:0.625;stroke-linejoin:miter;stroke-linecap:round;fill-opacity:1;stroke-dasharray:none;"
       d="M 124.222 53.2108 C 124.222 53.2108 123.558 56.9288 126.944 57.4599 "
       id="path561" />
    <path
       style="fill:none;fill-rule:evenodd;stroke:black;stroke-opacity:1;stroke-width:0.375;stroke-linejoin:miter;stroke-linecap:butt;fill-opacity:1;stroke-dasharray:none;"
       d="M 129.201 53.1444 C 129.068 53.2108 124.819 55.8665 124.819 55.8665 "
       id="path563" />
    <path
       style="fill:none;fill-rule:evenodd;stroke:black;stroke-opacity:1;stroke-width:0.375;stroke-linejoin:miter;stroke-linecap:butt;fill-opacity:1;stroke-dasharray:none;"
       d="M 128.936 54.8042 L 125.948 56.9952 "
       id="path564" />
    <path
       style="fill:none;fill-rule:evenodd;stroke:black;stroke-opacity:1;stroke-width:0.375;stroke-linejoin:miter;stroke-linecap:butt;fill-opacity:1;stroke-dasharray:none;"
       d="M 127.807 52.3477 L 124.487 54.3395 "
       id="path565" />
    <path
       style="fill:#ff9a08;fill-rule:evenodd;stroke:#000000;stroke-opacity:1;stroke-width:1pt;stroke-linejoin:miter;stroke-linecap:butt;fill-opacity:1;"
       d="M 95.4904 163.56 L 125.63 194.827 C 136.052 183.372 128.823 140.555 115.115 132.669 C 113.472 137.739 110.678 143.818 107.708 145.778 C 101.174 150.231 85.162 155.437 90.514 158.771 C 91.7346 157.081 94.927 155.485 96.4293 159.241 C 98.2133 165.156 89.7628 165.532 89.7628 165.532 C 89.7628 165.532 84.4109 164.874 83.4719 159.428 C 82.533 153.983 91.4436 149.011 92.2041 148.631 C 92.9552 148.349 104.598 145.251 106.57 134.922 C 109.011 124.781 111.546 126.284 112.016 126.096 C 127.226 127.598 137.179 154.828 137.743 173.982 C 138.306 193.136 129.95 205.812 128.447 206.657 C 126.945 207.502 92.2041 165.438 92.2041 165.438 L 95.4904 163.56 z "
       id="path566"
       sodipodi:nodetypes="cccsccccscccccc" />
    <path
       style="fill:none;fill-rule:evenodd;stroke:black;stroke-opacity:1;stroke-width:1pt;stroke-linejoin:miter;stroke-linecap:butt;fill-opacity:1;"
       d="M 117.462 134.453 L 117.649 190.883 "
       id="path567" />
    <path
       style="fill:none;fill-rule:evenodd;stroke:black;stroke-opacity:1;stroke-width:1pt;stroke-linejoin:miter;stroke-linecap:butt;fill-opacity:1;"
       d="M 114.082 135.485 C 114.082 135.579 114.269 186.752 114.269 186.752 "
       id="path568"
       sodipodi:nodetypes="cc" />
    <path
       style="fill:none;fill-rule:evenodd;stroke:black;stroke-opacity:1;stroke-width:1pt;stroke-linejoin:miter;stroke-linecap:butt;fill-opacity:1;"
       d="M 110.42 142.903 L 110.607 183.653 "
       id="path569"
       sodipodi:nodetypes="cc" />
    <path
       style="fill:none;fill-rule:evenodd;stroke:black;stroke-opacity:1;stroke-width:1pt;stroke-linejoin:miter;stroke-linecap:butt;fill-opacity:1;"
       d="M 107.415 145.813 L 107.603 179.522 "
       id="path570"
       sodipodi:nodetypes="cc" />
    <path
       style="fill:none;fill-rule:evenodd;stroke:black;stroke-opacity:1;stroke-width:1pt;stroke-linejoin:miter;stroke-linecap:butt;fill-opacity:1;"
       d="M 104.223 147.316 L 104.223 175.766 "
       id="path571" />
    <path
       style="fill:none;fill-rule:evenodd;stroke:black;stroke-opacity:1;stroke-width:1pt;stroke-linejoin:miter;stroke-linecap:butt;fill-opacity:1;"
       d="M 100.748 149.57 L 100.748 172.104 "
       id="path572" />
    <path
       style="fill:none;fill-rule:evenodd;stroke:black;stroke-opacity:1;stroke-width:1pt;stroke-linejoin:miter;stroke-linecap:butt;fill-opacity:1;"
       d="M 97.7439 151.354 L 97.7439 168.63 "
       id="path573" />
    <path
       style="fill:none;fill-rule:evenodd;stroke:#ffdf00;stroke-opacity:1;stroke-width:1.25;stroke-linejoin:miter;stroke-linecap:round;fill-opacity:1;stroke-dasharray:none;"
       d="M 95.0209 167.128 L 126.1 202.714 "
       id="path574" />
    <path
       style="fill:none;fill-rule:evenodd;stroke:#ffdf00;stroke-opacity:1;stroke-width:1.25;stroke-linejoin:miter;stroke-linecap:round;fill-opacity:1;stroke-dasharray:none;"
       d="M 127.602 144.687 C 127.602 144.687 141.687 175.485 128.635 200.836 "
       id="path575"
       sodipodi:nodetypes="cc" />
    <path
       style="fill:none;fill-rule:evenodd;stroke:#ffdf00;stroke-opacity:1;stroke-width:1.25;stroke-linejoin:miter;stroke-linecap:round;fill-opacity:1;stroke-dasharray:none;"
       d="M 91.359 160.649 C 91.359 160.649 92.3919 157.926 93.7064 159.053 "
       id="path576" />
    <path
       style="fill:none;fill-rule:evenodd;stroke:#ffdf00;stroke-opacity:1;stroke-width:1.25;stroke-linejoin:miter;stroke-linecap:round;fill-opacity:1;stroke-dasharray:none;"
       d="M 88.9178 152.762 C 88.9178 152.762 83.2841 157.738 86.3827 160.931 "
       id="path577"
       sodipodi:nodetypes="cc" />
    <path
       style="fill:none;fill-rule:evenodd;stroke:black;stroke-opacity:1;stroke-width:1pt;stroke-linejoin:miter;stroke-linecap:butt;fill-opacity:1;"
       d="M 141.029 82.9986 C 141.029 82.9986 141.499 87.3177 140.56 90.604 C 139.621 93.8903 144.128 102.998 142.437 104.876 "
       id="path584" />
    <path
       style="fill:none;fill-rule:evenodd;stroke:black;stroke-opacity:1;stroke-width:1pt;stroke-linejoin:miter;stroke-linecap:butt;fill-opacity:1;"
       d="M 142.907 113.702 L 154.738 113.608 "
       id="path585" />
    <path
       style="fill:none;fill-rule:evenodd;stroke:black;stroke-opacity:1;stroke-width:1pt;stroke-linejoin:miter;stroke-linecap:round;fill-opacity:1;"
       d="M 138.588 118.491 C 138.682 118.678 139.996 124.688 139.62 128.819 "
       id="path586"
       sodipodi:nodetypes="cc" />
    <path
       style="fill:none;fill-rule:evenodd;stroke:black;stroke-opacity:1;stroke-width:1pt;stroke-linejoin:miter;stroke-linecap:round;fill-opacity:1;"
       d="M 142.437 120.65 C 142.062 121.871 137.179 135.767 137.367 136.33 "
       id="path587" />
    <path
       style="fill:none;fill-rule:evenodd;stroke:black;stroke-opacity:1;stroke-width:1pt;stroke-linejoin:miter;stroke-linecap:round;fill-opacity:1;"
       d="M 145.348 114.359 C 145.442 114.641 144.973 123.185 143.658 124.406 "
       id="path588" />
    <path
       style="fill:none;fill-rule:evenodd;stroke:black;stroke-opacity:1;stroke-width:1pt;stroke-linejoin:miter;stroke-linecap:round;fill-opacity:1;"
       d="M 151.357 113.702 C 151.357 113.702 159.057 131.542 158.963 138.584 C 158.869 145.626 161.592 159.898 159.808 166.189 "
       id="path589" />
    <path
       style="fill:none;fill-rule:evenodd;stroke:black;stroke-opacity:1;stroke-width:1pt;stroke-linejoin:miter;stroke-linecap:round;fill-opacity:1;"
       d="M 153.799 138.396 C 153.799 138.396 153.235 151.635 147.696 156.799 C 142.156 161.964 160.935 176.705 160.935 176.705 "
       id="path590" />
    <path
       style="fill:none;fill-rule:evenodd;stroke:black;stroke-opacity:1;stroke-width:1.25;stroke-linejoin:miter;stroke-linecap:round;fill-opacity:1;stroke-dasharray:none;"
       d="M 153.611 175.86 C 153.611 175.86 155.677 194.075 159.151 195.39 "
       id="path591" />
    <path
       style="fill:none;fill-rule:evenodd;stroke:black;stroke-opacity:1;stroke-width:1.25;stroke-linejoin:miter;stroke-linecap:round;fill-opacity:1;stroke-dasharray:none;"
       d="M 136.616 145.344 C 136.71 145.532 134.738 157.644 136.334 159.616 C 137.931 161.588 151.17 180.085 150.606 199.24 "
       id="path593" />
    <path
       style="fill:none;fill-rule:evenodd;stroke:black;stroke-opacity:1;stroke-width:1.25;stroke-linejoin:miter;stroke-linecap:round;fill-opacity:1;stroke-dasharray:none;"
       d="M 146.851 193.512 C 146.851 193.512 146.475 205.061 135.771 206 "
       id="path594" />
    <path
       style="fill:none;fill-rule:evenodd;stroke:black;stroke-opacity:1;stroke-width:1.25;stroke-linejoin:miter;stroke-linecap:round;fill-opacity:1;stroke-dasharray:none;"
       d="M 143.658 185.907 C 143.658 185.907 146.851 197.925 135.959 205.531 "
       id="path595" />
    <path
       style="fill:none;fill-rule:evenodd;stroke:black;stroke-opacity:1;stroke-width:1pt;stroke-linejoin:miter;stroke-linecap:round;fill-opacity:1;"
       d="M 147.883 156.893 C 147.883 156.893 160.183 169.663 160.747 175.297 "
       id="path596" />
    <path
       style="fill:none;fill-rule:evenodd;stroke:black;stroke-opacity:1;stroke-width:1pt;stroke-linejoin:miter;stroke-linecap:round;fill-opacity:1;"
       d="M 151.451 113.984 C 151.451 113.984 153.611 123.091 152.766 124.688 "
       id="path598" />
    <path
       style="fill:#ffc6b5;fill-rule:evenodd;stroke:black;stroke-opacity:1;stroke-width:1pt;stroke-linejoin:miter;stroke-linecap:butt;fill-opacity:1;"
       d="M 113.508 132.69 C 113.508 132.69 112.191 130.385 112.356 127.833 C 112.521 125.281 111.944 121.331 120.176 118.12 C 125.197 113.017 130.794 109.971 133.839 108.408 C 138.284 105.527 141.166 106.185 143.799 105.197 C 145.528 103.222 145.445 98.8593 147.256 94.9907 C 149.067 91.122 152.277 83.1378 155.734 84.3725 C 159.192 85.6071 156.475 95.9785 155.158 99.6002 C 153.841 103.222 152.689 107.008 150.384 109.231 C 148.079 111.453 137.626 115.486 135.568 116.227 C 133.51 116.968 124.127 119.108 121.74 122.401 C 119.352 125.693 119.517 130.55 113.508 132.69 z "
       id="path663"
       sodipodi:nodetypes="cccccccccccc" />
    <path
       style="fill:none;fill-rule:evenodd;stroke:black;stroke-opacity:1;stroke-width:1pt;stroke-linejoin:miter;stroke-linecap:butt;fill-opacity:1;"
       d="M 112.85 125.775 C 113.097 125.693 116.965 124.458 118.776 127.916 "
       id="path664" />
    <path
       style="fill:#ffc6b5;fill-rule:evenodd;stroke:black;stroke-opacity:1;stroke-width:1.25;stroke-linejoin:round;stroke-linecap:butt;fill-opacity:1;stroke-dasharray:none;"
       d="M 141.906 55.2002 C 141.906 55.2002 140.166 58.0367 139.684 59.7612 C 139.31 61.0503 138.104 59.6746 137.466 62.4692 L 138.501 62.6504 C 138.089 63.4736 137.955 64.8644 137.873 65.1937 C 137.79 65.523 137.211 67.0269 137.297 68.1569 C 137.343 68.7402 138.449 71.2848 147.421 67.4161 C 156.393 63.5475 144.54 52.5662 141.906 55.2002 z "
       id="path666"
       sodipodi:nodetypes="cccccccc" />
    <path
       style="font-size:12;fill:#c59200;fill-rule:evenodd;stroke:#000000;stroke-width:1.2611;stroke-linecap:round;stroke-linejoin:round;"
       d="M 140.899 55.5632 C 141.82 55.0693 148.356 54.4932 147.267 67.2516 C 148.524 67.0869 149.278 66.9222 150.031 68.1569 C 150.785 69.3917 150.702 70.8732 152.042 70.8732 C 153.383 70.8732 153.551 70.6263 153.886 69.6386 C 154.22 68.6509 159.416 70.7909 160.755 66.1815 C 160.523 65.2842 157.572 63.8768 157.236 62.2305 C 157.991 59.9257 156.901 52.4354 147.351 52.0238 C 142.407 51.9415 141.403 53.9993 140.899 55.5632 z "
       id="path665"
       sodipodi:nodetypes="ccccccccc" />
    <path
       style="fill:none;fill-rule:evenodd;stroke:black;stroke-opacity:1;stroke-width:1pt;stroke-linejoin:miter;stroke-linecap:round;fill-opacity:1;"
       d="M 140.424 58.1149 C 140.507 58.1972 143.388 59.0204 143.717 60.4197 "
       id="path667" />
    <path
       style="fill:none;fill-rule:evenodd;stroke:black;stroke-opacity:1;stroke-width:1pt;stroke-linejoin:miter;stroke-linecap:round;fill-opacity:1;"
       d=""
       id="path668"
       sodipodi:nodetypes="c" />
    <path
       sodipodi:type="arc"
       style="fill-rule:evenodd;stroke:none;fill:#000000;fill-opacity:1;stroke-opacity:1;stroke-width:1pt;stroke-linejoin:miter;stroke-linecap:butt;"
       id="path670"
       d="M 142.187500 61.502808 A 0.742188 0.781250 0 1 0 140.703125,61.502808 A 0.742188 0.78125 0 1 0 142.188 61.5028 L 141.445312 61.502808 z"
       sodipodi:cx="141.445312"
       sodipodi:cy="61.502808"
       sodipodi:rx="0.742188"
       sodipodi:ry="0.781250" />
    <path
       style="fill:none;fill-rule:evenodd;stroke:black;stroke-opacity:1;stroke-width:1.25;stroke-linejoin:round;stroke-linecap:round;fill-opacity:1;stroke-dasharray:none;"
       d="M 154.375 61.5419 C 154.375 61.5419 153.32 66.62 157.969 68.6122 "
       id="path672" />
    <path
       style="fill:none;fill-rule:evenodd;stroke:black;stroke-opacity:1;stroke-width:1.25;stroke-linejoin:round;stroke-linecap:round;fill-opacity:1;stroke-dasharray:none;"
       d="M 150.938 62.1669 C 150.938 62.1669 152.66 62.245 152.66 63.8466 C 152.66 65.4481 151.246 65.6434 151.364 66.9325 C 151.481 68.2216 153.789 68.6512 153.867 69.745 "
       id="path673"
       sodipodi:nodetypes="cccc" />
    <path
       style="fill:none;fill-rule:evenodd;stroke:black;stroke-opacity:1;stroke-width:1.25;stroke-linejoin:round;stroke-linecap:round;fill-opacity:1;stroke-dasharray:none;"
       d="M 143.398 52.7919 C 143.476 52.7919 151.641 53.7294 151.172 55.7606 C 150.703 57.7919 149.414 56.9716 149.453 58.7294 C 149.492 60.4872 152.734 59.4325 152.734 59.4325 C 152.734 59.4325 152.93 57.9481 154.297 58.0653 C 155.664 58.1825 155.039 59.745 156.914 59.7058 "
       id="path674"
       sodipodi:nodetypes="cssscc" />
    <path
       style="fill:none;fill-rule:evenodd;stroke:black;stroke-opacity:1;stroke-width:1.25;stroke-linejoin:miter;stroke-linecap:round;fill-opacity:1;stroke-dasharray:none;"
       d="M 138.41 65.4575 L 140.346 65.3938 "
       id="path675"
       sodipodi:nodetypes="cc" />
    <path
       style="fill:none;fill-rule:evenodd;stroke:black;stroke-opacity:1;stroke-width:1pt;stroke-linejoin:miter;stroke-linecap:round;fill-opacity:1;"
       d="M 143.449 73.6957 C 143.449 73.6957 144.169 77.055 141.449 76.735 "
       id="path676" />
  </g>
  <g
     id="g878"
     transform="matrix(8.267717,0.000000,0.000000,8.267722,0.000000,2.288818e-5)"
     style="font-size:12;">
    <path
       style="font-size:12;fill:#ffffff;stroke-width:1pt;"
       d="M 0 0 L 0 3.3541 L 53.2918 30 L 60 30 L 60 26.6459 L 6.7082 0 L 0 0 z M 60 0 L 60 3.35405 L 6.7082 30 L 0 30 L 0 26.6458 L 53.2918 0 L 60 0 z "
       id="path879" />
    <path
       style="font-size:12;fill:#ffffff;stroke-width:1pt;"
       d="M 25 0 L 25 30 L 35 30 L 35 0 L 25 0 z M 0 10 L 0 20 L 60 20 L 60 10 L 0 10 z "
       id="path880" />
    <path
       style="font-size:12;fill:#cc0000;stroke-width:1pt;"
       d="M 0 12 L 0 18 L 60 18 L 60 12 L 0 12 z M 27 0 L 27 30 L 33 30 L 33 0 L 27 0 z "
       id="path881" />
    <path
       style="font-size:12;fill:#cc0000;stroke-width:1pt;"
       d="M 0 30 L 20 20 L 24.4721 20 L 4.47214 30 L 0 30 z M 0 0 L 20 10 L 15.5279 10 L 0 2.23607 L 0 0 z M 35.5279 10 L 55.5279 0 L 60 0 L 40 10 L 35.5279 10 z M 60 30 L 40 20 L 44.4721 20 L 60 27.7639 L 60 30 z "
       id="path882" />
  </g>
</svg>
