<?xml version="1.0" encoding="UTF-8" standalone="no"?>
<!DOCTYPE svg PUBLIC "-//W3C//DTD SVG 20010904//EN"
"http://www.w3.org/TR/2001/REC-SVG-20010904/DTD/svg10.dtd">
<!-- Created with Sodipodi ("http://www.sodipodi.com/") -->
<svg
   version="1"
   x="0"
   y="0"
   width="299.999mm"
   height="210mm"
   id="svg378"
   sodipodi:version="0.32-hydra1"
   sodipodi:docname="/home/yemu/clipart/flags/namibia.svg"
   sodipodi:docbase="/home/yemu/clipart/flags"
   xmlns="http://www.w3.org/2000/svg"
   xmlns:sodipodi="http://sodipodi.sourceforge.net/DTD/sodipodi-0.dtd"
   xmlns:xlink="http://www.w3.org/1999/xlink">
  <sodipodi:namedview
     id="base">
    <sodipodi:guide
       orientation="vertical"
       position="194.875336"
       id="guide626" />
    <sodipodi:guide
       orientation="vertical"
       position="521.178223"
       id="guide627" />
  </sodipodi:namedview>
  <defs
     id="defs380" />
  <rect
     style="font-size:12;fill:#ffffff;fill-rule:evenodd;stroke-width:1pt;fill-opacity:1;stroke:none;stroke-opacity:1;"
     id="rect628"
     width="1073.513794"
     height="744.094482"
     x="1144.326050"
     y="145.845791"
     transform="translate(-1149.589,-145.8458)" />
  <path
     style="font-size:12;fill:#3662a2;fill-rule:evenodd;stroke:none;stroke-width:1.02152pt;stroke-opacity:1;fill-opacity:1;"
     d="M -2.66219 -3.5704 L -1.41625 532.839 L 833.908 -3.91769 L -2.66219 -3.5704 z "
     id="path623"
     transform="translate(-3.175735,3.570496)"
     sodipodi:nodetypes="cccc" />
  <path
     style="font-size:12;fill:#38a100;fill-rule:evenodd;stroke:none;stroke-width:1.03875pt;fill-opacity:1;stroke-opacity:1;"
     d="M 1069.54 744.094 L 1067.58 186.34 L 224.975 744.506 L 1069.54 744.094 z "
     id="path624"
     sodipodi:nodetypes="cccc" />
  <path
     style="font-size:12;fill-rule:evenodd;stroke:none;stroke-width:1.02152pt;stroke-opacity:1;fill:#c70000;fill-opacity:1;"
     d="M -2.12437 573.282 L -1.41625 741.204 L 180.867 740.964 L 1071.17 144.084 L 1070.17 -1.91483 L 890.056 -3.5704 L -2.12437 573.282 z "
     id="path625"
     transform="translate(-3.175735,3.570496)"
     sodipodi:nodetypes="ccccccc" />
  <polygon
     sodipodi:type="star"
     style="font-size:12;fill:#ffe700;fill-rule:evenodd;stroke-width:1pt;fill-opacity:1;"
     id="polygon715"
     sodipodi:sides="12"
     sodipodi:cx="162.108856"
     sodipodi:cy="150.069244"
     sodipodi:r1="116.895790"
     sodipodi:r2="81.8270493"
     sodipodi:arg1="1.01474011"
     sodipodi:arg2="1.27653956"
     points="223.811,249.354 185.841,228.379 165.902,266.903 143.507,229.754 106.977,253.147 106.157,209.777 62.8242,211.772 83.7989,173.801 45.2746,153.863 82.4244,131.467 59.0307,94.9374 102.401,94.1169 100.407,50.7846 138.377,71.7593 158.315,33.235 180.711,70.3847 217.241,46.9911 218.061,90.3616 261.394,88.3669 240.419,126.337 278.943,146.276 241.793,168.672 265.187,205.201 221.817,206.022 223.811,249.354 "
     transform="matrix(0.908648,3.462913e-2,-3.637945e-2,0.908705,32.60888,32.20689)" />
  <path
     sodipodi:type="arc"
     style="fill-rule:evenodd;stroke:none;fill:#3662a2;fill-opacity:1;stroke-opacity:1;stroke-width:1pt;stroke-linejoin:miter;stroke-linecap:butt;"
     id="path716"
     d="M 239.517242 185.407867 A 56.653957 56.653954 0 1 0 126.209320,185.407867 A 56.654 56.654 0 1 0 239.517 185.408 L 182.863281 185.407867 z"
     sodipodi:cx="182.863281"
     sodipodi:cy="185.407867"
     sodipodi:rx="56.653957"
     sodipodi:ry="56.653954"
     transform="matrix(1.277228,0.000000,0.000000,1.267326,-59.10879,-60.78299)" />
  <path
     sodipodi:type="arc"
     style="fill-rule:evenodd;stroke:none;fill:#ffe700;fill-opacity:1;stroke-opacity:1;stroke-width:1pt;stroke-linejoin:miter;stroke-linecap:butt;"
     id="path717"
     d="M 239.517242 185.407867 A 56.653957 56.653954 0 1 0 126.209320,185.407867 A 56.654 56.654 0 1 0 239.517 185.408 L 182.863281 185.407867 z"
     sodipodi:cx="182.863281"
     sodipodi:cy="185.407867"
     sodipodi:rx="56.653957"
     sodipodi:ry="56.653954"
     transform="translate(-8.413963,-11.21863)" />
</svg>
