<?xml version="1.0" encoding="UTF-8" standalone="no"?>
<!DOCTYPE svg PUBLIC "-//W3C//DTD SVG 20010904//EN"
"http://www.w3.org/TR/2001/REC-SVG-20010904/DTD/svg10.dtd">
<!-- Created with Sodipodi ("http://www.sodipodi.com/") -->
<svg
   id="svg722"
   sodipodi:version="0.33pre"
   width="210mm"
   height="140mm"
   sodipodi:docbase="/home/yemu/clipart/new_flags/"
   sodipodi:docname="/home/yemu/clipart/new_flags/netherlands_antilles.svg"
   xmlns="http://www.w3.org/2000/svg"
   xmlns:sodipodi="http://sodipodi.sourceforge.net/DTD/sodipodi-0.dtd"
   xmlns:xlink="http://www.w3.org/1999/xlink">
  <defs
     id="defs724" />
  <sodipodi:namedview
     id="base"
     showgrid="true"
     snaptogrid="false"
     showborder="true"
     borderlayer="top" />
  <rect
     style="font-size:12;fill:#ffffff;fill-rule:evenodd;stroke-width:1pt;fill-opacity:1;"
     id="rect740"
     width="744.094482"
     height="496.062988"
     x="0.000000"
     y="-0.000008" />
  <rect
     style="font-size:12;fill:#df0000;fill-rule:evenodd;stroke-width:1pt;fill-opacity:1;"
     id="rect726"
     width="167.741752"
     height="496.062988"
     x="288.176375"
     y="-0.000031" />
  <rect
     style="font-size:12;fill:#00319c;fill-rule:evenodd;stroke-width:1pt;fill-opacity:1;"
     id="rect727"
     width="744.094482"
     height="167.741696"
     x="0.000000"
     y="164.160584" />
  <path
     style="font-size:12;fill:#ffffff;fill-rule:evenodd;stroke:none;stroke-width:1pt;fill-opacity:1;"
     d="M 320.351 270.321 L 305.735 259.528 L 291.196 269.934 L 296.966 253.451 L 282.354 242.693 L 299.911 242.57 L 306.064 226.35 L 311.652 242.679 L 329.392 242.506 L 315.326 253.461 L 320.351 270.321 z "
     id="path663"
     sodipodi:nodetypes="ccccccccccc" />
  <path
     style="font-size:12;fill:#ffffff;fill-rule:evenodd;stroke:none;stroke-width:1pt;fill-opacity:1;"
     d="M 451.956 270.321 L 437.34 259.528 L 422.801 269.934 L 428.571 253.451 L 413.959 242.693 L 431.516 242.57 L 437.669 226.35 L 443.257 242.679 L 460.997 242.506 L 446.931 253.461 L 451.956 270.321 z "
     id="path712"
     sodipodi:nodetypes="ccccccccccc" />
  <path
     style="font-size:12;fill:#ffffff;fill-rule:evenodd;stroke:none;stroke-width:1pt;fill-opacity:1;"
     d="M 386.987 221.455 L 372.371 210.662 L 357.832 221.068 L 363.602 204.585 L 348.99 193.827 L 366.547 193.704 L 372.7 177.484 L 378.288 193.813 L 396.028 193.64 L 381.962 204.595 L 386.987 221.455 z "
     id="path713"
     sodipodi:nodetypes="ccccccccccc" />
  <path
     style="font-size:12;fill:#ffffff;fill-rule:evenodd;stroke:none;stroke-width:1pt;fill-opacity:1;"
     d="M 386.987 221.455 L 372.371 210.662 L 357.832 221.068 L 363.602 204.585 L 348.99 193.827 L 366.547 193.704 L 372.7 177.484 L 378.288 193.813 L 396.028 193.64 L 381.962 204.595 L 386.987 221.455 z "
     id="path714"
     sodipodi:nodetypes="ccccccccccc" />
  <path
     style="font-size:12;fill:#ffffff;fill-rule:evenodd;stroke:none;stroke-width:1pt;fill-opacity:1;"
     d="M 386.987 320.403 L 372.371 309.61 L 357.832 320.016 L 363.602 303.533 L 348.99 292.775 L 366.547 292.652 L 372.7 276.432 L 378.288 292.761 L 396.028 292.588 L 381.962 303.543 L 386.987 320.403 z "
     id="path719"
     sodipodi:nodetypes="ccccccccccc" />
</svg>
