<?xml version="1.0" encoding="UTF-8" standalone="no"?>
<!DOCTYPE svg PUBLIC "-//W3C//DTD SVG 20010904//EN"
"http://www.w3.org/TR/2001/REC-SVG-20010904/DTD/svg10.dtd">
<!-- Created with Sodipodi ("http://www.sodipodi.com/") -->
<!-- /Creative Commons Public Domain -->
<!--

<rdf:RDF xmlns="http://web.resource.org/cc/"
     xmlns:dc="http://purl.org/dc/elements/1.1/"
     xmlns:rdf="http://www.w3.org/1999/02/22-rdf-syntax-ns#">
<Work rdf:about="">
    <dc:title>New Zealand, Australia, United Kingdom, United States, 
Bosnia and Herzegovina, Azerbaijan, Armenia, Bahamas, Belgium, Benin, 
Bulgaria, Estonia, Finland, Gabon, Gambia, Germany, Greece, Greenland, 
Guinea, Honduras, Israel, Jamaica, Jordan, and Romania Flags</dc:title>
    <dc:rights><Agent>
       <dc:title>Daniel McRae</dc:title>
    </Agent></dc:rights>
    <license rdf:resource="http://web.resource.org/cc/PublicDomain" />
</Work>

<License rdf:about="http://web.resource.org/cc/PublicDomain">
    <permits rdf:resource="http://web.resource.org/cc/Reproduction" />
    <permits rdf:resource="http://web.resource.org/cc/Distribution" />
    <permits rdf:resource="http://web.resource.org/cc/DerivativeWorks" />
</License>

</rdf:RDF>

-->
<svg
   id="svg566"
   sodipodi:version="0.32"
   width="187mm"
   height="140mm"
   sodipodi:docbase="/home/scarlet/"
   sodipodi:docname="/home/scarlet/NZ.svg"
   xmlns="http://www.w3.org/2000/svg"
   xmlns:sodipodi="http://sodipodi.sourceforge.net/DTD/sodipodi-0.dtd"
   xmlns:xlink="http://www.w3.org/1999/xlink">
  <defs
     id="defs568" />
  <sodipodi:namedview
     id="base" />
  <rect
     style="font-size:12;fill:#00006a;fill-rule:evenodd;stroke-width:1pt;fill-opacity:1;"
     id="rect580"
     width="659.051147"
     height="496.062988"
     x="0.003940"
     y="0.000007" />
  <g
     id="g560"
     transform="matrix(1.093654,0.000000,0.000000,1.027531,-1.064286e-3,-1.121574)">
    <path
       transform="matrix(0.462370,0.000000,0.000000,0.474578,-29.82254,-137.2798)"
       style="font-size:12;fill:#ffffff;fill-rule:evenodd;stroke-width:1pt;fill-opacity:1;"
       d="M 64.5014 291.568 L 578.582 800.199 L 684.029 800.199 L 181.047 291.814 L 64.5014 291.568 z "
       id="path572"
       sodipodi:nodetypes="ccccc" />
    <path
       transform="matrix(-0.461902,1.787436e-16,-1.661416e-16,-0.476346,317.3934,383.4745)"
       style="font-size:12;fill:#ff0000;fill-rule:evenodd;stroke-width:1pt;fill-opacity:1;"
       d="M 105.539 296.008 L 609.377 802.733 L 648.588 802.114 L 142.639 296.008 L 105.539 296.008 z "
       id="path577"
       sodipodi:nodetypes="ccccc" />
    <path
       transform="matrix(-0.462370,0.000000,0.000000,0.474578,316.2764,-137.2798)"
       style="font-size:12;fill:#ffffff;fill-rule:evenodd;stroke-width:1pt;fill-opacity:1;"
       d="M 64.5014 291.568 L 578.582 800.199 L 684.029 800.199 L 181.047 291.814 L 64.5014 291.568 z "
       id="path581"
       sodipodi:nodetypes="ccccc" />
    <path
       transform="matrix(-0.461718,0.000000,0.000000,0.476346,317.3236,-139.9103)"
       style="font-size:12;fill:#ff0000;fill-rule:evenodd;stroke-width:1pt;fill-opacity:1;"
       d="M 105.539 296.008 L 609.377 802.733 L 648.588 802.753 L 142.639 296.008 L 105.539 296.008 z "
       id="path579"
       sodipodi:nodetypes="ccccc" />
    <rect
       style="font-size:12;fill:#ffffff;fill-rule:evenodd;stroke-width:1pt;fill-opacity:1;"
       id="rect570"
       width="45.831038"
       height="241.379689"
       x="120.311425"
       y="1.094477" />
    <rect
       style="font-size:12;fill:#ffffff;fill-rule:evenodd;stroke-width:1pt;fill-opacity:1;"
       id="rect569"
       width="286.444075"
       height="48.275916"
       x="0.004935"
       y="97.646349" />
    <rect
       style="font-size:12;fill:#ff0000;fill-rule:evenodd;stroke-width:1pt;fill-opacity:1;"
       id="rect574"
       width="25.779947"
       height="241.379631"
       x="130.336997"
       y="1.094487" />
    <rect
       style="font-size:12;fill:#ff0000;fill-rule:evenodd;stroke-width:1pt;fill-opacity:1;"
       id="rect575"
       width="286.444075"
       height="24.137976"
       x="0.004934"
       y="109.715326" />
  </g>
  <g
     id="g591"
     transform="matrix(0.994646,0.000000,0.000000,1.000000,-9.676925e-4,4.425049e-4)">
    <polygon
       sodipodi:type="star"
       style="font-size:12;fill:#ffffff;fill-rule:evenodd;stroke-width:1pt;fill-opacity:1;"
       id="polygon589"
       sodipodi:sides="5"
       sodipodi:cx="497.440338"
       sodipodi:cy="77.2693100"
       sodipodi:r1="38.1760826"
       sodipodi:r2="15.2704334"
       sodipodi:arg1="0.96850938"
       sodipodi:arg2="1.59682798"
       points="519.068,108.728 497.043,92.5346 474.205,107.56 482.799,81.6085 461.452,64.5312 488.789,64.6858 498.434,39.1062 506.735,65.1531 534.043,66.4213 511.836,82.3645 519.068,108.728 "
       transform="translate(0.000000,-1.966187)" />
    <polygon
       sodipodi:type="star"
       style="font-size:12;fill:#ff0000;fill-rule:evenodd;stroke-width:1pt;fill-opacity:1;"
       id="polygon590"
       sodipodi:sides="5"
       sodipodi:cx="497.440338"
       sodipodi:cy="73.3370056"
       sodipodi:r1="22.4177799"
       sodipodi:r2="8.96711254"
       sodipodi:arg1="0.90975159"
       sodipodi:arg2="1.53807008"
       points="511.204,91.0325 497.734,82.2993 484.864,91.8948 489.007,76.3856 475.905,67.1109 491.935,66.2588 496.707,50.9312 502.471,65.9139 518.523,65.7156 506.055,75.8275 511.204,91.0325 "
       transform="matrix(0.998830,4.836373e-2,-4.836373e-2,0.998830,4.035646,-21.99739)" />
  </g>
  <g
     id="g594"
     transform="matrix(0.994646,0.000000,0.000000,1.000000,-84.09354,139.5982)">
    <polygon
       sodipodi:type="star"
       style="font-size:12;fill:#ffffff;fill-rule:evenodd;stroke-width:1pt;fill-opacity:1;"
       id="polygon595"
       sodipodi:sides="5"
       sodipodi:cx="497.440338"
       sodipodi:cy="77.2693100"
       sodipodi:r1="38.1760826"
       sodipodi:r2="15.2704334"
       sodipodi:arg1="0.96850938"
       sodipodi:arg2="1.59682798"
       points="519.068,108.728 497.043,92.5346 474.205,107.56 482.799,81.6085 461.452,64.5312 488.789,64.6858 498.434,39.1062 506.735,65.1531 534.043,66.4213 511.836,82.3645 519.068,108.728 "
       transform="translate(0.000000,-1.966187)" />
    <polygon
       sodipodi:type="star"
       style="font-size:12;fill:#ff0000;fill-rule:evenodd;stroke-width:1pt;fill-opacity:1;"
       id="polygon596"
       sodipodi:sides="5"
       sodipodi:cx="497.440338"
       sodipodi:cy="73.3370056"
       sodipodi:r1="22.4177799"
       sodipodi:r2="8.96711254"
       sodipodi:arg1="0.90975159"
       sodipodi:arg2="1.53807008"
       points="511.204,91.0325 497.734,82.2993 484.864,91.8948 489.007,76.3856 475.905,67.1109 491.935,66.2588 496.707,50.9312 502.471,65.9139 518.523,65.7156 506.055,75.8275 511.204,91.0325 "
       transform="matrix(0.998830,4.836373e-2,-4.836373e-2,0.998830,4.035646,-21.99739)" />
  </g>
  <g
     id="g597"
     transform="matrix(0.994646,0.000000,0.000000,1.000000,88.00282,125.8351)">
    <polygon
       sodipodi:type="star"
       style="font-size:12;fill:#ffffff;fill-rule:evenodd;stroke-width:1pt;fill-opacity:1;"
       id="polygon598"
       sodipodi:sides="5"
       sodipodi:cx="497.440338"
       sodipodi:cy="77.2693100"
       sodipodi:r1="38.1760826"
       sodipodi:r2="15.2704334"
       sodipodi:arg1="0.96850938"
       sodipodi:arg2="1.59682798"
       points="519.068,108.728 497.043,92.5346 474.205,107.56 482.799,81.6085 461.452,64.5312 488.789,64.6858 498.434,39.1062 506.735,65.1531 534.043,66.4213 511.836,82.3645 519.068,108.728 "
       transform="translate(0.000000,-1.966187)" />
    <polygon
       sodipodi:type="star"
       style="font-size:12;fill:#ff0000;fill-rule:evenodd;stroke-width:1pt;fill-opacity:1;"
       id="polygon599"
       sodipodi:sides="5"
       sodipodi:cx="497.440338"
       sodipodi:cy="73.3370056"
       sodipodi:r1="22.4177799"
       sodipodi:r2="8.96711254"
       sodipodi:arg1="0.90975159"
       sodipodi:arg2="1.53807008"
       points="511.204,91.0325 497.734,82.2993 484.864,91.8948 489.007,76.3856 475.905,67.1109 491.935,66.2588 496.707,50.9312 502.471,65.9139 518.523,65.7156 506.055,75.8275 511.204,91.0325 "
       transform="matrix(0.998830,4.836373e-2,-4.836373e-2,0.998830,4.035646,-21.99739)" />
  </g>
  <g
     id="g600"
     transform="matrix(0.994646,0.000000,0.000000,1.000000,-1.956611,324.4178)">
    <polygon
       sodipodi:type="star"
       style="font-size:12;fill:#ffffff;fill-rule:evenodd;stroke-width:1pt;fill-opacity:1;"
       id="polygon601"
       sodipodi:sides="5"
       sodipodi:cx="497.440338"
       sodipodi:cy="77.2693100"
       sodipodi:r1="38.1760826"
       sodipodi:r2="15.2704334"
       sodipodi:arg1="0.96850938"
       sodipodi:arg2="1.59682798"
       points="519.068,108.728 497.043,92.5346 474.205,107.56 482.799,81.6085 461.452,64.5312 488.789,64.6858 498.434,39.1062 506.735,65.1531 534.043,66.4213 511.836,82.3645 519.068,108.728 "
       transform="translate(0.000000,-1.966187)" />
    <polygon
       sodipodi:type="star"
       style="font-size:12;fill:#ff0000;fill-rule:evenodd;stroke-width:1pt;fill-opacity:1;"
       id="polygon602"
       sodipodi:sides="5"
       sodipodi:cx="497.440338"
       sodipodi:cy="73.3370056"
       sodipodi:r1="22.4177799"
       sodipodi:r2="8.96711254"
       sodipodi:arg1="0.90975159"
       sodipodi:arg2="1.53807008"
       points="511.204,91.0325 497.734,82.2993 484.864,91.8948 489.007,76.3856 475.905,67.1109 491.935,66.2588 496.707,50.9312 502.471,65.9139 518.523,65.7156 506.055,75.8275 511.204,91.0325 "
       transform="matrix(0.998830,4.836373e-2,-4.836373e-2,0.998830,4.035646,-21.99739)" />
  </g>
</svg>
