<?xml version="1.0" encoding="UTF-8" standalone="no"?>
<!DOCTYPE svg PUBLIC "-//W3C//DTD SVG 20010904//EN"
"http://www.w3.org/TR/2001/REC-SVG-20010904/DTD/svg10.dtd"
[
 <!ATTLIST svg
  xmlns:xlink CDATA #FIXED "http://www.w3.org/1999/xlink">
]>
<!-- Created with Sodipodi ("http://www.sodipodi.com/") -->
<svg
   xmlns="http://www.w3.org/2000/svg"
   xmlns:xlink="http://www.w3.org/1999/xlink"
   version="1"
   x="0.00000000"
   y="0.00000000"
   width="825.590515"
   height="496.062988"
   id="svg548">
  <defs
     id="defs550" />
  <rect
     width="825.590576"
     height="166.535446"
     x="0.00000000"
     y="329.527496"
     style="font-size:12;fill:#5387f4;fill-rule:evenodd;stroke-width:1pt;"
     id="rect1062" />
  <rect
     width="825.590515"
     height="166.535446"
     x="0.00000000"
     y="-0.00003800"
     style="font-size:12;fill:#5387f4;fill-rule:evenodd;stroke-width:1pt;"
     id="rect1063" />
  <rect
     width="825.590637"
     height="162.992126"
     x="0.00000000"
     y="166.535446"
     style="font-size:12;fill:#ffffff;fill-rule:evenodd;stroke-width:1pt;"
     id="rect1064" />
  <g
     transform="matrix(0.242141,0.000000,0.000000,0.242291,306.6680,101.4092)"
     style="font-size:12;"
     id="g968">
    <g
       transform="translate(-23.54874,-3.051758e-5)"
       id="g784">
      <path
         d="M 496.063 627.165 L 513.78 609.449 L 531.496 627.165 L 496.063 627.165 z "
         transform="matrix(11.09662,0.000000,0.000000,19.11476,-5241.171,-11262.71)"
         style="fill:#ffd200;fill-rule:evenodd;stroke-width:1pt;"
         id="path580" />
      <path
         d="M 496.063 627.165 L 513.78 609.449 L 531.496 627.165 L 496.063 627.165 z "
         transform="matrix(10.00003,0.000000,0.000000,17.32052,-4677.180,-10147.08)"
         style="fill:#00ffff;fill-rule:evenodd;stroke-width:1pt;"
         id="path562" />
      <g
         id="g619">
        <path
           d="M 462.732 556.662 L 461.554 448.338 "
           style="fill:none;fill-rule:evenodd;stroke:#ffd200;stroke-width:1pt;"
           id="path604" />
        <path
           d="M 468.619 563.727 L 507.474 509.565 "
           style="fill:none;fill-rule:evenodd;stroke:#ffd200;stroke-width:1pt;"
           id="path606" />
        <path
           d="M 474.506 569.614 L 536.91 543.71 "
           style="fill:none;fill-rule:evenodd;stroke:#ffd200;stroke-width:1pt;"
           id="path607" />
        <path
           d="M 479.216 577.856 L 552.217 580.211 "
           style="fill:none;fill-rule:evenodd;stroke:#ffd200;stroke-width:1pt;"
           id="path609" />
        <path
           d="M 474.506 587.276 L 516.894 624.953 "
           transform="translate(0.000000,-3.051758e-5)"
           style="fill:none;fill-rule:evenodd;stroke:#ffd200;stroke-width:1pt;"
           id="path611" />
        <path
           d="M 462.732 583.743 L 462.732 617.889 "
           style="fill:none;fill-rule:evenodd;stroke:#ffd200;stroke-width:1pt;"
           id="path612" />
        <path
           d="M 449.78 575.501 L 394.441 623.776 "
           style="fill:none;fill-rule:evenodd;stroke:#ffd200;stroke-width:1pt;"
           id="path613" />
        <path
           d="M 455.667 579.033 L 430.941 624.953 "
           style="fill:none;fill-rule:evenodd;stroke:#ffd200;stroke-width:1pt;"
           id="path614" />
        <path
           d="M 446.248 569.614 L 354.408 601.405 "
           style="fill:none;fill-rule:evenodd;stroke:#ffd200;stroke-width:1pt;"
           id="path615" />
        <path
           d="M 445.071 564.904 L 380.311 562.549 "
           style="fill:none;fill-rule:evenodd;stroke:#ffd200;stroke-width:1pt;"
           id="path616" />
        <path
           d="M 393.263 537.823 L 449.78 556.662 "
           style="fill:none;fill-rule:evenodd;stroke:#ffd200;stroke-width:1pt;"
           id="path617" />
        <path
           d="M 420.344 489.549 L 454.49 555.485 "
           style="fill:none;fill-rule:evenodd;stroke:#ffd200;stroke-width:1pt;"
           id="path618" />
      </g>
      <g
         transform="translate(0.000000,318.5357)"
         id="g572">
        <path
           d="M 460.629 219.689 C 425.196 219.689 399.379 226.194 377.585 233.834 L 383.125 224.255 L 388.655 214.66 L 394.195 205.064 L 399.735 195.486 L 405.265 185.891 L 410.805 176.312 L 416.935 166.543 C 425.195 159.286 442.915 155.891 460.625 155.891 C 478.345 155.891 496.065 159.477 504.925 166.717 L 510.465 176.312 L 515.995 185.891 L 521.535 195.486 L 527.075 205.064 L 532.605 214.66 L 538.145 224.255 L 543.675 233.834 C 520.703 226.194 496.062 219.689 460.629 219.689 z "
           transform="translate(5.531311e-4,-3.616333e-3)"
           style="fill:#c453d7;fill-rule:evenodd;stroke-width:1pt;"
           id="path565" />
        <path
           d="M 460.629 212.926 C 425.081 212.876 385.348 223.523 383.125 224.255 L 388.655 214.66 L 394.195 205.064 L 399.735 195.486 L 405.265 185.891 L 410.805 176.312 L 416.935 166.543 C 425.195 159.286 442.915 155.891 460.625 155.891 C 478.345 155.891 496.065 159.477 504.925 166.717 L 510.465 176.312 L 515.995 185.891 L 521.535 195.486 L 527.075 205.064 L 532.605 214.66 L 538.145 224.255 C 538.145 224.255 496.062 212.926 460.629 212.926 z "
           transform="translate(1.290256e-2,8.850098e-4)"
           style="fill:#5000c1;fill-rule:evenodd;stroke-width:1pt;"
           id="path566" />
        <path
           d="M 460.629 205.273 C 434.381 205.164 391.943 212.414 388.949 213.777 L 394.195 205.064 L 399.735 195.486 L 405.265 185.891 L 410.805 176.312 L 416.935 166.543 C 425.195 159.286 442.915 155.891 460.625 155.891 C 478.345 155.891 496.065 159.477 504.925 166.717 L 510.465 176.312 L 515.995 185.891 L 521.535 195.486 L 527.075 205.064 L 532.605 214.66 C 532.605 214.66 496.062 205.273 460.629 205.273 z "
           transform="translate(-2.002354e-4,-6.515503e-3)"
           style="fill:#0053d7;fill-rule:evenodd;stroke-width:1pt;"
           id="path567" />
        <path
           d="M 460.629 197.325 C 425.827 197.255 396.912 203.956 394.195 205.064 L 399.735 195.486 L 405.265 185.891 L 410.805 176.312 L 416.935 166.543 C 425.195 159.286 442.915 155.891 460.625 155.891 C 478.345 155.891 496.065 159.477 504.925 166.717 L 510.465 176.312 L 515.995 185.891 L 521.535 195.486 L 527.075 205.064 C 527.075 205.064 496.062 197.325 460.629 197.325 z "
           transform="translate(-1.503120e-2,-8.117676e-3)"
           style="fill:#009f9f;fill-rule:evenodd;stroke-width:1.25;"
           id="path568" />
        <path
           d="M 460.629 190.555 C 425.024 190.432 402.666 195.02 399.735 195.486 L 405.265 185.891 L 410.805 176.312 L 416.935 166.543 C 425.195 159.286 442.915 155.891 460.625 155.891 C 478.345 155.891 496.065 159.477 504.925 166.717 L 510.465 176.312 L 515.995 185.891 L 521.535 195.486 C 521.535 195.486 496.062 190.555 460.629 190.555 z "
           transform="translate(-2.002354e-4,-1.284790e-2)"
           style="fill:#ffff00;fill-rule:evenodd;stroke-width:1pt;"
           id="path569" />
        <path
           d="M 460.335 181.724 C 429.321 181.053 406.549 185.974 405.265 185.891 L 410.805 176.312 L 416.935 166.543 C 425.195 159.286 442.915 155.891 460.625 155.891 C 478.345 155.891 496.065 159.477 504.925 166.717 L 510.465 176.312 L 515.995 185.891 C 515.995 185.891 495.768 181.724 460.335 181.724 z "
           transform="translate(-1.453622e-2,-1.284790e-2)"
           style="fill:#ff5500;fill-rule:evenodd;stroke-width:1pt;"
           id="path570" />
        <path
           d="M 461.512 171.421 C 430.383 171.678 414.265 175.761 410.805 176.312 L 416.935 166.543 C 425.195 159.286 442.915 155.891 460.625 155.891 C 478.345 155.891 496.065 159.477 504.925 166.717 L 510.465 176.312 C 510.465 176.312 496.945 171.421 461.512 171.421 z "
           transform="translate(-2.940446e-2,2.944946e-3)"
           style="fill:#ff0b00;fill-rule:evenodd;stroke-width:1pt;"
           id="path571" />
      </g>
      <path
         d="M 496.063 627.165 L 501.046 622.182 L 526.513 622.182 L 531.496 627.165 L 496.063 627.165 z "
         transform="matrix(10.00003,0.000000,0.000000,17.32052,-4677.180,-10147.08)"
         style="fill:#4363ff;fill-rule:evenodd;stroke-width:1pt;"
         id="path581" />
      <g
         transform="matrix(0.967124,0.000000,0.000000,1.000000,-10.64329,-6.660645)"
         id="g592">
        <path
           d="M 334.694 674.375 C 334.694 674.375 363.001 669.379 381.318 654.393 C 399.634 639.407 399.635 614.429 407.96 614.429 C 416.286 614.429 417.951 642.737 437.933 652.728 C 457.914 662.719 489.553 676.04 489.553 676.04 L 334.694 674.375 z "
           transform="translate(149.0303,0.832565)"
           style="fill:#6da700;fill-rule:evenodd;stroke:#000000;stroke-width:1pt;"
           id="path590" />
        <path
           d="M 447.924 662.719 C 402.965 642.737 429.607 652.728 416.286 644.402 C 409.625 627.751 399.635 614.429 407.96 614.429 C 416.286 614.429 417.951 642.737 437.933 652.728 C 457.914 662.719 466.241 665.217 466.241 665.217 L 447.924 662.719 z "
           transform="translate(149.0303,0.832565)"
           style="fill:#ffbd00;fill-rule:evenodd;stroke-width:1pt;"
           id="path591" />
        <path
           d="M 334.694 674.375 C 334.694 674.375 363.001 669.379 381.318 654.393 C 399.634 639.407 399.635 614.429 407.96 614.429 C 416.286 614.429 417.951 642.737 437.933 652.728 C 457.914 662.719 489.553 676.04 489.553 676.04 L 334.694 674.375 z "
           transform="translate(111.5646,0.832565)"
           style="fill:#6da700;fill-rule:evenodd;stroke:#000000;stroke-width:1pt;"
           id="path588" />
        <path
           d="M 447.924 662.719 C 402.965 642.737 429.607 652.728 416.286 644.402 C 409.625 627.751 399.635 614.429 407.96 614.429 C 416.286 614.429 417.951 642.737 437.933 652.728 C 457.914 662.719 466.241 665.217 466.241 665.217 L 447.924 662.719 z "
           transform="translate(111.5646,0.832565)"
           style="fill:#ffbd00;fill-rule:evenodd;stroke-width:1pt;"
           id="path589" />
        <path
           d="M 334.694 674.375 C 334.694 674.375 363.001 669.379 381.318 654.393 C 399.634 639.407 399.635 614.429 407.96 614.429 C 416.286 614.429 417.951 642.737 437.933 652.728 C 457.914 662.719 489.553 676.04 489.553 676.04 L 334.694 674.375 z "
           transform="translate(74.09889,0.832489)"
           style="fill:#6da700;fill-rule:evenodd;stroke:#000000;stroke-width:1pt;"
           id="path586" />
        <path
           d="M 447.924 662.719 C 402.965 642.737 429.607 652.728 416.286 644.402 C 409.625 627.751 399.635 614.429 407.96 614.429 C 416.286 614.429 417.951 642.737 437.933 652.728 C 457.914 662.719 466.241 665.217 466.241 665.217 L 447.924 662.719 z "
           transform="translate(74.09889,0.832489)"
           style="fill:#ffbd00;fill-rule:evenodd;stroke-width:1pt;"
           id="path587" />
        <path
           d="M 334.694 674.375 C 334.694 674.375 363.001 669.379 381.318 654.393 C 399.634 639.407 399.635 614.429 407.96 614.429 C 416.286 614.429 417.951 642.737 437.933 652.728 C 457.914 662.719 489.553 676.04 489.553 676.04 L 334.694 674.375 z "
           transform="translate(31.63773,-3.051758e-5)"
           style="fill:#6da700;fill-rule:evenodd;stroke:#000000;stroke-width:1pt;"
           id="path584" />
        <path
           d="M 447.924 662.719 C 402.965 642.737 429.607 652.728 416.286 644.402 C 409.625 627.751 399.635 614.429 407.96 614.429 C 416.286 614.429 417.951 642.737 437.933 652.728 C 457.914 662.719 466.241 665.217 466.241 665.217 L 447.924 662.719 z "
           transform="translate(31.63773,-3.051758e-5)"
           style="fill:#ffbd00;fill-rule:evenodd;stroke-width:1pt;"
           id="path585" />
        <path
           d="M 334.694 674.375 C 334.694 674.375 363.001 669.379 381.318 654.393 C 399.634 639.407 399.635 614.429 407.96 614.429 C 416.286 614.429 417.951 642.737 437.933 652.728 C 457.914 662.719 489.553 676.04 489.553 676.04 L 334.694 674.375 z "
           style="fill:#6da700;fill-rule:evenodd;stroke:#000000;stroke-width:1pt;"
           id="path582" />
        <path
           d="M 447.924 662.719 C 402.965 642.737 429.607 652.728 416.286 644.402 C 409.625 627.751 399.635 614.429 407.96 614.429 C 416.286 614.429 417.951 642.737 437.933 652.728 C 457.914 662.719 466.241 665.217 466.241 665.217 L 447.924 662.719 z "
           style="fill:#ffbd00;fill-rule:evenodd;stroke-width:1pt;"
           id="path583" />
      </g>
      <path
         d="M 438.006 565.493 C 438.415 565.493 438.733 563.623 439.772 561.961 C 441.994 560.351 444.34 559.09 447.425 558.428 C 449.09 557.596 452.505 557.84 455.078 557.84 C 458.689 558.164 458.915 559.705 460.966 561.961 C 461.868 563.798 464.004 566.35 465.087 569.025 C 466.259 570.445 467.194 572.651 468.03 574.324 C 468.885 576.128 469.795 578.85 470.974 581.388 C 471.579 584.212 472.151 586.416 472.151 589.63 C 472.151 592.982 471.597 594.41 470.974 596.695 C 469.18 597.293 465.684 597.583 463.909 596.695 C 462.009 594.995 458.747 596.078 457.434 594.34 C 454.048 593.866 453.226 589.881 451.546 587.865 C 450.371 586.136 450.39 584.833 449.191 583.155 C 447.334 581.828 447.083 580.21 446.248 577.856 C 446.984 575.339 448.263 574.788 450.369 573.735 C 451.496 572.091 452.135 571.431 452.135 568.437 C 451.711 565.103 450.51 565.455 447.425 564.904 C 443.611 564.904 441.655 565.297 438.006 565.493 z "
         transform="matrix(0.672408,0.000000,0.000000,0.522470,155.8501,268.7245)"
         style="fill:#ff0000;fill-rule:evenodd;stroke:#000000;stroke-width:1pt;"
         id="path603" />
      <g
         transform="matrix(1.007299,0.000000,0.000000,1.430413,-11.67116,-306.4899)"
         id="g651">
        <path
           d="M 314.375 690.89 C 314.768 690.89 315.16 690.89 315.552 690.89 C 312.374 690.89 313.991 690.813 320.262 692.067 C 325.696 692.714 330.807 693.245 336.746 693.245 "
           style="fill:none;fill-rule:evenodd;stroke:#00ffff;stroke-width:1pt;"
           id="path632" />
        <path
           d="M 308.488 708.551 C 308.488 708.159 308.488 707.766 308.488 707.374 C 308.488 711.064 308.181 708.796 314.375 703.842 C 319.637 702.926 322.119 704.782 328.504 705.019 C 331.892 706.713 338.03 706.161 341.456 705.019 C 343.209 704.268 343.236 703.415 344.988 702.664 "
           style="fill:none;fill-rule:evenodd;stroke:#00ffff;stroke-width:1pt;"
           id="path633" />
        <path
           d="M 321.44 710.906 C 321.44 710.514 321.44 710.121 321.44 709.729 C 322.224 710.042 326.695 709.729 329.682 709.729 C 335.844 709.729 340.599 709.43 343.811 712.084 C 344.596 712.084 345.381 712.084 346.166 712.084 "
           style="fill:none;fill-rule:evenodd;stroke:#00ffff;stroke-width:1pt;"
           id="path634" />
        <path
           d="M 366.182 686.18 C 366.575 686.18 366.967 686.18 367.36 686.18 C 365.79 686.18 370.499 686.18 372.069 686.18 C 375.818 684.93 381.273 684.931 385.021 686.18 C 386.505 691.057 388.41 691.96 394.441 692.067 C 396.415 690.586 400.487 689.541 402.683 688.535 "
           style="fill:none;fill-rule:evenodd;stroke:#00ffff;stroke-width:1pt;"
           id="path635" />
        <path
           d="M 369.714 694.422 C 370.107 694.422 370.499 694.422 370.892 694.422 C 369.322 694.422 374.032 694.422 375.602 694.422 C 379.134 694.422 382.666 694.422 386.199 694.422 "
           style="fill:none;fill-rule:evenodd;stroke:#00ffff;stroke-width:1pt;"
           id="path636" />
        <path
           d="M 380.311 705.019 C 380.311 704.626 380.311 704.234 380.311 703.842 C 380.311 707.532 380.005 705.264 386.199 700.309 C 390.889 698.005 393.359 696.71 400.328 697.954 C 405.341 700.633 407.117 702.19 413.28 702.664 C 418.881 702.664 421.345 701.763 426.231 701.487 "
           style="fill:none;fill-rule:evenodd;stroke:#00ffff;stroke-width:1pt;"
           id="path637" />
        <path
           d="M 395.618 710.906 C 396.011 710.906 396.403 710.906 396.795 710.906 C 393.504 710.906 395.254 711.052 401.505 708.551 C 407.359 710.015 411.31 712.004 417.989 712.084 C 421.813 711.892 424.564 710.906 428.586 710.906 "
           style="fill:none;fill-rule:evenodd;stroke:#00ffff;stroke-width:1pt;"
           id="path638" />
        <path
           d="M 438.006 686.18 C 438.398 686.18 438.791 686.18 439.183 686.18 C 437.613 686.18 442.323 686.18 443.893 686.18 C 449.654 686.18 455.273 686.082 460.377 687.357 C 465.872 687.357 471.366 687.357 476.861 687.357 C 478.431 687.357 478.038 687.75 478.038 686.18 "
           style="fill:none;fill-rule:evenodd;stroke:#00ffff;stroke-width:1pt;"
           id="path639" />
        <path
           d="M 433.296 695.599 C 433.688 695.599 434.081 695.599 434.473 695.599 C 431.182 695.599 432.932 695.745 439.183 693.245 C 444.129 693.625 449.707 694.33 453.312 696.777 C 458.484 699.044 460.526 700.993 467.442 701.487 C 471.387 701.279 471.657 699.736 475.684 699.132 "
           style="fill:none;fill-rule:evenodd;stroke:#00ffff;stroke-width:1pt;"
           id="path640" />
        <path
           d="M 450.957 707.374 C 452.804 706.451 458.996 704.091 463.909 706.196 C 469.013 707.472 474.632 707.374 480.393 707.374 C 484.058 705.803 490.258 704.469 493.345 702.664 C 494.523 702.664 495.7 702.664 496.877 702.664 "
           style="fill:none;fill-rule:evenodd;stroke:#00ffff;stroke-width:1pt;"
           id="path641" />
        <path
           d="M 500.41 692.067 C 502.778 692.067 512.864 691.509 518.071 693.245 C 524.442 692.477 526.688 689.368 531.023 686.18 C 535.37 686.18 539.037 686.283 542.797 687.357 "
           style="fill:none;fill-rule:evenodd;stroke:#00ffff;stroke-width:1pt;"
           id="path642" />
        <path
           d="M 522.781 706.196 C 522.876 706.184 527.487 705.272 531.023 705.019 C 536.33 701.039 537.251 705.103 542.797 706.196 C 548.948 704.805 552.048 701.776 554.572 697.954 "
           style="fill:none;fill-rule:evenodd;stroke:#00ffff;stroke-width:1pt;"
           id="path643" />
        <path
           d="M 535.733 697.954 C 536.125 697.954 536.518 697.954 536.91 697.954 C 533.444 697.954 535.397 698.156 541.62 694.422 C 545.762 692.351 546.252 690.255 552.217 689.712 C 555.511 687.242 557.95 689.407 560.459 690.89 "
           style="fill:none;fill-rule:evenodd;stroke:#00ffff;stroke-width:1pt;"
           id="path644" />
        <path
           d="M 560.459 707.374 C 560.656 706.439 562.794 701.355 563.991 699.132 C 569.24 697.032 571.75 696.074 575.766 701.487 C 580.036 702.651 584.045 704.978 588.717 706.196 C 590.45 706.196 589.617 706.474 591.072 705.019 "
           style="fill:none;fill-rule:evenodd;stroke:#00ffff;stroke-width:1pt;"
           id="path645" />
        <path
           d="M 576.943 690.89 C 576.943 690.497 576.943 690.105 576.943 689.712 C 576.943 693.403 576.698 691.197 581.653 685.003 C 587.11 686.002 588.545 689.305 591.072 693.245 C 596.922 693.245 600.769 693.103 604.024 690.89 "
           style="fill:none;fill-rule:evenodd;stroke:#00ffff;stroke-width:1pt;"
           id="path646" />
        <path
           d="M 605.201 703.842 C 605.916 702.798 610.616 695.127 614.621 699.132 C 619.847 700.557 620.665 702.935 626.395 705.019 C 627.397 703.266 628.498 702.925 631.105 702.664 "
           style="fill:none;fill-rule:evenodd;stroke:#00ffff;stroke-width:1pt;"
           id="path647" />
        <path
           d="M 501.587 708.551 C 501.98 708.551 502.372 708.551 502.765 708.551 C 499.474 708.551 501.223 708.697 507.474 706.196 C 512.369 703.37 514.796 702.22 518.071 697.954 C 523.539 698.15 527.733 699.132 533.378 699.132 C 533.378 697.562 532.985 697.954 534.555 697.954 "
           style="fill:none;fill-rule:evenodd;stroke:#00ffff;stroke-width:1pt;"
           id="path648" />
        <path
           d="M 350.876 694.422 C 350.876 693.607 354.09 692.334 357.94 690.89 C 360.746 688.785 363.073 690.764 367.36 690.89 "
           style="fill:none;fill-rule:evenodd;stroke:#00ffff;stroke-width:1pt;"
           id="path649" />
        <path
           d="M 356.763 705.019 C 357.155 705.019 357.548 705.019 357.94 705.019 C 354.649 705.019 356.399 705.165 362.65 702.664 C 367.166 703.296 369.197 705.543 374.424 706.196 "
           style="fill:none;fill-rule:evenodd;stroke:#00ffff;stroke-width:1pt;"
           id="path650" />
      </g>
    </g>
    <path
       d="M 749.425 355.126 C 749.425 366.838 754.161 372.214 765.809 372.214 C 768.497 372.214 771.953 371.51 774.001 370.55 C 781.233 367.094 781.873 361.462 781.873 354.23 L 781.873 334.07 C 781.873 332.214 782.833 330.166 787.889 330.166 L 787.889 328.95 L 773.041 328.95 L 773.041 330.166 C 778.097 330.166 779.057 332.214 779.057 334.07 L 779.057 354.23 C 779.057 360.31 778.993 369.334 767.025 369.334 C 759.025 369.334 755.953 365.558 755.953 355.574 L 755.953 334.07 C 755.953 332.214 756.913 330.166 761.585 330.166 L 761.585 328.95 L 743.793 328.95 L 743.793 330.166 C 748.465 330.166 749.425 332.214 749.425 334.07 L 749.425 355.126 z "
       transform="matrix(-1.564665e-2,0.999877,-0.999877,-1.564665e-2,1071.498,-162.3876)"
       style="font-size:64;font-weight:normal;fill:#ffd200;stroke:#000000;stroke-width:1pt;font-family:TempoFont;"
       id="path862" />
    <path
       d="M 735.985 328.054 L 734.641 328.054 C 733.041 332.79 728.049 328.054 720.241 328.054 C 707.505 328.054 698.289 337.526 698.289 350.262 C 698.289 365.302 710.129 372.214 721.009 372.214 C 726.257 372.214 733.425 369.782 737.137 367.67 L 737.137 355.51 C 737.137 351.862 737.457 349.814 741.617 349.75 L 741.617 348.534 L 725.297 348.534 L 725.297 349.75 C 730.609 349.75 730.929 351.862 730.929 355.51 L 730.929 365.046 C 730.929 366.902 730.929 367.286 729.073 368.182 C 726.897 369.206 724.209 369.59 721.841 369.59 C 711.089 369.59 705.649 360.63 705.649 350.774 C 705.649 339.574 710.257 330.614 720.881 330.614 C 728.433 330.614 732.657 334.838 735.089 341.622 L 736.561 341.622 L 735.985 328.054 z "
       transform="matrix(0.157710,0.987485,-0.987485,0.157710,935.3364,-214.6527)"
       style="font-size:64;font-weight:normal;fill:#ffd200;stroke:#000000;stroke-width:1pt;font-family:TempoFont;"
       id="path863" />
    <path
       d="M 558.193 328.118 L 556.849 328.118 C 554.737 333.302 551.537 328.054 542.769 328.054 C 529.905 328.054 520.881 337.462 520.881 350.198 C 520.881 364.214 530.417 372.214 542.897 372.214 C 549.041 372.214 555.633 369.014 559.537 364.214 L 558.449 362.934 C 554.033 367.286 549.745 369.334 543.473 369.334 C 532.977 369.334 528.305 359.67 528.305 350.71 C 528.305 339.19 532.849 330.678 543.409 330.678 C 550.705 330.678 555.377 335.478 557.233 342.518 L 558.769 342.518 L 558.193 328.118 z "
       transform="matrix(0.767640,0.640881,-0.640881,0.767640,411.9803,-224.7852)"
       style="font-size:64;font-weight:normal;fill:#ffd200;stroke:#000000;stroke-width:1pt;font-family:TempoFont;"
       id="path870" />
    <path
       d="M 511.409 334.07 C 511.409 332.214 512.369 330.166 517.681 330.166 L 517.681 328.95 L 498.609 328.95 L 498.609 330.166 C 503.921 330.166 504.881 332.214 504.881 334.07 L 504.881 366.198 C 504.881 368.054 503.921 370.102 498.609 370.102 L 498.609 371.318 L 517.681 371.318 L 517.681 370.102 C 512.369 370.102 511.409 368.054 511.409 366.198 L 511.409 334.07 z "
       transform="matrix(0.872687,0.532398,-0.487577,0.848430,302.1839,-196.2377)"
       style="font-size:64;font-weight:normal;fill:#ffd200;stroke:#000000;stroke-width:1pt;font-family:TempoFont;"
       id="path871" />
    <path
       d="M 490.417 334.07 C 490.417 332.214 491.377 330.166 496.625 330.166 L 496.625 328.95 L 481.393 328.95 L 481.393 330.166 C 486.641 330.166 487.601 332.214 487.601 334.07 L 487.601 359.734 L 462.961 328.95 L 452.017 328.95 L 452.017 330.166 C 455.153 330.23 455.729 330.806 457.713 333.046 L 458.225 333.686 L 458.225 366.198 C 458.225 368.054 457.265 370.102 452.017 370.102 L 452.017 371.318 L 467.249 371.318 L 467.249 370.102 C 462.001 370.102 461.041 368.054 461.041 366.198 L 461.041 336.95 L 489.457 372.214 L 490.417 372.214 L 490.417 334.07 z "
       transform="matrix(0.921656,0.388008,-0.388008,0.921656,242.3170,-151.8300)"
       style="font-size:64;font-weight:normal;fill:#ffd200;stroke:#000000;stroke-width:1pt;font-family:TempoFont;"
       id="path872" />
    <path
       d="M 431.473 371.318 L 434.353 360.502 L 432.561 360.502 C 429.169 368.63 424.305 368.694 419.185 368.694 L 410.737 368.694 C 409.457 368.694 409.073 367.35 409.073 366.198 L 409.073 350.454 L 418.097 350.454 C 422.385 350.454 426.033 351.67 426.033 356.662 L 427.377 356.662 L 427.377 341.686 L 426.033 341.686 C 426.033 346.678 422.385 347.83 418.097 347.83 L 409.073 347.83 L 409.073 334.07 C 409.073 332.47 410.289 331.574 411.889 331.574 L 422.193 331.574 C 426.673 331.574 428.785 334.646 429.489 338.102 L 430.897 338.102 L 430.897 328.95 L 396.913 328.95 L 396.913 330.166 C 401.585 330.166 402.545 332.214 402.545 334.07 L 402.545 366.198 C 402.545 368.054 401.585 370.102 396.913 370.102 L 396.913 371.318 L 431.473 371.318 z "
       transform="matrix(0.997689,6.795235e-2,-6.795235e-2,0.997689,69.59343,-42.49637)"
       style="font-size:64;font-weight:normal;fill:#ffd200;stroke:#000000;stroke-width:1pt;font-family:TempoFont;"
       id="path873" />
    <path
       d="M 284.465 328.118 L 283.121 328.118 C 281.009 333.302 277.809 328.054 269.041 328.054 C 256.177 328.054 247.153 337.462 247.153 350.198 C 247.153 364.214 256.689 372.214 269.169 372.214 C 275.313 372.214 281.905 369.014 285.809 364.214 L 284.721 362.934 C 280.305 367.286 276.017 369.334 269.745 369.334 C 259.249 369.334 254.577 359.67 254.577 350.71 C 254.577 339.19 259.121 330.678 269.681 330.678 C 276.977 330.678 281.649 335.478 283.505 342.518 L 285.041 342.518 L 284.465 328.118 z "
       transform="matrix(0.855219,-0.518267,0.518267,0.855219,-113.6450,211.0614)"
       style="font-size:64;font-weight:normal;fill:#ffd200;stroke:#000000;stroke-width:1pt;font-family:TempoFont;"
       id="path878" />
    <path
       d="M 237.681 334.07 C 237.681 332.214 238.641 330.166 243.953 330.166 L 243.953 328.95 L 224.881 328.95 L 224.881 330.166 C 230.193 330.166 231.153 332.214 231.153 334.07 L 231.153 366.198 C 231.153 368.054 230.193 370.102 224.881 370.102 L 224.881 371.318 L 243.953 371.318 L 243.953 370.102 C 238.641 370.102 237.681 368.054 237.681 366.198 L 237.681 334.07 z "
       transform="matrix(0.772589,-0.634906,0.634906,0.772589,-134.8477,270.8445)"
       style="font-size:64;font-weight:normal;fill:#ffd200;stroke:#000000;stroke-width:1pt;font-family:TempoFont;"
       id="path879" />
    <path
       d="M 219.825 371.318 L 222.897 360.182 L 221.297 360.182 C 217.777 368.95 212.081 368.694 203.953 368.694 C 199.985 368.694 197.553 367.99 197.553 366.198 L 197.553 334.07 C 197.553 332.214 198.513 330.166 203.185 330.166 L 203.185 328.95 L 185.393 328.95 L 185.393 330.166 C 190.065 330.166 191.025 332.214 191.025 334.07 L 191.025 366.198 C 191.025 368.054 190.065 370.102 185.393 370.102 L 185.393 371.318 L 219.825 371.318 z "
       transform="matrix(0.687251,-0.726420,0.726420,0.687251,-149.2880,322.5580)"
       style="font-size:64;font-weight:normal;fill:#ffd200;stroke:#000000;stroke-width:1pt;font-family:TempoFont;"
       id="path880" />
    <path
       d="M 102.385 355.126 C 102.385 366.838 107.121 372.214 118.769 372.214 C 121.457 372.214 124.913 371.51 126.961 370.55 C 134.193 367.094 134.833 361.462 134.833 354.23 L 134.833 334.07 C 134.833 332.214 135.793 330.166 140.849 330.166 L 140.849 328.95 L 126.001 328.95 L 126.001 330.166 C 131.057 330.166 132.017 332.214 132.017 334.07 L 132.017 354.23 C 132.017 360.31 131.953 369.334 119.985 369.334 C 111.985 369.334 108.913 365.558 108.913 355.574 L 108.913 334.07 C 108.913 332.214 109.873 330.166 114.545 330.166 L 114.545 328.95 L 96.753 328.95 L 96.753 330.166 C 101.425 330.166 102.385 332.214 102.385 334.07 L 102.385 355.126 z "
       transform="matrix(0.473474,-0.880808,0.880808,0.473474,-169.7103,425.8137)"
       style="font-size:64;font-weight:normal;fill:#ffd200;stroke:#000000;stroke-width:1pt;font-family:TempoFont;"
       id="path884" />
    <path
       d="M 56.369 371.318 L 59.249 360.502 L 57.457 360.502 C 54.065 368.63 49.201 368.694 44.081 368.694 L 35.633 368.694 C 34.353 368.694 33.969 367.35 33.969 366.198 L 33.969 350.454 L 42.993 350.454 C 47.281 350.454 50.929 351.67 50.929 356.662 L 52.273 356.662 L 52.273 341.686 L 50.929 341.686 C 50.929 346.678 47.281 347.83 42.993 347.83 L 33.969 347.83 L 33.969 334.07 C 33.969 332.47 35.185 331.574 36.785 331.574 L 47.089 331.574 C 51.569 331.574 53.681 334.646 54.385 338.102 L 55.793 338.102 L 55.793 328.95 L 21.809 328.95 L 21.809 330.166 C 26.481 330.166 27.441 332.214 27.441 334.07 L 27.441 366.198 C 27.441 368.054 26.481 370.102 21.809 370.102 L 21.809 371.318 L 56.369 371.318 z "
       transform="matrix(0.194789,-0.980845,0.980845,0.194789,-181.2749,537.1550)"
       style="font-size:64;font-weight:normal;fill:#ffd200;stroke:#000000;stroke-width:1pt;font-family:TempoFont;"
       id="path887" />
    <path
       d="M -15.439 366.198 C -15.439 368.054 -16.399 370.102 -20.879 370.102 L -20.879 371.318 L -3.27898 371.318 L -3.27898 370.102 C -7.95098 370.102 -8.91098 368.054 -8.91098 366.198 L -8.91098 351.734 L -5.32698 351.606 L 9.90502 371.318 L 20.209 371.318 L 20.209 370.102 C 17.329 369.91 15.857 368.63 14.129 366.518 L 1.45702 350.902 C 7.47302 350.07 13.041 346.934 13.041 340.15 C 13.041 332.662 6.64102 328.95 -3.98298 328.95 L -20.879 328.95 L -20.879 330.166 C -16.399 330.166 -15.439 332.214 -15.439 334.07 L -15.439 366.198 z M -8.91098 334.39 C -8.91098 331.382 -8.33498 331.382 -4.17498 331.382 C 1.58502 331.382 6.06502 333.878 6.06502 340.214 C 6.06502 347.126 0.369021 349.046 -8.91098 349.366 L -8.91098 334.39 z "
       transform="matrix(1.061907e-2,-0.999944,0.999944,1.061907e-2,-182.0724,608.6489)"
       style="font-size:64;font-weight:normal;fill:#ffd200;stroke:#000000;stroke-width:1pt;font-family:TempoFont;"
       id="path892" />
    <path
       d="M 66.481 366.198 C 66.481 368.054 65.521 370.102 60.849 370.102 L 60.849 371.318 L 78.641 371.318 L 78.641 370.102 C 73.969 370.102 73.009 368.054 73.009 366.198 L 73.009 352.502 C 74.865 352.694 76.721 352.822 78.577 352.822 C 86.769 352.822 94.833 349.558 94.833 340.086 C 94.833 332.534 87.153 328.95 77.297 328.95 L 61.169 328.95 L 61.169 330.166 C 65.521 330.166 66.481 332.214 66.481 334.07 L 66.481 366.198 z M 73.009 334.262 C 73.009 331.638 73.137 331.318 75.825 331.318 C 81.969 331.318 87.857 333.366 87.857 340.598 C 87.857 348.022 83.057 350.326 76.145 350.326 C 75.121 350.326 74.033 350.198 73.009 350.134 L 73.009 334.262 z "
       transform="matrix(0.245191,-0.969475,0.969475,0.245191,-179.5109,515.0634)"
       style="font-size:64;font-weight:normal;fill:#ffd200;stroke:#000000;stroke-width:1pt;font-family:TempoFont;"
       id="path895" />
    <path
       d="M 149.361 366.198 C 149.361 368.054 148.401 370.102 143.217 370.102 L 143.217 371.318 L 163.377 371.318 C 173.425 371.318 180.081 367.35 180.081 359.67 C 180.081 353.526 174.897 350.134 169.393 349.046 C 174.321 347.894 177.905 345.142 177.905 339.766 C 177.905 331.574 170.225 328.95 160.369 328.95 L 143.217 328.95 L 143.217 330.166 C 148.401 330.166 149.361 332.214 149.361 334.07 L 149.361 366.198 z M 155.889 350.454 L 159.089 350.454 C 165.105 350.454 172.721 351.862 172.721 359.478 C 172.721 366.966 167.793 368.95 161.137 368.95 C 156.465 368.95 155.889 367.798 155.889 365.558 L 155.889 350.454 z M 155.889 347.894 L 155.889 333.366 C 155.889 331.126 157.937 331.254 163.825 331.638 C 168.305 332.47 171.377 335.094 171.377 339.958 C 171.377 345.142 167.601 347.894 161.137 347.894 L 155.889 347.894 z "
       transform="matrix(0.575668,-0.817683,0.817683,0.575668,-162.2945,378.5383)"
       style="font-size:64;font-weight:normal;fill:#ffd200;stroke:#000000;stroke-width:1pt;font-family:TempoFont;"
       id="path899" />
    <path
       d="M 368.241 371.318 C 385.393 371.318 394.033 363.254 394.033 350.262 C 394.033 335.862 384.113 328.95 367.729 328.95 L 351.217 328.95 L 351.217 330.166 C 355.889 330.166 356.849 332.214 356.849 334.07 L 356.849 366.198 C 356.849 368.054 355.889 370.102 351.217 370.102 L 351.217 371.318 L 368.241 371.318 z M 363.377 334.582 C 363.377 331.51 363.953 331.318 367.025 331.318 C 378.865 331.318 387.057 337.782 387.057 350.326 C 387.057 362.23 379.505 369.27 366.449 368.694 C 365.041 368.63 363.377 367.926 363.377 365.558 L 363.377 334.582 z "
       transform="matrix(0.996960,-7.791577e-2,7.791577e-2,0.996960,22.20802,13.66208)"
       style="font-size:64;font-weight:normal;fill:#ffd200;stroke:#000000;stroke-width:1pt;font-family:TempoFont;"
       id="path902" />
    <path
       d="M 613.873 366.198 C 613.873 368.054 612.913 370.102 608.433 370.102 L 608.433 371.318 L 626.033 371.318 L 626.033 370.102 C 621.361 370.102 620.401 368.054 620.401 366.198 L 620.401 351.734 L 623.985 351.606 L 639.217 371.318 L 649.521 371.318 L 649.521 370.102 C 646.641 369.91 645.169 368.63 643.441 366.518 L 630.769 350.902 C 636.785 350.07 642.353 346.934 642.353 340.15 C 642.353 332.662 635.953 328.95 625.329 328.95 L 608.433 328.95 L 608.433 330.166 C 612.913 330.166 613.873 332.214 613.873 334.07 L 613.873 366.198 z M 620.401 334.39 C 620.401 331.382 620.977 331.382 625.137 331.382 C 630.897 331.382 635.377 333.878 635.377 340.214 C 635.377 347.126 629.681 349.046 620.401 349.366 L 620.401 334.39 z "
       transform="matrix(0.509103,0.860706,-0.860706,0.509103,646.2854,-258.7708)"
       style="font-size:64;font-weight:normal;fill:#ffd200;stroke:#000000;stroke-width:1pt;font-family:TempoFont;"
       id="path905" />
    <path
       d="M 584.945 328.054 L 583.665 328.054 L 570.673 358.902 C 568.049 365.11 566.385 369.782 562.417 370.102 L 562.417 371.318 L 575.089 371.318 L 575.089 370.102 C 572.913 370.102 570.737 369.526 570.737 367.414 C 570.737 365.046 573.361 359.926 574.193 357.494 L 590.961 357.494 L 593.265 362.934 C 595.697 368.63 595.761 369.846 590.321 370.102 L 590.321 371.318 L 606.641 371.318 L 606.641 370.102 C 603.057 370.294 601.713 366.454 600.561 363.83 L 584.945 328.054 z M 582.641 337.27 L 590.065 354.87 L 575.281 354.87 L 582.641 337.27 z "
       transform="matrix(0.672565,0.740039,-0.740039,0.672565,502.3974,-247.7309)"
       style="font-size:64;font-weight:normal;fill:#ffd200;stroke:#000000;stroke-width:1pt;font-family:TempoFont;"
       id="path908" />
    <path
       d="M 673.841 328.054 L 672.561 328.054 L 659.569 358.902 C 656.945 365.11 655.281 369.782 651.313 370.102 L 651.313 371.318 L 663.985 371.318 L 663.985 370.102 C 661.809 370.102 659.633 369.526 659.633 367.414 C 659.633 365.046 662.257 359.926 663.089 357.494 L 679.857 357.494 L 682.161 362.934 C 684.593 368.63 684.657 369.846 679.217 370.102 L 679.217 371.318 L 695.537 371.318 L 695.537 370.102 C 691.953 370.294 690.609 366.454 689.457 363.83 L 673.841 328.054 z M 671.537 337.27 L 678.961 354.87 L 664.177 354.87 L 671.537 337.27 z "
       transform="matrix(0.401792,0.915731,-0.915731,0.401792,739.2097,-252.0349)"
       style="font-size:64;font-weight:normal;fill:#ffd200;stroke:#000000;stroke-width:1pt;font-family:TempoFont;"
       id="path911" />
    <path
       d="M 812.465 328.054 L 811.185 328.054 L 798.193 358.902 C 795.569 365.11 793.905 369.782 789.937 370.102 L 789.937 371.318 L 802.609 371.318 L 802.609 370.102 C 800.433 370.102 798.257 369.526 798.257 367.414 C 798.257 365.046 800.881 359.926 801.713 357.494 L 818.481 357.494 L 820.785 362.934 C 823.217 368.63 823.281 369.846 817.841 370.102 L 817.841 371.318 L 834.161 371.318 L 834.161 370.102 C 830.577 370.294 829.233 366.454 828.081 363.83 L 812.465 328.054 z M 810.161 337.27 L 817.585 354.87 L 802.801 354.87 L 810.161 337.27 z "
       transform="matrix(-0.117645,0.993055,-0.993055,-0.117645,1148.478,-122.3435)"
       style="font-size:64;font-weight:normal;fill:#ffd200;stroke:#000000;stroke-width:1pt;font-family:TempoFont;"
       id="path914" />
    <path
       d="M 311.217 328.054 L 309.937 328.054 L 296.945 358.902 C 294.321 365.11 292.657 369.782 288.689 370.102 L 288.689 371.318 L 301.361 371.318 L 301.361 370.102 C 299.185 370.102 297.009 369.526 297.009 367.414 C 297.009 365.046 299.633 359.926 300.465 357.494 L 317.233 357.494 L 319.537 362.934 C 321.969 368.63 322.033 369.846 316.593 370.102 L 316.593 371.318 L 332.913 371.318 L 332.913 370.102 C 329.329 370.294 327.985 366.454 326.833 363.83 L 311.217 328.054 z M 308.913 337.27 L 316.337 354.87 L 301.553 354.87 L 308.913 337.27 z "
       transform="matrix(0.929399,-0.369076,0.369076,0.929399,-77.68208,140.5750)"
       style="font-size:64;font-weight:normal;fill:#ffd200;stroke:#000000;stroke-width:1pt;font-family:TempoFont;"
       id="path918" />
    <path
       d="M 728.93 940.016 L 733.302 929.323 L 731.713 929.133 C 727.178 937.421 721.552 936.492 713.482 935.528 C 709.542 935.057 707.21 934.07 707.423 932.29 L 711.233 900.389 C 711.453 898.546 712.649 896.627 717.289 897.181 L 717.433 895.973 L 699.766 893.863 L 699.622 895.07 C 704.261 895.625 704.971 897.772 704.751 899.615 L 700.941 931.516 C 700.721 933.359 699.525 935.279 694.886 934.725 L 694.741 935.932 L 728.93 940.016 z "
       transform="matrix(0.416587,-0.909096,0.909096,0.416587,-458.6881,1006.731)"
       style="font-size:64;font-weight:normal;fill:#ffd200;stroke:#000000;stroke-width:1pt;font-family:TempoFont;"
       id="path932" />
    <path
       d="M 594.212 883.963 L 598.787 884.509 C 603.235 885.04 606.436 885.229 606.839 893.721 L 608.364 893.903 L 609.274 883.054 L 573.432 878.773 L 571.761 889.531 L 573.286 889.713 C 573.966 887.796 574.542 885.674 576.074 884.181 C 578.235 881.732 583.154 882.642 587.73 883.188 L 583.631 917.504 C 583.411 919.347 582.215 921.267 577.576 920.713 L 577.431 921.92 L 595.098 924.03 L 595.242 922.823 C 590.603 922.269 589.893 920.121 590.113 918.279 L 594.212 883.963 z "
       transform="matrix(0.733792,-0.679374,0.679374,0.733792,-457.6860,566.2103)"
       style="font-size:64;font-weight:normal;fill:#ffd200;stroke:#000000;stroke-width:1pt;font-family:TempoFont;"
       id="path937" />
    <path
       d="M 564.31 882.84 C 564.53 880.997 565.726 879.078 570.937 879.7 L 571.081 878.493 L 555.957 876.686 L 555.812 877.894 C 561.023 878.516 561.734 880.663 561.513 882.506 L 558.47 907.989 L 537.655 874.5 L 526.788 873.202 L 526.644 874.41 C 529.75 874.845 530.254 875.485 531.958 877.945 L 532.39 878.641 L 528.534 910.924 C 528.314 912.766 527.118 914.686 521.907 914.064 L 521.763 915.271 L 536.888 917.078 L 537.032 915.87 C 531.821 915.248 531.11 913.1 531.331 911.258 L 534.799 882.216 L 558.833 920.601 L 559.786 920.715 L 564.31 882.84 z "
       transform="matrix(0.869442,-0.494036,0.494036,0.869442,-371.7899,341.9662)"
       style="font-size:64;font-weight:normal;fill:#ffd200;stroke:#000000;stroke-width:1pt;font-family:TempoFont;"
       id="path938" />
    <path
       d="M 517.251 914.732 L 521.394 904.334 L 519.614 904.122 C 515.282 911.79 510.445 911.277 505.361 910.669 L 496.973 909.667 C 495.702 909.516 495.48 908.136 495.616 906.992 L 497.484 891.359 L 506.444 892.429 C 510.702 892.938 514.18 894.578 513.588 899.534 L 514.922 899.694 L 516.698 884.824 L 515.364 884.664 C 514.772 889.621 511.013 890.332 506.755 889.824 L 497.795 888.753 L 499.427 875.091 C 499.617 873.502 500.93 872.756 502.519 872.946 L 512.75 874.168 C 517.199 874.699 518.931 878 519.221 881.515 L 520.619 881.682 L 521.704 872.595 L 487.96 868.564 L 487.816 869.772 C 492.455 870.326 493.165 872.473 492.945 874.316 L 489.135 906.218 C 488.914 908.06 487.718 909.98 483.079 909.426 L 482.935 910.633 L 517.251 914.732 z "
       transform="matrix(0.938229,-0.346015,0.346015,0.938229,-276.6619,203.9106)"
       style="font-size:64;font-weight:normal;fill:#ffd200;stroke:#000000;stroke-width:1pt;font-family:TempoFont;"
       id="path939" />
    <path
       d="M 484.055 867.26 L 482.72 867.101 C 480.009 871.998 477.454 866.407 468.747 865.367 C 455.974 863.842 445.898 872.113 444.388 884.759 C 442.725 898.676 451.245 907.751 463.637 909.231 C 469.738 909.96 476.663 907.564 481.109 903.261 L 480.18 901.861 C 475.279 905.658 470.778 907.183 464.551 906.439 C 454.129 905.195 450.636 895.045 451.699 886.148 C 453.065 874.709 458.586 866.796 469.072 868.049 C 476.316 868.914 480.386 874.234 481.394 881.445 L 482.919 881.627 L 484.055 867.26 z "
       transform="matrix(0.986363,-0.164584,0.164584,0.986363,-142.3164,76.79692)"
       style="font-size:64;font-weight:normal;fill:#ffd200;stroke:#000000;stroke-width:1pt;font-family:TempoFont;"
       id="path940" />
    <path
       d="M 379.899 854.82 L 378.565 854.66 C 375.853 859.557 373.298 853.967 364.592 852.927 C 351.819 851.401 341.743 859.672 340.232 872.319 C 338.57 886.236 347.09 895.31 359.482 896.79 C 365.582 897.519 372.507 895.123 376.953 890.82 L 376.024 889.42 C 371.123 893.218 366.623 894.743 360.395 893.999 C 349.973 892.754 346.48 882.604 347.543 873.707 C 348.909 862.269 354.431 854.356 364.916 855.608 C 372.161 856.473 376.23 861.794 377.238 869.004 L 378.763 869.186 L 379.899 854.82 z "
       transform="matrix(0.985039,0.172331,-0.172331,0.985039,161.1423,-58.10336)"
       style="font-size:64;font-weight:normal;fill:#ffd200;stroke:#000000;stroke-width:1pt;font-family:TempoFont;"
       id="path943" />
    <path
       d="M 332.74 855.181 C 332.96 853.338 334.156 851.418 339.43 852.048 L 339.575 850.841 L 320.637 848.579 L 320.493 849.787 C 325.768 850.417 326.478 852.564 326.258 854.407 L 322.447 886.308 C 322.227 888.151 321.031 890.071 315.757 889.441 L 315.612 890.648 L 334.55 892.91 L 334.694 891.703 C 329.42 891.073 328.709 888.925 328.929 887.082 L 332.74 855.181 z "
       transform="matrix(0.960202,0.279306,-0.279306,0.960202,264.5670,-72.66391)"
       style="font-size:64;font-weight:normal;fill:#ffd200;stroke:#000000;stroke-width:1pt;font-family:TempoFont;"
       id="path944" />
    <path
       d="M 268.332 885.001 L 272.475 874.603 L 270.696 874.39 C 266.364 882.059 261.526 881.545 256.442 880.938 L 248.054 879.936 C 246.783 879.784 246.561 878.404 246.698 877.26 L 248.565 861.628 L 257.525 862.698 C 261.783 863.206 265.261 864.846 264.669 869.803 L 266.004 869.963 L 267.78 855.092 L 266.445 854.933 C 265.853 859.89 262.094 860.601 257.837 860.092 L 248.876 859.022 L 250.508 845.359 C 250.698 843.77 252.012 843.025 253.6 843.215 L 263.832 844.437 C 268.28 844.968 270.013 848.269 270.302 851.784 L 271.7 851.951 L 272.785 842.864 L 239.041 838.833 L 238.897 840.041 C 243.536 840.595 244.246 842.742 244.026 844.585 L 240.216 876.486 C 239.996 878.329 238.8 880.249 234.161 879.695 L 234.016 880.902 L 268.332 885.001 z "
       transform="matrix(0.842163,0.539223,-0.539223,0.842163,521.4125,-47.22133)"
       style="font-size:64;font-weight:normal;fill:#ffd200;stroke:#000000;stroke-width:1pt;font-family:TempoFont;"
       id="path947" />
    <path
       d="M 230.872 843.014 C 231.092 841.171 232.288 839.251 236.927 839.805 L 237.071 838.598 L 224.425 837.087 L 206.548 867.502 L 195.701 833.657 L 183.119 832.154 L 182.975 833.361 C 188.058 833.968 188.769 836.116 188.549 837.959 L 184.738 869.86 C 184.518 871.703 183.322 873.622 178.111 873 L 177.967 874.207 L 193.091 876.014 L 193.236 874.807 C 188.025 874.184 187.314 872.037 187.534 870.194 L 191.071 840.58 L 202.878 877.183 L 203.767 877.289 L 224.355 843.073 L 220.643 874.148 C 220.423 875.991 219.227 877.911 214.588 877.357 L 214.444 878.564 L 232.11 880.674 L 232.254 879.467 C 227.615 878.913 226.905 876.765 227.125 874.923 L 230.872 843.014 z "
       transform="matrix(0.751394,0.659854,-0.659854,0.751394,643.3429,-0.619537)"
       style="font-size:64;font-weight:normal;fill:#ffd200;stroke:#000000;stroke-width:1pt;font-family:TempoFont;"
       id="path948" />
    <path
       d="M 278.853 881.101 C 278.633 882.944 277.437 884.864 272.989 884.332 L 272.844 885.54 L 290.32 887.627 L 290.464 886.42 C 285.825 885.866 285.115 883.718 285.335 881.875 L 287.051 867.513 L 290.624 867.811 L 303.411 889.191 L 313.642 890.413 L 313.787 889.205 C 310.95 888.673 309.64 887.228 308.175 884.926 L 297.444 867.917 C 303.516 867.804 309.417 865.351 310.222 858.615 C 311.11 851.18 305.195 846.735 294.646 845.475 L 277.869 843.471 L 277.725 844.678 C 282.173 845.21 282.884 847.357 282.664 849.2 L 278.853 881.101 z M 289.108 850.292 C 289.464 847.305 290.036 847.373 294.167 847.867 C 299.886 848.55 304.039 851.56 303.287 857.851 C 302.467 864.714 296.584 865.945 287.331 865.162 L 289.108 850.292 z "
       transform="matrix(0.932723,0.360595,-0.360595,0.932723,344.8482,-74.04430)"
       style="font-size:64;font-weight:normal;fill:#ffd200;stroke:#000000;stroke-width:1pt;font-family:TempoFont;"
       id="path953" />
    <path
       d="M 406.47 857.929 L 405.199 857.777 L 388.64 886.866 C 385.299 892.719 383.092 897.161 379.114 897.008 L 378.97 898.216 L 391.553 899.719 L 391.697 898.511 C 389.536 898.253 387.444 897.423 387.694 895.326 C 387.975 892.975 391.188 888.202 392.302 885.886 L 408.952 887.875 L 410.595 893.549 C 412.334 899.494 412.253 900.709 406.821 900.318 L 406.677 901.525 L 422.882 903.461 L 423.026 902.253 C 419.445 902.019 418.566 898.046 417.733 895.304 L 406.47 857.929 z M 403.089 866.807 L 408.374 885.163 L 393.694 883.409 L 403.089 866.807 z "
       transform="translate(0.000000,-5.828049)"
       style="font-size:64;font-weight:normal;fill:#ffd200;stroke:#000000;stroke-width:1pt;font-family:TempoFont;"
       id="path956" />
    <path
       d="M 159.331 828.41 L 158.06 828.258 L 141.501 857.348 C 138.159 863.201 135.953 867.642 131.975 867.489 L 131.831 868.697 L 144.413 870.2 L 144.558 868.992 C 142.397 868.734 140.305 867.904 140.555 865.807 C 140.836 863.456 144.049 858.683 145.163 856.367 L 161.813 858.356 L 163.455 864.031 C 165.195 869.975 165.114 871.19 159.682 870.799 L 159.538 872.006 L 175.743 873.942 L 175.887 872.734 C 172.305 872.5 171.426 868.528 170.594 865.786 L 159.331 828.41 z M 155.95 837.288 L 161.234 855.644 L 146.555 853.891 L 155.95 837.288 z "
       transform="matrix(0.563280,0.826266,-0.826266,0.563280,819.5499,132.9990)"
       style="font-size:64;font-weight:normal;fill:#ffd200;stroke:#000000;stroke-width:1pt;font-family:TempoFont;"
       id="path959" />
    <path
       d="M 612.482 920.95 C 612.262 922.793 611.066 924.713 606.617 924.182 L 606.473 925.389 L 623.949 927.476 L 624.093 926.269 C 619.454 925.715 618.744 923.567 618.964 921.725 L 620.679 907.363 L 624.253 907.661 L 637.04 929.04 L 647.271 930.262 L 647.415 929.055 C 644.578 928.522 643.268 927.077 641.803 924.775 L 631.073 907.766 C 637.145 907.654 643.045 905.2 643.85 898.464 C 644.738 891.029 638.823 886.584 628.274 885.324 L 611.498 883.32 L 611.354 884.528 C 615.802 885.059 616.512 887.206 616.292 889.049 L 612.482 920.95 z M 622.736 890.141 C 623.093 887.154 623.665 887.223 627.795 887.716 C 633.515 888.399 637.667 891.409 636.916 897.7 C 636.096 904.563 630.212 905.794 620.96 905.011 L 622.736 890.141 z "
       transform="matrix(0.662500,-0.749062,0.749062,0.662500,-474.3096,673.2551)"
       style="font-size:64;font-weight:normal;fill:#ffd200;stroke:#000000;stroke-width:1pt;font-family:TempoFont;"
       id="path962" />
    <path
       d="M 676.55 890.188 L 675.279 890.036 L 658.721 919.125 C 655.379 924.978 653.172 929.42 649.194 929.267 L 649.05 930.475 L 661.633 931.977 L 661.777 930.77 C 659.616 930.512 657.524 929.682 657.775 927.585 C 658.055 925.234 661.268 920.461 662.383 918.145 L 679.032 920.133 L 680.675 925.808 C 682.414 931.753 682.334 932.968 676.902 932.577 L 676.757 933.784 L 692.962 935.72 L 693.106 934.512 C 689.525 934.278 688.646 930.305 687.813 927.563 L 676.55 890.188 z M 673.17 899.065 L 678.454 917.422 L 663.774 915.668 L 673.17 899.065 z "
       transform="matrix(0.485928,-0.873999,0.873999,0.485928,-475.1216,919.0538)"
       style="font-size:64;font-weight:normal;fill:#ffd200;stroke:#000000;stroke-width:1pt;font-family:TempoFont;"
       id="path965" />
    <ellipse
       cx="176.921753"
       cy="676.039185"
       rx="9.574593"
       ry="9.158325"
       transform="translate(2.497730,8.325775)"
       style="fill:#ffd200;fill-rule:evenodd;stroke:#000000;stroke-width:1pt;"
       id="path966" />
    <ellipse
       cx="176.921753"
       cy="676.039185"
       rx="9.574593"
       ry="9.158325"
       transform="translate(514.5301,19.98181)"
       style="fill:#ffd200;fill-rule:evenodd;stroke:#000000;stroke-width:1pt;"
       id="path967" />
  </g>
</svg>
