<?xml version="1.0" encoding="UTF-8" standalone="no"?>
<!DOCTYPE svg PUBLIC "-//W3C//DTD SVG 1.0//EN"
"http://www.w3.org/TR/2001/REC-SVG-20010904/DTD/svg10.dtd">
<!-- Created with Sodipodi ("http://www.sodipodi.com/") -->
<svg
   id="svg2498"
   sodipodi:version="0.33pre"
   xmlns="http://www.w3.org/2000/svg"
   xmlns:sodipodi="http://sodipodi.sourceforge.net/DTD/sodipodi-0.dtd"
   xmlns:xlink="http://www.w3.org/1999/xlink"
   width="280mm"
   height="140mm"
   sodipodi:docbase="/home/yemu/clipart/newnewnew"
   sodipodi:docname="/home/yemu/clipart/newnewnew/niue.svg">
  <defs
     id="defs2500" />
  <sodipodi:namedview
     id="base"
     showgrid="true"
     snaptogrid="false" />
  <rect
     style="font-size:12;fill:#ffffff;fill-rule:evenodd;stroke-width:1pt;fill-opacity:1;"
     id="rect1310"
     width="499.547358"
     height="248.100128"
     x="0.013254"
     y="-0.000366" />
  <path
     style="fill:#cc0000;stroke:none;"
     d="M 0.0132547 0.000331199 L -0.00755504 18.621 L 119.202 79.8743 L 164.056 81.1739 L 0.0132547 0.000331199 z "
     id="path549"
     sodipodi:nodetypes="ccccc" />
  <path
     style="fill:#000066;stroke:none;"
     d="M 51.0535 0.000331199 L 195.577 75.491 L 195.577 0.000331199 L 51.0535 0.000331199 z "
     id="path551"
     sodipodi:nodetypes="cccc" />
  <path
     style="fill:#cc0000;stroke:none;"
     d="M 214.858 0.000331199 L 214.858 96.3722 L 0.0132547 96.3722 L 0.0132547 151.442 L 214.858 151.442 L 214.858 247.814 L 280.964 247.814 L 280.964 151.442 L 495.808 151.442 L 495.808 96.3722 L 280.964 96.3722 L 280.964 0.000331199 L 214.858 0.000331199 z "
     id="path552" />
  <path
     style="fill:#000066;stroke:none;"
     d="M 300.244 0.000331199 L 300.244 71.132 L 441.628 0.551338 L 300.244 0.000331199 z "
     id="path554"
     sodipodi:nodetypes="cccc" />
  <path
     style="fill:#cc0000;stroke:none;"
     d="M 304.708 78.8874 L 344.474 78.5668 L 498.949 0.551338 L 457.957 1.21916 L 304.708 78.8874 z "
     id="path555"
     sodipodi:nodetypes="ccccc" />
  <path
     style="fill:#000066;stroke:none;"
     d="M 0.0132547 167.504 L 0.0132547 220.279 L 99.1722 168.055 L 0.0132547 167.504 z "
     id="path700"
     sodipodi:nodetypes="cccc" />
  <path
     style="fill:#cc0000;stroke:none;"
     d="M 381.851 169.683 L 340.515 169.362 L 496.331 246.942 L 495.306 229.193 L 381.851 169.683 z M 38.7339 248.25 L 184.835 171.542 L 146.462 171.796 L 0.0132553 248.135 "
     id="path701"
     sodipodi:nodetypes="ccccccccc" />
  <path
     style="fill:#000066;stroke:none;"
     d="M 497.901 21.7952 L 379.905 80.3105 L 496.331 80.7462 L 496.331 167.94 L 397.172 167.94 L 495.414 221.171 L 496.856 248.25 L 444.382 247.623 L 300.767 177.118 L 300.767 248.25 L 196.1 248.25 L 196.1 177.118 L 61.3808 248.059 L 0.536507 248.25 L 0.536507 496.063 L 992.126 496.063 L 992.126 0.436192 L 498.949 0.00033043 M 0.536507 27.9711 L 0.0132547 79.4385 L 104.405 80.7462 L 0.536507 27.9711 z "
     id="path556"
     sodipodi:nodetypes="cccccccccccccccccccccc" />
  <g
     id="g3304"
     style="fill:#ffd900;fill-opacity:1;">
    <rect
       style="font-size:12;fill:#ffd900;fill-rule:evenodd;stroke-width:1pt;fill-opacity:1;"
       id="rect3302"
       width="496.062988"
       height="496.062988"
       x="496.062988"
       y="-0.00001526" />
    <rect
       style="font-size:12;fill:#ffd900;fill-rule:evenodd;stroke-width:1pt;fill-opacity:1;"
       id="rect3303"
       width="523.491577"
       height="248.031509"
       x="0"
       y="248.031479" />
  </g>
  <g
     id="g3330"
     transform="translate(7.635727,-229.3897)">
    <path
       sodipodi:type="arc"
       style="fill-rule:evenodd;stroke:none;fill:#000067;fill-opacity:1;stroke-opacity:1;stroke-width:1pt;stroke-linejoin:miter;stroke-linecap:butt;"
       id="path3329"
       d="M 284.273956 354.680725 A 42.766876 42.766876 0 1 0 198.740204,354.680725 A 42.7669 42.7669 0 1 0 284.274 354.681 L 241.507080 354.680725 z"
       sodipodi:cx="241.507080"
       sodipodi:cy="354.680725"
       sodipodi:rx="42.766876"
       sodipodi:ry="42.766876"
       transform="translate(-1.006279,-1.525879e-5)" />
    <polygon
       points="591.041,433.161 533.774,391.476 476.501,433.151 498.449,365.806 441.115,324.214 511.946,324.278 533.785,256.897 555.613,324.281 626.445,324.23 569.104,365.812 591.041,433.161 "
       style="font-size:12;fill:#fff40d;fill-rule:evenodd;stroke-width:1pt;fill-opacity:1;"
       id="polygon3317"
       transform="matrix(0.376759,0.000000,0.000000,0.364962,39.67140,225.3619)" />
    <polygon
       points="591.041,433.161 533.774,391.476 476.501,433.151 498.449,365.806 441.115,324.214 511.946,324.278 533.785,256.897 555.613,324.281 626.445,324.23 569.104,365.812 591.041,433.161 "
       style="font-size:12;fill:#fff40d;fill-rule:evenodd;stroke-width:1pt;fill-opacity:1;"
       id="polygon3325"
       transform="matrix(0.186721,0.000000,0.000000,0.170858,285.5112,292.3334)" />
    <polygon
       points="591.041,433.161 533.774,391.476 476.501,433.151 498.449,365.806 441.115,324.214 511.946,324.278 533.785,256.897 555.613,324.281 626.445,324.23 569.104,365.812 591.041,433.161 "
       style="font-size:12;fill:#fff40d;fill-rule:evenodd;stroke-width:1pt;fill-opacity:1;"
       id="polygon3326"
       transform="matrix(0.186721,0.000000,0.000000,0.170858,140.8329,377.8671)" />
    <polygon
       points="591.041,433.161 533.774,391.476 476.501,433.151 498.449,365.806 441.115,324.214 511.946,324.278 533.785,256.897 555.613,324.281 626.445,324.23 569.104,365.812 591.041,433.161 "
       style="font-size:12;fill:#fff40d;fill-rule:evenodd;stroke-width:1pt;fill-opacity:1;"
       id="polygon3327"
       transform="matrix(0.186721,0.000000,0.000000,0.170858,140.8329,210.8247)" />
    <polygon
       points="591.041,433.161 533.774,391.476 476.501,433.151 498.449,365.806 441.115,324.214 511.946,324.278 533.785,256.897 555.613,324.281 626.445,324.23 569.104,365.812 591.041,433.161 "
       style="font-size:12;fill:#fff40d;fill-rule:evenodd;stroke-width:1pt;fill-opacity:1;"
       id="polygon3328"
       transform="matrix(0.186721,0.000000,0.000000,0.170858,-4.297295,292.3334)" />
  </g>
</svg>
