<?xml version="1.0" encoding="UTF-8" standalone="no"?>
<!DOCTYPE svg PUBLIC "-//W3C//DTD SVG 20010904//EN"
"http://www.w3.org/TR/2001/REC-SVG-20010904/DTD/svg10.dtd">
<!-- Created with Sodipodi ("http://www.sodipodi.com/") -->
<svg
   version="1"
   x="0"
   y="0"
   width="190.5mm"
   height="140mm"
   id="islenskifaninn"
   sodipodi:version="0.32"
   sodipodi:docname="/home/cschalle/sodipodi-flags/nations/norway.svg"
   sodipodi:docbase="/home/cschalle/sodipodi-flags/nations/"
   xmlns="http://www.w3.org/2000/svg"
   xmlns:sodipodi="http://sodipodi.sourceforge.net/DTD/sodipodi-0.dtd"
   xmlns:xlink="http://www.w3.org/1999/xlink">
  <sodipodi:namedview
     id="base"
     showgrid="true"
     gridoriginx="0mm"
     gridoriginy="4mm"
     gridspacingx="7mm"
     gridspacingy="7mm"
     snaptogrid="true" />
  <defs
     id="defs380" />
  <rect
     style="font-size:12;fill:#ffffff;fill-rule:evenodd;stroke-width:1pt;fill-opacity:1;"
     id="rect583"
     width="676.068298"
     height="494.529372"
     x="-0.000008"
     y="2.570132" />
  <rect
     style="font-size:12;fill:#d72828;fill-rule:evenodd;stroke-width:1pt;"
     id="rect561"
     width="151.119418"
     height="153.134338"
     x="-0.000000"
     y="0.402926"
     transform="matrix(1.235687,0.000000,0.000000,1.235687,0.440069,4.409813)" />
  <rect
     style="font-size:12;fill:#d72828;fill-rule:evenodd;stroke-width:1pt;"
     id="rect562"
     width="297.833494"
     height="152.970398"
     x="247.835841"
     y="0.566903"
     transform="matrix(1.235687,0.000000,0.000000,1.235687,0.440069,4.409813)" />
  <rect
     style="font-size:12;fill:#d72828;fill-rule:evenodd;stroke-width:1pt;"
     id="rect563"
     width="148.818885"
     height="148.818924"
     x="0.000000"
     y="248.598358"
     transform="matrix(1.235687,0.000000,0.000000,1.235687,0.440069,4.409813)" />
  <rect
     style="font-size:12;fill:#d72828;fill-rule:evenodd;stroke-width:1pt;"
     id="rect564"
     width="295.818604"
     height="147.163635"
     x="249.850754"
     y="250.253652"
     transform="matrix(1.235687,0.000000,0.000000,1.235687,0.440069,4.409813)" />
  <rect
     style="font-size:12;fill:#003897;fill-rule:evenodd;stroke-width:1pt;"
     id="rect565"
     width="50.373138"
     height="399.029266"
     x="175.298492"
     y="-1.611940"
     transform="matrix(1.235687,0.000000,0.000000,1.235687,0.440069,4.409813)" />
  <rect
     style="font-size:12;fill:#003897;fill-rule:evenodd;stroke-width:1pt;"
     id="rect566"
     width="545.669278"
     height="49.606346"
     x="0.000008"
     y="174.188904"
     transform="matrix(1.235687,0.000000,0.000000,1.235687,0.440069,4.409813)" />
</svg>
