<?xml version="1.0" encoding="UTF-8" standalone="no"?>
<!DOCTYPE svg PUBLIC "-//W3C//DTD SVG 20010904//EN"
"http://www.w3.org/TR/2001/REC-SVG-20010904/DTD/svg10.dtd"
[
 <!ATTLIST svg
  xmlns:xlink CDATA #FIXED "http://www.w3.org/1999/xlink">
]>
<!-- Created with Sodipodi ("http://www.sodipodi.com/") -->
<svg
   xmlns="http://www.w3.org/2000/svg"
   xmlns:xlink="http://www.w3.org/1999/xlink"
   version="1"
   x="0"
   y="0"
   width="1062.99"
   height="708.661"
   id="svg378">
  <defs
     id="defs380" />
  <rect
     width="1062.99"
     height="708.661"
     x="0"
     y="0"
     style="font-size:12;fill:#f50013;fill-rule:evenodd;stroke-width:1pt;"
     id="rect149" />
  <rect
     width="1062.99"
     height="354.331"
     x="0"
     y="0"
     style="font-size:12;fill:#00189a;fill-rule:evenodd;stroke-width:1pt;"
     id="rect280" />
  <path
     d="M 0 0 L 609.958 353.876 L 0 707.296 L 0 0 z "
     style="font-size:12;fill:#feffff;fill-rule:evenodd;stroke-width:1pt;"
     id="path279" />
  <path
     d="M 266.186 534.45 L 255.778 527.018 L 245.421 534.523 L 249.273 522.327 L 238.935 514.796 L 251.725 514.691 L 255.692 502.532 L 259.744 514.663 L 272.534 514.679 L 262.249 522.281 L 266.186 534.45 z "
     transform="matrix(0.873933,1.97019,-2.06044,0.913966,897.478,-367.586)"
     style="font-size:12;fill:#eca300;fill-rule:evenodd;stroke-width:0.112872;"
     id="path205" />
  <path
     d="M 212.741 285.315 L 224.124 243.335 L 216.298 233.373 L 207.049 284.602 L 212.741 285.315 z M 188.549 285.315 L 181.434 227.682 L 194.952 212.029 L 208.471 224.836 L 202.068 284.602 L 188.549 285.315 z M 177.876 286.027 L 166.493 244.047 L 174.319 234.085 L 183.568 285.314 L 177.876 286.027 z "
     transform="matrix(0.702322,-0.711859,0.711859,0.702322,-193.877,244.12)"
     style="font-size:12;fill:#eca300;fill-rule:evenodd;stroke-width:1pt;"
     id="path425" />
  <path
     d="M 212.741 285.315 L 224.124 243.335 L 216.298 233.373 L 207.049 284.602 L 212.741 285.315 z M 188.549 285.315 L 181.434 227.682 L 194.952 212.029 L 208.471 224.836 L 202.068 284.602 L 188.549 285.315 z M 177.876 286.027 L 166.493 244.047 L 174.319 234.085 L 183.568 285.314 L 177.876 286.027 z "
     transform="matrix(0.999999,0.000994443,-0.000994443,0.999999,0.352006,-0.193734)"
     style="font-size:12;fill:#eca300;fill-rule:evenodd;stroke-width:1pt;"
     id="path426" />
  <path
     d="M 212.741 285.315 L 224.124 243.335 L 216.298 233.373 L 207.049 284.602 L 212.741 285.315 z M 188.549 285.315 L 181.434 227.682 L 194.952 212.029 L 208.471 224.836 L 202.068 284.602 L 188.549 285.315 z M 177.876 286.027 L 166.493 244.047 L 174.319 234.085 L 183.568 285.314 L 177.876 286.027 z "
     transform="matrix(0.693189,0.720755,-0.720755,0.693189,314.872,-31.9403)"
     style="font-size:12;fill:#eca300;fill-rule:evenodd;stroke-width:1pt;"
     id="path427" />
  <path
     d="M 212.741 285.315 L 224.124 243.335 L 216.298 233.373 L 207.049 284.602 L 212.741 285.315 z M 188.549 285.315 L 181.434 227.682 L 194.952 212.029 L 208.471 224.836 L 202.068 284.602 L 188.549 285.315 z M 177.876 286.027 L 166.493 244.047 L 174.319 234.085 L 183.568 285.314 L 177.876 286.027 z "
     transform="matrix(-0.00151958,0.999999,-0.999999,-0.00151958,549.124,159.461)"
     style="font-size:12;fill:#eca300;fill-rule:evenodd;stroke-width:1pt;"
     id="path428" />
  <path
     d="M 212.741 285.315 L 224.124 243.335 L 216.298 233.373 L 207.049 284.602 L 212.741 285.315 z M 188.549 285.315 L 181.434 227.682 L 194.952 212.029 L 208.471 224.836 L 202.068 284.602 L 188.549 285.315 z M 177.876 286.027 L 166.493 244.047 L 174.319 234.085 L 183.568 285.314 L 177.876 286.027 z "
     transform="matrix(-0.699173,0.714953,-0.714953,-0.699173,584.263,461.915)"
     style="font-size:12;fill:#eca300;fill-rule:evenodd;stroke-width:1pt;"
     id="path429" />
  <path
     d="M 212.741 285.315 L 224.124 243.335 L 216.298 233.373 L 207.049 284.602 L 212.741 285.315 z M 188.549 285.315 L 181.434 227.682 L 194.952 212.029 L 208.471 224.836 L 202.068 284.602 L 188.549 285.315 z M 177.876 286.027 L 166.493 244.047 L 174.319 234.085 L 183.568 285.314 L 177.876 286.027 z "
     transform="matrix(-0.999983,0.00588184,-0.00588184,-0.999983,391.983,706.599)"
     style="font-size:12;fill:#eca300;fill-rule:evenodd;stroke-width:1pt;"
     id="path430" />
  <path
     d="M 212.741 285.315 L 224.124 243.335 L 216.298 233.373 L 207.049 284.602 L 212.741 285.315 z M 188.549 285.315 L 181.434 227.682 L 194.952 212.029 L 208.471 224.836 L 202.068 284.602 L 188.549 285.315 z M 177.876 286.027 L 166.493 244.047 L 174.319 234.085 L 183.568 285.314 L 177.876 286.027 z "
     transform="matrix(-0.704682,-0.709523,0.709523,-0.704682,81.2489,741.569)"
     style="font-size:12;fill:#eca300;fill-rule:evenodd;stroke-width:1pt;"
     id="path431" />
  <path
     d="M 212.741 285.315 L 224.124 243.335 L 216.298 233.373 L 207.049 284.602 L 212.741 285.315 z M 188.549 285.315 L 181.434 227.682 L 194.952 212.029 L 208.471 224.836 L 202.068 284.602 L 188.549 285.315 z M 177.876 286.027 L 166.493 244.047 L 174.319 234.085 L 183.568 285.314 L 177.876 286.027 z "
     transform="matrix(-0.00557694,-0.999984,0.999984,-0.00557694,-157.831,550.799)"
     style="font-size:12;fill:#eca300;fill-rule:evenodd;stroke-width:1pt;"
     id="path432" />
  <path
     d="M 266.186 534.45 L 255.778 527.018 L 245.421 534.523 L 249.273 522.327 L 238.935 514.796 L 251.725 514.691 L 255.692 502.532 L 259.744 514.663 L 272.534 514.679 L 262.249 522.281 L 266.186 534.45 z "
     transform="matrix(2.05182,0.659882,-0.690111,2.14581,327.171,-931.587)"
     style="font-size:12;fill:#eca300;fill-rule:evenodd;stroke-width:0.112872;"
     id="path433" />
  <path
     d="M 266.186 534.45 L 255.778 527.018 L 245.421 534.523 L 249.273 522.327 L 238.935 514.796 L 251.725 514.691 L 255.692 502.532 L 259.744 514.663 L 272.534 514.679 L 262.249 522.281 L 266.186 534.45 z "
     transform="matrix(1.579,1.46703,-1.53423,1.65133,444.171,-1137.05)"
     style="font-size:12;fill:#eca300;fill-rule:evenodd;stroke-width:0.112872;"
     id="path434" />
  <ellipse
     cx="190.683624"
     cy="353.876007"
     rx="73.028603"
     ry="73.028595"
     transform="translate(4.26905,-2.39696e-05)"
     style="font-size:12;fill:#eca300;fill-rule:evenodd;stroke-width:1pt;"
     id="path418" />
</svg>
