<?xml version="1.0" encoding="UTF-8" standalone="no"?>
<!DOCTYPE svg PUBLIC "-//W3C//DTD SVG 20010904//EN"
"http://www.w3.org/TR/2001/REC-SVG-20010904/DTD/svg10.dtd">
<!-- Created with Sodipodi ("http://www.sodipodi.com/") -->
<svg
   id="svg548"
   sodipodi:version="0.33"
   width="280mm"
   height="140mm"
   sodipodi:docbase="/home/tobias/Desktop/Flags/"
   sodipodi:docname="/home/tobias/Desktop/Flags/Pitcairn_Islands2.svg"
   xmlns="http://www.w3.org/2000/svg"
   xmlns:sodipodi="http://sodipodi.sourceforge.net/DTD/sodipodi-0.dtd"
   xmlns:xlink="http://www.w3.org/1999/xlink">
  <defs
     id="defs550" />
  <sodipodi:namedview
     id="base" />
  <rect
     style="font-size:12;fill:#000066;stroke-width:1pt;"
     id="rect877"
     x="0"
     y="-2.193451e-5"
     width="992.1260"
     height="496.0630" />
  <g
     id="g878"
     transform="matrix(8.267717,0.000000,0.000000,8.267722,0.000000,2.288818e-5)"
     style="font-size:12;">
    <path
       style="font-size:12;fill:#ffffff;stroke-width:1pt;"
       d="M 0 0 L 0 3.3541 L 53.2918 30 L 60 30 L 60 26.6459 L 6.7082 0 L 0 0 z M 60 0 L 60 3.35405 L 6.7082 30 L 0 30 L 0 26.6458 L 53.2918 0 L 60 0 z "
       id="path879" />
    <path
       style="font-size:12;fill:#ffffff;stroke-width:1pt;"
       d="M 25 0 L 25 30 L 35 30 L 35 0 L 25 0 z M 0 10 L 0 20 L 60 20 L 60 10 L 0 10 z "
       id="path880" />
    <path
       style="font-size:12;fill:#cc0000;stroke-width:1pt;"
       d="M 0 12 L 0 18 L 60 18 L 60 12 L 0 12 z M 27 0 L 27 30 L 33 30 L 33 0 L 27 0 z "
       id="path881" />
    <path
       style="font-size:12;fill:#cc0000;stroke-width:1pt;"
       d="M 0 30 L 20 20 L 24.4721 20 L 4.47214 30 L 0 30 z M 0 0 L 20 10 L 15.5279 10 L 0 2.23607 L 0 0 z M 35.5279 10 L 55.5279 0 L 60 0 L 40 10 L 35.5279 10 z M 60 30 L 40 20 L 44.4721 20 L 60 27.7639 L 60 30 z "
       id="path882" />
  </g>
  <g
     id="g635"
     transform="matrix(1.620386,0,0,1.620386,-506.0128,-166.3934)">
    <rect
       style="font-size:12.000;fill:#5a5152;fill-rule:evenodd;stroke-width:1;stroke:none;stroke-opacity:1.0000;fill-opacity:1.0000;"
       id="rect634"
       width="28.7874756"
       height="21.3027039"
       x="766.897095"
       y="223.733902" />
    <path
       style="fill:#5a5152;fill-rule:evenodd;stroke:black;stroke-opacity:1;stroke-width:1pt;stroke-linejoin:miter;stroke-linecap:butt;fill-opacity:1.0000;"
       d="M 790.4809 145.9931 C 790.4809 145.9931 776.5168 162.7237 776.6485 165.8853 C 776.7803 169.0469 771.2473 170.7596 771.2473 170.7596 C 771.2473 170.7596 752.1455 175.6338 748.1934 167.9931 C 744.2413 160.3523 744.5048 154.2925 750.5647 152.8434 C 756.6246 151.3943 758.2054 155.3464 758.2054 155.3464 C 758.2054 155.3464 760.9719 156.5320 765.1875 156.1368 C 769.4030 155.7416 772.6964 154.9512 779.6785 149.8135 C 786.6605 144.6757 791.2713 140.4602 793.6425 140.7236 C 796.0138 140.9871 797.1994 142.1728 797.0677 144.1488 C 796.9360 146.1248 790.4809 146.1248 790.4809 145.9931 z "
       id="path598" />
    <path
       sodipodi:type="arc"
       style="fill-rule:evenodd;stroke:#000000;fill:#5a5152;fill-opacity:1.0000;stroke-opacity:1.0000;stroke-width:1pt;stroke-linejoin:miter;stroke-linecap:butt;"
       id="path604"
       d="M 439.8682 66.57773 A 6.191635 6.191635 0 1 "
       sodipodi:cx="433.6766"
       sodipodi:cy="66.57773"
       sodipodi:rx="6.191635"
       sodipodi:ry="6.191635"
       transform="matrix(1.553188,0,0,1.553188,76.98320,66.82486)" />
    <path
       sodipodi:type="arc"
       style="fill-rule:evenodd;stroke:#000000;fill:#000063;fill-opacity:1.0000;stroke-opacity:1.0000;stroke-width:1pt;stroke-linejoin:miter;stroke-linecap:butt;"
       id="path603"
       d="M 439.8682 66.57773 A 6.191635 6.191635 0 1 "
       sodipodi:cx="433.6766"
       sodipodi:cy="66.57773"
       sodipodi:rx="6.191635"
       sodipodi:ry="6.191635"
       transform="translate(316.8880,103.6549)" />
    <path
       style="fill:#5a5152;fill-rule:evenodd;stroke:black;stroke-opacity:1;stroke-width:1pt;stroke-linejoin:miter;stroke-linecap:butt;fill-opacity:1.0000;"
       d="M 756.2504 172.2076 C 753.6114 171.8957 750.7449 171.4846 748.1934 167.9931 C 747.3798 166.3813 747.2995 167.0013 746.9713 165.2543 C 752.3930 161.7789 757.4515 166.2480 756.2504 172.2076 z "
       id="path633"
       sodipodi:nodetypes="cccc" />
    <path
       style="fill:#316d3a;fill-rule:evenodd;stroke:black;stroke-opacity:1;stroke-width:1pt;stroke-linejoin:miter;stroke-linecap:butt;fill-opacity:1.0000;"
       d="M 788.4428 192.5840 C 788.4428 192.5840 793.4594 192.1981 794.7457 193.7417 C 796.0320 195.2853 806.8368 227.4425 826.3885 227.0566 C 833.2058 226.7994 835.2639 222.6832 835.2639 222.6832 C 835.2639 222.6832 837.0647 231.4300 816.9985 235.4175 C 814.0401 235.1603 808.2518 231.9445 808.2518 231.9445 C 808.2518 231.9445 812.6252 237.8614 819.1852 238.8905 C 825.7453 239.9195 844.1393 243.7785 847.3550 246.6083 C 850.5708 249.4381 855.7159 254.1974 855.7159 254.1974 C 855.7159 254.1974 857.3881 265.9026 850.4422 268.2179 C 844.5253 259.8571 814.9405 250.0813 814.9405 250.0813 L 796.6751 238.1188 L 784.3267 217.7953 L 788.4428 192.5840 z "
       id="path624"
       sodipodi:nodetypes="cccccccccccccc" />
    <path
       style="fill:#5a5152;fill-rule:evenodd;stroke:black;stroke-opacity:1;stroke-width:1pt;stroke-linejoin:miter;stroke-linecap:butt;fill-opacity:1.0000;"
       d="M 768.7022 161.0002 C 768.7022 161.0002 781.8065 150.6308 783.6298 150.5168 C 785.4530 150.4028 795.1388 153.1376 795.1388 153.1376 L 786.1367 169.2047 L 765.7395 167.2675 L 768.7022 161.0002 z "
       id="path620" />
    <path
       style="fill:#5a5152;fill-rule:evenodd;stroke:black;stroke-opacity:1;stroke-width:1pt;stroke-linejoin:miter;stroke-linecap:butt;fill-opacity:1.0000;"
       d="M 802.2054 152.3165 C 802.2054 152.3165 788.2413 169.0471 788.3730 172.2087 C 788.5048 175.3704 782.9718 177.0830 782.9718 177.0830 C 782.9718 177.0830 763.8700 181.9573 759.9179 174.3165 C 755.9658 166.6758 756.2293 160.6160 762.2892 159.1668 C 768.3491 157.7177 769.9299 161.6698 769.9299 161.6698 C 769.9299 161.6698 772.6964 162.8554 776.9120 162.4602 C 781.1275 162.0650 784.4209 161.2746 791.4030 156.1369 C 798.3850 150.9992 802.9958 146.7836 805.3670 147.0471 C 807.7383 147.3105 808.9239 148.4962 808.7922 150.4722 C 808.6605 152.4482 802.2054 152.4482 802.2054 152.3165 z "
       id="path597" />
    <path
       style="fill:none;fill-rule:evenodd;stroke:black;stroke-opacity:1;stroke-width:1pt;stroke-linejoin:miter;stroke-linecap:butt;fill-opacity:1;"
       d="M 750.6964 164.2503 L 750.5646 176.4243 "
       id="path599"
       sodipodi:nodetypes="cc" />
    <path
       style="fill:none;fill-rule:evenodd;stroke:black;stroke-opacity:1;stroke-width:1pt;stroke-linejoin:miter;stroke-linecap:butt;fill-opacity:1;"
       d="M 746.0856 173.6578 L 755.1754 166.5441 "
       id="path600" />
    <path
       style="fill:none;fill-rule:evenodd;stroke:black;stroke-opacity:1;stroke-width:1pt;stroke-linejoin:miter;stroke-linecap:butt;fill-opacity:1;"
       d="M 754.7802 174.5800 L 746.3491 165.8853 "
       id="path601" />
    <path
       style="fill:none;fill-rule:evenodd;stroke:black;stroke-opacity:1;stroke-width:1pt;stroke-linejoin:miter;stroke-linecap:butt;fill-opacity:1;"
       d="M 744.5048 170.2327 L 756.4928 170.6279 "
       id="path602" />
    <path
       style="fill:#bd1429;fill-rule:evenodd;stroke:black;stroke-opacity:1;stroke-width:1pt;stroke-linejoin:miter;stroke-linecap:butt;fill-opacity:1.0000;"
       d="M 774.4089 133.0830 L 777.5706 137.9573 C 777.5706 137.9573 783.3670 139.9333 784.9479 139.5381 C 786.5287 139.1429 790.4808 137.4302 792.9838 139.8015 C 795.4868 142.1728 793.3790 137.0351 793.3790 137.0351 L 796.5407 134.0052 C 796.5407 134.0052 791.7982 134.0052 790.3491 133.0830 C 788.9000 132.1608 785.4748 130.1847 784.0257 129.9213 C 782.5766 129.6579 777.7024 130.0531 777.7024 130.0531 L 774.4089 133.0830 z "
       id="path605" />
    <path
       sodipodi:type="arc"
       style="fill-rule:evenodd;stroke:#000000;fill:#efe763;fill-opacity:1.0000;stroke-opacity:1.0000;stroke-width:1pt;stroke-linejoin:miter;stroke-linecap:butt;"
       id="path606"
       d="M 472.6707 31.27240 A 5.269470 1.844254 0 1 "
       sodipodi:cx="467.4012"
       sodipodi:cy="31.27240"
       sodipodi:rx="5.269470"
       sodipodi:ry="1.844254"
       transform="matrix(0.994545,0.104313,-0.104313,0.994545,322.7000,55.06941)" />
    <path
       style="fill:#316d3a;fill-rule:evenodd;stroke:black;stroke-opacity:1;stroke-width:1.2500;stroke-linejoin:round;stroke-linecap:butt;fill-opacity:1.0000;stroke-dasharray:none;"
       d="M 771.6425 154.5560 C 771.6425 154.5560 764.2652 146.5201 765.9778 139.4063 C 767.6904 132.2926 770.0616 133.2147 770.0616 133.2147 C 770.0616 133.2147 773.4868 132.4242 771.9060 137.5620 C 774.2772 137.2986 776.7802 137.6938 776.7802 137.6938 C 776.7802 137.6938 779.6784 136.7717 775.0676 133.0830 C 777.5707 132.8195 778.4928 129.9213 778.4928 129.9213 C 778.4928 129.9213 774.9359 128.7356 774.5407 128.9992 C 774.1455 129.2627 772.3012 126.2327 771.2473 126.8914 C 770.1934 127.5500 771.2473 131.3705 771.2473 131.3705 C 771.2473 131.3705 766.5047 130.4482 765.9778 132.4243 C 765.4509 134.4004 765.8461 128.7357 765.8461 128.7357 C 765.8461 128.7357 767.4269 128.0771 767.1635 126.2327 C 766.9000 124.3884 761.3671 120.4363 756.6245 121.2267 C 752.6724 121.6219 743.3191 126.4962 742.9239 140.7237 C 748.0617 123.9931 764.2652 126.4962 764.2652 126.4962 C 764.2652 126.4962 761.6305 137.2985 762.0257 140.5920 C 762.4210 143.8854 768.2173 156.1369 768.2173 156.1369 L 771.6425 154.5560 z "
       id="path608"
       sodipodi:nodetypes="ccccccccccccccccccc" />
    <path
       style="font-size:12.000;fill:#42a6e6;fill-rule:evenodd;stroke:#000000;stroke-width:1.250000;stroke-linejoin:round;fill-opacity:1.0000;"
       d="M 401.9297 135.6400 L 497.9015 135.4422 L 497.9015 196.6781 C 495.4702 224.8297 473.0768 254.9009 450.2995 267.3133 C 418.4161 246.9535 411.3338 230.0784 401.9297 200.6963 L 401.9297 135.6400 z "
       id="path571"
       sodipodi:nodetypes="cccccc"
       transform="translate(316.8880,103.6549)" />
    <path
       style="font-size:12.000;fill:#316d3a;fill-rule:evenodd;stroke:#000000;stroke-width:1.246331;stroke-linejoin:round;fill-opacity:1.0000;"
       d="M 449.9156 136.3135 L 492.8811 216.6722 C 487.1672 232.7572 472.4976 254.0138 450.2995 267.3133 C 431.9326 256.6709 414.8094 237.7832 409.2672 221.4347 L 449.9156 136.3135 z "
       id="path563"
       sodipodi:nodetypes="ccccc"
       transform="translate(316.8880,103.6549)" />
    <rect
       style="font-size:12.000;fill:#7f7f7f;fill-rule:evenodd;stroke:#7f7f7f;"
       id="rect565"
       width="13.75787"
       height="17.61978"
       x="443.7276"
       y="170.5067"
       transform="translate(316.8880,103.6549)" />
    <rect
       style="font-size:12.000;fill:#ffffff;fill-rule:evenodd;stroke:#000000;"
       id="rect564"
       width="13.7578735"
       height="17.6197815"
       x="442.520752"
       y="171.713531"
       transform="translate(316.8880,103.6549)" />
    <path
       style="font-size:12.000;fill:#efe763;fill-rule:evenodd;stroke:#000000;stroke-width:1;stroke-linejoin:round;fill-opacity:1.0000;"
       d="M 451.7414 191.0705 L 451.6448 202.6560 L 467.8646 203.5249 C 467.8646 203.5249 468.0577 208.8349 467.8646 208.7384 C 467.6715 208.6419 453.8654 210.3797 453.6723 210.5728 C 453.4792 210.7659 453.5757 249.0949 453.5757 249.0949 C 453.5757 249.0949 467.7681 240.5023 467.6715 240.4057 C 467.5750 240.3091 462.3615 239.2471 462.3615 239.2471 C 462.3615 239.2471 470.3748 229.4960 474.1401 228.3374 C 475.1056 233.6474 474.8159 243.2055 474.7194 243.2055 C 474.6228 243.2055 471.0506 240.9850 469.6990 242.1435 C 468.3473 243.3020 450.8724 258.7495 450.8724 258.7495 C 450.8724 258.7495 433.3975 240.8884 430.9838 241.7573 C 428.5701 242.6262 426.3496 243.0124 426.3496 243.0124 L 426.5427 228.2408 C 426.5427 228.2408 437.8386 233.4543 438.6110 238.7644 C 435.8112 238.5712 434.4595 240.6953 434.4595 240.6953 L 447.4933 249.2880 L 447.3967 210.3797 L 433.3975 208.7384 L 433.1078 203.4283 L 446.4313 202.7525 C 446.4313 202.7525 440.2523 202.2698 440.2523 197.3459 C 440.2523 192.4221 444.9831 192.3255 444.9831 192.3255 L 449.5208 192.3255 L 449.5207 191.0704 L 451.7414 191.0705 z "
       id="path566"
       sodipodi:nodetypes="ccccccccccccccccccccccccccc"
       transform="translate(316.8880,103.6549)" />
    <path
       sodipodi:type="arc"
       style="font-size:12.000;fill:#808080;fill-rule:evenodd;stroke-width:1;"
       id="path567"
       d="M 446.1417 197.5390 A 0.048279 0.096550 0 1 "
       sodipodi:cx="446.0934"
       sodipodi:cy="197.5390"
       sodipodi:rx="4.827881e-2"
       sodipodi:ry="9.654999e-2"
       transform="translate(316.8880,103.6549)" />
    <path
       sodipodi:type="arc"
       style="font-size:12.000;fill:#296d3a;fill-rule:evenodd;stroke:#000000;stroke-width:1;fill-opacity:1.0000;"
       id="path568"
       d="M 449.6173 197.5390 A 3.186035 3.186035 0 1 "
       sodipodi:cx="446.4313"
       sodipodi:cy="197.5390"
       sodipodi:rx="3.186035"
       sodipodi:ry="3.186035"
       transform="matrix(0.909076,0,0,0.909076,357.4795,121.6160)" />
    <path
       style="font-size:12.000;fill:#efeb19;fill-rule:evenodd;stroke:#000000;stroke-width:1.250000;stroke-linejoin:round;fill-opacity:1.0000;"
       d="M 723.7352 318.5722 L 766.9881 239.5972 L 810.4340 318.9584 C 810.4340 318.9584 808.3100 325.1374 808.1169 325.1374 C 807.9238 325.1374 766.2157 254.4653 766.2157 254.4653 L 727.0178 326.2959 L 723.7352 318.5722 z "
       id="path569"
       sodipodi:nodetypes="ccccccc" />
    <path
       style="fill:#efe763;fill-rule:evenodd;stroke:black;stroke-opacity:1;stroke-width:1pt;stroke-linejoin:miter;stroke-linecap:butt;fill-opacity:1.0000;"
       d="M 823.6784 335.9572 C 822.2293 335.4303 817.4868 336.2206 814.5886 345.8374 C 809.0557 353.0829 799.0437 355.3225 799.0437 355.3225 L 805.2353 356.2446 L 805.1036 359.5380 L 807.6066 359.0111 L 806.6844 362.0410 L 809.9778 360.9872 L 810.1095 363.4902 L 811.0317 362.8314 L 810.9000 364.6758 L 814.7203 364.0171 C 814.7203 364.0171 814.7203 365.9931 814.8521 365.8614 C 814.9838 365.7297 816.8281 365.2027 816.8281 365.2027 L 818.5407 366.7835 L 819.7263 364.8075 L 824.2054 364.5440 C 824.2054 364.5440 820.7802 365.3345 821.5706 347.8135 C 828.6844 341.8853 825.1275 336.0890 823.6784 335.9572 z "
       id="path581"
       sodipodi:nodetypes="ccccccccccccccccccc" />
    <path
       style="fill:none;fill-rule:evenodd;stroke:black;stroke-opacity:1;stroke-width:1pt;stroke-linejoin:miter;stroke-linecap:butt;fill-opacity:1;"
       d="M 809.7143 353.3464 L 805.3670 356.2446 "
       id="path582" />
    <path
       style="fill:none;fill-rule:evenodd;stroke:black;stroke-opacity:1;stroke-width:1pt;stroke-linejoin:miter;stroke-linecap:butt;fill-opacity:1;"
       d="M 816.3012 348.2087 C 816.3012 348.2087 814.7203 353.7416 807.8700 359.0111 "
       id="path583" />
    <path
       style="fill:none;fill-rule:evenodd;stroke:black;stroke-opacity:1;stroke-width:1pt;stroke-linejoin:miter;stroke-linecap:butt;fill-opacity:1;"
       d="M 816.5646 352.4242 C 816.5646 352.4242 811.8222 362.5680 811.2952 363.3584 "
       id="path584" />
    <path
       style="fill:none;fill-rule:evenodd;stroke:black;stroke-opacity:1;stroke-width:1pt;stroke-linejoin:miter;stroke-linecap:butt;fill-opacity:1;"
       d="M 818.0138 352.2926 L 818.6724 366.6518 "
       id="path585" />
    <path
       style="fill:#efe763;fill-rule:evenodd;stroke:black;stroke-opacity:1;stroke-width:1pt;stroke-linejoin:round;stroke-linecap:butt;fill-opacity:1.0000;"
       d="M 814.8521 253.8854 C 814.8521 253.8854 837.1156 270.8795 827.2353 300.3884 C 822.3611 278.7835 814.8521 273.9093 814.8521 273.9093 L 814.8521 253.8854 z "
       id="path586"
       sodipodi:nodetypes="cccc" />
    <path
       style="fill:#316d3a;fill-rule:evenodd;stroke:black;stroke-opacity:1;stroke-width:1pt;stroke-linejoin:round;stroke-linecap:butt;fill-opacity:1.0000;"
       d="M 820.2532 259.4183 C 825.3910 264.8195 837.1155 275.7537 837.7742 293.9333 C 837.5107 298.1488 847.5227 307.5020 854.1096 299.9931 C 854.1096 302.4961 851.7383 317.6459 838.9598 308.6878 C 839.4868 326.8673 825.2592 336.7476 825.2592 336.7476 C 825.2592 336.7476 822.3610 335.5620 822.2293 335.4303 C 822.0976 335.2985 822.2293 317.7776 827.6305 311.1907 C 814.1934 313.8254 811.9539 302.4961 811.9539 302.4961 C 817.0258 303.3523 822.5587 303.3523 826.5108 301.1128 C 835.1323 282.8675 824.7982 265.0171 820.2532 259.4183 z "
       id="path588"
       sodipodi:nodetypes="cccccccccc" />
    <path
       style="fill:#316d3a;fill-rule:evenodd;stroke:black;stroke-opacity:1;stroke-width:1pt;stroke-linejoin:miter;stroke-linecap:butt;fill-opacity:1.0000;"
       d="M 827.3670 161.9333 C 827.3670 161.9333 838.9599 155.2148 843.7024 164.3046 C 845.4149 167.9932 840.6724 173.3944 840.6724 173.3944 C 840.6724 173.3944 844.7562 175.6340 849.8940 172.7357 C 849.8940 183.0112 862.8042 181.9573 862.4090 181.4303 C 862.0137 180.9034 857.6665 175.5022 859.7742 170.8914 C 864.3849 169.3105 865.7024 165.3585 865.7024 165.3585 C 865.7024 165.3585 859.7742 165.7537 857.4030 162.1968 C 855.0317 158.6399 843.5706 153.5021 838.1694 153.2387 C 832.7682 152.9752 827.6305 160.4842 827.3670 161.9333 z "
       id="path589"
       sodipodi:nodetypes="cccccccccc" />
    <path
       style="fill:#efe763;fill-rule:evenodd;stroke:black;stroke-opacity:1;stroke-width:1pt;stroke-linejoin:miter;stroke-linecap:butt;fill-opacity:1.0000;"
       d="M 841.7263 161.8016 C 841.5946 161.8016 838.3012 181.6938 847.9179 202.5082 C 849.1036 194.2087 855.2952 190.2566 855.2952 190.2566 C 855.2952 190.2566 858.3251 189.8614 857.4030 197.6339 C 860.8281 199.0830 868.3371 192.6279 869.5227 194.0770 C 870.7083 195.5261 872.4210 198.8195 863.4629 209.3584 C 866.8880 210.0171 867.9419 211.5979 867.9419 211.5979 C 867.9419 211.5979 865.3072 215.4183 858.9838 217.3943 C 852.6604 219.3704 855.5587 216.2087 851.4748 218.9752 C 847.3910 221.7416 841.4628 238.8673 817.4868 235.5740 C 838.3012 231.0950 835.4030 220.4243 835.4030 220.4243 C 835.4030 220.4243 835.1395 201.9812 816.8281 202.3764 C 813.6665 202.3764 814.5886 209.4901 814.5886 209.4901 C 814.5886 209.4901 805.3670 205.1428 809.9778 197.7656 C 803.5227 194.9991 794.6964 192.6279 793.7742 185.2507 C 799.3072 183.9332 808.6605 184.7237 808.6605 184.7237 C 808.6605 184.7237 805.3670 183.0112 807.4748 176.5561 C 809.5826 179.0591 815.9059 182.2208 818.5407 183.4064 C 821.1754 184.5920 833.1634 193.5500 834.4808 197.6339 C 835.7982 201.7177 827.1036 162.7238 827.1036 162.7238 C 827.1036 162.7238 835.7982 156.9272 841.7263 161.8016 z "
       id="path590"
       sodipodi:nodetypes="ccccccccccccccccccccc" />
    <path
       style="fill:#efe763;fill-rule:evenodd;stroke:black;stroke-opacity:1;stroke-width:1pt;stroke-linejoin:miter;stroke-linecap:butt;fill-opacity:1.0000;"
       d="M 709.3311 263.6338 C 709.3311 263.6338 701.9538 292.4841 706.5646 299.5979 C 712.0975 304.3405 722.2413 302.4961 722.2413 302.4961 C 722.2413 302.4961 720.9239 311.8494 708.2772 310.7955 C 713.9419 322.5201 712.6245 335.1668 712.6245 335.1668 C 712.6245 335.1668 720.6605 340.4363 720.3970 346.2327 C 720.1335 352.0290 733.7024 354.1368 733.7024 354.1368 L 731.5946 354.5320 L 731.8581 355.5859 L 729.6185 355.3225 L 729.4868 357.1668 L 728.0377 356.9033 L 728.5646 359.5380 L 726.4569 359.9333 L 725.7982 361.5141 L 723.6904 360.9872 L 723.9538 362.9632 L 718.9479 363.0949 L 719.2113 364.2806 L 714.7323 363.4902 L 713.4149 362.4362 L 711.1754 363.7536 C 711.1754 363.7536 714.7323 360.0650 713.4149 347.0231 C 708.9359 346.4962 709.1994 335.1667 709.1994 335.0350 C 709.1994 334.9033 695.1036 323.3105 696.4209 307.3704 C 681.6664 316.9872 681.1395 300.2566 681.1395 300.2566 C 681.1395 300.2566 686.2772 302.6278 688.9120 301.9692 C 691.5467 301.3105 697.6066 297.0949 698.2653 287.2147 C 698.9239 277.3345 709.4628 263.7656 709.3311 263.6338 z "
       id="path591"
       sodipodi:nodetypes="ccccccccccccccccccccccccccccc" />
    <path
       style="fill:none;fill-rule:evenodd;stroke:black;stroke-opacity:1;stroke-width:1pt;stroke-linejoin:miter;stroke-linecap:butt;fill-opacity:1;"
       d="M 717.2353 347.5500 L 726.8521 359.5380 "
       id="path592" />
    <path
       style="fill:none;fill-rule:evenodd;stroke:black;stroke-opacity:1;stroke-width:1pt;stroke-linejoin:miter;stroke-linecap:butt;fill-opacity:1;"
       d="M 723.5586 351.8973 L 728.8281 357.2985 "
       id="path593" />
    <path
       style="fill:none;fill-rule:evenodd;stroke:black;stroke-opacity:1;stroke-width:1pt;stroke-linejoin:miter;stroke-linecap:butt;fill-opacity:1;"
       d="M 716.3132 351.2386 C 716.3132 351.2386 721.9778 362.0410 721.8461 362.9632 "
       id="path594" />
    <path
       style="fill:none;fill-rule:evenodd;stroke:black;stroke-opacity:1;stroke-width:1pt;stroke-linejoin:miter;stroke-linecap:butt;fill-opacity:1;"
       d="M 715.1275 352.5560 L 715.2592 363.8854 "
       id="path595" />
    <path
       style="fill:#316d3a;fill-rule:evenodd;stroke:black;stroke-opacity:1;stroke-width:1pt;stroke-linejoin:round;stroke-linecap:butt;fill-opacity:1.0000;"
       d="M 717.9193 254.2806 C 717.9193 254.2806 715.7127 254.7416 710.7397 261.6908 C 708.5828 263.4637 702.3744 293.8016 706.7217 299.9932 C 712.5180 280.8914 718.4463 273.9093 718.4463 273.9093 L 717.9193 254.2806 z "
       id="path596"
       sodipodi:nodetypes="ccccc" />
    <path
       style="fill:#316d3a;fill-rule:evenodd;stroke:black;stroke-opacity:1;stroke-width:1pt;stroke-linejoin:miter;stroke-linecap:butt;fill-opacity:1.0000;"
       d="M 746.8761 182.7477 C 746.8761 182.7477 746.7444 181.1667 744.2413 180.6398 C 741.7383 180.1130 748.4569 180.6398 748.5887 180.2446 C 748.7204 179.8494 748.5887 177.7417 748.5887 177.7417 C 748.5887 177.7417 751.3552 178.6638 752.2773 180.2446 C 752.9360 178.4003 752.2773 175.8973 752.2773 175.8973 C 752.2773 175.8973 755.3073 177.3465 754.9120 178.1369 C 754.5168 178.9273 756.0976 174.4483 756.7563 173.9213 C 757.5468 174.3165 758.0737 175.8973 758.0737 176.2925 C 758.0737 176.6878 760.8402 172.7357 762.5527 173.1309 C 764.2653 173.5261 762.0258 175.5022 762.5527 176.1608 C 763.4749 175.3704 764.3970 175.1069 765.8461 175.1069 C 767.2952 175.1069 768.2174 179.0590 768.2174 179.0590 C 768.2174 179.0590 769.1395 175.6338 770.1934 175.8973 C 771.2473 176.1608 772.4330 173.9213 772.4330 173.9213 L 774.9360 178.0052 L 774.8042 173.3944 C 774.8042 173.3944 778.2293 175.1070 778.2293 177.4782 C 778.2293 179.8494 780.2054 174.1848 782.1815 175.2387 C 781.6545 177.2147 780.3371 178.9272 781.5228 180.6398 C 782.9719 179.7177 782.8401 178.4004 782.8401 178.4004 L 786.6605 179.0590 L 786.5288 176.2925 L 788.2413 179.8494 C 788.2413 179.8494 789.6905 177.8734 791.1395 177.7417 C 790.7443 179.4542 789.5587 180.2446 789.5587 180.2446 L 792.9839 180.6398 L 791.5347 182.4842 L 796.2773 184.0651 C 796.2773 184.0651 789.2953 186.6998 787.9779 189.2028 C 786.2653 180.3764 777.7024 182.8794 777.7024 182.8794 C 773.6186 186.8315 783.4611 189.8442 774.5572 190.2567 C 767.5385 190.5758 770.7863 185.5142 769.0078 183.1429 C 766.5048 179.9812 760.3132 183.1429 760.3132 183.1429 C 763.2114 187.1608 763.0685 190.9071 758.7653 190.8001 C 754.5705 190.6990 750.8281 187.7536 750.4330 183.5381 C 749.5108 181.6938 746.7443 182.8794 746.8761 182.7477 z "
       id="path609"
       sodipodi:nodetypes="cccccccccccccccccccccccccccccccsccscc" />
    <path
       style="fill:#efe763;fill-rule:evenodd;stroke:black;stroke-opacity:1;stroke-width:1pt;stroke-linejoin:miter;stroke-linecap:butt;fill-opacity:1.0000;"
       d="M 708.5407 161.9333 C 708.5407 161.9333 699.9778 154.5561 692.6006 161.8016 C 691.5467 169.8375 695.3670 173.3944 695.3670 173.3944 C 695.3670 173.3944 688.3850 175.1070 685.8820 171.2866 C 685.3551 183.1429 673.8940 181.5620 673.8940 181.5620 C 673.8940 181.5620 676.6605 178.1368 676.5287 170.6279 C 671.5227 170.1010 668.4928 163.7776 668.4928 163.7776 C 668.4928 163.7776 673.7622 165.2267 677.3191 163.1190 C 681.6664 155.3465 689.7024 155.4782 689.7024 155.4782 C 689.7024 155.4782 703.4030 146.7837 708.5407 161.9333 z "
       id="path610"
       sodipodi:nodetypes="cccccccccc" />
    <path
       style="fill:#316d3a;fill-rule:evenodd;stroke:black;stroke-opacity:1;stroke-width:1pt;stroke-linejoin:miter;stroke-linecap:butt;fill-opacity:1.0000;"
       d="M 693.9180 160.6159 C 693.9180 160.6159 699.0557 172.9992 688.3850 202.6399 C 686.2772 191.9693 680.0856 189.3345 680.0856 189.3345 C 680.0856 189.3345 677.5826 193.9452 678.3730 196.3165 C 679.1635 198.6878 667.3072 195.2627 666.6485 193.8135 C 665.9898 192.3644 663.7504 201.4543 672.8401 208.3045 C 671.2592 210.1488 668.0976 211.2027 668.0976 211.2027 C 668.0976 211.2027 671.6545 216.8675 678.2413 216.6039 C 684.8281 216.3404 687.4628 221.2147 687.4628 221.2147 C 687.4628 221.2147 698.9239 240.9751 718.5527 234.5200 C 699.3192 231.6218 700.2413 222.7956 700.2413 218.7117 C 700.2413 214.6278 707.6186 201.3225 716.9718 201.5860 C 726.3251 201.8495 720.5287 210.0171 720.5287 210.0171 C 720.5287 210.0171 730.5407 205.1428 725.4030 196.8435 C 743.1873 193.8135 741.6066 184.4603 741.6066 184.4603 L 727.9060 183.8016 C 727.9060 183.8016 728.9599 178.0052 728.6964 175.7657 C 728.4329 173.5261 726.0617 180.2447 719.3431 181.5620 C 712.6245 182.8794 701.9539 196.8435 701.9539 196.8435 C 701.9539 196.8435 709.7264 168.6519 709.5946 162.7238 C 702.0855 156.2687 696.2892 157.9811 693.9180 160.6159 z "
       id="path611"
       sodipodi:nodetypes="ccccccccccccccccccccc" />
    <path
       style="fill:#94928c;fill-rule:evenodd;stroke:black;stroke-opacity:1;stroke-width:1pt;stroke-linejoin:miter;stroke-linecap:butt;fill-opacity:1.0000;"
       d="M 747.6664 191.1788 C 747.6664 191.1788 731.0677 203.1669 730.6724 205.2746 C 730.2772 207.3824 744.6365 208.9632 755.8341 206.9872 C 764.0018 198.4243 784.5527 196.8435 784.5527 196.8435 C 784.5527 196.8435 782.3132 191.3106 780.2054 191.1788 C 778.0976 191.0470 747.4030 191.1788 747.6664 191.1788 z "
       id="path613"
       sodipodi:nodetypes="cccccc" />
    <path
       style="fill:none;fill-rule:evenodd;stroke:#5a5152;stroke-opacity:1.0000;stroke-width:1pt;stroke-linejoin:miter;stroke-linecap:butt;fill-opacity:1;"
       d="M 747.5347 193.0231 L 737.6544 203.0351 C 737.6544 203.0351 746.8761 205.2745 754.7802 204.2207 C 759.1275 197.8974 775.0676 193.9453 775.0676 193.9453 "
       id="path612"
       sodipodi:nodetypes="cccc" />
    <path
       style="fill:#efe763;fill-rule:evenodd;stroke:black;stroke-opacity:1;stroke-width:1pt;stroke-linejoin:miter;stroke-linecap:butt;fill-opacity:1.0000;"
       d="M 756.2293 191.3106 C 756.2293 191.3106 750.4329 187.4901 751.0916 184.0650 C 750.6964 181.9572 745.2952 183.0112 745.4269 186.9633 C 745.5587 190.9154 748.1934 191.1788 748.1934 191.1788 L 756.2293 191.3106 z "
       id="path616"
       sodipodi:nodetypes="ccccc" />
    <path
       style="fill:none;fill-rule:evenodd;stroke:black;stroke-opacity:1;stroke-width:1pt;stroke-linejoin:miter;stroke-linecap:butt;fill-opacity:1;"
       d="M 750.8281 184.1967 C 750.8281 184.1967 755.9659 180.1129 761.1036 183.5381 "
       id="path617" />
    <path
       style="fill:none;fill-rule:evenodd;stroke:black;stroke-opacity:1;stroke-width:1pt;stroke-linejoin:miter;stroke-linecap:butt;fill-opacity:1;"
       d="M 769.6664 183.9333 C 769.6664 183.9333 774.2772 179.5859 778.0976 183.6698 "
       id="path618" />
    <path
       style="fill:#efe763;fill-rule:evenodd;stroke:black;stroke-opacity:1;stroke-width:1pt;stroke-linejoin:miter;stroke-linecap:butt;fill-opacity:1.0000;"
       d="M 772.0377 190.1250 C 769.9299 188.2806 769.6664 190.1250 769.4030 183.5381 C 767.5587 179.4543 760.3131 183.2746 760.3131 183.2746 C 763.6065 186.5680 760.9719 190.5201 764.7922 191.1788 C 767.5587 191.0470 772.1694 190.5202 772.0377 190.1250 z "
       id="path619"
       sodipodi:nodetypes="ccccc" />
    <path
       style="fill:#efe763;fill-rule:evenodd;stroke:black;stroke-opacity:1;stroke-width:1pt;stroke-linejoin:miter;stroke-linecap:butt;fill-opacity:1.0000;"
       d="M 787.7143 191.4423 C 787.5826 191.1788 788.3730 180.7717 777.5706 183.1429 C 774.9360 186.0411 780.6006 188.1490 777.8341 191.0471 L 787.7143 191.4423 z "
       id="path621"
       sodipodi:nodetypes="cccc" />
    <path
       style="fill:#efe763;fill-rule:evenodd;stroke:black;stroke-opacity:1;stroke-width:1pt;stroke-linejoin:miter;stroke-linecap:butt;fill-opacity:1.0000;"
       d="M 789.4719 210.8493 C 789.4719 210.8493 799.8908 221.7828 803.4925 222.8118 C 801.8203 223.5836 799.2477 223.1977 799.2477 223.1977 C 799.2477 223.1977 804.7787 229.8864 805.6792 234.5171 C 803.7498 234.5170 801.3058 233.8740 801.3058 233.8740 C 801.3058 233.8740 805.9364 240.0481 805.4219 245.3220 C 801.8203 244.1643 798.9904 240.9486 798.9904 240.9486 L 778.5384 217.6666 L 789.4719 210.8493 z "
       id="path623"
       sodipodi:nodetypes="ccccccccc" />
    <path
       style="fill:#316d3a;fill-rule:evenodd;stroke:black;stroke-opacity:1;stroke-width:1pt;stroke-linejoin:miter;stroke-linecap:butt;fill-opacity:1.0000;"
       d="M 681.9378 251.4961 C 681.9378 251.4961 677.0499 263.7160 685.6681 267.3176 C 694.2862 270.9192 696.3443 262.3010 696.3443 262.3010 C 696.3443 262.3010 699.5600 268.0892 696.7302 271.9482 C 714.2237 276.0643 711.0080 288.9272 711.0080 288.9272 C 711.0080 288.9272 708.9500 285.0684 702.6471 286.2261 C 696.3443 287.3837 694.6721 283.7821 694.6721 283.7821 C 694.6721 283.7821 695.1866 293.6865 689.0124 294.0724 C 688.6265 292.9148 689.6556 290.5995 688.3693 289.4417 C 680.5229 284.5539 682.1951 277.3506 682.1951 277.3506 C 682.1951 277.3506 665.9878 267.7034 681.9378 251.4961 z "
       id="path625"
       sodipodi:nodetypes="ccccccccccc" />
    <path
       style="fill:#efe763;fill-rule:evenodd;stroke:black;stroke-opacity:1;stroke-width:1pt;stroke-linejoin:miter;stroke-linecap:butt;fill-opacity:1.0000;"
       d="M 700.8463 221.1397 L 700.8463 221.1397 C 700.8463 221.1397 698.9169 232.8449 719.7548 234.2598 C 721.6843 234.2598 728.1157 231.8159 728.1157 231.8159 C 728.1157 231.8159 722.0701 237.9900 713.1947 238.2473 C 704.3193 238.5046 684.3817 247.6373 683.6100 249.6953 C 682.8382 251.7534 676.2781 260.8860 686.0540 267.9607 C 690.2987 261.2719 718.2113 250.3385 718.2113 250.3385 L 738.5347 239.4050 L 763.3601 223.7122 L 746.3811 215.8659 L 715.7673 222.0400 L 700.8463 221.1397 z "
       id="path628"
       sodipodi:nodetypes="ccccccccccccc" />
    <path
       style="fill:#efe763;fill-rule:evenodd;stroke:black;stroke-opacity:1;stroke-width:1pt;stroke-linejoin:miter;stroke-linecap:butt;fill-opacity:1.0000;"
       d="M 855.0317 253.8854 C 855.0317 253.8854 859.7743 268.2446 845.6784 269.1668 C 842.3849 268.1129 839.8820 263.6338 839.8820 263.6338 C 839.8820 263.6338 834.4808 267.7177 839.3551 272.4602 C 820.3850 278.1248 824.7323 289.7176 824.7323 289.7176 C 824.7323 289.7176 828.1574 285.7656 830.2652 286.0291 C 832.3730 286.2925 831.9778 287.8733 834.6125 287.6099 C 837.2473 287.3464 842.3850 284.4483 842.3850 284.4483 C 842.3850 284.4483 841.9897 295.6458 847.6545 294.4601 C 846.0737 293.4063 847.3910 290.2446 847.3910 290.2446 C 847.3910 290.2446 852.0018 287.7416 853.1874 284.1847 C 854.3730 280.6278 853.3191 278.9153 853.3191 278.9153 C 853.3191 278.9153 861.4868 272.7237 860.8281 265.2147 C 860.1694 257.7057 855.0317 253.8854 855.0317 253.8854 z "
       id="path587"
       sodipodi:nodetypes="cccccccccccccc" />
    <path
       style="fill:#316d3a;fill-rule:evenodd;stroke:black;stroke-opacity:1;stroke-width:1pt;stroke-linejoin:miter;stroke-linecap:butt;fill-opacity:1.0000;"
       d="M 743.0367 209.0485 C 743.0367 209.0485 729.2734 224.8700 701.2322 221.1396 C 723.9997 223.5836 731.8460 222.2973 731.8460 222.2973 C 731.8460 222.2973 732.4891 224.4841 730.0452 227.4425 C 739.0492 222.5546 743.4226 218.3098 746.7670 215.6086 C 753.3271 208.1481 743.1654 209.1771 743.0367 209.0485 z "
       id="path626"
       sodipodi:nodetypes="cccccc" />
    <path
       style="fill:#316d3a;fill-rule:evenodd;stroke:black;stroke-opacity:1;stroke-width:1pt;stroke-linejoin:miter;stroke-linecap:butt;fill-opacity:1.0000;"
       d="M 750.4972 224.7413 C 750.4972 224.7413 741.4931 237.3469 738.5347 239.0191 C 735.5762 240.6913 746.5097 245.9651 746.5097 245.9651 L 760.6589 234.7743 L 750.4972 224.7413 z "
       id="path627" />
    <path
       style="fill:#94928c;fill-rule:evenodd;stroke:black;stroke-opacity:1;stroke-width:1pt;stroke-linejoin:miter;stroke-linecap:butt;fill-opacity:1.0000;"
       d="M 752.4090 231.0949 C 752.4090 231.0949 745.1635 241.7655 750.4329 250.1967 C 753.0677 255.0710 771.3790 242.4242 776.7802 237.2865 C 778.4928 236.1009 782.3131 231.4901 787.4509 232.0171 C 792.5886 232.5440 794.0377 241.1069 797.8581 240.8434 C 801.6784 240.5800 796.0137 234.9153 796.0137 234.9153 C 796.0137 234.9153 788.5048 222.7955 789.1635 206.3284 L 784.2892 200.9273 C 784.2892 198.2926 784.4209 197.2386 784.4209 197.2386 C 774.5406 196.7117 758.0735 203.0350 756.2292 206.7237 C 751.6185 208.0410 747.1395 208.3045 742.0017 207.9093 C 748.5886 216.8673 753.5946 231.8853 752.4090 231.0949 z "
       id="path614"
       sodipodi:nodetypes="cccccccccccc" />
    <path
       style="fill:#5a5152;fill-rule:evenodd;stroke:none;stroke-opacity:1;stroke-width:1pt;stroke-linejoin:miter;stroke-linecap:butt;fill-opacity:1.0000;"
       d="M 784.6844 201.8495 C 784.6844 201.8495 769.0078 200.6638 759.9179 208.5680 C 760.3131 211.9931 759.6545 214.2326 759.6545 214.2326 L 758.6006 216.2087 L 757.2832 213.1788 C 757.2832 213.1788 757.0197 220.2926 756.8880 220.0291 C 756.7563 219.7656 753.3311 213.8374 753.3311 213.8374 C 753.3311 213.8374 757.0197 229.6458 755.9658 236.3644 C 759.3909 237.4183 764.3970 233.9932 764.3970 233.9932 C 764.3970 233.9932 765.9778 238.2087 755.9658 238.7357 C 754.2533 239.6578 753.8581 243.3464 753.8581 243.3464 C 753.8581 243.3464 752.4090 243.0830 753.8581 234.7836 C 753.9191 226.3990 743.6273 208.7221 743.6273 208.7221 C 743.6273 208.7221 752.4089 209.2266 755.9658 207.1188 C 759.4376 204.7557 766.1697 199.2496 784.5527 197.5022 C 785.6066 200.7956 784.5527 201.9812 784.6844 201.8495 z "
       id="path622"
       sodipodi:nodetypes="cccccccccccccccc" />
    <path
       style="fill:#efe763;fill-rule:evenodd;stroke:black;stroke-opacity:1;stroke-width:1pt;stroke-linejoin:miter;stroke-linecap:butt;fill-opacity:1.0000;"
       d="M 781.2593 191.5740 L 787.8461 191.4423 C 788.5048 193.0232 796.0137 201.0591 792.3251 208.3045 C 790.6125 206.4602 789.0317 204.7476 789.0317 204.7476 C 789.0317 204.7476 775.8581 218.0531 775.1994 203.0351 C 781.1275 206.9872 784.5527 203.5621 785.6066 201.7177 C 786.6605 199.8734 781.3910 191.7058 781.2593 191.5740 z "
       id="path615"
       sodipodi:nodetypes="ccccccc" />
    <path
       style="fill:#316d3a;fill-rule:evenodd;stroke:black;stroke-opacity:1;stroke-width:1pt;stroke-linejoin:miter;stroke-linecap:butt;fill-opacity:1.0000;"
       d="M 753.8581 150.8674 C 753.8581 150.8674 777.3072 141.2507 763.0796 134.0052 C 748.8521 126.7596 753.7263 151.2626 753.8581 150.8674 z "
       id="path607" />
  </g>
</svg>
