<?xml version="1.0" encoding="utf-8"?>
<!-- Generator: Adobe Illustrator 15.0.0, SVG Export Plug-In  -->
<!DOCTYPE svg PUBLIC "-//W3C//DTD SVG 1.1//EN" "http://www.w3.org/Graphics/SVG/1.1/DTD/svg11.dtd" [
	<!ENTITY ns_flows "http://ns.adobe.com/Flows/1.0/">
]>
<svg version="1.1"
	 xmlns="http://www.w3.org/2000/svg" xmlns:xlink="http://www.w3.org/1999/xlink" xmlns:a="http://ns.adobe.com/AdobeSVGViewerExtensions/3.0/"
	 x="0px" y="0px" width="79px" height="146px" viewBox="-0.641 -0.335 79 146"
	 style="overflow:visible;enable-background:new -0.641 -0.335 79 146;" xml:space="preserve">
<style type="text/css">
<![CDATA[
	.st0{opacity:0.35;}
	.st1{opacity:0.75;}
	.st2{fill:#231F20;}
	.st3{fill:none;stroke:#231F20;stroke-miterlimit:10;}
	.ch0{fill:#F69321;}
	.ch1{fill:#29ABE2;}
	.st6{opacity:0.15;fill:#010101;}
	.st7{fill:url(#SVGID_1_);}
	.st8{fill:url(#SVGID_2_);}
	.st9{fill:url(#SVGID_3_);}
	.st10{fill:url(#SVGID_4_);}
	.st11{fill:url(#SVGID_5_);}
	.st12{fill:url(#SVGID_6_);}
	.st13{fill:url(#SVGID_7_);}
	.st14{fill:url(#SVGID_8_);}
	.st15{fill:url(#SVGID_9_);}
	.ch2{fill:#6DBE4C;}
	.st17{fill:#010101;}
	.st18{fill:url(#SVGID_10_);}
	.st19{fill:url(#SVGID_11_);}
	.st20{fill:url(#SVGID_12_);}
	.st21{fill:url(#SVGID_13_);}
	.st22{fill:url(#SVGID_14_);}
	.st23{fill:url(#SVGID_15_);}
	.st24{fill:url(#SVGID_16_);}
	.st25{fill:url(#SVGID_17_);}
	.st26{fill:url(#SVGID_18_);}
	.st27{fill:url(#SVGID_19_);}
	.st28{fill:url(#SVGID_20_);}
	.st29{fill:url(#SVGID_21_);}
	.st30{fill:url(#SVGID_22_);}
	.ch3{fill:#D91F5D;}
]]>
</style>
<defs>
</defs>
<path class="ch2" d="M15.001,0.827c0,0-5.321,1.68-5.882,7.001c-0.56,5.32,4.901,14.422,1.54,19.322c0,0,1.541-0.98,2.24-2.24
	c0,0,0.199,8.401-3.82,11.622c0,0,2.818-1.121,4.02-3.221c0,0,0.501,3.5-3.419,9.94c-3.921,6.441-6.721,9.382-6.721,9.382
	s1.399,0.56,4.761-1.4c0,0-0.7,6.021-6.301,9.102c0,0,1.12,0.42,4.061-1.961c0,0-0.14,4.005-4.761,9.424c0,0,2.24-1.303,3.919-3.402
	c0,0,0,4.76-4.619,7.84c0,0,2.66-0.56,4.2-2.24c0,0-0.7,4.341-4.2,8.262c0,0,1.82-0.84,3.081-1.961c0,0,1.259,9.381-0.421,18.062
	S1.863,114.604,3.1,116.201c4.62,5.974,9.94-1.12,10.5,2.8c0.561,3.921-0.14,12.882,3.361,13.303
	c3.5,0.42,3.641-12.602,6.159-14.002c2.521-1.4,6.162-1.121,6.862,2.8s-0.84,14.981,2.8,15.122
	c3.641,0.141,5.602-21.143,9.381-20.723c3.781,0.42,7.281,17.502,6.722,24.503c-0.561,7.001,11.62,9.382,10.221-7.28
	s-5.741-24.783-6.44-29.264c-0.7-4.48-1.12-8.541,0.42-5.181s4.76,6.86,7.141,4.2c2.38-2.66-1.26-13.021,1.4-13.582
	c2.66-0.56,6.021,8.401,8.821,5.602c2.8-2.801-1.4-13.861,0-17.223c1.4-3.36,5.74,3.641,7.001-0.561
	c1.26-4.2-2.381-8.82-1.961-13.161s6.301-2.521-1.54-14.421c-7.841-11.902-24.793-32.064-34.939-39.065
	C28.862,3.067,21.861-1.272,15.001,0.827z"/>
<path class="ch0" d="M49.476,106.236c0.006,0.016,0.008,0.023,0.008,0.023S49.483,106.252,49.476,106.236z"/>
<path class="ch0" d="M61.998,33.239c-5.054-6.121-10.615-12.266-15.623-17.007c-1.592,1.378-3.587,3.784-3.753,7.278
	c0,0-4.9,1.763,0.841,6.551c0,0-3.197,2.054-2.79,4.262c0.41,2.209,2.93,6.266,2.93,6.266s-6.58-1.767-6.861,2.828
	c0,0-6.16,2.217-7.141,5.717L17.56,73.04c0,0-5.04-1.27-7.561,3.653c0,0,5.74-24.872,5.601-29.997
	c-0.091-3.315-1.565-8.427-2.595-11.623c-0.25,1.641-1.024,4.398-3.325,8.179c-3.921,6.441-6.721,9.382-6.721,9.382
	s1.399,0.56,4.761-1.4c0,0-0.7,6.021-6.301,9.102c0,0,1.12,0.42,4.061-1.961c0,0-0.14,4.005-4.761,9.424c0,0,2.24-1.303,3.919-3.402
	c0,0,0,4.76-4.619,7.84c0,0,2.66-0.56,4.2-2.24c0,0-0.7,4.341-4.2,8.262c0,0,1.82-0.84,3.081-1.961c0,0,1.259,9.381-0.421,18.062
	c-0.893,4.611-1.066,10.036-0.849,14.348c2.278-1.846,5.337-3.048,8.868-1.186c7.701,4.061,7.701,4.061,7.701,4.061
	s1.961-5.602,7.141-5.182c5.181,0.421,8.682,7.562,8.682,7.562s1.82-9.101,8.541-8.821c6.057,0.253,6.655,0.959,6.713,1.097
	c-0.273-0.957-8.907-31.241-6.013-34.555c2.94-3.366,6.021-3.792,6.021-3.792s-2.101-8.042,1.26-8.148
	c3.36-0.107,5.321,1.163,5.321,1.163s-4.341-9.12-1.681-12.196c2.66-3.075,3.78-3.084,3.78-3.084s-3.78-4.932-1.261-8.132
	C58.266,35.764,60.358,34.261,61.998,33.239z"/>
<path class="ch0" d="M9.079,36.532c0,0,2.226-0.888,3.564-2.561c-0.374-1.119-0.631-1.82-0.631-1.82l-0.176-0.01
	C11.271,33.845,10.405,35.47,9.079,36.532z"/>
<path class="ch3" d="M30.729,51.058c0,0-1.353,7.916,2.007,14.78c3.36,6.864,10.642,27.308,10.642,27.308
	s-9.895-3.082-9.708,16.708c0,0-2.102-12.051-8.705-11.532c-6.604,0.518-6.789,11.072-6.789,11.072s-1.307-18.416-4.668-17.1
	c-3.36,1.317-8.009,14.036-8.009,14.036s2.8-15.522-0.579-18.497l8.564-28.712c0,0-2.353,9.922,0.957,10.021
	s5.639-19.036,5.639-19.036s-2.092,17.454,1.27,16.292c3.359-1.162,4.629-22.98,4.629-22.98S29.841,49.948,30.729,51.058z"/>
<path class="ch1" d="M25.978,43.417c0,0-1.003,23.533-4.629,22.98c-3.627-0.553-2.146-7.873-2.146-7.873s-1.669,10.954-4.763,10.617
	c-3.579-0.39-1.021-8.938-1.021-8.938l2.023-14.137c0,0-0.107,2.786,2.134,2.507c2.24-0.28,3.92-7.841,4.48-13.021L25.978,43.417z"
	/>
<linearGradient id="SVGID_1_" gradientUnits="userSpaceOnUse" x1="38.9902" y1="145.335" x2="38.9902" y2="0.2964">
	<stop  offset="0" style="stop-color:#FFFFFF;stop-opacity:0"/>
	<stop  offset="1" style="stop-color:#FFFFFF;stop-opacity:0.07"/>
</linearGradient>
<path class="st7" d="M14.982,0.827c0,0-5.321,1.68-5.881,7.001c-0.56,5.32,4.9,14.422,1.54,19.322c0,0,1.54-0.98,2.24-2.24
	c0,0,0.199,8.401-3.82,11.622c0,0,2.818-1.121,4.02-3.221c0,0,0.501,3.5-3.42,9.94c-3.92,6.441-6.721,9.382-6.721,9.382
	s1.4,0.56,4.761-1.4c0,0-0.7,6.021-6.3,9.102c0,0,1.119,0.42,4.06-1.961c0,0-0.14,4.005-4.761,9.424c0,0,2.24-1.303,3.92-3.402
	c0,0,0,4.76-4.619,7.84c0,0,2.659-0.56,4.2-2.24c0,0-0.7,4.341-4.2,8.262c0,0,1.818-0.84,3.08-1.961c0,0,1.26,9.381-0.421,18.062
	c-1.68,8.682-0.815,20.246,0.421,21.843c4.621,5.974,9.941-1.12,10.501,2.8c0.561,3.921-0.14,12.882,3.36,13.303
	c3.501,0.42,3.641-12.602,6.16-14.002c2.521-1.4,6.161-1.121,6.862,2.8c0.699,3.921-0.841,14.981,2.8,15.122
	s5.6-21.143,9.381-20.723c3.78,0.42,7.281,17.502,6.721,24.503s11.621,9.382,10.222-7.28c-1.4-16.662-5.741-24.783-6.441-29.264
	s-1.12-8.541,0.421-5.181c1.54,3.36,4.76,6.86,7.141,4.2c2.38-2.66-1.261-13.021,1.4-13.582c2.659-0.56,6.021,8.401,8.82,5.602
	c2.801-2.801-1.4-13.861,0-17.223c1.4-3.36,5.74,3.641,7.002-0.561c1.26-4.2-2.381-8.82-1.961-13.161s6.301-2.521-1.541-14.421
	c-7.84-11.902-24.792-32.064-34.939-39.065C28.844,3.067,21.843-1.272,14.982,0.827z"/>
<linearGradient id="SVGID_2_" gradientUnits="userSpaceOnUse" x1="1.7236" y1="89.2871" x2="77.9541" y2="89.2871">
	<stop  offset="0" style="stop-color:#010101;stop-opacity:0.1"/>
	<stop  offset="1" style="stop-color:#010101;stop-opacity:0.21"/>
</linearGradient>
<path class="st8" d="M75.443,63.555c0.42-4.341,6.301-2.521-1.54-14.421c-2.967-4.504-7.237-10.188-11.951-15.895
	c-1.639,1.021-3.731,2.524-5.092,4.253c-2.521,3.2,1.259,8.132,1.259,8.132S57,45.633,54.34,48.708
	c-2.661,3.076,1.68,12.196,1.68,12.196s-1.96-1.271-5.32-1.163c-3.36,0.106-1.261,8.148-1.261,8.148s-3.08,0.426-6.021,3.792
	c-2.894,3.313,5.741,33.598,6.015,34.555c0.004,0.016,0.006,0.023,0.006,0.023s-0.002-0.008-0.006-0.023
	c-0.061-0.138-0.657-0.844-6.714-1.097c-6.722-0.279-8.542,8.821-8.542,8.821s-3.5-7.141-8.681-7.562
	c-5.181-0.42-7.141,5.182-7.141,5.182s0,0-7.702-4.061c-3.531-1.862-6.589-0.66-8.867,1.186c-0.028-0.535-0.049-1.088-0.062-1.652
	c0.116,4.589,0.67,8.294,1.33,9.147c4.622,5.974,9.941-1.12,10.502,2.8c0.561,3.921-0.141,12.882,3.36,13.303
	c3.501,0.42,3.64-12.602,6.161-14.002c2.521-1.4,6.16-1.121,6.86,2.8s-0.84,14.981,2.801,15.122s5.601-21.143,9.381-20.723
	s7.281,17.502,6.721,24.503c-0.56,7.001,11.621,9.382,10.222-7.28c-1.4-16.662-5.742-24.783-6.441-29.264s-1.12-8.541,0.421-5.181
	c1.54,3.36,4.761,6.86,7.141,4.2s-1.261-13.021,1.4-13.582c2.66-0.56,6.02,8.401,8.82,5.602c2.801-2.801-1.399-13.861,0-17.223
	c1.399-3.36,5.741,3.641,7.001-0.561C78.663,72.516,75.022,67.896,75.443,63.555z"/>
<path class="st2" d="M9.12,7.828c1.727-0.778,3.605-1.188,5.49-1.401c1.89-0.211,3.806-0.196,5.701,0.014
	c3.796,0.43,7.471,1.714,10.872,3.393c3.435,1.637,6.685,3.635,9.81,5.789c3.123,2.164,6.105,4.524,8.959,7.027
	c5.652,5.068,10.817,10.663,15.471,16.641c2.319,2.994,4.532,6.068,6.639,9.211c2.074,3.164,4.082,6.371,5.936,9.664
	c-2.071-3.16-4.166-6.302-6.388-9.352c-2.191-3.069-4.473-6.072-6.86-8.986c-4.765-5.831-9.882-11.385-15.539-16.34
	c-5.599-5.009-11.734-9.445-18.408-12.886c-1.671-0.859-3.365-1.654-5.129-2.269c-1.764-0.617-3.584-1.076-5.434-1.352
	C16.554,6.42,12.686,6.558,9.12,7.828z"/>
<g class="st0">
	<path class="st2" d="M9.119,8.042C9.185,6.999,9.442,5.95,9.925,4.995c0.488-0.949,1.18-1.797,1.99-2.502
		c0.812-0.707,1.727-1.289,2.73-1.724c1.027-0.392,2.096-0.625,3.178-0.722c2.178-0.193,4.359,0.217,6.396,0.885
		c2.047,0.669,3.967,1.615,5.83,2.623c1.86,1.016,3.66,2.121,5.422,3.268c1.771,1.162,3.492,2.273,5.25,3.53
		c3.432,2.549,6.49,5.465,9.473,8.437c5.891,6.019,11.333,12.43,16.397,19.127c2.532,3.35,4.959,6.779,7.211,10.328
		c1.106,1.783,2.185,3.605,3.071,5.523c0.436,0.962,0.834,1.951,1.066,2.992c0.225,1.028,0.229,2.185-0.325,3.096
		c0.46-0.963,0.341-2.051,0.032-3.021c-0.299-0.984-0.752-1.921-1.248-2.829c-1.004-1.816-2.186-3.525-3.41-5.215
		c-2.426-3.389-5.006-6.669-7.627-9.912c-2.645-3.225-5.312-6.43-8.088-9.54c-2.756-3.126-5.57-6.197-8.502-9.145
		c-2.912-2.958-5.928-5.835-9.181-8.329C36.27,9.444,32.796,7.045,29.28,4.907c-1.773-1.056-3.6-2.01-5.497-2.746
		C21.89,1.429,19.893,0.96,17.88,1.021c-1.006,0.018-2.014,0.165-2.966,0.451c-0.943,0.329-1.854,0.818-2.666,1.43
		C10.616,4.112,9.427,5.957,9.119,8.042z"/>
</g>
</svg>
