<?xml version="1.0" encoding="UTF-8" standalone="no"?>
<!DOCTYPE svg PUBLIC "-//W3C//DTD SVG 20010904//EN"
"http://www.w3.org/TR/2001/REC-SVG-20010904/DTD/svg10.dtd">
<!-- Created with Sodipodi ("http://www.sodipodi.com/") -->
<svg
   version="1"
   x="0"
   y="0"
   width="299.999mm"
   height="210mm"
   id="svg378"
   sodipodi:version="0.32-hydra1"
   sodipodi:docname="/home/yemu/clipart/flags/saint-kitts-and-nevis.svg"
   sodipodi:docbase="/home/yemu/clipart/flags"
   xmlns="http://www.w3.org/2000/svg"
   xmlns:sodipodi="http://sodipodi.sourceforge.net/DTD/sodipodi-0.dtd"
   xmlns:xlink="http://www.w3.org/1999/xlink">
  <sodipodi:namedview
     id="base">
    <sodipodi:guide
       orientation="vertical"
       position="194.875336"
       id="guide626" />
    <sodipodi:guide
       orientation="vertical"
       position="521.178223"
       id="guide627" />
  </sodipodi:namedview>
  <defs
     id="defs380" />
  <rect
     style="font-size:12;fill:#ffe900;fill-rule:evenodd;stroke-width:1pt;fill-opacity:1;stroke:none;stroke-opacity:1;"
     id="rect628"
     width="1073.513794"
     height="744.094482"
     x="1144.326050"
     y="145.845791"
     transform="translate(-1149.589,-145.8458)" />
  <path
     style="font-size:12;fill:#35a100;fill-rule:evenodd;stroke:none;stroke-width:1.02152pt;stroke-opacity:1;"
     d="M -2.66219 -3.5704 L -1.41625 532.839 L 833.908 -3.91769 L -2.66219 -3.5704 z "
     id="path623"
     transform="translate(-3.175735,3.570496)"
     sodipodi:nodetypes="cccc" />
  <path
     style="font-size:12;fill:#c70000;fill-rule:evenodd;stroke:none;stroke-width:1.03875pt;fill-opacity:1;stroke-opacity:1;"
     d="M 1069.54 744.094 L 1067.58 186.34 L 224.975 744.506 L 1069.54 744.094 z "
     id="path624"
     sodipodi:nodetypes="cccc" />
  <path
     style="font-size:12;fill-rule:evenodd;stroke:none;stroke-width:1.02152pt;stroke-opacity:1;"
     d="M -2.12437 573.282 L -1.41625 741.204 L 180.867 740.964 L 1071.17 144.084 L 1070.17 -1.91483 L 890.056 -3.5704 L -2.12437 573.282 z "
     id="path625"
     transform="translate(-3.175735,3.570496)"
     sodipodi:nodetypes="ccccccc" />
  <polygon
     points="591.041,433.161 533.774,391.476 476.501,433.151 498.449,365.806 441.115,324.214 511.946,324.278 533.785,256.897 555.613,324.281 626.445,324.23 569.104,365.812 591.041,433.161 "
     style="font-size:12;fill:#ffffff;fill-rule:evenodd;stroke-width:1pt;fill-opacity:1;stroke:none;stroke-opacity:1;"
     id="polygon136"
     transform="matrix(0.781395,-0.505656,0.467245,0.748595,153.8185,243.6948)" />
  <polygon
     points="591.041,433.161 533.774,391.476 476.501,433.151 498.449,365.806 441.115,324.214 511.946,324.278 533.785,256.897 555.613,324.281 626.445,324.23 569.104,365.812 591.041,433.161 "
     style="font-size:12;fill:#ffffff;fill-rule:evenodd;stroke-width:1pt;fill-opacity:1;stroke:none;stroke-opacity:1;"
     id="polygon638"
     transform="matrix(0.781395,-0.505656,0.467245,0.748595,-246.7561,504.0683)" />
</svg>
