<?xml version="1.0" encoding="UTF-8" standalone="no"?>
<!DOCTYPE svg PUBLIC "-//W3C//DTD SVG 1.0//EN"
"http://www.w3.org/TR/2001/REC-SVG-20010904/DTD/svg10.dtd">
<!-- Created with Sodipodi ("http://www.sodipodi.com/") -->
<svg
   id="svg761"
   sodipodi:version="0.33pre"
   xmlns="http://www.w3.org/2000/svg"
   xmlns:sodipodi="http://sodipodi.sourceforge.net/DTD/sodipodi-0.dtd"
   xmlns:xlink="http://www.w3.org/1999/xlink"
   width="210mm"
   height="140mm"
   sodipodi:docbase="/home/yemu/clipart/new"
   sodipodi:docname="/home/yemu/clipart/new/saudiarabia.svg">
  <defs
     id="defs763" />
  <sodipodi:namedview
     id="base" />
  <rect
     style="font-size:12;fill:#199d00;fill-rule:evenodd;stroke-width:1pt;stroke:none;stroke-opacity:1;fill-opacity:1;"
     id="rect681"
     width="744.094482"
     height="496.062988"
     x="0.000000"
     y="-0.000076"
     transform="translate(0.000000,6.103516e-5)" />
  <path
     style="fill:#ffffff;fill-rule:evenodd;stroke:none;stroke-opacity:1;stroke-width:1pt;stroke-linejoin:round;stroke-linecap:butt;fill-opacity:1;"
     d="M 187.516 140.616 C 186.657 152.205 185.626 172.599 195.473 174.691 C 207.383 175.836 200.816 154.533 205.127 150.67 C 205.942 148.761 207.445 148.751 207.569 151.159 C 207.569 157.182 207.569 163.206 207.569 169.229 C 207.46 175.105 211.323 176.836 214.324 178.05 C 217.447 177.809 219.532 177.913 220.756 180.952 C 221.244 191.371 221.733 201.79 222.221 212.209 C 222.221 212.209 229.464 214.282 229.809 194.628 C 230.155 183.088 227.504 173.428 229.058 171.183 C 229.113 168.977 231.93 168.845 233.884 169.92 C 236.997 172.116 238.384 174.828 243.222 173.743 C 250.584 171.715 255.009 168.134 255.118 162.481 C 254.688 157.109 254.086 151.736 251.758 146.364 C 252.083 145.387 250.337 142.856 250.661 141.879 C 251.984 143.951 253.997 143.779 254.455 141.879 C 253.202 137.75 251.258 133.794 248.106 132.082 C 245.501 129.787 241.689 130.256 240.293 135.042 C 239.646 140.557 242.281 147.109 246.297 152.451 C 247.15 154.538 248.348 158.006 247.821 161.129 C 245.684 162.348 243.547 161.84 241.757 159.95 C 241.757 159.95 235.897 155.555 235.897 154.578 C 237.452 144.622 236.242 143.493 235.38 140.73 C 234.778 136.916 232.968 135.693 231.502 133.088 C 230.036 131.534 228.053 131.534 227.105 133.088 C 224.515 137.578 225.723 147.217 227.594 151.534 C 228.946 155.505 231.012 157.997 230.036 157.997 C 229.232 160.241 227.57 159.723 226.361 157.133 C 224.635 151.78 224.289 143.793 224.289 140.196 C 223.771 135.737 223.202 126.226 220.267 123.809 C 218.477 121.371 215.823 122.56 214.896 124.785 C 214.703 129.211 214.683 133.636 215.181 137.715 C 217.194 144.869 217.826 151.159 218.803 158.485 C 219.074 168.298 213.129 162.743 213.401 157.878 C 214.772 151.559 214.416 141.613 213.198 139.092 C 212.232 136.571 211.092 135.949 208.743 136.364 C 206.878 136.25 202.079 141.49 200.732 150.182 C 200.732 150.182 199.583 154.656 199.093 158.628 C 198.434 163.117 195.479 166.285 193.407 157.997 C 191.616 151.973 190.515 137.143 187.516 140.616 z "
     id="path766"
     sodipodi:nodetypes="cccccccccccccccccccccccccccccccccccccccc" />
  <path
     style="fill:#ffffff;fill-rule:evenodd;stroke:none;stroke-opacity:1;stroke-width:1pt;stroke-linejoin:miter;stroke-linecap:butt;fill-opacity:1;"
     d="M 219.88 188.161 C 209.37 193.299 199.205 198.092 188.866 203.057 C 189.244 196.027 203.611 183.337 213.409 183.158 C 219.786 183.336 218.184 185.629 219.88 188.161 z "
     id="path767"
     sodipodi:nodetypes="cccc" />
  <path
     style="fill:#ffffff;fill-rule:evenodd;stroke:none;stroke-opacity:1;stroke-width:1pt;stroke-linejoin:miter;stroke-linecap:butt;fill-opacity:1;"
     d="M 214.462 197.879 C 198.117 240.012 252.737 245.883 258.841 199.605 C 259.416 197.706 261.719 195.806 262.122 198.914 C 260.855 240.816 219.873 243.695 212.909 230.513 C 211.183 227.406 210.664 220.499 210.491 216.354 C 209.455 208.124 205.139 211.289 204.448 219.462 C 203.757 224.009 203.93 225.277 203.93 229.651 C 206.117 262.747 258.9 248.53 267.475 221.19 C 272.022 206.051 266.726 194.886 269.201 194.942 C 274.439 200.584 281.748 195.691 283.36 193.734 C 284.051 192.755 285.779 192.123 286.987 193.389 C 291.073 196.326 298.27 194.942 299.765 189.762 C 300.629 184.697 301.32 179.459 301.493 174.05 C 298.153 175.087 295.679 175.776 295.449 177.158 C 295.218 178.655 294.989 180.15 294.758 181.647 C 294.471 183.087 291.591 183.143 291.477 181.301 C 290.211 175.545 284.973 174.797 281.807 183.72 C 279.677 185.446 275.821 185.792 275.417 183.202 C 275.935 177.216 273.517 176.409 268.683 179.23 C 267.129 167.373 265.576 156.034 264.021 144.177 C 266.036 144.119 267.879 145.615 269.721 143.313 C 267.704 137.04 263.446 124.204 261.085 123.283 C 259.934 121.902 258.954 122.765 257.459 123.11 C 254.927 123.916 252.566 126.103 253.314 130.363 C 256.307 148.551 258.265 162.423 261.258 180.612 C 261.718 182.742 259.934 185.56 257.632 185.273 C 253.718 182.625 252.742 177.273 246.063 177.502 C 241.228 177.56 235.701 182.798 235.012 187.865 C 234.206 191.892 233.917 196.266 235.01 199.778 C 238.408 203.864 242.494 203.463 246.063 202.541 C 248.998 201.333 251.415 198.397 252.452 199.087 C 253.143 199.951 252.623 209.619 238.637 217.045 C 230.176 220.844 223.441 221.708 219.817 214.8 C 217.572 210.483 219.989 194.079 214.462 197.879 z "
     id="path768"
     sodipodi:nodetypes="cccccccccccccccccccccccccccccccccc" />
  <path
     style="fill:#ffffff;fill-rule:evenodd;stroke:none;stroke-opacity:1;stroke-width:1pt;stroke-linejoin:miter;stroke-linecap:butt;fill-opacity:1;"
     d="M 283.792 155.052 C 287.073 153.843 302.616 136.058 302.616 136.058 C 301.809 135.367 301.089 134.849 300.283 134.158 C 299.419 133.41 299.506 132.662 300.283 131.913 C 304.139 129.669 302.902 124.747 300.888 122.503 C 297.549 121.006 294.642 121.495 292.512 122.589 C 289.807 125.179 289.175 129.323 291.305 131.913 C 293.378 132.892 295.449 134.993 294.067 136.144 C 287.708 142.936 270.296 154.649 272.311 155.052 C 272.741 155.628 283.448 155.599 283.792 155.052 z "
     id="path769"
     sodipodi:nodetypes="cccccccccc" />
  <path
     style="fill:#ffffff;fill-rule:evenodd;stroke:none;stroke-opacity:1;stroke-width:1pt;stroke-linejoin:miter;stroke-linecap:butt;fill-opacity:1;"
     d="M 189.934 217.992 C 184.105 227.278 183.598 241.151 186.814 245.287 C 188.523 247.241 191.331 248.097 193.408 247.485 C 197.07 245.897 198.673 238.477 197.804 235.763 C 196.582 233.85 195.619 233.547 194.399 235.174 C 191.822 240.406 190.752 236.817 190.526 233.893 C 190.131 228.348 190.653 223.241 191.255 219.197 C 191.896 215.052 191.244 216.319 189.934 217.992 z "
     id="path770"
     sodipodi:nodetypes="ccccccsc" />
  <path
     style="fill:#ffffff;fill-rule:evenodd;stroke:none;stroke-opacity:1;stroke-width:1pt;stroke-linejoin:miter;stroke-linecap:butt;fill-opacity:1;"
     d="M 439.017 203.122 C 433.381 190.991 425.579 179.003 423.096 174.398 C 420.614 169.791 401.873 142.593 399.114 139.534 C 393.026 132.299 409 142.547 397.093 128.183 C 392.553 124.288 392.289 124.051 388.521 120.873 C 386.62 119.524 381.979 117.06 381.157 121.144 C 380.744 124.745 380.967 126.698 381.572 129.696 C 382.036 131.695 384.948 135.043 386.38 136.983 C 405.394 162.541 422.254 188.352 438.513 220.804 C 441.08 219.584 440.519 205.152 439.017 203.122 z "
     id="path771"
     sodipodi:nodetypes="csccccsccc" />
  <path
     style="fill:#ffffff;fill-rule:evenodd;stroke:none;stroke-opacity:1;stroke-width:1pt;stroke-linejoin:miter;stroke-linecap:butt;fill-opacity:1;"
     d="M 414.279 243.71 C 413.171 244.954 417.015 250.275 422.011 250.27 C 430.366 249.3 437.721 244.607 444.531 232.253 C 446.352 229.372 449.553 223.21 449.647 218.43 C 450.284 190.405 448.244 168.598 444.045 148.343 C 443.776 146.37 443.94 144.051 444.274 143.459 C 444.815 142.813 446.65 143.462 447.623 141.866 C 449.051 140.408 443.831 128.331 440.855 123.679 C 439.798 121.602 439.43 120.215 437.681 123.923 C 435.841 126.937 434.605 132.196 434.75 137.11 C 438.736 164.705 439.96 188.846 442.565 216.442 C 442.777 219.111 442.385 222.989 440.611 224.535 C 434.049 231.387 424.578 239.821 414.279 243.71 z "
     id="path793"
     sodipodi:nodetypes="ccccccccccccc" />
  <path
     style="fill:#ffffff;fill-rule:evenodd;stroke:none;stroke-opacity:1;stroke-width:1pt;stroke-linejoin:miter;stroke-linecap:butt;fill-opacity:1;"
     d="M 527.145 243.562 C 521.149 247.028 521.142 251.015 525.99 251.159 C 534.345 250.189 544.217 249.495 551.027 239.214 C 552.849 236.333 555.013 228.542 555.107 223.762 C 555.744 195.737 554.741 174.819 550.542 154.564 C 550.273 152.591 549.4 148.05 549.734 147.458 C 550.275 146.071 552.999 147.609 553.972 146.013 C 555.4 144.555 546.921 133.663 543.945 129.011 C 542.888 126.934 542.52 125.547 540.771 129.255 C 538.931 132.269 538.288 137.676 539.025 142.442 C 543.455 172.407 546.753 194.919 547.433 221.478 C 547.052 223.999 546.957 225.358 545.775 228.534 C 543.16 231.886 540.263 236.077 537.546 238.103 C 534.83 240.128 529.035 242.061 527.145 243.562 z "
     id="path794"
     sodipodi:nodetypes="ccccccccccccsc" />
  <path
     style="fill:#ffffff;fill-rule:evenodd;stroke:none;stroke-opacity:1;stroke-width:1pt;stroke-linejoin:miter;stroke-linecap:butt;fill-opacity:1;"
     d="M 531.639 216.7 C 531.57 209.692 531.738 203.641 531.507 198.414 C 531.277 193.187 530.353 188.931 528.544 185.221 C 526.832 181.243 527.895 178.046 527.091 173.809 C 526.288 169.573 526.486 163.229 525.272 158.202 C 524.939 156.239 523.919 149.952 524.234 149.349 C 524.729 147.946 526.614 149.393 527.535 147.767 C 528.914 146.264 522.752 130.32 519.626 125.767 C 518.502 123.726 516.461 124.425 513.944 127.744 C 511.61 129.928 512.476 134.909 513.367 139.648 C 519.362 170.934 523.834 199.251 522.858 229.033 C 522.559 231.565 531.701 221.48 531.639 216.7 z "
     id="path795"
     sodipodi:nodetypes="cssscccccccc" />
  <path
     style="fill:#ffffff;fill-rule:evenodd;stroke:none;stroke-opacity:0.528302;stroke-width:1pt;stroke-linejoin:miter;stroke-linecap:butt;fill-opacity:1;"
     d="M 487.34 177.892 C 483.569 177.823 475.671 170.554 473.366 166.295 C 472.495 163.852 473.054 161.469 473.822 160.073 C 475.218 159.165 477.366 158.145 478.972 159.123 C 478.972 159.123 480.637 161.453 480.315 161.749 C 482.374 162.735 483.248 162.168 483.457 161.33 C 483.597 159.864 482.848 158.99 482.84 157.375 C 483.713 152.995 488.719 152.314 490.604 155.107 C 491.984 156.81 492.49 160.428 492.699 162.871 C 492.677 164.119 490.656 162.655 489.508 162.955 C 488.359 163.256 488.083 164.581 487.994 165.78 C 487.786 168.956 487.41 174.052 487.34 177.892 z "
     id="path796"
     sodipodi:nodetypes="cccccccccscc" />
  <path
     style="fill:#ffffff;fill-rule:evenodd;stroke:none;stroke-opacity:1;stroke-width:1pt;stroke-linejoin:miter;stroke-linecap:butt;fill-opacity:1;"
     d="M 417.753 224.469 C 418.792 214.947 417.369 197.989 417.274 192.37 C 416.893 179.096 414.725 153.458 413.693 149.175 C 412.53 141.101 417.014 150.061 416.393 145.368 C 414.939 137.305 410.467 131.84 405.21 124.455 C 403.515 122.053 403.572 121.563 400.955 125.044 C 398.059 131.614 400.559 136.133 401.307 141.249 C 405.098 157.919 407.31 173.258 408.34 188.421 C 409.37 203.585 409.686 219.979 408.746 235.949 C 411.587 236.061 416.155 231.353 417.753 224.469 z "
     id="path797"
     sodipodi:nodetypes="cscccccscc" />
  <path
     style="fill:#ffffff;fill-rule:evenodd;stroke:none;stroke-opacity:1;stroke-width:1pt;stroke-linejoin:miter;stroke-linecap:butt;fill-opacity:1;"
     d="M 544.473 209.217 C 537.824 198.06 527.79 185.977 525.109 181.484 C 522.429 176.99 499.757 147.738 496.868 144.802 C 488.574 136.089 500.672 143.384 495.28 136.654 C 490.72 131.647 489.39 130.075 485.487 127.064 C 483.53 125.799 482.344 123.384 481.701 127.5 C 481.445 131.116 481.178 135.299 481.421 138.347 C 481.407 140.041 483.171 143.224 484.686 145.1 C 504.795 169.806 526.728 195.033 544.385 226.746 C 546.897 225.415 546.062 211.18 544.473 209.217 z "
     id="path798"
     sodipodi:nodetypes="csccccsccc" />
  <path
     style="fill:#1ba400;fill-rule:evenodd;stroke:none;stroke-opacity:1;stroke-width:1pt;stroke-linejoin:round;stroke-linecap:butt;fill-opacity:1;"
     d="M 242.792 188.632 C 242.313 189.471 241.248 190.558 241.605 191.683 C 242.352 192.695 242.948 192.9 244.192 192.955 C 245.271 192.955 246.779 193.21 247.103 192.573 C 247.684 191.933 248.126 190.627 247.642 189.394 C 246.518 186.585 243.379 187.632 242.792 188.632 z "
     id="path799"
     sodipodi:nodetypes="cccccc" />
  <path
     style="fill:#ffffff;fill-rule:evenodd;stroke:none;stroke-opacity:1;stroke-width:1.25;stroke-linejoin:round;stroke-linecap:butt;fill-opacity:1;stroke-dasharray:none;"
     d="M 467.162 351.255 C 476.054 351.582 481.874 351.661 489.783 352.602 C 489.783 352.602 496.603 351.928 499.039 351.56 C 509.334 350.578 509.79 366.264 509.79 366.264 C 509.677 375.464 506.126 375.945 501.593 376.917 C 499.003 377.247 497.642 375.366 496.281 373.363 C 494.572 374.078 492.25 374.181 489.436 373.791 C 485.731 373.559 482.025 373.574 478.32 373.342 C 474.383 372.995 472.289 373.752 468.352 373.405 C 467.541 374.679 466.486 376.443 464.078 375.875 C 462.075 375.654 459.702 370.03 460.401 365.755 C 461.847 362.689 461.45 363.675 461.299 362.328 C 424.942 361.402 388.237 359.781 352.574 360.244 C 324.67 360.36 297.112 361.518 269.554 362.676 C 254.849 362.444 243.618 360.128 235.86 348.781 C 236.555 348.781 273.375 350.865 284.144 350.17 C 304.059 349.938 322.237 348.318 342.5 347.739 C 382.447 348.433 422.047 348.434 461.994 351.212 C 458.173 348.598 458.036 342.423 463.917 340.914 C 464.417 340.57 464.675 343.984 465.555 343.92 C 470.26 343.567 468.197 349.941 467.162 351.255 z "
     id="path800"
     sodipodi:nodetypes="cccccccccccccccccccsc" />
  <path
     style="fill:#ffffff;fill-rule:evenodd;stroke:none;stroke-opacity:1;stroke-width:1pt;stroke-linejoin:miter;stroke-linecap:butt;fill-opacity:1;"
     d="M 306.784 131.067 C 300.73 148.37 310.252 167.297 316.854 165.454 C 321.617 167.426 324.65 158.365 326.6 148.438 C 327.934 145.652 328.942 145.355 329.627 146.787 C 329.451 159.988 330.575 162.912 333.969 166.919 C 341.54 172.76 347.803 167.665 348.294 167.173 C 348.785 166.682 354.189 161.278 354.189 161.278 C 355.501 159.898 357.248 159.817 359.101 161.033 C 360.902 162.67 360.649 165.498 364.505 167.459 C 367.75 168.757 374.688 167.759 376.295 164.963 C 378.458 161.256 378.977 159.983 379.979 158.577 C 381.523 156.522 384.155 157.436 384.155 158.085 C 383.909 159.231 382.364 160.378 383.418 162.442 C 385.254 163.819 385.678 162.933 386.764 162.627 C 390.605 160.791 393.489 152.436 393.489 152.436 C 393.659 149.328 391.917 149.585 390.787 150.225 C 389.313 151.126 389.217 151.414 387.743 152.315 C 385.865 152.594 382.222 153.839 380.421 151.05 C 378.582 147.697 378.557 143.019 377.151 139.637 C 377.151 139.391 374.711 134.31 376.982 133.985 C 378.128 134.198 380.573 134.845 380.962 132.786 C 382.164 130.779 378.388 125.096 375.804 122.224 C 373.561 119.762 370.453 119.465 367.453 121.979 C 365.352 123.912 365.654 126.072 365.242 128.119 C 364.707 130.47 364.821 133.362 367.207 136.47 C 369.304 140.605 373.13 145.93 371.874 153.418 C 371.874 153.418 369.639 156.957 365.745 156.494 C 364.122 156.14 361.49 155.451 360.084 145.067 C 359.02 137.207 360.335 126.21 356.999 121.054 C 355.794 117.941 354.914 114.935 351.978 120.259 C 351.189 122.35 347.803 125.523 350.259 132.049 C 352.268 136.187 353.086 142.921 352.174 150.413 C 350.782 152.542 350.473 153.263 348.648 155.392 C 346.084 158.149 343.302 157.445 341.171 156.416 C 339.18 155.074 337.621 154.38 336.712 150.117 C 336.876 143.322 337.255 132.199 336.013 129.839 C 334.182 126.184 331.162 127.506 329.872 128.61 C 323.674 134.277 320.612 143.839 318.741 151.453 C 317.022 157.002 315.193 155.412 313.907 153.173 C 310.776 150.239 310.564 127.295 306.784 131.067 z "
     id="path801"
     sodipodi:nodetypes="cccccccccccccccccccccccccccccccccccccccc" />
  <path
     style="fill:#ffffff;fill-rule:evenodd;stroke:none;stroke-opacity:1;stroke-width:1pt;stroke-linejoin:miter;stroke-linecap:butt;fill-opacity:1;"
     d="M 325.011 168.682 C 327.76 166.735 326.475 165.374 330.586 169.484 C 335.733 178.284 339.041 189.68 339.537 199.777 C 339.32 202.265 341.074 203.84 341.876 203.299 C 342.353 197.458 356.557 189.319 369.582 188.129 C 371.574 187.696 370.605 183.879 370.93 181.932 C 370.149 174.701 374.993 168.118 381.783 167.593 C 391.024 168.959 394.1 173.893 394.256 181.424 C 393.258 195.882 378.197 198.333 369.735 199.486 C 368.437 199.977 367.896 200.576 369.735 201.284 L 405.191 201.445 L 407 202.49 C 407.217 203.335 406.483 202.63 405.083 204.935 C 403.684 207.24 401.62 212.555 401.513 216.104 C 390.949 219.501 380.023 220.989 368.918 222.332 C 365.06 224.283 363.148 226.883 363.94 229.809 C 365.238 233.054 373.784 236.296 373.784 236.45 C 375.407 237.468 377.327 239.843 373.325 244.71 C 356.03 243.949 342.628 236.589 337.988 226.201 C 336.59 225.117 335.084 226.195 334.119 227.599 C 327.367 236.303 320.723 244.142 309.211 248.303 C 302.346 250.018 295.318 247.25 291.999 242.754 C 289.777 240.195 289.862 237.37 289.046 236.758 C 285.336 238.399 253.406 251.966 257.453 245.646 C 265.224 237.329 278.677 231.219 290.558 223.01 C 291.415 220.26 292.974 210.955 297.667 207.925 C 297.938 207.948 296.923 213.389 297.025 215.684 C 297.078 217.568 296.887 218.306 297.299 217.821 C 298.101 217.31 312.517 205.982 313.631 202.508 C 315.037 200.516 314.053 195.471 314.053 195.318 C 311.349 188.35 307.557 187.758 306.151 184.296 C 304.885 179.697 305.458 174.447 308.087 172.984 C 310.421 170.865 313.186 171.127 315.736 173.443 C 318.648 176.051 321.234 181.148 321.982 184.945 C 321.482 186.447 318.172 183.947 317.023 184.692 C 319.056 186.797 320.005 189.225 320.739 192.196 C 322.617 200.149 322.044 203.241 320.154 208.384 C 313.753 221.842 305.573 225.858 298.416 230.843 C 298.225 230.911 298.098 234.258 300.79 236.068 C 301.718 237.042 305.451 237.542 309.841 236.136 C 318.323 231.51 327.129 222.989 331.5 213.496 C 332.769 206.315 331.009 198.701 329.142 192.061 C 326.329 185.571 323.016 176.305 323.016 176.152 C 322.907 172.105 323.236 170.701 325.011 168.682 z "
     id="path802"
     sodipodi:nodetypes="ccccccccccccsccccccccccccccccccccccccccccccc" />
  <path
     style="font-size:12;fill:#ffffff;fill-rule:evenodd;stroke:none;stroke-width:0.955991pt;fill-opacity:1;"
     d="M 232.184 131.254 C 236.265 133.2 243.937 132.372 243.613 125.792 C 243.613 125.21 243.465 123.241 243.407 122.708 C 242.574 120.768 240.301 121.247 239.786 123.25 C 239.624 123.906 240.075 124.974 239.481 125.304 C 239.14 125.648 237.836 125.446 237.89 123.628 C 237.89 123.049 237.463 122.426 237.206 122.059 C 236.948 121.89 236.784 121.843 236.317 121.843 C 235.748 121.866 235.757 122.014 235.445 122.492 C 235.313 122.979 235.13 123.455 235.13 124.007 C 235.059 124.654 234.815 124.885 234.339 124.98 C 233.807 124.98 233.927 125.039 233.496 124.764 C 233.24 124.484 232.92 124.377 232.92 123.899 C 232.92 123.404 232.808 122.603 232.659 122.276 C 232.433 121.978 232.07 121.84 231.661 121.735 C 229.432 121.743 229.278 124.285 229.406 125.25 C 229.239 125.432 229.144 129.992 232.184 131.254 z "
     id="path803"
     sodipodi:nodetypes="ccccccccccccccccc" />
  <path
     style="font-size:12;fill:#ffffff;fill-rule:evenodd;stroke:none;stroke-width:0.955991pt;fill-opacity:1;"
     d="M 351.809 181.888 C 355.89 183.834 365.604 182.714 363.238 176.426 C 363.238 175.844 363.09 173.875 363.032 173.342 C 362.199 171.402 359.926 171.881 359.411 173.884 C 359.249 174.54 359.7 175.608 359.106 175.938 C 358.765 176.282 357.461 176.08 357.515 174.262 C 357.515 173.683 357.088 173.06 356.831 172.693 C 356.573 172.524 356.409 172.477 355.942 172.477 C 355.373 172.5 355.382 172.648 355.07 173.126 C 354.938 173.613 354.755 174.089 354.755 174.641 C 354.684 175.288 354.44 175.519 353.964 175.614 C 353.432 175.614 353.552 175.673 353.121 175.398 C 352.865 175.118 352.545 175.011 352.545 174.533 C 352.545 174.038 352.433 173.237 352.284 172.91 C 352.058 172.612 351.695 172.474 351.286 172.369 C 349.057 172.377 348.903 174.919 349.031 175.884 C 348.864 176.066 348.769 180.626 351.809 181.888 z "
     id="path804"
     sodipodi:nodetypes="ccccccccccccccccc" />
  <path
     style="font-size:12;fill:#ffffff;fill-rule:evenodd;stroke:none;stroke-width:0.955991pt;fill-opacity:1;"
     d="M 421.565 160.931 C 425.646 162.877 433.318 162.049 432.994 155.469 C 432.994 154.887 432.846 152.918 432.788 152.385 C 431.955 150.445 429.682 150.924 429.167 152.927 C 429.005 153.583 429.456 154.651 428.862 154.981 C 428.521 155.325 427.217 155.123 427.271 153.305 C 427.271 152.726 426.844 152.103 426.587 151.736 C 426.329 151.567 426.165 151.52 425.698 151.52 C 425.129 151.543 425.138 151.691 424.826 152.169 C 424.694 152.656 424.511 153.132 424.511 153.684 C 424.44 154.331 424.196 154.562 423.72 154.657 C 423.188 154.657 423.308 154.716 422.877 154.441 C 422.621 154.161 422.301 154.054 422.301 153.576 C 422.301 153.081 422.189 152.28 422.04 151.953 C 421.814 151.655 421.451 151.517 421.042 151.412 C 418.813 151.42 418.659 153.962 418.787 154.927 C 418.62 155.109 418.525 159.669 421.565 160.931 z "
     id="path805"
     sodipodi:nodetypes="ccccccccccccccccc" />
  <path
     style="fill:#ffffff;fill-rule:evenodd;stroke:none;stroke-opacity:1;stroke-width:1pt;stroke-linejoin:miter;stroke-linecap:butt;fill-opacity:1;"
     d="M 457.694 213.564 C 450.582 221.579 453.718 234.836 455.324 237.692 C 457.669 242.383 459.557 245.392 464.12 247.712 C 468.276 250.771 471.514 248.859 473.299 246.717 C 477.481 242.383 477.531 231.318 479.494 229.125 C 480.871 225.097 484.338 225.785 486.021 227.57 C 487.652 229.915 489.573 231.427 491.969 232.703 C 495.87 236.144 500.528 236.773 505.117 233.637 C 508.253 231.878 510.292 229.605 512.128 225.093 C 514.168 219.637 513.031 194.43 512.623 179.49 C 512.466 178.318 508.569 158.945 508.569 158.729 C 508.569 158.512 508.054 148.842 507.625 146.538 C 507.55 145.603 507.318 145.334 508.298 145.453 C 509.337 146.327 509.479 146.382 510.128 146.67 C 511.177 146.862 512.116 145.077 511.483 143.434 C 508.238 137.449 504.993 131.463 501.748 125.478 C 500.967 124.709 499.958 123.864 498.719 125.695 C 497.535 126.733 496.274 128.612 496.313 131.027 C 496.601 135.282 497.349 139.612 497.637 143.867 C 498.935 151.15 500.234 158.434 501.532 165.717 C 502.758 181.293 503.065 194.04 504.291 209.616 C 504.119 216.211 502.069 221.961 500.146 222.791 C 500.146 222.791 497.22 224.487 495.258 222.614 C 493.831 222.041 488.119 213.095 488.119 213.095 C 485.199 210.418 483.274 211.183 481.196 213.095 C 475.466 218.628 472.873 228.979 468.979 236.118 C 467.975 237.711 465.137 239.075 461.993 236.002 C 454.008 225.093 458.688 209.573 457.694 213.564 z "
     id="path806"
     sodipodi:nodetypes="cccccccccccccccccccccccccccc" />
  <path
     style="fill:#ffffff;fill-rule:evenodd;stroke:none;stroke-opacity:1;stroke-width:1.25;stroke-linejoin:round;stroke-linecap:butt;fill-opacity:1;stroke-dasharray:none;"
     d="M 423.396 122.724 C 427.052 124.254 429.631 131.66 428.79 135.276 C 428.062 139.749 426.123 144.58 424.729 143.951 C 423.214 143.389 425.762 139.505 424.306 135.429 C 423.497 132.776 418.508 127.929 419.033 126.5 C 418.003 123.506 421.154 122.196 423.396 122.724 z "
     id="path807"
     sodipodi:nodetypes="cccccc" />
  <path
     style="fill:#ffffff;fill-rule:evenodd;stroke:none;stroke-opacity:1;stroke-width:1pt;stroke-linejoin:miter;stroke-linecap:butt;fill-opacity:1;"
     d="M 469.465 217.957 C 470.234 209.064 468.936 203.641 468.705 198.414 C 468.475 193.187 462.793 153.304 461.641 149.349 C 460.251 141.871 467.164 148.346 466.409 143.997 C 464.017 138.514 458.065 130.53 456.196 125.767 C 455.072 123.726 455.544 121.911 453.027 125.23 C 450.693 132.861 449.883 139.098 450.774 143.837 C 456.769 175.123 462.917 201.136 461.941 230.918 C 464.784 230.937 468.061 224.413 469.465 217.957 z "
     id="path808"
     sodipodi:nodetypes="csccccccc"
     transform="translate(0.000000,-1.525879e-5)" />
  <path
     style="fill:#ffffff;fill-rule:evenodd;stroke:none;stroke-opacity:1;stroke-width:1.25;stroke-linejoin:round;stroke-linecap:butt;fill-opacity:1;stroke-dasharray:none;"
     d="M 531.932 135.328 C 535.265 136.985 537.217 146.266 536.849 148.917 C 536.186 153.76 534.418 158.99 533.147 158.309 C 531.766 157.701 533.424 151.127 532.761 149.083 C 532.024 146.211 527.476 140.963 527.954 139.416 C 527.015 136.175 529.888 134.757 531.932 135.328 z "
     id="path809"
     sodipodi:nodetypes="cccccc" />
  <path
     style="fill:#ffffff;fill-rule:evenodd;stroke:none;stroke-opacity:1;stroke-width:1.25;stroke-linejoin:round;stroke-linecap:butt;fill-opacity:1;stroke-dasharray:none;"
     d="M 284.221 201.139 C 287.409 202.356 289.278 209.176 288.926 211.125 C 288.29 214.683 286.598 218.526 285.384 218.026 C 284.062 217.579 285.649 212.748 285.014 211.246 C 284.745 207.603 280.32 205.717 280.413 204.143 C 279.587 201.25 282.264 200.718 284.221 201.139 z "
     id="path810"
     sodipodi:nodetypes="cccccc" />
  <path
     style="fill:#1b9d00;fill-rule:evenodd;stroke:none;stroke-opacity:1;stroke-width:1pt;stroke-linejoin:miter;stroke-linecap:butt;fill-opacity:1;"
     d="M 361.25 211.375 C 365.365 211.636 367.421 214.865 363.567 216.219 C 359.765 217.521 356.111 218.538 356.094 224.032 C 357.5 231.688 354.165 229.061 352.176 228.021 C 349.832 226.338 343.254 222.286 342.317 213.536 C 342.176 211.448 343.804 209.691 346.425 209.703 C 350.373 210.776 356.198 210.854 361.25 211.375 z "
     id="path811"
     sodipodi:nodetypes="ccccccc" />
  <path
     style="fill:#ffffff;fill-rule:evenodd;stroke:none;stroke-opacity:1;stroke-width:1.25;stroke-linejoin:round;stroke-linecap:butt;fill-opacity:1;stroke-dasharray:none;"
     d="M 199.006 120.517 C 203.71 121.935 203.988 128.849 203.641 130.87 C 203.014 134.559 201.348 138.543 200.151 138.024 C 198.849 137.561 200.1 132.553 199.475 130.995 C 198.778 128.807 194.803 124.81 195.254 123.632 C 194.369 121.162 197.078 120.081 199.006 120.517 z "
     id="path812"
     sodipodi:nodetypes="cccccc" />
  <path
     style="fill:#ffffff;fill-rule:evenodd;stroke:none;stroke-opacity:1;stroke-width:1pt;stroke-linejoin:miter;stroke-linecap:butt;fill-opacity:1;"
     d="M 291.903 153.115 C 288.294 155.067 286.894 160.886 289.141 164.274 C 291.24 167.258 294.555 166.152 294.997 166.152 C 298.533 166.594 300.631 159.523 300.631 159.523 C 300.631 159.523 300.742 157.535 296.543 161.292 C 294.776 161.623 294.555 160.96 294.113 159.965 C 293.745 158.124 293.818 156.283 294.665 154.441 C 295.291 152.674 293.928 151.9 291.903 153.115 z "
     id="path813"
     sodipodi:nodetypes="cccccccc" />
  <path
     style="fill:#ffffff;fill-rule:evenodd;stroke:none;stroke-opacity:1;stroke-width:1pt;stroke-linejoin:miter;stroke-linecap:butt;fill-opacity:1;"
     d="M 318.972 117.845 C 317.158 119.061 313.548 122.801 313.438 127.11 C 313.328 129.541 312.875 129.534 314.467 131.081 C 315.617 132.739 316.777 132.59 319.098 131.374 C 320.431 130.392 320.882 129.74 321.331 128.093 C 321.884 125.331 318.411 129.403 317.969 126.329 C 317.196 123.475 319.426 122.307 321.525 119.545 C 321.595 117.653 321.554 116.313 318.972 117.845 z "
     id="path814"
     sodipodi:nodetypes="cccccccc" />
  <path
     style="fill:#ffffff;fill-rule:evenodd;stroke:none;stroke-opacity:1;stroke-width:1pt;stroke-linejoin:miter;stroke-linecap:butt;fill-opacity:1;"
     d="M 340.782 121.719 C 340 123.446 339.063 132.467 339.219 132.467 C 338.595 135.155 342.032 136.305 343.595 132.85 C 345.938 126.516 345.938 123.829 346.095 121.142 C 345.365 117.049 342.605 117.177 340.782 121.719 z "
     id="path815"
     sodipodi:nodetypes="ccccc" />
  <path
     style="fill:#ffffff;fill-rule:evenodd;stroke:none;stroke-opacity:0.408805;stroke-width:1pt;stroke-linejoin:miter;stroke-linecap:butt;fill-opacity:1;"
     d="M 478.282 191.687 C 478.751 191.218 497.658 177.781 497.658 177.781 C 499.585 177.104 499.168 184.708 498.283 184.656 C 498.647 186.166 479.637 199.083 478.282 198.562 C 477.345 199.239 476.407 193.354 478.282 191.687 z "
     id="path816"
     sodipodi:nodetypes="ccccc" />
  <path
     style="fill:#ffffff;fill-rule:evenodd;stroke:none;stroke-opacity:1;stroke-width:1.25;stroke-linejoin:round;stroke-linecap:butt;fill-opacity:1;stroke-dasharray:none;"
     d="M 495.525 191.578 C 498.858 193.235 500.185 202.985 499.817 205.636 C 499.935 210.792 496.605 214.928 495.334 214.247 C 493.953 213.639 495.455 207.846 494.792 205.802 C 494.055 202.93 491.225 197.526 491.703 195.979 C 490.764 192.738 493.481 191.007 495.525 191.578 z "
     id="path817"
     sodipodi:nodetypes="cccccc" />
  <path
     style="fill:#ffffff;fill-rule:evenodd;stroke:none;stroke-opacity:1;stroke-width:1pt;stroke-linejoin:miter;stroke-linecap:butt;fill-opacity:1;"
     d="M 383.061 233.563 C 384.376 231.641 388.438 228.875 388.53 228.875 C 390.404 227.937 392.235 229.61 392.124 229.5 C 392.436 231.375 390.938 233.12 391.407 235.621 C 391.817 236.629 392.117 237.748 393.964 237.321 C 396.966 234.959 399.747 234.807 402.749 234.656 C 405.05 234.795 405.141 238.69 403.686 238.719 C 398.143 239.924 395.659 241.408 391.701 242.919 C 389.826 244.012 388.217 242.625 388.217 242.469 C 388.217 242.313 387.12 241.405 387.886 238.921 C 388.022 236.929 387.22 235.837 385.561 236.063 C 384.311 236.739 383.21 237.187 382.585 235.75 C 382.339 234.689 382.259 234.173 383.061 233.563 z "
     id="path818"
     sodipodi:nodetypes="ccccccccccccc" />
  <path
     style="fill:#ffffff;fill-rule:evenodd;stroke:none;stroke-opacity:1;stroke-width:1pt;stroke-linejoin:miter;stroke-linecap:butt;fill-opacity:1;"
     d="M 515.416 238.814 C 516.226 239.845 516.75 240.799 515.351 242.493 C 514.025 243.708 513.091 244.377 511.765 245.592 C 511.139 246.66 510.739 248.28 512.654 248.796 C 516.19 249.79 524.366 244.487 524.366 244.376 C 525.692 243.382 525.25 241.504 525.139 241.504 C 524.366 240.62 522.624 241.145 521.452 241.002 C 520.894 241.002 519.064 240.725 519.935 239.105 C 520.662 238.097 520.922 237.48 521.415 236.238 C 521.967 235.023 521.493 234.212 519.504 233.549 C 517.478 233.181 516.669 233.365 514.422 233.549 C 513.207 233.807 512.792 234.35 512.571 235.823 C 512.658 238.057 514.017 237.93 515.416 238.814 z "
     id="path819"
     sodipodi:nodetypes="ccccccccccccc" />
  <path
     sodipodi:type="arc"
     style="fill-rule:evenodd;stroke:none;fill:#259f00;fill-opacity:1;stroke-opacity:1;stroke-width:1pt;stroke-linejoin:miter;stroke-linecap:butt;"
     id="path820"
     d="M 384.689087 181.374191 A 3.437515 3.125015 0 1 0 377.814087,181.374191 A 3.43752 3.12502 0 1 0 384.689 181.374 L 381.251587 181.374191 z"
     sodipodi:cx="381.251587"
     sodipodi:cy="181.374191"
     sodipodi:rx="3.437515"
     sodipodi:ry="3.125015"
     transform="matrix(0.865631,0.500682,-0.300410,0.519379,105.2730,-102.9752)" />
  <path
     sodipodi:type="arc"
     style="fill-rule:evenodd;stroke:none;fill:#259f00;fill-opacity:1;stroke-opacity:1;stroke-width:1pt;stroke-linejoin:miter;stroke-linecap:butt;"
     id="path821"
     d="M 384.689087 181.374191 A 3.437515 3.125015 0 1 0 377.814087,181.374191 A 3.43752 3.12502 0 1 0 384.689 181.374 L 381.251587 181.374191 z"
     sodipodi:cx="381.251587"
     sodipodi:cy="181.374191"
     sodipodi:rx="3.437515"
     sodipodi:ry="3.125015"
     transform="matrix(0.316782,0.695571,-0.569100,0.139385,278.8449,-160.9473)" />
  <path
     style="fill:#209000;fill-rule:evenodd;stroke:none;stroke-opacity:1;stroke-width:1pt;stroke-linejoin:miter;stroke-linecap:butt;fill-opacity:1;"
     d="M 468.202 363.299 C 477.262 363.741 485.774 363.402 494.834 363.844 C 496.475 365.239 495.303 368.665 494.209 368.419 C 491.263 368.345 489.566 368.272 486.62 368.198 C 486.519 365.312 479.154 365.786 479.366 368.29 C 475.389 368.768 471.802 368.151 467.825 368.004 C 466.649 366.54 466.8 363.904 468.202 363.299 z "
     id="path822"
     sodipodi:nodetypes="ccccccc" />
</svg>
