<?xml version="1.0" encoding="UTF-8" standalone="no"?>
<!DOCTYPE svg PUBLIC "-//W3C//DTD SVG 20010904//EN"
"http://www.w3.org/TR/2001/REC-SVG-20010904/DTD/svg10.dtd">
<!-- Created with Sodipodi ("http://www.sodipodi.com/") -->
<svg
   id="svg552"
   sodipodi:version="0.32"
   width="280mm"
   height="140mm"
   sodipodi:docbase="/home/cschalle/sodipodi-flags/nations/"
   sodipodi:docname="/home/cschalle/sodipodi-flags/nations/slovenia.svg"
   xmlns="http://www.w3.org/2000/svg"
   xmlns:sodipodi="http://sodipodi.sourceforge.net/DTD/sodipodi-0.dtd"
   xmlns:xlink="http://www.w3.org/1999/xlink">
  <defs
     id="defs554" />
  <sodipodi:namedview
     id="base" />
  <rect
     style="font-size:12;fill:#ffffff;fill-rule:evenodd;stroke-width:1pt;fill-opacity:1;"
     id="rect555"
     width="994.660400"
     height="497.330170"
     x="0.000000"
     y="0" />
  <rect
     style="font-size:12;fill:#de2918;fill-rule:evenodd;stroke-width:1pt;fill-opacity:1;"
     id="rect556"
     x="0.000000"
     height="165.776723333"
     width="994.660400"
     y="331.553446666" />
  <rect
     style="font-size:12;fill:#08399c;fill-rule:evenodd;stroke-width:1pt;fill-opacity:1;"
     id="rect563"
     x="0.000000"
     height="165.776723333"
     width="994.660400"
     y="165.776723333" />
  <path
     style="font-size:12;fill:#de2918;fill-rule:evenodd;stroke-width:1pt;"
     d="M 311.663 103.348 C 308.312 163.233 306.392 196.05 298.565 211.233 C 290.102 227.541 281.869 239.481 248.848 253.858 C 215.826 239.481 207.593 227.541 199.13 211.233 C 191.303 196.05 189.383 163.233 186.032 103.348 L 190.912 101.433 C 200.736 97.9427 208.066 95.1351 213.488 93.889 C 221.253 91.9745 227.852 89.8098 248.72 89.3018 C 269.588 89.72 276.22 92.0193 283.985 93.9339 C 289.362 95.2697 297.006 97.8978 306.757 101.456 L 311.663 103.348 z "
     id="path694"
     sodipodi:nodetypes="ccccccccccc"
     transform="matrix(1.165015,0.000000,0.000000,1.000000,-81.04471,-13.03642)" />
  <path
     style="font-size:12;fill:#08399c;fill-rule:evenodd;stroke-width:1pt;"
     d="M 306.853 101.427 C 303.683 161.166 301.031 188.523 296.895 201.676 C 288.869 224.198 276.163 236.546 248.816 248.324 C 221.47 236.546 208.764 224.198 200.738 201.676 C 196.602 188.523 193.989 161.244 190.91 101.367 C 200.527 97.8688 208.066 95.1351 213.488 93.889 C 221.253 91.9745 227.852 89.72 248.72 89.3018 C 269.588 89.72 276.265 91.9745 284.03 93.889 C 289.452 95.1351 297.147 97.8688 306.853 101.427 z "
     id="path675"
     sodipodi:nodetypes="ccccccccc"
     transform="matrix(1.165015,0.000000,0.000000,1.000282,-81.04471,-13.10655)" />
  <path
     transform="matrix(1.347046,0.000000,0.000000,1.110715,-107.3459,0.922190)"
     style="font-size:12;fill:#ffcc00;fill-rule:evenodd;stroke-width:1pt;"
     d="M 234.698 95.1828 L 235.832 98.4383 L 240.815 99.2668 L 237.586 101.628 L 240.708 104.159 L 236.167 105.082 L 234.785 108.032 L 233.231 104.994 L 228.908 104.25 L 231.85 101.664 L 228.821 99.3105 L 233.606 98.4209 L 234.698 95.1828 z "
     id="path651"
     sodipodi:nodetypes="ccccccccccccc" />
  <path
     style="font-size:12;fill:#ffffff;fill-rule:evenodd;stroke-width:1pt;"
     d="M 294.918 187.514 L 291.724 184.573 L 289.416 180.149 L 284.895 175.58 L 282.539 170.963 L 278.018 166.25 L 275.806 161.634 L 273.402 159.373 L 271.815 157.594 L 267.731 161.766 L 265.505 166.297 L 262.731 169.227 L 259.684 166.454 L 257.38 161.727 L 248.827 144.032 L 240.273 161.727 L 237.969 166.454 L 234.922 169.227 L 232.148 166.297 L 229.922 161.766 L 225.838 157.594 L 224.251 159.373 L 221.847 161.634 L 219.635 166.25 L 215.114 170.963 L 212.758 175.58 L 208.237 180.149 L 205.929 184.573 L 202.743 187.583 C 204.397 203.985 213.372 216.836 218.262 222.715 C 223.719 228.888 234.97 237.147 248.728 242.614 C 262.525 237.264 273.932 228.888 279.389 222.715 C 284.279 216.836 293.254 203.985 294.918 187.514 z "
     id="path627"
     sodipodi:nodetypes="ccccccccccccccccccccccccccccccccc"
     transform="matrix(1.165015,0.000000,0.000000,1.000000,-81.04471,-13.03642)" />
  <path
     transform="matrix(1.347046,0.000000,0.000000,1.110715,-91.32693,-24.23410)"
     style="font-size:12;fill:#ffcc00;fill-rule:evenodd;stroke-width:1pt;"
     d="M 234.698 95.1828 L 235.832 98.4383 L 240.815 99.2668 L 237.586 101.628 L 240.708 104.159 L 236.167 105.082 L 234.785 108.032 L 233.231 104.994 L 228.908 104.25 L 231.85 101.664 L 228.821 99.3105 L 233.606 98.4209 L 234.698 95.1828 z "
     id="path654"
     sodipodi:nodetypes="ccccccccccccc" />
  <path
     transform="matrix(1.347046,0.000000,0.000000,1.110715,-123.3649,-24.28933)"
     style="font-size:12;fill:#ffcc00;fill-rule:evenodd;stroke-width:1pt;"
     d="M 234.698 95.1828 L 235.832 98.4383 L 240.815 99.2668 L 237.586 101.628 L 240.708 104.159 L 236.167 105.082 L 234.785 108.032 L 233.231 104.994 L 228.908 104.25 L 231.85 101.664 L 228.821 99.3105 L 233.606 98.4209 L 234.698 95.1828 z "
     id="path655"
     sodipodi:nodetypes="ccccccccccccc" />
  <path
     style="font-size:12;fill:#08399c;fill-rule:evenodd;stroke-width:1pt;fill-opacity:1;"
     d="M 287.777 210.249 L 281.55 210.271 L 275.804 209.773 L 268.844 205.796 L 260.999 205.851 L 254.205 209.718 L 248.846 210.27 L 243.487 209.718 L 236.693 205.851 L 228.848 205.796 L 221.888 209.773 L 216.142 210.271 L 209.837 210.17 L 206.792 204.161 L 206.905 204.023 L 216.22 205.818 L 221.966 205.32 L 228.926 201.343 L 236.771 201.398 L 243.565 205.265 L 248.924 205.817 L 254.283 205.265 L 261.077 201.398 L 268.922 201.343 L 275.882 205.32 L 281.628 205.818 L 290.694 203.966 L 290.814 204.244 L 287.777 210.249 z "
     id="path664"
     sodipodi:nodetypes="cccccccccccccccccccccccccc"
     transform="matrix(1.165015,0.000000,0.000000,1.000000,-81.04471,-13.03642)" />
  <path
     style="font-size:12;fill:#08399c;fill-rule:evenodd;stroke-width:1pt;fill-opacity:1;"
     d="M 215.724 210.271 L 221.888 209.773 L 228.848 205.796 L 236.693 205.851 L 243.487 209.718 L 248.846 210.27 L 254.205 209.718 L 260.999 205.851 L 268.844 205.796 L 275.804 209.773 L 282.052 210.271 L 286.083 204.482 L 285.947 204.351 L 281.628 205.818 L 275.882 205.32 L 268.922 201.343 L 261.077 201.398 L 254.283 205.265 L 248.924 205.817 L 243.565 205.265 L 236.771 201.398 L 228.926 201.343 L 221.966 205.32 L 216.22 205.818 L 211.987 204.575 L 211.936 204.817 L 215.724 210.271 z "
     id="path665"
     transform="matrix(1.165015,0.000000,0.000000,1.000000,-81.09022,-3.817680)"
     sodipodi:nodetypes="cccccccccccccccccccccccc" />
</svg>
