<?xml version="1.0" encoding="UTF-8" standalone="no"?>
<!DOCTYPE svg PUBLIC "-//W3C//DTD SVG 20010904//EN"
"http://www.w3.org/TR/2001/REC-SVG-20010904/DTD/svg10.dtd">
<!-- Created with Sodipodi ("http://www.sodipodi.com/") -->
<svg
   id="svg548"
   sodipodi:version="0.33pre"
   width="280mm"
   height="140mm"
   sodipodi:docname="/home/yemu/clipart/newnewnew/solomonislands.svg"
   xmlns="http://www.w3.org/2000/svg"
   xmlns:sodipodi="http://sodipodi.sourceforge.net/DTD/sodipodi-0.dtd"
   xmlns:xlink="http://www.w3.org/1999/xlink"
   sodipodi:docbase="/home/yemu/clipart/newnewnew">
  <defs
     id="defs550">
    <sodipodi:namedview
       id="namedview1340" />
    <defs
       id="defs380" />
  </defs>
  <sodipodi:namedview
     id="base"
     showgrid="true"
     snaptogrid="true" />
  <path
     style="font-size:12;fill-rule:evenodd;stroke-width:1pt;fill:#0000d6;fill-opacity:1;"
     d="M 6.34766e-05 491.386 L 956.693 0.000142659 L 6.34766e-05 0.000142659 L 6.34766e-05 491.386 z "
     id="path1338"
     sodipodi:nodetypes="cccc" />
  <path
     style="font-size:12;fill-rule:evenodd;stroke-width:1pt;fill:#006000;fill-opacity:1;"
     d="M 992.126 -5.34058e-05 L 26.3264 496.063 L 992.126 496.063 L 992.126 -5.34058e-05 z "
     id="path552"
     sodipodi:nodetypes="cccc" />
  <path
     style="font-size:12;fill:#ffcc00;fill-rule:evenodd;stroke-width:1pt;"
     d="M 119.055 2.35922e-16 L 112.677 2.35922e-16 L 0 56.4298 L 0 59.5276 L 6.37795 59.5276 L 119.055 3.20849 L 119.055 2.35922e-16 z "
     id="path558"
     sodipodi:nodetypes="ccccccc"
     transform="scale(8.333333,8.333333)" />
  <polygon
     points="591.041,433.161 533.774,391.476 476.501,433.151 498.449,365.806 441.115,324.214 511.946,324.278 533.785,256.897 555.613,324.281 626.445,324.23 569.104,365.812 591.041,433.161 "
     style="font-size:12;fill:#ffffff;fill-rule:evenodd;stroke-width:1pt;fill-opacity:1;"
     id="polygon1350"
     transform="matrix(0.526233,0.000000,0.000000,0.495239,-211.7178,-118.3879)" />
  <polygon
     points="591.041,433.161 533.774,391.476 476.501,433.151 498.449,365.806 441.115,324.214 511.946,324.278 533.785,256.897 555.613,324.281 626.445,324.23 569.104,365.812 591.041,433.161 "
     style="font-size:12;fill:#ffffff;fill-rule:evenodd;stroke-width:1pt;fill-opacity:1;"
     id="polygon1351"
     transform="matrix(0.526233,0.000000,0.000000,0.495239,-26.52567,-118.3879)" />
  <polygon
     points="591.041,433.161 533.774,391.476 476.501,433.151 498.449,365.806 441.115,324.214 511.946,324.278 533.785,256.897 555.613,324.281 626.445,324.23 569.104,365.812 591.041,433.161 "
     style="font-size:12;fill:#ffffff;fill-rule:evenodd;stroke-width:1pt;fill-opacity:1;"
     id="polygon1352"
     transform="matrix(0.526233,0.000000,0.000000,0.495239,-26.52568,21.59556)" />
  <polygon
     points="591.041,433.161 533.774,391.476 476.501,433.151 498.449,365.806 441.115,324.214 511.946,324.278 533.785,256.897 555.613,324.281 626.445,324.23 569.104,365.812 591.041,433.161 "
     style="font-size:12;fill:#ffffff;fill-rule:evenodd;stroke-width:1pt;fill-opacity:1;"
     id="polygon1353"
     transform="matrix(0.526233,0.000000,0.000000,0.495239,-118.5771,-47.57909)" />
  <polygon
     points="591.041,433.161 533.774,391.476 476.501,433.151 498.449,365.806 441.115,324.214 511.946,324.278 533.785,256.897 555.613,324.281 626.445,324.23 569.104,365.812 591.041,433.161 "
     style="font-size:12;fill:#ffffff;fill-rule:evenodd;stroke-width:1pt;fill-opacity:1;"
     id="polygon1354"
     transform="matrix(0.526233,0.000000,0.000000,0.495239,-211.7178,21.59556)" />
</svg>
