<?xml version="1.0" encoding="UTF-8" standalone="no"?>
<!DOCTYPE svg PUBLIC "-//W3C//DTD SVG 1.0//EN"
"http://www.w3.org/TR/2001/REC-SVG-20010904/DTD/svg10.dtd">
<!-- Created with Sodipodi ("http://www.sodipodi.com/") -->
<svg
   id="svg551"
   sodipodi:version="0.33pre"
   xmlns="http://www.w3.org/2000/svg"
   xmlns:sodipodi="http://sodipodi.sourceforge.net/DTD/sodipodi-0.dtd"
   xmlns:xlink="http://www.w3.org/1999/xlink"
   width="280mm"
   height="140mm"
   sodipodi:docbase="/home/tobias"
   sodipodi:docname="/home/tobias/Sri_Lanka.svg">
  <defs
     id="defs553" />
  <sodipodi:namedview
     id="base" />
  <rect
     style="font-size:12;fill:#ffcc00;fill-rule:evenodd;stroke-width:1pt;fill-opacity:1;"
     id="rect628"
     width="992.125977"
     height="496.062988"
     x="0.000000"
     y="0.000055" />
  <rect
     style="font-size:12;fill:#ff6600;fill-rule:evenodd;stroke-width:1pt;fill-opacity:1;"
     id="rect626"
     width="158.536906"
     height="413.349972"
     x="197.417677"
     y="41.356456" />
  <rect
     style="font-size:12;fill:#006600;fill-rule:evenodd;stroke-width:1pt;fill-opacity:1;"
     id="rect625"
     width="156.211832"
     height="413.414559"
     x="41.334992"
     y="41.356438" />
  <rect
     style="font-size:12;fill:#991b33;fill-rule:evenodd;stroke-width:1pt;fill-opacity:1;"
     id="rect627"
     width="553.446458"
     height="413.425257"
     x="397.333844"
     y="41.343298" />
  <g
     id="g602"
     transform="matrix(2.296320,0.000000,0.000000,2.296320,0.000000,-1.525879e-5)">
    <path
       style="fill:#ffcc00;fill-rule:evenodd;stroke:#991b33;stroke-opacity:1;stroke-width:1pt;stroke-linejoin:round;stroke-linecap:round;fill-opacity:1;"
       d="M 267.945 101.345 L 271.5 101.436 C 271.5 101.436 267.49 104.808 268.401 109.365 C 272.594 103.168 274.143 104.352 274.143 104.352 C 272.867 105.719 270.406 107.633 272.32 111.826 C 273.961 107.542 277.333 104.261 277.333 104.261 C 277.333 104.261 276.421 109 278.426 113.375 C 279.884 109 282.345 105.264 282.345 105.264 C 282.345 105.264 281.981 110.003 284.077 111.734 C 285.717 110.276 286.811 106.539 286.811 106.539 C 286.811 106.539 289.91 112.008 291.824 112.828 C 293.373 109.091 293.373 106.175 293.373 106.175 C 293.373 106.175 299.753 110.732 304.856 108.089 C 300.299 106.449 298.75 102.621 298.75 102.621 C 298.75 102.621 307.044 106.266 310.598 104.626 C 307.134 101.982 299.024 98.0637 299.024 98.0637 C 299.024 98.0637 305.039 100.251 306.77 99.7042 C 305.95 98.5194 303.307 97.0611 303.307 97.0611 "
       id="path579"
       sodipodi:nodetypes="cccccccccccccccccc" />
    <path
       id="selection_to_path#1"
       fill="none"
       stroke="black"
       stroke-width="1"
       d="M 317.72 56.88 C 328.71 55.88 345.69 64.86 354.69 70.85 C 354.69 68.85 354.69 66.86 356.68 65.86 C 358.68 64.86 361.68 66.86 360.68 69.85 C 357.68 76.83 345.69 68.85 341.7 66.86 C 341.7 66.86 343.7 70.85 343.7 70.85 C 337.7 69.85 336.7 68.85 332.71 63.86 C 331.71 67.85 331.71 68.85 326.71 68.85 C 328.59 65.89 329.22 64.9 326.71 61.87 C 326.71 61.87 325.71 67.85 325.71 67.85 C 325.71 67.85 320.72 60.87 320.72 60.87 C 320.72 60.87 320.72 67.85 320.72 67.85 C 319.72 66.86 315.72 63.86 313.72 63.86 C 310.73 62.86 308.73 68.85 307.73 71.85 C 310.73 68.85 311.72 66.86 316.72 68.85 C 314.01 71.41 314.8 74.48 317.72 76.83 C 317.72 76.83 318.24 72.68 318.56 71.73 C 320.15 72.92 323.52 77.39 327.71 77.83 C 330.71 77.83 333.71 76.83 336.7 75.84 C 346.69 74.84 368.67 76.83 363.68 91.8 C 362.68 94.8 361.68 96.79 359.68 98.79 C 373.67 103.78 361.68 121.74 358.68 130.72 C 356.68 138.7 358.07 145.06 367.92 144.03 C 365.93 148.02 362.68 148.68 358.68 148.68 C 358.68 148.68 359.18 151.08 361.75 152.21 C 357.48 156.04 363.23 161.78 360.68 164.65 C 356.38 166.71 350.69 163.65 350.69 163.65 C 350.69 163.65 350.41 166.48 350.41 166.48 C 350.41 166.48 342.86 165.96 342.7 165.64 C 342.7 165.64 344.85 161.62 344.69 161.54 C 342.69 164.53 340.78 166.28 336.7 165.64 C 336.7 165.64 337.02 163.76 339.25 161.38 C 336.22 164.4 335.89 165.72 332.71 165.64 C 332.71 160.65 335.7 154.67 341.7 156.66 C 342.7 156.66 345.85 159.14 347.33 157.54 C 348.53 155.82 347.82 150 347.82 148 C 348.45 139.18 346.69 139.7 341.7 134.71 C 337.7 131.72 334.778 127.136 329.788 126.136 C 324.788 125.136 316.72 130.72 312.72 132.71 C 302.73 138.7 293.74 142.69 282.75 144.69 C 282.75 144.69 282.967 144.18 282.967 143.182 C 282.967 142.509 293.754 134.113 295.641 119.372 C 292.688 133.921 282.2 141.607 281.805 144.31 C 281.411 147.014 279.269 151.627 279.009 151.929 C 280.306 151.151 284.467 149.112 289.74 148.68 C 288.603 154.929 282.75 153.67 281.75 156.66 C 281.75 159.66 285.75 163.65 281.75 165.64 C 281.75 165.64 265.77 165.64 265.77 165.64 C 265.77 165.64 268.229 162.236 268.346 161.298 C 266.195 162.603 264.83 166.028 260.119 165.677 C 260.291 164.389 262.547 162.372 262.168 161.58 C 259.473 164.08 258.208 166.187 254.77 165.64 C 255.77 162.65 255.77 158.66 259.77 158.66 C 262.77 157.66 265.77 159.66 267.76 156.66 C 271.76 151.67 267.031 140.754 266.041 134.764 C 266.041 129.774 266.056 128.828 264.77 122.74 C 264.77 122.74 265.77 140.7 265.77 140.7 C 261.77 137.7 257.77 135.71 254.77 131.72 C 247.78 122.74 249.78 112.76 258.77 106.77 C 262.77 103.78 264.93 102.22 269.93 100.23 C 268.93 97.23 271.35 95.02 267.81 94.09 C 266.75 95.94 265.71 97.96 263.69 97.79 C 263.69 97.79 264.77 92.8 264.77 92.8 C 264.77 92.8 261.17 93.02 261.88 99.46 C 257.74 97.47 259.77 92.8 259.77 92.8 C 259.77 92.8 257.77 92.8 257.77 92.8 C 257.77 92.8 257.76 98.74 254.5 99.94 C 255.38 97.15 255.77 92.8 255.77 92.8 C 255.77 92.8 250.42 99.18 247.31 97.11 C 249.14 95.04 250.56 94.7 250.31 92.2 C 250.07 89.71 248.78 86.4975 248.546 85.9897 C 249.678 86.5366 257.215 88.7865 261.942 86.4428 C 261.629 88.0053 261.77 89.81 261.77 89.81 C 266.76 88.81 267.76 88.81 272.76 90.8 C 271.76 83.82 267.76 82.82 263.77 77.83 C 263.77 77.83 263.77 81.82 263.77 81.82 C 259.77 80.83 258.77 79.83 256.77 75.84 C 256.77 75.84 253.78 77.83 253.78 77.83 C 248.51 74.72 244.62 67.34 252.1 67.77 C 256.56 68.33 252.78 71.85 252.78 71.85 C 252.78 71.85 264.22 68.25 268.76 67.85 C 268.76 67.85 267.44 65.06 263.22 64.58 C 266.72 61.95 270.24 61.1 272.76 66.64 C 275.27 66.78 277.61 63.76 276.12 59.84 C 279.83 59.78 281.66 62.13 283.35 64.6 C 284.73 64.85 286.12 63.4 285.79 58.44 C 289.29 61.43 291.01 62.35 291.24 64.87 C 294.22 65.53 296.24 64.86 300.73 62.86 C 299.74 66.86 299.74 67.85 295.74 69.85 C 298.56 73.335 298.857 77.5407 298.266 79.0696 C 297.287 78.7859 297.043 78.7216 296.348 78.5318 C 296.565 80.0735 296.878 84.315 296.74 86.81 C 296.74 86.81 294.74 86.81 294.74 86.81 C 294.74 86.81 297.74 95.79 297.74 95.79 C 297.74 95.79 295.74 98.79 295.74 98.79 C 302.73 95.79 309.73 96.79 316.72 94.8 C 324.71 93.8 332.71 90.8 341.7 90.8 C 347.69 90.8 347.69 93.8 355.69 93.8 C 355.69 91.8 355.69 90.8 355.69 88.81 C 355.69 84.82 352.69 80.83 347.69 79.83 C 344.7 79.83 339.7 81.82 336.7 82.82 C 332.71 83.82 326.71 83.82 322.71 83.82 C 309.73 81.82 311.8 80.56 307.27 78.13 C 304.56 78.85 303.04 81.15 301.69 85.21 C 299.18 81.53 299.74 76.83 302.73 74.84 C 299.74 63.86 307.73 58.87 317.72 56.88 z "
       style="stroke-linejoin:round;fill:#ffcc00;fill-opacity:1;stroke:none;stroke-opacity:1;"
       sodipodi:nodetypes="cccccccccccccccccccccccccccccccccccccccccccccccccccccccccccccccccccccccccccccccccccccccccccccccccccccccccc" />
    <path
       id="selection_to_path"
       fill="none"
       stroke="black"
       stroke-width="1"
       d="M 320.72 146.69 C 318.72 143.69 311.72 138.7 313.72 133.71 C 316.72 128.72 333.71 120.74 336.7 131.72 C 337.7 134.71 334.618 142.647 333.618 145.647 C 335.131 145.258 336.813 142.934 341.737 143.776 C 340.82 147.696 334.83 150.719 334.83 150.719 C 335.438 153.371 330.71 165.64 330.71 165.64 C 330.71 165.64 317.72 165.64 317.72 165.64 C 317.72 165.64 319.72 161.65 319.72 161.65 C 319.72 161.65 316.72 165.64 316.72 165.64 C 316.72 165.64 311.72 165.64 311.72 165.64 C 311.72 165.64 315.72 160.65 315.72 160.65 C 315.72 160.65 310.989 166.192 306.957 165.971 C 307.957 157.991 312.72 156.66 319.72 159.66 C 320.72 155.67 322.71 150.68 320.72 146.69 z "
       style="stroke-linejoin:round;fill:#ffcc00;fill-opacity:1;stroke:#991b33;stroke-opacity:1;"
       sodipodi:nodetypes="ccccccccccccccc" />
    <path
       style="fill:#ffcc00;fill-rule:evenodd;stroke:#991b33;stroke-opacity:1;stroke-width:1pt;stroke-linejoin:miter;stroke-linecap:butt;fill-opacity:1;"
       d="M 267.217 71.5425 C 265.87 72.3711 266.97 77.8529 269.039 76.9197 C 271.618 75.7568 268.24 70.9129 267.217 71.5425 z "
       id="path577"
       sodipodi:nodetypes="css" />
    <path
       style="fill:#ffcc00;fill-rule:evenodd;stroke:#991b33;stroke-opacity:1;stroke-width:1pt;stroke-linejoin:round;stroke-linecap:round;fill-opacity:1;"
       d="M 268.492 69.8109 C 270.953 71.5425 274.872 76.1906 279.702 75.9172 C 276.056 72.9096 276.786 70.7223 276.786 70.7223 C 278.7 73.0007 285.079 75.0969 287.175 74.1854 C 284.715 72.3627 284.259 72.1804 283.712 70.4489 C 286.629 70.8135 290.274 71.4515 293.19 70.1755 "
       id="path578"
       sodipodi:nodetypes="cccccc" />
    <path
       style="fill:#ffcc00;fill-rule:evenodd;stroke:#991b33;stroke-opacity:1;stroke-width:1pt;stroke-linejoin:round;stroke-linecap:round;fill-opacity:1;"
       d="M 273.232 100.251 L 273.505 96.0586 C 273.505 96.0586 276.239 102.438 278.244 102.529 C 276.968 97.8818 277.515 94.1447 277.515 94.1447 "
       id="path580"
       sodipodi:nodetypes="cccc" />
    <path
       style="fill:#ffcc00;fill-rule:evenodd;stroke:#991b33;stroke-opacity:1;stroke-width:1pt;stroke-linejoin:round;stroke-linecap:round;fill-opacity:1;"
       d="M 279.611 95.1473 C 279.611 95.1473 285.079 105.172 287.722 103.532 C 283.712 99.9771 284.168 95.3295 284.168 95.3295 C 284.168 95.3295 285.991 101.527 291.368 103.441 C 291.732 99.9775 289.272 94.327 289.272 94.327 C 289.272 94.327 293.737 102.165 296.016 102.347 C 297.474 100.525 296.927 98.6105 296.927 98.6105 "
       id="path581"
       sodipodi:nodetypes="ccccccc" />
    <path
       style="fill:#ffcc00;fill-rule:evenodd;stroke:#991b33;stroke-opacity:1;stroke-width:1pt;stroke-linejoin:round;stroke-linecap:round;fill-opacity:1;"
       d="M 275.328 88.2208 L 279.338 93.3245 L 279.976 86.4892 C 279.976 86.4892 283.895 89.5878 284.624 89.4967 C 285.353 89.4056 283.53 82.2057 283.53 82.2057 C 283.53 82.2057 288.816 90.2259 289.181 90.0435 C 289.545 89.8612 289.727 82.1145 289.727 82.1145 C 289.727 82.1145 293.738 93.1422 295.105 93.0511 C 296.472 92.96 296.107 91.5018 296.107 91.5018 "
       id="path582" />
    <path
       style="fill:#ffcc00;fill-rule:evenodd;stroke:#991b33;stroke-opacity:1;stroke-width:1pt;stroke-linejoin:round;stroke-linecap:round;fill-opacity:1;"
       d="M 272.32 79.2893 C 272.32 79.2893 278.517 84.9398 279.155 84.5753 C 279.793 84.2107 276.604 78.0133 276.604 78.0133 C 276.604 78.0133 280.158 81.3854 281.525 81.6588 C 282.892 81.9322 281.981 77.2842 281.981 77.2842 C 281.981 77.2842 286.173 80.8386 286.902 80.6563 C 287.631 80.474 287.267 77.2842 287.267 77.2842 C 287.267 77.2842 290.001 80.0184 290.183 80.0184 C 290.365 80.0184 289.636 72.1805 289.636 72.1805 C 289.636 72.1805 295.743 78.6513 296.198 78.5602 "
       id="path583" />
    <path
       style="fill:#ffcc00;fill-rule:evenodd;stroke:#991b33;stroke-opacity:1;stroke-width:1pt;stroke-linejoin:round;stroke-linecap:round;fill-opacity:1;"
       d="M 247.531 81.2943 C 247.804 81.75 248.819 89.8093 261.305 86.5283 C 262.49 85.8903 261.969 88.7806 261.917 89.6269 C 262.464 89.5358 268.415 87.4136 272.516 90.4212 C 272.034 87.0877 271.135 84.8487 267.581 82.9348 C 265.85 82.5703 264.586 83.4555 264.586 83.4555 C 264.586 83.4555 249.536 83.5728 247.531 81.2943 z "
       id="path584"
       sodipodi:nodetypes="ccccccc" />
    <path
       id="selection_to_path#2"
       fill="none"
       stroke="black"
       stroke-width="1"
       d="M 240.722 132.606 C 240.515 133.539 239.862 133.808 237.997 136.503 C 238.826 137.643 242.64 139.425 243.676 138.493 C 244.609 137.974 244.676 135.503 244.676 135.503 C 246.676 138.493 250.194 143.208 254.194 144.208 C 257.184 145.208 260.184 143.208 260.184 140.218 C 260.184 137.228 255.666 132.399 253.676 130.409 C 248.676 124.419 249.117 113.106 239.665 114.68 C 239.616 114.766 239.238 116.053 238.332 116.283 C 239.091 117.736 239.517 118.964 237.7 119.421 C 239.113 120.809 239.335 121.817 237.519 122.514 C 238.618 123.988 239.905 124.529 237.375 125.79 C 240.022 128.37 240.592 132.166 240.722 132.606 "
       style="stroke-linejoin:round;stroke-linecap:round;fill:#ffcc00;fill-opacity:1;stroke:#991b33;stroke-opacity:1;"
       sodipodi:nodetypes="ccscccccccccc" />
    <path
       style="fill:#ffcc00;fill-rule:evenodd;stroke:#991b33;stroke-opacity:1;stroke-width:1pt;stroke-linejoin:miter;stroke-linecap:butt;fill-opacity:1;"
       d="M 238.261 48.041 C 235.256 52.3937 234.944 100.274 235.877 109.912 C 232.872 111.881 227.276 111.052 225.721 110.43 C 226.447 107.01 229.037 51.4608 238.261 48.041 z "
       id="path585"
       sodipodi:nodetypes="cccc" />
    <path
       style="fill:#ffcc00;fill-rule:evenodd;stroke:none;stroke-opacity:1;stroke-width:0.25;stroke-linejoin:round;stroke-linecap:butt;fill-opacity:1;stroke-dasharray:none;"
       d="M 229.763 146.185 C 229.763 146.185 216.497 148.05 222.093 140.175 C 226.861 138.102 226.757 142.973 224.995 144.631 C 227.172 144.873 228.623 143.456 228.933 141.314 C 226.239 137.687 230.073 135.303 229.866 135.303 C 220.643 137.376 219.399 131.054 222.819 130.018 C 227.138 130.259 225.756 131.641 227.483 132.92 C 230.592 130.053 232.458 129.777 234.323 132.713 C 236.188 129.811 238.883 130.122 238.986 130.433 C 241.992 135.51 235.359 135.821 232.665 135.199 C 234.945 137.687 234.012 140.07 233.286 141.833 C 233.355 143.56 234.669 143.836 236.81 144.527 C 232.251 131.952 252.874 147.877 232.146 146.289 C 232.181 146.841 232.216 147.394 232.25 147.947 C 233.943 148.258 235.117 148.672 235.669 150.434 C 234.945 151.401 233.805 151.539 232.043 150.849 C 232.043 150.849 233.079 153.751 231.214 154.58 C 229.659 153.647 229.452 151.367 229.452 151.367 C 228.588 152.438 227.31 151.746 226.239 150.849 C 227.207 148.465 229.936 149.604 229.763 146.185 z "
       id="path586"
       sodipodi:nodetypes="cccccccccccccccccccc" />
    <path
       style="fill:#ffcc00;fill-rule:evenodd;stroke:none;stroke-opacity:1;stroke-width:1pt;stroke-linejoin:round;stroke-linecap:butt;fill-opacity:1;"
       d="M 218.363 107.84 C 219.157 104.246 227.517 104.695 223.545 108.565 C 226.204 112.814 234.357 112.193 237.432 109.809 C 234.84 104.868 241.889 105.939 241.578 109.705 C 240.714 116.371 217.465 115.474 218.363 107.84 z "
       id="path587"
       sodipodi:nodetypes="ccccc" />
    <path
       id="path592"
       fill="none"
       stroke="black"
       stroke-width="1"
       d="M 384.27 171.44 C 386.76 176.1 391.181 187.142 393.63 189.78 C 395.925 191.832 401.64 191.59 403.4 189.27 C 403.4 189.27 407.06 193.04 408.54 194.18 C 409.42 193.88 409.96 193.04 409.96 193.04 C 408.47 191.42 406.44 190.51 405.44 187.51 C 406.93 185.52 407.75 181.65 406.75 178.65 C 402.38 171.33 387.84 174.22 384.27 171.44 z "
       sodipodi:nodetypes="cccccccc"
       style="fill:#ffcc00;fill-opacity:1;stroke:#991b33;stroke-opacity:1;" />
    <path
       id="path593"
       fill="none"
       stroke="black"
       stroke-width="1"
       d="M 202.8 44.2868 C 200.31 39.6268 195.889 28.5848 193.44 25.9468 C 191.145 23.8948 185.43 24.1368 183.67 26.4568 C 183.67 26.4568 180.01 22.6868 178.53 21.5468 C 177.65 21.8468 177.11 22.6868 177.11 22.6868 C 178.6 24.3068 180.63 25.2168 181.63 28.2168 C 180.14 30.2068 179.32 34.0768 180.32 37.0768 C 184.69 44.3968 199.23 41.5068 202.8 44.2868 z "
       sodipodi:nodetypes="cccccccc"
       style="fill:#ffcc00;fill-opacity:1;stroke:#991b33;stroke-opacity:1;" />
    <path
       id="path594"
       fill="none"
       stroke="black"
       stroke-width="1"
       d="M 201.325 170.734 C 196.665 173.224 185.623 177.645 182.985 180.094 C 180.933 182.389 181.175 188.104 183.495 189.864 C 183.495 189.864 179.725 193.524 178.585 195.004 C 178.885 195.884 179.725 196.424 179.725 196.424 C 181.345 194.934 182.255 192.904 185.255 191.904 C 187.245 193.394 191.115 194.214 194.115 193.214 C 201.435 188.844 198.545 174.304 201.325 170.734 z "
       sodipodi:nodetypes="cccccccc"
       style="fill:#ffcc00;fill-opacity:1;stroke:#991b33;stroke-opacity:1;" />
    <path
       id="path595"
       fill="none"
       stroke="black"
       stroke-width="1"
       d="M 384.654 44.2862 C 387.144 39.6262 391.565 28.5842 394.014 25.9462 C 396.309 23.8942 402.024 24.1362 403.784 26.4562 C 403.784 26.4562 407.444 22.6862 408.924 21.5462 C 409.804 21.8462 410.344 22.6862 410.344 22.6862 C 408.854 24.3062 406.824 25.2162 405.824 28.2162 C 407.314 30.2062 408.134 34.0762 407.134 37.0762 C 402.764 44.3962 388.224 41.5062 384.654 44.2862 z "
       sodipodi:nodetypes="cccccccc"
       style="fill:#ffcc00;fill-opacity:1;stroke:#991b33;stroke-opacity:1;" />
    <path
       style="fill:#ffcc00;fill-rule:evenodd;stroke:#ffcc00;stroke-opacity:1;stroke-width:1pt;stroke-linejoin:round;stroke-linecap:butt;fill-opacity:1;"
       d="M 222.105 116.032 C 221.909 117.55 225.532 118.211 229.246 118.229 C 232.96 118.248 236.767 117.624 236.938 116.571 C 236.987 114.686 233.695 116.289 229.95 116.258 C 226.205 116.228 223.084 114.759 222.105 116.032 z "
       id="path596"
       sodipodi:nodetypes="cscsc" />
    <path
       style="fill:#ffcc00;fill-rule:evenodd;stroke:#ffcc00;stroke-opacity:1;stroke-width:1pt;stroke-linejoin:round;stroke-linecap:butt;fill-opacity:1;"
       d="M 222.398 120.242 C 222.446 121.662 226.045 122.004 229.227 122.102 C 232.41 122.2 235.616 121.564 236.203 120.536 C 235.639 118.92 232.103 120.267 229.226 120.34 C 226.35 120.414 223.156 118.92 222.398 120.242 z "
       id="path597"
       sodipodi:nodetypes="cscsc" />
    <path
       style="fill:#ffcc00;fill-rule:evenodd;stroke:#ffcc00;stroke-opacity:1;stroke-width:1pt;stroke-linejoin:round;stroke-linecap:butt;fill-opacity:1;"
       d="M 223.426 124.012 C 223.181 125.089 226.351 125.86 229.27 125.878 C 232.189 125.896 236.326 124.77 236.35 123.62 C 236.179 122.715 232.091 123.938 229.344 124.03 C 226.596 124.122 223.426 123.033 223.426 124.012 z "
       id="path598"
       sodipodi:nodetypes="cscsc" />
    <path
       style="fill:#ffcc00;fill-rule:evenodd;stroke:#ffcc00;stroke-opacity:1;stroke-width:1pt;stroke-linejoin:round;stroke-linecap:butt;fill-opacity:1;"
       d="M 223.084 127.879 C 223.329 128.931 226.928 129.287 230.091 129.048 C 233.255 128.81 236.473 127.83 236.742 126.704 C 236.596 125.994 232.961 127.255 229.95 127.408 C 226.939 127.561 223.035 127.046 223.084 127.879 z "
       id="path599"
       sodipodi:nodetypes="cscsc" />
  </g>
</svg>
