<?xml version="1.0" encoding="utf-8"?>
<!-- Generator: Adobe Illustrator 15.0.0, SVG Export Plug-In  -->
<!DOCTYPE svg PUBLIC "-//W3C//DTD SVG 1.1//EN" "http://www.w3.org/Graphics/SVG/1.1/DTD/svg11.dtd" [
	<!ENTITY ns_flows "http://ns.adobe.com/Flows/1.0/">
]>
<svg version="1.1"
	 xmlns="http://www.w3.org/2000/svg" xmlns:xlink="http://www.w3.org/1999/xlink" xmlns:a="http://ns.adobe.com/AdobeSVGViewerExtensions/3.0/"
	 x="0px" y="0px" width="122px" height="49px" viewBox="-0.963 -0.166 122 49"
	 style="overflow:visible;enable-background:new -0.963 -0.166 122 49;" xml:space="preserve">
<style type="text/css">
<![CDATA[
	.ch0{fill:#ED9FB7;}
	.ch1{fill:#CCE6F8;}
	.ch2{fill:#A6B3D1;}
]]>
</style>
<defs>
</defs>
<path class="ch1" d="M60.18,21.109c-19.778-4.748-40.399-4.748-60.18,0c0,0.595,0,1.189,0,1.785c19.78-4.75,40.401-4.75,60.18,0
	c19.78,4.748,40.401,4.748,60.183,0c0-0.596,0-1.19,0-1.785C100.581,25.859,79.96,25.859,60.18,21.109z"/>
<path class="ch1" d="M60.18,18.071c-19.778-4.748-40.399-4.748-60.18,0c0,0.536,0,1.073,0,1.609c19.78-4.748,40.401-4.748,60.18,0
	c19.78,4.75,40.401,4.75,60.183,0c0-0.536,0-1.073,0-1.609C100.581,22.82,79.96,22.82,60.18,18.071z"/>
<path class="ch2" d="M60.18,15.033c-19.778-4.748-40.399-4.748-60.18,0c0,0.477,0,0.955,0,1.435c19.78-4.749,40.401-4.749,60.18,0
	c19.78,4.748,40.401,4.748,60.183,0c0-0.479,0-0.958,0-1.435C100.581,19.781,79.96,19.781,60.18,15.033z"/>
<path class="ch2" d="M60.18,11.995C40.401,7.246,19.78,7.246,0,11.995c0,0.419,0,0.841,0,1.262c19.78-4.75,40.401-4.75,60.18,0
	c19.78,4.747,40.401,4.747,60.183,0c0-0.421,0-0.843,0-1.262C100.581,16.743,79.96,16.743,60.18,11.995z"/>
<path class="ch2" d="M60.18,8.959c-19.778-4.75-40.399-4.75-60.18,0c0,0.36,0,0.722,0,1.082c19.78-4.746,40.401-4.746,60.18,0
	c19.78,4.75,40.401,4.75,60.183,0c0-0.36,0-0.722,0-1.082C100.581,13.707,79.96,13.707,60.18,8.959z"/>
<path class="ch0" d="M60.18,5.918C40.401,1.17,19.78,1.17,0,5.918c0,0.305,0,0.608,0,0.911c19.78-4.748,40.401-4.748,60.18,0
	c19.78,4.75,40.401,4.75,60.183,0c0-0.303,0-0.606,0-0.911C100.581,10.668,79.96,10.668,60.18,5.918z"/>
<path class="ch1" d="M60.18,24.189c-19.778-4.748-40.399-4.748-60.18,0c0,0.653,0,1.308,0,1.961c19.78-4.75,40.401-4.75,60.18,0
	c19.78,4.748,40.401,4.748,60.183,0c0-0.653,0-1.308,0-1.961C100.581,28.939,79.96,28.939,60.18,24.189z"/>
<path class="ch1" d="M60.18,27.404c-19.778-4.75-40.399-4.75-60.18,0c0,0.594,0,1.188,0,1.784c19.78-4.749,40.401-4.749,60.18,0
	c19.78,4.749,40.401,4.749,60.183,0c0-0.596,0-1.19,0-1.784C100.581,32.151,79.96,32.151,60.18,27.404z"/>
<path class="ch2" d="M60.18,30.831c-19.778-4.75-40.399-4.75-60.18,0c0,0.478,0,0.955,0,1.434c19.78-4.748,40.401-4.748,60.18,0
	c19.78,4.747,40.401,4.747,60.183,0c0-0.479,0-0.956,0-1.434C100.581,35.579,79.96,35.579,60.18,30.831z"/>
<path class="ch2" d="M60.18,34.043c-19.778-4.75-40.399-4.75-60.18,0c0,0.42,0,0.84,0,1.26c19.78-4.749,40.401-4.749,60.18,0
	c19.78,4.748,40.401,4.748,60.183,0c0-0.42,0-0.84,0-1.26C100.581,38.791,79.96,38.791,60.18,34.043z"/>
<path class="ch2" d="M60.18,37.256c-19.778-4.748-40.399-4.748-60.18,0c0,0.361,0,0.724,0,1.085c19.78-4.748,40.401-4.748,60.18,0
	c19.78,4.75,40.401,4.75,60.183,0c0-0.361,0-0.724,0-1.085C100.581,42.006,79.96,42.006,60.18,37.256z"/>
<path class="ch0" d="M60.18,40.47c-19.778-4.749-40.399-4.749-60.18,0c0,0.304,0,0.606,0,0.909c19.78-4.747,40.401-4.747,60.18,0
	c19.78,4.75,40.401,4.75,60.183,0c0-0.303,0-0.605,0-0.909C100.581,45.218,79.96,45.218,60.18,40.47z"/>
<path class="ch0" d="M60.18,43.683c-19.778-4.747-40.399-4.747-60.18,0c0,0.246,0,0.49,0,0.736c19.78-4.75,40.401-4.75,60.18,0
	c19.78,4.747,40.401,4.747,60.183,0c0-0.246,0-0.49,0-0.736C100.581,48.433,79.96,48.433,60.18,43.683z"/>
<path class="ch0" d="M60.18,3.562C40.401-1.188,19.78-1.188,0,3.562c0,0.245,0,0.489,0,0.734c19.78-4.75,40.401-4.75,60.18,0
	c19.78,4.748,40.401,4.748,60.183,0c0-0.245,0-0.489,0-0.734C100.581,8.31,79.96,8.31,60.18,3.562z"/>
</svg>
