<?xml version="1.0" encoding="UTF-8" standalone="no"?>
<!DOCTYPE svg PUBLIC "-//W3C//DTD SVG 20010904//EN"
"http://www.w3.org/TR/2001/REC-SVG-20010904/DTD/svg10.dtd">
<!-- Created with Sodipodi ("http://www.sodipodi.com/") -->
<svg
   id="svg563"
   sodipodi:version="0.33pre"
   width="186.667mm"
   height="140mm"
   sodipodi:docname="/home/tobias/Desktop/tibet.svg"
   sodipodi:docbase="/home/tobias/Desktop/"
   xmlns="http://www.w3.org/2000/svg"
   xmlns:sodipodi="http://sodipodi.sourceforge.net/DTD/sodipodi-0.dtd"
   xmlns:xlink="http://www.w3.org/1999/xlink">
  <defs
     id="defs565" />
  <sodipodi:namedview
     id="base">
    <sodipodi:guide
       orientation="vertical"
       position="24.2500000"
       id="guide576" />
    <sodipodi:guide
       orientation="horizontal"
       position="367.156250"
       id="guide577" />
    <sodipodi:guide
       orientation="horizontal"
       position="32.1732368"
       id="guide632" />
  </sodipodi:namedview>
  <rect
     style="font-size:12;fill:#ffff00;fill-rule:evenodd;stroke-width:1pt;"
     id="rect567"
     width="661.429138"
     height="496.062991"
     x="0.000000"
     y="-0.000072" />
  <path
     style="font-size:12;fill:#c51829;fill-rule:evenodd;stroke-width:1pt;"
     d="M 281.581 278.466 C 281.327 278.466 238.417 298.271 238.417 298.271 L 279.55 269.579 L 277.011 258.915 L 30.2151 350.068 L 30.3027 455.891 L 43.5337 455.944 L 294.53 287.861 L 281.581 278.466 z "
     id="path570"
     sodipodi:nodetypes="ccccccccc" />
  <path
     style="font-size:12;fill:#21319c;fill-rule:evenodd;stroke-width:1pt;"
     d="M 276.489 250.814 L 224.064 259.432 L 281.157 242.914 L 276.428 232.103 L 30.3502 232.11 L 30.2015 350.075 L 279.72 257.995 L 276.489 250.814 z "
     id="path571"
     sodipodi:nodetypes="cccccccc" />
  <path
     style="font-size:12;fill:#c51829;fill-rule:evenodd;stroke-width:1pt;"
     d="M 280.439 224.96 L 235.554 213.829 L 288.697 214.547 L 284.029 205.929 L 30.3501 139.398 L 30.3652 232.142 L 282.952 232.142 L 280.439 224.96 z "
     id="path572"
     sodipodi:nodetypes="cccccccc" />
  <path
     style="font-size:12;fill:#21319c;fill-rule:evenodd;stroke-width:1pt;"
     d="M 244.172 173.253 L 300.188 194.439 L 300.547 184.744 L 56.6334 37.2026 L 30.3187 37.1635 L 30.3337 139.422 L 294.802 209.52 L 288.199 200.489 L 244.172 173.253 z "
     id="path573"
     sodipodi:nodetypes="ccccccccc" />
  <path
     style="font-size:12;fill:#c51829;fill-rule:evenodd;stroke-width:1pt;"
     d="M 267.512 144.168 C 267.871 144.168 312.037 177.921 312.037 177.921 L 326.478 175.698 L 322.13 170.74 L 200.045 37.1319 L 56.375 37.1635 L 307.931 189.326 L 305.215 180.435 L 267.512 144.168 z "
     id="path574"
     sodipodi:nodetypes="ccccccccc" />
  <path
     style="font-size:12;fill:#21319c;fill-rule:evenodd;stroke-width:1pt;"
     d="M 327.837 168.944 L 315.987 117.956 L 336.455 167.149 C 336.455 167.149 340.763 173.253 341.123 172.894 C 341.482 172.535 343.277 166.79 343.277 166.79 L 343.995 37.1635 L 200.006 37.1635 L 328.523 177.796 L 327.837 168.944 z "
     id="path575"
     sodipodi:nodetypes="ccccccccc" />
  <path
     style="font-size:12;fill:#21319c;fill-rule:evenodd;stroke-width:1pt;"
     d="M 408.128 273.513 C 408.382 273.513 453.274 295.596 453.571 295.596 L 410.357 266.805 L 413.193 258.915 L 661.475 350.266 L 661.475 456.028 L 637.384 455.885 L 395.673 287.861 L 408.128 273.513 z "
     id="path578"
     sodipodi:nodetypes="ccccccccc" />
  <path
     style="font-size:12;fill:#c51829;fill-rule:evenodd;stroke-width:1pt;"
     d="M 413.715 250.814 L 467.33 254.281 L 410.533 241.032 L 413.776 232.103 L 661.439 232.11 L 661.489 350.471 L 410.484 257.995 L 413.715 250.814 z "
     id="path579"
     sodipodi:nodetypes="cccccccc" />
  <path
     style="font-size:12;fill:#21319c;fill-rule:evenodd;stroke-width:1pt;"
     d="M 409.765 224.96 L 463.467 212.541 L 401.506 216.528 L 406.175 205.929 L 661.439 139.101 L 661.523 232.241 L 407.252 232.142 L 409.765 224.96 z "
     id="path580"
     sodipodi:nodetypes="cccccccc" />
  <path
     style="font-size:12;fill:#c51829;fill-rule:evenodd;stroke-width:1pt;"
     d="M 446.033 173.253 L 390.015 194.439 L 389.656 184.744 L 633.571 37.2026 L 661.372 37.1635 L 661.654 139.224 L 395.401 209.52 L 400.222 198.112 L 446.033 173.253 z "
     id="path581"
     sodipodi:nodetypes="ccccccccc" />
  <path
     style="font-size:12;fill:#21319c;fill-rule:evenodd;stroke-width:1pt;"
     d="M 419.226 142.979 C 418.867 142.979 377.273 176.633 377.967 177.129 L 363.723 175.698 L 368.071 170.74 L 490.16 37.1319 L 633.83 37.1635 L 382.271 189.326 L 384.987 180.435 L 419.226 142.979 z "
     id="path582"
     sodipodi:nodetypes="ccccccccc" />
  <path
     style="font-size:12;fill:#c51829;fill-rule:evenodd;stroke-width:1pt;"
     d="M 360.779 169.836 L 371.441 117.956 L 353.745 167.149 C 353.745 167.149 349.437 173.253 349.077 172.894 C 348.718 172.535 343.949 169.564 343.255 167.682 L 344.125 37.0645 L 490.199 37.1635 L 361.678 177.796 L 360.779 169.836 z "
     id="path583"
     sodipodi:nodetypes="ccccccccc" />
  <path
     sodipodi:type="arc"
     style="font-size:12;fill:#ffff00;fill-rule:evenodd;stroke-width:1pt;"
     id="path569"
     d="M 398.574646 233.219147 A 61.042984 61.042961 0 1 0 276.488708,233.219147 A 61.043 61.043 0 1 0 398.575 233.219 L 337.531677 233.219147 z"
     sodipodi:cx="337.531677"
     sodipodi:cy="233.219147"
     sodipodi:rx="61.042984"
     sodipodi:ry="61.042961"
     transform="matrix(1.141176,0.000000,0.000000,1.290916,-40.47002,-55.29771)" />
  <path
     style="font-size:12;fill:#ffffff;fill-rule:evenodd;stroke-width:1pt;"
     d="M 43.4032 455.922 L 637.545 455.932 L 345.774 243.477 L 43.4032 455.922 z "
     id="path568"
     sodipodi:nodetypes="cccc" />
  <g
     id="g631">
    <path
       sodipodi:type="arc"
       style="fill-rule:evenodd;stroke:#003e00;fill:#ffff00;fill-opacity:1;stroke-opacity:1;stroke-width:1pt;stroke-linejoin:miter;stroke-linecap:butt;"
       id="path630"
       d="M 360.967407 413.535645 A 18.658371 18.658371 0 1 0 323.650635,413.535645 A 18.6584 18.6584 0 1 0 360.967 413.536 L 342.309021 413.535645 z"
       sodipodi:cx="342.309021"
       sodipodi:cy="413.535645"
       sodipodi:rx="18.658371"
       sodipodi:ry="18.658371"
       transform="matrix(0.961539,0.000000,0.000000,0.961538,14.13580,15.24790)" />
    <g
       id="g625"
       transform="translate(0.000000,-1.525879e-5)">
      <path
         sodipodi:type="arc"
         style="fill-rule:evenodd;stroke:none;fill:#c51829;fill-opacity:1;stroke-opacity:1;stroke-width:1pt;stroke-linejoin:miter;stroke-linecap:butt;"
         id="path576"
         d="M 356.852661 413.207550 A 13.399094 13.399078 0 1 0 330.054443,413.207550 A 13.3991 13.3991 0 1 0 356.853 413.208 L 343.453552 413.207550 z"
         sodipodi:cx="343.453552"
         sodipodi:cy="413.207550"
         sodipodi:rx="13.399094"
         sodipodi:ry="13.399078"
         transform="translate(-0.174294,-0.334793)" />
      <path
         style="fill:#3d5897;fill-rule:evenodd;stroke:none;stroke-opacity:1;stroke-width:1pt;stroke-linejoin:miter;stroke-linecap:butt;fill-opacity:1;"
         d="M 345.51 399.673 C 342.164 400.098 338.435 400.719 338.047 405.978 C 337.932 407.95 338.506 411.786 343.765 413.102 C 348.819 414.831 350.271 420.034 347.532 423.575 C 346.25 425.585 344.213 426.141 342.686 426.283 C 337.776 426.124 333.527 423.244 331.632 419.551 C 329.161 415.303 329.109 409.422 332.853 404.269 C 334.985 401.945 338.918 398.701 345.51 399.673 z "
         id="path653"
         sodipodi:nodetypes="cccccccc" />
    </g>
  </g>
  <g
     id="g687">
    <path
       style="fill:#003f00;fill-rule:evenodd;stroke:#003000;stroke-opacity:1;stroke-width:1pt;stroke-linejoin:round;stroke-linecap:butt;fill-opacity:1;"
       d="M 276.499 338.63 C 256.342 354.443 269.652 379.326 297.351 374.183 C 297.351 374.183 293.702 385.755 293.493 385.86 C 293.284 385.964 288.176 386.173 288.176 386.173 C 288.176 386.173 288.384 379.5 288.28 379.604 C 288.176 379.708 280.877 386.068 280.773 386.173 C 280.669 386.277 275.247 386.902 275.039 386.902 C 274.83 386.902 273.058 383.983 273.058 383.983 C 271.216 384.192 269.374 384.4 267.532 384.609 C 269.061 381.933 271.112 379.778 272.12 376.581 C 266.698 378.493 262.528 384.782 257.732 388.883 C 257.072 387.493 256.411 386.103 255.751 384.713 C 254.5 384.157 253.248 383.601 251.997 383.045 C 254.082 381.342 256.168 379.639 258.253 377.936 C 256.168 378.075 254.082 378.214 251.997 378.353 C 252.518 376.407 253.04 374.46 253.561 372.514 C 250.225 374.495 246.888 376.476 243.552 378.457 C 241.154 377.936 238.756 377.414 236.358 376.893 C 236.358 376.893 243.969 365.842 243.761 365.842 C 243.552 365.842 230.833 368.97 230.833 368.97 C 233.231 365.112 235.628 361.255 238.026 357.397 C 234.203 358.579 230.381 359.76 226.558 360.942 C 232.675 353.783 238.791 346.623 244.908 339.464 C 249.426 338.665 253.944 337.865 258.462 337.066 C 274.878 336.612 274.641 338.349 280.175 332.126 C 284.25 331.588 281.037 335.785 282.54 335.915 C 284.043 336.046 274.996 338.5 276.499 338.63 z "
       id="path628"
       sodipodi:nodetypes="cccccccccccccccccccccccccsc" />
    <path
       style="fill:#003f00;fill-rule:evenodd;stroke:#003000;stroke-opacity:1;stroke-width:1.25;stroke-linejoin:round;stroke-linecap:butt;fill-opacity:1;stroke-dasharray:none;"
       d="M 219.224 381.596 C 222.657 369.237 222.117 364.529 207.748 360.703 C 204.952 360.998 195.536 361.438 193.476 364.529 C 181.853 365.559 176.556 376.888 173.466 377.329 C 165.415 378.537 156.889 384.931 152.28 386.157 C 156.988 390.277 161.108 390.571 165.816 390.718 C 163.756 393.906 159.783 395.181 158.753 398.516 C 170.671 398.712 188.032 395.818 192.299 395.573 C 201.274 390.914 210.249 386.255 219.224 381.596 z "
       id="path629"
       sodipodi:nodetypes="cccsccccc" />
    <path
       style="fill:none;fill-rule:evenodd;stroke:black;stroke-opacity:1;stroke-width:1pt;stroke-linejoin:miter;stroke-linecap:butt;fill-opacity:1;"
       d="M 245.968 377.299 C 245.968 377.299 246.323 381.605 244.711 382.678 C 243.1 383.393 217.444 383.398 217.444 383.398 "
       id="path636"
       sodipodi:nodetypes="ccc" />
    <path
       style="fill:#003f00;fill-rule:evenodd;stroke:#003000;stroke-opacity:1;stroke-width:1pt;stroke-linejoin:miter;stroke-linecap:butt;fill-opacity:1;"
       d="M 196.447 403.948 C 196.253 403.948 193.344 396.773 193.344 396.773 C 192.762 396.837 190.048 399.617 189.466 399.682 C 188.949 398.971 188.238 397.678 187.721 396.967 C 187.721 396.967 185.006 400.457 184.812 400.069 C 184.618 399.682 183.26 408.02 183.066 407.827 C 182.872 407.633 180.933 401.427 180.739 401.427 C 180.545 401.427 179.382 405.499 179.382 405.499 C 178.671 405.564 177.96 405.628 177.249 405.693 C 177.314 407.891 177.378 410.089 177.443 412.287 C 176.085 410.348 174.728 408.408 173.37 406.469 C 172.982 408.473 172.595 410.477 172.207 412.481 C 172.465 416.489 172.724 420.496 172.982 424.504 C 173.176 425.344 173.37 426.185 173.564 427.025 C 183.777 421.078 190.694 413.386 196.447 403.948 z "
       id="path637"
       sodipodi:nodetypes="ccccccccccccccc" />
    <path
       style="fill:#003f00;fill-rule:evenodd;stroke:#003000;stroke-opacity:1;stroke-width:1pt;stroke-linejoin:miter;stroke-linecap:butt;fill-opacity:1;"
       d="M 244.347 426.056 C 241.309 423.729 237.883 422.371 234.651 422.565 C 233.681 423.276 232.712 423.987 231.742 424.698 C 230.384 425.086 229.027 425.474 227.669 425.862 C 227.669 425.862 230.578 428.964 230.19 429.158 C 229.803 429.352 221.076 430.516 221.076 430.71 C 221.076 430.904 225.73 433.037 225.73 433.037 C 225.148 433.425 224.567 433.813 223.985 434.201 C 225.924 434.977 227.864 435.752 229.803 436.528 C 229.803 436.528 224.373 437.691 224.179 437.885 C 223.985 438.079 233.875 443.897 234.651 443.703 C 235.427 444.285 245.899 445.448 245.899 445.254 C 246.675 440.6 245.511 434.782 245.511 434.782 C 243.184 433.037 242.99 428.965 244.347 426.056 z "
       id="path638"
       sodipodi:nodetypes="cccccccccccccc" />
    <path
       style="fill:#003f00;fill-rule:evenodd;stroke:#003000;stroke-opacity:1;stroke-width:1pt;stroke-linejoin:miter;stroke-linecap:butt;fill-opacity:1;"
       d="M 265.098 424.892 C 267.813 420.82 289.338 426.444 289.338 426.444 C 300.004 428.189 319.202 423.147 320.754 426.444 C 321.723 431.163 310.088 435.882 303.301 437.11 C 303.301 437.11 297.483 442.928 297.483 442.152 C 297.483 441.376 300.392 434.395 298.841 434.783 C 297.289 435.171 291.471 438.079 290.89 438.661 C 288.95 439.243 284.684 441.957 284.49 441.763 C 283.52 440.406 285.46 436.916 285.46 436.916 C 277.121 436.399 264.322 430.257 265.098 424.892 z "
       id="path639"
       sodipodi:nodetypes="cccccccccc" />
    <path
       style="fill:none;fill-rule:evenodd;stroke:black;stroke-opacity:1;stroke-width:1pt;stroke-linejoin:miter;stroke-linecap:butt;fill-opacity:1;"
       d="M 297.871 375.247 C 305.046 377.38 302.525 398.13 299.034 411.317 "
       id="path640"
       sodipodi:nodetypes="cc" />
    <path
       style="fill:none;fill-rule:evenodd;stroke:black;stroke-opacity:1;stroke-width:1.25;stroke-linejoin:round;stroke-linecap:round;fill-opacity:1;stroke-dasharray:none;"
       d="M 273.436 395.221 C 287.011 392.894 298.84 410.929 298.84 411.123 C 306.597 421.207 318.427 411.511 318.427 411.511 C 320.625 411.446 322.822 411.382 325.02 411.317 C 325.085 412.093 325.149 412.868 325.214 413.644 C 323.339 414.032 321.465 414.42 319.59 414.808 C 321.336 414.614 323.081 414.42 324.827 414.226 C 324.956 415.131 325.085 416.036 325.214 416.941 C 323.533 417.652 321.853 418.363 320.172 419.074 C 321.853 418.557 323.533 418.04 325.214 417.523 C 325.667 418.428 326.119 419.333 326.572 420.238 C 324.827 420.949 323.081 421.66 321.336 422.371 C 323.211 421.983 325.085 421.595 326.96 421.207 C 327.8 422.371 328.641 423.534 329.481 424.698 C 326.701 425.474 323.922 426.249 321.142 427.025 "
       id="path641"
       sodipodi:nodetypes="ccccccccccccccc" />
    <path
       style="fill:none;fill-rule:evenodd;stroke:black;stroke-opacity:1;stroke-width:1pt;stroke-linejoin:round;stroke-linecap:butt;fill-opacity:1;"
       d="M 249.583 409.378 C 242.602 417.394 236.784 420.755 226.894 421.79 C 215.517 423.535 207.049 423.535 195.284 422.953 C 194.315 427.737 192.763 429.223 188.303 430.128 C 187.269 431.808 186.04 434.265 185.006 435.946 C 184.877 438.661 184.165 440.794 184.036 443.509 C 183.131 442.345 182.226 441.182 181.321 440.019 C 181.321 442.216 181.903 445.578 181.321 446.418 C 179.963 446.482 179.77 442.474 178.994 440.406 C 178.477 443.185 178.541 447.322 177.442 448.745 C 176.408 447.969 174.792 443.315 174.34 440.6 C 173.435 442.992 174.275 445.384 173.37 447.776 C 169.232 440.924 170.09 432.956 172.546 426.104 "
       id="path642"
       sodipodi:nodetypes="ccccccccccccc" />
    <path
       style="fill:none;fill-rule:evenodd;stroke:black;stroke-opacity:1;stroke-width:1pt;stroke-linejoin:miter;stroke-linecap:butt;fill-opacity:1;"
       d="M 243.896 426.149 C 251.101 427.039 258.306 426.861 264.71 425.616 "
       id="path643"
       sodipodi:nodetypes="cc" />
    <path
       style="fill:none;fill-rule:evenodd;stroke:black;stroke-opacity:1;stroke-width:1pt;stroke-linejoin:round;stroke-linecap:butt;fill-opacity:1;"
       d="M 266.044 429.352 C 263.998 431.398 261.686 433.177 259.106 434.422 C 259.195 436.379 259.284 438.602 259.373 440.559 C 262.22 440.292 263.732 441.627 265.511 443.761 C 264.977 445.985 264.444 448.209 263.91 450.433 C 263.376 449.01 262.842 447.586 262.308 446.163 C 261.774 448.12 261.775 451.411 260.44 452.301 C 258.573 451.767 259.106 448.298 258.306 446.43 C 257.327 448.387 256.349 451.41 255.37 452.3 C 254.036 451.055 254.837 448.743 254.57 446.964 C 253.414 448.476 252.257 449.988 251.101 451.5 C 250.567 451.144 250.034 450.789 249.5 450.433 C 248.699 451.144 247.899 451.856 247.098 452.567 C 246.475 450.432 245.853 448.298 245.23 446.163 "
       id="path644"
       sodipodi:nodetypes="cccccccccccccc" />
    <path
       style="fill:#003f00;fill-rule:evenodd;stroke:#003000;stroke-opacity:1;stroke-width:1pt;stroke-linejoin:round;stroke-linecap:butt;fill-opacity:1;"
       d="M 337.227 348.548 C 336.035 349.621 335.022 350.693 333.472 351.408 C 332.936 354.448 333.114 362.137 335.439 373.76 C 335.975 376.442 333.472 374.295 331.684 373.223 C 331.028 377.216 330.015 382.282 329.359 386.275 C 328.346 385.56 327.69 384.309 326.677 383.594 C 326.677 383.594 325.247 385.024 325.426 384.667 C 325.605 384.309 325.068 377.514 325.068 377.514 C 324.949 382.163 324.83 386.812 324.711 391.461 C 323.757 391.461 322.804 391.461 321.85 391.461 C 321.85 391.461 321.85 395.753 321.492 396.11 C 321.134 396.468 317.737 395.216 317.737 395.216 C 317.797 397.183 317.856 399.15 317.916 401.117 C 317.916 401.117 314.161 400.58 313.982 400.759 C 313.803 400.938 310.942 405.229 310.942 405.229 C 311.3 401.832 311.657 398.434 312.015 395.037 C 312.015 395.037 309.691 395.931 309.512 395.753 C 309.333 395.574 309.512 388.779 309.512 388.779 C 313.863 380.196 318.929 373.044 322.923 363.925 C 323.101 361.541 323.995 358.799 324.174 356.415 C 323.101 351.945 327.929 346.581 331.505 347.475 C 335.26 346.939 337.227 348.727 337.227 348.548 z "
       id="path645"
       sodipodi:nodetypes="cccccccccccccccccccccc" />
    <path
       style="fill:none;fill-rule:evenodd;stroke:black;stroke-opacity:1;stroke-width:1pt;stroke-linejoin:miter;stroke-linecap:butt;fill-opacity:1;"
       d="M 309.693 389.137 C 308.143 394.263 304.984 397.6 301.825 400.759 "
       id="path646"
       sodipodi:nodetypes="cc" />
    <path
       style="fill:none;fill-rule:evenodd;stroke:black;stroke-opacity:1;stroke-width:1.25;stroke-linejoin:round;stroke-linecap:butt;fill-opacity:1;stroke-dasharray:none;"
       d="M 298.07 363.389 C 303.971 360.17 308.978 355.701 313.09 350.515 C 315.712 349.025 316.189 344.673 316.666 339.607 C 319.11 338.594 321.553 334.005 322.388 334.422 C 324.117 335.852 324.415 339.786 325.428 342.468 C 325.845 340.382 325.189 336.866 326.679 336.21 C 328.11 337.402 328.11 340.919 328.825 343.005 C 329.719 341.157 329.898 338.952 331.686 338.177 C 333.295 339.25 332.937 343.899 332.937 343.72 C 332.937 343.541 334.726 339.25 336.514 339.25 C 337.825 342.17 338.779 345.27 338.302 348.011 "
       id="path647"
       sodipodi:nodetypes="ccccccccccc" />
    <path
       style="fill:none;fill-rule:evenodd;stroke:black;stroke-opacity:1;stroke-width:1pt;stroke-linejoin:miter;stroke-linecap:butt;fill-opacity:1;"
       d="M 296.819 373.223 C 299.501 370.004 299.322 365.177 298.607 362.495 C 295.627 360.707 292.468 360.706 289.13 360.885 "
       id="path648"
       sodipodi:nodetypes="ccc" />
    <path
       style="fill:#6b0000;fill-rule:evenodd;stroke:black;stroke-opacity:1;stroke-width:1pt;stroke-linejoin:miter;stroke-linecap:butt;fill-opacity:1;"
       d="M 283.944 364.283 C 283.944 364.283 281.084 366.965 281.978 368.395 C 282.872 369.826 293.064 371.793 295.746 370.541 C 298.428 369.289 298.607 363.746 296.64 363.746 C 294.673 363.746 283.944 364.64 283.944 364.283 z "
       id="path651" />
    <path
       style="fill:none;fill-rule:evenodd;stroke:black;stroke-opacity:1;stroke-width:1.25;stroke-linejoin:miter;stroke-linecap:round;fill-opacity:1;stroke-dasharray:none;"
       d="M 288.772 367.144 L 297.176 367.68 "
       id="path649"
       sodipodi:nodetypes="cc" />
    <path
       style="fill:none;fill-rule:evenodd;stroke:black;stroke-opacity:1;stroke-width:1pt;stroke-linejoin:round;stroke-linecap:butt;fill-opacity:1;"
       d="M 283.945 363.21 C 287.283 360.647 290.262 359.157 294.136 358.024 C 300.394 357.905 299.143 336.508 294.673 338.355 C 292.468 338.236 292.408 339.905 291.276 340.68 C 288.713 338.118 286.15 336.985 283.587 336.21 "
       id="path650"
       sodipodi:nodetypes="ccccc" />
    <path
       style="fill:none;fill-rule:evenodd;stroke:black;stroke-opacity:1;stroke-width:1pt;stroke-linejoin:miter;stroke-linecap:butt;fill-opacity:1;"
       d="M 289.917 354.468 C 291.281 354.545 291.46 344.028 289.444 344.028 C 286.218 346.447 288.853 354.653 289.917 354.468 z "
       id="path654"
       sodipodi:nodetypes="ccc" />
    <path
       style="fill:#003f00;fill-rule:evenodd;stroke:#003000;stroke-opacity:1;stroke-width:1pt;stroke-linejoin:miter;stroke-linecap:butt;fill-opacity:1;"
       d="M 285.071 352.653 C 285.235 354.129 283.617 357.113 281.45 357.354 C 281.181 358.833 280.912 360.311 280.643 361.79 C 278.896 361.655 277.148 361.521 275.401 361.386 C 274.326 359.504 274.074 357.76 272.999 355.878 C 273.402 354.4 272.982 352.784 273.385 351.306 C 274.998 351.037 276.748 351.591 278.361 351.322 C 280.644 350.485 284.297 350.472 285.071 352.653 z "
       id="path655"
       sodipodi:nodetypes="cccccccc" />
    <path
       style="fill:#003f00;fill-rule:evenodd;stroke:#003000;stroke-opacity:1;stroke-width:1pt;stroke-linejoin:miter;stroke-linecap:butt;fill-opacity:1;"
       d="M 279.434 345.661 C 277.689 346.75 275.67 347.153 273.788 346.87 C 274.199 344.854 274.199 342.838 273.788 340.822 C 275.398 340.145 277.283 340.015 279.03 339.612 C 280.643 339.747 282.256 339.881 283.869 340.016 C 285.093 340.817 285.493 341.617 285.482 343.241 C 284.015 345.008 281.861 345.54 279.434 345.661 z "
       id="path656"
       sodipodi:nodetypes="ccccccc" />
    <path
       style="fill:#000000;fill-rule:evenodd;stroke:none;stroke-opacity:1;stroke-width:1.25;stroke-linejoin:miter;stroke-linecap:butt;fill-opacity:1;stroke-dasharray:none;"
       d="M 246.233 380.649 C 246.233 380.649 248.929 385.656 245.206 387.838 C 241.483 390.021 239.301 383.088 239.301 383.088 C 239.301 383.088 242.767 384.116 244.565 382.831 C 246.234 380.649 246.362 380.906 246.233 380.649 z "
       id="path657"
       sodipodi:nodetypes="ccccc" />
    <path
       style="fill:#000000;fill-rule:evenodd;stroke:none;stroke-opacity:1;stroke-width:1pt;stroke-linejoin:miter;stroke-linecap:butt;fill-opacity:1;"
       d="M 225.949 383.473 C 225.949 383.473 226.463 386.94 227.618 387.967 C 228.774 388.994 234.294 389.251 235.45 388.352 C 236.605 387.453 237.76 383.473 236.348 383.345 C 234.936 383.217 225.949 383.473 225.949 383.473 z "
       id="path658" />
    <path
       style="fill:#000000;fill-rule:evenodd;stroke:none;stroke-opacity:1;stroke-width:1pt;stroke-linejoin:miter;stroke-linecap:butt;fill-opacity:1;"
       d="M 221.071 383.602 C 221.071 383.602 223.767 388.352 220.814 390.278 C 217.861 392.203 214.395 388.609 214.395 388.609 L 207.077 388.48 L 217.22 383.473 L 221.071 383.602 z "
       id="path659" />
    <path
       style="fill:#000000;fill-rule:evenodd;stroke:none;stroke-opacity:1;stroke-width:1pt;stroke-linejoin:miter;stroke-linecap:butt;fill-opacity:1;"
       d="M 212.598 422.886 C 212.598 422.758 211.186 416.467 213.753 416.21 C 216.321 415.954 221.584 413.643 222.098 417.109 C 222.611 420.575 221.584 422.373 221.584 422.373 L 212.598 422.886 z "
       id="path660" />
    <path
       style="fill:#000000;fill-rule:evenodd;stroke:none;stroke-opacity:1;stroke-width:1pt;stroke-linejoin:miter;stroke-linecap:butt;fill-opacity:1;"
       d="M 201.429 423.271 C 201.429 423.271 202.713 419.035 201.557 417.366 C 200.402 415.697 193.854 416.467 193.341 418.136 C 192.827 419.805 191.8 423.015 192.185 425.582 C 192.57 428.15 193.469 427.636 193.469 427.636 L 195.138 422.886 L 201.429 423.271 z "
       id="path661" />
    <path
       style="fill:#000000;fill-rule:evenodd;stroke:none;stroke-opacity:1;stroke-width:1pt;stroke-linejoin:miter;stroke-linecap:butt;fill-opacity:1;"
       d="M 190.131 428.792 C 190.131 428.792 191.158 422.886 186.793 422.886 C 182.428 422.886 183.841 429.177 183.841 429.177 C 183.841 429.177 185.253 432.001 186.922 431.231 C 188.591 430.461 190.26 429.177 190.131 428.792 z "
       id="path662" />
    <path
       style="fill:none;fill-rule:evenodd;stroke:black;stroke-opacity:1;stroke-width:1.25;stroke-linejoin:miter;stroke-linecap:round;fill-opacity:1;stroke-dasharray:none;"
       d="M 180.888 432.386 L 181.401 439.704 "
       id="path663" />
    <path
       style="fill:none;fill-rule:evenodd;stroke:black;stroke-opacity:1;stroke-width:1.25;stroke-linejoin:miter;stroke-linecap:round;fill-opacity:1;stroke-dasharray:none;"
       d="M 177.036 432.643 L 178.833 440.346 "
       id="path664"
       sodipodi:nodetypes="cc" />
    <path
       style="fill:none;fill-rule:evenodd;stroke:black;stroke-opacity:1;stroke-width:1.25;stroke-linejoin:miter;stroke-linecap:round;fill-opacity:1;stroke-dasharray:none;"
       d="M 175.111 432.13 C 175.111 432.13 173.185 437.136 174.34 440.474 "
       id="path665" />
    <path
       style="fill:#000000;fill-rule:evenodd;stroke:none;stroke-opacity:1;stroke-width:1pt;stroke-linejoin:miter;stroke-linecap:butt;fill-opacity:1;"
       d="M 316.176 413.568 C 316.176 413.568 317.257 418.807 314.18 421.551 C 311.104 424.295 309.773 419.223 310.355 417.892 C 310.937 416.562 311.935 414.981 312.268 414.981 C 312.6 414.981 316.343 413.568 316.176 413.568 z "
       id="path666" />
    <path
       style="fill:#000000;fill-rule:evenodd;stroke:none;stroke-opacity:1;stroke-width:1pt;stroke-linejoin:miter;stroke-linecap:butt;fill-opacity:1;"
       d="M 307.943 416.063 C 307.943 416.063 308.11 426.208 301.623 422.549 C 295.137 418.89 302.455 414.732 302.455 414.732 L 307.943 416.063 z "
       id="path667" />
    <path
       style="fill:#000000;fill-rule:evenodd;stroke:none;stroke-opacity:1;stroke-width:1pt;stroke-linejoin:miter;stroke-linecap:butt;fill-opacity:1;"
       d="M 298.546 410.99 C 298.546 410.99 298.796 417.144 292.476 416.229 C 286.155 415.314 292.559 404.836 294.721 406.333 C 296.883 407.83 298.629 411.239 298.546 410.99 z "
       id="path668" />
    <path
       style="fill:#000000;fill-rule:evenodd;stroke:none;stroke-opacity:1;stroke-width:1pt;stroke-linejoin:miter;stroke-linecap:butt;fill-opacity:1;"
       d="M 260.875 432.861 C 260.791 432.778 260.625 428.786 251.893 430.2 C 243.161 431.614 255.386 437.934 258.629 436.936 C 257.88 433.277 261.041 433.194 260.875 432.861 z "
       id="path669"
       sodipodi:nodetypes="cccc" />
    <path
       style="fill:none;fill-rule:evenodd;stroke:black;stroke-opacity:1;stroke-width:1.25;stroke-linejoin:miter;stroke-linecap:round;fill-opacity:1;stroke-dasharray:none;"
       d="M 254.887 440.262 C 255.053 440.429 261.872 445.834 261.872 445.834 "
       id="path670" />
    <path
       style="fill:none;fill-rule:evenodd;stroke:black;stroke-opacity:1;stroke-width:1.25;stroke-linejoin:miter;stroke-linecap:round;fill-opacity:1;stroke-dasharray:none;"
       d="M 255.552 443.755 L 257.798 446.084 "
       id="path671" />
    <path
       style="fill:none;fill-rule:evenodd;stroke:black;stroke-opacity:1;stroke-width:1.25;stroke-linejoin:miter;stroke-linecap:round;fill-opacity:1;stroke-dasharray:none;"
       d="M 249.315 442.508 L 254.055 446.666 "
       id="path672" />
    <path
       style="fill:#000000;fill-rule:evenodd;stroke:none;stroke-opacity:1;stroke-width:1pt;stroke-linejoin:miter;stroke-linecap:butt;fill-opacity:1;"
       d="M 308.442 355.938 C 308.442 355.938 315.511 359.597 310.605 364.669 C 305.698 369.742 304.617 358.599 304.617 358.599 L 308.442 355.938 z "
       id="path673" />
    <path
       style="fill:#000000;fill-rule:evenodd;stroke:none;stroke-opacity:1;stroke-width:1pt;stroke-linejoin:miter;stroke-linecap:butt;fill-opacity:1;"
       d="M 311.436 352.777 C 311.436 352.777 312.767 358.931 318.588 355.771 C 324.409 352.611 317.174 347.954 315.012 348.702 C 312.351 350.282 311.436 352.944 311.436 352.777 z "
       id="path674"
       sodipodi:nodetypes="cccc" />
    <path
       style="fill:#000000;fill-rule:evenodd;stroke:none;stroke-opacity:1;stroke-width:1pt;stroke-linejoin:miter;stroke-linecap:butt;fill-opacity:1;"
       d="M 316.343 345.21 C 317.091 346.208 318.338 350.615 322.912 347.455 C 327.486 344.295 320.667 337.06 319.087 338.224 C 317.507 339.389 316.675 339.305 316.343 345.21 z "
       id="path675"
       sodipodi:nodetypes="cccc" />
  </g>
  <g
     id="g728"
     transform="matrix(-1.000000,0.000000,0.000000,1.000000,687.2671,-1.525879e-5)">
    <path
       style="fill:#003f00;fill-rule:evenodd;stroke:#003000;stroke-opacity:1;stroke-width:1pt;stroke-linejoin:round;stroke-linecap:butt;fill-opacity:1;"
       d="M 276.499 338.63 C 256.342 354.443 269.652 379.326 297.351 374.183 C 297.351 374.183 293.702 385.755 293.493 385.86 C 293.284 385.964 288.176 386.173 288.176 386.173 C 288.176 386.173 288.384 379.5 288.28 379.604 C 288.176 379.708 280.877 386.068 280.773 386.173 C 280.669 386.277 275.247 386.902 275.039 386.902 C 274.83 386.902 273.058 383.983 273.058 383.983 C 271.216 384.192 269.374 384.4 267.532 384.609 C 269.061 381.933 271.112 379.778 272.12 376.581 C 266.698 378.493 262.528 384.782 257.732 388.883 C 257.072 387.493 256.411 386.103 255.751 384.713 C 254.5 384.157 253.248 383.601 251.997 383.045 C 254.082 381.342 256.168 379.639 258.253 377.936 C 256.168 378.075 254.082 378.214 251.997 378.353 C 252.518 376.407 253.04 374.46 253.561 372.514 C 250.225 374.495 246.888 376.476 243.552 378.457 C 241.154 377.936 238.756 377.414 236.358 376.893 C 236.358 376.893 243.969 365.842 243.761 365.842 C 243.552 365.842 230.833 368.97 230.833 368.97 C 233.231 365.112 235.628 361.255 238.026 357.397 C 234.203 358.579 230.381 359.76 226.558 360.942 C 232.675 353.783 238.791 346.623 244.908 339.464 C 249.426 338.665 253.944 337.865 258.462 337.066 C 274.878 336.612 274.641 338.349 280.175 332.126 C 284.25 331.588 281.037 335.785 282.54 335.915 C 284.043 336.046 274.996 338.5 276.499 338.63 z "
       id="path729"
       sodipodi:nodetypes="cccccccccccccccccccccccccsc" />
    <path
       style="fill:#003f00;fill-rule:evenodd;stroke:#003000;stroke-opacity:1;stroke-width:1.25;stroke-linejoin:round;stroke-linecap:butt;fill-opacity:1;stroke-dasharray:none;"
       d="M 219.224 381.596 C 222.657 369.237 222.117 364.529 207.748 360.703 C 204.952 360.998 195.536 361.438 193.476 364.529 C 181.853 365.559 176.556 376.888 173.466 377.329 C 165.415 378.537 156.889 384.931 152.28 386.157 C 156.988 390.277 161.108 390.571 165.816 390.718 C 163.756 393.906 159.783 395.181 158.753 398.516 C 170.671 398.712 188.032 395.818 192.299 395.573 C 201.274 390.914 210.249 386.255 219.224 381.596 z "
       id="path730"
       sodipodi:nodetypes="cccsccccc" />
    <path
       style="fill:none;fill-rule:evenodd;stroke:black;stroke-opacity:1;stroke-width:1pt;stroke-linejoin:miter;stroke-linecap:butt;fill-opacity:1;"
       d="M 245.968 377.299 C 245.968 377.299 246.323 381.605 244.711 382.678 C 243.1 383.393 217.444 383.398 217.444 383.398 "
       id="path731"
       sodipodi:nodetypes="ccc" />
    <path
       style="fill:#003f00;fill-rule:evenodd;stroke:#003000;stroke-opacity:1;stroke-width:1pt;stroke-linejoin:miter;stroke-linecap:butt;fill-opacity:1;"
       d="M 196.447 403.948 C 196.253 403.948 193.344 396.773 193.344 396.773 C 192.762 396.837 190.048 399.617 189.466 399.682 C 188.949 398.971 188.238 397.678 187.721 396.967 C 187.721 396.967 185.006 400.457 184.812 400.069 C 184.618 399.682 183.26 408.02 183.066 407.827 C 182.872 407.633 180.933 401.427 180.739 401.427 C 180.545 401.427 179.382 405.499 179.382 405.499 C 178.671 405.564 177.96 405.628 177.249 405.693 C 177.314 407.891 177.378 410.089 177.443 412.287 C 176.085 410.348 174.728 408.408 173.37 406.469 C 172.982 408.473 172.595 410.477 172.207 412.481 C 172.465 416.489 172.724 420.496 172.982 424.504 C 173.176 425.344 173.37 426.185 173.564 427.025 C 183.777 421.078 190.694 413.386 196.447 403.948 z "
       id="path732"
       sodipodi:nodetypes="ccccccccccccccc" />
    <path
       style="fill:#003f00;fill-rule:evenodd;stroke:#003000;stroke-opacity:1;stroke-width:1pt;stroke-linejoin:miter;stroke-linecap:butt;fill-opacity:1;"
       d="M 244.347 426.056 C 241.309 423.729 237.883 422.371 234.651 422.565 C 233.681 423.276 232.712 423.987 231.742 424.698 C 230.384 425.086 229.027 425.474 227.669 425.862 C 227.669 425.862 230.578 428.964 230.19 429.158 C 229.803 429.352 221.076 430.516 221.076 430.71 C 221.076 430.904 225.73 433.037 225.73 433.037 C 225.148 433.425 224.567 433.813 223.985 434.201 C 225.924 434.977 227.864 435.752 229.803 436.528 C 229.803 436.528 224.373 437.691 224.179 437.885 C 223.985 438.079 233.875 443.897 234.651 443.703 C 235.427 444.285 245.899 445.448 245.899 445.254 C 246.675 440.6 245.511 434.782 245.511 434.782 C 243.184 433.037 242.99 428.965 244.347 426.056 z "
       id="path733"
       sodipodi:nodetypes="cccccccccccccc" />
    <path
       style="fill:#003f00;fill-rule:evenodd;stroke:#003000;stroke-opacity:1;stroke-width:1pt;stroke-linejoin:miter;stroke-linecap:butt;fill-opacity:1;"
       d="M 265.098 424.892 C 267.813 420.82 289.338 426.444 289.338 426.444 C 300.004 428.189 319.202 423.147 320.754 426.444 C 321.723 431.163 310.088 435.882 303.301 437.11 C 303.301 437.11 297.483 442.928 297.483 442.152 C 297.483 441.376 300.392 434.395 298.841 434.783 C 297.289 435.171 291.471 438.079 290.89 438.661 C 288.95 439.243 284.684 441.957 284.49 441.763 C 283.52 440.406 285.46 436.916 285.46 436.916 C 277.121 436.399 264.322 430.257 265.098 424.892 z "
       id="path734"
       sodipodi:nodetypes="cccccccccc" />
    <path
       style="fill:none;fill-rule:evenodd;stroke:black;stroke-opacity:1;stroke-width:1pt;stroke-linejoin:miter;stroke-linecap:butt;fill-opacity:1;"
       d="M 297.871 375.247 C 305.046 377.38 302.525 398.13 299.034 411.317 "
       id="path735"
       sodipodi:nodetypes="cc" />
    <path
       style="fill:none;fill-rule:evenodd;stroke:black;stroke-opacity:1;stroke-width:1.25;stroke-linejoin:round;stroke-linecap:round;fill-opacity:1;stroke-dasharray:none;"
       d="M 273.436 395.221 C 287.011 392.894 298.84 410.929 298.84 411.123 C 306.597 421.207 318.427 411.511 318.427 411.511 C 320.625 411.446 322.822 411.382 325.02 411.317 C 325.085 412.093 325.149 412.868 325.214 413.644 C 323.339 414.032 321.465 414.42 319.59 414.808 C 321.336 414.614 323.081 414.42 324.827 414.226 C 324.956 415.131 325.085 416.036 325.214 416.941 C 323.533 417.652 321.853 418.363 320.172 419.074 C 321.853 418.557 323.533 418.04 325.214 417.523 C 325.667 418.428 326.119 419.333 326.572 420.238 C 324.827 420.949 323.081 421.66 321.336 422.371 C 323.211 421.983 325.085 421.595 326.96 421.207 C 327.8 422.371 328.641 423.534 329.481 424.698 C 326.701 425.474 323.922 426.249 321.142 427.025 "
       id="path736"
       sodipodi:nodetypes="ccccccccccccccc" />
    <path
       style="fill:none;fill-rule:evenodd;stroke:black;stroke-opacity:1;stroke-width:1pt;stroke-linejoin:round;stroke-linecap:butt;fill-opacity:1;"
       d="M 249.583 409.378 C 242.602 417.394 236.784 420.755 226.894 421.79 C 215.517 423.535 207.049 423.535 195.284 422.953 C 194.315 427.737 192.763 429.223 188.303 430.128 C 187.269 431.808 186.04 434.265 185.006 435.946 C 184.877 438.661 184.165 440.794 184.036 443.509 C 183.131 442.345 182.226 441.182 181.321 440.019 C 181.321 442.216 181.903 445.578 181.321 446.418 C 179.963 446.482 179.77 442.474 178.994 440.406 C 178.477 443.185 178.541 447.322 177.442 448.745 C 176.408 447.969 174.792 443.315 174.34 440.6 C 173.435 442.992 174.275 445.384 173.37 447.776 C 169.232 440.924 170.09 432.956 172.546 426.104 "
       id="path737"
       sodipodi:nodetypes="ccccccccccccc" />
    <path
       style="fill:none;fill-rule:evenodd;stroke:black;stroke-opacity:1;stroke-width:1pt;stroke-linejoin:miter;stroke-linecap:butt;fill-opacity:1;"
       d="M 243.896 426.149 C 251.101 427.039 258.306 426.861 264.71 425.616 "
       id="path738"
       sodipodi:nodetypes="cc" />
    <path
       style="fill:none;fill-rule:evenodd;stroke:black;stroke-opacity:1;stroke-width:1pt;stroke-linejoin:round;stroke-linecap:butt;fill-opacity:1;"
       d="M 266.044 429.352 C 263.998 431.398 261.686 433.177 259.106 434.422 C 259.195 436.379 259.284 438.602 259.373 440.559 C 262.22 440.292 263.732 441.627 265.511 443.761 C 264.977 445.985 264.444 448.209 263.91 450.433 C 263.376 449.01 262.842 447.586 262.308 446.163 C 261.774 448.12 261.775 451.411 260.44 452.301 C 258.573 451.767 259.106 448.298 258.306 446.43 C 257.327 448.387 256.349 451.41 255.37 452.3 C 254.036 451.055 254.837 448.743 254.57 446.964 C 253.414 448.476 252.257 449.988 251.101 451.5 C 250.567 451.144 250.034 450.789 249.5 450.433 C 248.699 451.144 247.899 451.856 247.098 452.567 C 246.475 450.432 245.853 448.298 245.23 446.163 "
       id="path739"
       sodipodi:nodetypes="cccccccccccccc" />
    <path
       style="fill:#003f00;fill-rule:evenodd;stroke:#003000;stroke-opacity:1;stroke-width:1pt;stroke-linejoin:round;stroke-linecap:butt;fill-opacity:1;"
       d="M 337.227 348.548 C 336.035 349.621 335.022 350.693 333.472 351.408 C 332.936 354.448 333.114 362.137 335.439 373.76 C 335.975 376.442 333.472 374.295 331.684 373.223 C 331.028 377.216 330.015 382.282 329.359 386.275 C 328.346 385.56 327.69 384.309 326.677 383.594 C 326.677 383.594 325.247 385.024 325.426 384.667 C 325.605 384.309 325.068 377.514 325.068 377.514 C 324.949 382.163 324.83 386.812 324.711 391.461 C 323.757 391.461 322.804 391.461 321.85 391.461 C 321.85 391.461 321.85 395.753 321.492 396.11 C 321.134 396.468 317.737 395.216 317.737 395.216 C 317.797 397.183 317.856 399.15 317.916 401.117 C 317.916 401.117 314.161 400.58 313.982 400.759 C 313.803 400.938 310.942 405.229 310.942 405.229 C 311.3 401.832 311.657 398.434 312.015 395.037 C 312.015 395.037 309.691 395.931 309.512 395.753 C 309.333 395.574 309.512 388.779 309.512 388.779 C 313.863 380.196 318.929 373.044 322.923 363.925 C 323.101 361.541 323.995 358.799 324.174 356.415 C 323.101 351.945 327.929 346.581 331.505 347.475 C 335.26 346.939 337.227 348.727 337.227 348.548 z "
       id="path740"
       sodipodi:nodetypes="cccccccccccccccccccccc" />
    <path
       style="fill:none;fill-rule:evenodd;stroke:black;stroke-opacity:1;stroke-width:1pt;stroke-linejoin:miter;stroke-linecap:butt;fill-opacity:1;"
       d="M 309.693 389.137 C 308.143 394.263 304.984 397.6 301.825 400.759 "
       id="path741"
       sodipodi:nodetypes="cc" />
    <path
       style="fill:none;fill-rule:evenodd;stroke:black;stroke-opacity:1;stroke-width:1.25;stroke-linejoin:round;stroke-linecap:butt;fill-opacity:1;stroke-dasharray:none;"
       d="M 298.07 363.389 C 303.971 360.17 308.978 355.701 313.09 350.515 C 315.712 349.025 316.189 344.673 316.666 339.607 C 319.11 338.594 321.553 334.005 322.388 334.422 C 324.117 335.852 324.415 339.786 325.428 342.468 C 325.845 340.382 325.189 336.866 326.679 336.21 C 328.11 337.402 328.11 340.919 328.825 343.005 C 329.719 341.157 329.898 338.952 331.686 338.177 C 333.295 339.25 332.937 343.899 332.937 343.72 C 332.937 343.541 334.726 339.25 336.514 339.25 C 337.825 342.17 338.779 345.27 338.302 348.011 "
       id="path742"
       sodipodi:nodetypes="ccccccccccc" />
    <path
       style="fill:none;fill-rule:evenodd;stroke:black;stroke-opacity:1;stroke-width:1pt;stroke-linejoin:miter;stroke-linecap:butt;fill-opacity:1;"
       d="M 296.819 373.223 C 299.501 370.004 299.322 365.177 298.607 362.495 C 295.627 360.707 292.468 360.706 289.13 360.885 "
       id="path743"
       sodipodi:nodetypes="ccc" />
    <path
       style="fill:#6b0000;fill-rule:evenodd;stroke:black;stroke-opacity:1;stroke-width:1pt;stroke-linejoin:miter;stroke-linecap:butt;fill-opacity:1;"
       d="M 283.944 364.283 C 283.944 364.283 281.084 366.965 281.978 368.395 C 282.872 369.826 293.064 371.793 295.746 370.541 C 298.428 369.289 298.607 363.746 296.64 363.746 C 294.673 363.746 283.944 364.64 283.944 364.283 z "
       id="path744" />
    <path
       style="fill:none;fill-rule:evenodd;stroke:black;stroke-opacity:1;stroke-width:1.25;stroke-linejoin:miter;stroke-linecap:round;fill-opacity:1;stroke-dasharray:none;"
       d="M 288.772 367.144 L 297.176 367.68 "
       id="path745"
       sodipodi:nodetypes="cc" />
    <path
       style="fill:none;fill-rule:evenodd;stroke:black;stroke-opacity:1;stroke-width:1pt;stroke-linejoin:round;stroke-linecap:butt;fill-opacity:1;"
       d="M 283.945 363.21 C 287.283 360.647 290.262 359.157 294.136 358.024 C 300.394 357.905 299.143 336.508 294.673 338.355 C 292.468 338.236 292.408 339.905 291.276 340.68 C 288.713 338.118 286.15 336.985 283.587 336.21 "
       id="path746"
       sodipodi:nodetypes="ccccc" />
    <path
       style="fill:none;fill-rule:evenodd;stroke:black;stroke-opacity:1;stroke-width:1pt;stroke-linejoin:miter;stroke-linecap:butt;fill-opacity:1;"
       d="M 289.917 354.468 C 291.281 354.545 291.46 344.028 289.444 344.028 C 286.218 346.447 288.853 354.653 289.917 354.468 z "
       id="path747"
       sodipodi:nodetypes="ccc" />
    <path
       style="fill:#003f00;fill-rule:evenodd;stroke:#003000;stroke-opacity:1;stroke-width:1pt;stroke-linejoin:miter;stroke-linecap:butt;fill-opacity:1;"
       d="M 285.071 352.653 C 285.235 354.129 283.617 357.113 281.45 357.354 C 281.181 358.833 280.912 360.311 280.643 361.79 C 278.896 361.655 277.148 361.521 275.401 361.386 C 274.326 359.504 274.074 357.76 272.999 355.878 C 273.402 354.4 272.982 352.784 273.385 351.306 C 274.998 351.037 276.748 351.591 278.361 351.322 C 280.644 350.485 284.297 350.472 285.071 352.653 z "
       id="path748"
       sodipodi:nodetypes="cccccccc" />
    <path
       style="fill:#003f00;fill-rule:evenodd;stroke:#003000;stroke-opacity:1;stroke-width:1pt;stroke-linejoin:miter;stroke-linecap:butt;fill-opacity:1;"
       d="M 279.434 345.661 C 277.689 346.75 275.67 347.153 273.788 346.87 C 274.199 344.854 274.199 342.838 273.788 340.822 C 275.398 340.145 277.283 340.015 279.03 339.612 C 280.643 339.747 282.256 339.881 283.869 340.016 C 285.093 340.817 285.493 341.617 285.482 343.241 C 284.015 345.008 281.861 345.54 279.434 345.661 z "
       id="path749"
       sodipodi:nodetypes="ccccccc" />
    <path
       style="fill:#000000;fill-rule:evenodd;stroke:none;stroke-opacity:1;stroke-width:1.25;stroke-linejoin:miter;stroke-linecap:butt;fill-opacity:1;stroke-dasharray:none;"
       d="M 246.233 380.649 C 246.233 380.649 248.929 385.656 245.206 387.838 C 241.483 390.021 239.301 383.088 239.301 383.088 C 239.301 383.088 242.767 384.116 244.565 382.831 C 246.234 380.649 246.362 380.906 246.233 380.649 z "
       id="path750"
       sodipodi:nodetypes="ccccc" />
    <path
       style="fill:#000000;fill-rule:evenodd;stroke:none;stroke-opacity:1;stroke-width:1pt;stroke-linejoin:miter;stroke-linecap:butt;fill-opacity:1;"
       d="M 225.949 383.473 C 225.949 383.473 226.463 386.94 227.618 387.967 C 228.774 388.994 234.294 389.251 235.45 388.352 C 236.605 387.453 237.76 383.473 236.348 383.345 C 234.936 383.217 225.949 383.473 225.949 383.473 z "
       id="path751" />
    <path
       style="fill:#000000;fill-rule:evenodd;stroke:none;stroke-opacity:1;stroke-width:1pt;stroke-linejoin:miter;stroke-linecap:butt;fill-opacity:1;"
       d="M 221.071 383.602 C 221.071 383.602 223.767 388.352 220.814 390.278 C 217.861 392.203 214.395 388.609 214.395 388.609 L 207.077 388.48 L 217.22 383.473 L 221.071 383.602 z "
       id="path752" />
    <path
       style="fill:#000000;fill-rule:evenodd;stroke:none;stroke-opacity:1;stroke-width:1pt;stroke-linejoin:miter;stroke-linecap:butt;fill-opacity:1;"
       d="M 212.598 422.886 C 212.598 422.758 211.186 416.467 213.753 416.21 C 216.321 415.954 221.584 413.643 222.098 417.109 C 222.611 420.575 221.584 422.373 221.584 422.373 L 212.598 422.886 z "
       id="path753" />
    <path
       style="fill:#000000;fill-rule:evenodd;stroke:none;stroke-opacity:1;stroke-width:1pt;stroke-linejoin:miter;stroke-linecap:butt;fill-opacity:1;"
       d="M 201.429 423.271 C 201.429 423.271 202.713 419.035 201.557 417.366 C 200.402 415.697 193.854 416.467 193.341 418.136 C 192.827 419.805 191.8 423.015 192.185 425.582 C 192.57 428.15 193.469 427.636 193.469 427.636 L 195.138 422.886 L 201.429 423.271 z "
       id="path754" />
    <path
       style="fill:#000000;fill-rule:evenodd;stroke:none;stroke-opacity:1;stroke-width:1pt;stroke-linejoin:miter;stroke-linecap:butt;fill-opacity:1;"
       d="M 190.131 428.792 C 190.131 428.792 191.158 422.886 186.793 422.886 C 182.428 422.886 183.841 429.177 183.841 429.177 C 183.841 429.177 185.253 432.001 186.922 431.231 C 188.591 430.461 190.26 429.177 190.131 428.792 z "
       id="path755" />
    <path
       style="fill:none;fill-rule:evenodd;stroke:black;stroke-opacity:1;stroke-width:1.25;stroke-linejoin:miter;stroke-linecap:round;fill-opacity:1;stroke-dasharray:none;"
       d="M 180.888 432.386 L 181.401 439.704 "
       id="path756" />
    <path
       style="fill:none;fill-rule:evenodd;stroke:black;stroke-opacity:1;stroke-width:1.25;stroke-linejoin:miter;stroke-linecap:round;fill-opacity:1;stroke-dasharray:none;"
       d="M 177.036 432.643 L 178.833 440.346 "
       id="path757"
       sodipodi:nodetypes="cc" />
    <path
       style="fill:none;fill-rule:evenodd;stroke:black;stroke-opacity:1;stroke-width:1.25;stroke-linejoin:miter;stroke-linecap:round;fill-opacity:1;stroke-dasharray:none;"
       d="M 175.111 432.13 C 175.111 432.13 173.185 437.136 174.34 440.474 "
       id="path758" />
    <path
       style="fill:#000000;fill-rule:evenodd;stroke:none;stroke-opacity:1;stroke-width:1pt;stroke-linejoin:miter;stroke-linecap:butt;fill-opacity:1;"
       d="M 316.176 413.568 C 316.176 413.568 317.257 418.807 314.18 421.551 C 311.104 424.295 309.773 419.223 310.355 417.892 C 310.937 416.562 311.935 414.981 312.268 414.981 C 312.6 414.981 316.343 413.568 316.176 413.568 z "
       id="path759" />
    <path
       style="fill:#000000;fill-rule:evenodd;stroke:none;stroke-opacity:1;stroke-width:1pt;stroke-linejoin:miter;stroke-linecap:butt;fill-opacity:1;"
       d="M 307.943 416.063 C 307.943 416.063 308.11 426.208 301.623 422.549 C 295.137 418.89 302.455 414.732 302.455 414.732 L 307.943 416.063 z "
       id="path760" />
    <path
       style="fill:#000000;fill-rule:evenodd;stroke:none;stroke-opacity:1;stroke-width:1pt;stroke-linejoin:miter;stroke-linecap:butt;fill-opacity:1;"
       d="M 298.546 410.99 C 298.546 410.99 298.796 417.144 292.476 416.229 C 286.155 415.314 292.559 404.836 294.721 406.333 C 296.883 407.83 298.629 411.239 298.546 410.99 z "
       id="path761" />
    <path
       style="fill:#000000;fill-rule:evenodd;stroke:none;stroke-opacity:1;stroke-width:1pt;stroke-linejoin:miter;stroke-linecap:butt;fill-opacity:1;"
       d="M 260.875 432.861 C 260.791 432.778 260.625 428.786 251.893 430.2 C 243.161 431.614 255.386 437.934 258.629 436.936 C 257.88 433.277 261.041 433.194 260.875 432.861 z "
       id="path762"
       sodipodi:nodetypes="cccc" />
    <path
       style="fill:none;fill-rule:evenodd;stroke:black;stroke-opacity:1;stroke-width:1.25;stroke-linejoin:miter;stroke-linecap:round;fill-opacity:1;stroke-dasharray:none;"
       d="M 254.887 440.262 C 255.053 440.429 261.872 445.834 261.872 445.834 "
       id="path763" />
    <path
       style="fill:none;fill-rule:evenodd;stroke:black;stroke-opacity:1;stroke-width:1.25;stroke-linejoin:miter;stroke-linecap:round;fill-opacity:1;stroke-dasharray:none;"
       d="M 255.552 443.755 L 257.798 446.084 "
       id="path764" />
    <path
       style="fill:none;fill-rule:evenodd;stroke:black;stroke-opacity:1;stroke-width:1.25;stroke-linejoin:miter;stroke-linecap:round;fill-opacity:1;stroke-dasharray:none;"
       d="M 249.315 442.508 L 254.055 446.666 "
       id="path765" />
    <path
       style="fill:#000000;fill-rule:evenodd;stroke:none;stroke-opacity:1;stroke-width:1pt;stroke-linejoin:miter;stroke-linecap:butt;fill-opacity:1;"
       d="M 308.442 355.938 C 308.442 355.938 315.511 359.597 310.605 364.669 C 305.698 369.742 304.617 358.599 304.617 358.599 L 308.442 355.938 z "
       id="path766" />
    <path
       style="fill:#000000;fill-rule:evenodd;stroke:none;stroke-opacity:1;stroke-width:1pt;stroke-linejoin:miter;stroke-linecap:butt;fill-opacity:1;"
       d="M 311.436 352.777 C 311.436 352.777 312.767 358.931 318.588 355.771 C 324.409 352.611 317.174 347.954 315.012 348.702 C 312.351 350.282 311.436 352.944 311.436 352.777 z "
       id="path767"
       sodipodi:nodetypes="cccc" />
    <path
       style="fill:#000000;fill-rule:evenodd;stroke:none;stroke-opacity:1;stroke-width:1pt;stroke-linejoin:miter;stroke-linecap:butt;fill-opacity:1;"
       d="M 316.343 345.21 C 317.091 346.208 318.338 350.615 322.912 347.455 C 327.486 344.295 320.667 337.06 319.087 338.224 C 317.507 339.389 316.675 339.305 316.343 345.21 z "
       id="path768"
       sodipodi:nodetypes="cccc" />
  </g>
  <path
     sodipodi:type="arc"
     style="fill-rule:evenodd;stroke:#000000;fill:#ffff00;fill-opacity:1;stroke-opacity:1;stroke-width:1pt;stroke-linejoin:miter;stroke-linecap:butt;"
     id="path769"
     d="M 342.672363 392.662537 A 1.957489 1.957474 0 1 0 338.757385,392.662537 A 1.95749 1.95747 0 1 0 342.672 392.663 L 340.714874 392.662537 z"
     sodipodi:cx="340.714874"
     sodipodi:cy="392.662537"
     sodipodi:rx="1.957489"
     sodipodi:ry="1.957474"
     transform="translate(0.806045,-0.115143)" />
  <g
     id="g786">
    <path
       style="fill:#6b0000;fill-rule:evenodd;stroke:black;stroke-opacity:1;stroke-width:1pt;stroke-linejoin:miter;stroke-linecap:butt;fill-opacity:1;"
       d="M 344.867 317.786 C 344.867 317.786 368.056 322.424 373.064 292.742 C 369.539 296.452 363.789 301.646 363.789 301.646 C 363.789 301.646 368.798 284.765 363.974 279.014 C 361.192 284.579 359.522 288.846 359.337 287.919 C 359.151 286.991 356.925 277.53 355.626 273.634 C 354.328 275.675 353.4 280.684 353.215 280.498 C 353.029 280.313 348.762 262.689 347.093 261.205 C 345.423 268.255 343.754 279.2 343.754 279.2 C 343.012 275.737 342.269 272.274 341.527 268.811 C 340.105 274.129 338.683 279.447 337.261 284.765 C 336.643 281.92 335.653 279.818 335.406 276.231 C 335.406 276.231 331.325 283.466 330.026 287.548 C 329.655 287.362 327.243 280.684 327.243 280.684 C 325.759 284.641 325.388 290.825 326.316 296.266 C 323.347 295.71 321.121 288.475 320.936 288.661 C 320.75 288.846 310.918 319.27 344.867 317.786 z "
       id="path783"
       sodipodi:nodetypes="ccccccccccccccccc" />
    <path
       style="fill:#ff0000;fill-rule:evenodd;stroke:none;stroke-opacity:1;stroke-width:1pt;stroke-linejoin:miter;stroke-linecap:butt;fill-opacity:1;"
       d="M 340.971 317.229 C 338.745 315.745 324.646 311.293 331.881 302.388 C 341.528 298.307 340.971 317.415 340.971 317.229 z "
       id="path780"
       sodipodi:nodetypes="ccc" />
    <path
       style="fill:#0000ff;fill-rule:evenodd;stroke:none;stroke-opacity:1;stroke-width:1pt;stroke-linejoin:miter;stroke-linecap:butt;fill-opacity:1;"
       d="M 346.907 317.415 C 347.093 317.229 346.351 300.162 355.997 303.687 C 363.603 310.18 347.093 317.786 346.907 317.415 z "
       id="path782"
       sodipodi:nodetypes="ccc" />
    <path
       style="fill:#ffffff;fill-rule:evenodd;stroke:none;stroke-opacity:1;stroke-width:1pt;stroke-linejoin:miter;stroke-linecap:butt;fill-opacity:1;"
       d="M 346.721 317.044 L 341.156 316.859 C 341.156 316.859 336.333 294.412 344.866 294.968 C 351.916 297.937 346.907 317.415 346.721 317.044 z "
       id="path781"
       sodipodi:nodetypes="cccc" />
    <path
       style="fill:#ffff00;fill-rule:evenodd;stroke:black;stroke-opacity:1;stroke-width:1pt;stroke-linejoin:miter;stroke-linecap:butt;fill-opacity:1;"
       d="M 330.026 325.021 C 328.047 327.803 326.068 330.587 324.089 333.37 C 338.435 342.459 351.669 340.975 364.716 337.636 C 363.046 333.864 362.862 331.946 361.192 328.175 C 354.761 330.277 340.724 330.895 330.026 325.021 z "
       id="path784"
       sodipodi:nodetypes="ccccc" />
    <path
       style="fill:#000000;fill-rule:evenodd;stroke:black;stroke-opacity:1;stroke-width:1pt;stroke-linejoin:miter;stroke-linecap:butt;fill-opacity:1;"
       d="M 329.84 325.392 L 334.292 317.601 C 334.292 317.601 350.803 318.343 353.771 317.972 C 355.255 319.642 360.078 326.319 360.635 327.803 C 358.78 328.36 343.754 332.812 329.84 325.392 z "
       id="path785"
       sodipodi:nodetypes="ccccc" />
  </g>
  <path
     sodipodi:type="arc"
     style="fill-rule:evenodd;stroke:#000000;fill:#ffff00;fill-opacity:1;stroke-opacity:1;stroke-width:1pt;stroke-linejoin:miter;stroke-linecap:butt;"
     id="path771"
     d="M 342.672363 392.662537 A 1.957489 1.957474 0 1 0 338.757385,392.662537 A 1.95749 1.95747 0 1 0 342.672 392.663 L 340.714874 392.662537 z"
     sodipodi:cx="340.714874"
     sodipodi:cy="392.662537"
     sodipodi:rx="1.957489"
     sodipodi:ry="1.957474"
     transform="translate(5.757293,-0.230270)" />
  <path
     sodipodi:type="arc"
     style="fill-rule:evenodd;stroke:#000000;fill:#ffff00;fill-opacity:1;stroke-opacity:1;stroke-width:1pt;stroke-linejoin:miter;stroke-linecap:butt;"
     id="path772"
     d="M 342.672363 392.662537 A 1.957489 1.957474 0 1 0 338.757385,392.662537 A 1.95749 1.95747 0 1 0 342.672 392.663 L 340.714874 392.662537 z"
     sodipodi:cx="340.714874"
     sodipodi:cy="392.662537"
     sodipodi:rx="1.957489"
     sodipodi:ry="1.957474"
     transform="translate(3.339195,-4.490677)" />
  <g
     id="g776"
     transform="matrix(-1.000000,1.224606e-16,-1.224606e-16,-1.000000,684.5386,872.2599)">
    <path
       sodipodi:type="arc"
       style="fill-rule:evenodd;stroke:#000000;fill:#ffff00;fill-opacity:1;stroke-opacity:1;stroke-width:1pt;stroke-linejoin:miter;stroke-linecap:butt;"
       id="path773"
       d="M 342.672363 392.662537 A 1.957489 1.957474 0 1 0 338.757385,392.662537 A 1.95749 1.95747 0 1 0 342.672 392.663 L 340.714874 392.662537 z"
       sodipodi:cx="340.714874"
       sodipodi:cy="392.662537"
       sodipodi:rx="1.957489"
       sodipodi:ry="1.957474"
       transform="matrix(-1.000000,1.224606e-16,-1.224606e-16,-1.000000,680.1631,831.6135)" />
    <path
       sodipodi:type="arc"
       style="fill-rule:evenodd;stroke:#000000;fill:#ffff00;fill-opacity:1;stroke-opacity:1;stroke-width:1pt;stroke-linejoin:miter;stroke-linecap:butt;"
       id="path774"
       d="M 342.672363 392.662537 A 1.957489 1.957474 0 1 0 338.757385,392.662537 A 1.95749 1.95747 0 1 0 342.672 392.663 L 340.714874 392.662537 z"
       sodipodi:cx="340.714874"
       sodipodi:cy="392.662537"
       sodipodi:rx="1.957489"
       sodipodi:ry="1.957474"
       transform="matrix(-1.000000,1.224606e-16,-1.224606e-16,-1.000000,685.1144,831.4983)" />
    <path
       sodipodi:type="arc"
       style="fill-rule:evenodd;stroke:#000000;fill:#ffff00;fill-opacity:1;stroke-opacity:1;stroke-width:1pt;stroke-linejoin:miter;stroke-linecap:butt;"
       id="path775"
       d="M 342.672363 392.662537 A 1.957489 1.957474 0 1 0 338.757385,392.662537 A 1.95749 1.95747 0 1 0 342.672 392.663 L 340.714874 392.662537 z"
       sodipodi:cx="340.714874"
       sodipodi:cy="392.662537"
       sodipodi:rx="1.957489"
       sodipodi:ry="1.957474"
       transform="matrix(-1.000000,1.224606e-16,-1.224606e-16,-1.000000,682.6964,827.2380)" />
  </g>
  <path
     sodipodi:type="arc"
     style="fill-rule:evenodd;stroke:none;fill:#ffffff;fill-opacity:1;stroke-opacity:1;stroke-width:1pt;stroke-linejoin:miter;stroke-linecap:butt;"
     id="path795"
     d="M 347.575256 327.930267 A 1.009796 2.322540 0 1 0 345.555664,327.930267 A 1.0098 2.32254 0 1 0 347.575 327.93 L 346.565460 327.930267 z"
     sodipodi:cx="346.565460"
     sodipodi:cy="327.930267"
     sodipodi:rx="1.009796"
     sodipodi:ry="2.322540"
     transform="translate(-1.413727,-1.525879e-5)" />
  <path
     sodipodi:type="arc"
     style="fill-rule:evenodd;stroke:none;fill:#ffffff;fill-opacity:1;stroke-opacity:1;stroke-width:1pt;stroke-linejoin:miter;stroke-linecap:butt;"
     id="path796"
     d="M 347.575256 327.930267 A 1.009796 2.322540 0 1 0 345.555664,327.930267 A 1.0098 2.32254 0 1 0 347.575 327.93 L 346.565460 327.930267 z"
     sodipodi:cx="346.565460"
     sodipodi:cy="327.930267"
     sodipodi:rx="1.009796"
     sodipodi:ry="2.322540"
     transform="translate(0.201947,0.201935)" />
  <path
     sodipodi:type="arc"
     style="fill-rule:evenodd;stroke:none;fill:#ffffff;fill-opacity:1;stroke-opacity:1;stroke-width:1pt;stroke-linejoin:miter;stroke-linecap:butt;"
     id="path797"
     d="M 347.575256 327.930267 A 1.009796 2.322540 0 1 0 345.555664,327.930267 A 1.0098 2.32254 0 1 0 347.575 327.93 L 346.565460 327.930267 z"
     sodipodi:cx="346.565460"
     sodipodi:cy="327.930267"
     sodipodi:rx="1.009796"
     sodipodi:ry="2.322540"
     transform="translate(-3.231389,0.201935)" />
  <path
     sodipodi:type="arc"
     style="fill-rule:evenodd;stroke:none;fill:#000000;fill-opacity:1;stroke-opacity:1;stroke-width:1pt;stroke-linejoin:miter;stroke-linecap:butt;"
     id="path798"
     d="M 299.887817 347.817474 A 1.617523 1.860138 0 1 0 296.652771,347.817474 A 1.61752 1.86014 0 1 0 299.888 347.817 L 298.270294 347.817474 z"
     sodipodi:cx="298.270294"
     sodipodi:cy="347.817474"
     sodipodi:rx="1.617523"
     sodipodi:ry="1.860138" />
  <path
     sodipodi:type="arc"
     style="fill-rule:evenodd;stroke:none;fill:#000000;fill-opacity:1;stroke-opacity:1;stroke-width:1pt;stroke-linejoin:miter;stroke-linecap:butt;"
     id="path799"
     d="M 299.887817 347.817474 A 1.617523 1.860138 0 1 0 296.652771,347.817474 A 1.61752 1.86014 0 1 0 299.888 347.817 L 298.270294 347.817474 z"
     sodipodi:cx="298.270294"
     sodipodi:cy="347.817474"
     sodipodi:rx="1.617523"
     sodipodi:ry="1.860138"
     transform="translate(90.58099,-0.808807)" />
  <path
     style="font-size:12;fill:none;fill-rule:evenodd;stroke:#000000;stroke-width:1.15103;stroke-linecap:round;"
     d="M 294.977 346.951 C 294.977 346.951 294.378 348.609 295.336 349.621 "
     id="path800" />
  <path
     style="font-size:12;fill:none;fill-rule:evenodd;stroke:#000000;stroke-width:1.15103;stroke-linecap:round;"
     d="M 292.726 346.398 C 292.726 346.398 292.151 348.885 293.301 350.449 "
     id="path801" />
  <path
     style="font-size:12;fill:none;fill-rule:evenodd;stroke:#000000;stroke-width:1.15103;stroke-linecap:round;"
     d="M 392.035 346.354 C 392.035 346.354 392.634 348.012 391.676 349.024 "
     id="path802" />
  <path
     style="font-size:12;fill:none;fill-rule:evenodd;stroke:#000000;stroke-width:1.15103;stroke-linecap:round;"
     d="M 394.286 345.801 C 394.286 345.801 394.861 348.288 393.711 349.852 "
     id="path803" />
  <g
     id="g751"
     style="fill:none;stroke:#002800;stroke-opacity:1;stroke-width:1;stroke-dasharray:none;stroke-linecap:round;">
    <path
       style="fill:none;fill-rule:evenodd;stroke:#002800;stroke-opacity:1;stroke-width:1;stroke-linejoin:miter;stroke-linecap:round;fill-opacity:1;stroke-dasharray:none;"
       d="M 326.419 356.736 C 326.419 356.736 330.987 366.171 331.285 371.434 "
       id="path711" />
    <path
       style="fill:none;fill-rule:evenodd;stroke:#002800;stroke-opacity:1;stroke-width:1;stroke-linejoin:miter;stroke-linecap:round;fill-opacity:1;stroke-dasharray:none;"
       d="M 325.029 364.979 C 325.029 364.979 328.207 373.618 328.207 378.584 "
       id="path712" />
    <path
       style="fill:none;fill-rule:evenodd;stroke:#002800;stroke-opacity:1;stroke-width:1;stroke-linejoin:miter;stroke-linecap:round;fill-opacity:1;stroke-dasharray:none;"
       d="M 322.249 369.249 C 322.249 369.249 324.632 373.023 324.533 375.108 "
       id="path713" />
    <path
       style="fill:none;fill-rule:evenodd;stroke:#002800;stroke-opacity:1;stroke-width:1;stroke-linejoin:miter;stroke-linecap:round;fill-opacity:1;stroke-dasharray:none;"
       d="M 319.071 375.704 C 319.071 375.704 321.951 384.443 321.553 388.614 "
       id="path714" />
    <path
       style="fill:none;fill-rule:evenodd;stroke:#002800;stroke-opacity:1;stroke-width:1;stroke-linejoin:miter;stroke-linecap:round;fill-opacity:1;stroke-dasharray:none;"
       d="M 315.694 381.563 C 315.694 381.563 317.978 388.614 316.886 392.785 "
       id="path715" />
    <path
       style="fill:none;fill-rule:evenodd;stroke:#002800;stroke-opacity:1;stroke-width:1;stroke-linejoin:miter;stroke-linecap:round;fill-opacity:1;stroke-dasharray:none;"
       d="M 313.013 386.032 C 313.013 386.032 313.013 391.295 312.318 392.685 "
       id="path716" />
    <g
       id="g717"
       style="fill:none;fill-opacity:1;stroke:#002800;stroke-opacity:1;stroke-width:1;stroke-dasharray:none;stroke-linecap:round;">
      <path
         style="fill:none;fill-rule:evenodd;stroke:#002800;stroke-opacity:1;stroke-width:1;stroke-linejoin:miter;stroke-linecap:round;fill-opacity:1;stroke-dasharray:none;"
         d="M 240.017 355.539 C 240.017 355.539 256.84 343.588 265.301 344.979 "
         id="path804"
         sodipodi:nodetypes="cc" />
      <path
         style="fill:none;fill-rule:evenodd;stroke:#002800;stroke-opacity:1;stroke-width:1;stroke-linejoin:miter;stroke-linecap:round;fill-opacity:1;stroke-dasharray:none;"
         d="M 247.287 343.588 C 247.287 343.588 259.131 340.499 263.911 341.296 "
         id="path805"
         sodipodi:nodetypes="cc" />
      <path
         style="fill:none;fill-rule:evenodd;stroke:#002800;stroke-opacity:1;stroke-width:1;stroke-linejoin:miter;stroke-linecap:round;fill-opacity:1;stroke-dasharray:none;"
         d="M 246.49 364.303 C 246.689 364.004 256.746 352.848 262.522 352.749 "
         id="path806"
         sodipodi:nodetypes="cc" />
      <path
         style="fill:none;fill-rule:evenodd;stroke:#002800;stroke-opacity:1;stroke-width:1;stroke-linejoin:miter;stroke-linecap:round;fill-opacity:1;stroke-dasharray:none;"
         d="M 254.856 370.677 C 254.856 370.677 257.645 362.709 263.52 360.817 "
         id="path807" />
      <path
         style="fill:none;fill-rule:evenodd;stroke:#002800;stroke-opacity:1;stroke-width:1;stroke-linejoin:miter;stroke-linecap:round;fill-opacity:1;stroke-dasharray:none;"
         d="M 260.831 376.055 C 260.831 376.055 266.605 370.878 267.8 369.185 "
         id="path808"
         sodipodi:nodetypes="cc" />
      <path
         style="fill:none;fill-rule:evenodd;stroke:#002800;stroke-opacity:1;stroke-width:1;stroke-linejoin:miter;stroke-linecap:round;fill-opacity:1;stroke-dasharray:none;"
         d="M 273.181 374.561 L 274.476 372.171 "
         id="path809" />
      <path
         style="fill:none;fill-rule:evenodd;stroke:#002800;stroke-opacity:1;stroke-width:1;stroke-linejoin:miter;stroke-linecap:round;fill-opacity:1;stroke-dasharray:none;"
         d="M 279.953 375.955 C 279.953 375.955 274.476 381.233 274.476 382.528 "
         id="path810" />
      <path
         style="fill:none;fill-rule:evenodd;stroke:#002800;stroke-opacity:1;stroke-width:1;stroke-linejoin:miter;stroke-linecap:round;fill-opacity:1;stroke-dasharray:none;"
         d="M 288.717 378.046 C 288.717 377.947 288.916 376.353 288.916 376.353 "
         id="path811" />
    </g>
    <g
       id="g729"
       style="stroke:#002800;stroke-opacity:1;stroke-width:1;stroke-dasharray:none;fill:none;stroke-linecap:round;">
      <path
         style="fill:none;fill-rule:evenodd;stroke:#002800;stroke-opacity:1;stroke-width:1;stroke-linejoin:miter;stroke-linecap:round;fill-opacity:1;stroke-dasharray:none;"
         d="M 167.315 390.197 C 167.315 390.197 196.307 381.995 202.681 387.871 "
         id="path814"
         sodipodi:nodetypes="cc" />
      <path
         style="fill:none;fill-rule:evenodd;stroke:#002800;stroke-opacity:1;stroke-width:1;stroke-linejoin:miter;stroke-linecap:round;fill-opacity:1;stroke-dasharray:none;"
         d="M 178.469 377.25 C 178.469 377.25 205.013 376.442 207.104 384.509 "
         id="path815"
         sodipodi:nodetypes="cc" />
      <path
         style="fill:none;fill-rule:evenodd;stroke:#002800;stroke-opacity:1;stroke-width:1;stroke-linejoin:miter;stroke-linecap:round;fill-opacity:1;stroke-dasharray:none;"
         d="M 197.292 366.394 C 197.491 366.394 214.908 371.215 212.119 382.768 "
         id="path816"
         sodipodi:nodetypes="cc" />
      <path
         style="fill:none;fill-rule:evenodd;stroke:#002800;stroke-opacity:1;stroke-width:1;stroke-linejoin:miter;stroke-linecap:round;fill-opacity:1;stroke-dasharray:none;"
         d="M 209.243 363.705 C 209.243 363.805 219.419 372.639 214.24 381.901 "
         id="path817"
         sodipodi:nodetypes="cc" />
      <path
         style="fill:none;fill-rule:evenodd;stroke:#002800;stroke-opacity:1;stroke-width:1;stroke-linejoin:miter;stroke-linecap:round;fill-opacity:1;stroke-dasharray:none;"
         d="M 189.424 402.447 C 189.424 402.447 189.324 405.434 190.121 409.617 "
         id="path818" />
      <path
         style="fill:none;fill-rule:evenodd;stroke:#002800;stroke-opacity:1;stroke-width:1;stroke-linejoin:miter;stroke-linecap:round;fill-opacity:1;stroke-dasharray:none;"
         d="M 183.648 411.211 C 184.245 416.389 184.644 417.584 184.644 417.584 "
         id="path819" />
      <path
         style="fill:none;fill-rule:evenodd;stroke:#002800;stroke-opacity:1;stroke-width:1;stroke-linejoin:miter;stroke-linecap:round;fill-opacity:1;stroke-dasharray:none;"
         d="M 178.27 416.29 C 178.27 416.29 177.174 418.182 178.469 421.668 "
         id="path820" />
      <path
         style="fill:none;fill-rule:evenodd;stroke:#002800;stroke-opacity:1;stroke-width:1;stroke-linejoin:miter;stroke-linecap:round;fill-opacity:1;stroke-dasharray:none;"
         d="M 232.747 428.739 C 241.212 430.631 241.809 430.033 241.809 430.033 "
         id="path821" />
      <path
         style="fill:none;fill-rule:evenodd;stroke:#002800;stroke-opacity:1;stroke-width:1;stroke-linejoin:miter;stroke-linecap:round;fill-opacity:1;stroke-dasharray:none;"
         d="M 229.062 433.32 C 229.46 433.42 239.32 434.117 241.809 433.818 "
         id="path822" />
      <path
         style="fill:none;fill-rule:evenodd;stroke:#002800;stroke-opacity:1;stroke-width:1;stroke-linejoin:miter;stroke-linecap:round;fill-opacity:1;stroke-dasharray:none;"
         d="M 232.747 437.105 C 232.747 437.105 241.809 439.594 243.901 438.499 "
         id="path823" />
      <path
         style="fill:none;fill-rule:evenodd;stroke:#002800;stroke-opacity:1;stroke-width:1;stroke-linejoin:miter;stroke-linecap:round;fill-opacity:1;stroke-dasharray:none;"
         d="M 301.963 428.241 C 301.963 428.241 301.863 431.527 299.872 433.22 "
         id="path824" />
      <path
         style="fill:none;fill-rule:evenodd;stroke:#002800;stroke-opacity:1;stroke-width:1;stroke-linejoin:miter;stroke-linecap:round;fill-opacity:1;stroke-dasharray:none;"
         d="M 309.134 428.042 C 309.134 428.042 308.835 431.527 305.349 434.416 "
         id="path825" />
      <path
         style="fill:none;fill-rule:evenodd;stroke:#002800;stroke-opacity:1;stroke-width:1;stroke-linejoin:miter;stroke-linecap:round;fill-opacity:1;stroke-dasharray:none;"
         d="M 286.526 435.81 C 286.526 435.81 289.912 433.619 293.697 429.436 "
         id="path826" />
      <path
         style="fill:none;fill-rule:evenodd;stroke:#002800;stroke-opacity:1;stroke-width:1;stroke-linejoin:miter;stroke-linecap:round;fill-opacity:1;stroke-dasharray:none;"
         d="M 284.496 428.466 C 284.496 428.466 283.943 430.956 279.701 433.538 "
         id="path705" />
      <path
         style="fill:none;fill-rule:evenodd;stroke:#002800;stroke-opacity:1;stroke-width:1;stroke-linejoin:miter;stroke-linecap:round;fill-opacity:1;stroke-dasharray:none;"
         d="M 277.119 426.991 C 277.119 426.991 277.58 429.296 274.905 431.51 "
         id="path706" />
      <path
         style="fill:none;fill-rule:evenodd;stroke:#002800;stroke-opacity:1;stroke-width:1;stroke-linejoin:miter;stroke-linecap:round;fill-opacity:1;stroke-dasharray:none;"
         d="M 180.043 409.554 C 180.043 409.554 179.926 413.182 180.862 419.094 "
         id="path707" />
      <path
         style="fill:none;fill-rule:evenodd;stroke:#002800;stroke-opacity:1;stroke-width:1;stroke-linejoin:miter;stroke-linecap:round;fill-opacity:1;stroke-dasharray:none;"
         d="M 185.779 405.164 C 185.779 405.164 184.901 409.495 186.891 412.948 "
         id="path708" />
      <path
         style="fill:none;fill-rule:evenodd;stroke:#002800;stroke-opacity:1;stroke-width:1;stroke-linejoin:miter;stroke-linecap:round;fill-opacity:1;stroke-dasharray:none;"
         d="M 162.6 386.141 C 162.6 386.141 196.139 379.995 204.685 385.965 "
         id="path709"
         sodipodi:nodetypes="cc" />
      <path
         style="fill:none;fill-rule:evenodd;stroke:#002800;stroke-opacity:1;stroke-width:1;stroke-linejoin:miter;stroke-linecap:round;fill-opacity:1;stroke-dasharray:none;"
         d="M 187.067 370.103 C 187.067 370.103 208.372 377.185 209.777 383.038 "
         id="path710"
         sodipodi:nodetypes="cc" />
      <path
         style="fill:none;fill-rule:evenodd;stroke:#002800;stroke-opacity:1;stroke-width:1;stroke-linejoin:miter;stroke-linecap:round;fill-opacity:1;stroke-dasharray:none;"
         d="M 278.013 352.486 L 279.797 357.168 "
         id="path726" />
      <path
         style="fill:none;fill-rule:evenodd;stroke:#002800;stroke-opacity:1;stroke-width:1;stroke-linejoin:miter;stroke-linecap:round;fill-opacity:1;stroke-dasharray:none;"
         d="M 278.682 341.339 L 278.682 344.46 "
         id="path727" />
    </g>
  </g>
  <g
     id="g789"
     style="fill:none;stroke:#002800;stroke-opacity:1;stroke-width:1;stroke-dasharray:none;stroke-linecap:round;"
     transform="matrix(-1.000000,0.000000,0.000000,1.000000,686.3657,0.442490)">
    <path
       style="fill:none;fill-rule:evenodd;stroke:#002800;stroke-opacity:1;stroke-width:1;stroke-linejoin:miter;stroke-linecap:round;fill-opacity:1;stroke-dasharray:none;"
       d="M 326.419 356.736 C 326.419 356.736 330.987 366.171 331.285 371.434 "
       id="path790" />
    <path
       style="fill:none;fill-rule:evenodd;stroke:#002800;stroke-opacity:1;stroke-width:1;stroke-linejoin:miter;stroke-linecap:round;fill-opacity:1;stroke-dasharray:none;"
       d="M 325.029 364.979 C 325.029 364.979 328.207 373.618 328.207 378.584 "
       id="path791" />
    <path
       style="fill:none;fill-rule:evenodd;stroke:#002800;stroke-opacity:1;stroke-width:1;stroke-linejoin:miter;stroke-linecap:round;fill-opacity:1;stroke-dasharray:none;"
       d="M 322.249 369.249 C 322.249 369.249 324.632 373.023 324.533 375.108 "
       id="path792" />
    <path
       style="fill:none;fill-rule:evenodd;stroke:#002800;stroke-opacity:1;stroke-width:1;stroke-linejoin:miter;stroke-linecap:round;fill-opacity:1;stroke-dasharray:none;"
       d="M 319.071 375.704 C 319.071 375.704 321.951 384.443 321.553 388.614 "
       id="path793" />
    <path
       style="fill:none;fill-rule:evenodd;stroke:#002800;stroke-opacity:1;stroke-width:1;stroke-linejoin:miter;stroke-linecap:round;fill-opacity:1;stroke-dasharray:none;"
       d="M 315.694 381.563 C 315.694 381.563 317.978 388.614 316.886 392.785 "
       id="path794" />
    <path
       style="fill:none;fill-rule:evenodd;stroke:#002800;stroke-opacity:1;stroke-width:1;stroke-linejoin:miter;stroke-linecap:round;fill-opacity:1;stroke-dasharray:none;"
       d="M 313.013 386.032 C 313.013 386.032 313.013 391.295 312.318 392.685 "
       id="path812" />
    <g
       id="g813"
       style="fill:none;fill-opacity:1;stroke:#002800;stroke-opacity:1;stroke-width:1;stroke-dasharray:none;stroke-linecap:round;">
      <path
         style="fill:none;fill-rule:evenodd;stroke:#002800;stroke-opacity:1;stroke-width:1;stroke-linejoin:miter;stroke-linecap:round;fill-opacity:1;stroke-dasharray:none;"
         d="M 240.017 355.539 C 240.017 355.539 256.84 343.588 265.301 344.979 "
         id="path827"
         sodipodi:nodetypes="cc" />
      <path
         style="fill:none;fill-rule:evenodd;stroke:#002800;stroke-opacity:1;stroke-width:1;stroke-linejoin:miter;stroke-linecap:round;fill-opacity:1;stroke-dasharray:none;"
         d="M 247.287 343.588 C 247.287 343.588 259.131 340.499 263.911 341.296 "
         id="path828"
         sodipodi:nodetypes="cc" />
      <path
         style="fill:none;fill-rule:evenodd;stroke:#002800;stroke-opacity:1;stroke-width:1;stroke-linejoin:miter;stroke-linecap:round;fill-opacity:1;stroke-dasharray:none;"
         d="M 246.49 364.303 C 246.689 364.004 256.746 352.848 262.522 352.749 "
         id="path829"
         sodipodi:nodetypes="cc" />
      <path
         style="fill:none;fill-rule:evenodd;stroke:#002800;stroke-opacity:1;stroke-width:1;stroke-linejoin:miter;stroke-linecap:round;fill-opacity:1;stroke-dasharray:none;"
         d="M 254.856 370.677 C 254.856 370.677 257.645 362.709 263.52 360.817 "
         id="path830" />
      <path
         style="fill:none;fill-rule:evenodd;stroke:#002800;stroke-opacity:1;stroke-width:1;stroke-linejoin:miter;stroke-linecap:round;fill-opacity:1;stroke-dasharray:none;"
         d="M 260.831 376.055 C 260.831 376.055 266.605 370.878 267.8 369.185 "
         id="path831"
         sodipodi:nodetypes="cc" />
      <path
         style="fill:none;fill-rule:evenodd;stroke:#002800;stroke-opacity:1;stroke-width:1;stroke-linejoin:miter;stroke-linecap:round;fill-opacity:1;stroke-dasharray:none;"
         d="M 273.181 374.561 L 274.476 372.171 "
         id="path832" />
      <path
         style="fill:none;fill-rule:evenodd;stroke:#002800;stroke-opacity:1;stroke-width:1;stroke-linejoin:miter;stroke-linecap:round;fill-opacity:1;stroke-dasharray:none;"
         d="M 279.953 375.955 C 279.953 375.955 274.476 381.233 274.476 382.528 "
         id="path833" />
      <path
         style="fill:none;fill-rule:evenodd;stroke:#002800;stroke-opacity:1;stroke-width:1;stroke-linejoin:miter;stroke-linecap:round;fill-opacity:1;stroke-dasharray:none;"
         d="M 288.717 378.046 C 288.717 377.947 288.916 376.353 288.916 376.353 "
         id="path834" />
    </g>
    <g
       id="g835"
       style="stroke:#002800;stroke-opacity:1;stroke-width:1;stroke-dasharray:none;fill:none;stroke-linecap:round;">
      <path
         style="fill:none;fill-rule:evenodd;stroke:#002800;stroke-opacity:1;stroke-width:1;stroke-linejoin:miter;stroke-linecap:round;fill-opacity:1;stroke-dasharray:none;"
         d="M 167.315 390.197 C 167.315 390.197 196.307 381.995 202.681 387.871 "
         id="path836"
         sodipodi:nodetypes="cc" />
      <path
         style="fill:none;fill-rule:evenodd;stroke:#002800;stroke-opacity:1;stroke-width:1;stroke-linejoin:miter;stroke-linecap:round;fill-opacity:1;stroke-dasharray:none;"
         d="M 178.469 377.25 C 178.469 377.25 205.013 376.442 207.104 384.509 "
         id="path837"
         sodipodi:nodetypes="cc" />
      <path
         style="fill:none;fill-rule:evenodd;stroke:#002800;stroke-opacity:1;stroke-width:1;stroke-linejoin:miter;stroke-linecap:round;fill-opacity:1;stroke-dasharray:none;"
         d="M 197.292 366.394 C 197.491 366.394 214.908 371.215 212.119 382.768 "
         id="path838"
         sodipodi:nodetypes="cc" />
      <path
         style="fill:none;fill-rule:evenodd;stroke:#002800;stroke-opacity:1;stroke-width:1;stroke-linejoin:miter;stroke-linecap:round;fill-opacity:1;stroke-dasharray:none;"
         d="M 209.243 363.705 C 209.243 363.805 219.419 372.639 214.24 381.901 "
         id="path839"
         sodipodi:nodetypes="cc" />
      <path
         style="fill:none;fill-rule:evenodd;stroke:#002800;stroke-opacity:1;stroke-width:1;stroke-linejoin:miter;stroke-linecap:round;fill-opacity:1;stroke-dasharray:none;"
         d="M 189.424 402.447 C 189.424 402.447 189.324 405.434 190.121 409.617 "
         id="path840" />
      <path
         style="fill:none;fill-rule:evenodd;stroke:#002800;stroke-opacity:1;stroke-width:1;stroke-linejoin:miter;stroke-linecap:round;fill-opacity:1;stroke-dasharray:none;"
         d="M 183.648 411.211 C 184.245 416.389 184.644 417.584 184.644 417.584 "
         id="path841" />
      <path
         style="fill:none;fill-rule:evenodd;stroke:#002800;stroke-opacity:1;stroke-width:1;stroke-linejoin:miter;stroke-linecap:round;fill-opacity:1;stroke-dasharray:none;"
         d="M 178.27 416.29 C 178.27 416.29 177.174 418.182 178.469 421.668 "
         id="path842" />
      <path
         style="fill:none;fill-rule:evenodd;stroke:#002800;stroke-opacity:1;stroke-width:1;stroke-linejoin:miter;stroke-linecap:round;fill-opacity:1;stroke-dasharray:none;"
         d="M 232.747 428.739 C 241.212 430.631 241.809 430.033 241.809 430.033 "
         id="path843" />
      <path
         style="fill:none;fill-rule:evenodd;stroke:#002800;stroke-opacity:1;stroke-width:1;stroke-linejoin:miter;stroke-linecap:round;fill-opacity:1;stroke-dasharray:none;"
         d="M 229.062 433.32 C 229.46 433.42 239.32 434.117 241.809 433.818 "
         id="path844" />
      <path
         style="fill:none;fill-rule:evenodd;stroke:#002800;stroke-opacity:1;stroke-width:1;stroke-linejoin:miter;stroke-linecap:round;fill-opacity:1;stroke-dasharray:none;"
         d="M 232.747 437.105 C 232.747 437.105 241.809 439.594 243.901 438.499 "
         id="path845" />
      <path
         style="fill:none;fill-rule:evenodd;stroke:#002800;stroke-opacity:1;stroke-width:1;stroke-linejoin:miter;stroke-linecap:round;fill-opacity:1;stroke-dasharray:none;"
         d="M 301.963 428.241 C 301.963 428.241 301.863 431.527 299.872 433.22 "
         id="path846" />
      <path
         style="fill:none;fill-rule:evenodd;stroke:#002800;stroke-opacity:1;stroke-width:1;stroke-linejoin:miter;stroke-linecap:round;fill-opacity:1;stroke-dasharray:none;"
         d="M 309.134 428.042 C 309.134 428.042 308.835 431.527 305.349 434.416 "
         id="path847" />
      <path
         style="fill:none;fill-rule:evenodd;stroke:#002800;stroke-opacity:1;stroke-width:1;stroke-linejoin:miter;stroke-linecap:round;fill-opacity:1;stroke-dasharray:none;"
         d="M 286.526 435.81 C 286.526 435.81 289.912 433.619 293.697 429.436 "
         id="path848" />
      <path
         style="fill:none;fill-rule:evenodd;stroke:#002800;stroke-opacity:1;stroke-width:1;stroke-linejoin:miter;stroke-linecap:round;fill-opacity:1;stroke-dasharray:none;"
         d="M 284.496 428.466 C 284.496 428.466 283.943 430.956 279.701 433.538 "
         id="path849" />
      <path
         style="fill:none;fill-rule:evenodd;stroke:#002800;stroke-opacity:1;stroke-width:1;stroke-linejoin:miter;stroke-linecap:round;fill-opacity:1;stroke-dasharray:none;"
         d="M 277.119 426.991 C 277.119 426.991 277.58 429.296 274.905 431.51 "
         id="path850" />
      <path
         style="fill:none;fill-rule:evenodd;stroke:#002800;stroke-opacity:1;stroke-width:1;stroke-linejoin:miter;stroke-linecap:round;fill-opacity:1;stroke-dasharray:none;"
         d="M 180.043 409.554 C 180.043 409.554 179.926 413.182 180.862 419.094 "
         id="path851" />
      <path
         style="fill:none;fill-rule:evenodd;stroke:#002800;stroke-opacity:1;stroke-width:1;stroke-linejoin:miter;stroke-linecap:round;fill-opacity:1;stroke-dasharray:none;"
         d="M 185.779 405.164 C 185.779 405.164 184.901 409.495 186.891 412.948 "
         id="path852" />
      <path
         style="fill:none;fill-rule:evenodd;stroke:#002800;stroke-opacity:1;stroke-width:1;stroke-linejoin:miter;stroke-linecap:round;fill-opacity:1;stroke-dasharray:none;"
         d="M 162.6 386.141 C 162.6 386.141 196.139 379.995 204.685 385.965 "
         id="path853"
         sodipodi:nodetypes="cc" />
      <path
         style="fill:none;fill-rule:evenodd;stroke:#002800;stroke-opacity:1;stroke-width:1;stroke-linejoin:miter;stroke-linecap:round;fill-opacity:1;stroke-dasharray:none;"
         d="M 187.067 370.103 C 187.067 370.103 208.372 377.185 209.777 383.038 "
         id="path854"
         sodipodi:nodetypes="cc" />
      <path
         style="fill:none;fill-rule:evenodd;stroke:#002800;stroke-opacity:1;stroke-width:1;stroke-linejoin:miter;stroke-linecap:round;fill-opacity:1;stroke-dasharray:none;"
         d="M 278.013 352.486 L 279.797 357.168 "
         id="path855" />
      <path
         style="fill:none;fill-rule:evenodd;stroke:#002800;stroke-opacity:1;stroke-width:1;stroke-linejoin:miter;stroke-linecap:round;fill-opacity:1;stroke-dasharray:none;"
         d="M 278.682 341.339 L 278.682 344.46 "
         id="path856" />
    </g>
  </g>
</svg>
