<?xml version="1.0" encoding="UTF-8" standalone="no"?>
<!DOCTYPE svg PUBLIC "-//W3C//DTD SVG 20010904//EN"
"http://www.w3.org/TR/2001/REC-SVG-20010904/DTD/svg10.dtd">
<!-- Created with Sodipodi ("http://www.sodipodi.com/") -->
<svg
   id="svg1"
   sodipodi:version="0.33pre"
   width="1000"
   height="500"
   sodipodi:docname="/home/yemu/clipart/newnewnew/tokelau.svg"
   xmlns="http://www.w3.org/2000/svg"
   xmlns:sodipodi="http://sodipodi.sourceforge.net/DTD/sodipodi-0.dtd"
   xmlns:xlink="http://www.w3.org/1999/xlink"
   sodipodi:docbase="/home/yemu/clipart/newnewnew">
  <defs
     id="defs3" />
  <sodipodi:namedview
     id="base" />
  <g
     id="g147"
     transform="matrix(8.33333333333333,0,0,8.33333333333333,0,0)">
    <rect
       style="fill-rule:nonzero;stroke:none;fill:#000066;fill-opacity:1;stroke-opacity:1;stroke-width:1pt;stroke-linejoin:miter;stroke-linecap:butt;"
       id="rect124"
       x="0"
       y="0"
       width="120"
       height="60" />
    <path
       style="fill:#ffffff;fill-rule:nonzero;stroke:none;stroke-opacity:1;stroke-width:1pt;stroke-linejoin:miter;stroke-linecap:butt;fill-opacity:1;"
       d="M 0 0 L 0 3.3541 L 53.2918 30 L 60 30 L 60 26.6459 L 6.7082 0 L 0 0 z M 60 0 L 60 3.35405 L 6.7082 30 L 0 30 L 0 26.6458 L 53.2918 0 L 60 0 z "
       id="path146" />
    <path
       style="font-size:12;fill:#ffffff;stroke-width:1pt;"
       d="M 25 0 L 25 30 L 35 30 L 35 0 L 25 0 z M 0 10 L 0 20 L 60 20 L 60 10 L 0 10 z "
       id="path136" />
    <path
       style="font-size:12;fill:#cc0000;stroke-width:1pt;fill-opacity:1;"
       d="M 0 12 L 0 18 L 60 18 L 60 12 L 0 12 z M 27 0 L 27 30 L 33 30 L 33 0 L 27 0 z "
       id="path141" />
    <g
       id="g141">
      <path
         style="fill:#ffffff;fill-rule:nonzero;stroke:none;stroke-opacity:1;stroke-width:1pt;stroke-linejoin:miter;stroke-linecap:butt;fill-opacity:1;"
         d="M 90 7.994962518933 L 90.89918693812 10.762375355 L 93.809016994375 10.762375355 L 91.454915028125 12.47273054898 L 92.35410196625 15.240143385291707 L 90 13.52978819155 L 87.645898033750315 15.240143385291707 L 88.5450849718747 12.47273054898 L 86.190983005625 10.762375355 L 89.100813061876 10.762375355 z "
         id="path133" />
      <path
         style="fill:#cc0000;fill-rule:nonzero;stroke:none;stroke-opacity:1;stroke-width:1pt;stroke-linejoin:miter;stroke-linecap:butt;fill-opacity:1;"
         d="M 90 8.8456133272852 L 90.7082039325 11.0252409113013 L 93 11.0252409113013 L 91.1458980338 12.372324841040037 L 91.85410196625 14.551952425056 L 90 13.204868495317 L 88.14589803375 14.551952425056 L 88.85410196625 12.372324841040037 L 87 11.0252409113013 L 89.2917960675006 11.0252409113013 z "
         id="path132" />
    </g>
    <path
       style="fill:#cc0000;fill-rule:nonzero;stroke:none;stroke-opacity:1;stroke-width:1pt;stroke-linejoin:miter;stroke-linecap:butt;fill-opacity:1;"
       d="M 0 30 L 20 20 L 24.4721 20 L 4.47214 30 L 0 30 z M 0 0 L 20 10 L 15.5279 10 L 0 2.23607 L 0 0 z M 35.5279 10 L 55.5279 0 L 60 0 L 40 10 L 35.5279 10 z M 60 30 L 40 20 L 44.4721 20 L 60 27.7639 L 60 30 z "
       id="path150" />
    <g
       id="g132"
       transform="matrix(1,0,0,1,-13.863752962382,13.9484234134409)">
      <path
         style="fill:#ffffff;fill-rule:nonzero;stroke:none;stroke-opacity:1;stroke-width:1pt;stroke-linejoin:miter;stroke-linecap:butt;fill-opacity:1;"
         d="M 90 7.994962518933 L 90.89918693812 10.762375355 L 93.809016994375 10.762375355 L 91.454915028125 12.47273054898 L 92.35410196625 15.240143385291707 L 90 13.52978819155 L 87.645898033750315 15.240143385291707 L 88.5450849718747 12.47273054898 L 86.190983005625 10.762375355 L 89.100813061876 10.762375355 z "
         id="path134" />
      <path
         style="fill:#cc0000;fill-rule:nonzero;stroke:none;stroke-opacity:1;stroke-width:1pt;stroke-linejoin:miter;stroke-linecap:butt;fill-opacity:1;"
         d="M 90 8.8456133272852 L 90.7082039325 11.0252409113013 L 93 11.0252409113013 L 91.1458980338 12.372324841040037 L 91.85410196625 14.551952425056 L 90 13.204868495317 L 88.14589803375 14.551952425056 L 88.85410196625 12.372324841040037 L 87 11.0252409113013 L 89.2917960675006 11.0252409113013 z "
         id="path135" />
    </g>
    <g
       id="g139"
       transform="translate(11.8832168248988,-1.67007721152078532935)">
      <path
         style="fill:#ffffff;fill-rule:nonzero;stroke:none;stroke-opacity:1;stroke-width:1pt;stroke-linejoin:miter;stroke-linecap:butt;fill-opacity:1;"
         d="M 90 20.647737641654353 L 90.752629791866 22.964093961667755215 L 93.1881909602356 22.964093961667755215 L 91.217780584185 24.3956808974917 L 91.970410376050757 26.71203721750507 L 90 25.28045028168116 L 88.029589623949243 26.71203721750507 L 88.78221941581517 24.3956808974917 L 86.8118090397644 22.964093961667755215 L 89.247370208134 22.964093961667755215 z"
         id="path138" />
      <path
         style="fill:#cc0000;fill-rule:nonzero;stroke:none;stroke-opacity:1;stroke-width:1pt;stroke-linejoin:miter;stroke-linecap:butt;fill-opacity:1;"
         d="M 90 21.371344439404332 L 90.59016994375 23.187700759418 L 92.5 23.187700759418 L 90.95491502812526 24.3102707008667 L 91.5450849719 26.1266270208801 L 90 25.0040570794311364 L 88.454915028125263 26.1266270208801 L 89.0450849718747 24.3102707008667 L 87.5 23.187700759418 L 89.409830056250526 23.187700759418 z"
         id="path137" />
    </g>
    <path
       style="fill:#ffffff;fill-rule:evenodd;stroke:none;stroke-opacity:1;stroke-width:1pt;stroke-linejoin:miter;stroke-linecap:butt;fill-opacity:1;"
       d="M 90 43.59627541741609 L 90.9886977693657171 46.639174265434849 L 94.18819096023558677 46.639174265434849 L 91.59974659543493 48.519789177838345 L 92.588444364800652 51.562688025857108 L 90 49.6820731134536 L 87.411555635199 51.562688025857108 L 88.4002534045651 48.519789177838345 L 85.8118090397644132 46.639174265434849 L 89.0113022306343 46.639174265434849 z"
       id="path142" />
    <path
       style="fill:#cc0000;fill-rule:evenodd;stroke:none;stroke-opacity:1;stroke-width:1pt;stroke-linejoin:miter;stroke-linecap:butt;fill-opacity:1;"
       d="M 90 44.31988221516606476 L 90.8262379212493 46.862781063184828 L 93.5 46.862781063184828 L 91.3368810393754 48.434378981213377 L 92.163118960624632 50.9772778292321398 L 90 49.40567991120359 L 87.836881039375 50.9772778292321398 L 88.66311896062463 48.434378981213377 L 86.5 46.86278106318483 L 89.173762078750736 46.862781063184828 z"
       id="path143" />
  </g>
</svg>
