<?xml version="1.0" encoding="UTF-8" standalone="no"?>
<!DOCTYPE svg PUBLIC "-//W3C//DTD SVG 20010904//EN"
"http://www.w3.org/TR/2001/REC-SVG-20010904/DTD/svg10.dtd">
<!-- Created with Sodipodi ("http://www.sodipodi.com/") -->
<svg
   version="1"
   x="0"
   y="0"
   width="210mm"
   height="140mm"
   id="svg378"
   xmlns="http://www.w3.org/2000/svg"
   xmlns:sodipodi="http://sodipodi.sourceforge.net/DTD/sodipodi-0.dtd"
   xmlns:xlink="http://www.w3.org/1999/xlink"
   sodipodi:version="0.33pre"
   sodipodi:docname="/home/tobias/Desktop/Flags/Tunisia.svg"
   sodipodi:docbase="/home/tobias/Desktop/Flags">
  <sodipodi:namedview
     id="base" />
  <defs
     id="defs380" />
  <rect
     width="744.094482"
     height="496.063006"
     x="0.000000"
     y="-0.000249"
     style="font-size:12;fill:#e70013;fill-rule:evenodd;stroke-width:1pt;"
     id="rect171" />
  <path
     sodipodi:type="arc"
     style="fill-rule:evenodd;stroke:none;fill:#ffffff;fill-opacity:1;stroke-opacity:1;stroke-width:1pt;stroke-linejoin:miter;stroke-linecap:butt;"
     id="path554"
     d="M 485.966125 255.055420 A 121.820763 121.820770 0 1 0 242.324585,255.055420 A 121.821 121.821 0 1 0 485.966 255.055 L 364.145355 255.055420 z"
     sodipodi:cx="364.145355"
     sodipodi:cy="255.055420"
     sodipodi:rx="121.820763"
     sodipodi:ry="121.820770"
     transform="matrix(1.027027,0.000000,0.000000,1.027027,-1.281318,-14.13683)" />
  <path
     transform="translate(15.14526,3.292450)"
     style="font-size:12;fill:#e70013;fill-rule:evenodd;stroke-width:1pt;fill-opacity:1;"
     d="M 357.56 327.489 C 311.761 327.489 274.591 290.319 274.591 244.52 C 274.591 198.72 311.761 161.55 357.56 161.55 C 369.01 161.55 382.043 164.184 390.896 170.686 C 330.215 172.97 314.867 224.436 314.867 245.178 C 314.867 265.92 324.68 312.179 390.895 319.011 C 383.36 323.868 369.01 327.489 357.56 327.489 z "
     id="path556"
     sodipodi:nodetypes="ccccccc" />
  <polygon
     sodipodi:type="star"
     style="font-size:12;fill:#e70013;fill-rule:evenodd;stroke-width:1pt;fill-opacity:1;"
     id="polygon559"
     sodipodi:sides="5"
     sodipodi:cx="402.337799"
     sodipodi:cy="248.470505"
     sodipodi:r1="55.3288879"
     sodipodi:r2="21.2985954"
     sodipodi:arg1="0.66730589"
     sodipodi:arg2="1.29562438"
     points="445.798,282.712 408.125,268.968 383.202,300.385 384.632,260.308 347.051,246.314 385.608,235.289 387.304,195.223 409.704,228.486 448.333,217.718 423.62,249.301 445.798,282.712 " />
</svg>
