<?xml version="1.0" encoding="UTF-8" standalone="no"?>
<!DOCTYPE svg PUBLIC "-//W3C//DTD SVG 1.0//EN"
"http://www.w3.org/TR/2001/REC-SVG-20010904/DTD/svg10.dtd">
<!-- Created with Sodipodi ("http://www.sodipodi.com/") -->
<svg
   id="svg548"
   sodipodi:version="0.33pre"
   xmlns="http://www.w3.org/2000/svg"
   xmlns:sodipodi="http://sodipodi.sourceforge.net/DTD/sodipodi-0.dtd"
   xmlns:xlink="http://www.w3.org/1999/xlink"
   width="210mm"
   height="140mm"
   sodipodi:docbase="/home/tobias/Desktop/Flags"
   sodipodi:docname="/home/tobias/Desktop/Flags/Uganda.svg">
  <defs
     id="defs550" />
  <sodipodi:namedview
     id="base" />
  <rect
     style="font-size:12;fill:#ffe700;fill-rule:evenodd;stroke-width:1pt;fill-opacity:1;"
     id="rect585"
     width="744.094482"
     height="82.665352"
     x="0.000000"
     y="330.732285" />
  <rect
     style="font-size:12;fill:#000000;fill-rule:evenodd;stroke-width:1pt;fill-opacity:1;"
     id="rect586"
     width="744.094482"
     height="82.665352"
     x="0.000000"
     y="248.031479" />
  <rect
     style="font-size:12;fill:#de3908;fill-rule:evenodd;stroke-width:1pt;fill-opacity:1;"
     id="rect587"
     width="744.094482"
     height="82.665352"
     x="0.000000"
     y="165.366150" />
  <rect
     style="font-size:12;fill:#ffe700;fill-rule:evenodd;stroke-width:1pt;fill-opacity:1;"
     id="rect588"
     width="744.094482"
     height="82.665352"
     x="0.000000"
     y="82.701042" />
  <rect
     style="font-size:12;fill:#000000;fill-rule:evenodd;stroke-width:1pt;fill-opacity:1;"
     id="rect589"
     width="744.094482"
     height="82.665352"
     x="0.000000"
     y="0.000221" />
  <g
     id="g568"
     transform="matrix(0.671558,0.000000,0.000000,0.671558,106.7819,93.69879)">
    <path
       sodipodi:type="arc"
       style="fill-rule:evenodd;stroke:#000000;fill:#fffdff;fill-opacity:1;stroke-opacity:1;stroke-width:1pt;stroke-linejoin:miter;stroke-linecap:butt;"
       id="path567"
       d="M 505.000000 232.312988 A 115.000000 115.000000 0 1 0 275.000000,232.312988 A 115 115 0 1 0 505 232.313 L 390.000000 232.312988 z"
       sodipodi:cx="390.000000"
       sodipodi:cy="232.312988"
       sodipodi:rx="115.000000"
       sodipodi:ry="115.000000"
       transform="translate(5.000000,-2.500015)" />
    <path
       style="fill:#de3108;fill-rule:evenodd;stroke:black;stroke-opacity:1;stroke-width:1pt;stroke-linejoin:miter;stroke-linecap:butt;fill-opacity:1;"
       d="M 374.711 141.653 L 367.245 127.901 C 370.126 125.02 374.973 122.793 382.7 122.793 C 382.7 123.317 381.914 137.855 381.914 137.855 L 374.711 141.653 z "
       id="path556"
       sodipodi:nodetypes="ccccc" />
    <path
       style="fill:#ffe700;fill-rule:evenodd;stroke:black;stroke-opacity:1;stroke-width:1pt;stroke-linejoin:miter;stroke-linecap:butt;fill-opacity:1;"
       d="M 381.914 137.986 L 382.962 122.793 C 382.962 122.793 398.417 121.877 406.799 131.961 C 406.93 131.83 398.548 143.748 398.548 143.748 L 381.914 137.986 z "
       id="path557"
       sodipodi:nodetypes="ccccc" />
    <path
       style="fill:#de3108;fill-rule:evenodd;stroke:black;stroke-opacity:1;stroke-width:1pt;stroke-linejoin:miter;stroke-linecap:butt;fill-opacity:1;"
       d="M 398.81 143.617 L 406.406 131.83 C 411.514 137.2 413.609 140.998 414.395 146.761 C 414.526 146.892 402.346 149.773 402.346 149.642 C 402.346 149.511 398.941 143.748 398.81 143.617 z "
       id="path558"
       sodipodi:nodetypes="ccccc" />
    <path
       style="fill:#000000;fill-rule:evenodd;stroke:#000000;stroke-opacity:1;stroke-width:1.25;stroke-linejoin:round;stroke-linecap:round;fill-opacity:1;stroke-dasharray:none;"
       d="M 378.509 338.242 C 378.509 338.242 392.785 321.87 420.551 325.407 C 416.36 318.596 402.87 319.382 402.87 319.382 C 402.87 319.382 398.679 287.556 401.953 285.984 C 405.227 284.412 419.11 286.115 419.11 286.115 C 420.943 286.115 424.087 281.138 421.599 277.995 C 419.11 274.851 411.776 262.802 414.788 260.444 C 417.801 258.087 434.172 261.754 434.172 261.754 L 387.939 202.555 C 387.939 202.555 383.224 180.29 392.654 169.55 C 404.049 160.12 402.87 149.904 402.477 150.035 C 400.905 139.688 385.189 132.222 374.58 141.784 C 368.293 149.38 372.484 155.143 372.484 155.143 C 372.484 155.143 355.982 159.596 355.327 162.477 C 354.672 165.359 373.925 161.954 373.925 161.954 L 372.091 175.182 C 372.091 175.182 334.633 209.234 363.316 238.703 C 363.578 238.572 364.233 237.393 364.233 237.393 C 364.233 237.393 374.318 249.836 384.926 252.586 C 394.88 262.802 393.964 261.23 393.964 261.23 C 393.964 261.23 395.928 277.34 394.095 280.483 C 391.606 279.697 366.198 278.781 362.399 280.221 C 358.994 281.269 345.897 280.614 349.171 301.963 C 351.659 296.2 353.886 291.092 353.886 291.092 C 353.886 291.092 353.493 298.819 356.637 301.57 C 356.113 293.449 359.649 287.949 359.649 287.949 C 359.649 287.949 360.304 296.855 362.268 298.164 C 364.233 299.474 364.233 283.757 375.104 285.067 C 385.974 286.377 393.833 285.984 393.833 285.984 C 393.833 285.984 397.5 316.762 396.321 319.644 C 388.462 317.81 369.734 320.43 368.555 325.145 C 379.556 324.49 384.665 325.799 384.665 325.799 C 384.665 325.799 375.759 333.658 378.509 338.242 z "
       id="path565"
       sodipodi:nodetypes="ccccccccccccccccccccccccccccccccc" />
    <path
       style="fill:#9ca69c;fill-rule:evenodd;stroke:#9ca69c;stroke-opacity:1;stroke-width:1.25;stroke-linejoin:round;stroke-linecap:round;fill-opacity:1;stroke-dasharray:none;"
       d="M 382.924 170.301 C 382.924 170.301 355.668 200.343 367.427 223.332 C 368.053 220.126 367.78 218.112 368.173 218.243 C 367.518 217.85 371.553 221.009 371.246 220.394 C 371.332 218.732 370.017 215.17 370.017 215.17 C 371.246 215.477 372.476 215.785 373.705 216.092 C 372.988 214.76 372.27 213.429 371.553 212.097 C 373.295 212.302 375.036 212.506 376.778 212.711 C 376.778 212.711 374.934 207.794 375.549 207.794 C 376.163 207.794 379.851 208.101 379.851 208.101 C 372.1 194.191 379.412 182.639 382.924 170.301 z "
       id="path552"
       sodipodi:nodetypes="ccccccccccc" />
    <path
       style="fill:#9ca69c;fill-rule:evenodd;stroke:#9ca69c;stroke-opacity:1;stroke-width:1pt;stroke-linejoin:miter;stroke-linecap:butt;fill-opacity:1;"
       d="M 392.392 144.534 C 392.392 144.534 393.833 154.881 388.201 157.893 C 387.284 158.548 383.748 159.727 384.272 161.823 C 384.927 164.704 386.498 164.18 388.725 163.656 C 394.618 162.608 401.429 150.035 392.392 144.534 z "
       id="path554"
       sodipodi:nodetypes="ccccc" />
    <path
       sodipodi:type="arc"
       style="fill-rule:evenodd;stroke:none;fill:#ffffff;fill-opacity:1;stroke-opacity:1;stroke-width:1pt;stroke-linejoin:miter;stroke-linecap:butt;"
       id="path555"
       d="M 382.307129 153.440338 A 2.226532 2.226524 0 1 0 377.854065,153.440338 A 2.22653 2.22652 0 1 0 382.307 153.44 L 380.080597 153.440338 z"
       sodipodi:cx="380.080597"
       sodipodi:cy="153.440338"
       sodipodi:rx="2.226532"
       sodipodi:ry="2.226524" />
    <path
       style="fill:#de3108;fill-rule:evenodd;stroke:black;stroke-opacity:1;stroke-width:1pt;stroke-linejoin:miter;stroke-linecap:butt;fill-opacity:1;"
       d="M 373.532 162.084 C 372.091 163.263 364.495 171.122 371.96 174.003 C 379.688 171.907 377.592 170.467 379.295 168.764 C 379.339 165.228 375.453 164.311 373.532 162.084 z "
       id="path559"
       sodipodi:nodetypes="cccc" />
    <path
       style="fill:#9ca69c;fill-rule:evenodd;stroke:#9ca69c;stroke-opacity:1;stroke-width:1.25;stroke-linejoin:round;stroke-linecap:round;fill-opacity:1;stroke-dasharray:none;"
       d="M 390.034 236.346 C 389.641 238.049 387.939 244.335 390.296 249.181 C 396.845 246.431 399.857 247.216 402.084 248.657 C 396.715 244.335 394.619 242.501 390.034 236.346 z "
       id="path560"
       sodipodi:nodetypes="cccc" />
    <path
       style="fill:#ffffff;fill-rule:evenodd;stroke:#ffffff;stroke-opacity:1;stroke-width:1.25;stroke-linejoin:round;stroke-linecap:round;fill-opacity:1;stroke-dasharray:none;"
       d="M 401.298 266.076 L 401.691 280.745 C 401.691 280.745 406.799 281.662 409.156 280.745 C 411.514 279.828 409.025 270.529 401.298 266.076 z "
       id="path561" />
    <path
       style="fill:#9ca69c;fill-rule:evenodd;stroke:black;stroke-opacity:1;stroke-width:1pt;stroke-linejoin:miter;stroke-linecap:butt;fill-opacity:1;"
       d="M 438.363 267.91 C 438.363 267.91 428.933 245.121 404.834 239.358 C 380.735 233.595 383.878 207.925 385.843 206.353 C 386.891 204.126 387.677 200.721 394.618 203.996 C 401.56 207.27 433.517 223.379 438.101 224.165 C 442.685 224.951 438.756 268.434 438.363 267.91 z "
       id="path564"
       sodipodi:nodetypes="cccccc" />
    <path
       style="fill:#de3108;fill-rule:evenodd;stroke:black;stroke-opacity:1;stroke-width:1.25;stroke-linejoin:round;stroke-linecap:butt;fill-opacity:1;stroke-dasharray:none;"
       d="M 415.443 239.227 C 415.05 239.489 447.662 258.479 437.839 274.851 C 447.139 268.695 444.126 257.956 444.126 257.956 C 444.126 257.956 451.722 277.733 433.255 287.425 C 435.22 289.128 436.53 288.734 436.53 288.734 L 433.386 291.878 C 433.386 291.878 431.945 294.235 444.388 288.21 C 440.982 290.961 440.721 292.925 440.721 292.925 C 440.721 292.925 441.637 295.545 449.758 288.472 C 443.209 295.545 441.768 299.212 441.768 299.081 C 459.449 297.509 497.955 240.013 429.588 222.986 C 433.256 226.785 432.731 226.261 432.731 226.261 L 415.443 239.227 z "
       id="path563"
       sodipodi:nodetypes="ccccccccccccc" />
    <path
       style="fill:#ffffff;fill-rule:evenodd;stroke:black;stroke-opacity:1;stroke-width:1.25;stroke-linejoin:round;stroke-linecap:round;fill-opacity:1;stroke-dasharray:none;"
       d="M 416.884 233.595 C 421.337 236.738 422.908 237.786 423.432 239.358 C 419.372 238.442 415.705 238.703 415.705 238.703 C 415.705 238.703 406.93 230.321 405.358 229.666 C 404.179 229.666 397.369 225.344 397.369 225.344 C 393.964 223.641 390.821 211.854 403.394 215.259 C 416.359 221.414 418.193 221.939 418.193 221.939 C 423.345 223.554 428.496 225.17 433.648 226.785 C 436.617 230.103 439.585 233.421 442.554 236.739 C 442.554 236.739 426.707 228.88 424.742 228.749 C 429.064 232.285 431.553 237.131 431.553 237.131 C 426.532 235.69 422.167 234.381 416.884 233.595 z "
       id="path562"
       sodipodi:nodetypes="cccccccccccc" />
    <path
       style="fill:none;fill-rule:evenodd;stroke:#ffffff;stroke-opacity:1;stroke-width:1.25;stroke-linejoin:miter;stroke-linecap:round;fill-opacity:1;stroke-dasharray:none;"
       d="M 355.196 163.263 C 355.196 163.263 370.389 159.596 372.222 160.12 "
       id="path566" />
  </g>
  <rect
     style="font-size:12;fill:#de3908;fill-rule:evenodd;stroke-width:1pt;fill-opacity:1;"
     id="rect584"
     width="744.094482"
     height="82.665352"
     x="0.000000"
     y="413.397385" />
</svg>
