<?xml version="1.0" encoding="UTF-8" standalone="no"?>
<!DOCTYPE svg PUBLIC "-//W3C//DTD SVG 20010904//EN"
"http://www.w3.org/TR/2001/REC-SVG-20010904/DTD/svg10.dtd">
<!-- Created with Sodipodi ("http://www.sodipodi.com/") -->
<!-- /Creative Commons Public Domain -->
<!--
<rdf:RDF xmlns="http://web.resource.org/cc/"
     xmlns:dc="http://purl.org/dc/elements/1.1/"
     xmlns:rdf="http://www.w3.org/1999/02/22-rdf-syntax-ns#">
<Work rdf:about="">
    <dc:title>New Zealand, Australia, United Kingdom, United States, 
Bosnia and Herzegovina, Azerbaijan, Armenia, Bahamas, Belgium, Benin, 
Bulgaria, Estonia, Finland, Gabon, Gambia, Germany, Greece, Greenland, 
Guinea, Honduras, Israel, Jamaica, Jordan, and Romania Flags</dc:title>
    <dc:rights><Agent>
       <dc:title>Daniel McRae</dc:title>
    </Agent></dc:rights>
    <license rdf:resource="http://web.resource.org/cc/PublicDomain" />
</Work>

<License rdf:about="http://web.resource.org/cc/PublicDomain">
    <permits rdf:resource="http://web.resource.org/cc/Reproduction" />
    <permits rdf:resource="http://web.resource.org/cc/Distribution" />
    <permits rdf:resource="http://web.resource.org/cc/DerivativeWorks" />
</License>
</rdf:RDF>
-->
<svg
   id="svg153"
   sodipodi:version="0.29win"
   width="247"
   height="130"
   sodipodi:docname="C:\Documents and Settings\Daniel\My Documents\US_flag.svg"
   xmlns="http://www.w3.org/2000/svg"
   xmlns:sodipodi="http://sodipodi.sourceforge.net/DTD/sodipodi-0.dtd"
   xmlns:xlink="http://www.w3.org/1999/xlink">
  <desc>
    The United States of America flag, produced by Daniel McRae
  </desc>
  <defs
     id="defs155" />
  <sodipodi:namedview
     id="base" />
  <g
     id="g390">
    <g
       id="g169"
       style="font-size:12;fill:#bd3d44;fill-opacity:1;">
      <rect
         style="font-size:12;fill:#bd3d44;fill-rule:evenodd;stroke-width:1pt;fill-opacity:1;"
         id="rect156"
         width="247.000000"
         height="10.000000"
         x="0.000000"
         y="0.000000" />
      <rect
         style="font-size:12;fill:#bd3d44;fill-rule:evenodd;stroke-width:1pt;fill-opacity:1;"
         id="rect158"
         width="247.000000"
         height="10.000000"
         x="0.000000"
         y="20.000000" />
      <rect
         style="font-size:12;fill:#bd3d44;fill-rule:evenodd;stroke-width:1pt;fill-opacity:1;"
         id="rect160"
         width="247"
         height="10"
         x="0"
         y="40" />
      <rect
         style="font-size:12;fill:#bd3d44;fill-rule:evenodd;stroke-width:1pt;fill-opacity:1;"
         id="rect162"
         width="247"
         height="10"
         x="0"
         y="60" />
      <rect
         style="font-size:12;fill:#bd3d44;fill-rule:evenodd;stroke-width:1pt;fill-opacity:1;"
         id="rect164"
         width="247.000000"
         height="10.000000"
         x="0.000000"
         y="80.000000" />
      <rect
         style="font-size:12;fill:#bd3d44;fill-rule:evenodd;stroke-width:1pt;fill-opacity:1;"
         id="rect166"
         width="247"
         height="10"
         x="0"
         y="100" />
      <rect
         style="font-size:12;fill:#bd3d44;fill-rule:evenodd;stroke-width:1pt;fill-opacity:1;"
         id="rect168"
         width="247"
         height="10"
         x="0"
         y="120" />
    </g>
    <g
       id="g177"
       style="font-size:12;fill:#ffffff;">
      <rect
         style="font-size:12;fill:#ffffff;fill-rule:evenodd;stroke-width:1pt;fill-opacity:1;"
         id="rect157"
         width="247"
         height="10"
         x="0"
         y="10" />
      <rect
         style="font-size:12;fill:#ffffff;fill-rule:evenodd;stroke-width:1pt;fill-opacity:1;"
         id="rect159"
         width="247"
         height="10"
         x="0"
         y="30" />
      <rect
         style="font-size:12;fill:#ffffff;fill-rule:evenodd;stroke-width:1pt;fill-opacity:1;"
         id="rect161"
         width="247"
         height="10"
         x="0"
         y="50" />
      <rect
         style="font-size:12;fill:#ffffff;fill-rule:evenodd;stroke-width:1pt;fill-opacity:1;"
         id="rect163"
         width="247"
         height="10"
         x="0"
         y="70" />
      <rect
         style="font-size:12;fill:#ffffff;fill-rule:evenodd;stroke-width:1pt;fill-opacity:1;"
         id="rect165"
         width="247"
         height="10"
         x="0"
         y="90" />
      <rect
         style="font-size:12;fill:#ffffff;fill-rule:evenodd;stroke-width:1pt;fill-opacity:1;"
         id="rect167"
         width="247"
         height="10"
         x="0"
         y="110" />
    </g>
  </g>
  <rect
     style="font-size:12;fill:#192f5d;fill-rule:evenodd;stroke-width:1pt;"
     id="rect200"
     width="98.8"
     height="70"
     x="0"
     y="0" />
  <g
     id="g274">
    <g
       id="g218">
      <g
         id="g194">
        <polygon
           sodipodi:type="star"
           style="font-size:12;fill:#ffffff;fill-opacity:1;fill-rule:evenodd;stroke:none;stroke-width:0.125;stroke-dasharray:none;"
           id="polygon207"
           sodipodi:sides="5"
           points="0,-4.004 0.898954009,-1.2373040455 3.808030291,-1.2373040455 1.454538141067,0.4726080910 2.35349215,3.2393040455 0,1.529391909 -2.35349215,3.2393040455 -1.454538141067,0.472608091 -3.808030291,-1.2373040455 -0.898954009,-1.2373040455 0,-4.004 "
           sodipodi:arg1="-1.570796"
           sodipodi:arg2="-0.942477796"
           sodipodi:r1="4.004000"
           sodipodi:cx="0.000000"
           sodipodi:cy="0.000000"
           sodipodi:r2="1.529391909"
           transform="translate(8.2333333333,7)" />
        <polygon
           sodipodi:type="star"
           style="font-size:12;fill:#ffffff;fill-opacity:1;fill-rule:evenodd;stroke:none;stroke-width:0.125;stroke-dasharray:none;"
           id="polygon188"
           sodipodi:sides="5"
           points="0,-4.004 0.898954009,-1.2373040455 3.808030291,-1.2373040455 1.454538141067,0.4726080910 2.35349215,3.2393040455 0,1.529391909 -2.35349215,3.2393040455 -1.454538141067,0.472608091 -3.808030291,-1.2373040455 -0.898954009,-1.2373040455 0,-4.004 "
           sodipodi:arg1="-1.570796"
           sodipodi:arg2="-0.942477796"
           sodipodi:r1="4.004000"
           sodipodi:cx="0.000000"
           sodipodi:cy="0.000000"
           sodipodi:r2="1.529391909"
           transform="translate(24.7,7)" />
        <polygon
           sodipodi:type="star"
           style="font-size:12;fill:#ffffff;fill-opacity:1;fill-rule:evenodd;stroke:none;stroke-width:0.125;stroke-dasharray:none;"
           id="polygon189"
           sodipodi:sides="5"
           points="0,-4.004 0.898954009,-1.2373040455 3.808030291,-1.2373040455 1.454538141067,0.4726080910 2.35349215,3.2393040455 0,1.529391909 -2.35349215,3.2393040455 -1.454538141067,0.472608091 -3.808030291,-1.2373040455 -0.898954009,-1.2373040455 0,-4.004 "
           sodipodi:arg1="-1.570796"
           sodipodi:arg2="-0.942477796"
           sodipodi:r1="4.004000"
           sodipodi:cx="0.000000"
           sodipodi:cy="0.000000"
           sodipodi:r2="1.529391909"
           transform="translate(41.16666666667,7)" />
        <polygon
           sodipodi:type="star"
           style="font-size:12;fill:#ffffff;fill-opacity:1;fill-rule:evenodd;stroke:none;stroke-width:0.125;stroke-dasharray:none;"
           id="polygon190"
           sodipodi:sides="5"
           points="0,-4.004 0.898954009,-1.2373040455 3.808030291,-1.2373040455 1.454538141067,0.4726080910 2.35349215,3.2393040455 0,1.529391909 -2.35349215,3.2393040455 -1.454538141067,0.472608091 -3.808030291,-1.2373040455 -0.898954009,-1.2373040455 0,-4.004 "
           sodipodi:arg1="-1.570796"
           sodipodi:arg2="-0.942477796"
           sodipodi:r1="4.004000"
           sodipodi:cx="0.000000"
           sodipodi:cy="0.000000"
           sodipodi:r2="1.529391909"
           transform="translate(57.63333333,7)" />
        <polygon
           sodipodi:type="star"
           style="font-size:12;fill:#ffffff;fill-opacity:1;fill-rule:evenodd;stroke:none;stroke-width:0.125;stroke-dasharray:none;"
           id="polygon191"
           sodipodi:sides="5"
           points="0,-4.004 0.898954009,-1.2373040455 3.808030291,-1.2373040455 1.454538141067,0.4726080910 2.35349215,3.2393040455 0,1.529391909 -2.35349215,3.2393040455 -1.454538141067,0.472608091 -3.808030291,-1.2373040455 -0.898954009,-1.2373040455 0,-4.004 "
           sodipodi:arg1="-1.570796"
           sodipodi:arg2="-0.942477796"
           sodipodi:r1="4.004000"
           sodipodi:cx="0.000000"
           sodipodi:cy="0.000000"
           sodipodi:r2="1.529391909"
           transform="translate(74.1,7)" />
        <polygon
           sodipodi:type="star"
           style="font-size:12;fill:#ffffff;fill-opacity:1;fill-rule:evenodd;stroke:none;stroke-width:0.125;stroke-dasharray:none;"
           id="polygon192"
           sodipodi:sides="5"
           points="0,-4.004 0.898954009,-1.2373040455 3.808030291,-1.2373040455 1.454538141067,0.4726080910 2.35349215,3.2393040455 0,1.529391909 -2.35349215,3.2393040455 -1.454538141067,0.472608091 -3.808030291,-1.2373040455 -0.898954009,-1.2373040455 0,-4.004 "
           sodipodi:arg1="-1.570796"
           sodipodi:arg2="-0.942477796"
           sodipodi:r1="4.004000"
           sodipodi:cx="0.000000"
           sodipodi:cy="0.000000"
           sodipodi:r2="1.529391909"
           transform="translate(90.5666666666667,7)" />
      </g>
      <g
         id="g205">
        <polygon
           sodipodi:type="star"
           style="font-size:12;fill:#ffffff;fill-opacity:1;fill-rule:evenodd;stroke:none;stroke-width:0.125;stroke-dasharray:none;"
           id="polygon193"
           sodipodi:sides="5"
           points="0,-4.004 0.898954009,-1.2373040455 3.808030291,-1.2373040455 1.454538141067,0.4726080910 2.35349215,3.2393040455 0,1.529391909 -2.35349215,3.2393040455 -1.454538141067,0.472608091 -3.808030291,-1.2373040455 -0.898954009,-1.2373040455 0,-4.004 "
           sodipodi:arg1="-1.570796"
           sodipodi:arg2="-0.942477796"
           sodipodi:r1="4.004000"
           sodipodi:cx="0.000000"
           sodipodi:cy="0.000000"
           sodipodi:r2="1.529391909"
           transform="translate(16.46666666667,14)" />
        <polygon
           sodipodi:type="star"
           style="font-size:12;fill:#ffffff;fill-opacity:1;fill-rule:evenodd;stroke:none;stroke-width:0.125;stroke-dasharray:none;"
           id="polygon201"
           sodipodi:sides="5"
           points="0,-4.004 0.898954009,-1.2373040455 3.808030291,-1.2373040455 1.454538141067,0.4726080910 2.35349215,3.2393040455 0,1.529391909 -2.35349215,3.2393040455 -1.454538141067,0.472608091 -3.808030291,-1.2373040455 -0.898954009,-1.2373040455 0,-4.004 "
           sodipodi:arg1="-1.570796"
           sodipodi:arg2="-0.942477796"
           sodipodi:r1="4.004000"
           sodipodi:cx="0.000000"
           sodipodi:cy="0.000000"
           sodipodi:r2="1.529391909"
           transform="translate(32.93333333333,14)" />
        <polygon
           sodipodi:type="star"
           style="font-size:12;fill:#ffffff;fill-opacity:1;fill-rule:evenodd;stroke:none;stroke-width:0.125;stroke-dasharray:none;"
           id="polygon202"
           sodipodi:sides="5"
           points="0,-4.004 0.898954009,-1.2373040455 3.808030291,-1.2373040455 1.454538141067,0.4726080910 2.35349215,3.2393040455 0,1.529391909 -2.35349215,3.2393040455 -1.454538141067,0.472608091 -3.808030291,-1.2373040455 -0.898954009,-1.2373040455 0,-4.004 "
           sodipodi:arg1="-1.570796"
           sodipodi:arg2="-0.942477796"
           sodipodi:r1="4.004000"
           sodipodi:cx="0.000000"
           sodipodi:cy="0.000000"
           sodipodi:r2="1.529391909"
           transform="translate(49.4,14)" />
        <polygon
           sodipodi:type="star"
           style="font-size:12;fill:#ffffff;fill-opacity:1;fill-rule:evenodd;stroke:none;stroke-width:0.125;stroke-dasharray:none;"
           id="polygon203"
           sodipodi:sides="5"
           points="0,-4.004 0.898954009,-1.2373040455 3.808030291,-1.2373040455 1.454538141067,0.4726080910 2.35349215,3.2393040455 0,1.529391909 -2.35349215,3.2393040455 -1.454538141067,0.472608091 -3.808030291,-1.2373040455 -0.898954009,-1.2373040455 0,-4.004 "
           sodipodi:arg1="-1.570796"
           sodipodi:arg2="-0.942477796"
           sodipodi:r1="4.004000"
           sodipodi:cx="0.000000"
           sodipodi:cy="0.000000"
           sodipodi:r2="1.529391909"
           transform="translate(65.86666666667,14)" />
        <polygon
           sodipodi:type="star"
           style="font-size:12;fill:#ffffff;fill-opacity:1;fill-rule:evenodd;stroke:none;stroke-width:0.125;stroke-dasharray:none;"
           id="polygon204"
           sodipodi:sides="5"
           points="0,-4.004 0.898954009,-1.2373040455 3.808030291,-1.2373040455 1.454538141067,0.4726080910 2.35349215,3.2393040455 0,1.529391909 -2.35349215,3.2393040455 -1.454538141067,0.472608091 -3.808030291,-1.2373040455 -0.898954009,-1.2373040455 0,-4.004 "
           sodipodi:arg1="-1.570796"
           sodipodi:arg2="-0.942477796"
           sodipodi:r1="4.004000"
           sodipodi:cx="0.000000"
           sodipodi:cy="0.000000"
           sodipodi:r2="1.529391909"
           transform="translate(82.3333333333,14)" />
      </g>
    </g>
    <g
       id="g232"
       transform="translate(0,14)">
      <g
         id="g233">
        <polygon
           sodipodi:type="star"
           style="font-size:12;fill:#ffffff;fill-opacity:1;fill-rule:evenodd;stroke:none;stroke-width:0.125;stroke-dasharray:none;"
           id="polygon234"
           sodipodi:sides="5"
           points="0,-4.004 0.898954009,-1.2373040455 3.808030291,-1.2373040455 1.454538141067,0.4726080910 2.35349215,3.2393040455 0,1.529391909 -2.35349215,3.2393040455 -1.454538141067,0.472608091 -3.808030291,-1.2373040455 -0.898954009,-1.2373040455 0,-4.004 "
           sodipodi:arg1="-1.570796"
           sodipodi:arg2="-0.942477796"
           sodipodi:r1="4.004000"
           sodipodi:cx="0.000000"
           sodipodi:cy="0.000000"
           sodipodi:r2="1.529391909"
           transform="translate(8.2333333333,7)" />
        <polygon
           sodipodi:type="star"
           style="font-size:12;fill:#ffffff;fill-opacity:1;fill-rule:evenodd;stroke:none;stroke-width:0.125;stroke-dasharray:none;"
           id="polygon235"
           sodipodi:sides="5"
           points="0,-4.004 0.898954009,-1.2373040455 3.808030291,-1.2373040455 1.454538141067,0.4726080910 2.35349215,3.2393040455 0,1.529391909 -2.35349215,3.2393040455 -1.454538141067,0.472608091 -3.808030291,-1.2373040455 -0.898954009,-1.2373040455 0,-4.004 "
           sodipodi:arg1="-1.570796"
           sodipodi:arg2="-0.942477796"
           sodipodi:r1="4.004000"
           sodipodi:cx="0.000000"
           sodipodi:cy="0.000000"
           sodipodi:r2="1.529391909"
           transform="translate(24.7,7)" />
        <polygon
           sodipodi:type="star"
           style="font-size:12;fill:#ffffff;fill-opacity:1;fill-rule:evenodd;stroke:none;stroke-width:0.125;stroke-dasharray:none;"
           id="polygon236"
           sodipodi:sides="5"
           points="0,-4.004 0.898954009,-1.2373040455 3.808030291,-1.2373040455 1.454538141067,0.4726080910 2.35349215,3.2393040455 0,1.529391909 -2.35349215,3.2393040455 -1.454538141067,0.472608091 -3.808030291,-1.2373040455 -0.898954009,-1.2373040455 0,-4.004 "
           sodipodi:arg1="-1.570796"
           sodipodi:arg2="-0.942477796"
           sodipodi:r1="4.004000"
           sodipodi:cx="0.000000"
           sodipodi:cy="0.000000"
           sodipodi:r2="1.529391909"
           transform="translate(41.16666666667,7)" />
        <polygon
           sodipodi:type="star"
           style="font-size:12;fill:#ffffff;fill-opacity:1;fill-rule:evenodd;stroke:none;stroke-width:0.125;stroke-dasharray:none;"
           id="polygon237"
           sodipodi:sides="5"
           points="0,-4.004 0.898954009,-1.2373040455 3.808030291,-1.2373040455 1.454538141067,0.4726080910 2.35349215,3.2393040455 0,1.529391909 -2.35349215,3.2393040455 -1.454538141067,0.472608091 -3.808030291,-1.2373040455 -0.898954009,-1.2373040455 0,-4.004 "
           sodipodi:arg1="-1.570796"
           sodipodi:arg2="-0.942477796"
           sodipodi:r1="4.004000"
           sodipodi:cx="0.000000"
           sodipodi:cy="0.000000"
           sodipodi:r2="1.529391909"
           transform="translate(57.63333333,7)" />
        <polygon
           sodipodi:type="star"
           style="font-size:12;fill:#ffffff;fill-opacity:1;fill-rule:evenodd;stroke:none;stroke-width:0.125;stroke-dasharray:none;"
           id="polygon238"
           sodipodi:sides="5"
           points="0,-4.004 0.898954009,-1.2373040455 3.808030291,-1.2373040455 1.454538141067,0.4726080910 2.35349215,3.2393040455 0,1.529391909 -2.35349215,3.2393040455 -1.454538141067,0.472608091 -3.808030291,-1.2373040455 -0.898954009,-1.2373040455 0,-4.004 "
           sodipodi:arg1="-1.570796"
           sodipodi:arg2="-0.942477796"
           sodipodi:r1="4.004000"
           sodipodi:cx="0.000000"
           sodipodi:cy="0.000000"
           sodipodi:r2="1.529391909"
           transform="translate(74.1,7)" />
        <polygon
           sodipodi:type="star"
           style="font-size:12;fill:#ffffff;fill-opacity:1;fill-rule:evenodd;stroke:none;stroke-width:0.125;stroke-dasharray:none;"
           id="polygon239"
           sodipodi:sides="5"
           points="0,-4.004 0.898954009,-1.2373040455 3.808030291,-1.2373040455 1.454538141067,0.4726080910 2.35349215,3.2393040455 0,1.529391909 -2.35349215,3.2393040455 -1.454538141067,0.472608091 -3.808030291,-1.2373040455 -0.898954009,-1.2373040455 0,-4.004 "
           sodipodi:arg1="-1.570796"
           sodipodi:arg2="-0.942477796"
           sodipodi:r1="4.004000"
           sodipodi:cx="0.000000"
           sodipodi:cy="0.000000"
           sodipodi:r2="1.529391909"
           transform="translate(90.5666666666667,7)" />
      </g>
      <g
         id="g240">
        <polygon
           sodipodi:type="star"
           style="font-size:12;fill:#ffffff;fill-opacity:1;fill-rule:evenodd;stroke:none;stroke-width:0.125;stroke-dasharray:none;"
           id="polygon241"
           sodipodi:sides="5"
           points="0,-4.004 0.898954009,-1.2373040455 3.808030291,-1.2373040455 1.454538141067,0.4726080910 2.35349215,3.2393040455 0,1.529391909 -2.35349215,3.2393040455 -1.454538141067,0.472608091 -3.808030291,-1.2373040455 -0.898954009,-1.2373040455 0,-4.004 "
           sodipodi:arg1="-1.570796"
           sodipodi:arg2="-0.942477796"
           sodipodi:r1="4.004000"
           sodipodi:cx="0.000000"
           sodipodi:cy="0.000000"
           sodipodi:r2="1.529391909"
           transform="translate(16.46666666667,14)" />
        <polygon
           sodipodi:type="star"
           style="font-size:12;fill:#ffffff;fill-opacity:1;fill-rule:evenodd;stroke:none;stroke-width:0.125;stroke-dasharray:none;"
           id="polygon242"
           sodipodi:sides="5"
           points="0,-4.004 0.898954009,-1.2373040455 3.808030291,-1.2373040455 1.454538141067,0.4726080910 2.35349215,3.2393040455 0,1.529391909 -2.35349215,3.2393040455 -1.454538141067,0.472608091 -3.808030291,-1.2373040455 -0.898954009,-1.2373040455 0,-4.004 "
           sodipodi:arg1="-1.570796"
           sodipodi:arg2="-0.942477796"
           sodipodi:r1="4.004000"
           sodipodi:cx="0.000000"
           sodipodi:cy="0.000000"
           sodipodi:r2="1.529391909"
           transform="translate(32.93333333333,14)" />
        <polygon
           sodipodi:type="star"
           style="font-size:12;fill:#ffffff;fill-opacity:1;fill-rule:evenodd;stroke:none;stroke-width:0.125;stroke-dasharray:none;"
           id="polygon243"
           sodipodi:sides="5"
           points="0,-4.004 0.898954009,-1.2373040455 3.808030291,-1.2373040455 1.454538141067,0.4726080910 2.35349215,3.2393040455 0,1.529391909 -2.35349215,3.2393040455 -1.454538141067,0.472608091 -3.808030291,-1.2373040455 -0.898954009,-1.2373040455 0,-4.004 "
           sodipodi:arg1="-1.570796"
           sodipodi:arg2="-0.942477796"
           sodipodi:r1="4.004000"
           sodipodi:cx="0.000000"
           sodipodi:cy="0.000000"
           sodipodi:r2="1.529391909"
           transform="translate(49.4,14)" />
        <polygon
           sodipodi:type="star"
           style="font-size:12;fill:#ffffff;fill-opacity:1;fill-rule:evenodd;stroke:none;stroke-width:0.125;stroke-dasharray:none;"
           id="polygon244"
           sodipodi:sides="5"
           points="0,-4.004 0.898954009,-1.2373040455 3.808030291,-1.2373040455 1.454538141067,0.4726080910 2.35349215,3.2393040455 0,1.529391909 -2.35349215,3.2393040455 -1.454538141067,0.472608091 -3.808030291,-1.2373040455 -0.898954009,-1.2373040455 0,-4.004 "
           sodipodi:arg1="-1.570796"
           sodipodi:arg2="-0.942477796"
           sodipodi:r1="4.004000"
           sodipodi:cx="0.000000"
           sodipodi:cy="0.000000"
           sodipodi:r2="1.529391909"
           transform="translate(65.86666666667,14)" />
        <polygon
           sodipodi:type="star"
           style="font-size:12;fill:#ffffff;fill-opacity:1;fill-rule:evenodd;stroke:none;stroke-width:0.125;stroke-dasharray:none;"
           id="polygon245"
           sodipodi:sides="5"
           points="0,-4.004 0.898954009,-1.2373040455 3.808030291,-1.2373040455 1.454538141067,0.4726080910 2.35349215,3.2393040455 0,1.529391909 -2.35349215,3.2393040455 -1.454538141067,0.472608091 -3.808030291,-1.2373040455 -0.898954009,-1.2373040455 0,-4.004 "
           sodipodi:arg1="-1.570796"
           sodipodi:arg2="-0.942477796"
           sodipodi:r1="4.004000"
           sodipodi:cx="0.000000"
           sodipodi:cy="0.000000"
           sodipodi:r2="1.529391909"
           transform="translate(82.3333333333,14)" />
      </g>
    </g>
    <g
       id="g246"
       transform="translate(0,28)">
      <g
         id="g247">
        <polygon
           sodipodi:type="star"
           style="font-size:12;fill:#ffffff;fill-opacity:1;fill-rule:evenodd;stroke:none;stroke-width:0.125;stroke-dasharray:none;"
           id="polygon248"
           sodipodi:sides="5"
           points="0,-4.004 0.898954009,-1.2373040455 3.808030291,-1.2373040455 1.454538141067,0.4726080910 2.35349215,3.2393040455 0,1.529391909 -2.35349215,3.2393040455 -1.454538141067,0.472608091 -3.808030291,-1.2373040455 -0.898954009,-1.2373040455 0,-4.004 "
           sodipodi:arg1="-1.570796"
           sodipodi:arg2="-0.942477796"
           sodipodi:r1="4.004000"
           sodipodi:cx="0.000000"
           sodipodi:cy="0.000000"
           sodipodi:r2="1.529391909"
           transform="translate(8.2333333333,7)" />
        <polygon
           sodipodi:type="star"
           style="font-size:12;fill:#ffffff;fill-opacity:1;fill-rule:evenodd;stroke:none;stroke-width:0.125;stroke-dasharray:none;"
           id="polygon249"
           sodipodi:sides="5"
           points="0,-4.004 0.898954009,-1.2373040455 3.808030291,-1.2373040455 1.454538141067,0.4726080910 2.35349215,3.2393040455 0,1.529391909 -2.35349215,3.2393040455 -1.454538141067,0.472608091 -3.808030291,-1.2373040455 -0.898954009,-1.2373040455 0,-4.004 "
           sodipodi:arg1="-1.570796"
           sodipodi:arg2="-0.942477796"
           sodipodi:r1="4.004000"
           sodipodi:cx="0.000000"
           sodipodi:cy="0.000000"
           sodipodi:r2="1.529391909"
           transform="translate(24.7,7)" />
        <polygon
           sodipodi:type="star"
           style="font-size:12;fill:#ffffff;fill-opacity:1;fill-rule:evenodd;stroke:none;stroke-width:0.125;stroke-dasharray:none;"
           id="polygon250"
           sodipodi:sides="5"
           points="0,-4.004 0.898954009,-1.2373040455 3.808030291,-1.2373040455 1.454538141067,0.4726080910 2.35349215,3.2393040455 0,1.529391909 -2.35349215,3.2393040455 -1.454538141067,0.472608091 -3.808030291,-1.2373040455 -0.898954009,-1.2373040455 0,-4.004 "
           sodipodi:arg1="-1.570796"
           sodipodi:arg2="-0.942477796"
           sodipodi:r1="4.004000"
           sodipodi:cx="0.000000"
           sodipodi:cy="0.000000"
           sodipodi:r2="1.529391909"
           transform="translate(41.16666666667,7)" />
        <polygon
           sodipodi:type="star"
           style="font-size:12;fill:#ffffff;fill-opacity:1;fill-rule:evenodd;stroke:none;stroke-width:0.125;stroke-dasharray:none;"
           id="polygon251"
           sodipodi:sides="5"
           points="0,-4.004 0.898954009,-1.2373040455 3.808030291,-1.2373040455 1.454538141067,0.4726080910 2.35349215,3.2393040455 0,1.529391909 -2.35349215,3.2393040455 -1.454538141067,0.472608091 -3.808030291,-1.2373040455 -0.898954009,-1.2373040455 0,-4.004 "
           sodipodi:arg1="-1.570796"
           sodipodi:arg2="-0.942477796"
           sodipodi:r1="4.004000"
           sodipodi:cx="0.000000"
           sodipodi:cy="0.000000"
           sodipodi:r2="1.529391909"
           transform="translate(57.63333333,7)" />
        <polygon
           sodipodi:type="star"
           style="font-size:12;fill:#ffffff;fill-opacity:1;fill-rule:evenodd;stroke:none;stroke-width:0.125;stroke-dasharray:none;"
           id="polygon252"
           sodipodi:sides="5"
           points="0,-4.004 0.898954009,-1.2373040455 3.808030291,-1.2373040455 1.454538141067,0.4726080910 2.35349215,3.2393040455 0,1.529391909 -2.35349215,3.2393040455 -1.454538141067,0.472608091 -3.808030291,-1.2373040455 -0.898954009,-1.2373040455 0,-4.004 "
           sodipodi:arg1="-1.570796"
           sodipodi:arg2="-0.942477796"
           sodipodi:r1="4.004000"
           sodipodi:cx="0.000000"
           sodipodi:cy="0.000000"
           sodipodi:r2="1.529391909"
           transform="translate(74.1,7)" />
        <polygon
           sodipodi:type="star"
           style="font-size:12;fill:#ffffff;fill-opacity:1;fill-rule:evenodd;stroke:none;stroke-width:0.125;stroke-dasharray:none;"
           id="polygon253"
           sodipodi:sides="5"
           points="0,-4.004 0.898954009,-1.2373040455 3.808030291,-1.2373040455 1.454538141067,0.4726080910 2.35349215,3.2393040455 0,1.529391909 -2.35349215,3.2393040455 -1.454538141067,0.472608091 -3.808030291,-1.2373040455 -0.898954009,-1.2373040455 0,-4.004 "
           sodipodi:arg1="-1.570796"
           sodipodi:arg2="-0.942477796"
           sodipodi:r1="4.004000"
           sodipodi:cx="0.000000"
           sodipodi:cy="0.000000"
           sodipodi:r2="1.529391909"
           transform="translate(90.5666666666667,7)" />
      </g>
      <g
         id="g254">
        <polygon
           sodipodi:type="star"
           style="font-size:12;fill:#ffffff;fill-opacity:1;fill-rule:evenodd;stroke:none;stroke-width:0.125;stroke-dasharray:none;"
           id="polygon255"
           sodipodi:sides="5"
           points="0,-4.004 0.898954009,-1.2373040455 3.808030291,-1.2373040455 1.454538141067,0.4726080910 2.35349215,3.2393040455 0,1.529391909 -2.35349215,3.2393040455 -1.454538141067,0.472608091 -3.808030291,-1.2373040455 -0.898954009,-1.2373040455 0,-4.004 "
           sodipodi:arg1="-1.570796"
           sodipodi:arg2="-0.942477796"
           sodipodi:r1="4.004000"
           sodipodi:cx="0.000000"
           sodipodi:cy="0.000000"
           sodipodi:r2="1.529391909"
           transform="translate(16.46666666667,14)" />
        <polygon
           sodipodi:type="star"
           style="font-size:12;fill:#ffffff;fill-opacity:1;fill-rule:evenodd;stroke:none;stroke-width:0.125;stroke-dasharray:none;"
           id="polygon256"
           sodipodi:sides="5"
           points="0,-4.004 0.898954009,-1.2373040455 3.808030291,-1.2373040455 1.454538141067,0.4726080910 2.35349215,3.2393040455 0,1.529391909 -2.35349215,3.2393040455 -1.454538141067,0.472608091 -3.808030291,-1.2373040455 -0.898954009,-1.2373040455 0,-4.004 "
           sodipodi:arg1="-1.570796"
           sodipodi:arg2="-0.942477796"
           sodipodi:r1="4.004000"
           sodipodi:cx="0.000000"
           sodipodi:cy="0.000000"
           sodipodi:r2="1.529391909"
           transform="translate(32.93333333333,14)" />
        <polygon
           sodipodi:type="star"
           style="font-size:12;fill:#ffffff;fill-opacity:1;fill-rule:evenodd;stroke:none;stroke-width:0.125;stroke-dasharray:none;"
           id="polygon257"
           sodipodi:sides="5"
           points="0,-4.004 0.898954009,-1.2373040455 3.808030291,-1.2373040455 1.454538141067,0.4726080910 2.35349215,3.2393040455 0,1.529391909 -2.35349215,3.2393040455 -1.454538141067,0.472608091 -3.808030291,-1.2373040455 -0.898954009,-1.2373040455 0,-4.004 "
           sodipodi:arg1="-1.570796"
           sodipodi:arg2="-0.942477796"
           sodipodi:r1="4.004000"
           sodipodi:cx="0.000000"
           sodipodi:cy="0.000000"
           sodipodi:r2="1.529391909"
           transform="translate(49.4,14)" />
        <polygon
           sodipodi:type="star"
           style="font-size:12;fill:#ffffff;fill-opacity:1;fill-rule:evenodd;stroke:none;stroke-width:0.125;stroke-dasharray:none;"
           id="polygon258"
           sodipodi:sides="5"
           points="0,-4.004 0.898954009,-1.2373040455 3.808030291,-1.2373040455 1.454538141067,0.4726080910 2.35349215,3.2393040455 0,1.529391909 -2.35349215,3.2393040455 -1.454538141067,0.472608091 -3.808030291,-1.2373040455 -0.898954009,-1.2373040455 0,-4.004 "
           sodipodi:arg1="-1.570796"
           sodipodi:arg2="-0.942477796"
           sodipodi:r1="4.004000"
           sodipodi:cx="0.000000"
           sodipodi:cy="0.000000"
           sodipodi:r2="1.529391909"
           transform="translate(65.86666666667,14)" />
        <polygon
           sodipodi:type="star"
           style="font-size:12;fill:#ffffff;fill-opacity:1;fill-rule:evenodd;stroke:none;stroke-width:0.125;stroke-dasharray:none;"
           id="polygon259"
           sodipodi:sides="5"
           points="0,-4.004 0.898954009,-1.2373040455 3.808030291,-1.2373040455 1.454538141067,0.4726080910 2.35349215,3.2393040455 0,1.529391909 -2.35349215,3.2393040455 -1.454538141067,0.472608091 -3.808030291,-1.2373040455 -0.898954009,-1.2373040455 0,-4.004 "
           sodipodi:arg1="-1.570796"
           sodipodi:arg2="-0.942477796"
           sodipodi:r1="4.004000"
           sodipodi:cx="0.000000"
           sodipodi:cy="0.000000"
           sodipodi:r2="1.529391909"
           transform="translate(82.3333333333,14)" />
      </g>
    </g>
    <g
       id="g260"
       transform="translate(0,42)">
      <g
         id="g261">
        <polygon
           sodipodi:type="star"
           style="font-size:12;fill:#ffffff;fill-opacity:1;fill-rule:evenodd;stroke:none;stroke-width:0.125;stroke-dasharray:none;"
           id="polygon262"
           sodipodi:sides="5"
           points="0,-4.004 0.898954009,-1.2373040455 3.808030291,-1.2373040455 1.454538141067,0.4726080910 2.35349215,3.2393040455 0,1.529391909 -2.35349215,3.2393040455 -1.454538141067,0.472608091 -3.808030291,-1.2373040455 -0.898954009,-1.2373040455 0,-4.004 "
           sodipodi:arg1="-1.570796"
           sodipodi:arg2="-0.942477796"
           sodipodi:r1="4.004000"
           sodipodi:cx="0.000000"
           sodipodi:cy="0.000000"
           sodipodi:r2="1.529391909"
           transform="translate(8.2333333333,7)" />
        <polygon
           sodipodi:type="star"
           style="font-size:12;fill:#ffffff;fill-opacity:1;fill-rule:evenodd;stroke:none;stroke-width:0.125;stroke-dasharray:none;"
           id="polygon263"
           sodipodi:sides="5"
           points="0,-4.004 0.898954009,-1.2373040455 3.808030291,-1.2373040455 1.454538141067,0.4726080910 2.35349215,3.2393040455 0,1.529391909 -2.35349215,3.2393040455 -1.454538141067,0.472608091 -3.808030291,-1.2373040455 -0.898954009,-1.2373040455 0,-4.004 "
           sodipodi:arg1="-1.570796"
           sodipodi:arg2="-0.942477796"
           sodipodi:r1="4.004000"
           sodipodi:cx="0.000000"
           sodipodi:cy="0.000000"
           sodipodi:r2="1.529391909"
           transform="translate(24.7,7)" />
        <polygon
           sodipodi:type="star"
           style="font-size:12;fill:#ffffff;fill-opacity:1;fill-rule:evenodd;stroke:none;stroke-width:0.125;stroke-dasharray:none;"
           id="polygon264"
           sodipodi:sides="5"
           points="0,-4.004 0.898954009,-1.2373040455 3.808030291,-1.2373040455 1.454538141067,0.4726080910 2.35349215,3.2393040455 0,1.529391909 -2.35349215,3.2393040455 -1.454538141067,0.472608091 -3.808030291,-1.2373040455 -0.898954009,-1.2373040455 0,-4.004 "
           sodipodi:arg1="-1.570796"
           sodipodi:arg2="-0.942477796"
           sodipodi:r1="4.004000"
           sodipodi:cx="0.000000"
           sodipodi:cy="0.000000"
           sodipodi:r2="1.529391909"
           transform="translate(41.16666666667,7)" />
        <polygon
           sodipodi:type="star"
           style="font-size:12;fill:#ffffff;fill-opacity:1;fill-rule:evenodd;stroke:none;stroke-width:0.125;stroke-dasharray:none;"
           id="polygon265"
           sodipodi:sides="5"
           points="0,-4.004 0.898954009,-1.2373040455 3.808030291,-1.2373040455 1.454538141067,0.4726080910 2.35349215,3.2393040455 0,1.529391909 -2.35349215,3.2393040455 -1.454538141067,0.472608091 -3.808030291,-1.2373040455 -0.898954009,-1.2373040455 0,-4.004 "
           sodipodi:arg1="-1.570796"
           sodipodi:arg2="-0.942477796"
           sodipodi:r1="4.004000"
           sodipodi:cx="0.000000"
           sodipodi:cy="0.000000"
           sodipodi:r2="1.529391909"
           transform="translate(57.63333333,7)" />
        <polygon
           sodipodi:type="star"
           style="font-size:12;fill:#ffffff;fill-opacity:1;fill-rule:evenodd;stroke:none;stroke-width:0.125;stroke-dasharray:none;"
           id="polygon266"
           sodipodi:sides="5"
           points="0,-4.004 0.898954009,-1.2373040455 3.808030291,-1.2373040455 1.454538141067,0.4726080910 2.35349215,3.2393040455 0,1.529391909 -2.35349215,3.2393040455 -1.454538141067,0.472608091 -3.808030291,-1.2373040455 -0.898954009,-1.2373040455 0,-4.004 "
           sodipodi:arg1="-1.570796"
           sodipodi:arg2="-0.942477796"
           sodipodi:r1="4.004000"
           sodipodi:cx="0.000000"
           sodipodi:cy="0.000000"
           sodipodi:r2="1.529391909"
           transform="translate(74.1,7)" />
        <polygon
           sodipodi:type="star"
           style="font-size:12;fill:#ffffff;fill-opacity:1;fill-rule:evenodd;stroke:none;stroke-width:0.125;stroke-dasharray:none;"
           id="polygon267"
           sodipodi:sides="5"
           points="0,-4.004 0.898954009,-1.2373040455 3.808030291,-1.2373040455 1.454538141067,0.4726080910 2.35349215,3.2393040455 0,1.529391909 -2.35349215,3.2393040455 -1.454538141067,0.472608091 -3.808030291,-1.2373040455 -0.898954009,-1.2373040455 0,-4.004 "
           sodipodi:arg1="-1.570796"
           sodipodi:arg2="-0.942477796"
           sodipodi:r1="4.004000"
           sodipodi:cx="0.000000"
           sodipodi:cy="0.000000"
           sodipodi:r2="1.529391909"
           transform="translate(90.5666666666667,7)" />
      </g>
      <g
         id="g268">
        <polygon
           sodipodi:type="star"
           style="font-size:12;fill:#ffffff;fill-opacity:1;fill-rule:evenodd;stroke:none;stroke-width:0.125;stroke-dasharray:none;"
           id="polygon269"
           sodipodi:sides="5"
           points="0,-4.004 0.898954009,-1.2373040455 3.808030291,-1.2373040455 1.454538141067,0.4726080910 2.35349215,3.2393040455 0,1.529391909 -2.35349215,3.2393040455 -1.454538141067,0.472608091 -3.808030291,-1.2373040455 -0.898954009,-1.2373040455 0,-4.004 "
           sodipodi:arg1="-1.570796"
           sodipodi:arg2="-0.942477796"
           sodipodi:r1="4.004000"
           sodipodi:cx="0.000000"
           sodipodi:cy="0.000000"
           sodipodi:r2="1.529391909"
           transform="translate(16.46666666667,14)" />
        <polygon
           sodipodi:type="star"
           style="font-size:12;fill:#ffffff;fill-opacity:1;fill-rule:evenodd;stroke:none;stroke-width:0.125;stroke-dasharray:none;"
           id="polygon270"
           sodipodi:sides="5"
           points="0,-4.004 0.898954009,-1.2373040455 3.808030291,-1.2373040455 1.454538141067,0.4726080910 2.35349215,3.2393040455 0,1.529391909 -2.35349215,3.2393040455 -1.454538141067,0.472608091 -3.808030291,-1.2373040455 -0.898954009,-1.2373040455 0,-4.004 "
           sodipodi:arg1="-1.570796"
           sodipodi:arg2="-0.942477796"
           sodipodi:r1="4.004000"
           sodipodi:cx="0.000000"
           sodipodi:cy="0.000000"
           sodipodi:r2="1.529391909"
           transform="translate(32.93333333333,14)" />
        <polygon
           sodipodi:type="star"
           style="font-size:12;fill:#ffffff;fill-opacity:1;fill-rule:evenodd;stroke:none;stroke-width:0.125;stroke-dasharray:none;"
           id="polygon271"
           sodipodi:sides="5"
           points="0,-4.004 0.898954009,-1.2373040455 3.808030291,-1.2373040455 1.454538141067,0.4726080910 2.35349215,3.2393040455 0,1.529391909 -2.35349215,3.2393040455 -1.454538141067,0.472608091 -3.808030291,-1.2373040455 -0.898954009,-1.2373040455 0,-4.004 "
           sodipodi:arg1="-1.570796"
           sodipodi:arg2="-0.942477796"
           sodipodi:r1="4.004000"
           sodipodi:cx="0.000000"
           sodipodi:cy="0.000000"
           sodipodi:r2="1.529391909"
           transform="translate(49.4,14)" />
        <polygon
           sodipodi:type="star"
           style="font-size:12;fill:#ffffff;fill-opacity:1;fill-rule:evenodd;stroke:none;stroke-width:0.125;stroke-dasharray:none;"
           id="polygon272"
           sodipodi:sides="5"
           points="0,-4.004 0.898954009,-1.2373040455 3.808030291,-1.2373040455 1.454538141067,0.4726080910 2.35349215,3.2393040455 0,1.529391909 -2.35349215,3.2393040455 -1.454538141067,0.472608091 -3.808030291,-1.2373040455 -0.898954009,-1.2373040455 0,-4.004 "
           sodipodi:arg1="-1.570796"
           sodipodi:arg2="-0.942477796"
           sodipodi:r1="4.004000"
           sodipodi:cx="0.000000"
           sodipodi:cy="0.000000"
           sodipodi:r2="1.529391909"
           transform="translate(65.86666666667,14)" />
        <polygon
           sodipodi:type="star"
           style="font-size:12;fill:#ffffff;fill-opacity:1;fill-rule:evenodd;stroke:none;stroke-width:0.125;stroke-dasharray:none;"
           id="polygon273"
           sodipodi:sides="5"
           points="0,-4.004 0.898954009,-1.2373040455 3.808030291,-1.2373040455 1.454538141067,0.4726080910 2.35349215,3.2393040455 0,1.529391909 -2.35349215,3.2393040455 -1.454538141067,0.472608091 -3.808030291,-1.2373040455 -0.898954009,-1.2373040455 0,-4.004 "
           sodipodi:arg1="-1.570796"
           sodipodi:arg2="-0.942477796"
           sodipodi:r1="4.004000"
           sodipodi:cx="0.000000"
           sodipodi:cy="0.000000"
           sodipodi:r2="1.529391909"
           transform="translate(82.3333333333,14)" />
      </g>
    </g>
    <g
       id="g211"
       transform="translate(0,56)">
      <polygon
         sodipodi:type="star"
         style="font-size:12;fill:#ffffff;fill-opacity:1;fill-rule:evenodd;stroke:none;stroke-width:0.125;stroke-dasharray:none;"
         id="polygon212"
         sodipodi:sides="5"
         points="0,-4.004 0.898954009,-1.2373040455 3.808030291,-1.2373040455 1.454538141067,0.4726080910 2.35349215,3.2393040455 0,1.529391909 -2.35349215,3.2393040455 -1.454538141067,0.472608091 -3.808030291,-1.2373040455 -0.898954009,-1.2373040455 0,-4.004 "
         sodipodi:arg1="-1.570796"
         sodipodi:arg2="-0.942477796"
         sodipodi:r1="4.004000"
         sodipodi:cx="0.000000"
         sodipodi:cy="0.000000"
         sodipodi:r2="1.529391909"
         transform="translate(8.2333333333,7)" />
      <polygon
         sodipodi:type="star"
         style="font-size:12;fill:#ffffff;fill-opacity:1;fill-rule:evenodd;stroke:none;stroke-width:0.125;stroke-dasharray:none;"
         id="polygon213"
         sodipodi:sides="5"
         points="0,-4.004 0.898954009,-1.2373040455 3.808030291,-1.2373040455 1.454538141067,0.4726080910 2.35349215,3.2393040455 0,1.529391909 -2.35349215,3.2393040455 -1.454538141067,0.472608091 -3.808030291,-1.2373040455 -0.898954009,-1.2373040455 0,-4.004 "
         sodipodi:arg1="-1.570796"
         sodipodi:arg2="-0.942477796"
         sodipodi:r1="4.004000"
         sodipodi:cx="0.000000"
         sodipodi:cy="0.000000"
         sodipodi:r2="1.529391909"
         transform="translate(24.7,7)" />
      <polygon
         sodipodi:type="star"
         style="font-size:12;fill:#ffffff;fill-opacity:1;fill-rule:evenodd;stroke:none;stroke-width:0.125;stroke-dasharray:none;"
         id="polygon214"
         sodipodi:sides="5"
         points="0,-4.004 0.898954009,-1.2373040455 3.808030291,-1.2373040455 1.454538141067,0.4726080910 2.35349215,3.2393040455 0,1.529391909 -2.35349215,3.2393040455 -1.454538141067,0.472608091 -3.808030291,-1.2373040455 -0.898954009,-1.2373040455 0,-4.004 "
         sodipodi:arg1="-1.570796"
         sodipodi:arg2="-0.942477796"
         sodipodi:r1="4.004000"
         sodipodi:cx="0.000000"
         sodipodi:cy="0.000000"
         sodipodi:r2="1.529391909"
         transform="translate(41.16666666667,7)" />
      <polygon
         sodipodi:type="star"
         style="font-size:12;fill:#ffffff;fill-opacity:1;fill-rule:evenodd;stroke:none;stroke-width:0.125;stroke-dasharray:none;"
         id="polygon215"
         sodipodi:sides="5"
         points="0,-4.004 0.898954009,-1.2373040455 3.808030291,-1.2373040455 1.454538141067,0.4726080910 2.35349215,3.2393040455 0,1.529391909 -2.35349215,3.2393040455 -1.454538141067,0.472608091 -3.808030291,-1.2373040455 -0.898954009,-1.2373040455 0,-4.004 "
         sodipodi:arg1="-1.570796"
         sodipodi:arg2="-0.942477796"
         sodipodi:r1="4.004000"
         sodipodi:cx="0.000000"
         sodipodi:cy="0.000000"
         sodipodi:r2="1.529391909"
         transform="translate(57.63333333,7)" />
      <polygon
         sodipodi:type="star"
         style="font-size:12;fill:#ffffff;fill-opacity:1;fill-rule:evenodd;stroke:none;stroke-width:0.125;stroke-dasharray:none;"
         id="polygon216"
         sodipodi:sides="5"
         points="0,-4.004 0.898954009,-1.2373040455 3.808030291,-1.2373040455 1.454538141067,0.4726080910 2.35349215,3.2393040455 0,1.529391909 -2.35349215,3.2393040455 -1.454538141067,0.472608091 -3.808030291,-1.2373040455 -0.898954009,-1.2373040455 0,-4.004 "
         sodipodi:arg1="-1.570796"
         sodipodi:arg2="-0.942477796"
         sodipodi:r1="4.004000"
         sodipodi:cx="0.000000"
         sodipodi:cy="0.000000"
         sodipodi:r2="1.529391909"
         transform="translate(74.1,7)" />
      <polygon
         sodipodi:type="star"
         style="font-size:12;fill:#ffffff;fill-opacity:1;fill-rule:evenodd;stroke:none;stroke-width:0.125;stroke-dasharray:none;"
         id="polygon217"
         sodipodi:sides="5"
         points="0,-4.004 0.898954009,-1.2373040455 3.808030291,-1.2373040455 1.454538141067,0.4726080910 2.35349215,3.2393040455 0,1.529391909 -2.35349215,3.2393040455 -1.454538141067,0.472608091 -3.808030291,-1.2373040455 -0.898954009,-1.2373040455 0,-4.004 "
         sodipodi:arg1="-1.570796"
         sodipodi:arg2="-0.942477796"
         sodipodi:r1="4.004000"
         sodipodi:cx="0.000000"
         sodipodi:cy="0.000000"
         sodipodi:r2="1.529391909"
         transform="translate(90.5666666666667,7)" />
    </g>
  </g>
</svg>
