<?xml version="1.0" encoding="UTF-8" standalone="no"?>
<!DOCTYPE svg PUBLIC "-//W3C//DTD SVG 20010904//EN"
"http://www.w3.org/TR/2001/REC-SVG-20010904/DTD/svg10.dtd"
[
 <!ATTLIST svg
  xmlns:xlink CDATA #FIXED "http://www.w3.org/1999/xlink">
]>
<!-- Created with Sodipodi ("http://www.sodipodi.com/") -->
<svg
   id="svg548"
   sodipodi:version="0.32"
   xmlns="http://www.w3.org/2000/svg"
   xmlns:sodipodi="http://sodipodi.sourceforge.net/DTD/sodipodi-0.dtd"
   xmlns:xlink="http://www.w3.org/1999/xlink"
   width="210mm"
   height="140mm"
   sodipodi:docbase="/home/scarlet"
   sodipodi:docname="/home/scarlet/Vanuatu.svg">
  <defs
     id="defs550" />
  <sodipodi:namedview
     id="base"
     snaptogrid="false"
     showgrid="false"
     gridtolerance="17mm"
     gridspacingx="1mm"
     gridspacingy="1mm">
    <sodipodi:guide
       orientation="horizontal"
       position="924.000671"
       id="guide575" />
  </sodipodi:namedview>
  <g
     id="g579">
    <path
       style="fill:#000000;fill-rule:evenodd;stroke:none;stroke-opacity:1;stroke-width:1.25;stroke-linejoin:miter;stroke-linecap:butt;fill-opacity:1;stroke-dasharray:none;"
       d="M 0 2.55629e-14 L 336.614 212.598 L 744.094 212.598 L 744.094 283.465 L 336.614 283.465 L 0 496.063 L 0 2.55629e-14 z "
       id="path553"
       sodipodi:nodetypes="ccccccc" />
    <path
       style="fill:#ffff00;fill-rule:evenodd;stroke:none;stroke-opacity:1;stroke-width:1pt;stroke-linejoin:miter;stroke-linecap:butt;fill-opacity:1;"
       d="M 0 478.346 C 0 478.346 343.701 258.661 343.701 258.661 C 343.701 258.661 690.945 258.661 744.094 258.661 C 744.094 240.945 744.094 240.945 744.094 237.402 L 343.701 237.402 L 0 17.7166 L 0 49.6063 C 0 49.6063 322.441 248.031 322.441 248.031 C 322.441 248.031 0 446.457 0 446.457 L 0 478.346 z "
       id="path561"
       sodipodi:nodetypes="cccccccccc" />
    <path
       style="fill:#40aa40;fill-rule:evenodd;stroke:none;stroke-opacity:1;stroke-width:1pt;stroke-linejoin:miter;stroke-linecap:butt;fill-opacity:1;"
       d="M 0 496.063 C 0 496.063 343.701 276.378 343.701 276.378 C 343.701 276.378 744.094 276.378 744.094 276.378 L 744.094 496.063 L 0 496.063 z "
       id="path562"
       sodipodi:nodetypes="ccccc" />
    <path
       style="font-size:12;fill:#ce0000;fill-rule:evenodd;stroke-width:1pt;fill-opacity:1;"
       d="M 0 2.55629e-14 L 343.701 219.685 L 744.094 219.685 L 744.094 2.55629e-14 L 0 2.55629e-14 z "
       id="path566"
       sodipodi:nodetypes="ccccc" />
    <path
       style="fill:#ffff00;fill-rule:evenodd;stroke:none;stroke-opacity:1;stroke-width:1pt;stroke-linejoin:miter;stroke-linecap:butt;fill-opacity:1;"
       d="M 392.5 -118.937 C 405.885 -123.148 411.02 -122.194 412.5 -141.437 C 409.864 -149.346 410 -162.411 410 -173.937 C 410.183 -189.111 410.576 -195.371 425 -191.438 C 433.846 -189.515 447.88 -208.938 460 -208.938 C 478.565 -209.161 469.805 -205.95 475 -218.938 C 472.756 -236.896 466.636 -231.438 450 -231.438 C 438.334 -231.438 424.167 -211.438 412.5 -211.438 C 404.778 -226.523 409.311 -230.939 417.5 -238.938 C 428.429 -238.938 445.428 -257.902 452.5 -261.438 C 463.596 -265.027 473.023 -268.78 467.5 -281.438 C 466.257 -291.802 468.353 -285.297 460 -288.938 C 448.334 -288.938 434.167 -268.938 422.5 -268.938 C 406.889 -269.516 406.85 -272.75 405 -286.438 C 410.658 -294.358 418.253 -295.929 432.5 -296.438 C 447.581 -296.438 455.924 -316.129 465 -321.438 C 467.721 -333.172 475.763 -340.818 462.5 -346.438 C 453.687 -351.373 450.447 -350.753 437.5 -346.438 C 420.812 -346.438 414.262 -327.03 402.5 -333.938 C 403.879 -349.104 409.096 -348.748 425 -348.938 C 433.82 -350.855 448.145 -372.428 455 -376.438 C 463.728 -384.278 465.685 -372.569 457.5 -396.438 C 448.144 -403.75 440.019 -379.808 427.5 -376.438 C 417.998 -369.989 407.595 -368.472 400 -376.438 C 391.241 -387.908 398.046 -392.57 410 -396.438 C 420.357 -400.056 434.543 -419.959 442.5 -423.938 C 457.218 -425.258 459.44 -428.805 460 -443.938 C 456.757 -459.773 453.58 -450.863 437.5 -451.438 C 425.834 -451.438 411.667 -431.438 400 -431.438 C 397.86 -436.789 396.106 -443.745 400 -448.938 C 409.123 -451.979 415.922 -455.935 430 -456.438 C 442.737 -458.357 447.747 -481.93 452.5 -491.438 C 445.313 -497.667 436.671 -478.938 422.5 -478.938 C 413.521 -478.938 402.807 -478.254 397.5 -481.438 C 393.501 -496.833 391.204 -494.761 410 -498.938 C 417.043 -504.945 431.24 -512.245 412.5 -518.938 C 409.495 -520.031 401.773 -515.05 392.5 -513.938 C 380.268 -513.938 368.337 -514.147 357.5 -511.438 C 350.258 -508.748 339.337 -505.341 335 -501.438 C 340.214 -493.771 346.31 -490.364 352.5 -481.438 C 361.03 -478.317 369.291 -482.465 372.5 -481.438 C 368.359 -471.084 361.347 -471.612 352.5 -466.438 C 337.137 -466.438 329.571 -487.376 320 -476.438 C 327.026 -472.799 341.295 -452.614 350 -451.438 C 358.203 -451.438 367.952 -452.349 372.5 -448.938 C 371.724 -433.225 367.739 -432.002 352.5 -431.438 C 339.395 -431.438 329.834 -448.925 322.5 -443.938 C 317.116 -433.17 316.746 -433.344 325 -426.438 C 333.673 -416.292 339.556 -398.938 355 -398.938 C 373.754 -398.714 374.771 -400.43 375 -381.438 C 373.019 -371.092 368.058 -370.205 357.5 -368.938 C 345.064 -368.938 333.675 -386.942 322.5 -388.938 C 304.973 -388.061 312.629 -391.759 307.5 -378.938 C 311.394 -367.964 315.711 -366.796 327.5 -361.438 C 335.856 -358.652 349.144 -341.152 357.5 -343.938 C 373.684 -344.988 373.277 -346.269 367.5 -328.938 C 356.973 -322.972 354.103 -318.304 340 -321.438 C 325.462 -321.957 317.824 -343.002 305 -336.438 C 293.769 -329.526 291.391 -327.951 302.5 -316.438 C 313.007 -306.681 321.042 -286.903 337.5 -286.438 C 351.097 -288.307 357.368 -291.936 365 -288.938 C 363.414 -284.971 362.529 -274.809 360 -271.438 C 352.838 -267.113 342.029 -267.02 332.5 -263.938 C 319.656 -262.202 318.859 -271.438 307.5 -271.438 C 299.98 -264.267 292.061 -274.099 295 -261.438 C 303.384 -254.161 308.155 -241.438 322.5 -241.438 C 334.167 -241.438 348.334 -236.438 360 -236.438 C 376.197 -232.838 373.635 -229.4 377.5 -213.938 C 369.708 -209.624 357.159 -208.938 345 -208.938 C 333.334 -208.938 321.667 -226.438 310 -226.438 C 298.637 -228.061 297.133 -233.717 295 -216.438 C 300.323 -207.754 302.774 -208.207 310 -203.938 C 316.818 -195.79 325.881 -178.937 340 -178.937 C 351.346 -182.679 365.427 -184.356 375 -186.438 C 387.95 -183.622 380.274 -181.48 380 -166.437 C 382.911 -153.049 384.316 -151.147 380 -141.437 L 380 -141.437 C 378.497 -130.163 378.151 -125.375 392.5 -118.937 z "
       id="path574"
       sodipodi:nodetypes="cccccccccccccccccccccccccccccccccccccccccccccccccccccccccccccccccccccccccccccc"
       transform="matrix(7.127294e-2,4.893519e-2,-5.575512e-2,9.354703e-2,58.22032,250.2529)" />
    <path
       style="fill:#ffff00;fill-rule:evenodd;stroke:none;stroke-opacity:1;stroke-width:1pt;stroke-linejoin:miter;stroke-linecap:butt;fill-opacity:1;"
       d="M 392.5 -118.937 C 405.885 -123.148 411.02 -122.194 412.5 -141.437 C 409.864 -149.346 410 -162.411 410 -173.937 C 410.183 -189.111 410.576 -195.371 425 -191.438 C 433.846 -189.515 447.88 -208.938 460 -208.938 C 478.565 -209.161 469.805 -205.95 475 -218.938 C 472.756 -236.896 466.636 -231.438 450 -231.438 C 438.334 -231.438 424.167 -211.438 412.5 -211.438 C 404.778 -226.523 409.311 -230.939 417.5 -238.938 C 428.429 -238.938 445.428 -257.902 452.5 -261.438 C 463.596 -265.027 473.023 -268.78 467.5 -281.438 C 466.257 -291.802 468.353 -285.297 460 -288.938 C 448.334 -288.938 434.167 -268.938 422.5 -268.938 C 406.889 -269.516 406.85 -272.75 405 -286.438 C 410.658 -294.358 418.253 -295.929 432.5 -296.438 C 447.581 -296.438 455.924 -316.129 465 -321.438 C 467.721 -333.172 475.763 -340.818 462.5 -346.438 C 453.687 -351.373 450.447 -350.753 437.5 -346.438 C 420.812 -346.438 414.262 -327.03 402.5 -333.938 C 403.879 -349.104 409.096 -348.748 425 -348.938 C 433.82 -350.855 448.145 -372.428 455 -376.438 C 463.728 -384.278 465.685 -372.569 457.5 -396.438 C 448.144 -403.75 440.019 -379.808 427.5 -376.438 C 417.998 -369.989 407.595 -368.472 400 -376.438 C 391.241 -387.908 398.046 -392.57 410 -396.438 C 420.357 -400.056 434.543 -419.959 442.5 -423.938 C 457.218 -425.258 459.44 -428.805 460 -443.938 C 456.757 -459.773 453.58 -450.863 437.5 -451.438 C 425.834 -451.438 411.667 -431.438 400 -431.438 C 397.86 -436.789 396.106 -443.745 400 -448.938 C 409.123 -451.979 415.922 -455.935 430 -456.438 C 442.737 -458.357 447.747 -481.93 452.5 -491.438 C 445.313 -497.667 436.671 -478.938 422.5 -478.938 C 413.521 -478.938 402.807 -478.254 397.5 -481.438 C 393.501 -496.833 391.204 -494.761 410 -498.938 C 417.043 -504.945 431.24 -512.245 412.5 -518.938 C 409.495 -520.031 401.773 -515.05 392.5 -513.938 C 380.268 -513.938 368.337 -514.147 357.5 -511.438 C 350.258 -508.748 339.337 -505.341 335 -501.438 C 340.214 -493.771 346.31 -490.364 352.5 -481.438 C 361.03 -478.317 369.291 -482.465 372.5 -481.438 C 368.359 -471.084 361.347 -471.612 352.5 -466.438 C 337.137 -466.438 329.571 -487.376 320 -476.438 C 327.026 -472.799 341.295 -452.614 350 -451.438 C 358.203 -451.438 367.952 -452.349 372.5 -448.938 C 371.724 -433.225 367.739 -432.002 352.5 -431.438 C 339.395 -431.438 329.834 -448.925 322.5 -443.938 C 317.116 -433.17 316.746 -433.344 325 -426.438 C 333.673 -416.292 339.556 -398.938 355 -398.938 C 373.754 -398.714 374.771 -400.43 375 -381.438 C 373.019 -371.092 368.058 -370.205 357.5 -368.938 C 345.064 -368.938 333.675 -386.942 322.5 -388.938 C 304.973 -388.061 312.629 -391.759 307.5 -378.938 C 311.394 -367.964 315.711 -366.796 327.5 -361.438 C 335.856 -358.652 349.144 -341.152 357.5 -343.938 C 373.684 -344.988 373.277 -346.269 367.5 -328.938 C 356.973 -322.972 354.103 -318.304 340 -321.438 C 325.462 -321.957 317.824 -343.002 305 -336.438 C 293.769 -329.526 291.391 -327.951 302.5 -316.438 C 313.007 -306.681 321.042 -286.903 337.5 -286.438 C 351.097 -288.307 357.368 -291.936 365 -288.938 C 363.414 -284.971 362.529 -274.809 360 -271.438 C 352.838 -267.113 342.029 -267.02 332.5 -263.938 C 319.656 -262.202 318.859 -271.438 307.5 -271.438 C 299.98 -264.267 292.061 -274.099 295 -261.438 C 303.384 -254.161 308.155 -241.438 322.5 -241.438 C 334.167 -241.438 348.334 -236.438 360 -236.438 C 376.197 -232.838 373.635 -229.4 377.5 -213.938 C 369.708 -209.624 357.159 -208.938 345 -208.938 C 333.334 -208.938 321.667 -226.438 310 -226.438 C 298.637 -228.061 297.133 -233.717 295 -216.438 C 300.323 -207.754 302.774 -208.207 310 -203.938 C 316.818 -195.79 325.881 -178.937 340 -178.937 C 351.346 -182.679 365.427 -184.356 375 -186.438 C 387.95 -183.622 380.274 -181.48 380 -166.437 C 382.911 -153.049 384.316 -151.147 380 -141.437 L 380 -141.437 C 378.497 -130.163 378.151 -125.375 392.5 -118.937 z "
       id="path576"
       sodipodi:nodetypes="cccccccccccccccccccccccccccccccccccccccccccccccccccccccccccccccccccccccccccccc"
       transform="matrix(7.329115e-2,-5.613273e-2,6.368867e-2,9.659873e-2,95.96606,293.0364)" />
    <path
       style="fill:#ffff00;fill-rule:evenodd;stroke:none;stroke-opacity:1;stroke-width:1pt;stroke-linejoin:miter;stroke-linecap:butt;fill-opacity:1;"
       d="M 283.465 -177.165 C 283.465 -194.882 280.965 -212.598 283.465 -212.598 C 425.197 -212.598 460.63 -318.898 460.63 -389.764 C 460.63 -460.63 411.398 -531.496 318.898 -531.496 C 212.598 -531.496 177.165 -462.264 177.165 -389.764 C 177.165 -318.898 230.315 -265.748 283.465 -265.748 C 354.331 -265.748 372.047 -283.465 425.197 -354.331 C 407.48 -265.748 318.898 -230.315 283.465 -230.315 C 212.598 -230.315 141.732 -283.465 141.732 -389.764 C 141.732 -478.346 194.882 -566.929 318.898 -566.929 C 425.197 -566.929 496.063 -478.346 496.063 -389.764 C 496.063 -265.748 407.48 -177.165 283.465 -177.165 z "
       id="path577"
       sodipodi:nodetypes="cccccccccccc"
       transform="matrix(0.320000,0.000000,0.000000,0.290909,4.252051,356.2633)" />
  </g>
</svg>
