<?xml version="1.0" encoding="UTF-8" standalone="no"?>
<!DOCTYPE svg PUBLIC "-//W3C//DTD SVG 20010904//EN"
"http://www.w3.org/TR/2001/REC-SVG-20010904/DTD/svg10.dtd">
<!-- Created with Sodipodi ("http://www.sodipodi.com/") -->
<svg
   version="1.0"
   x="0"
   y="0"
   width="210"
   height="140"
   id="svg378"
   sodipodi:version="0.32"
   sodipodi:docname="/home/sigge/venezuela.svg"
   sodipodi:docbase="/home/sigge/"
   xmlns="http://www.w3.org/2000/svg"
   xmlns:sodipodi="http://sodipodi.sourceforge.net/DTD/sodipodi-0.dtd"
   xmlns:xlink="http://www.w3.org/1999/xlink">
  <sodipodi:namedview
     id="base" />
  <defs
     id="defs380" />
  <rect
     width="209.824849"
     height="46.539520"
     x="0.198321"
     y="93.475708"
     style="font-size:12;fill:#dc0000;fill-rule:evenodd;stroke-width:1pt;fill-opacity:1;"
     id="rect171" />
  <rect
     width="209.824849"
     height="46.539516"
     x="0.198321"
     y="0.396680"
     style="font-size:12;fill-rule:evenodd;stroke-width:1pt;fill:#ffcb00;fill-opacity:1;"
     id="rect256" />
  <rect
     width="209.824849"
     height="46.539516"
     x="0.198321"
     y="46.936192"
     style="font-size:12;fill:#0000ba;fill-rule:evenodd;stroke-width:1pt;fill-opacity:1;"
     id="rect255" />
  <g
     id="g595"
     transform="translate(0.221634,0.731773)">
    <path
       d="M 266.186 534.45 L 255.778 527.018 L 245.421 534.523 L 249.273 522.327 L 238.935 514.796 L 251.725 514.691 L 255.692 502.532 L 259.744 514.663 L 272.534 514.679 L 262.249 522.281 L 266.186 534.45 z "
       transform="matrix(0.359332,0.000000,0.000000,0.324940,13.10641,-111.6294)"
       style="font-size:12;fill:#ffffff;fill-rule:evenodd;stroke-width:0.112872;fill-opacity:1;"
       id="path575" />
    <path
       d="M 266.186 534.45 L 255.778 527.018 L 245.421 534.523 L 249.273 522.327 L 238.935 514.796 L 251.725 514.691 L 255.692 502.532 L 259.744 514.663 L 272.534 514.679 L 262.249 522.281 L 266.186 534.45 z "
       transform="matrix(0.359332,0.000000,0.000000,0.324940,31.71735,-109.5615)"
       style="font-size:12;fill:#ffffff;fill-rule:evenodd;stroke-width:0.112872;"
       id="path576" />
    <path
       d="M 266.186 534.45 L 255.778 527.018 L 245.421 534.523 L 249.273 522.327 L 238.935 514.796 L 251.725 514.691 L 255.692 502.532 L 259.744 514.663 L 272.534 514.679 L 262.249 522.281 L 266.186 534.45 z "
       transform="matrix(0.359332,0.000000,0.000000,0.324940,47.84687,-100.4628)"
       style="font-size:12;fill:#ffffff;fill-rule:evenodd;stroke-width:0.112872;"
       id="path577" />
    <path
       d="M 266.186 534.45 L 255.778 527.018 L 245.421 534.523 L 249.273 522.327 L 238.935 514.796 L 251.725 514.691 L 255.692 502.532 L 259.744 514.663 L 272.534 514.679 L 262.249 522.281 L 266.186 534.45 z "
       transform="matrix(0.359332,0.000000,0.000000,0.324940,56.94556,-86.81480)"
       style="font-size:12;fill:#ffffff;fill-rule:evenodd;stroke-width:0.112872;"
       id="path578" />
    <path
       d="M 266.186 534.45 L 255.778 527.018 L 245.421 534.523 L 249.273 522.327 L 238.935 514.796 L 251.725 514.691 L 255.692 502.532 L 259.744 514.663 L 272.534 514.679 L 262.249 522.281 L 266.186 534.45 z "
       transform="matrix(-0.359332,0.000000,0.000000,0.324940,178.2826,-109.5616)"
       style="font-size:12;fill:#ffffff;fill-rule:evenodd;stroke-width:0.112872;"
       id="path579" />
    <path
       d="M 266.186 534.45 L 255.778 527.018 L 245.421 534.523 L 249.273 522.327 L 238.935 514.796 L 251.725 514.691 L 255.692 502.532 L 259.744 514.663 L 272.534 514.679 L 262.249 522.281 L 266.186 534.45 z "
       transform="matrix(-0.359332,0.000000,0.000000,0.324940,162.1530,-100.4628)"
       style="font-size:12;fill:#ffffff;fill-rule:evenodd;stroke-width:0.112872;"
       id="path580" />
    <path
       d="M 266.186 534.45 L 255.778 527.018 L 245.421 534.523 L 249.273 522.327 L 238.935 514.796 L 251.725 514.691 L 255.692 502.532 L 259.744 514.663 L 272.534 514.679 L 262.249 522.281 L 266.186 534.45 z "
       transform="matrix(-0.359332,0.000000,0.000000,0.324940,153.0544,-86.81480)"
       style="font-size:12;fill:#ffffff;fill-rule:evenodd;stroke-width:0.112872;"
       id="path581" />
  </g>
</svg>
