<?xml version="1.0" encoding="UTF-8" standalone="no"?>
<!DOCTYPE svg PUBLIC "-//W3C//DTD SVG 1.0//EN"
"http://www.w3.org/TR/2001/REC-SVG-20010904/DTD/svg10.dtd">
<!-- Created with Sodipodi ("http://www.sodipodi.com/") -->
<svg
   id="svg548"
   sodipodi:version="0.33pre"
   xmlns="http://www.w3.org/2000/svg"
   xmlns:sodipodi="http://sodipodi.sourceforge.net/DTD/sodipodi-0.dtd"
   xmlns:xlink="http://www.w3.org/1999/xlink"
   width="210mm"
   height="140mm"
   sodipodi:docbase="/home/tobias/Desktop"
   sodipodi:docname="/home/tobias/Desktop/Zambia.svg">
  <defs
     id="defs550" />
  <sodipodi:namedview
     id="base" />
  <rect
     style="font-size:12;fill:#198a00;fill-rule:evenodd;stroke-width:1pt;fill-opacity:1;"
     id="rect626"
     width="744.094482"
     height="496.063029"
     x="-0.000099"
     y="0.000153" />
  <rect
     style="font-size:12;fill:#ef7d00;fill-rule:evenodd;stroke-width:1pt;"
     id="rect616"
     width="87.320663"
     height="317.819519"
     x="656.773789"
     y="178.212540" />
  <rect
     style="font-size:12;fill-rule:evenodd;stroke-width:1pt;"
     id="rect617"
     width="87.227058"
     height="317.889374"
     x="569.555893"
     y="178.064423" />
  <rect
     style="font-size:12;fill:#de2010;fill-rule:evenodd;stroke-width:1pt;fill-opacity:1;"
     id="rect618"
     width="89.073647"
     height="317.805267"
     x="480.507859"
     y="178.257599" />
  <g
     id="g600"
     transform="matrix(0.966522,0.000000,0.000000,0.966522,32.50632,4.439301)">
    <path
       style="font-size:12;fill:#ef7d00;fill-rule:evenodd;stroke:#000000;stroke-width:1.25;stroke-linejoin:round;"
       d="M 292.598 63.4833 C 292.598 63.4833 338.123 44.0304 342.534 40.0193 C 344.54 42.4259 324.284 66.8927 284.977 75.9173 C 320.674 67.4943 351.158 41.022 357.375 41.8242 C 359.18 42.2253 358.778 67.6948 276.955 89.755 C 333.509 74.9144 366.399 47.6401 365.998 50.6483 C 366.399 51.2499 360.383 72.1068 310.848 88.3511 C 324.686 85.1419 362.188 62.28 361.787 66.6921 C 362.99 68.497 325.488 116.628 257.703 100.986 C 311.851 115.024 346.946 81.1314 351.96 81.7331 C 352.963 81.9336 341.932 111.414 273.747 113.219 C 306.437 109.81 297.01 113.018 297.01 113.018 C 297.01 113.018 277.757 128.059 254.494 117.832 C 272.744 122.846 274.749 123.046 275.15 124.65 C 273.947 126.655 258.906 129.664 244.467 121.842 C 256.098 126.655 266.527 127.458 266.727 129.263 C 266.527 129.864 259.107 134.076 252.489 131.068 C 245.871 128.059 184.904 90.5572 184.904 90.5572 L 288.788 62.0795 L 292.598 63.4833 z "
       id="path564"
       sodipodi:nodetypes="cccccccccccccccccccc"
       transform="matrix(0.746834,0.000000,0.000000,0.746834,457.1783,13.74506)" />
    <path
       style="font-size:12;fill:#ef7d00;fill-rule:evenodd;stroke:#000000;stroke-width:1.25;stroke-linejoin:round;"
       d="M 170.471 164.927 C 161.336 164.927 161.084 173.056 161.084 173.056 C 161.084 173.056 160.33 173.643 160.833 177.583 C 162.341 174.9 163.096 174.062 163.096 174.062 C 164.102 174.23 168.292 175.487 174.913 170.291 C 168.878 176.576 172.483 178.923 172.483 178.923 C 172.483 178.923 171.058 183.868 175.667 184.874 C 174.243 182.862 175.081 181.102 175.081 181.102 C 175.081 181.102 181.534 180.432 181.115 172.554 C 181.367 179.677 185.222 181.437 185.222 181.437 C 185.222 181.437 185.222 185.376 189.412 185.712 C 187.15 183.7 187.652 180.599 187.652 180.599 C 187.652 180.599 193.1 176.66 188.49 169.955 C 191.256 168.362 193.519 163.921 193.519 163.921 C 193.519 163.921 189.748 162.328 187.988 160.988 C 187.149 159.227 187.904 149.589 187.904 149.589 L 185.641 137.101 L 179.187 156.546 C 179.438 153.78 179.606 164.927 170.471 164.927 z "
       id="path560"
       sodipodi:nodetypes="ccccccccccccccccccc"
       transform="matrix(0.746834,0.000000,0.000000,0.746834,457.1783,13.74506)" />
    <path
       style="font-size:12;fill:#ef7d00;fill-rule:evenodd;stroke:#000000;stroke-width:1.25;stroke-linejoin:round;"
       d="M 215.588 136.883 C 215.788 137.084 222.407 144.505 228.824 144.103 C 231.23 142.098 223.81 137.686 223.81 136.683 C 226.417 139.09 237.447 148.515 244.467 145.106 C 247.274 141.095 239.453 141.697 230.829 130.867 C 236.845 134.878 251.887 143.702 258.906 140.293 C 261.915 137.084 243.263 127.056 237.046 119.235 L 221.003 111.013 L 199.143 128.862 L 215.588 136.883 z "
       id="path563"
       sodipodi:nodetypes="cccccccccc"
       transform="matrix(0.746834,0.000000,0.000000,0.746834,457.1783,13.74506)" />
    <path
       style="font-size:12;fill:#ef7d00;fill-rule:evenodd;stroke:#000000;stroke-width:1.25;stroke-linecap:round;stroke-linejoin:round;"
       d="M 190.921 75.9172 C 190.921 75.9172 198.341 71.5052 228.022 73.7112 C 231.231 74.1122 248.277 67.8954 253.692 66.0905 C 262.315 64.4861 289.79 58.4696 297.211 52.8543 C 302.425 52.2527 295.806 62.4806 289.189 64.8871 C 282.169 68.0959 256.7 76.92 247.675 75.7167 C 258.505 75.9173 252.489 84.7413 234.439 80.5298 C 243.063 85.3429 239.854 86.1451 239.854 86.1451 C 239.854 86.1451 224.613 86.9473 220.602 83.538 C 230.83 87.3484 226.618 88.7522 226.618 88.7522 C 226.618 88.7522 216.19 89.7549 211.376 87.5489 C 218.796 89.7549 214.986 91.1588 214.986 91.1588 C 214.986 91.1588 208.97 92.1615 203.956 90.3566 C 198.943 88.5517 191.322 75.9172 190.921 75.9172 z "
       id="path562"
       sodipodi:nodetypes="cccccccccccccc"
       transform="matrix(0.746834,0.000000,0.000000,0.746834,457.1783,13.74506)" />
    <path
       style="font-size:12;fill:#ef7d00;fill-rule:evenodd;stroke:#000000;stroke-width:1.25;stroke-linejoin:round;"
       d="M 202.822 141.04 L 203.912 160.652 C 203.912 160.652 203.325 161.658 202.822 162.245 C 202.319 162.831 188.909 160.149 190.753 170.374 C 190.753 174.565 190.837 175.654 193.687 178.001 C 192.932 175.235 193.184 173.308 193.184 173.308 C 193.184 173.308 196.955 175.571 200.643 169.369 C 198.129 175.487 199.888 177.666 200.475 177.834 C 201.062 178.924 199.47 183.868 204.498 183.784 C 202.571 181.94 203.493 179.258 203.493 179.258 C 203.493 179.258 208.773 178.421 206.929 168.866 C 208.857 166.938 209.611 168.782 209.611 168.782 C 209.611 168.782 210.197 174.481 214.807 173.308 C 216.903 174.481 214.472 177.582 214.472 177.582 C 214.472 177.582 217.824 177.666 218.83 174.816 C 219.836 171.967 221.009 166.854 215.477 164.759 C 214.807 162.748 217.657 162.58 217.657 162.58 C 217.657 162.58 221.177 163.753 222.182 165.513 C 223.188 167.273 222.853 160.904 218.495 160.233 C 213.131 160.065 212.796 158.976 212.796 158.725 C 212.796 158.473 211.874 144.477 211.455 140.454 L 202.822 141.04 z "
       id="path561"
       sodipodi:nodetypes="cccccccccccccccccccccc"
       transform="matrix(0.746834,0.000000,0.000000,0.746834,457.1783,13.74506)" />
    <path
       style="font-size:12;fill:#ef7d00;fill-rule:evenodd;stroke:#000000;stroke-width:1pt;stroke-linecap:round;stroke-linejoin:round;"
       d="M 221.477 157.753 C 221.543 156.854 212.327 144.445 214.665 142.841 C 217.002 143.322 220.835 148.966 223.94 147.134 C 222.999 144.934 220.225 146.173 217.075 140.541 C 213.926 134.174 213.466 124.616 202.436 114.19 C 209.577 125.223 225.776 131.69 226.462 128.473 C 227.148 125.256 212.198 113.091 212.964 110.159 C 215.937 116.18 230.948 129.596 242.008 128.485 C 242.766 125.902 232.951 120.689 230.425 115.821 C 223.36 111.075 204.453 94.7775 204.074 90.9978 C 197.194 80.9634 192.899 77.9278 190.899 76.7721 C 190.126 75.8616 189.932 74.9912 189.781 74.4378 C 185.51 64.3691 191.167 61.0996 194.478 60.6161 C 197.203 60.3133 197.994 60.7212 199.955 59.7716 C 197.633 58.8633 195.312 58.0138 192.991 57.1054 C 196.018 59.3258 203.75 57.371 202.074 63.7664 C 205.464 62.4766 212.677 53.8951 193.899 51.9584 C 187.788 44.9478 162.663 40.9188 156.374 71.5163 C 156.876 71.9453 157.139 72.2978 158.737 73.4912 C 150.803 69.6455 129.4 66.68 121.687 65.4337 C 100.85 59.4218 79.2099 44.9339 77.1297 46.7156 C 74.3475 47.9505 89.7194 62.2518 88.9204 62.5683 C 75.5917 54.7968 63.4154 49.2908 52.0855 44.2804 C 44.1149 41.301 36.1315 34.3641 35.2512 35.6837 C 32.3178 41.7605 48.03 57.0355 50.9526 58.8324 C 53.8762 60.5512 76.8628 71.2139 76.5238 71.347 C 41.9017 55.6323 36.0969 52.7834 34.3595 50.9715 C 31.308 50.2842 23.8745 40.2476 21.8029 40.893 C 20.6688 42.0072 22.9434 57.8659 39.4645 64.9846 C 42.1574 66.9472 74.8781 78.6853 74.5577 79.6056 C 74.4776 79.8356 37.0807 64.1708 35.6281 63.6108 C 28.4179 60.7834 19.5708 50.873 17.9168 51.9875 C 16.3381 52.9987 21.9952 63.7255 29.281 67.0898 C 33.0998 68.7751 47.7482 76.0303 60.9458 80.648 C 61.7881 80.9526 37.2233 71.3326 25.4128 66.3973 C 20.0579 63.4252 17.5361 59.7206 16.7204 60.5177 C 15.5139 61.3147 18.6697 77.1606 56.6228 86.1019 C 57.6227 86.5275 69.9824 83.1739 69.3715 83.6187 C 69.2187 83.7299 57.0982 86.3686 55.9181 86.2784 C 54.8678 86.118 48.2277 87.0645 48.1076 87.4086 C 47.7064 88.4805 50.5134 94.1543 70.1095 92.9711 C 72.6147 92.8205 86.2098 88.0202 85.0676 89.0528 C 84.4965 89.5694 66.5548 95.3994 65.1884 95.5144 C 64.0016 95.6821 57.6987 96.3412 57.4657 97.0116 C 57.1811 97.9259 62.131 101.964 72.6546 102.611 C 81.9722 103.106 99.6773 96.9177 99.3221 97.3189 C 98.9669 97.72 82.2539 103.447 81.8166 103.796 C 81.2118 104.138 75.0918 104.47 74.877 104.94 C 74.3783 106.109 83.7052 114.831 111.289 105.523 C 108.518 109.266 95.1476 111.826 95.1668 112.5 C 95.1048 112.989 98.1125 115.895 102.787 116.935 C 105.124 117.455 108.324 117.349 111.247 116.887 C 116.497 115.836 122.03 113.759 129.06 107.262 C 129.9 109.301 111.499 118.613 112.363 119.501 C 116.353 123.201 129.607 119.024 130.475 118.539 C 131.344 118.053 155.998 104.151 155.913 102.542 C 156.296 104.604 124.128 122.083 124.475 122.8 C 126.54 126.095 137.529 122.627 138.054 122.324 C 138.578 122.022 152.078 114.729 152.448 114.514 C 152.817 114.299 136.582 124.016 138.028 125.495 C 137.329 131.805 163.383 121.14 165.425 119.812 C 166.446 119.148 152.909 125.764 152.873 128.907 C 157.232 136.277 171.19 133.939 173.343 132.318 C 174.42 131.507 172.076 137.793 172.831 137.222 C 173.094 137.104 175.867 133.825 176.933 131.452 C 176.593 133.511 175.063 136.755 174.17 140.477 C 173.276 144.199 173.02 148.399 171.793 152.861 C 171.512 154.821 180.394 149.029 179.104 135.183 C 179.864 142.385 176.299 155.852 177.232 156.552 C 179.098 157.952 184.257 149.845 184.778 144.363 C 186.31 147.132 189.525 152.912 192.291 154.242 C 191.99 150.053 192.344 150.245 191.099 146.128 C 191.817 140.662 191.917 133.097 192.091 124.555 C 199.607 138.953 202.605 145.033 200.505 156.059 C 202.74 156.991 206.31 148.363 206.022 143.922 C 208.892 156.262 221.28 158.112 221.477 157.753 z "
       id="path553"
       sodipodi:nodetypes="ccccccccccccccccccccccccccccccssssccccsssssssssscssccccccccccccccscccccccccc"
       transform="matrix(0.746834,0.000000,0.000000,0.746834,457.1783,13.74506)" />
    <path
       style="font-size:12;fill:#ef7d00;fill-rule:evenodd;stroke:#000000;stroke-width:1pt;stroke-linecap:round;stroke-linejoin:round;"
       d="M 96.2893 66.342 C 96.2893 66.342 91.1736 70.2072 84.8074 69.9799 C 86.3989 76.3461 99.5861 71.4578 99.5861 71.4578 C 99.5861 71.4578 93.2199 78.5061 88.6726 79.6429 C 91.401 81.9165 102.883 81.1208 104.816 79.984 C 106.748 78.8471 110.159 74.4135 110.159 74.4135 C 110.159 74.4135 98.3356 88.0554 96.6304 87.9418 C 96.403 89.5333 109.022 88.9649 111.637 86.5776 C 114.251 84.1902 120.845 80.6661 120.845 80.6661 C 120.845 80.6661 103.565 92.7164 102.769 92.7164 C 109.249 94.4217 122.209 90.6701 130.508 85.5544 C 118.23 93.7396 117.094 95.2174 110.841 97.9458 C 116.412 99.1964 119.253 102.948 138.125 94.7627 C 148.925 89.6471 155.063 80.325 155.063 80.325 C 148.356 89.306 137.783 96.9233 126.075 104.426 C 125.392 105.79 138.579 111.36 155.404 93.8533 "
       id="path555"
       sodipodi:nodetypes="cccccccccccccccc"
       transform="matrix(0.746834,0.000000,0.000000,0.746834,457.1783,13.74506)" />
    <path
       style="font-size:12;fill:#ef7d00;fill-rule:evenodd;stroke:#000000;stroke-width:1pt;stroke-linecap:round;"
       d="M 187.69 104.312 C 187.69 104.312 188.827 109.655 193.374 113.748 C 197.922 117.84 198.263 121.819 198.263 121.819 "
       id="path556"
       transform="matrix(0.746834,0.000000,0.000000,0.746834,457.1783,13.74506)" />
    <path
       style="font-size:12;fill:#ef7d00;fill-rule:evenodd;stroke:#000000;stroke-width:1pt;stroke-linecap:round;"
       d="M 185.417 69.5252 C 185.417 69.5252 187.008 74.2998 191.669 77.3693 C 196.444 80.4387 203.607 90.1017 204.175 91.8069 C 204.725 93.8708 207.471 108.746 207.244 110.337 "
       id="path557"
       sodipodi:nodetypes="ccsc"
       transform="matrix(0.746834,0.000000,0.000000,0.746834,457.1783,13.74506)" />
    <path
       style="font-size:12;fill:#ef7d00;fill-rule:evenodd;stroke:#000000;stroke-width:1pt;stroke-linecap:round;"
       d="M 156.428 76.9145 C 156.769 78.7334 149.72 87.9418 159.383 98.7416 C 150.629 109.427 150.63 110.792 150.63 110.792 C 150.63 110.792 155.518 113.52 164.272 106.017 C 178.709 123.752 173.898 131.868 173.898 131.868 "
       id="path558"
       sodipodi:nodetypes="ccccc"
       transform="matrix(0.746834,0.000000,0.000000,0.746834,457.1783,13.74506)" />
    <path
       style="font-size:12;fill:#ef7d00;fill-rule:evenodd;stroke:#000000;stroke-width:1pt;stroke-linecap:round;stroke-linejoin:round;"
       d="M 172.748 119.348 C 172.748 119.348 171.418 117.443 173.789 110.329 C 175.924 112.901 178.298 113.45 179.339 114.491 C 180.379 115.532 191.28 117.11 191.973 124.395 "
       id="path559"
       sodipodi:nodetypes="cccc"
       transform="matrix(0.746834,0.000000,0.000000,0.746834,457.1783,13.74506)" />
    <path
       style="font-size:12;fill:#ef7d00;fill-rule:evenodd;stroke:#000000;stroke-width:1pt;"
       d="M 185.563 52.5742 C 185.563 52.039 183.368 47.329 175.179 53.2165 C 179.568 53.484 183.903 55.9996 185.563 52.5742 z "
       id="path552"
       sodipodi:nodetypes="ccc"
       transform="matrix(0.746834,0.000000,0.000000,0.746834,457.1783,13.74506)" />
    <path
       style="font-size:12;fill:#ef7d00;fill-rule:evenodd;stroke:#000000;stroke-width:1pt;stroke-linejoin:round;"
       d="M 263.719 74.1123 C 264.12 74.3128 288.186 79.5271 296.208 76.92 C 285.98 90.5572 265.524 81.332 265.524 81.332 C 275.551 84.3402 275.953 84.1397 279.161 86.9473 C 280.164 89.5544 260.711 88.3511 254.293 84.7413 C 272.142 90.3566 272.543 89.9555 273.145 92.1615 C 273.948 95.1697 243.865 91.3593 241.258 87.3484 C 249.28 93.5654 253.692 94.7687 258.104 97.5763 C 252.689 99.9829 242.662 102.389 224.211 89.3539 C 248.477 111.414 270.337 110.01 273.747 114.021 C 265.324 126.455 232.634 106.601 217.593 96.5735 C 202.552 86.5462 250.483 120.84 254.896 120.238 C 252.689 123.647 236.846 120.639 235.843 119.035 "
       id="path565"
       sodipodi:nodetypes="ccccccccccccc"
       transform="matrix(0.746834,0.000000,0.000000,0.746834,457.1783,13.74506)" />
    <path
       style="font-size:12;fill:#ef7d00;fill-rule:evenodd;stroke:#000000;stroke-width:1pt;stroke-linecap:round;"
       d="M 269.936 97.1752 C 267.129 97.5763 258.706 97.5763 257.503 97.3757 "
       id="path566"
       transform="matrix(0.746834,0.000000,0.000000,0.746834,457.1783,13.74506)" />
    <path
       style="font-size:12;fill:#ef7d00;fill-rule:evenodd;stroke:#000000;stroke-width:1pt;stroke-linecap:round;stroke-linejoin:round;"
       d="M 89.241 62.7042 C 89.241 62.7042 107.544 72.3672 115.274 71.6851 C 113.228 73.6177 110.158 74.4135 110.158 74.4135 C 112.091 75.2093 117.434 78.0514 125.506 76.2324 C 123.573 78.165 121.072 80.3251 121.072 80.3251 C 121.072 80.3251 128.007 82.9397 135.851 78.8471 C 133.464 81.8028 132.099 83.9629 132.099 83.9629 L 137.556 84.3039 "
       id="path554"
       sodipodi:nodetypes="cccccccc"
       transform="matrix(0.746834,0.000000,0.000000,0.746834,457.1783,13.74506)" />
  </g>
</svg>
