<?xml version="1.0" encoding="UTF-8" standalone="no"?>
<!DOCTYPE svg PUBLIC "-//W3C//DTD SVG 1.0//EN"
"http://www.w3.org/TR/2001/REC-SVG-20010904/DTD/svg10.dtd">
<!-- Created with Inkscape ("http://www.inkscape.org/") -->
<svg
   id="svg559"
   sodipodi:version="0.36cvs"
   xmlns="http://www.w3.org/2000/svg"
   xmlns:sodipodi="http://inkscape.sourceforge.net/DTD/sodipodi-0.dtd"
   xmlns:xlink="http://www.w3.org/1999/xlink"
   width="280mm"
   height="140mm"
   sodipodi:docbase="/home/tobias/Desktop/Flags"
   sodipodi:docname="/home/tobias/Desktop/Flags/Zimbabwe.svg">
  <defs
     id="defs561" />
  <sodipodi:namedview
     id="base" />
  <rect
     style="font-size:12;fill:#319208;fill-rule:evenodd;stroke-width:1pt;fill-opacity:1;"
     id="rect608"
     width="992.125977"
     height="70.866143"
     x="0.000000"
     y="425.196836" />
  <rect
     style="font-size:12;fill:#de2010;fill-rule:evenodd;stroke-width:1pt;fill-opacity:1;"
     id="rect612"
     width="992.125977"
     height="70.866142"
     x="0.000000"
     y="283.464561" />
  <rect
     style="font-size:12;fill:#ffd200;fill-rule:evenodd;stroke-width:1pt;fill-opacity:1;"
     id="rect611"
     width="992.125977"
     height="70.866142"
     x="0.000000"
     y="354.330711" />
  <rect
     style="font-size:12;fill:#de2010;fill-rule:evenodd;stroke-width:1pt;fill-opacity:1;"
     id="rect614"
     width="992.125977"
     height="70.866142"
     x="0.000000"
     y="141.732254" />
  <rect
     style="font-size:12;fill:#ffd200;fill-rule:evenodd;stroke-width:1pt;fill-opacity:1;"
     id="rect615"
     width="992.125977"
     height="70.866142"
     x="0.000000"
     y="70.866119" />
  <rect
     style="font-size:12;fill:#319208;fill-rule:evenodd;stroke-width:1pt;fill-opacity:1;"
     id="rect616"
     width="992.125977"
     height="70.866142"
     x="0.000000"
     y="-0.000008" />
  <path
     style="font-size:12;fill:#000000;fill-rule:evenodd;stroke-width:1pt;fill-opacity:1;"
     d="M 27.9921 -0.000305176 L 27.9921 496.063 L 361.063 248.031 L 27.9921 -0.000305176 z "
     id="path623"
     sodipodi:nodetypes="cccc" />
  <rect
     style="font-size:12;fill:#000000;fill-rule:evenodd;stroke-width:1pt;fill-opacity:1;"
     id="rect621"
     width="28.346457"
     height="496.062958"
     x="0.000000"
     y="-0.000192" />
  <path
     style="font-size:12;fill:#000000;fill-rule:evenodd;stroke-width:1pt;fill-opacity:1;"
     d="M 0 -0.000114441 L 0 496.063 L 361.417 248.031 L 0 -0.000114441 z "
     id="path620"
     sodipodi:nodetypes="cccc" />
  <rect
     style="font-size:12;fill:#000000;fill-rule:evenodd;stroke-width:1pt;fill-opacity:1;"
     id="rect613"
     width="992.125977"
     height="70.866142"
     x="0.000000"
     y="212.598419" />
  <path
     style="font-size:12;fill:#ffffff;fill-rule:evenodd;stroke-width:1pt;"
     d="M 0 -0.000175477 L 0 496.063 L 333.071 248.031 L 0 -0.000175477 z "
     id="path617"
     sodipodi:nodetypes="cccc" />
  <g
     id="g584"
     transform="translate(-494.2325,-14.64395)">
    <polygon
       sodipodi:type="star"
       style="font-size:12;fill:#d62419;fill-opacity:1;fill-rule:evenodd;stroke-width:1pt;"
       id="polygon583"
       sodipodi:sides="5"
       sodipodi:cx="622.415161"
       sodipodi:cy="243.498016"
       sodipodi:r1="124.250076"
       sodipodi:r2="46.8164902"
       sodipodi:arg1="-1.63903320"
       sodipodi:arg2="-1.04843462"
       points="613.943,119.537 645.773,202.925 737.691,197.135 668.221,253.175 702.131,338.805 627.366,290.052 556.407,348.764 579.67,262.593 501.903,213.249 591.046,208.745 613.943,119.537 "
       transform="matrix(1.022125,7.327886e-2,-7.327887e-2,1.022125,3.349235,-41.43091)" />
    <path
       style="fill:#f7df00;fill-rule:evenodd;stroke:black;stroke-opacity:1;stroke-width:1pt;stroke-linejoin:miter;stroke-linecap:butt;fill-opacity:1;"
       d="M 542.726 175.698 C 544.332 172.806 544.653 171.199 553.008 167.664 C 563.933 135.853 591.889 148.385 607.313 192.407 C 621.451 198.512 705.961 261.492 704.676 265.027 C 704.033 268.24 693.429 265.67 693.429 265.67 C 693.429 265.67 676.72 337.005 676.399 337.005 C 645.229 332.828 596.709 332.185 563.612 332.828 C 563.933 327.365 554.615 291.697 554.615 291.697 C 554.615 291.697 546.581 289.127 560.077 261.814 C 574.537 227.432 577.429 171.52 542.726 175.698 z "
       id="path564"
       sodipodi:nodetypes="cccccccccc" />
    <path
       sodipodi:type="arc"
       style="fill-rule:evenodd;stroke:#000000;fill:none;fill-opacity:1;stroke-opacity:1;stroke-width:1pt;stroke-linejoin:miter;stroke-linecap:butt;"
       id="path565"
       d="M 571.323792 162.844330 A 3.534637 3.534622 0 1 0 564.254578,162.844330 A 3.53464 3.53462 0 1 0 571.324 162.844 L 567.789185 162.844330 z"
       sodipodi:cx="567.789185"
       sodipodi:cy="162.844330"
       sodipodi:rx="3.534637"
       sodipodi:ry="3.534622" />
    <path
       style="fill:none;fill-rule:evenodd;stroke:black;stroke-opacity:1;stroke-width:1pt;stroke-linejoin:miter;stroke-linecap:butt;fill-opacity:1;"
       d="M 606.349 192.407 C 606.349 192.407 578.714 208.152 570.681 207.83 "
       id="path566" />
    <path
       style="fill:none;fill-rule:evenodd;stroke:black;stroke-opacity:1;stroke-width:1pt;stroke-linejoin:miter;stroke-linecap:butt;fill-opacity:1;"
       d="M 693.429 265.67 C 691.501 264.063 590.925 259.243 595.102 225.182 "
       id="path567"
       sodipodi:nodetypes="cc" />
    <path
       style="fill:none;fill-rule:evenodd;stroke:black;stroke-opacity:1;stroke-width:1pt;stroke-linejoin:miter;stroke-linecap:butt;fill-opacity:1;"
       d="M 611.169 266.312 C 611.169 266.312 622.094 272.739 631.412 256.03 "
       id="path568" />
    <path
       style="fill:none;fill-rule:evenodd;stroke:black;stroke-opacity:1;stroke-width:1pt;stroke-linejoin:miter;stroke-linecap:butt;fill-opacity:1;"
       d="M 623.379 265.991 C 623.379 265.991 631.091 273.06 642.338 257.637 "
       id="path569" />
    <path
       style="fill:none;fill-rule:evenodd;stroke:black;stroke-opacity:1;stroke-width:1pt;stroke-linejoin:miter;stroke-linecap:butt;fill-opacity:1;"
       d="M 554.936 291.697 C 554.936 291.697 562.005 292.661 563.291 288.484 "
       id="path570"
       sodipodi:nodetypes="cc" />
    <path
       style="fill:none;fill-rule:evenodd;stroke:black;stroke-opacity:1;stroke-width:1pt;stroke-linejoin:miter;stroke-linecap:butt;fill-opacity:1;"
       d="M 588.354 333.149 C 588.354 332.828 581.285 287.52 581.285 287.52 C 616.203 290.626 652.406 290.841 686.038 296.839 "
       id="path571"
       sodipodi:nodetypes="css" />
    <path
       style="fill:none;fill-rule:evenodd;stroke:black;stroke-opacity:1;stroke-width:1pt;stroke-linejoin:miter;stroke-linecap:butt;fill-opacity:1;"
       d="M 584.82 288.163 L 594.459 299.409 L 604.421 289.769 L 612.775 298.767 "
       id="path572" />
    <path
       style="fill:none;fill-rule:evenodd;stroke:black;stroke-opacity:1;stroke-width:1pt;stroke-linejoin:miter;stroke-linecap:butt;fill-opacity:1;"
       d="M 615.346 299.088 L 623.7 291.697 L 632.698 300.373 "
       id="path573" />
    <path
       style="fill:none;fill-rule:evenodd;stroke:black;stroke-opacity:1;stroke-width:1pt;stroke-linejoin:miter;stroke-linecap:butt;fill-opacity:1;"
       d="M 634.304 300.373 L 643.623 292.019 L 650.692 300.374 "
       id="path574"
       sodipodi:nodetypes="ccc" />
    <path
       style="fill:none;fill-rule:evenodd;stroke:black;stroke-opacity:1;stroke-width:1pt;stroke-linejoin:miter;stroke-linecap:butt;fill-opacity:1;"
       d="M 654.548 300.695 L 662.903 294.911 L 670.293 301.98 "
       id="path575" />
    <path
       style="fill:none;fill-rule:evenodd;stroke:black;stroke-opacity:1;stroke-width:1pt;stroke-linejoin:miter;stroke-linecap:butt;fill-opacity:1;"
       d="M 676.077 301.659 L 682.182 295.875 "
       id="path576"
       sodipodi:nodetypes="cc" />
    <path
       style="fill:none;fill-rule:evenodd;stroke:black;stroke-opacity:1;stroke-width:1pt;stroke-linejoin:miter;stroke-linecap:butt;fill-opacity:1;"
       d="M 583.213 298.445 L 593.496 310.335 L 603.778 301.016 L 612.775 310.656 L 623.058 301.659 L 631.734 311.941 L 642.338 302.944 C 642.338 302.944 650.371 312.905 651.335 312.905 C 652.299 312.905 661.939 304.551 661.939 304.551 L 671.258 314.833 L 684.11 304.551 "
       id="path577"
       sodipodi:nodetypes="ccccccccccc" />
    <path
       style="fill:none;fill-rule:evenodd;stroke:black;stroke-opacity:1;stroke-width:1pt;stroke-linejoin:miter;stroke-linecap:butt;fill-opacity:1;"
       d="M 584.82 310.013 C 584.82 310.013 667.723 313.227 681.218 316.44 "
       id="path578" />
    <path
       style="fill:none;fill-rule:evenodd;stroke:black;stroke-opacity:1;stroke-width:1pt;stroke-linejoin:miter;stroke-linecap:butt;fill-opacity:1;"
       d="M 598.637 272.418 C 598.637 272.418 677.362 276.595 689.894 281.415 "
       id="path579" />
    <path
       style="fill:none;fill-rule:evenodd;stroke:black;stroke-opacity:1;stroke-width:1pt;stroke-linejoin:miter;stroke-linecap:butt;fill-opacity:1;"
       d="M 582.57 239.642 C 583.213 244.462 577.429 261.171 571.324 266.955 C 562.969 273.703 563.933 287.841 563.933 287.841 C 564.897 293.625 577.429 292.982 579.036 290.091 C 580.321 276.916 594.459 274.024 594.459 274.024 C 594.459 274.024 614.061 268.562 622.415 252.174 "
       id="path580"
       sodipodi:nodetypes="cccccc" />
    <path
       sodipodi:type="arc"
       style="fill-rule:evenodd;stroke:#000000;fill:none;fill-opacity:1;stroke-opacity:1;stroke-width:1pt;stroke-linejoin:miter;stroke-linecap:butt;"
       id="path581"
       d="M 622.093872 281.414917 A 4.177307 4.177277 0 1 0 613.739258,281.414917 A 4.17731 4.17728 0 1 0 622.094 281.415 L 617.916565 281.414917 z"
       sodipodi:cx="617.916565"
       sodipodi:cy="281.414917"
       sodipodi:rx="4.177307"
       sodipodi:ry="4.177277" />
    <path
       sodipodi:type="arc"
       style="fill-rule:evenodd;stroke:#000000;fill:none;fill-opacity:1;stroke-opacity:1;stroke-width:1pt;stroke-linejoin:miter;stroke-linecap:butt;"
       id="path582"
       d="M 640.730896 283.021545 A 4.177246 4.177277 0 1 0 632.376404,283.021545 A 4.17725 4.17728 0 1 0 640.731 283.022 L 636.553650 283.021545 z"
       sodipodi:cx="636.553650"
       sodipodi:cy="283.021545"
       sodipodi:rx="4.177246"
       sodipodi:ry="4.177277" />
  </g>
</svg>
