<?xml version="1.0" encoding="UTF-8" standalone="no"?>
<!-- Generator: Adobe Illustrator 14.0.0, SVG Export Plug-In . SVG Version: 6.00 Build 43363)  -->

<svg
   xmlns:dc="http://purl.org/dc/elements/1.1/"
   xmlns:cc="http://creativecommons.org/ns#"
   xmlns:rdf="http://www.w3.org/1999/02/22-rdf-syntax-ns#"
   xmlns:svg="http://www.w3.org/2000/svg"
   xmlns="http://www.w3.org/2000/svg"
   xmlns:sodipodi="http://sodipodi.sourceforge.net/DTD/sodipodi-0.dtd"
   xmlns:inkscape="http://www.inkscape.org/namespaces/inkscape"
   version="1.1"
   id="Layer_1"
   x="0px"
   y="0px"
   width="1200px"
   height="1230px"
   viewBox="0 0 1200 1230"
   enable-background="new 0 0 1200 1230"
   xml:space="preserve"
   inkscape:version="0.48+devel r10001"
   sodipodi:docname="map-test-africa.svg"><metadata
   id="metadata127"><rdf:RDF><cc:Work
       rdf:about=""><dc:format>image/svg+xml</dc:format><dc:type
         rdf:resource="http://purl.org/dc/dcmitype/StillImage" /><dc:title /></cc:Work></rdf:RDF></metadata><defs
   id="defs125">
	
	

		
		
		
		
		
		
		
		
		
		
		
		
		
		
		
		
		
		
		
		
		
		
		
		
		
		
		
		
		
		
		
		
		
		
		
		
		
		
		
		
		
		
		
		
		
		
		
		
		
	<conquest:bonusgroup
   id="libyannorth"
   title="Libyan North" /></defs><sodipodi:namedview
   pagecolor="#ffffff"
   bordercolor="#666666"
   borderopacity="1"
   objecttolerance="10"
   gridtolerance="10"
   guidetolerance="10"
   inkscape:pageopacity="0"
   inkscape:pageshadow="2"
   inkscape:window-width="1276"
   inkscape:window-height="756"
   id="namedview123"
   showgrid="false"
   inkscape:zoom="0.40406504"
   inkscape:cx="1304.666"
   inkscape:cy="610.0878"
   inkscape:window-x="4"
   inkscape:window-y="22"
   inkscape:window-maximized="0"
   inkscape:current-layer="Layer_1" />
<g
   id="g3248"><g
     transform="translate(-111.544, -93.0071)"
     id="Skala">
		<path
   d="m 275.82,1192.493 h 244.314 v -13.557"
   id="path6"
   inkscape:connector-curvature="0"
   style="fill:none;stroke:#000000;stroke-width:3;stroke-linecap:round" />
		<path
   d="m 428.251,1192.869 v 12.804"
   id="path8"
   inkscape:connector-curvature="0"
   style="fill:none;stroke:#000000;stroke-width:3;stroke-linecap:round" />
		<path
   d="m 275.802,1178.665 v 27.729"
   id="path10"
   inkscape:connector-curvature="0"
   style="fill:none;stroke:#000000;stroke-width:3;stroke-linecap:round" />
		<text
   transform="translate(427.302, 1227.08)"
   font-size="18.1997"
   id="text12"
   style="font-size:18.1996994px;font-family:ArialMT">     </text>




		
			<text
   transform="translate(427.302, 1227.08)"
   font-size="18.1997"
   id="text14"
   style="font-size:18.1996994px;fill:none;stroke:#000000;stroke-width:1.33210003;stroke-linecap:round;font-family:ArialMT">     </text>




		<text
   transform="translate(394.929, 1227.08)"
   font-size="18.1997"
   id="text16"
   style="font-size:18.1996994px;font-family:ArialMT">1000 km</text>




		
			<text
   transform="translate(394.929, 1227.08)"
   font-size="18.1997"
   id="text18"
   style="font-size:18.1996994px;fill:none;stroke:#000000;stroke-width:1.33210003;stroke-linecap:round;font-family:ArialMT">1000 km</text>




		<text
   transform="translate(464.733, 1227.08)"
   font-size="18.1997"
   id="text20"
   style="font-size:18.1996994px;font-family:ArialMT">    </text>




		
			<text
   transform="translate(464.733, 1227.08)"
   font-size="18.1997"
   id="text22"
   style="font-size:18.1996994px;fill:none;stroke:#000000;stroke-width:1.33210003;stroke-linecap:round;font-family:ArialMT">    </text>




		<text
   transform="translate(505.131, 1171.92)"
   font-size="18.2"
   id="text24"
   style="font-size:18.20000076px;font-family:ArialMT">     </text>




		
			<text
   transform="translate(505.131, 1171.92)"
   font-size="18.2"
   id="text26"
   style="font-size:18.20000076px;fill:none;stroke:#000000;stroke-linecap:round;font-family:ArialMT">     </text>




		<text
   transform="translate(475.284, 1171.92)"
   font-size="18.2"
   id="text28"
   style="font-size:18.20000076px;font-family:ArialMT">1000 mi</text>




		
			<text
   transform="translate(475.284, 1171.92)"
   font-size="18.2"
   id="text30"
   style="font-size:18.20000076px;fill:none;stroke:#000000;stroke-linecap:round;font-family:ArialMT">1000 mi</text>




		<text
   transform="translate(540.033, 1171.92)"
   font-size="18.2"
   id="text32"
   style="font-size:18.20000076px;font-family:ArialMT">    </text>




		
			<text
   transform="translate(540.033, 1171.92)"
   font-size="18.2"
   id="text34"
   style="font-size:18.20000076px;fill:none;stroke:#000000;stroke-linecap:round;font-family:ArialMT">    </text>




		<text
   transform="translate(263.253, 1171.68)"
   font-size="18.2"
   id="text36"
   style="font-size:18.20000076px;font-family:ArialMT">     </text>




		
			<text
   transform="translate(263.253, 1171.68)"
   font-size="18.2"
   id="text38"
   style="font-size:18.20000076px;fill:none;stroke:#000000;stroke-linecap:round;font-family:ArialMT">     </text>




		<text
   transform="translate(260.72, 1171.68)"
   font-size="18.2"
   id="text40"
   style="font-size:18.20000076px;font-family:ArialMT">0</text>




		
			<text
   transform="translate(260.72, 1171.68)"
   font-size="18.2"
   id="text42"
   style="font-size:18.20000076px;fill:none;stroke:#000000;stroke-linecap:round;font-family:ArialMT">0</text>




		<text
   transform="translate(270.841, 1171.68)"
   font-size="18.2"
   id="text44"
   style="font-size:18.20000076px;font-family:ArialMT">    </text>




		
			<text
   transform="translate(270.841, 1171.68)"
   font-size="18.2"
   id="text46"
   style="font-size:18.20000076px;fill:none;stroke:#000000;stroke-linecap:round;font-family:ArialMT">    </text>




		<text
   transform="translate(262.929, 1225.66)"
   font-size="18.2"
   id="text48"
   style="font-size:18.20000076px;font-family:ArialMT">     </text>




		
			<text
   transform="translate(262.929, 1225.66)"
   font-size="18.2"
   id="text50"
   style="font-size:18.20000076px;fill:none;stroke:#000000;stroke-width:1.38680005;stroke-linecap:round;font-family:ArialMT">     </text>




		<text
   transform="translate(260.396, 1225.66)"
   font-size="18.2"
   id="text52"
   style="font-size:18.20000076px;font-family:ArialMT">0</text>




		
			<text
   transform="translate(260.396, 1225.66)"
   font-size="18.2"
   id="text54"
   style="font-size:18.20000076px;fill:none;stroke:#000000;stroke-width:1.38680005;stroke-linecap:round;font-family:ArialMT">0</text>




		<text
   transform="translate(270.518, 1225.66)"
   font-size="18.2"
   id="text56"
   style="font-size:18.20000076px;font-family:ArialMT">    </text>




		
			<text
   transform="translate(270.518, 1225.66)"
   font-size="18.2"
   id="text58"
   style="font-size:18.20000076px;fill:none;stroke:#000000;stroke-width:1.38680005;stroke-linecap:round;font-family:ArialMT">    </text>




	</g><path
     style="fill:#cccccc;stroke:#000000;stroke-linecap:round"
     inkscape:connector-curvature="0"
     d="m 726.4901,264.61086 131.972,-3.938 4.251,4.202 8.712,-1.1 0.901,-7.354 9.664,-2.669 2.046,-9.053 4.243,1.397 5.338,-5.569 -2.888,-14.259 4.618,0.163 -11.233,-10 -30.812,-50.892 -0.139,-6.177 c -7.291,-4.78 -12.686,-10.826 -15.942,-18.296 l -0.286,-4.743 -4.65,-3.384 1.214,-7.527 13.813,18.46 c 1.236,1.424 -0.153,2.448 0.962,3.993 3.61,4.999 9.826,10.041 13.49,12.969 1.871,-0.629 4.065,-0.183 4.994,-3.958 l 3.603,-23.974 -16.197,-33 c -10.937,7.653 -21.873,10.712 -32.811,-0.68 l -13.366,1.024 c -3.054,1.313 -6.305,3.313 -8.068,0.107 l -21.565,12.601 -35.713,-7.956 c -5.366,-1.103 -11.091,-2.92 -15.52,-2.146 -4.543,2.772 -7.775,0.63 -11.006,-1.522 -1.838,3.193 -3.775,6.423 -2.013,8.308 l 1.444,13.004 c -3.161,5.095 -6.078,10.318 3.912,22.318 l 7.032,119.651 z"
     id="Egypt"
     conquest:bonusgroupid="libyannorth" /><path
     style="fill:#cccccc;stroke:#000000;stroke-linecap:round"
     d="m 886.21875,565.21875 -8.28125,6.84375 c -13.842,1.928 -27.68675,3.85675 -40.96875,0.46875 l -3.3125,2.53125 0.0625,18.03125 10,6.3125 -16.53125,14.84375 -10.375,15.75 -4.27375,30.9113 c -3.21125,3.31755 -8.09738,10.63493 -13.1013,17.9012 1.807,0.431 3.26125,1.30675 4.28125,2.71875 l 0.0625,-0.0625 c 3.05008,1.59703 5.35603,6.85092 4.8125,13.9375 -0.452,5.874 -0.8255,12.54375 -0.3125,19.71875 0.765,-2.263 -0.1395,-4.844 6.9375,-4.875 5.34,-0.263 11.218,-5.9245 18.125,-22.0625 -2.16,-2.995 -7.24162,-6.21637 -4.65625,-10.3125 2.58538,-4.09612 3.94,-6.23275 6.25,-8.34375 l -7.6875,-15.59375 46.21875,-0.84375 29.65625,-44.6875 0,-19.375 -7.96875,-6.375 c -0.706,-9.92 -4.2305,-14.6655 -8.9375,-17.4375 z"
     id="Rwanda + Rep. of Burundi + Uganda"
     inkscape:connector-curvature="0"
     sodipodi:nodetypes="ccccccccccccccccscccccccc" /><path
     style="fill:#cccccc;stroke:#000000;stroke-linecap:round"
     inkscape:connector-curvature="0"
     d="m 729.9821,935.02186 -10.629,5.971 c -10.491,0.061 -11.139,6.235 -15.068,9.555 l -2.956,-8.311 -39.729,3.481 -2.265,61.54004 -16.272,-0.382 -1.096,44.416 c 4.444,5.455 10.449,11.396 13.457,15.37 2.931,3.87 1.058,11.428 -1.788,18.487 7.871,3.331 15.508,3.494 23.086,1.524 1.127,-2.99 2.672,-5.145 4.715,-6.305 3.285,-1.887 5.992,-4.293 7.001,-8.228 l 9.899,-8.256 c 6.102,0.532 10.795,2.953 15.558,6.444 10.09,0.14 16.091,-1.696 20.278,-3.827 l 1.957,-9.3 58.094,-46.425 c -7.313,-5.316 -10.963,-4.104 -15.139,-5.082 -4.207,-0.984 -9.396,-8.46004 -8,-21.31304 -4.028,-0.793 -6.607,-3.037 -8.82,-5.646 -2.528,-4.236 -5.831,-3.829 -8.769,-5.613 -4.553,-6.331 -12.927,-14.461 -13.571,-19.349 -0.312,-2.371 -1.56,-2.244 -3.336,-4.885 -2.051,-3.045 -4.751,-10.126 -6.607,-13.866 z"
     id="Botswana" /><path
     style="fill:#cccccc;stroke:#000000;stroke-linecap:round"
     d="m 948.96875,324.21875 c -1.23,2.892 -1.44775,6.423 -3.46875,8 l -11.25,5.84375 c -1.818,3.158 -4.633,4.0935 -7.625,4.0625 -4.216,20.118 -6.451,33.1045 -6.17863,41.31785 3.81166,0.003 -2.38387,30.52585 -2.38387,30.52585 -10.192,5.911 -12.3835,15.2115 -18.5625,22.8125 l -2.34375,12.875 -5.125,-0.1875 -4.90625,7.65625 0.3125,30.15625 c -1.64,3.609 -4.134,4.1555 -6.375,5.5625 l -10.25,-0.1875 0.21875,5.375 -3.5,4.1875 c 3.954,2.126 7.921,2.9535 11.875,2.0625 2.907,3.097 8.6155,5.9505 6.4375,9.4375 l 11.6875,9.34375 8.125,18.59375 11.28125,4.125 0,11.625 14.3125,1 c 7.977,3.662 14.38675,8.26975 20.21875,13.21875 l 25.78125,4 c 5.362,-1.339 8.5795,-4.81325 10.9375,-9.15625 7.135,-2.224 14.322,-5.234 20.625,0.875 2.688,1.898 7.3787,0.521 11.2187,0.5 6.475,-2.947 12.8023,-5.0725 16.9063,-8.6875 5.006,-4.407 13.7062,-9.76025 16.0313,-10.40625 l 18.8437,0.34375 48.1875,-55 -16.25,0.28125 -49.4375,-15.78125 c -13.688,-12.788 -28.8477,-25.61475 -22.4687,-32.96875 l -0.1876,-0.0625 5.6876,-8.625 c -3.5252,-2.994 -7.0376,-1.454 -10.5626,-1.625 0.9611,-4.318 5.8042,-5.28075 9.25,-7.46875 2.542,-7.866 -2.8472,-12.89025 -6.1562,-14.40625 l -0.031,0.0312 c -1.3828,-3.54067 -3.323,-6.68961 -9.6563,-6.84375 -0.326,-2.979 -1.6013,-5.647 -5.7813,-7.25 -0.888,-3.579 -3.9509,-3.482 -6.375,-4.5 -2.0439,-5.688 -7.0359,-8.82075 -11.12495,-12.71875 -4.61,1.083 -6.72425,-1.9735 -8.90625,-4.9375 l -3.5,-0.6875 -2.53125,1.5625 c -2.622,-2.156 -3.3315,-5.12675 -4.0625,-8.09375 l -3.75,-1.03125 0.9375,5.21875 c -2.272,1.391 -3.5025,-2.36125 -4.6875,-6.40625 L 962.75,356.6875 c -4.988,-23.246 -9.32125,-26.12075 -13.78125,-32.46875 z"
     id="Ethiopia + Djibuti + Eritrea"
     inkscape:connector-curvature="0"
     sodipodi:nodetypes="ccccccccccccccccccccccccccccccccccccccccccccccccccccc" /><path
     style="fill:#cccccc;stroke:#000000;stroke-linecap:round"
     inkscape:connector-curvature="0"
     d="m 200.9831,137.55886 16.029,-7.986 3.31,1.183 5.49,-4.77 9.218,0.845 0.499,-4.261 c 19.079,0.933 23.04,-4.17 26.409,-9.285 l 15.974,-6.582 5.898,0.185 -3.088,-4.086 0.813,-3.23 -0.129,-5.348 c 6.247,-0.818 13.951,0.185 13.998,-6.35 l 25.844,0.359 3.587,-7.432 c -4.954,-1.818 -5.84,-8.981 -5.177,-16.593 0.493,-5.651 0.046,-18.509 0.046,-18.509 -1.71,-2.063 -3.84,-4.006 -4.333,-6.97 1.382,-0.614 7.868,0.449 11.806,-4.825 2.029,-2.719 4.622,-8.205 8.007,-7.134 3.951,1.252 11.521,2.042 11.984,-0.466 0.495,-2.683 7.83,-8.587 18.422,-8.552 19.401,0.063 44.467,-7.318 52.658,-4.919 8.19,2.399 18.858,-3.188 23.594,-2.884 4.769,0.306 6.207,5.508 12.713,1.082 2.432,-1.654 11.213,5.226 19.582,2.789 0,0 -4.997,2.219 -5.279,7.349 -0.434,7.901 -1.166,32.494 -1.166,32.494 -0.831,-1.329 -6.779,-0.332 -7.715,3.682 -1.271,5.454 -7.409,4.043 -7.896,6.799 -0.98,5.546 3.859,10.64 9.56,15.615 1.461,1.275 -0.538,8.339 0.909,9.631 4.415,3.939 12.241,6.621 12.241,6.621 1.817,18.073 5.035,30.554 5.035,30.554 -8.282,0.554 -3.856,8.241 1.721,16.447 l 0.348,47.01 c 0,0 -7.481,1.517 -6.965,3.445 1.16,4.329 1.432,7.529 6.898,12.396 3.51,3.123 3.575,8.393 3.272,11.854 -0.349,3.994 3.681,5.804 4.734,5.778 8.208,-0.198 15.146,-4.193 22.922,17.245 l -98.328,64.618 c -14.593,6.285 -38.629,10.045 -39.456,9.681 -5.482,-2.411 0.872,-8.447 -0.967,-12.484 -1.841,-4.043 -4.061,-7.083 -10.309,-6.406 -3.324,0.36 -5.068,-3.915 -6.384,-3.697 -5.32,0.881 -6.675,-5.164 -7.851,-6.239 -4.666,-4.269 -9.299,-5.51 -8.238,-9.39 l -143.694,-109.537 3.454,-29.727 z"
     id="Algeria" /><path
     style="fill:#cccccc;stroke:#000000;stroke-linecap:round"
     inkscape:connector-curvature="0"
     id="Angola"
     d="m 508.67611,927.71092 c 3.59,-0.953 7.473,-5.715 10.694,-1.889 3.199,-3.956 12.082,-11.785 26.44,2.873 l 72.149,-0.987 7.729,6.738 45.478,5.883 28.766,-6.477 -19.444,-17.353 1.488,-61.456 34.695,1.03 -3.771,-4.022 4.086,-32.499 c -0.467,0.117 -1.002,-0.121 -1.457,0.044 -8.363,3.047 -17.254,2.343 -26.225,2.522 l -3.118,6.113 -5.688,-4.792 6.342,-8.448 -8.562,-17.347 -1.308,-38.929 -14.822,1.052 0.005,-7.029 -6.585,-0.963 -1.729,3.127 -12.104,-0.623 -4.598,17.622 c -6.009,-1.083 -11.558,-2.562 -20.559,1.988 -7.952,-2.557 -15.151,3.402 -26.407,-36.529 l -4.259,-2.545 -45.582,-0.734 -20.738,7.119 c 5.194,14.939 16.164,23.424 15.793,45.519 l -3.566,3.42 c 2.944,9.978 5.57,20.415 12.124,25.179 0.646,2.794 -0.769,4.825 -0.952,6.924 -0.672,7.678 -4.708,29.441 -6.48,25.562 0,0 -7.309,1.597 -7.964,7.482 -0.319,2.867 -3.857,3.272 -5.172,6.806 -3.676,9.879 -7.55,25.549 -10.342,39.794 -0.324,1.65 -2.477,0.926 -2.742,2.5 -0.767,4.536 0.086,7.759 -0.199,12.572 -0.086,1.439 -1.915,-0.972 -2.269,0.809 -0.435,2.2 1.337,8.436 0.853,9.944 z" /><path
     style="fill:#cccccc;stroke:#000000;stroke-linecap:round"
     d="m 756.1389,547.57054 -18.46875,1.59375 0,3 -8.21875,1.5 -1.3125,-3.15625 -20.96875,7.4375 c -5.869,-4.257 -8.03075,-1.95175 -11.46875,-2.09375 l -3.6875,8.03125 c -17.411,-0.658 -24.66225,-0.6825 -27.53125,-4.5625 -5.513,6.072 -6.874,-1.41625 -10.25,-2.28125 -1.907,-8.876 -6.95675,-6.22475 -10.46875,-9.21875 -6.499,4.362 -10.0225,8.73275 -13.0625,13.09375 0.04,6.07 -0.94525,11.1175 -2.65625,15.4375 -2.924,8.719 -6.4195,14.92125 -10.0625,24.40625 -4.778,12.44 -3.689,31.5995 -6.125,48.5625 -12.636,5.728 -16.658,14.93 -23.125,23.125 l -5.03125,24.125 c -9.122,8.927 -17.60375,20.38475 -28.59375,21.84375 -0.668,-13.458 -12.343,-6.9865 -13.625,-1.6875 -5.552,3.668 -7.363,-0.1505 -10.5,-1.3125 0.0715,-0.0644 0.14737,-0.12307 0.21875,-0.1875 -2.674,-3.56 -5.41125,-5.8525 -8.78125,2.0625 l -8.0625,4.875 c 2.124,1.925 2.08925,4.20075 2.15625,6.46875 -0.551,2.398 1.04325,4.3725 1.52162,5.62375 l 1.97838,7.18875 20.84375,-7.125 45.5625,0.8125 4.21875,2.46875 c 10.361,38.416 18.78675,34.626 26.21875,36.5 11.58,-4.846 14.6555,-2.12925 20.8125,-2.15625 l 4.5,-17.46875 12.15625,0.6875 1.5625,-3.1875 6.75,1.03125 0.0937,7.0625 14.6875,-1.0625 1.53125,38.6875 8.34375,17.40625 -6.375,8.65625 5.8125,4.90625 3.125,-6.21875 19.21875,-0.34375 6.9688,-2.34375 6.0625,-0.0937 2.1875,8.59375 11.1875,-3.71875 c 0.603,2.583 1.73875,4.491 3.21875,5.875 3.64,3.402 10.433,8.06225 16.5,8.15625 4.276,0.065 7.72275,-4.31925 11.46875,-3.53125 5.108,7.083 11.162,9.13025 17.5,9.65625 4.711,7.307 7.855,16.15825 21.25,14.78125 l 5.25,3.65625 -0.375,-18.6875 c -9.303,2.99 -14.942,-1.34275 -19.75,-7.34375 0.949,-7.38 3.94575,-14.09225 7.34375,-20.65625 0.297,-7.589 -0.73075,-14.5875 -2.59375,-22.1875 -0.408,-1.664 1.76125,-7.869 4.53125,-11.5 l 30.15625,-7.375 c -3.123,-16.906 -14.098,-20.3445 -17.25,-32.3125 -3.857,-14.649 -5.7415,-32.20975 -3.6875,-49.34375 -0.571,-8.021 -4.22625,-12.27225 -9.53125,-14.53125 l 9,-12.875 7.28125,-8 1.125,-28.03125 10.21875,-15.53125 16.46875,-14.8125 -9.9375,-6.46875 0.0625,-17.65625 -20.5625,-17.4375 c -1.835,0.172 -2.68375,1.9765 -3.96875,3.0625 -4.141,1.288 -7.94825,-0.71 -11.90625,-1.25 -2.13,4.768 -10.9005,2.2835 -11.9375,-0.4375 -0.303,-0.793 0.3865,-2.39775 -0.8125,-2.84375 -2.59,-3.497 -5.25275,-5.8585 -7.84375,-8.0625 l -8.5625,0.40625 -2.8125,3.21875 -3.125,-2.625 -1.96875,3.0625 -4.09375,-5.34375 z"
     id="Democratic Rep. of Congo"
     inkscape:connector-curvature="0"
     sodipodi:nodetypes="cccccccccccccsccccccccccccccccccccccccccccccccccccccccccccccccccccccccccccccccccc" /><path
     style="fill:#cccccc;stroke:#000000;stroke-linecap:round"
     d="m 315.15625,381.8125 c -8.32606,0.31269 -19.8515,7.6495 -29.375,13.53125 -3.011,4.044 -7.97475,7.22025 -13.46875,9.15625 -5.711,2.012 -12.329,2.93175 -19.625,5.34375 l -8.5,17.8125 c -6.961,3.828 -10.93775,8.302 -13.21875,13.125 -2.555,5.399 -1.27225,12.07525 -3.15625,17.15625 1.735,3.907 3.0225,8.13875 12.4375,12.84375 7.731,-4.77 17.4295,-8.39425 22.5625,-3.53125 2.604,2.468 3.72325,6.7565 6.90625,7.1875 L 272.125,495.5 c -6.792,4.022 -6.2645,10.8815 -7.1875,17.1875 -9.928,8.338 -2.6135,17.19775 -2.0625,25.84375 l -2.625,10.8125 19.40625,7.09375 c 15.343,-6.002 24.02725,-15.328 46.03125,-18 4.39424,2.56256 4.62171,-1.81447 6.1875,-3.96875 l 12.0625,-3.40625 15.4375,-2 0.9375,-38.4375 c 3.743,-2.967 5.998,-11.44 8.625,-18.5 4.338,0.146 5.5215,-5.25425 5.1875,-11.78125 3.658,-2.192 4.5375,-9.19525 -0.3125,-14.40625 l -0.0937,-13.5625 -17.09375,-2.75 -3.1875,5.15625 3.09375,-5.21875 -3.8125,-0.84375 C 350.46275,416.27075 345.8735,421.932 344.9375,423 l -6.40625,-2.125 -16.8125,-22.625 c 0.578,-3.177 1.17375,-6.35925 -1.65625,-8.28125 -1.689,-2.378 -1.6785,-5.10575 -1.5625,-7.84375 -1.04325,-0.26663 -2.15431,-0.35717 -3.34375,-0.3125 z"
     id="Benin+Togo+Burkina_Faso+Ghana"
     inkscape:connector-curvature="0"
     sodipodi:nodetypes="sccccccccccccccccccccccccccccccccs" /><path
     style="fill:#cccccc;stroke:#000000;stroke-linecap:round"
     inkscape:connector-curvature="0"
     d="m 184.7841,561.11186 6.397,0.604 50.845,-14.391 18.244,2.045 2.642,-10.808 c -0.551,-8.646 -7.891,-17.492 2.037,-25.83 0.923,-6.305 0.412,-13.167 7.204,-17.19 l -2.321,-21.263 c -2.795,0.06 -3.962,-2.841 -5.427,-5.358 -3.256,-5.599 -14.175,-4.938 -24.264,1.949 -4.804,-3.398 -10.401,-5.737 -12.281,-13.033 -6.741,-2.486 -11.99,-1.135 -16.329,2.56 l 0.785,-7.274 c -1.057,-2.765 -4.852,-1.97 -9.316,-0.305 -1.125,0.127 -0.337,1.894 0.925,4.064 -1.636,0.619 -3.272,0.709 -4.908,1.021 -1.139,1.401 -2.781,2.886 -4.601,3.267 -4.572,-8.012 -7.223,-6.504 -12.656,-2.1 -1.861,1.51 -3.079,5.159 -3.84,8.345 -0.856,3.59 0.68,7.055 4.597,6.553 l -0.364,4.836 c 2.794,1.25 2.192,1.747 -0.409,4.485 -1.175,1.236 3.295,6.898 2.764,8.234 l -8.584,-1.707 c -0.229,1.354 -0.531,3.301 -0.655,4.796 l 4.039,1.729 -3.155,8.399 c 0.412,0.658 -3.815,0.233 -4.853,0.375 l 0.063,5.26 c 4.386,1.181 1.99,11.455 -2.127,13.127 l 6.037,3.791 c 1.329,-1.041 5.058,-0.131 7.479,6.476 0,0 6.02,3.783 5.889,8.547 -0.104,3.779 -2.657,4.381 -3.348,7.31 l -0.509,11.486 z"
     id="Ivory Coast" /><path
     style="fill:#cccccc;stroke:#000000;stroke-linecap:round"
     d="m 75.65625,343.125 c -2.695796,0.0916 -4.72,0.59234 -6.53125,0.6875 -8.648,0.453 -10.39975,1.50875 -17.96875,0.21875 -2.99,5.14 -5.039,7.827 -5.125,12 -0.198,9.537 -9.70575,12.59725 -14.46875,19.53125 4.433,6.461 9.249,12.79975 10,20.34375 L 41.5,395.96875 38.25,404.25 c -0.0022,0.01 0.0022,0.0213 0,0.0312 -0.941484,4.32801 -1.812127,8.64073 -1,12.96875 7.415813,-0.59999 6.095338,0.0403 0.15625,0.21875 l 1.125,3.09375 c 2.326,1.593 6.7005,-1.565 6.4375,6 2.116,1.105 4.732,-1.12025 6.25,3.96875 2.596,1.312 9.1935,-10.9185 6.8125,7.3125 l 5.75,6.3125 c -0.03508,0.0405 -0.09499,0.12654 -0.125,0.15625 -0.577,1.798 -0.43075,2.6835 1.90625,2.6875 0.944,1.132 4.262,-6.84525 3.75,1.21875 l 2.96875,0.3125 c -1.008,4.479 2.05875,9.97575 4.96875,10.96875 3.746,1.278 5.816,5.61725 7.875,7.53125 l 5.0625,9.34375 c 0.875,0.59625 1.842266,0.92289 2.90625,0.9375 -0.919207,0.0374 -1.860055,-0.0982 -2.8125,-0.46875 l 0.875,13.6875 c 2.545,2.075 6.35775,3.385 5.96875,9.125 4.129,2.158 8.165,4.3745 9.625,8.4375 l 13.125,6.65625 0.0625,-0.0312 50.4375,41.3125 14.3125,5.03125 0.6875,-12 c 8.173,-9.804 -1.653,-13.92775 -2.5,-15.09375 -3.941,-8.32 -5.5655,-6.943 -7.4375,-6.625 l -6.59375,-4.03125 c 2.27,-0.407 3.0045,-2.4555 4.0625,-4.4375 1.993,-3.738 0.46125,-7.8245 -1.59375,-8.6875 l 0,-4.71875 c 1.25395,0.23446 2.97411,-0.65934 4.625,-0.25 l 3.5,-8.96875 -4.28125,-1.71875 0.8125,-4.71875 8.71875,1.78125 c -0.667,-3.212 -4.99825,-7.40375 -1.78125,-9.59375 1.441,-1.483 0.7755,-2.61925 -0.6875,-3.65625 l 0.1875,-4.125 c -8.45,-1.011 -3.63475,-10.35475 -0.71875,-15.09375 l -5.1875,-4.71875 -0.59375,-10.34375 -4.25,3.15625 -1.625,-2.40625 5.71875,-5.21875 -7.71875,-5.84375 c 1.272,-4.097 -0.4165,-9.014 -1.8125,-14.125 l -5.4375,-1.15625 c 0.084,2.334 -0.71275,4.07875 -3.09375,4.84375 -2.033,-0.611 -3.289,0.69925 -3.75,3.90625 l -9.59375,-3.96875 -7.65625,5.53125 c 0.967,-2.479 -1.5045,-3.9645 -3.0625,-5.8125 l -4.1875,2.84375 c -3.287,1.106 -3.7265,-0.68625 -3.6875,-2.90625 0.676,-0.721 1.52325,-1.26825 1.78125,-2.40625 -1.17402,-0.18233 -2.34865,-0.3276 -3.53125,-0.46875 1.22698,0.0811 2.44506,0.13989 3.65625,0.21875 0.566,-6.269 4.06125,-12.482 -9.59375,-22 2.096,-2.698 1.30275,-8.92225 -0.53125,-13.40625 -1.038,-2.536 0.9743,-3.32425 0.0312,-6.03125 -1.297,-0.723 -2.8765,-2.78175 -5.0625,-4.84375 -2.444,-2.308 -7.40625,-8.9375 -7.40625,-8.9375 -2.904,-8.713 -6.65625,-12.28125 -6.65625,-12.28125 -8.915,1.459 -14.40625,-8.5625 -14.40625,-8.5625 -2.85375,-0.771 -5.198488,-1.03664 -7.1875,-1.0625 -0.414378,-0.005 -0.802386,-0.0131 -1.1875,0 z"
     id="Gambia+Senegal+Guinea+Guinea-Bissau+Sierra_Leone+Liberia"
     inkscape:connector-curvature="0"
     sodipodi:nodetypes="cccccccccccccccccccccccccccccccccccccccccccccccccccccccccccccccccccccccccccc" /><path
     style="fill:#cccccc;stroke:#000000;stroke-linecap:round"
     inkscape:connector-curvature="0"
     d="m 582.9531,608.78886 c -4.477,-1.97 -9.832,-6.433 -12.992,-4.672 l -11.288,-4.027 -22.589,-0.207 h -35.465 l -24.154,0.265 2.451,-18.526 -6.352,-8.205 2.382,-2.911 -1.588,-2.382 -4.234,1.323 c -5.231,-0.649 -7.104,-4.352 -8.331,-8.642 -2.825,-1.062 -6.777,-0.68 -6.755,-5.386 5.941,-10.284 7.232,-24.325 18.829,-30.042 l 0.404,-4.533 16.558,-0.784 c 6.184,3.971 4.209,8.533 14.712,7.201 7.271,-13.125 12.545,-37.237 22.016,-38.272 5.734,-14.116 7.436,-34.146 17.203,-42.347 4.813,-1.72 8.919,-3.762 10.7,-6.859 1.039,-1.809 1.287,-7.657 0.421,-10.331 -0.622,-1.923 -1.819,-0.425 -3.711,-2.924 l -2.842,-10.84 2.301,-1.864 8.746,7.41 c 1.242,6.065 4.265,11.687 3.678,18.209 -0.634,9.487 -4.55,10.844 4.91,21.668 1.611,2.685 1.978,5.524 1.631,8.454 l -17.63,-1.75 c -1.966,4.812 -6.324,15.74 11.047,19.597 l 8.193,24.614 -15.271,25.396 2.129,18.538 c 6.444,11.88 13.91,24.253 24.338,33.865 l 0.553,18.964 z"
     id="Cameroon" /><path
     style="fill:#cccccc;stroke:#000000;stroke-linecap:round"
     inkscape:connector-curvature="0"
     d="m 1015.5761,664.11086 c -2.197,3.432 -4.604,6.603 -9.435,6.744 -1.799,4.765 -4.121,9.115 -10.103,10.577 -6.587,11.898 -11.596,25.57 -19.824,35.622 l -23.012,-15.42 -3.615,-13.409 -70.107,-44.024 23.074,-35.278 0.492,-19.766 -7.926,-6.533 c -0.984,-7.629 -2.769,-14.523 -9.045,-17.3 l 8.16,-7.133 22.812,-1.031 14.192,1.215 c 4.865,2.514 7.447,2.602 20.319,13.333 l 25.842,3.884 c 4.124,-1.42 7.955,-3.528 10.826,-9.271 6.239,-0.901 12.857,-6.3 20.955,1.4 2.651,0.941 6.895,0.542 11.099,-0.068 -4.82,7.704 -9.888,13.917 -14.921,20.338 l 0.427,64.114 9.79,12.006 z"
     id="Kenya" /><path
     style="fill:#cccccc;stroke:#000000;stroke-linecap:round"
     inkscape:connector-curvature="0"
     d="m 510.4281,78.56786 c 0,0 2.498,9.674 -4.972,14.979 -3.758,2.669 -16.044,11.679 -16.044,11.679 1.042,5.499 2.328,19.254 -9.604,21.128 -8.201,1.287 -3.903,7.917 1.581,16.909 l 0.349,46.824 c 0,0 -7.297,1.425 -6.78,3.354 1.16,4.329 1.247,7.437 6.713,12.303 3.51,3.123 3.575,8.763 3.272,12.224 -0.349,3.994 4.144,5.712 5.197,5.687 8.208,-0.199 14.685,-4.102 22.46,17.337 l 38.566,1.188 c 4.494,0.951 9.253,7.835 9.253,7.835 l 22.087,-6.275 130.045,64.3 -0.234,-10.444 c 14.377,1.171 16.028,-0.484 16.028,-0.484 l -8.887,-151.927 c -5.223,-7.167 -10.371,-14.193 -4.092,-22.142 0,0 0.042,-8.431 -1.53,-13.213 -1.636,-4.978 2.852,-8.362 2.852,-8.362 -0.07,-6.441 -12.435,-5.952 -18.94,-6.286 -8.537,-0.438 -14.273,-1.608 -12.787,-8.003 0,0 -22.316,-8.013 -30.953,-2.73 -4.589,2.807 -14.265,7.291 -16.026,13.041 -1.185,3.865 -0.124,6.486 2.18,10.412 4.034,6.873 -9.587,30.471 -25.157,11.586 0,0 -20.452,-5.63 -32.004,-8.155 -11.306,-2.471 -19.107,-12.385 -14.415,-18.386 0.459,-0.586 -30.685,-9.596 -30.685,-9.596 -14.384,2.224 -24.915,-1.982 -27.473,-4.783 z"
     id="Libya"
     conquest:bonusgroupid="libyannorth" /><path
     style="fill:#cccccc;stroke:#000000;stroke-linecap:round"
     inkscape:connector-curvature="0"
     d="m 1069.9931,1078.4809 47.992,-102.13904 c 3.67,-11.525 5.846,-23.05 11.263,-34.575 3.674,-4.858 8.334,-9.365 5.401,-16.583 l 1.043,-9.907 c 0.538,-2.994 2.188,-2.932 4.692,-0.521 l 1.47,5.983 c 1.784,-0.566 3.534,-1.174 3.396,-4.143 l -4.865,-52.939 -9.175,-9.944 -5.304,4.393 -1.38,13.589 -3.065,2.696 c -1.61,-0.49 -3.966,-2.918 -3.271,2.586 l -4.551,4.993 c -5.176,-9.601 -5.941,-1.083 -4.54,3.065 -0.137,1.812 0.372,4.914 -2.085,2.086 l -3.708,5.983 5.271,3.923 h -3.128 l -6.778,4.909 1.043,-5.951 -6.779,6.778 1.564,8.343 -4.571,0.184 0.896,-3.739 c -4.223,-2.776 -7.658,3.104 -11.445,5.119 l 4.172,6.778 -5.215,0.521 -2.086,-6.257 -8.405,1.38 c 0.263,2.956 -3.135,3.82 -6.194,4.877 l -0.521,-4.171 -4.692,4.692 -8.19,0.4 -1.596,7.053 -11.07,16.011 c 8.457,7.434 5.03,24.204 7.3,36.5 -3.114,9.919 -9.16,17.491 -14.6,25.55004 -6.326,4.177 -9.182,8.354 -10.144,12.531 -0.923,4.008 -2.866,11.887 -1.692,15.895 1.369,4.677 3.956,3.086 4.072,7.763 l 1.539,7.671 c -7.738,29.794 11.519,29.348 15.668,36.623 1.887,-0.858 4.285,0.602 6.128,-0.393 4.093,-2.208 9.326,-7.662 14.795,-5.85 4.574,1.517 8.006,-0.218 11.345,-1.763 z"
     id="Madagascar" /><path
     style="fill:#cccccc;stroke:#000000;stroke-linecap:round"
     inkscape:connector-curvature="0"
     d="m 248.8661,206.17086 -25.483,0.686 1.204,147.051 6.721,2.374 -4.711,14.377 -75.104,-4.249 -8.644,6.059 -4.723,-1.744 -3.271,-9.709 -4.294,-1.147 c -8.457,18.489 -9.755,16.338 -12.896,19.501 0.513,1.891 -0.72,3.695 -0.112,5.427 1.903,5.419 3.097,10.916 0.232,13.26 3.912,3.483 8.96,6.256 10.411,11.276 0.279,6.403 -0.07,11.342 -1.793,13.076 -1.707,1.71 0.32,5.697 3.869,2.711 l 3.451,-2.097 c 1.134,1.807 3.636,2.794 3.271,5.502 l 7.605,-5.2 9.287,3.858 c 0.943,-1.423 -0.24,-3.556 3.372,-4.089 1.897,0.052 3.231,-1.304 3.791,-4.596 l 5.098,1.237 c 1.372,4.802 3.044,9.647 2.163,14.127 l 7.523,5.681 -5.746,5.26 1.591,2.402 4.191,-2.794 0.622,10.063 5.294,4.864 c 2.171,-2.154 5.636,-4.87 8.257,-3.509 2.472,1.284 3.623,6.31 5.954,4.74 2.438,-1.641 2.896,-3.176 6.673,-3.171 2.846,0.004 -2.439,-4.915 1.104,-4.813 1.646,0.048 4.218,-1.891 7.063,-1.143 2.728,0.717 -0.664,10.876 1.335,8.695 4.956,-5.407 14.831,-3.313 15.785,-2.104 2.765,-9.899 -2.639,-19.029 16.328,-30.458 l 8.371,-17.632 c 11.159,-4.682 23.137,-2.551 33.397,-14.727 12.899,-8.617 25.79,-15.097 32.756,-13.165 l 13.022,0.014 7.318,-6.245 35.029,0.438 c 0.888,-1.72 1.376,-2.984 6.215,-5.363 0.038,-4.229 3.831,-4.462 6.467,-5.794 l 1.375,-51.91 -13.15,1.896 c -5.193,-3.376 -0.825,-4.452 -0.777,-11.961 -2.961,-6.667 -6.726,-7.67 -10.424,-7.013 -3.248,0.578 -4.71,-4.028 -6.414,-3.681 -2.935,0.598 -6.149,-2.219 -8.096,-6.363 -0.661,-1.409 -2.479,-2.051 -3.708,-2.896 -2.732,-1.876 -5.224,-3.318 -4.517,-6.244 0.004,0.001 -62.547,-47.775 -92.282,-70.758 z"
     id="Mali" /><path
     style="fill:#cccccc;stroke:#000000;stroke-linecap:round"
     d="m 866.625,796.21875 11.8125,23.375 -4.09375,3.03125 -4.28125,22.3125 4.90625,6.40625 -7.21875,0.8125 -9.25,17.15625 5.25,7.25 c 0.056,0.0242 0.13022,0.0193 0.1875,0.0312 -0.13263,0.0304 -0.27175,0.0571 -0.40625,0.0937 l -50.25,16.3125 3.53125,9.25 -0.28125,4.625 12.21875,0.90625 28.65625,11.15625 c 2.934,16.013 1.05825,29.40525 -3.59375,41.28125 -0.126,2.325 -0.906,4.52625 -0.625,6.65625 0.529,3.994 2.51625,9.51075 0.28125,14.09375 -5.755,11.799 -11.14425,23.60695 -12.53125,24.37505 -4.752,2.6299 -10.6485,10.3087 -10.8125,16.4687 l 2.84375,70.75 10.84375,0.7187 2.875,-10.0312 -4.34375,1.625 c 0.665,-3.963 -0.25675,-7.912 3.90625,-11.875 l 34.78125,-13.75 c 4.305,-3.16 6.97475,-7.9363 9.96875,-12.4062 l -4.0625,-1.4063 7.1875,-27.1875 -3.6875,-1.25 -3,-22.875 c -9.848,-6.039 -4.12925,-15.39875 -0.15625,-17.59375 l 21,-17.875 1.71875,3.5625 7.8125,-8.59375 -1.71875,-2.65625 5.0625,-0.9375 1.5,-4.375 25.75,-12.65625 6.4375,0.0625 c 4.876,-3.693 8.79725,-7.66275 15.90625,-10.71875 l -0.46875,-3.8125 8.59375,-6.625 c 2.059,-2.113 3.806,-5.26625 6.5,-5.15625 l 0.375,-4.25 -1.625,-1.8125 4.6875,-7.03125 1.1875,-4.6875 -0.75,-3.0625 -2.875,-4.375 1,-17.21875 c -2.193,-2.131 -0.9855,-3.57425 0.1875,-5.03125 L 987,840.25 l 6.90625,-11.625 c 0.178,-3.186 0.44425,-6.34525 -0.71875,-9.53125 -10.592,6.303 -28.32425,17.254 -37.28125,11.625 -3.924,0.479 -8.328,0.46925 -12.125,5.40625 -3.224,-0.301 -6.144,-0.8925 -10,-0.5625 l -12.65625,2.28125 c -2.301,-2.75 -4.63275,-5.482 -9.96875,-2.5 L 892.6875,834.75 l 0.0312,-0.1875 -9.9375,-32.84375 c -8.91,-1.452 -12.71725,-2.483 -16.15625,-5.5 z m -1.09375,80.1875 c 0.41422,-0.0264 0.87669,0.0794 1.40625,0.4375 -0.5105,-0.28148 -1.03162,-0.38804 -1.5625,-0.40625 0.0535,-0.007 0.10107,-0.0277 0.15625,-0.0312 z"
     id="Malawi+Mosambique"
     inkscape:connector-curvature="0"
     sodipodi:nodetypes="cccccccccccccccccccccccccccccccccccccccccccccccccccccccccccccccccccccc" /><path
     style="fill:#cccccc;stroke:#000000;stroke-linecap:round"
     inkscape:connector-curvature="0"
     d="m 198.9331,157.45086 2.576,-19.744 15.475,-7.987 3.494,0.999 5.491,-4.493 9.125,0.66 0.499,-4.353 c 19.079,0.932 22.947,-4.17 26.317,-9.286 l 15.974,-6.489 h 5.99 l -2.995,-3.993 0.998,-3.693 -0.499,-4.793 c 6.247,-0.817 13.952,0.185 13.998,-6.35 l 25.937,0.359 3.494,-7.986 c -4.954,-1.818 -5.84,-8.981 -5.177,-16.593 0.493,-5.651 0.046,-18.509 0.046,-18.509 -1.71,-2.063 -3.84,-4.006 -4.332,-6.97 -4.159,-0.767 -9.265,-0.859 -11.004,-3.354 -6.038,-1.037 -12.02,-1.588 -17.419,-1.045 -9.885,0.994 -13.953,-2.567 -18.022,-11.934 -9.52,-0.621 -19.613,19.836 -26.956,29.95 -17.757,4.938 -30.607,12.943 -39.436,23.462 1.18,4.276 -0.893,5.923 -5.202,8.746 -2.785,1.825 -12.583,17.465 -9.273,26.196 0.041,6.822 -5.276,18.192 -20.557,25.758 0,0 -7.125,6.659 -18.394,10.336 -4.754,1.551 -15.776,2.787 -19.111,5.862 l 68.963,5.244 z"
     id="Morocco" /><path
     style="fill:#cccccc;stroke:#000000;stroke-linecap:round"
     inkscape:connector-curvature="0"
     d="m 116.5021,262.64086 c 2.054,-14.697 -7.082,-35.352 21.465,-35.941 l 5.99,-44.427 50.916,4.492 2.756,-19.965 51.315,39.404 -25.56,0.621 1.296,147.157 6.469,2.306 -4.36,14.294 -75.333,-4.149 -8.587,6.072 -4.635,-1.521 -3.275,-9.978 -4.555,-1.127 c 0,0 -8.313,20.509 -13.605,18.435 0,0 -2.354,-2.554 -5.016,-5.306 -2.346,-2.423 -4.902,-4.824 -6.715,-8.243 -2.521,-4.755 -4.266,-12.389 -7.739,-11.843 -7.393,1.161 -13.026,-8.643 -13.026,-8.643 0,0 -8.613,-2.39 -14.787,-0.675 -7.98,2.216 -16.994,-0.084 -18.603,0.96 l 7.325,-20.35 0.747,-23.721 -4.461,-7.126 c 2.385,-4.217 9.672,-8.105 4.909,-20.73 -0.545,-1.444 -3.139,-0.666 -3.139,-0.666 l -3.076,-9.281 3.78,-3.79 59.504,3.741 z"
     id="Mauretania" /><path
     style="fill:#cccccc;stroke:#000000;stroke-linecap:round"
     inkscape:connector-curvature="0"
     d="m 509.1891,927.45086 c 0.711,9.319 1.581,18.582 10.126,25.159 l 35.296,62.85504 0.898,28.845 6.298,13.35 c 0.354,5.198 -1.563,10.396 1.631,15.595 l 4.385,24.552 19.168,21.345 c 11.908,-12.789 16.241,-2.46 19.225,5.732 7.288,-0.69 14.576,-1.362 21.864,-0.097 3.414,-3.085 6.904,-6.14 12.28,-8.439 l 2.804,-109.556 16.209,0.525 2.328,-61.69204 39.576,-3.492 3.042,8.273 c 2.849,-3.128 6.746,-8.887 12.57,-9.152 5.261,-0.239 7.833,-3.649 13.013,-6.405 l -3.793,-5.519 -25.482,4.242 -28.45,6.621 -46.047,-6.146 -7.71,-6.483 -72.52,0.839 c -3.463,-4.587 -16.584,-15.031 -26.068,-2.716 -3.208,-3.831 -7.079,0.967 -10.643,1.764 z"
     id="Namibia" /><path
     style="fill:#cccccc;stroke:#000000;stroke-linecap:round"
     inkscape:connector-curvature="0"
     d="m 388.2081,313.34086 -1.434,51.949 c -2.297,1.334 -5.49,-0.026 -6.364,5.577 -2.554,1.481 -5.701,2.519 -6.267,5.491 l -35.108,-0.339 -7.134,5.994 -13.282,0.072 c -0.384,2.86 -0.315,6.438 1.945,8.208 2.006,1.57 1.711,4.877 1.202,7.79 l 16.797,22.41 6.094,2.277 c 3.378,-2.964 6.456,-3.834 7.987,6.129 l 20.803,2.952 c 1.451,-3.325 1.102,-7.938 4.871,-9.606 5.659,-3.2 4.734,-8.795 6.753,-13.319 4.62,-2.203 1.666,-5.336 26.079,-5.108 6.313,3.969 12.406,5.297 19.055,13.277 l 4.896,0.2 c 0.14,-1.674 5.078,-5.114 8.097,-5.688 3.271,-1.779 9.086,1.317 16.836,8.123 l 13.807,1.236 13.259,-9.509 23.18,-0.595 c 3.496,1.366 6.086,4.492 11.245,3.199 3.706,-4.172 10.795,-8.154 18.938,-11.588 -1.264,-3.69 -2.686,-7.293 -1.507,-12.03 1.986,-1.67 4.428,-1.934 4.668,-8.146 l 28.005,-31.077 5.194,-49.556 3.955,-9.965 c -8.006,-3.278 -13.489,-6.385 -15.246,-17.437 -0.957,-6.02 0.408,-13.79 -0.187,-25.03 l -4.986,0.855 c -2.737,-3.222 -5.388,-6.675 -8.889,-7.86 l -39.266,-1.43 -99.483,65.587 -24.513,6.957 z"
     id="Niger" /><path
     style="fill:#cccccc;stroke:#000000;stroke-linecap:round"
     inkscape:connector-curvature="0"
     d="m 454.0041,555.60586 -3.364,-0.157 -1.104,5.889 c -5.767,0.14 -11.533,-0.47 -17.3,-2.576 -13.774,8.575 -24.685,7.173 -30.314,-12.618 -4.28,-11.047 -11.207,-14.633 -18.543,-17.067 l -23.968,0.138 1.048,-38.254 c 3.803,-4.84 6.17,-11.596 8.306,-18.659 6.409,-1.577 5.041,-7.212 5.334,-11.98 6.406,-4.243 2.207,-10.9 -0.431,-15.36 l 0.414,-12.444 c 0.545,-3.528 -0.257,-7.345 4.804,-10.585 1.97,-2.422 3.939,-1.242 5.91,-13.086 3.512,-2.699 7.221,-5.355 26.135,-4.754 6.611,3.457 15.028,6.263 19.617,13.386 l 4.257,-0.204 c 2.747,-1.935 3.596,-5.347 8.59,-5.533 2.848,-0.061 3.016,-2.8 16.529,7.806 l 14.088,1.316 13.084,-9.431 23.453,-0.458 c 3.422,1.426 6.226,4.552 10.661,3.19 5.862,-5.837 12.974,-8.855 19.66,-11.672 2.672,4.284 6.392,8.471 9.727,11.143 l -2.226,1.778 2.819,11.346 c 1.311,0.991 3.695,1.338 3.756,3.08 2.518,11.128 -3.719,14.571 -11.096,17.028 -9.394,7.31 -11.754,27.367 -17.151,41.92 -10.494,3.1 -13.989,22.506 -22.014,38.463 -7.741,1.511 -9.7,-2.258 -14.558,-7.5 l -16.867,1.093 -0.441,4.511 c -10.771,5.625 -13.25,18.379 -18.815,30.251 z"
     id="Nigeria" /><path
     style="fill:#cccccc;stroke:#000000;stroke-linecap:round"
     d="m 604.25,574.34375 c -7.028,1.643 -13.31875,4.889 -21.84375,15.75 l 0.5625,18.625 c -3.774,-0.632 -9.195,-6.79075 -13.25,-4.71875 l -10.875,-3.84375 -22.5,-0.28125 -0.3125,0.5 -30.8125,-0.0312 -28.125,0.25 -8.15625,15.625 5.65625,3.78125 -3.53125,10.5 7.34375,3.75 c 0.454,0.977 -0.3255,1.368 -0.8125,1.875 l -8.46875,-1.875 -1.84375,10.34375 -6.625,6.34375 7.1875,18.34375 30.03125,31.0625 0.0937,0.0937 16.40625,21.1875 8.09375,-5.03125 c 2.147,-3.208 3.71175,-8.534 8.46875,-2.25 3.288,3.122 6.345,4.584 10.625,1.75 6.138,-11.39 13.67475,-5.2405 13.71875,1.6875 6.556,0.538 16.6845,-9.33225 28.1875,-21.65625 l 5.28125,-24.25 c 6.376,-8.394 10.81225,-17.79925 23.03125,-23.15625 2.569,-16.375 0.6705,-34.1925 6.3125,-48.8125 3.291,-8.531 6.84475,-15.681 10.09375,-24.375 l -13.2187,3.71875 z"
     id="Rep. Congo + Gabun"
     inkscape:connector-curvature="0"
     sodipodi:nodetypes="cccccccccccccccccccccccccccccccc" /><path
     style="fill:#cccccc;stroke:#000000;stroke-linecap:round"
     inkscape:connector-curvature="0"
     d="m 830.0431,774.90486 -30.442,7.507 c -1.979,3.619 -3.382,5.708 -4.15,9.809 -0.198,1.063 0.718,3.249 1.041,6.238 0.64,5.917 2.644,16.292 0.83,19.093 -4.251,6.562 -7.125,18.679 -6.883,19.025 2.427,3.477 7.353,7.026 10.257,7.793 4.004,1.059 8.501,0.559 9.475,-0.945 l 0.479,19.216 c -1.561,-1.288 -3.8,-2.19 -4.905,-3.592 -6.389,-0.544 -12.151,2.875 -21.546,-14.896 -6.174,-0.53 -12.276,-2.331 -17.551,-9.674 -2.558,-0.67 -6.826,2.83 -10.675,3.692 -11.009,-1.054 -14.173,-6.273 -16.982,-7.879 -1.909,-1.768 -3.116,-3.827 -3.488,-6.235 l -11.329,3.758 -2.034,-8.764 -4.687,0.153 -4.029,32.823 3.707,3.738 -34.558,-0.894 -1.665,61.512 19.249,17.013 26.087,-4.094 3.817,5.733 1.653,3.862 20.415,0.216 2.786,2.448 3.813,-1.004 c 11.007,-14.394 21.04,-18.073 31.173,-22.86 l 0.416,-9.56 c 7.995,-4.95 16.618,-7.732 26.601,-5.819 l -3.74,-9.466 50.708,-15.888 -5.403,-7.897 9.144,-17.041 7.066,-0.832 -4.572,-6.234 4.156,-22.444 4.156,-2.909 -8.313,-16.21 -3.786,-7.507 -19.442,-6.523 c -6.612,-9.398 -8.161,-7.63 -10.221,-7.081 l -6.628,-7.381 z"
     id="Zambia" /><path
     style="fill:#cccccc;stroke:#000000;stroke-linecap:round"
     inkscape:connector-curvature="0"
     d="m 731.6301,938.93986 5.062,10.253 c 1.662,1.932 3.829,3.733 3.679,6.873 3.95,6.754 8.877,11.555 13.383,17.197 3.456,1.083 6.513,2.646 8.613,5.423 2.121,2.56 4.534,5.14 8.792,5.798 -1.797,10.423 2.88,19.39904 7.776,21.26804 5.8,0.264 11.286,1.344 15.444,5.309 11.798,1.407 13.177,3.046 15.969,4.653 9.664,-3.231 14.169,2.163 19.664,5.882 1.315,-7.878 5.956,-12.288 11.21,-16.442 4.148,-6.04204 7.953,-15.50204 11.916,-23.39604 2.938,-4.894 0.57,-10.066 -0.14,-15.153 l 0.779,-6.488 c 7.14,-17.904 4.949,-28.592 3.79,-41.189 l -28.988,-11.188 -12.18,-0.868 0.403,-4.127 c -10.326,-3.347 -18.729,1.163 -26.43,5.411 l -0.349,9.508 c -23.713,10.578 -24.974,16.328 -31.502,22.978 l -3.537,1.097 -2.883,-2.551 -20.471,-0.248 z"
     id="Zimbabwe" /><path
     style="fill:#cccccc;stroke:#000000;stroke-linecap:round"
     inkscape:connector-curvature="0"
     d="m 1037.4371,436.58786 -5.874,9.156 c -5.707,8.231 9.947,20.813 22.824,32.831 l 49.755,15.962 16.039,-0.668 -48.324,55.292 -19.527,-0.387 c -6.21,3.486 -12.279,7.056 -16.728,11.599 -5.08,3.163 -10.762,5.124 -16.162,7.648 -3.348,7.314 -8.926,13.292 -13.955,19.598 l 0.155,64.165 9.786,12.311 22.514,-25.214 37.732,-35.615 4.34,-0.521 15.812,-14.957 0.646,-2.993 c 8.678,-6.592 19.484,-17.653 22.176,-23.116 4.771,-9.661 10.917,-17.847 17.771,-25.688 l 14.857,-42.906 c 2.89,-2.786 5.056,-6.537 6.874,-10.754 0.751,-4.5 3.442,-6.091 5.509,-8.618 l 1.692,-21.486 c 4.813,0.676 2.492,-8.843 2.764,-14.656 -1.859,-1.658 -3.932,-4.392 -0.044,-6.587 l -0.035,-5.355 c -3.495,0.291 -7.014,-3.702 -10.449,-1.006 -4.301,4.047 -10.038,6.942 -16.581,7.482 -7.275,0.602 -13.205,4.811 -16.254,3.778 -4.93,4.089 -11.211,5.476 -19.364,3.117 -5.442,4.842 -9.01,11.131 -26.487,6.688 l -11.14,7.965 c -17.189,4.66 -21.668,-9.254 -30.322,-17.065 z"
     id="Somalia" /><path
     id="path3246"
     d="M 887.21875 477.4375 L 887.1875 477.4375 L 879.46875 480.28125 L 879.46875 468.5 L 875 460 L 867.53125 457.15625 L 861.5 423.625 L 855 421 L 855 426.6875 L 843.5625 426.6875 L 849.5 431.125 L 850.5 445 L 833.34375 467 L 817.1875 456.375 L 806.5 460.3125 L 806.5 466 L 797.15625 469 L 797 463.15625 L 776.5625 462.5 L 776.5625 469.875 L 757 469.875 L 750.5 470.5 L 746 461.875 L 740.5 461.875 L 732.5 461.875 L 717.96875 490.3125 L 717.9375 490.59375 C 718.10172 490.66577 718.31159 490.66768 718.46875 490.75 C 720.56475 493.685 721.439 497.26925 731.125 496.15625 L 736.71875 501.28125 C 735.50975 509.77125 748.0845 514.4505 755.4375 520.5625 L 762.28125 534.0625 C 768.17025 536.9235 775.249 538.15125 776.125 548.03125 C 780.046 550.25925 781.58775 553.52325 784.46875 556.40625 C 785.79275 557.73125 784.56 558.99925 785.875 560.03125 C 789.604 562.95925 796.327 563.67575 797.25 559.46875 C 797.25 559.46875 803.47175 561.82425 807.96875 561.28125 C 810.76075 560.94425 810.50425 558.30875 813.28125 557.71875 L 833.28125 575.21875 L 836.84375 572.625 C 850.57175 575.81 864.30425 573.983 878.03125 572 L 894.40625 557.96875 L 917.0625 557.15625 L 917.28125 545.375 L 905.625 541.34375 L 897.5625 523.5 L 885.875 513.625 C 887.918 510.479 882.339 507.3335 879.625 504.1875 C 875.947 505.1875 871.956 504.38375 867.75 502.21875 L 870.75 498.375 L 870.6875 492.84375 L 881.40625 492.65625 C 883.49025 491.34525 885.75175 490.776 887.34375 487.5 L 887.21875 477.4375 z "
     style="fill:#cccccc;stroke:#000000;stroke-linecap:round" /><path
     id="Sudan"
     d="M 893.90625 240.4375 L 888.46875 245.96875 L 884 244.96875 L 881.90625 254 L 872.25 256.53125 L 871.375 263.875 L 862.84375 264.84375 L 858.78125 260.59375 L 726.6875 264.59375 L 728.28125 297.6875 C 722.66525 298.1135 716.8745 298.13 712.3125 297.5 L 712.5625 308.03125 L 714.09375 370.625 L 696.1875 371.59375 L 696.40625 378.28125 L 686.15625 391.25 L 686.8125 400.46875 L 683.375 402.03125 C 683.047 407.78825 682.38675 412.83025 679.96875 414.40625 L 680.09375 421.875 L 687.5625 420.3125 C 689.0655 428.6965 689.43175 437.503 696.46875 443.875 L 697.375 449.46875 L 694.03125 449.9375 C 699.67225 456.9585 706.181 463.53725 709.875 471.53125 C 703.60505 490.95062 712.51974 488.21763 717.9375 490.59375 L 717.96875 490.3125 L 732.5 461.875 L 740.5 461.875 L 746 461.875 L 750.5 470.5 L 757 469.875 L 776.5625 469.875 L 776.5625 462.5 L 797 463.15625 L 797.15625 469 L 806.5 466 L 806.5 460.3125 L 817.1875 456.375 L 833.34375 467 L 850.5 445 L 849.5 431.125 L 843.5625 426.6875 L 855 426.6875 L 855 421 L 861.5 423.625 L 867.53125 457.15625 L 875 460 L 879.46875 468.5 L 879.46875 480.28125 L 887.1875 477.4375 L 887.21875 477.4375 L 886.96875 457.03125 L 892 449.5625 L 897.09375 449.625 L 899.59375 436.71875 C 905.62775 429.29375 907.9985 419.7735 917.6875 414.4375 L 920.75 390.03125 C 918.986 372.80425 924.22075 357.932 926.71875 342.125 C 929.21375 341.098 932.06575 342.99175 934.09375 338.21875 L 945.25 332.5625 C 947.451 331.0965 948.19675 327.662 948.84375 324.125 C 947.33075 320.746 945.16225 321.3565 943.15625 320.9375 C 939.86325 314.6115 934.39925 314.05475 929.65625 311.59375 L 923.03125 271.5 L 917.78125 265.9375 C 919.12125 251.5695 902.20525 249.0215 893.90625 240.4375 z "
     style="fill:#cccccc;stroke:#000000;stroke-linecap:round" /><path
     style="fill:#cccccc;stroke:#000000;stroke-linecap:round"
     d="m 794.4375,1010.9062 -58.1875,46.1563 -2.125,9.6563 c -6.611,3.4949 -13.23275,3.0157 -19.84375,3.7187 -5.008,-3.808 -10.41225,-6.0492 -16.28125,-6.4063 l -9.6875,8.4688 c -0.908,4.679 -3.63475,5.1285 -5.71875,7.0625 -3.303,1.915 -5.033,4.3792 -5.75,7.1563 -9.782,2.419 -16.65825,0.8002 -23.03125,-1.4688 1.229,-5.72 4.91175,-9.4223 1.84375,-18.6562 l -13.53125,-15.125 -1.75,64.9687 c -4.093,1.772 -8.18925,4.4773 -12.28125,8.4063 -6.822,-0.5841 -12.4755,-1.5206 -21.9375,0.1874 -1.534,-7.1769 -8.09225,-19.0589 -19.15625,-5.875 l 26.84375,54.0313 0.34375,12.3437 c -1.357,2.9711 -3.5735,3.0435 -6.0625,2.5626 -1.008,1.4169 -1.961,3.2752 0.25,4.6562 3.326,5.905 5.73075,13.065 9.96875,18.125 3.481,4.158 8.655,6.3495 12.75,9.9375 l 10.65625,0.8437 c 2.194,-1.5409 0.20525,-3.6322 8.15625,-4.4062 L 665.5,1217.125 c 4.929,-1.936 -0.60725,-6.7877 15.46875,-5.5938 2.641,0.3341 3.7955,3.2078 7.9375,0.9688 7.463,-1.203 14.57275,1.656 21.84375,2.75 2.155,-1.722 1.36175,-4.6515 13.46875,-2.3125 l 1.21875,-4.7187 14.21875,0.2187 84.09375,-78.1563 c 13.34,-5.536 16.29325,-21.6822 20.03125,-37.0312 l -10.5625,-0.7188 c -0.0136,-0.1598 -0.18158,-0.1678 -0.46875,-0.094 0.11167,-0.057 0.19937,-0.1309 0.3125,-0.1875 l -0.75,-14.7188 -1.09375,-0.25 c 0.33304,0.01 0.66713,-0.064 1,-0.2812 0,0 -0.9365,-30.1145 -2.0625,-55.3125 -5.664,-3.446 -9.7235,-9.395 -19.8125,-6 -5.297,-3.958 -10.61025,-3.5452 -15.90625,-4.7813 z"
     id="South Africa + Lesotho + Swasiland"
     inkscape:connector-curvature="0"
     sodipodi:nodetypes="cccccccccccccccccccccccccccccccccccccccccc" /><path
     style="fill:#cccccc;stroke:#000000;stroke-linecap:round"
     inkscape:connector-curvature="0"
     d="m 879.4831,644.11086 -6.065,9.036 -46.022,0.783 7.543,15.499 c -11.881,11.988 -4.325,14.259 -1.5,18.894 -5.211,9.704 -9.22,21.556 -19.644,21.952 -2.62,0.659 -4.539,0.003 -5.029,3.224 -1.148,7.538 2.157,23.151 5.187,32.171 3.106,6.962 8.596,11.673 11.575,17.504 2.745,4.045 3.418,8.09 4.716,12.135 l 6.382,7.199 c 2.693,-0.8 5.693,-0.075 9.94,6.894 l 19.154,6.323 c 4.13,3.828 10.656,4.859 17.069,6.024 l 10.041,33.134 18.765,0.479 c 3.244,-2.041 6.487,-1.867 9.732,2.35 6.985,-1.101 13.227,-2.945 22.413,-1.845 2.905,-3.117 6.517,-5.44 12.53602,-5.056 7.209,5.747 27.77,-5.938 36.626,-11.659 -2.159,-3.896 -6.097,-6.015 -9.753,-8.414 0.295,-4.43 -1.493,-9.276 -3.091,-14.085 -1.863,-2.938 -3.301,-5.77 -2.069,-7.935 l -4.353,-9.512 2.731,-0.891 c -0.71,-7.253 -0.661,-14.098 3.663,-18.64 -2.969,-6.142 -13.075,-11.014 -12.495,-18.3 l 8.632,-24.304 -22.90502,-15.171 -3.794,-13.516 -69.985,-44.273 z"
     id="Tasania" /><path
     style="fill:#cccccc;stroke:#000000;stroke-linecap:round"
     inkscape:connector-curvature="0"
     d="m 495.5201,10.18686 c -3.016,0.103 -14.837,-6.059 -21.478,3.602 0,0 -5,2.215 -5.281,7.344 -0.435,7.901 -1.188,32.5 -1.188,32.5 -0.831,-1.329 -6.753,-0.325 -7.688,3.688 -1.271,5.454 -7.419,4.026 -7.906,6.781 -0.981,5.547 3.862,10.65 9.563,15.625 1.461,1.276 -0.542,8.334 0.906,9.625 4.415,3.939 12.25,6.625 12.25,6.625 1.817,18.073 5.031,30.563 5.031,30.563 1.191,0.745 13.819,-3.591 9.465,-21.346 -0.504,-2.056 25.883,-10.603 21.146,-27.118 -0.492,-1.717 -4.788,0.316 -5.485,-2.8 -1.565,-6.991 -1.364,-8.713 -4.021,-9.763 -1.335,-0.527 -6.857,4.775 -7.979,4.098 -2.504,-1.513 -5.628,-5.035 -4.276,-6.779 2.329,-3.005 19.157,-13.436 19.325,-19.187 0.251,-8.559 -2.908,-9.384 -7.105,-11.663 -2.384,-1.294 -1.527,-5.349 -0.756,-7.662 0.473,-1.418 9.558,-4.51 8.51,-7.796 -0.711,-2.229 -2.029,-2.571 -2.512,-4.314 -0.356,-1.286 -7.221,5.885 -7.654,4.777 -1.145,-2.921 -1.489,-4.709 -2.867,-6.8 z"
     id="Tunisia" /><path
     style="fill:#cccccc;stroke:#000000;stroke-linecap:round"
     inkscape:connector-curvature="0"
     d="m 712.3601,307.75586 -130.179,-64.109 -17.243,5.211 c 1.18,10.185 0.312,18.07 0.495,24.304 0.268,9.14 6.628,15.548 15.348,18.638 l -3.86,9.394 -5.548,50.3 -27.169,29.898 c -0.862,1.696 -1.342,3.393 -1.24,5.089 -0.86,1.945 -1.965,2.793 -3.144,3.302 -1.897,1.178 -0.961,3.169 -1.181,4.648 -1.58,10.598 20.577,26.294 20.577,26.294 1.141,4.788 2.828,9.041 3.674,14.095 0.912,5.449 -1.756,12.025 -0.988,16.747 1.115,6.854 8.721,7.542 7.681,18.005 l -17.444,-1.605 c -5.063,10.107 -1.52,16.693 10.913,19.644 l 8.212,24.515 c 13.192,-3.011 22.482,-1.409 39.717,-9.197 l 15.68,-1.553 c 2.892,-4.933 9.013,-7.559 6.914,-16.055 l 21.697,-2.369 c 1.696,-1.58 2.51,-4.042 5.265,-4.563 4.253,-0.132 5.497,-2.896 6.635,-5.753 1.982,-4.697 6.979,-6.38 10.734,-9.306 0.677,-15.492 12.387,-11.057 19.523,-13.988 l -0.854,-5.376 c -4.084,-4.453 -7.606,-9.507 -8.884,-23.677 l -7.613,1.431 -0.168,-6.887 c 2.331,-2.5 4.005,-8.431 3.408,-12.646 l 3.545,-1.663 -0.873,-8.954 10.48,-13.396 -0.325,-6.563 18.064,-0.95 -1.849,-62.905 z"
     id="Chad"
     conquest:bonusgroupid="libyannorth" /><path
     style="fill:#cccccc;stroke:#000000;stroke-linecap:round"
     inkscape:connector-curvature="0"
     d="m 116.5321,262.88586 c 2.054,-14.697 -7.083,-35.352 21.465,-35.941 l 5.99,-44.427 50.916,4.492 3.87,-29.992 -68.104,-5.03 c -6.32,9.701 -9.989,17.914 -19.53,21.698 -9.004,3.571 -12.526,14.683 -15.073,24.307 l -26.8,30.666 c -0.965,6.963 -5.012,11.615 -10.427,15.24 -4.896,6.405 -7.887,14.363 -8.639,21.439 l 6.829,-6.191 59.503,3.739 z"
     id="West Sahara" /><path
     style="fill:#cccccc;stroke:#000000;stroke-linecap:round"
     inkscape:connector-curvature="0"
     d="m 571.3631,511.99486 -15.382,25.232 2.063,18.345 c 6.573,12.911 14.235,24.841 24.452,34.473 6.34,-7.057 9.128,-12.498 21.686,-15.749 l 10.926,4.75 12.254,-3.449 c 3.037,-3.527 2.791,-9.108 3.029,-14.387 4.211,-6.869 8.748,-10.479 13.319,-13.749 3.388,2.621 9.387,0.601 9.839,8.439 4.014,4.516 7.8,7.208 10.725,3.018 3.392,5.015 17.807,3.414 27.725,4.513 0.572,-1.861 1.624,-4.32 3.654,-8.004 3.321,-0.504 6.307,-1.811 11.373,1.876 l 20.946,-7.328 1.364,3.092 8.378,-1.346 -0.146,-3.12 18.507,-1.537 4.121,5.291 1.909,-2.861 3.161,2.307 2.664,-3.061 8.625,-0.337 c -1.764,-4.888 -1.012,-10.684 -14.083,-13.765 l -6.721,-13.729 c -6.738,-6.45 -18.681,-9.431 -19.552,-19.793 l -5.165,-4.99 c -4.377,0.204 -8.188,2.101 -13.065,-5.813 -7.882,-1.198 -13.231,-2.433 -8.054,-18.396 -4.049,-9.774 -10.235,-14.402 -15.604,-21.867 -11.3,2.161 -15.836,1.584 -16.234,13.267 -3.589,2.858 -8.86,4.315 -10.5,8.799 -1.422,3.313 -2.597,5.865 -7.624,6.294 -1.434,0.885 -3.173,2.686 -4.968,4.655 l -21.414,2.233 c 1.122,4.028 0.688,7.659 -3.921,12.155 -1.229,1.201 -2.112,2.672 -3.261,3.964 l -15.42,1.435 c -17.826,7.865 -26.773,6.195 -39.606,9.143 z"
     id="Central Africa Rep." /></g>

</svg>