<svg clip-rule="evenodd" fill-rule="evenodd" stroke-linejoin="round" stroke-miterlimit="1.41421" viewBox="0 0 200 200" xmlns="http://www.w3.org/2000/svg"><path d="m52.4811 62.7338 4.5147 4.5147-21.5936 21.5937-12.7415-12.7415 4.9321-4.9321 8.2267 8.2268z" fill="#0f0"/><g fill="#600"><g fill="#f00"><path d="m52.4811 12.7338 4.5147 4.5147-21.5936 21.5937-12.7415-12.7415 4.9321-4.9321 8.2267 8.2268z"/><path d="m112.653 12.7338 4.515 4.5147-21.5941 21.5937-12.7415-12.7415 4.9321-4.9321 8.2267 8.2268z"/><path d="m172.481 12.7338 4.515 4.5147-21.594 21.5937-12.741-12.7415 4.932-4.9321 8.227 8.2268z"/><path d="m52.4811 62.7338 4.5147 4.5147-21.5936 21.5937-12.7415-12.7415 4.9321-4.9321 8.2267 8.2268z"/><path d="m112.653 62.7338 4.515 4.5147-21.5941 21.5937-12.7415-12.7415 4.9321-4.9321 8.2267 8.2268z"/></g><path d="m172.481 62.7338 4.515 4.5147-21.594 21.5937-12.741-12.7415 4.932-4.9321 8.227 8.2268z" fill="#0f0"/><path d="m52.4811 112.734 4.5147 4.515-21.5936 21.593-12.7415-12.741 4.9321-4.932 8.2267 8.226z" fill="#f00"/><path d="m112.653 112.734 4.515 4.515-21.5941 21.593-12.7415-12.741 4.9321-4.932 8.2267 8.226z" fill="#0c0"/><path d="m172.481 112.734 4.515 4.515-21.594 21.593-12.741-12.741 4.932-4.932 8.227 8.226z" fill="#f00"/></g><path d="m52.4811 12.7338 4.5147 4.5147-21.5936 21.5937-12.7415-12.7415 4.9321-4.9321 8.2267 8.2268z" fill="#f00"/></svg>