<?xml version="1.1" encoding="UTF-8"?>
<svg width="752px" height="492px" xmlns="http://www.w3.org/2000/svg" version="1.1">
	<title>Monkey</title>
	<g>
		<path d="M0,0 L0,492 L752,492 L752,0 L752,0 Z M0,0" fill="rgb(204,243,128)"></path>
		
		<!-- Body -->
		<path d="M442,411 C452,394 470,402 485,387 C498,374 499,356 499,356 L534,356 C534,356 535,374 548,387 C565,403 581,396 593,414 C617,449 620,492 620,492 L424,492 C424,492 421,447 442,411" fill="rgb(124,80,24)"></path>
		<path d="M574,492 C574,455 544,418 517,418 C489,418 466,449 466,492 C513,492 528,492 574,492" fill="rgb(237,174,149)"></path>
		
		<g id="head">
			<!-- Ears -->
			<path d="M474,247 C364,188 381,316 452,325 C467,316 468,287 468,287 C468,287 478,241 474,247" fill="rgb(222,163,139)"></path>
			<path d="M485,253 C375,194 392,322 463,331 C478,322 479,293 479,293 C479,293 489,247 485,253" fill="rgb(189,139,120)"></path>
			<path d="M565,256 C675,197 658,325 587,334 C572,325 571,296 571,296 C571,296 561,250 565,256" fill="rgb(223,163,139)"></path>
			<path d="M554,260 C664,201 647,329 576,338 C561,329 560,300 560,300 C560,300 550,254 554,260" fill="rgb(189,139,120)"></path>
			
			<!-- Skull -->
			<path d="M448,316 L432,321 L435,305 L420,312 L436,277 L422,282 L436,263 L423,261 C423,261 430,255 440,251 C416,188 478,170 478,170 L455,168 L483,164 L466,154 L501,158 L487,133 L527,158 L565,147 L554,158 L585,158 L566,170 L592,169 L574,177 C574,177 631,195 601,259 C601,261 617,268 617,268 L607,271 L619,290 L603,290 L615,307 L601,302 L607,325 L592,317 L592,317 L592,317 Z M448,316" fill="rgb(124,80,24)"></path>
			
			<!-- Face -->
			<path id="face" d="M454,209 C473,186 488,202 521,202 C554,202 572,193 589,212 C604,229 575,257 585,271 C613,315 606,345 518,379 C412,342 434,296 452,271 C468,247 435,232 454,209" fill="rgb(237,174,149)"></path>
			
			<!-- Eyes -->
			<path d="M491,279 C505,279 517,267 517,253 C517,239 505,228 491,228 C477,228 466,239 466,253 C466,267 477,279 491,279" fill="white"></path>
			<path d="M546,281 C560,281 572,269 572,255 C572,241 560,230 546,230 C532,230 521,241 521,255 C521,269 532,281 546,281" fill="white"></path>
			<path d="M536,258 C542,258 547,253 547,247 C547,241 542,237 536,237 C530,237 526,241 526,247 C526,253 530,258 536,258" stroke="rgb(124,80,24)" stroke-width="4" fill="black"></path>
			<path d="M502,258 C508,258 513,253 513,247 C513,241 508,237 502,237 C496,237 492,241 492,247 C492,253 496,258 502,258" stroke="rgb(124,80,24)" stroke-width="4" fill="black"></path>
			
			<path d="M516,301 C516,301 510,328 516,346 C516,332 516,301 516,301" fill="rgb(124,80,24)"></path>
			<path d="M461,226 L578,228 C578,228 546,233 520,233 C488,232 461,226 461,226" fill="rgb(124,80,24)"></path>
			<path d="M522,356 L559,345 C559,345 552,349 539,353 C534,354 522,356 522,356" fill="rgb(124,80,24)"></path>
			<path d="M492,289 C494,280 489,277 501,274 C506,273 513,272 519,272 C526,273 534,274 539,276 C549,279 545,285 545,289 C530,286 509,287 492,289" fill="rgb(223,163,139)"></path>
			<path d="M517,289 C517,289 516,287 513,285 C511,284 509,282 505,282 C509,281 512,282 514,284 C517,286 517,289 517,289" fill="rgb(124,80,24)"></path>
			<path d="M520,289 C520,289 521,287 524,285 C526,284 528,282 532,282 C528,281 525,282 523,284 C520,286 520,289 520,289" fill="rgb(124,80,24)"></path>
			<path d="M492,288 C492,288 489,276 501,273 C506,272 513,271 519,271 C526,272 534,273 539,275 C549,278 545,288 545,288 C545,288 548,280 538,276 C533,275 526,274 519,274 C513,273 507,274 502,275 C489,278 492,288 492,288" fill="rgb(124,80,24)"></path>
			<path d="M508,186 L498,170 L513,178 C513,178 510,161 510,161 C510,161 528,180 528,180 L543,167 L531,187 L519,184 Z M508,186" fill="rgb(98,64,20)"></path>
		</g>
	</g>
</svg>
