<?xml version="1.0" encoding="utf-8"?>
<!-- Generator: Adobe Illustrator 15.0.0, SVG Export Plug-In  -->
<!DOCTYPE svg PUBLIC "-//W3C//DTD SVG 1.1//EN" "http://www.w3.org/Graphics/SVG/1.1/DTD/svg11.dtd" [
	<!ENTITY ns_flows "http://ns.adobe.com/Flows/1.0/">
]>
<svg version="1.1"
	 xmlns="http://www.w3.org/2000/svg" xmlns:xlink="http://www.w3.org/1999/xlink" xmlns:a="http://ns.adobe.com/AdobeSVGViewerExtensions/3.0/"
	 x="0px" y="0px" width="79px" height="146px" viewBox="-0.641 -0.335 79 146"
	 style="overflow:visible;enable-background:new -0.641 -0.335 79 146;" xml:space="preserve">
<style type="text/css">
<![CDATA[
	.st0{opacity:0.35;}
	.st1{opacity:0.75;}
	.st2{fill:#231F20;}
	.st3{fill:none;stroke:#231F20;stroke-miterlimit:10;}
	.ch0{fill:#F69321;}
	.ch1{fill:#29ABE2;}
	.st6{opacity:0.15;fill:#010101;}
	.st7{fill:url(#SVGID_1_);}
	.st8{fill:url(#SVGID_2_);}
	.st9{fill:url(#SVGID_3_);}
	.st10{fill:url(#SVGID_4_);}
	.st11{fill:url(#SVGID_5_);}
	.st12{fill:url(#SVGID_6_);}
	.st13{fill:url(#SVGID_7_);}
	.st14{fill:url(#SVGID_8_);}
	.st15{fill:url(#SVGID_9_);}
	.ch2{fill:#6DBE4C;}
	.st17{fill:#010101;}
	.st18{fill:url(#SVGID_10_);}
	.st19{fill:url(#SVGID_11_);}
	.st20{fill:url(#SVGID_12_);}
	.st21{fill:url(#SVGID_13_);}
	.st22{fill:url(#SVGID_14_);}
	.st23{fill:url(#SVGID_15_);}
	.st24{fill:url(#SVGID_16_);}
	.st25{fill:url(#SVGID_17_);}
	.st26{fill:url(#SVGID_18_);}
	.st27{fill:url(#SVGID_19_);}
	.st28{fill:url(#SVGID_20_);}
	.st29{fill:url(#SVGID_21_);}
	.st30{fill:url(#SVGID_22_);}
	.ch3{fill:#D91F5D;}
]]>
</style>
<defs>
</defs>
<path class="ch2" d="M15.001,0.827c0,0-5.321,1.68-5.882,7.001c-0.56,5.32,4.901,14.422,1.54,19.322c0,0,1.541-0.98,2.24-2.24
	c0,0,0.199,8.401-3.82,11.622c0,0,2.818-1.121,4.02-3.221c0,0,0.501,3.5-3.419,9.94c-3.921,6.441-6.721,9.382-6.721,9.382
	s1.399,0.56,4.761-1.4c0,0-0.7,6.021-6.301,9.102c0,0,1.12,0.42,4.061-1.961c0,0-0.14,4.005-4.761,9.424c0,0,2.24-1.303,3.919-3.402
	c0,0,0,4.76-4.619,7.84c0,0,2.66-0.56,4.2-2.24c0,0-0.7,4.341-4.2,8.262c0,0,1.82-0.84,3.081-1.961c0,0,1.259,9.381-0.421,18.062
	S1.863,114.604,3.1,116.201c4.62,5.974,9.94-1.12,10.5,2.8c0.561,3.921-0.14,12.882,3.361,13.303
	c3.5,0.42,3.641-12.602,6.159-14.002c2.521-1.4,6.162-1.121,6.862,2.8s-0.84,14.981,2.8,15.122
	c3.641,0.141,5.602-21.143,9.381-20.723c3.781,0.42,7.281,17.502,6.722,24.503c-0.561,7.001,11.62,9.382,10.221-7.28
	s-5.741-24.783-6.44-29.264c-0.7-4.48-1.12-8.541,0.42-5.181s4.76,6.86,7.141,4.2c2.38-2.66-1.26-13.021,1.4-13.582
	c2.66-0.56,6.021,8.401,8.821,5.602c2.8-2.801-1.4-13.861,0-17.223c1.4-3.36,5.74,3.641,7.001-0.561
	c1.26-4.2-2.381-8.82-1.961-13.161s6.301-2.521-1.54-14.421c-7.841-11.902-24.793-32.064-34.939-39.065
	C28.862,3.067,21.861-1.272,15.001,0.827z"/>
<path class="ch0" d="M49.476,106.236c0.006,0.016,0.008,0.023,0.008,0.023S49.483,106.252,49.476,106.236z"/>
<path class="ch0" d="M61.998,33.239c-5.054-6.121-10.615-12.266-15.623-17.007c-1.592,1.378-3.587,3.784-3.753,7.278
	c0,0-4.9,1.763,0.841,6.551c0,0-3.197,2.054-2.79,4.262c0.41,2.209,2.93,6.266,2.93,6.266s-6.58-1.767-6.861,2.828
	c0,0-6.16,2.217-7.141,5.717L17.56,73.04c0,0-5.04-1.27-7.561,3.653c0,0,5.74-24.872,5.601-29.997
	c-0.091-3.315-1.565-8.427-2.595-11.623c-0.25,1.641-1.024,4.398-3.325,8.179c-3.921,6.441-6.721,9.382-6.721,9.382
	s1.399,0.56,4.761-1.4c0,0-0.7,6.021-6.301,9.102c0,0,1.12,0.42,4.061-1.961c0,0-0.14,4.005-4.761,9.424c0,0,2.24-1.303,3.919-3.402
	c0,0,0,4.76-4.619,7.84c0,0,2.66-0.56,4.2-2.24c0,0-0.7,4.341-4.2,8.262c0,0,1.82-0.84,3.081-1.961c0,0,1.259,9.381-0.421,18.062
	c-0.893,4.611-1.066,10.036-0.849,14.348c2.278-1.846,5.337-3.048,8.868-1.186c7.701,4.061,7.701,4.061,7.701,4.061
	s1.961-5.602,7.141-5.182c5.181,0.421,8.682,7.562,8.682,7.562s1.82-9.101,8.541-8.821c6.057,0.253,6.655,0.959,6.713,1.097
	c-0.273-0.957-8.907-31.241-6.013-34.555c2.94-3.366,6.021-3.792,6.021-3.792s-2.101-8.042,1.26-8.148
	c3.36-0.107,5.321,1.163,5.321,1.163s-4.341-9.12-1.681-12.196c2.66-3.075,3.78-3.084,3.78-3.084s-3.78-4.932-1.261-8.132
	C58.266,35.764,60.358,34.261,61.998,33.239z"/>
<path class="ch0" d="M9.079,36.532c0,0,2.226-0.888,3.564-2.561c-0.374-1.119-0.631-1.82-0.631-1.82l-0.176-0.01
	C11.271,33.845,10.405,35.47,9.079,36.532z"/>
<path class="ch3" d="M30.729,51.058c0,0-1.353,7.916,2.007,14.78c3.36,6.864,10.642,27.308,10.642,27.308
	s-9.895-3.082-9.708,16.708c0,0-2.102-12.051-8.705-11.532c-6.604,0.518-6.789,11.072-6.789,11.072s-1.307-18.416-4.668-17.1
	c-3.36,1.317-8.009,14.036-8.009,14.036s2.8-15.522-0.579-18.497l8.564-28.712c0,0-2.353,9.922,0.957,10.021
	s5.639-19.036,5.639-19.036s-2.092,17.454,1.27,16.292c3.359-1.162,4.629-22.98,4.629-22.98S29.841,49.948,30.729,51.058z"/>
<path class="ch1" d="M25.978,43.417c0,0-1.003,23.533-4.629,22.98c-3.627-0.553-2.146-7.873-2.146-7.873s-1.669,10.954-4.763,10.617
	c-3.579-0.39-1.021-8.938-1.021-8.938l2.023-14.137c0,0-0.107,2.786,2.134,2.507c2.24-0.28,3.92-7.841,4.48-13.021L25.978,43.417z"
	/>
<linearGradient id="SVGID_1_" gradientUnits="userSpaceOnUse" x1="38.9902" y1="145.335" x2="38.9902" y2="0.2964">
	<stop  offset="0" style="stop-color:#FFFFFF;stop-opacity:0"/>
	<stop  offset="1" style="stop-color:#FFFFFF;stop-opacity:0.07"/>
</linearGradient>
<path class="st7" d="M14.982,0.827c0,0-5.321,1.68-5.881,7.001c-0.56,5.32,4.9,14.422,1.54,19.322c0,0,1.54-0.98,2.24-2.24
	c0,0,0.199,8.401-3.82,11.622c0,0,2.818-1.121,4.02-3.221c0,0,0.501,3.5-3.42,9.94c-3.92,6.441-6.721,9.382-6.721,9.382
	s1.4,0.56,4.761-1.4c0,0-0.7,6.021-6.3,9.102c0,0,1.119,0.42,4.06-1.961c0,0-0.14,4.005-4.761,9.424c0,0,2.24-1.303,3.92-3.402
	c0,0,0,4.76-4.619,7.84c0,0,2.659-0.56,4.2-2.24c0,0-0.7,4.341-4.2,8.262c0,0,1.818-0.84,3.08-1.961c0,0,1.26,9.381-0.421,18.062
	c-1.68,8.682-0.815,20.246,0.421,21.843c4.621,5.974,9.941-1.12,10.501,2.8c0.561,3.921-0.14,12.882,3.36,13.303
	c3.501,0.42,3.641-12.602,6.16-14.002c2.521-1.4,6.161-1.121,6.862,2.8c0.699,3.921-0.841,14.981,2.8,15.122
	s5.6-21.143,9.381-20.723c3.78,0.42,7.281,17.502,6.721,24.503s11.621,9.382,10.222-7.28c-1.4-16.662-5.741-24.783-6.441-29.264
	s-1.12-8.541,0.421-5.181c1.54,3.36,4.76,6.86,7.141,4.2c2.38-2.66-1.261-13.021,1.4-13.582c2.659-0.56,6.021,8.401,8.82,5.602
	c2.801-2.801-1.4-13.861,0-17.223c1.4-3.36,5.74,3.641,7.002-0.561c1.26-4.2-2.381-8.82-1.961-13.161s6.301-2.521-1.541-14.421
	c-7.84-11.902-24.792-32.064-34.939-39.065C28.844,3.067,21.843-1.272,14.982,0.827z"/>
<linearGradient id="SVGID_2_" gradientUnits="userSpaceOnUse" x1="1.7236" y1="89.2871" x2="77.9541" y2="89.2871">
	<stop  offset="0" style="stop-color:#010101;stop-opacity:0.1"/>
	<stop  offset="1" style="stop-color:#010101;stop-opacity:0.21"/>
</linearGradient>
<path class="st8" d="M75.443,63.555c0.42-4.341,6.301-2.521-1.54-14.421c-2.967-4.504-7.237-10.188-11.951-15.895
	c-1.639,1.021-3.731,2.524-5.092,4.253c-2.521,3.2,1.259,8.132,1.259,8.132S57,45.633,54.34,48.708
	c-2.661,3.076,1.68,12.196,1.68,12.196s-1.96-1.271-5.32-1.163c-3.36,0.106-1.261,8.148-1.261,8.148s-3.08,0.426-6.021,3.792
	c-2.894,3.313,5.741,33.598,6.015,34.555c0.004,0.016,0.006,0.023,0.006,0.023s-0.002-0.008-0.006-0.023
	c-0.061-0.138-0.657-0.844-6.714-1.097c-6.722-0.279-8.542,8.821-8.542,8.821s-3.5-7.141-8.681-7.562
	c-5.181-0.42-7.141,5.182-7.141,5.182s0,0-7.702-4.061c-3.531-1.862-6.589-0.66-8.867,1.186c-0.028-0.535-0.049-1.088-0.062-1.652
	c0.116,4.589,0.67,8.294,1.33,9.147c4.622,5.974,9.941-1.12,10.502,2.8c0.561,3.921-0.141,12.882,3.36,13.303
	c3.501,0.42,3.64-12.602,6.161-14.002c2.521-1.4,6.16-1.121,6.86,2.8s-0.84,14.981,2.801,15.122s5.601-21.143,9.381-20.723
	s7.281,17.502,6.721,24.503c-0.56,7.001,11.621,9.382,10.222-7.28c-1.4-16.662-5.742-24.783-6.441-29.264s-1.12-8.541,0.421-5.181
	c1.54,3.36,4.761,6.86,7.141,4.2s-1.261-13.021,1.4-13.582c2.66-0.56,6.02,8.401,8.82,5.602c2.801-2.801-1.399-13.861,0-17.223
	c1.399-3.36,5.741,3.641,7.001-0.561C78.663,72.516,75.022,67.896,75.443,63.555z"/>
<path class="st2" d="M9.12,7.828c1.727-0.778,3.605-1.188,5.49-1.401c1.89-0.211,3.806-0.196,5.701,0.014
	c3.796,0.43,7.471,1.714,10.872,3.393c3.435,1.637,6.685,3.635,9.81,5.789c3.123,2.164,6.105,4.524,8.959,7.027
	c5.652,5.068,10.817,10.663,15.471,16.641c2.319,2.994,4.532,6.068,6.639,9.211c2.074,3.164,4.082,6.371,5.936,9.664
	c-2.071-3.16-4.166-6.302-6.388-9.352c-2.191-3.069-4.473-6.072-6.86-8.986c-4.765-5.831-9.882-11.385-15.539-16.34
	c-5.599-5.009-11.734-9.445-18.408-12.886c-1.671-0.859-3.365-1.654-5.129-2.269c-1.764-0.617-3.584-1.076-5.434-1.352
	C16.554,6.42,12.686,6.558,9.12,7.828z"/>
<g class="st0">
	<path class="st2" d="M9.119,8.042C9.185,6.999,9.442,5.95,9.925,4.995c0.488-0.949,1.18-1.797,1.99-2.502
		c0.812-0.707,1.727-1.289,2.73-1.724c1.027-0.392,2.096-0.625,3.178-0.722c2.178-0.193,4.359,0.217,6.396,0.885
		c2.047,0.669,3.967,1.615,5.83,2.623c1.86,1.016,3.66,2.121,5.422,3.268c1.771,1.162,3.492,2.273,5.25,3.53
		c3.432,2.549,6.49,5.465,9.473,8.437c5.891,6.019,11.333,12.43,16.397,19.127c2.532,3.35,4.959,6.779,7.211,10.328
		c1.106,1.783,2.185,3.605,3.071,5.523c0.436,0.962,0.834,1.951,1.066,2.992c0.225,1.028,0.229,2.185-0.325,3.096
		c0.46-0.963,0.341-2.051,0.032-3.021c-0.299-0.984-0.752-1.921-1.248-2.829c-1.004-1.816-2.186-3.525-3.41-5.215
		c-2.426-3.389-5.006-6.669-7.627-9.912c-2.645-3.225-5.312-6.43-8.088-9.54c-2.756-3.126-5.57-6.197-8.502-9.145
		c-2.912-2.958-5.928-5.835-9.181-8.329C36.27,9.444,32.796,7.045,29.28,4.907c-1.773-1.056-3.6-2.01-5.497-2.746
		C21.89,1.429,19.893,0.96,17.88,1.021c-1.006,0.018-2.014,0.165-2.966,0.451c-0.943,0.329-1.854,0.818-2.666,1.43
		C10.616,4.112,9.427,5.957,9.119,8.042z"/>
</g>
<path class="st17" d="M38.598,85.248c-2.544,1.408-4.48,3.862-3.325,7.046c1.158,3.186,4.626,4.865,8.385,3.045
	c3.758-1.82,4.48-5.896,0.723-8.408C40.62,84.417,40.231,84.345,38.598,85.248z"/>
<path class="st17" d="M33.539,66.397c-1.542,0.758-1.59,2.655-0.578,3.617c1.011,0.961,3.47,1.32,4.626,0.301
	S37.441,64.479,33.539,66.397z"/>
<path class="st17" d="M37.771,53.464c-1.178,0.58-1.215,2.028-0.44,2.763c0.772,0.734,2.648,1.009,3.531,0.23
	C41.745,55.678,40.752,51.999,37.771,53.464z"/>
<path class="st2" d="M12.117,2.788c-0.026-0.056-0.054-0.111-0.065-0.174c-0.018-0.031,0.022-0.08,0.057-0.055
	c0.031,0.012,0.057,0.03,0.083,0.049c0.1,0.074,0.189,0.162,0.277,0.248c0.175,0.176,0.343,0.358,0.509,0.542
	c0.331,0.369,0.652,0.745,0.972,1.124c0.632,0.762,1.25,1.535,1.865,2.311c1.229,1.551,2.438,3.116,3.645,4.686
	c2.392,3.156,4.722,6.348,7.14,9.473c4.811,6.272,9.634,12.545,14.35,18.906c4.645,6.41,9.189,12.904,13.371,19.635
	c2.086,3.368,4.104,6.777,6.025,10.24c1.891,3.479,3.729,6.987,5.4,10.574c-1.897-3.472-3.828-6.922-5.877-10.301
	c-2.014-3.398-4.107-6.748-6.274-10.05c-4.317-6.614-8.842-13.09-13.55-19.438c-2.32-3.196-4.679-6.368-7.049-9.532
	c-2.363-3.171-4.768-6.312-7.084-9.521c-2.338-3.195-4.597-6.446-6.892-9.663c-1.137-1.618-2.28-3.23-3.44-4.831
	c-0.58-0.8-1.166-1.596-1.763-2.383c-0.295-0.396-0.595-0.789-0.902-1.175c-0.155-0.192-0.312-0.384-0.476-0.567
	c-0.083-0.091-0.166-0.183-0.26-0.262c-0.036-0.03-0.131-0.099-0.117-0.012C12.07,2.673,12.094,2.731,12.117,2.788z"/>
<path class="st2" d="M68.403,62.321c-1.363-2.131-2.767-4.23-4.24-6.279c-1.457-2.062-2.961-4.086-4.499-6.083
	c-3.089-3.982-6.329-7.845-9.807-11.479c-3.464-3.645-7.161-7.068-11.144-10.135c-3.992-3.045-8.272-5.75-12.933-7.731
	c4.817,1.573,9.327,4.063,13.453,7.029c4.14,2.961,7.921,6.396,11.434,10.065c3.496,3.688,6.729,7.615,9.694,11.73
	C63.329,53.549,66.06,57.835,68.403,62.321z"/>
<path class="st2" d="M29.196,25.159c-0.877,0.977-1.347,2.249-1.477,3.516c-0.123,1.279,0.122,2.562,0.574,3.753
	c0.226,0.599,0.497,1.177,0.808,1.737c0.308,0.556,0.669,1.105,1.007,1.666c0.687,1.115,1.352,2.242,2.021,3.367
	c2.671,4.504,5.219,9.08,7.675,13.705c2.437,4.637,4.784,9.324,6.917,14.112c2.129,4.784,4.11,9.667,5.441,14.737
	c-0.88-2.466-1.855-4.888-2.93-7.269c-1.052-2.39-2.168-4.75-3.303-7.101c-2.287-4.693-4.668-9.342-7.115-13.957
	c-2.431-4.624-4.931-9.213-7.443-13.797l-1.895-3.431c-0.631-1.126-1.311-2.312-1.699-3.595c-0.395-1.275-0.565-2.645-0.352-3.968
	C27.636,27.321,28.23,26.053,29.196,25.159z"/>
<path class="st2" d="M14.594,5.482c0.104,0.894,0.335,1.765,0.583,2.626c0.248,0.863,0.531,1.715,0.839,2.558
	c0.616,1.685,1.323,3.335,2.083,4.959c0.748,1.63,1.545,3.237,2.384,4.823c0.843,1.576,1.706,3.172,2.528,4.771
	c1.67,3.193,3.227,6.439,4.8,9.678c1.565,3.242,3.112,6.492,4.644,9.751c2.99,6.549,5.969,13.104,8.775,19.735
	c2.773,6.641,5.572,13.293,7.713,20.175c-1.273-3.366-2.675-6.679-4.125-9.97c-1.426-3.301-2.889-6.586-4.377-9.859
	c-2.966-6.552-5.936-13.104-9-19.61c-2.992-6.541-6.073-13.042-9.197-19.516c-0.777-1.624-1.582-3.217-2.389-4.837
	c-0.795-1.619-1.559-3.257-2.257-4.922c-0.687-1.67-1.32-3.361-1.862-5.084C15.208,9.039,14.718,7.284,14.594,5.482z"/>
<path class="st2" d="M13.428,4.008c0.428,6.069,1.761,12.038,3.587,17.815c1.822,5.785,4.207,11.385,7.059,16.729
	c2.867,5.335,6.043,10.564,8.504,16.176c1.245,2.797,2.32,5.658,3.359,8.521c1.035,2.867,2.018,5.751,2.963,8.646
	c1.856,5.803,3.561,11.652,5.126,17.539c1.549,5.891,3.019,11.8,4.188,17.786c2.297,11.976,3.583,24.122,3.949,36.284
	c-0.397-6.07-0.991-12.124-1.795-18.147c-0.775-6.026-1.743-12.028-2.998-17.966c-2.584-11.861-5.781-23.604-9.536-35.152
	c-0.925-2.891-1.889-5.771-2.903-8.631c-1.02-2.858-2.071-5.702-3.285-8.469c-1.21-2.773-2.575-5.475-4.018-8.145
	c-1.445-2.666-2.933-5.325-4.315-8.047c-2.781-5.434-5.094-11.113-6.82-16.966c-0.848-2.93-1.548-5.901-2.082-8.901
	C13.88,10.082,13.487,7.051,13.428,4.008z"/>
<path class="st2" d="M27.375,35.167c-0.544,0.047-0.955,0.467-1.255,0.883c-0.303,0.432-0.517,0.92-0.688,1.418
	c-0.347,0.999-0.531,2.048-0.656,3.098c-0.24,2.107-0.233,4.236-0.144,6.356c0.164,4.243,0.691,8.472,1.257,12.689
	c1.146,8.438,2.527,16.849,3.825,25.28c0.615,4.221,1.213,8.447,1.707,12.69c0.245,2.122,0.465,4.249,0.622,6.386
	c0.181,2.136,0.184,4.289,0.21,6.416c0.043,4.266,0.047,8.532-0.003,12.797c-0.075,4.265-0.145,8.528-0.316,12.79
	c-0.071-4.264-0.11-8.526-0.21-12.788c-0.076-4.262-0.158-8.523-0.304-12.781c-0.09-4.262-0.469-8.469-1.003-12.698
	c-0.525-4.222-1.156-8.435-1.805-12.646l-1.881-12.651c-0.606-4.222-1.242-8.442-1.703-12.687
	c-0.464-4.244-0.893-8.501-0.951-12.785c-0.004-2.14,0.074-4.287,0.402-6.409c0.168-1.059,0.396-2.114,0.791-3.118
	c0.203-0.497,0.448-0.983,0.781-1.408C26.381,35.589,26.827,35.183,27.375,35.167z"/>
<path class="st2" d="M20.28,34.824c-0.806,3.829-1.477,7.682-2.018,11.552c-0.569,3.865-1.031,7.744-1.366,11.634
	c-0.319,3.89-0.598,7.783-0.7,11.683c-0.101,3.904-0.16,7.814-0.192,11.724c-0.144,7.818-0.136,15.64-0.149,23.461
	c-0.014,3.911-0.008,7.822,0.022,11.733c-0.005,1.953,0.034,3.912-0.021,5.873c-0.059,1.957-0.139,3.924-0.488,5.853
	c0.391-3.898,0.133-7.804-0.041-11.714c-0.14-3.912-0.244-7.824-0.335-11.736c-0.163-7.826-0.162-15.654-0.106-23.483
	c0.162-7.817,0.24-15.679,1.157-23.478C16.928,50.136,18.235,42.384,20.28,34.824z"/>
<path class="st2" d="M14.594,39.821c-0.509,4.204-1.11,8.394-1.795,12.568c-0.67,4.178-1.418,8.342-2.195,12.5
	c-0.796,4.154-1.634,8.302-2.532,12.435C7.188,81.46,6.235,85.583,5.21,89.691c0.598-4.192,1.266-8.37,2.004-12.535
	c0.725-4.168,1.514-8.32,2.289-12.476c0.799-4.151,1.595-8.303,2.439-12.447C12.771,48.087,13.658,43.951,14.594,39.821z"/>
<path class="st17" d="M42.479,46.221c-0.579,0.285-0.599,0.999-0.218,1.36c0.382,0.361,1.305,0.496,1.74,0.113
	S43.947,45.499,42.479,46.221z"/>
<path class="st17" d="M22.894,48.026c-0.58,0.285-0.598,0.998-0.218,1.36c0.382,0.362,1.306,0.496,1.741,0.112
	C24.851,49.116,24.361,47.305,22.894,48.026z"/>
<path class="st17" d="M55.883,90.905c-0.331,0.178-0.342,0.621-0.124,0.848c0.217,0.225,0.745,0.309,0.993,0.07
	C57.001,91.584,56.722,90.455,55.883,90.905z"/>
<path class="st17" d="M66.86,81.776c-0.673,0.424-0.541,0.852,0.021,0.895c0.561,0.044,1.763-0.285,2.23-0.702
	S68.567,80.706,66.86,81.776z"/>
<path class="st17" d="M24.739,33.782c-0.779,0.667-0.496,1.326,0.255,1.387c0.752,0.06,2.249-0.469,2.759-1.123
	C28.265,33.393,26.712,32.095,24.739,33.782z"/>
<path class="st17" d="M24.739,21.286c-0.779,0.668-0.496,1.326,0.255,1.387c0.752,0.06,2.249-0.469,2.759-1.123
	C28.265,20.897,26.712,19.6,24.739,21.286z"/>
<path class="st17" d="M29.062,32.298c-0.409,0.35-0.261,0.695,0.132,0.727c0.395,0.031,1.181-0.246,1.449-0.589
	C30.91,32.093,30.097,31.412,29.062,32.298z"/>
<path class="st17" d="M18.914,36.417c-0.188,0.25-0.032,0.592,0.217,0.689s0.683-0.021,0.786-0.289
	C20.017,36.55,19.39,35.784,18.914,36.417z"/>
<path class="st17" d="M34.197,33.938c-0.192,0.706,0.376,1.16,0.95,1.034c0.574-0.127,1.36-0.889,1.367-1.521
	C36.521,32.817,34.686,32.153,34.197,33.938z"/>
<path class="st17" d="M28.722,15.114c-0.192,0.705,0.486,1.708,1.059,1.582c0.576-0.127,4.908-2.207,4.915-2.84
	C34.701,13.224,29.209,13.329,28.722,15.114z"/>
<path class="st17" d="M16.319,56.201c-0.877,0.433-0.905,1.51-0.33,2.058c0.577,0.547,1.974,0.75,2.631,0.171
	C19.278,57.85,18.54,55.11,16.319,56.201z"/>
<path class="st17" d="M22.698,82.411c-1.426,0.598-3.613,1.565-2.891,4.376c0.724,2.811,3.18,6.622,7.95,3.946
	C32.527,88.058,28.48,79.985,22.698,82.411z"/>
<path class="st17" d="M48.86,67.289c0,0-1.734-1.214-3.373-0.467c-1.638,0.746-3.084,5.974-0.771,7.562
	c2.312,1.586,2.987,0.84,2.987,0.84s-2.986,2.053-2.217,3.547c0.771,1.493,6.166,1.773,6.456,0s-0.675-2.801-1.734-2.707
	c-1.061,0.094,1.928-2.15,1.06-5.136c0,0,0.385,0.376,1.832-1.212c0,0,1.734,1.583,3.275,1.212c0,0-4.046,1.267-3.083,2.36
	c0.963,1.096,13.778-1.242,9.54-2.36c-4.24-1.118-5.012-0.745-5.012-0.745s1.734-1.308,2.023-3.174c0,0,1.832,0.141,3.181-1.609
	c0,0,4.336,2.59,6.359,0c2.024-2.592-0.964-5.111-5.203-2.684c0,0,1.927-0.934,2.022-4.295c0,0,3.084,0.56,5.012-2.054
	c1.927-2.613,2.506-7.467-2.41-3.733c-4.914,3.733-3.757,3.641-3.757,3.641s-2.505-0.934-3.758,0.187
	c-1.255,1.12-1.351,2.427-1.351,2.427s-2.215,0.561-2.601,2.24c0,0-3.564-3.92-6.071-2.053c-2.505,1.866-2.022,5.537,0.58,6.875
	C51.849,65.95,49.728,65.329,48.86,67.289z"/>
<path class="st17" d="M54.353,44.513c-1.488,0.967-3.084,1.12-1.444,4.668c1.638,3.547,1.348,7.653,5.588,5.32
	c4.239-2.334,5.011-4.652,5.011-4.652s2.505,2.318,5.203,0.451c2.699-1.866,3.951-3.92,0.963-4.106
	c-2.986-0.187-4.239-0.747-5.01,0.747c-0.771,1.493-1.35,1.493-1.35,1.493s-0.303-0.84-1.5-2.147c0,0,1.309,1.308,1.115-1.773
	c0,0,4.143-0.559,4.721-4.107l-3.468-5.413c0,0,0.66,1.213-2.368,0.466c-3.029-0.746-6.111,0.095-5.341,2.147
	c0.771,2.054,0.867,2.986,2.216,2.613c1.348-0.373,0.676,1.493,0.676,1.493l-1.297,2.334C58.067,44.046,55.866,43.53,54.353,44.513z
	"/>
<path class="st17" d="M36.19,49.227c-1.599,0.571-2.024,1.494-4.337,0c-2.312-1.493-1.928-4.013-0.241-5.321
	c1.687-1.307,3.854,0.047,4.578-0.467c0.722-0.513-0.297-2.286,1.802-3.547c2.1-1.26,4.557-1.073,5.086-0.56
	c0.53,0.514,2.071,4.481,0,5.554c-2.07,1.073-4.486-1.131-5.086-0.379C37.394,45.259,38.543,48.386,36.19,49.227z"/>
<path class="st17" d="M45.825,32.004c-1.439-1.29-2.729-1.447-3.821,0c-1.093,1.447-1.044,3.407-1.044,3.407s0.846,2.428,3.169,1.4
	S47.753,33.73,45.825,32.004z"/>
<path class="st17" d="M42.598,27.523c0.972,0.725,4.287,1.308,4.962-0.933s0.387-2.428,1.012-4.201
	c0.627-1.773,0.627-2.987,0.627-2.987s-2.408-3.034-4.145-3.641c0,0,1.977,1.728,0.53,2.754c-1.444,1.026-0.915,1.399-4.095,1.167
	s-4.497-0.28-4.681,1.54c-0.187,1.82-0.378,3.268,1.066,2.007c1.446-1.26,2.892-2.847,3.807-1.727c0.916,1.12,1.396,2.94,1.396,2.94
	S41.345,26.59,42.598,27.523z"/>
<path class="st17" d="M53.485,87.357c0,0-1.807,0.771-3.107,0.351s-2.312-0.141-1.951-1.33c0.361-1.19,3.241-2.311,3.788-1.4
	c0.548,0.91,1.849,1.825,1.849,1.825s0.867-1.333,1.808-0.563c0.938,0.769,1.228,1.579,0,1.594
	C54.642,87.849,53.485,87.357,53.485,87.357z"/>
<path class="st17" d="M56.304,79.446c-0.585-1.046,1.764-2.24,1.764-2.24s5.318-1.26,5.681-0.63c0.361,0.63-0.265,1.4-1.94,2.38
	C60.134,79.937,57.243,81.127,56.304,79.446z"/>
<path class="st17" d="M65.987,78.345c0.868,1.592-2.602,3.207-2.818,1.944S65.987,78.345,65.987,78.345z"/>
<path class="st17" d="M61.808,81.687c0,0,0.928,2.24-1.385,2.24c-2.312,0-2.355-0.56-2.355-0.56S61.315,81.197,61.808,81.687z"/>
<path class="st17" d="M53.702,89.878c0.871,0.141,0.96-0.252-1.182,1.765c-2.143,2.017-5.615,2.716-4.168,0.966
	S52.835,89.737,53.702,89.878z"/>
<path class="st17" d="M35.136,114.241c0,0,3.824-4.691,7.365-4.691s3.758,0,3.758,0s5.059-4.34,3.18-4.55
	S36.948,103.67,35.136,114.241z"/>
<path class="st17" d="M33.25,112.911c0,0-1.59-7.142-6.433-6.932c-4.841,0.211-6.865,6.932-6.865,6.932s3.181-1.541,7.084-1.19
	C30.937,112.071,33.25,112.911,33.25,112.911z"/>
<path class="st17" d="M16.917,113.4c0,0,1.302-3.92-4.119-4.899c-5.421-0.98-7.949-0.561-7.299-2.171s2.963-0.28,2.168-2.8
	c-0.795-2.521,1.662-2.871,1.662-2.871s7.227,0.279,6.359-2.94s-3.541-7.001-5.492-6.791S8.1,90.92,8.1,90.92
	s-2.023-3.731-3.18-3.087s-1.601,1.285-1.601,1.285s-1.838,11.174-1.563,20.004c0,0-1.101,1.338,3.164,1.198
	s5.854,2.591,5.854,2.591L16.917,113.4z"/>
<path class="st17" d="M10.991,51.114c0.078-0.184,0.155-0.368,0.23-0.553c3.242-7.946,3.336-16.433,3.336-16.433l-1.44,1.739
	c2.71-6.441,0.765-19.161,0.765-19.161c-0.206,3.472-1.156,5.261-1.156,5.261l-2.703-8.465c0,0-0.016,0.18-0.051,0.507
	c1.205,4.663,2.927,9.849,0.67,13.141c0,0,1.54-0.98,2.24-2.24c0,0,0.199,8.401-3.821,11.622c0,0,2.819-1.121,4.021-3.221
	c0,0,0.5,3.5-3.42,9.94c-3.922,6.441-6.721,9.382-6.721,9.382s1.399,0.56,4.761-1.4c0,0-0.7,6.021-6.301,9.102
	c0,0,1.12,0.42,4.061-1.961c0,0-0.14,4.005-4.761,9.424c0,0,2.24-1.303,3.92-3.402c0,0,0,4.76-4.62,7.84c0,0,2.66-0.56,4.2-2.24
	c0,0-0.7,4.341-4.2,8.262c0,0,1.819-0.84,3.081-1.961c0,0,0.35,2.608,0.434,6.345c2.688-2.794,4.052-8.098,4.052-8.098l-0.478,4.692
	c3.58-5.602,3.71-14.303,3.71-14.303s0.048-1.658,0.023-0.828c-0.023,0.828-3.733,2.133-3.733,2.133
	c5.203-6.138,7.469-21.838,7.469-21.838S7.522,59.214,10.991,51.114z"/>
<path class="st17" d="M7.278,110.565c0,0-0.087,0.634-0.102,1.461C7.304,111.249,7.278,110.565,7.278,110.565z"/>
<path class="st17" d="M70.402,94.499c2.801-2.801-1.399-13.861,0-17.223c1.399-3.36,5.741,3.641,7.001-0.561
	c1.26-4.2-2.381-8.82-1.96-13.161c0.382-3.937,5.253-2.806,0.305-11.443c2.472,6.23-1.679,5.101-3.124,12.549
	c-1.465,7.546,3.398,3.222-3.398,7.829c-6.795,4.607,1.248,10.623-0.822,16.272c-2.068,5.649-3.556-4.765-6.595-3.085
	c-3.037,1.68-3.402,9.242-4.969,12.711c-1.567,3.469-1.233-3.749-4.677-3.346c-3.444,0.404,0.922,18.079,0.357,25.64
	c-0.566,7.561,0.006,6.161-1.741,5.831c-1.746-0.331-6.094-13.602-9.607-13.602c-3.512,0-3.769,3.29-4.657,7.49
	c-0.89,4.201-2.471,4.201-4.581,4.201s1.83-6.161-2.178-6.785c-4.007-0.625-3.975-7.964-3.975-7.964s-0.139,5.788-2.287,5.788
	s-5.973,10.361-7.893,10.849c-1.919,0.487,0.063-7.302-1.008-10.569s-2.952,0-5.513,0c-1.685,0-1.931-2.309-1.904-3.895
	c-0.178,1.096-0.662,2.378-1.967,2.215c-1.93-0.242-3.104-3.894-3.387-4.874c0.215,3.481,0.686,6.13,1.23,6.834
	c4.622,5.974,9.941-1.12,10.502,2.8c0.561,3.921-0.141,12.882,3.36,13.303c3.501,0.42,3.64-12.602,6.161-14.002
	c2.521-1.4,6.16-1.121,6.86,2.8s-0.84,14.981,2.801,15.122s5.601-21.143,9.381-20.723s7.281,17.502,6.721,24.503
	c-0.56,7.001,11.621,9.382,10.222-7.28c-1.4-16.662-5.742-24.783-6.441-29.264s-1.12-8.541,0.421-5.181
	c1.54,3.36,4.761,6.86,7.141,4.2s-1.261-13.021,1.4-13.582C64.242,88.338,67.602,97.299,70.402,94.499z"/>
<linearGradient id="SVGID_3_" gradientUnits="userSpaceOnUse" x1="38.2656" y1="145.335" x2="38.2656" y2="40.521">
	<stop  offset="0" style="stop-color:#161616;stop-opacity:0.21"/>
	<stop  offset="1" style="stop-color:#161616;stop-opacity:0"/>
</linearGradient>
<path class="st9" d="M31.989,135.979c0,0-0.223-21.364-0.298-29.719c-0.074-8.354-6.517-41.397-7.122-51.665
	c-0.606-10.269,0.062-14.074,0.062-14.074s4.815,8.547,6.379,12.012c1.562,3.467,9.398,23.404,13.159,39.435
	s6.615,28.734,8.047,53.368c0,0-3.227-0.453-3.273-3.967c-0.049-3.514-2.408-25.821-6.823-25.867S36.657,137.46,31.989,135.979z"/>
<path class="st6" d="M45.589,120.631c0,0-10.26-54.523-14.579-54.681c-4.321-0.156,6.581,59.398,6.581,59.398
	s1.75-9.147,3.581-9.707C43.005,115.081,45.589,120.631,45.589,120.631z"/>
<path class="st6" d="M28.818,118.649c0,0-4.769-34.197-6.399-49.5s-1.41-27.201-2.467-18.061c-1.057,9.143,0.604,74.26,0.604,74.26
	s0.143-6.627,2.521-7.047S28.818,118.649,28.818,118.649z"/>
<path class="st6" d="M9.902,118.351c0,0,1.473-12.467,2.632-33.631c1.161-21.164,5.079-33.623,4.52-41.303
	c-0.559-7.678-0.371-23.152-3.172-26.71S9.744,5.482,9.744,5.482s-2.11,6.412,2.31,16.084c4.423,9.673-5.827,47.583-5.827,47.583
	S3.062,91.224,2.68,94.173C2.298,97.12,8.095,81.614,8.095,81.614L7.177,118.69L9.902,118.351z"/>
<linearGradient id="SVGID_4_" gradientUnits="userSpaceOnUse" x1="27.292" y1="69.9277" x2="58.3262" y2="69.9277">
	<stop  offset="0" style="stop-color:#010101;stop-opacity:0"/>
	<stop  offset="1" style="stop-color:#010101;stop-opacity:0.21"/>
</linearGradient>
<path class="st10" d="M52.521,104.863c0,0-5.26-14.347-9.441-27.548c-4.181-13.199-15.787-42.323-15.787-42.323
	s17.973,34.173,24.871,51.811c6.896,17.638,6.139,16.614,6.139,16.614s-1.445,0.396-3.891-2.837
	c-2.445-3.234-2.425-4.803-2.248-1.499C52.339,102.386,52.521,104.863,52.521,104.863z"/>
<linearGradient id="SVGID_5_" gradientUnits="userSpaceOnUse" x1="33.2305" y1="64.1113" x2="63.8467" y2="64.1113">
	<stop  offset="0" style="stop-color:#010101;stop-opacity:0"/>
	<stop  offset="1" style="stop-color:#010101;stop-opacity:0.21"/>
</linearGradient>
<path class="st11" d="M60.563,91.967c0,0-14.457-32.726-20.675-42.236c-6.22-9.512-8.702-16.979-4.753-11.752
	c3.948,5.228,26.403,38.458,28.711,51.713C63.847,89.691,59.268,85.28,60.563,91.967z"/>
<linearGradient id="SVGID_6_" gradientUnits="userSpaceOnUse" x1="38.8799" y1="56.793" x2="74.0088" y2="56.793">
	<stop  offset="0" style="stop-color:#010101;stop-opacity:0"/>
	<stop  offset="1" style="stop-color:#010101;stop-opacity:0.21"/>
</linearGradient>
<path class="st12" d="M70.196,80.347c0,0-32.229-46.994-31.297-47.107c0.932-0.115,22.242,16.206,35.109,44.076
	C74.009,77.315,69.335,73.675,70.196,80.347z"/>
<path class="st2" d="M46.482,34.323c3.194,0.279,6.357,1.123,9.321,2.416c2.976,1.276,5.756,2.982,8.328,4.938
	c2.562,1.974,4.922,4.197,7.041,6.625c2.123,2.42,4.035,5.032,5.578,7.844c-0.96-1.282-1.949-2.534-3.004-3.73
	c-1.034-1.209-2.112-2.381-3.217-3.521c-2.218-2.271-4.562-4.413-7.079-6.328c-2.503-1.93-5.182-3.629-8.013-5.036
	C52.601,36.135,49.608,35.032,46.482,34.323z"/>
<linearGradient id="SVGID_7_" gradientUnits="userSpaceOnUse" x1="62.2168" y1="67.7979" x2="62.2168" y2="34.8247">
	<stop  offset="0" style="stop-color:#010101;stop-opacity:0"/>
	<stop  offset="1" style="stop-color:#010101;stop-opacity:0.21"/>
</linearGradient>
<path class="st13" d="M74.742,67.798c0,0-7.696-12.045-17.362-22.164c-9.666-10.121-10.897-10.81-10.897-10.81
	s20.302,0.962,31.469,23.341C77.951,58.165,74.742,56.146,74.742,67.798z"/>
<linearGradient id="SVGID_8_" gradientUnits="userSpaceOnUse" x1="48.0508" y1="55.1846" x2="48.0508" y2="12.6538">
	<stop  offset="0" style="stop-color:#010101;stop-opacity:0"/>
	<stop  offset="1" style="stop-color:#010101;stop-opacity:0.21"/>
</linearGradient>
<path class="st14" d="M19.952,12.653l6.026,7.96c0,0,12.406,6.015,20.504,14.211c0,0,13.711-2.2,29.667,20.36
	c0,0-11.464-19.451-23.629-29.419C52.521,25.766,50.106,34.559,19.952,12.653z"/>
<linearGradient id="SVGID_9_" gradientUnits="userSpaceOnUse" x1="68.0371" y1="55.1846" x2="68.0371" y2="30.9771">
	<stop  offset="0" style="stop-color:#010101;stop-opacity:0"/>
	<stop  offset="1" style="stop-color:#010101;stop-opacity:0.21"/>
</linearGradient>
<path class="st15" d="M76.149,55.185c0,0-5.497-12.635-16.225-24.208"/>
<linearGradient id="SVGID_10_" gradientUnits="userSpaceOnUse" x1="43.3945" y1="55.9473" x2="43.3945" y2="3.3447">
	<stop  offset="0" style="stop-color:#010101;stop-opacity:0"/>
	<stop  offset="1" style="stop-color:#010101;stop-opacity:0.21"/>
</linearGradient>
<path class="st18" d="M77.531,55.947c0,0-9.495-17.036-21.919-29.924C41.019,10.887,16.936-4.399,9.341,7.735
	c0,0-1.76-2.059,10.939-1.022S53.252,22.017,77.531,55.947z"/>
<linearGradient id="SVGID_11_" gradientUnits="userSpaceOnUse" x1="13.1367" y1="36.0347" x2="36.5146" y2="36.0347">
	<stop  offset="0" style="stop-color:#010101;stop-opacity:0"/>
	<stop  offset="1" style="stop-color:#010101;stop-opacity:0.21"/>
</linearGradient>
<path class="st19" d="M36.515,68.062c0,0-7.011-17.385-10.733-24.947c-3.724-7.562-10.249-21.816-11.302-30.461
	c-1.052-8.646-1.052-8.646-1.052-8.646s-1.104,8.008,0.989,17.96c2.094,9.951,7.541,18.855,12.184,27.281
	C31.243,57.674,36.186,64.447,36.515,68.062z"/>
</svg>
