<?xml version="1.0" encoding="UTF-8" standalone="no"?>
<svg
   xmlns:dc="http://purl.org/dc/elements/1.1/"
   xmlns:cc="http://creativecommons.org/ns#"
   xmlns:rdf="http://www.w3.org/1999/02/22-rdf-syntax-ns#"
   xmlns:svg="http://www.w3.org/2000/svg"
   xmlns="http://www.w3.org/2000/svg"
   xmlns:xlink="http://www.w3.org/1999/xlink"
   xmlns:sodipodi="http://sodipodi.sourceforge.net/DTD/sodipodi-0.dtd"
   xmlns:inkscape="http://www.inkscape.org/namespaces/inkscape"
   width="425"
   height="425"
   viewBox="-220 -370 425 425"
   id="svg2"
   version="1.1"
   inkscape:version="0.48.2 r9819"
   sodipodi:docname="Reinel_compass_rose-simplified-more.svg">
  <metadata
     id="metadata76">
    <rdf:RDF>
      <cc:Work
         rdf:about="">
        <dc:format>image/svg+xml</dc:format>
        <dc:type
           rdf:resource="http://purl.org/dc/dcmitype/StillImage" />
        <dc:title></dc:title>
      </cc:Work>
    </rdf:RDF>
  </metadata>
  <sodipodi:namedview
     pagecolor="#ffffff"
     bordercolor="#666666"
     borderopacity="1"
     objecttolerance="10"
     gridtolerance="10"
     guidetolerance="10"
     inkscape:pageopacity="0"
     inkscape:pageshadow="2"
     inkscape:window-width="1178"
     inkscape:window-height="683"
     id="namedview74"
     showgrid="false"
     inkscape:zoom="0.88813559"
     inkscape:cx="212.5"
     inkscape:cy="197.42367"
     inkscape:window-x="38"
     inkscape:window-y="0"
     inkscape:window-maximized="0"
     inkscape:current-layer="svg2"
     fit-margin-top="0"
     fit-margin-left="0"
     fit-margin-right="0"
     fit-margin-bottom="0" />
  <defs
     id="defs4">
    <g
       id="r5">
      <g
         id="r4">
        <g
           id="r3">
          <g
             id="r2">
            <path
               xd="M0 h94 m9 h49 m12 h51"
               id="r1"
               d=""
               inkscape:connector-curvature="0"
               style="fill:none;stroke-width:1.5" />
            <use
               xlink:href="#r1"
               transform="scale(-1,-1)"
               id="use11"
               x="0"
               y="0"
               width="440"
               height="590" />
          </g>
          <use
             xlink:href="#r2"
             transform="matrix(0,1,-1,0,0,0)"
             id="use13"
             x="0"
             y="0"
             width="440"
             height="590" />
        </g>
        <use
           xlink:href="#r3"
           transform="matrix(0.70710678,0.70710678,-0.70710678,0.70710678,0,0)"
           id="use15"
           x="0"
           y="0"
           width="440"
           height="590" />
      </g>
      <use
         xlink:href="#r4"
         transform="matrix(0.92387953,0.38268343,-0.38268343,0.92387953,0,0)"
         id="use17"
         x="0"
         y="0"
         width="440"
         height="590" />
    </g>
  </defs>
  <g
     id="s3"
     transform="translate(-7.5,-157.5)">
    <g
       id="s2">
      <g
         id="s1">
        <path
           d="M 39.416,95.16 C 33.65,103.95 30.76,110.5 28.93,117.18 15.24,113.43 13.54,127.15 23.04,131 13.71,145.8 7.84,173.93 0,212 L 0,103 a 103,103 0 0 0 39.416,-7.84 z"
           id="s0"
           stroke-miterlimit="9"
           inkscape:connector-curvature="0"
           style="fill:#0000ff;stroke:#1f1a17;stroke-width:1;stroke-miterlimit:9" />
        <use
           xlink:href="#s0"
           transform="scale(-1,1)"
           id="use53"
           style="fill:#ff0000"
           x="0"
           y="0"
           width="440"
           height="590" />
      </g>
      <use
         xlink:href="#s1"
         transform="matrix(0.70710678,0.70710678,-0.70710678,0.70710678,0,0)"
         id="use57"
         x="0"
         y="0"
         width="440"
         height="590" />
    </g>
    <use
       xlink:href="#s2"
       transform="matrix(0,1,-1,0,0,0)"
       id="use59"
       x="0"
       y="0"
       width="440"
       height="590" />
  </g>
  <use
     xlink:href="#s3"
     transform="matrix(-1,0,0,-1,-15,-315)"
     id="use61"
     x="0"
     y="0"
     width="440"
     height="590" />
</svg>
