<?xml version="1.0" encoding="UTF-8" standalone="no"?>
<svg xmlns="http://www.w3.org/2000/svg" version="1.1" viewBox="0 0 1000 1000">
  <svg xmlns="http://www.w3.org/2000/svg" version="1.1" viewBox="0 0 8 8" shape-rendering="crispEdges">
    <g transform="translate(0, 0) scale(1,1)">
      <rect fill="#003f37" x="0" y="0" width="1" height="1"/>
      <rect fill="#871b43" x="1" y="0" width="1" height="1"/>
      <rect fill="#6d1b46" x="2" y="0" width="1" height="1"/>
      <rect fill="#0c010a" x="3" y="0" width="1" height="1"/>
      <rect fill="#fd1b46" x="4" y="0" width="1" height="1"/>
      <rect fill="#fc81fa" x="5" y="0" width="1" height="1"/>
      <rect fill="#0d1b46" x="6" y="0" width="1" height="1"/>
      <rect fill="#e03f37" x="7" y="0" width="1" height="1"/>
      
      <rect fill="#e03f07" x="0" y="1" width="1" height="1"/>
      <rect fill="#a71b43" x="1" y="1" width="1" height="1"/>
      <rect fill="#0d1b46" x="2" y="1" width="1" height="1"/>
      <rect fill="#fc813a" x="3" y="1" width="1" height="1"/>
      <rect fill="#0d1b46" x="4" y="1" width="1" height="1"/>
      <rect fill="#fc813a" x="5" y="1" width="1" height="1"/>
      <rect fill="#6faf4f" x="6" y="1" width="1" height="1"/>
      <rect fill="#003f37" x="7" y="1" width="1" height="1"/>
      
      <rect fill="#f00f37" x="0" y="2" width="1" height="1"/>
      <rect fill="#401ba3" x="1" y="2" width="1" height="1"/>
      <rect fill="#6d1b46" x="2" y="2" width="1" height="1"/>
      <rect fill="#fca13a" x="3" y="2" width="1" height="1"/>
      <rect fill="#6d1b46" x="4" y="2" width="1" height="1"/>
      <rect fill="#fc010a" x="5" y="2" width="1" height="1"/>
      <rect fill="#6d1b46" x="6" y="2" width="1" height="1"/>
      <rect fill="#e03f37" x="7" y="2" width="1" height="1"/>
      
      <rect fill="#a03f37" x="0" y="3" width="1" height="1"/>
      <rect fill="#071b43" x="1" y="3" width="1" height="1"/>
      <rect fill="#0d0b06" x="2" y="3" width="1" height="1"/>
      <rect fill="#fc813a" x="3" y="3" width="1" height="1"/>
      <rect fill="#0a1b46" x="4" y="3" width="1" height="1"/>
      <rect fill="#fc813a" x="5" y="3" width="1" height="1"/>
      <rect fill="#6dfb46" x="6" y="3" width="1" height="1"/>
      <rect fill="#e00f37" x="7" y="3" width="1" height="1"/>
      
      <rect fill="#e03f37" x="0" y="4" width="1" height="1"/>
      <rect fill="#471b43" x="1" y="4" width="1" height="1"/>
      <rect fill="#ff1b46" x="2" y="4" width="1" height="1"/>
      <rect fill="#0c813a" x="3" y="4" width="1" height="1"/>
      <rect fill="#6d1b46" x="4" y="4" width="1" height="1"/>
      <rect fill="#fc010a" x="5" y="4" width="1" height="1"/>
      <rect fill="#6d1b46" x="6" y="4" width="1" height="1"/>
      <rect fill="#f03ff7" x="7" y="4" width="1" height="1"/>
      
      <rect fill="#003f37" x="0" y="5" width="1" height="1"/>
      <rect fill="#47fb43" x="1" y="5" width="1" height="1"/>
      <rect fill="#6d1b46" x="2" y="5" width="1" height="1"/>
      <rect fill="#fc813a" x="3" y="5" width="1" height="1"/>
      <rect fill="#0d1b46" x="4" y="5" width="1" height="1"/>
      <rect fill="#f0813a" x="5" y="5" width="1" height="1"/>
      <rect fill="#fd1b46" x="6" y="5" width="1" height="1"/>
      <rect fill="#e03f37" x="7" y="5" width="1" height="1"/>
      
      <rect fill="#e03f37" x="0" y="6" width="1" height="1"/>
      <rect fill="#471b43" x="1" y="6" width="1" height="1"/>
      <rect fill="#fd1b46" x="2" y="6" width="1" height="1"/>
      <rect fill="#0c813a" x="3" y="6" width="1" height="1"/>
      <rect fill="#6d1b46" x="4" y="6" width="1" height="1"/>
      <rect fill="#fc8f3a" x="5" y="6" width="1" height="1"/>
      <rect fill="#0d1b46" x="6" y="6" width="1" height="1"/>
      <rect fill="#e0ff37" x="7" y="6" width="1" height="1"/>

      <rect fill="#471b43" x="0" y="7" width="1" height="1"/>
      <rect fill="#fd1b46" x="1" y="7" width="1" height="1"/>
      <rect fill="#0c813a" x="2" y="7" width="1" height="1"/>
      <rect fill="#6d1b46" x="3" y="7" width="1" height="1"/>
      <rect fill="#fc8f3a" x="4" y="7" width="1" height="1"/>
      <rect fill="#0d1b46" x="5" y="7" width="1" height="1"/>
      <rect fill="#e0ff37" x="6" y="7" width="1" height="1"/>
      <rect fill="#003f37" x="7" y="7" width="1" height="1"/>
    </g>
  </svg>
</svg>